<?xml version="1.0" encoding="UTF-8" standalone="no"?>
<!-- Created with Inkscape (http://www.inkscape.org/) -->

<svg
   xmlns:dc="http://purl.org/dc/elements/1.1/"
   xmlns:cc="http://creativecommons.org/ns#"
   xmlns:rdf="http://www.w3.org/1999/02/22-rdf-syntax-ns#"
   xmlns:svg="http://www.w3.org/2000/svg"
   xmlns="http://www.w3.org/2000/svg"
   xmlns:xlink="http://www.w3.org/1999/xlink"
   xmlns:sodipodi="http://sodipodi.sourceforge.net/DTD/sodipodi-0.dtd"
   xmlns:inkscape="http://www.inkscape.org/namespaces/inkscape"
   width="33.866665mm"
   height="33.866665mm"
   viewBox="0 0 33.866665 33.866665"
   version="1.1"
   id="svg302"
   inkscape:version="0.92.5 (2060ec1f9f, 2020-04-08)"
   sodipodi:docname="icon.svg">
  <defs
     id="defs296">
    <linearGradient
       inkscape:collect="always"
       xlink:href="#linearGradient1245"
       id="linearGradient175"
       gradientUnits="userSpaceOnUse"
       x1="65"
       y1="204"
       x2="65"
       y2="200"
       gradientTransform="matrix(0.31313808,0,0,0.31313808,-28.707207,35.269632)" />
    <linearGradient
       id="linearGradient1245">
      <stop
         id="stop1241"
         offset="0"
         style="stop-color:#9a9996;stop-opacity:1" />
      <stop
         id="stop1243"
         offset="1"
         style="stop-color:#c0bfbc;stop-opacity:1" />
    </linearGradient>
    <linearGradient
       inkscape:collect="always"
       xlink:href="#linearGradient1697"
       id="linearGradient173"
       gradientUnits="userSpaceOnUse"
       gradientTransform="matrix(0.31313808,0,0,0.31313808,-28.080931,28.380594)"
       x1="50"
       y1="238"
       x2="74"
       y2="238" />
    <linearGradient
       id="linearGradient1697">
      <stop
         style="stop-color:#deddda;stop-opacity:1"
         offset="0"
         id="stop1685" />
      <stop
         id="stop1687"
         offset="0.04545455"
         style="stop-color:#eeeeec;stop-opacity:1" />
      <stop
         style="stop-color:#deddda;stop-opacity:1"
         offset="0.09090909"
         id="stop1689" />
      <stop
         id="stop1691"
         offset="0.90909094"
         style="stop-color:#deddda;stop-opacity:1" />
      <stop
         style="stop-color:#eeeeec;stop-opacity:1"
         offset="0.95454544"
         id="stop1693" />
      <stop
         style="stop-color:#c0bfbc;stop-opacity:1"
         offset="1"
         id="stop1695" />
    </linearGradient>
    <linearGradient
       inkscape:collect="always"
       xlink:href="#linearGradient1245"
       id="linearGradient161"
       gradientUnits="userSpaceOnUse"
       x1="65"
       y1="204"
       x2="65"
       y2="200"
       gradientTransform="matrix(0.30238094,0,0,0.30238094,-25.098994,23.694952)" />
    <linearGradient
       inkscape:collect="always"
       xlink:href="#linearGradient1697"
       id="linearGradient159"
       gradientUnits="userSpaceOnUse"
       gradientTransform="matrix(0.30238094,0,0,0.30238094,-24.494233,17.042572)"
       x1="50"
       y1="238"
       x2="74"
       y2="238" />
    <linearGradient
       inkscape:collect="always"
       xlink:href="#linearGradient1245"
       id="linearGradient134"
       gradientUnits="userSpaceOnUse"
       x1="65"
       y1="204"
       x2="65"
       y2="200"
       gradientTransform="matrix(0.30238094,0,0,0.30238094,-25.098994,15.528553)" />
    <linearGradient
       inkscape:collect="always"
       xlink:href="#linearGradient1697"
       id="linearGradient132"
       gradientUnits="userSpaceOnUse"
       gradientTransform="matrix(0.30238094,0,0,0.30238094,-24.494233,8.8761714)"
       x1="50"
       y1="238"
       x2="74"
       y2="238" />
    <linearGradient
       gradientUnits="userSpaceOnUse"
       y2="238"
       x2="108"
       y1="238"
       x1="20"
       id="linearGradient1049"
       xlink:href="#linearGradient1697"
       gradientTransform="matrix(0.30238094,0,0,0.30238094,-25.098994,15.528553)" />
  </defs>
  <sodipodi:namedview
     id="base"
     pagecolor="#ffffff"
     bordercolor="#666666"
     borderopacity="1.0"
     inkscape:pageopacity="0.0"
     inkscape:pageshadow="2"
     inkscape:zoom="3.5109375"
     inkscape:cx="101.28624"
     inkscape:cy="76.499934"
     inkscape:document-units="mm"
     inkscape:current-layer="layer1"
     showgrid="false"
     inkscape:window-width="1556"
     inkscape:window-height="836"
     inkscape:window-x="44"
     inkscape:window-y="27"
     inkscape:window-maximized="1" />
  <metadata
     id="metadata299">
    <rdf:RDF>
      <cc:Work
         rdf:about="">
        <dc:format>image/svg+xml</dc:format>
        <dc:type
           rdf:resource="http://purl.org/dc/dcmitype/StillImage" />
        <dc:title></dc:title>
      </cc:Work>
    </rdf:RDF>
  </metadata>
  <g
     inkscape:label="Calque 1"
     inkscape:groupmode="layer"
     id="layer1"
     transform="translate(23.185007,-69.957123)">
    <rect
       style="opacity:1;vector-effect:none;fill:#ffffff;fill-opacity:1;fill-rule:evenodd;stroke:none;stroke-width:1.46533597;stroke-linecap:butt;stroke-linejoin:miter;stroke-miterlimit:4;stroke-dasharray:none;stroke-dashoffset:0;stroke-opacity:1;paint-order:stroke fill markers"
       id="rect1232"
       width="33.866665"
       height="33.866665"
       x="-23.185007"
       y="69.957123" />
    <rect
       style="display:inline;opacity:1;vector-effect:none;fill:url(#linearGradient1049);fill-opacity:1;stroke:none;stroke-width:0.0035831px;stroke-linecap:butt;stroke-linejoin:miter;stroke-miterlimit:4;stroke-dasharray:none;stroke-dashoffset:0;stroke-opacity:1;marker:none;marker-start:none;marker-mid:none;marker-end:none;paint-order:normal;enable-background:new"
       id="rect1041"
       width="26.609522"
       height="17.538095"
       x="-19.051374"
       y="86.28569"
       rx="2.6526637"
       ry="2.4244635" />
    <rect
       ry="2.4244635"
       rx="2.6526637"
       y="69.957123"
       x="-19.051374"
       height="32.657143"
       width="26.609522"
       id="rect15435-6"
       style="display:inline;opacity:1;vector-effect:none;fill:#f6f5f4;fill-opacity:1;stroke:none;stroke-width:0.0035831px;stroke-linecap:butt;stroke-linejoin:miter;stroke-miterlimit:4;stroke-dasharray:none;stroke-dashoffset:0;stroke-opacity:1;marker:none;marker-start:none;marker-mid:none;marker-end:none;paint-order:normal;enable-background:new" />
    <rect
       style="display:inline;opacity:1;vector-effect:none;fill:#1a5fb4;fill-opacity:1;stroke:none;stroke-width:0.00360214px;stroke-linecap:butt;stroke-linejoin:miter;stroke-miterlimit:4;stroke-dasharray:none;stroke-dashoffset:0;stroke-opacity:1;marker:none;marker-start:none;marker-mid:none;marker-end:none;paint-order:normal;enable-background:new"
       id="rect1167"
       width="24.190475"
       height="29.633333"
       x="-17.841852"
       y="71.771408"
       rx="1.2095237"
       ry="1.210181" />
    <rect
       ry="1.210181"
       rx="1.2095237"
       y="71.166649"
       x="-17.841852"
       height="29.633333"
       width="24.190475"
       id="rect15441-8"
       style="display:inline;opacity:1;vector-effect:none;fill:#3584e4;fill-opacity:1;stroke:none;stroke-width:0.00360214px;stroke-linecap:butt;stroke-linejoin:miter;stroke-miterlimit:4;stroke-dasharray:none;stroke-dashoffset:0;stroke-opacity:1;marker:none;marker-start:none;marker-mid:none;marker-end:none;paint-order:normal;enable-background:new" />
    <rect
       ry="0"
       rx="0"
       y="79.333031"
       x="-17.841852"
       height="0.60476184"
       width="24.190475"
       id="rect15443-6"
       style="display:inline;opacity:1;vector-effect:none;fill:#1c71d8;fill-opacity:1;stroke:none;stroke-width:0.00360116px;stroke-linecap:butt;stroke-linejoin:miter;stroke-miterlimit:4;stroke-dasharray:none;stroke-dashoffset:0;stroke-opacity:1;marker:none;marker-start:none;marker-mid:none;marker-end:none;paint-order:normal;enable-background:new" />
    <rect
       ry="0"
       rx="0"
       y="89.009216"
       x="-17.841852"
       height="3.9023433"
       width="24.190475"
       id="rect15461-2"
       style="display:inline;opacity:1;vector-effect:none;fill:#1c71d8;fill-opacity:1;stroke:none;stroke-width:0.00914773px;stroke-linecap:butt;stroke-linejoin:miter;stroke-miterlimit:4;stroke-dasharray:none;stroke-dashoffset:0;stroke-opacity:1;marker:none;marker-start:none;marker-mid:none;marker-end:none;paint-order:normal;enable-background:new" />
    <path
       id="path26035"
       d="m -8.4680426,74.795216 h 5.4428571 c 0.5025565,0 0.9071428,0.302381 0.9071428,0.907143 v 1.511905 H -3.318117 l -0.00945,-1.209524 h -4.8380958 l 0.00945,1.209524 h -1.2189723 v -1.511905 c 0,-0.502557 0.4045849,-0.907143 0.9071425,-0.907143 z"
       style="display:inline;opacity:1;vector-effect:none;fill:url(#linearGradient132);fill-opacity:1;stroke:none;stroke-width:0.0035831px;stroke-linecap:butt;stroke-linejoin:miter;stroke-miterlimit:4;stroke-dasharray:none;stroke-dashoffset:0;stroke-opacity:1;marker:none;marker-start:none;marker-mid:none;marker-end:none;paint-order:normal;enable-background:new"
       inkscape:connector-curvature="0" />
    <rect
       style="display:inline;opacity:0.1;fill:#000000;fill-opacity:1;stroke:none;stroke-width:1.20952368;stroke-linecap:butt;stroke-linejoin:miter;stroke-miterlimit:4;stroke-dasharray:none;stroke-dashoffset:0;stroke-opacity:1;enable-background:new"
       id="rect1059"
       width="7.2571425"
       height="1.2095237"
       x="-9.3751841"
       y="76.609497"
       ry="0.45357141" />
    <path
       style="display:inline;opacity:1;fill:url(#linearGradient134);fill-opacity:1;stroke:none;stroke-width:1.20952368;stroke-linecap:butt;stroke-linejoin:miter;stroke-miterlimit:4;stroke-dasharray:none;stroke-dashoffset:0;stroke-opacity:1;enable-background:new"
       d="m -8.4680426,76.00474 c -0.5025576,0 -0.9071425,0.404586 -0.9071425,0.907143 v 0.302381 h 1.2095231 v -0.604762 h 4.8380959 v 0.604762 h 1.2095234 v -0.302381 c 0,-0.502557 -0.4045863,-0.907143 -0.9071428,-0.907143 z"
       id="rect1061"
       inkscape:connector-curvature="0" />
    <rect
       y="76.609497"
       x="-8.1656609"
       height="0.60476184"
       width="4.8380947"
       id="rect1189"
       style="display:inline;opacity:0.1;fill:#000000;fill-opacity:1;stroke:none;stroke-width:1.20952368;stroke-linecap:butt;stroke-linejoin:miter;stroke-miterlimit:4;stroke-dasharray:none;stroke-dashoffset:0;stroke-opacity:1;enable-background:new" />
    <path
       inkscape:connector-curvature="0"
       style="display:inline;opacity:1;vector-effect:none;fill:url(#linearGradient159);fill-opacity:1;stroke:none;stroke-width:0.0035831px;stroke-linecap:butt;stroke-linejoin:miter;stroke-miterlimit:4;stroke-dasharray:none;stroke-dashoffset:0;stroke-opacity:1;marker:none;marker-start:none;marker-mid:none;marker-end:none;paint-order:normal;enable-background:new"
       d="m -8.4680426,82.961618 h 5.4428571 c 0.5025565,0 0.9071428,0.30238 0.9071428,0.907142 v 1.511905 H -3.318117 l -0.00948,-1.209524 h -4.8380959 l 0.00948,1.209524 H -9.3751851 V 83.86876 c 0,-0.502558 0.4045848,-0.907142 0.9071425,-0.907142 z"
       id="path149" />
    <rect
       ry="0.45357141"
       y="84.775879"
       x="-9.3751841"
       height="1.2095237"
       width="7.2571425"
       id="rect151"
       style="display:inline;opacity:0.1;fill:#000000;fill-opacity:1;stroke:none;stroke-width:1.20952368;stroke-linecap:butt;stroke-linejoin:miter;stroke-miterlimit:4;stroke-dasharray:none;stroke-dashoffset:0;stroke-opacity:1;enable-background:new" />
    <path
       inkscape:connector-curvature="0"
       id="path153"
       d="m -8.4680426,84.171141 c -0.5025576,0 -0.9071425,0.404586 -0.9071425,0.907143 v 0.302381 h 1.2095231 v -0.604762 h 4.8380959 v 0.604762 h 1.2095234 v -0.302381 c 0,-0.502557 -0.4045863,-0.907143 -0.9071428,-0.907143 z"
       style="display:inline;opacity:1;fill:url(#linearGradient161);fill-opacity:1;stroke:none;stroke-width:1.20952368;stroke-linecap:butt;stroke-linejoin:miter;stroke-miterlimit:4;stroke-dasharray:none;stroke-dashoffset:0;stroke-opacity:1;enable-background:new" />
    <rect
       style="display:inline;opacity:0.1;fill:#000000;fill-opacity:1;stroke:none;stroke-width:1.20952368;stroke-linecap:butt;stroke-linejoin:miter;stroke-miterlimit:4;stroke-dasharray:none;stroke-dashoffset:0;stroke-opacity:1;enable-background:new"
       id="rect155"
       width="4.8380947"
       height="0.60476184"
       x="-8.1656609"
       y="84.775879" />
    <g
       style="display:inline;enable-background:new"
       id="g71"
       transform="matrix(0.39807878,0,0,0.39807878,-91.617788,44.044301)">
      <circle
         style="opacity:1;vector-effect:none;fill:#000000;fill-opacity:0.2;fill-rule:evenodd;stroke:none;stroke-width:1.66579986;stroke-linecap:butt;stroke-linejoin:miter;stroke-miterlimit:4;stroke-dasharray:none;stroke-dashoffset:0;stroke-opacity:1;paint-order:stroke fill markers"
         id="circle59"
         cx="215.95219"
         cy="112.58775"
         r="28.764349" />
      <circle
         r="28.764349"
         cy="111.72266"
         cx="215.92596"
         id="path49"
         style="opacity:1;vector-effect:none;fill:#fea238;fill-opacity:1;fill-rule:evenodd;stroke:none;stroke-width:1.66579986;stroke-linecap:butt;stroke-linejoin:miter;stroke-miterlimit:4;stroke-dasharray:none;stroke-dashoffset:0;stroke-opacity:1;paint-order:stroke fill markers" />
      <path
         style="fill:#cb822d;fill-opacity:1;stroke-width:0.26781377"
         d="m 207.5044,121.00906 c 0.49303,-0.37605 3.17023,-3.04649 5.94935,-5.9343 2.77911,-2.8878 5.45212,-5.49802 5.94,-5.80048 1.08224,-0.67091 4.13953,-0.74132 5.32428,-0.12262 1.91749,1.00136 3.38814,3.53756 3.41324,5.88631 0.0148,1.3834 -0.0678,1.63537 -0.72083,2.19753 -1.64108,1.4128 -3.88466,0.98121 -4.67272,-0.89889 -0.38975,-0.92983 -0.38038,-1.04423 0.16301,-1.99082 l 0.5765,-1.0043 h -0.69513 c -1.05019,0 -1.67299,0.44291 -2.27095,1.61499 -0.87052,1.70637 -0.93821,3.13911 -0.21396,4.52904 1.17568,2.25627 1.30222,2.29211 8.09361,2.29211 h 5.95938 l 0.99361,-0.75817 c 1.71924,-1.31186 2.42736,-2.67058 2.52334,-4.84177 0.0963,-2.17941 -0.30386,-3.06981 -1.94105,-4.31855 -1.05573,-0.80525 -3.40334,-1.23871 -3.7419,-0.69089 -0.10148,0.1642 -0.37293,0.29854 -0.60322,0.29854 -0.35911,0 -0.3664,-0.063 -0.0511,-0.44288 0.25806,-0.31094 0.3675,-1.24842 0.36735,-3.14681 -1.8e-4,-2.4077 -0.0778,-2.85063 -0.70875,-4.043 -0.97653,-1.84551 -2.4614,-3.29304 -4.22777,-4.121448 -1.2699,-0.595576 -1.84796,-0.697546 -3.90112,-0.688166 -2.07653,0.01 -2.62415,0.11446 -3.95437,0.757896 -2.07355,1.002968 -3.99432,2.913298 -4.61735,4.592258 -0.27229,0.73378 -0.52887,1.37929 -0.57016,1.43444 -0.0412,0.0552 -0.47184,-0.23427 -0.95678,-0.64317 -2.3573,-1.98764 -5.5966,-1.96966 -7.94927,0.0441 -1.66751,1.42733 -2.311,3.81454 -1.80002,6.67776 0.19268,1.07971 0.18368,1.09548 -0.90533,1.58656 -1.24526,0.56153 -2.59079,1.96092 -2.83994,2.95365 -0.43473,1.73211 0.93274,4.04478 2.95261,4.99349 1.52535,0.71642 3.85296,0.52765 5.08549,-0.41245 z"
         id="path61"
         inkscape:connector-curvature="0" />
      <path
         inkscape:connector-curvature="0"
         id="path55"
         d="m 207.87215,119.90579 c 0.49304,-0.37606 3.17024,-3.04649 5.94935,-5.9343 2.77912,-2.88781 5.45213,-5.49803 5.94001,-5.80048 1.08223,-0.67091 4.13953,-0.74132 5.32427,-0.12262 1.9175,1.00136 3.38814,3.53756 3.41325,5.88631 0.0148,1.3834 -0.0678,1.63537 -0.72083,2.19753 -1.64109,1.4128 -3.88466,0.9812 -4.67272,-0.8989 -0.38975,-0.92983 -0.38039,-1.04422 0.163,-1.99081 l 0.5765,-1.00431 h -0.69512 c -1.05019,0 -1.673,0.44292 -2.27095,1.61499 -0.87053,1.70637 -0.93821,3.13912 -0.21396,4.52905 1.17568,2.25626 1.30222,2.29211 8.09361,2.29211 h 5.95938 l 0.9936,-0.75817 c 1.71925,-1.31186 2.42737,-2.67058 2.52335,-4.84177 0.0963,-2.17941 -0.30386,-3.06982 -1.94105,-4.31855 -1.05573,-0.80525 -3.40334,-1.23871 -3.7419,-0.6909 -0.10148,0.16421 -0.37293,0.29855 -0.60322,0.29855 -0.35911,0 -0.3664,-0.063 -0.0511,-0.44288 0.25805,-0.31095 0.36749,-1.24842 0.36735,-3.14681 -1.8e-4,-2.4077 -0.0778,-2.85063 -0.70875,-4.043 -0.97653,-1.84551 -2.4614,-3.293032 -4.22777,-4.121454 -1.2699,-0.59557 -1.84796,-0.69754 -3.90112,-0.68817 -2.07653,0.01 -2.62416,0.11447 -3.95438,0.75789 -2.07355,1.003002 -3.99431,2.913314 -4.61735,4.592274 -0.27228,0.73378 -0.52886,1.37928 -0.57015,1.43444 -0.0412,0.0552 -0.47185,-0.23427 -0.95679,-0.64318 -2.35729,-1.98764 -5.59659,-1.96965 -7.94926,0.0441 -1.66751,1.42733 -2.311,3.81454 -1.80003,6.67776 0.19268,1.07971 0.18369,1.09548 -0.90532,1.58655 -1.24526,0.56154 -2.59079,1.96093 -2.83995,2.95366 -0.43473,1.73211 0.93274,4.04478 2.95262,4.99348 1.52534,0.71643 3.85296,0.52765 5.08548,-0.41245 z"
         style="fill:#ffffff;stroke-width:0.26781377" />
      <path
         style="fill:#cb822d;fill-opacity:1;stroke-width:0.26781377"
         d="m 201.09878,106.22267 c 0.29461,-0.0816 0.83693,-0.6383 1.20517,-1.23712 0.78975,-1.28424 2.8599,-2.72599 4.55284,-3.1708 1.38901,-0.36495 3.8431,-0.18109 5.21095,0.39044 l 0.9292,0.38824 0.96091,-1.30901 c 0.52851,-0.71996 1.24185,-1.525438 1.58521,-1.789972 0.61247,-0.471852 0.6167,-0.507432 0.22309,-1.874954 -0.83659,-2.906576 -3.25562,-4.737321 -6.23122,-4.715828 -3.42263,0.02472 -5.99962,2.001355 -6.64236,5.09486 -0.20198,0.97215 -0.24828,1.00776 -1.20339,0.92547 -2.21917,-0.19119 -3.78114,0.96422 -4.66403,3.450034 -0.40359,1.13633 -0.57232,1.32616 -1.1788,1.32616 -1.4134,0 -1.77975,1.69038 -0.50556,2.33272 0.6728,0.33917 4.73518,0.47304 5.75799,0.18976 z"
         id="path63"
         inkscape:connector-curvature="0" />
      <path
         inkscape:connector-curvature="0"
         id="path51"
         d="m 201.46654,105.1194 c 0.29461,-0.0816 0.83692,-0.6383 1.20516,-1.23712 0.78976,-1.28424 2.8599,-2.726 4.55285,-3.1708 1.38901,-0.36495 3.8431,-0.18108 5.21094,0.39043 l 0.92921,0.38825 0.96091,-1.309 c 0.5285,-0.719962 1.24185,-1.525454 1.58521,-1.789994 0.61246,-0.47184 0.6167,-0.50742 0.22309,-1.874942 -0.83659,-2.906578 -3.25562,-4.737309 -6.23123,-4.715816 -3.42262,0.02472 -5.99962,2.001341 -6.64236,5.094836 -0.20197,0.972162 -0.24827,1.007772 -1.20338,0.925482 -2.21917,-0.191192 -3.78115,0.96422 -4.66404,3.450034 -0.40358,1.13633 -0.57231,1.32616 -1.17879,1.32616 -1.4134,0 -1.77975,1.69038 -0.50556,2.33272 0.6728,0.33917 4.73518,0.47304 5.75799,0.18976 z"
         style="fill:#ffffff;stroke-width:0.26781377" />
    </g>
    <rect
       style="display:inline;opacity:1;vector-effect:none;fill:#3584e4;fill-opacity:1;stroke:none;stroke-width:0.00236169px;stroke-linecap:butt;stroke-linejoin:miter;stroke-miterlimit:4;stroke-dasharray:none;stroke-dashoffset:0;stroke-opacity:1;marker:none;marker-start:none;marker-mid:none;marker-end:none;paint-order:normal;enable-background:new"
       id="rect189"
       width="26.907259"
       height="11.451906"
       x="-20.061497"
       y="91.808167"
       rx="1.3453629"
       ry="0.46767879" />
    <g
       id="g425"
       transform="matrix(1.3720569,0,0,1.3720569,5.2828857,-37.34176)">
      <path
         id="path163"
         d="m -11.484613,96.644681 h 5.6364858 c 0.520435,0 0.939414,0.313138 0.939414,0.939414 v 1.565695 h -1.242767 l -0.0098,-1.252557 h -5.0102078 l 0.0098,1.252557 h -1.262338 v -1.565695 c 0,-0.520436 0.418979,-0.939414 0.939413,-0.939414 z"
         style="display:inline;opacity:1;vector-effect:none;fill:url(#linearGradient173);fill-opacity:1;stroke:none;stroke-width:0.00371058px;stroke-linecap:butt;stroke-linejoin:miter;stroke-miterlimit:4;stroke-dasharray:none;stroke-dashoffset:0;stroke-opacity:1;marker:none;marker-start:none;marker-mid:none;marker-end:none;paint-order:normal;enable-background:new"
         inkscape:connector-curvature="0" />
      <rect
         style="display:inline;opacity:0.1;fill:#000000;fill-opacity:1;stroke:none;stroke-width:1.25255227;stroke-linecap:butt;stroke-linejoin:miter;stroke-miterlimit:4;stroke-dasharray:none;stroke-dashoffset:0;stroke-opacity:1;enable-background:new"
         id="rect165"
         width="7.5153136"
         height="1.2525523"
         x="-12.424027"
         y="98.523499"
         ry="0.4697071" />
      <path
         style="display:inline;opacity:1;fill:url(#linearGradient175);fill-opacity:1;stroke:none;stroke-width:1.25255227;stroke-linecap:butt;stroke-linejoin:miter;stroke-miterlimit:4;stroke-dasharray:none;stroke-dashoffset:0;stroke-opacity:1;enable-background:new"
         d="m -11.484613,97.897233 c -0.520435,0 -0.939414,0.418979 -0.939414,0.939415 v 0.313142 h 1.252552 v -0.626281 h 5.0102098 v 0.626281 h 1.252552 v -0.313142 c 0,-0.520436 -0.418979,-0.939415 -0.939414,-0.939415 z"
         id="path167"
         inkscape:connector-curvature="0" />
      <rect
         y="98.523499"
         x="-11.171476"
         height="0.62627614"
         width="5.0102091"
         id="rect169"
         style="display:inline;opacity:0.1;fill:#000000;fill-opacity:1;stroke:none;stroke-width:1.25255227;stroke-linecap:butt;stroke-linejoin:miter;stroke-miterlimit:4;stroke-dasharray:none;stroke-dashoffset:0;stroke-opacity:1;enable-background:new" />
    </g>
  </g>
</svg>
