<svg xmlns="http://www.w3.org/2000/svg" xmlns:xlink="http://www.w3.org/1999/xlink" width="500" zoomAndPan="magnify" viewBox="0 0 375 374.999991" height="500" preserveAspectRatio="xMidYMid meet" version="1.0"><path fill="#9f35bd" d="M 209.953125 264.25 C 200.183594 267.152344 189.796875 268.210938 179.058594 267.066406 C 135.492188 262.578125 103.632812 223.960938 107.417969 180.507812 L 58.570312 147.167969 L 4.617188 169.949219 C -4.976562 270.144531 68.164062 359.429688 168.496094 369.722656 C 197.367188 372.710938 225.441406 368.753906 250.878906 359.34375 L 205.289062 324.859375 Z M 209.953125 264.25 " fill-opacity="1" fill-rule="nonzero"/><path fill="#f973bf" d="M 59.714844 135.644531 L 6.113281 158.25 C 21.339844 62.894531 108.738281 -5.101562 205.992188 4.925781 C 239.085938 8.355469 269.183594 20.320312 294.445312 38.441406 L 287.050781 97.378906 L 234.507812 122.625 C 223.417969 114.53125 210.039062 109.078125 195.429688 107.582031 C 154.679688 103.359375 117.980469 130.453125 109.089844 169.335938 Z M 59.714844 135.644531 " fill-opacity="1" fill-rule="nonzero"/><path fill="#c59def" d="M 296.46875 104.152344 L 303.773438 45.65625 C 349.628906 83.390625 376.296875 142.59375 369.78125 206.015625 C 362.828125 273.664062 319.878906 328.992188 261.878906 354.855469 L 215.847656 320.109375 L 220.425781 260.292969 C 245.507812 248.855469 263.992188 224.839844 266.984375 195.550781 C 269.625 170.125 260.03125 146.375 243.042969 129.839844 Z M 296.46875 104.152344 " fill-opacity="1" fill-rule="nonzero"/></svg>