<svg width="12" height="12" viewBox="0 0 12 12" fill="none" xmlns="http://www.w3.org/2000/svg">
<g clip-path="url(#clip0_669_12586)">
<path d="M7.09048 0.104281C7.01838 0.0910128 6.94425 0.0937596 6.87333 0.112327C6.80242 0.130895 6.73645 0.164829 6.68011 0.211726C6.62377 0.258622 6.57842 0.317335 6.5473 0.383704C6.51617 0.450073 6.50001 0.522475 6.49998 0.595781V2.03528C5.89459 1.95496 5.27883 2.01514 4.70045 2.21116C4.12207 2.40717 3.5966 2.73375 3.16477 3.16557C2.73294 3.5974 2.40637 4.12287 2.21035 4.70125C2.01434 5.27964 1.95416 5.89539 2.03448 6.50078H0.594978C0.521671 6.50082 0.449269 6.51697 0.3829 6.5481C0.316531 6.57923 0.257819 6.62457 0.210922 6.68091C0.164025 6.73726 0.130091 6.80322 0.111523 6.87414C0.0929559 6.94505 0.090209 7.01919 0.103478 7.09128C0.301483 8.16704 0.789794 9.1682 1.51561 9.98651C2.24143 10.8048 3.17714 11.4092 4.22156 11.7342C5.26599 12.0592 6.37939 12.0925 7.44138 11.8305C8.50337 11.5686 9.47354 11.0212 10.247 10.2478C11.0204 9.47435 11.5677 8.50418 11.8297 7.44218C12.0917 6.38019 12.0584 5.26679 11.7334 4.22237C11.4084 3.17794 10.804 2.24223 9.98571 1.51642C9.16739 0.790598 8.16623 0.302286 7.09048 0.104281ZM5.99998 7.00078C5.82515 7.00029 5.65352 6.95384 5.50231 6.86608C5.3511 6.77832 5.22563 6.65234 5.13848 6.50078H3.99998C3.86737 6.50078 3.74019 6.4481 3.64642 6.35433C3.55266 6.26057 3.49998 6.13339 3.49998 6.00078C3.49998 5.86817 3.55266 5.741 3.64642 5.64723C3.74019 5.55346 3.86737 5.50078 3.99998 5.50078H5.13848C5.22562 5.35099 5.35019 5.22642 5.49998 5.13928V3.50078C5.49998 3.36817 5.55266 3.241 5.64642 3.14723C5.74019 3.05346 5.86737 3.00078 5.99998 3.00078C6.13259 3.00078 6.25976 3.05346 6.35353 3.14723C6.4473 3.241 6.49998 3.36817 6.49998 3.50078V5.13928C6.6907 5.24884 6.83983 5.41839 6.92416 5.62153C7.00849 5.82467 7.02328 6.05 6.96622 6.26241C6.90917 6.47483 6.78347 6.66242 6.60871 6.79597C6.43394 6.92952 6.21992 7.00152 5.99998 7.00078ZM4.98598 0.0507812C5.08487 0.0507812 5.18154 0.0801057 5.26376 0.135046C5.34599 0.189987 5.41007 0.268076 5.44792 0.35944C5.48576 0.450803 5.49566 0.551336 5.47637 0.648326C5.45708 0.745317 5.40946 0.834408 5.33953 0.904335C5.2696 0.974261 5.18051 1.02188 5.08352 1.04117C4.98653 1.06047 4.886 1.05056 4.79464 1.01272C4.70327 0.974877 4.62518 0.910791 4.57024 0.828566C4.5153 0.746342 4.48598 0.649672 4.48598 0.550781C4.48598 0.418173 4.53866 0.290996 4.63242 0.197228C4.72619 0.10346 4.85337 0.0507813 4.98598 0.0507812ZM2.93598 0.928781C3.03487 0.928781 3.13154 0.958106 3.21376 1.01305C3.29599 1.06799 3.36007 1.14608 3.39792 1.23744C3.43576 1.3288 3.44566 1.42934 3.42637 1.52633C3.40708 1.62332 3.35946 1.71241 3.28953 1.78233C3.2196 1.85226 3.13051 1.89988 3.03352 1.91917C2.93653 1.93847 2.836 1.92856 2.74464 1.89072C2.65327 1.85288 2.57518 1.78879 2.52024 1.70657C2.4653 1.62434 2.43598 1.52767 2.43598 1.42878C2.43571 1.29626 2.48807 1.16905 2.58154 1.07511C2.67501 0.98117 2.80196 0.928179 2.93448 0.927781L2.93598 0.928781ZM1.38948 2.42128C1.48837 2.42128 1.58504 2.45061 1.66726 2.50555C1.74949 2.56049 1.81357 2.63858 1.85142 2.72994C1.88926 2.8213 1.89916 2.92184 1.87987 3.01883C1.86058 3.11582 1.81296 3.20491 1.74303 3.27483C1.6731 3.34476 1.58401 3.39238 1.48702 3.41167C1.39003 3.43097 1.2895 3.42106 1.19814 3.38322C1.10677 3.34538 1.02868 3.28129 0.973743 3.19907C0.918802 3.11684 0.889478 3.02017 0.889478 2.92128C0.889478 2.78867 0.942156 2.6615 1.03592 2.56773C1.12969 2.47396 1.25687 2.42128 1.38948 2.42128ZM0.589478 4.50478C0.688368 4.50478 0.785038 4.53411 0.867263 4.58905C0.949487 4.64399 1.01357 4.72208 1.05142 4.81344C1.08926 4.9048 1.09916 5.00534 1.07987 5.10233C1.06058 5.19932 1.01296 5.28841 0.943031 5.35833C0.873105 5.42826 0.784013 5.47588 0.687023 5.49517C0.590032 5.51447 0.489499 5.50456 0.398136 5.46672C0.306773 5.42888 0.228683 5.36479 0.173743 5.28257C0.118802 5.20034 0.0894775 5.10367 0.0894775 5.00478C0.0894773 4.87235 0.142018 4.74532 0.23557 4.65158C0.329122 4.55784 0.456043 4.50505 0.588478 4.50478H0.589478Z" fill="#CCCFD2"/>
</g>
<defs>
<clipPath id="clip0_669_12586">
<rect width="12" height="12" fill="white"/>
</clipPath>
</defs>
</svg>
