<svg width="12" height="13" viewBox="0 0 12 13" fill="none" xmlns="http://www.w3.org/2000/svg">
<g clip-path="url(#clip0_669_12577)">
<path d="M0 9.69922C0.000793929 10.362 0.264441 10.9974 0.73311 11.4661C1.20178 11.9348 1.8372 12.1984 2.5 12.1992H9.5C10.1628 12.1984 10.7982 11.9348 11.2669 11.4661C11.7356 10.9974 11.9992 10.362 12 9.69922V5.19922H0V9.69922ZM8.5 7.44922C8.64834 7.44922 8.79334 7.49321 8.91668 7.57562C9.04001 7.65803 9.13614 7.77516 9.19291 7.91221C9.24967 8.04925 9.26453 8.20005 9.23559 8.34554C9.20665 8.49102 9.13522 8.62466 9.03033 8.72955C8.92544 8.83444 8.7918 8.90587 8.64632 8.93481C8.50083 8.96375 8.35003 8.94889 8.21299 8.89213C8.07594 8.83536 7.95881 8.73923 7.8764 8.6159C7.79399 8.49256 7.75 8.34755 7.75 8.19922C7.75 8.00031 7.82902 7.80954 7.96967 7.66889C8.11032 7.52824 8.30109 7.44922 8.5 7.44922ZM6 7.44922C6.14834 7.44922 6.29334 7.49321 6.41668 7.57562C6.54001 7.65803 6.63614 7.77516 6.69291 7.91221C6.74968 8.04925 6.76453 8.20005 6.73559 8.34554C6.70665 8.49102 6.63522 8.62466 6.53033 8.72955C6.42544 8.83444 6.2918 8.90587 6.14632 8.93481C6.00083 8.96375 5.85003 8.94889 5.71299 8.89213C5.57594 8.83536 5.45881 8.73923 5.3764 8.6159C5.29399 8.49256 5.25 8.34755 5.25 8.19922C5.25 8.00031 5.32902 7.80954 5.46967 7.66889C5.61032 7.52824 5.80109 7.44922 6 7.44922ZM3.5 7.44922C3.64834 7.44922 3.79334 7.49321 3.91668 7.57562C4.04001 7.65803 4.13614 7.77516 4.19291 7.91221C4.24968 8.04925 4.26453 8.20005 4.23559 8.34554C4.20665 8.49102 4.13522 8.62466 4.03033 8.72955C3.92544 8.83444 3.7918 8.90587 3.64632 8.93481C3.50083 8.96375 3.35003 8.94889 3.21299 8.89213C3.07594 8.83536 2.95881 8.73923 2.8764 8.6159C2.79399 8.49256 2.75 8.34755 2.75 8.19922C2.75 8.00031 2.82902 7.80954 2.96967 7.66889C3.11032 7.52824 3.30109 7.44922 3.5 7.44922Z" fill="#CCCFD2"/>
<path d="M9.5 1.19922H9V0.699219C9 0.566611 8.94732 0.439434 8.85355 0.345665C8.75979 0.251897 8.63261 0.199219 8.5 0.199219C8.36739 0.199219 8.24021 0.251897 8.14645 0.345665C8.05268 0.439434 8 0.566611 8 0.699219V1.19922H4V0.699219C4 0.566611 3.94732 0.439434 3.85355 0.345665C3.75979 0.251897 3.63261 0.199219 3.5 0.199219C3.36739 0.199219 3.24021 0.251897 3.14645 0.345665C3.05268 0.439434 3 0.566611 3 0.699219V1.19922H2.5C1.8372 1.20001 1.20178 1.46366 0.73311 1.93233C0.264441 2.401 0.000793929 3.03642 0 3.69922L0 4.19922H12V3.69922C11.9992 3.03642 11.7356 2.401 11.2669 1.93233C10.7982 1.46366 10.1628 1.20001 9.5 1.19922Z" fill="#CCCFD2"/>
</g>
<defs>
<clipPath id="clip0_669_12577">
<rect width="12" height="12" fill="white" transform="translate(0 0.199219)"/>
</clipPath>
</defs>
</svg>
