<svg width="17" height="24" viewBox="0 0 17 24" fill="none" xmlns="http://www.w3.org/2000/svg">
<path d="M1.41178 11.294H9.17649C9.95615 11.294 10.5882 10.6619 10.5882 9.88224V4.94107C10.5882 4.16138 9.95615 3.5293 9.17646 3.5293H1.41178C0.632085 3.5293 0 4.16138 0 4.94107V9.88224C0 10.6619 0.632085 11.294 1.41178 11.294Z" fill="#CCCFD2"/>
<path d="M16.6998 4.15189C16.4374 3.7627 15.9988 3.52936 15.5294 3.5293H13.4118C12.6321 3.5293 12 4.16138 12 4.94107V9.88224C12 10.6619 12.632 11.294 13.4118 11.294H15.5294C16.3091 11.294 16.9412 10.6619 16.9412 9.88224V4.94107C16.9416 4.65976 16.8575 4.38479 16.6998 4.15189Z" fill="#CCCFD2"/>
<path d="M4.31858 12.9475C4.08567 12.7897 3.81071 12.7056 3.52939 12.7061H1.41174C0.632085 12.7061 0 13.3381 0 14.1178V19.059C0 19.8387 0.632085 20.4708 1.41178 20.4708H3.52942C4.30911 20.4708 4.9412 19.8387 4.9412 19.059V14.1178C4.9411 13.6485 4.70776 13.2099 4.31858 12.9475Z" fill="#CCCFD2"/>
<path d="M16.3172 12.9475C16.0843 12.7897 15.8093 12.7056 15.528 12.7061H7.76334C6.98365 12.7061 6.35156 13.3381 6.35156 14.1178V19.059C6.35156 19.8387 6.98365 20.4708 7.76334 20.4708H15.5281C16.3077 20.4708 16.9398 19.8387 16.9398 19.059V14.1178C16.9397 13.6485 16.7064 13.2099 16.3172 12.9475Z" fill="#CCCFD2"/>
</svg>
