<svg width="42" height="42" viewBox="0 0 42 42" fill="none" xmlns="http://www.w3.org/2000/svg">
<g filter="url(#filter0_d_99_8093)">
<path d="M4 10C4 5.58172 7.58172 2 12 2H30C34.4183 2 38 5.58172 38 10V28C38 32.4183 34.4183 36 30 36H12C7.58172 36 4 32.4183 4 28V10Z" fill="#F9FAFA"/>
<path d="M20.7829 17.7687L16.3706 13.333L15.333 14.3783L19.2224 18.2913L15.333 22.2043L16.3736 23.2497L20.7858 18.814C20.9233 18.675 21.0002 18.4868 20.9997 18.2907C20.9991 18.0947 20.9211 17.9069 20.7829 17.7687Z" fill="#1890FF"/>
<path d="M26.4499 17.7687L22.0376 13.333L21 14.3783L24.8894 18.2913L21 22.2043L22.0406 23.2497L26.4528 18.814C26.5903 18.675 26.6672 18.4868 26.6667 18.2907C26.6661 18.0947 26.5881 17.9069 26.4499 17.7687Z" fill="#CCCFD2"/>
<path d="M12 3H30V1H12V3ZM37 10V28H39V10H37ZM30 35H12V37H30V35ZM5 28V10H3V28H5ZM12 35C8.13401 35 5 31.866 5 28H3C3 32.9706 7.02944 37 12 37V35ZM37 28C37 31.866 33.866 35 30 35V37C34.9706 37 39 32.9706 39 28H37ZM30 3C33.866 3 37 6.13401 37 10H39C39 5.02944 34.9706 1 30 1V3ZM12 1C7.02944 1 3 5.02944 3 10H5C5 6.13401 8.13401 3 12 3V1Z" fill="white"/>
</g>
<defs>
<filter id="filter0_d_99_8093" x="0" y="0" width="42" height="42" filterUnits="userSpaceOnUse" color-interpolation-filters="sRGB">
<feFlood flood-opacity="0" result="BackgroundImageFix"/>
<feColorMatrix in="SourceAlpha" type="matrix" values="0 0 0 0 0 0 0 0 0 0 0 0 0 0 0 0 0 0 127 0" result="hardAlpha"/>
<feOffset dy="2"/>
<feGaussianBlur stdDeviation="2"/>
<feComposite in2="hardAlpha" operator="out"/>
<feColorMatrix type="matrix" values="0 0 0 0 0.568627 0 0 0 0 0.611765 0 0 0 0 0.698039 0 0 0 0.15 0"/>
<feBlend mode="normal" in2="BackgroundImageFix" result="effect1_dropShadow_99_8093"/>
<feBlend mode="normal" in="SourceGraphic" in2="effect1_dropShadow_99_8093" result="shape"/>
</filter>
</defs>
</svg>
