<?xml version="1.0" standalone="no"?>
<!DOCTYPE svg PUBLIC "-//W3C//DTD SVG 20010904//EN"
 "http://www.w3.org/TR/2001/REC-SVG-20010904/DTD/svg10.dtd">
<svg version="1.0" xmlns="http://www.w3.org/2000/svg"
 width="80pt" height="80pt" viewBox="0 0 2373.000000 2772.000000"
 preserveAspectRatio="xMidYMid meet">

<g transform="translate(0.000000,2772.000000) scale(0.100000,-0.100000)"
fill="#00FF00" stroke="none">
<path d="M697 27710 c-517 -87 -818 -605 -636 -1096 25 -68 60 -131 104 -191
18 -23 2362 -2720 5211 -5993 4194 -4819 5185 -5963 5209 -6013 27 -56 30 -72
30 -157 0 -86 -3 -100 -30 -153 -19 -36 -1989 -2460 -5220 -6424 -2855 -3501
-5207 -6391 -5228 -6422 -151 -225 -171 -538 -51 -791 94 -199 264 -348 489
-427 l80 -28 10680 -3 c7949 -2 10694 0 10735 8 166 35 323 157 399 311 40 81
60 171 646 2862 656 3013 626 2858 589 3001 -26 100 -80 193 -158 271 -214
212 -529 233 -773 52 -46 -34 -91 -86 -178 -202 -494 -662 -1071 -1145 -1790
-1499 -680 -335 -1415 -515 -2265 -556 -158 -8 -2163 -10 -6768 -8 l-6544 3
4329 5300 c2380 2915 4351 5330 4379 5365 123 156 225 336 276 490 30 88 32
105 32 235 1 153 -13 213 -74 320 -16 28 -1597 1907 -3514 4177 -1917 2270
-3486 4130 -3486 4133 0 10 11036 5 11292 -5 136 -5 298 -14 360 -20 959 -88
1787 -366 2518 -845 494 -323 888 -699 1260 -1200 111 -151 166 -202 264 -250
176 -86 361 -87 535 -3 92 45 217 169 259 259 50 106 65 178 59 293 -4 93 -53
291 -601 2431 -328 1282 -606 2358 -617 2392 -60 182 -238 337 -434 378 -61
13 -1384 15 -10695 14 -5844 -1 -10647 -5 -10673 -9z"/>
</g>
</svg>
