<?xml version="1.0" encoding="UTF-8" standalone="no"?>
<!DOCTYPE svg PUBLIC "-//W3C//DTD SVG 1.1//EN"
 "http://www.w3.org/Graphics/SVG/1.1/DTD/svg11.dtd">
<!-- Generated by graphviz version 2.43.0 (0)
 -->
<!-- Title: %3 Pages: 1 -->
<svg width="529pt" height="260pt"
 viewBox="0.00 0.00 528.86 260.00" xmlns="http://www.w3.org/2000/svg" xmlns:xlink="http://www.w3.org/1999/xlink">
<g id="graph0" class="graph" transform="scale(1 1) rotate(0) translate(4 256)">
<title>%3</title>
<polygon fill="white" stroke="transparent" points="-4,4 -4,-256 524.86,-256 524.86,4 -4,4"/>
<!-- DimsInput(_index_ranks) -->
<g id="node1" class="node">
<title>DimsInput(_index_ranks)</title>
<ellipse fill="none" stroke="black" cx="418.82" cy="-126" rx="102.08" ry="18"/>
<text text-anchor="middle" x="418.82" y="-122.3" font-family="Times,serif" font-size="14.00">DimsInput(_index_ranks)</text>
</g>
<!-- GenDims(batch) -->
<g id="node2" class="node">
<title>GenDims(batch)</title>
<ellipse fill="none" stroke="black" cx="140.39" cy="-234" rx="69.59" ry="18"/>
<text text-anchor="middle" x="140.39" y="-230.3" font-family="Times,serif" font-size="14.00">GenDims(batch)</text>
</g>
<!-- GenDims(batch)&#45;&gt;DimsInput(_index_ranks) -->
<g id="edge1" class="edge">
<title>GenDims(batch)&#45;&gt;DimsInput(_index_ranks)</title>
<path fill="none" stroke="black" d="M204.06,-226.54C228.51,-222.43 256.46,-216.22 280.78,-207 319.01,-192.49 358.84,-167.69 385.64,-149.34"/>
<polygon fill="black" stroke="black" points="387.64,-152.21 393.86,-143.64 383.65,-146.46 387.64,-152.21"/>
</g>
<!-- GenDims(read_location) -->
<g id="node3" class="node">
<title>GenDims(read_location)</title>
<ellipse fill="none" stroke="black" cx="140.39" cy="-180" rx="98.58" ry="18"/>
<text text-anchor="middle" x="140.39" y="-176.3" font-family="Times,serif" font-size="14.00">GenDims(read_location)</text>
</g>
<!-- GenDims(read_location)&#45;&gt;DimsInput(_index_ranks) -->
<g id="edge2" class="edge">
<title>GenDims(read_location)&#45;&gt;DimsInput(_index_ranks)</title>
<path fill="none" stroke="black" d="M208.75,-167C231.61,-162.57 257.31,-157.58 280.78,-153 300.03,-149.24 320.8,-145.16 340.2,-141.34"/>
<polygon fill="black" stroke="black" points="341.08,-144.73 350.21,-139.36 339.72,-137.86 341.08,-144.73"/>
</g>
<!-- GenDims(write_location) -->
<g id="node4" class="node">
<title>GenDims(write_location)</title>
<ellipse fill="none" stroke="black" cx="140.39" cy="-126" rx="101.28" ry="18"/>
<text text-anchor="middle" x="140.39" y="-122.3" font-family="Times,serif" font-size="14.00">GenDims(write_location)</text>
</g>
<!-- GenDims(write_location)&#45;&gt;DimsInput(_index_ranks) -->
<g id="edge3" class="edge">
<title>GenDims(write_location)&#45;&gt;DimsInput(_index_ranks)</title>
<path fill="none" stroke="black" d="M241.97,-126C262.89,-126 285.06,-126 306.35,-126"/>
<polygon fill="black" stroke="black" points="306.39,-129.5 316.39,-126 306.38,-122.5 306.39,-129.5"/>
</g>
<!-- GenDims(slice_element) -->
<g id="node5" class="node">
<title>GenDims(slice_element)</title>
<ellipse fill="none" stroke="black" cx="140.39" cy="-72" rx="99.38" ry="18"/>
<text text-anchor="middle" x="140.39" y="-68.3" font-family="Times,serif" font-size="14.00">GenDims(slice_element)</text>
</g>
<!-- GenDims(slice_element)&#45;&gt;DimsInput(_index_ranks) -->
<g id="edge4" class="edge">
<title>GenDims(slice_element)&#45;&gt;DimsInput(_index_ranks)</title>
<path fill="none" stroke="black" d="M209.1,-85.07C231.88,-89.48 257.43,-94.44 280.78,-99 300.03,-102.76 320.8,-106.84 340.2,-110.66"/>
<polygon fill="black" stroke="black" points="339.72,-114.14 350.21,-112.64 341.08,-107.27 339.72,-114.14"/>
</g>
<!-- GenDims(read_address_component) -->
<g id="node6" class="node">
<title>GenDims(read_address_component)</title>
<ellipse fill="none" stroke="black" cx="140.39" cy="-18" rx="140.28" ry="18"/>
<text text-anchor="middle" x="140.39" y="-14.3" font-family="Times,serif" font-size="14.00">GenDims(read_address_component)</text>
</g>
<!-- GenDims(read_address_component)&#45;&gt;DimsInput(_index_ranks) -->
<g id="edge5" class="edge">
<title>GenDims(read_address_component)&#45;&gt;DimsInput(_index_ranks)</title>
<path fill="none" stroke="black" d="M234.48,-31.42C250.19,-34.99 266.14,-39.45 280.78,-45 319.01,-59.51 358.84,-84.31 385.64,-102.66"/>
<polygon fill="black" stroke="black" points="383.65,-105.54 393.86,-108.36 387.64,-99.79 383.65,-105.54"/>
</g>
</g>
</svg>
