<?xml version="1.0" encoding="UTF-8" standalone="no"?>
<!DOCTYPE svg PUBLIC "-//W3C//DTD SVG 1.1//EN"
 "http://www.w3.org/Graphics/SVG/1.1/DTD/svg11.dtd">
<!-- Generated by graphviz version 2.43.0 (0)
 -->
<!-- Title: %3 Pages: 1 -->
<svg width="766pt" height="368pt"
 viewBox="0.00 0.00 765.55 368.00" xmlns="http://www.w3.org/2000/svg" xmlns:xlink="http://www.w3.org/1999/xlink">
<g id="graph0" class="graph" transform="scale(1 1) rotate(0) translate(4 364)">
<title>%3</title>
<polygon fill="white" stroke="transparent" points="-4,4 -4,-364 761.55,-364 761.55,4 -4,4"/>
<!-- Schema -->
<g id="node1" class="node">
<title>Schema</title>
<ellipse fill="none" stroke="black" cx="718.55" cy="-211" rx="38.99" ry="18"/>
<text text-anchor="middle" x="718.55" y="-207.3" font-family="Times,serif" font-size="14.00">Schema</text>
</g>
<!-- ShapeMap -->
<g id="node2" class="node">
<title>ShapeMap</title>
<ellipse fill="none" stroke="black" cx="174.44" cy="-72" rx="48.99" ry="18"/>
<text text-anchor="middle" x="174.44" y="-68.3" font-family="Times,serif" font-size="14.00">ShapeMap</text>
</g>
<!-- TensorShape(indices) -->
<g id="node3" class="node">
<title>TensorShape(indices)</title>
<ellipse fill="none" stroke="black" cx="350.18" cy="-72" rx="87.18" ry="18"/>
<text text-anchor="middle" x="350.18" y="-68.3" font-family="Times,serif" font-size="14.00">TensorShape(indices)</text>
</g>
<!-- ShapeMap&#45;&gt;TensorShape(indices) -->
<g id="edge1" class="edge">
<title>ShapeMap&#45;&gt;TensorShape(indices)</title>
<path fill="none" stroke="purple" d="M223.37,-72C232.64,-72 242.65,-72 252.84,-72"/>
<polygon fill="purple" stroke="purple" points="253.06,-75.5 263.06,-72 253.06,-68.5 253.06,-75.5"/>
</g>
<!-- TensorShape(params) -->
<g id="node4" class="node">
<title>TensorShape(params)</title>
<ellipse fill="none" stroke="black" cx="350.18" cy="-18" rx="88.28" ry="18"/>
<text text-anchor="middle" x="350.18" y="-14.3" font-family="Times,serif" font-size="14.00">TensorShape(params)</text>
</g>
<!-- ShapeMap&#45;&gt;TensorShape(params) -->
<g id="edge2" class="edge">
<title>ShapeMap&#45;&gt;TensorShape(params)</title>
<path fill="none" stroke="purple" d="M211.66,-60.14C226.39,-55.37 243.58,-49.86 259.18,-45 268.98,-41.95 279.39,-38.77 289.53,-35.71"/>
<polygon fill="purple" stroke="purple" points="290.57,-39.05 299.14,-32.81 288.55,-32.35 290.57,-39.05"/>
</g>
<!-- DataTensor(indices) -->
<g id="node14" class="node">
<title>DataTensor(indices)</title>
<ellipse fill="none" stroke="black" cx="560.36" cy="-142" rx="82.59" ry="18"/>
<text text-anchor="middle" x="560.36" y="-138.3" font-family="Times,serif" font-size="14.00">DataTensor(indices)</text>
</g>
<!-- TensorShape(indices)&#45;&gt;DataTensor(indices) -->
<g id="edge14" class="edge">
<title>TensorShape(indices)&#45;&gt;DataTensor(indices)</title>
<path fill="none" stroke="black" d="M403.42,-86.45C415.89,-90.24 429.08,-94.52 441.17,-99 457.59,-105.08 460.83,-108.7 477.17,-115 485.31,-118.14 494,-121.24 502.56,-124.17"/>
<polygon fill="black" stroke="black" points="501.53,-127.52 512.13,-127.39 503.77,-120.88 501.53,-127.52"/>
</g>
<!-- DataTensor(params) -->
<g id="node15" class="node">
<title>DataTensor(params)</title>
<ellipse fill="none" stroke="black" cx="560.36" cy="-88" rx="83.39" ry="18"/>
<text text-anchor="middle" x="560.36" y="-84.3" font-family="Times,serif" font-size="14.00">DataTensor(params)</text>
</g>
<!-- TensorShape(params)&#45;&gt;DataTensor(params) -->
<g id="edge17" class="edge">
<title>TensorShape(params)&#45;&gt;DataTensor(params)</title>
<path fill="none" stroke="black" d="M401.79,-32.63C414.68,-36.51 428.47,-40.79 441.17,-45 463.44,-52.39 487.85,-61.15 508.67,-68.83"/>
<polygon fill="black" stroke="black" points="507.67,-72.2 518.27,-72.39 510.11,-65.63 507.67,-72.2"/>
</g>
<!-- DTypes -->
<g id="node5" class="node">
<title>DTypes</title>
<ellipse fill="none" stroke="black" cx="174.44" cy="-153" rx="38.19" ry="18"/>
<text text-anchor="middle" x="174.44" y="-149.3" font-family="Times,serif" font-size="14.00">DTypes</text>
</g>
<!-- TensorDType(indices) -->
<g id="node6" class="node">
<title>TensorDType(indices)</title>
<ellipse fill="none" stroke="black" cx="350.18" cy="-180" rx="90.18" ry="18"/>
<text text-anchor="middle" x="350.18" y="-176.3" font-family="Times,serif" font-size="14.00">TensorDType(indices)</text>
</g>
<!-- DTypes&#45;&gt;TensorDType(indices) -->
<g id="edge3" class="edge">
<title>DTypes&#45;&gt;TensorDType(indices)</title>
<path fill="none" stroke="purple" d="M211.02,-158.53C227.66,-161.12 248.22,-164.31 268.35,-167.44"/>
<polygon fill="purple" stroke="purple" points="268.07,-170.94 278.49,-169.02 269.15,-164.02 268.07,-170.94"/>
</g>
<!-- TensorDType(params) -->
<g id="node7" class="node">
<title>TensorDType(params)</title>
<ellipse fill="none" stroke="black" cx="350.18" cy="-126" rx="90.98" ry="18"/>
<text text-anchor="middle" x="350.18" y="-122.3" font-family="Times,serif" font-size="14.00">TensorDType(params)</text>
</g>
<!-- DTypes&#45;&gt;TensorDType(params) -->
<g id="edge4" class="edge">
<title>DTypes&#45;&gt;TensorDType(params)</title>
<path fill="none" stroke="purple" d="M211.02,-147.47C227.58,-144.9 248.01,-141.72 268.04,-138.61"/>
<polygon fill="purple" stroke="purple" points="268.79,-142.03 278.13,-137.04 267.72,-135.12 268.79,-142.03"/>
</g>
<!-- TensorDType(indices)&#45;&gt;DataTensor(indices) -->
<g id="edge15" class="edge">
<title>TensorDType(indices)&#45;&gt;DataTensor(indices)</title>
<path fill="none" stroke="black" d="M417.33,-167.92C439.42,-163.89 464.16,-159.38 486.71,-155.26"/>
<polygon fill="black" stroke="black" points="487.36,-158.7 496.57,-153.46 486.1,-151.81 487.36,-158.7"/>
</g>
<!-- TensorDType(params)&#45;&gt;DataTensor(params) -->
<g id="edge18" class="edge">
<title>TensorDType(params)&#45;&gt;DataTensor(params)</title>
<path fill="none" stroke="black" d="M417.62,-113.87C439.39,-109.9 463.71,-105.46 485.96,-101.4"/>
<polygon fill="black" stroke="black" points="486.82,-104.8 496.03,-99.56 485.56,-97.91 486.82,-104.8"/>
</g>
<!-- ArgMap -->
<g id="node8" class="node">
<title>ArgMap</title>
<ellipse fill="none" stroke="black" cx="350.18" cy="-288" rx="40.89" ry="18"/>
<text text-anchor="middle" x="350.18" y="-284.3" font-family="Times,serif" font-size="14.00">ArgMap</text>
</g>
<!-- ArgInt(batch_dims) -->
<g id="node9" class="node">
<title>ArgInt(batch_dims)</title>
<ellipse fill="none" stroke="black" cx="560.36" cy="-342" rx="81.49" ry="18"/>
<text text-anchor="middle" x="560.36" y="-338.3" font-family="Times,serif" font-size="14.00">ArgInt(batch_dims)</text>
</g>
<!-- ArgMap&#45;&gt;ArgInt(batch_dims) -->
<g id="edge5" class="edge">
<title>ArgMap&#45;&gt;ArgInt(batch_dims)</title>
<path fill="none" stroke="purple" d="M386.02,-297.04C416.18,-304.86 460.52,-316.36 496.81,-325.77"/>
<polygon fill="purple" stroke="purple" points="496.25,-329.25 506.81,-328.37 498.01,-322.47 496.25,-329.25"/>
</g>
<!-- DataFormat -->
<g id="node10" class="node">
<title>DataFormat</title>
<ellipse fill="none" stroke="black" cx="560.36" cy="-288" rx="53.09" ry="18"/>
<text text-anchor="middle" x="560.36" y="-284.3" font-family="Times,serif" font-size="14.00">DataFormat</text>
</g>
<!-- ArgMap&#45;&gt;DataFormat -->
<g id="edge6" class="edge">
<title>ArgMap&#45;&gt;DataFormat</title>
<path fill="none" stroke="blue" d="M391.32,-288C421.08,-288 462.24,-288 496.38,-288"/>
<polygon fill="blue" stroke="blue" points="496.73,-291.5 506.73,-288 496.73,-284.5 496.73,-291.5"/>
</g>
<!-- ArgInt(batch_dims)&#45;&gt;Schema -->
<g id="edge19" class="edge">
<title>ArgInt(batch_dims)&#45;&gt;Schema</title>
<path fill="none" stroke="black" d="M617.22,-329.01C626.52,-325.38 635.69,-320.79 643.55,-315 670.99,-294.79 692.17,-261.32 704.71,-237.82"/>
<polygon fill="black" stroke="black" points="707.92,-239.23 709.39,-228.74 701.7,-236.02 707.92,-239.23"/>
</g>
<!-- DataFormat&#45;&gt;Schema -->
<g id="edge20" class="edge">
<title>DataFormat&#45;&gt;Schema</title>
<path fill="none" stroke="black" d="M602.79,-276.85C616.12,-272.62 630.74,-267.28 643.55,-261 659.65,-253.11 676.31,-242.14 689.74,-232.49"/>
<polygon fill="black" stroke="black" points="692.06,-235.12 698.05,-226.38 687.92,-229.48 692.06,-235.12"/>
</g>
<!-- Inventory -->
<g id="node11" class="node">
<title>Inventory</title>
<ellipse fill="none" stroke="black" cx="44.85" cy="-153" rx="44.69" ry="18"/>
<text text-anchor="middle" x="44.85" y="-149.3" font-family="Times,serif" font-size="14.00">Inventory</text>
</g>
<!-- Inventory&#45;&gt;ShapeMap -->
<g id="edge8" class="edge">
<title>Inventory&#45;&gt;ShapeMap</title>
<path fill="none" stroke="black" d="M69.55,-137.95C89.52,-125.27 118.32,-106.99 140.53,-92.89"/>
<polygon fill="black" stroke="black" points="142.43,-95.83 149,-87.52 138.68,-89.92 142.43,-95.83"/>
</g>
<!-- Inventory&#45;&gt;DTypes -->
<g id="edge7" class="edge">
<title>Inventory&#45;&gt;DTypes</title>
<path fill="none" stroke="black" d="M89.76,-153C101.35,-153 113.92,-153 125.71,-153"/>
<polygon fill="black" stroke="black" points="125.82,-156.5 135.82,-153 125.82,-149.5 125.82,-156.5"/>
</g>
<!-- Inventory&#45;&gt;ArgMap -->
<g id="edge9" class="edge">
<title>Inventory&#45;&gt;ArgMap</title>
<path fill="none" stroke="black" d="M71.11,-167.65C110.36,-189.97 188.83,-232.89 259.18,-261 273.71,-266.8 289.97,-272.04 304.64,-276.33"/>
<polygon fill="black" stroke="black" points="303.92,-279.77 314.5,-279.15 305.84,-273.04 303.92,-279.77"/>
</g>
<!-- GetReturnTensors -->
<g id="node12" class="node">
<title>GetReturnTensors</title>
<ellipse fill="none" stroke="black" cx="560.36" cy="-234" rx="75.29" ry="18"/>
<text text-anchor="middle" x="560.36" y="-230.3" font-family="Times,serif" font-size="14.00">GetReturnTensors</text>
</g>
<!-- GetReturnTensors&#45;&gt;Schema -->
<g id="edge10" class="edge">
<title>GetReturnTensors&#45;&gt;Schema</title>
<path fill="none" stroke="black" d="M624.89,-224.65C640.25,-222.38 656.39,-220.01 670.81,-217.88"/>
<polygon fill="black" stroke="black" points="671.6,-221.3 680.98,-216.39 670.58,-214.38 671.6,-221.3"/>
</g>
<!-- ValidReturnShapes -->
<g id="node13" class="node">
<title>ValidReturnShapes</title>
<ellipse fill="none" stroke="black" cx="350.18" cy="-234" rx="77.99" ry="18"/>
<text text-anchor="middle" x="350.18" y="-230.3" font-family="Times,serif" font-size="14.00">ValidReturnShapes</text>
</g>
<!-- ValidReturnShapes&#45;&gt;Schema -->
<g id="edge11" class="edge">
<title>ValidReturnShapes&#45;&gt;Schema</title>
<path fill="none" stroke="black" d="M402.27,-220.49C425.02,-215.14 452.25,-209.64 477.17,-207 550.7,-199.21 569.63,-205 643.55,-207 651.87,-207.22 660.71,-207.59 669.28,-208.01"/>
<polygon fill="black" stroke="black" points="669.37,-211.52 679.54,-208.55 669.74,-204.53 669.37,-211.52"/>
</g>
<!-- ValidReturnShapes&#45;&gt;GetReturnTensors -->
<g id="edge12" class="edge">
<title>ValidReturnShapes&#45;&gt;GetReturnTensors</title>
<path fill="none" stroke="black" d="M428.4,-234C443.35,-234 459.09,-234 474.28,-234"/>
<polygon fill="black" stroke="black" points="474.68,-237.5 484.68,-234 474.68,-230.5 474.68,-237.5"/>
</g>
<!-- DataTensor(indices)&#45;&gt;Schema -->
<g id="edge13" class="edge">
<title>DataTensor(indices)&#45;&gt;Schema</title>
<path fill="none" stroke="black" d="M603.48,-157.54C616.44,-162.55 630.67,-168.29 643.55,-174 656.63,-179.8 670.73,-186.69 683.09,-192.94"/>
<polygon fill="black" stroke="black" points="681.65,-196.14 692.14,-197.57 684.83,-189.9 681.65,-196.14"/>
</g>
<!-- DataTensor(params)&#45;&gt;Schema -->
<g id="edge16" class="edge">
<title>DataTensor(params)&#45;&gt;Schema</title>
<path fill="none" stroke="black" d="M617.04,-101.25C626.36,-104.85 635.58,-109.36 643.55,-115 669.41,-133.29 690.44,-163.26 703.38,-184.85"/>
<polygon fill="black" stroke="black" points="700.37,-186.64 708.42,-193.53 706.42,-183.12 700.37,-186.64"/>
</g>
</g>
</svg>
