<?xml version="1.0" encoding="UTF-8" standalone="no"?>
<!DOCTYPE svg PUBLIC "-//W3C//DTD SVG 1.1//EN"
 "http://www.w3.org/Graphics/SVG/1.1/DTD/svg11.dtd">
<!-- Generated by graphviz version 2.43.0 (0)
 -->
<!-- Title: %3 Pages: 1 -->
<svg width="1458pt" height="524pt"
 viewBox="0.00 0.00 1458.49 523.78" xmlns="http://www.w3.org/2000/svg" xmlns:xlink="http://www.w3.org/1999/xlink">
<g id="graph0" class="graph" transform="scale(1 1) rotate(0) translate(4 519.78)">
<title>%3</title>
<polygon fill="white" stroke="transparent" points="-4,4 -4,-519.78 1454.49,-519.78 1454.49,4 -4,4"/>
<!-- Layout(layout) -->
<g id="node1" class="node">
<title>Layout(layout)</title>
<ellipse fill="none" stroke="black" cx="1386.8" cy="-389.78" rx="63.89" ry="18"/>
<text text-anchor="middle" x="1386.8" y="-386.08" font-family="Times,serif" font-size="14.00">Layout(layout)</text>
</g>
<!-- IndexRanks -->
<g id="node2" class="node">
<title>IndexRanks</title>
<ellipse fill="none" stroke="black" cx="903.39" cy="-248.78" rx="52.79" ry="18"/>
<text text-anchor="middle" x="903.39" y="-245.08" font-family="Times,serif" font-size="14.00">IndexRanks</text>
</g>
<!-- RankRange(batch) -->
<g id="node3" class="node">
<title>RankRange(batch)</title>
<ellipse fill="none" stroke="black" cx="1139.57" cy="-281.78" rx="76.89" ry="18"/>
<text text-anchor="middle" x="1139.57" y="-278.08" font-family="Times,serif" font-size="14.00">RankRange(batch)</text>
</g>
<!-- IndexRanks&#45;&gt;RankRange(batch) -->
<g id="edge1" class="edge">
<title>IndexRanks&#45;&gt;RankRange(batch)</title>
<path fill="none" stroke="purple" d="M952.34,-255.54C984.27,-260.04 1026.87,-266.04 1063.27,-271.17"/>
<polygon fill="purple" stroke="purple" points="1062.97,-274.67 1073.36,-272.6 1063.95,-267.73 1062.97,-274.67"/>
</g>
<!-- RankRange(read_location) -->
<g id="node4" class="node">
<title>RankRange(read_location)</title>
<ellipse fill="none" stroke="black" cx="1139.57" cy="-227.78" rx="105.08" ry="18"/>
<text text-anchor="middle" x="1139.57" y="-224.08" font-family="Times,serif" font-size="14.00">RankRange(read_location)</text>
</g>
<!-- IndexRanks&#45;&gt;RankRange(read_location) -->
<g id="edge2" class="edge">
<title>IndexRanks&#45;&gt;RankRange(read_location)</title>
<path fill="none" stroke="purple" d="M954.62,-244.28C978.32,-242.15 1007.52,-239.54 1035.61,-237.02"/>
<polygon fill="purple" stroke="purple" points="1036.25,-240.47 1045.9,-236.09 1035.63,-233.5 1036.25,-240.47"/>
</g>
<!-- RankRange(write_location) -->
<g id="node5" class="node">
<title>RankRange(write_location)</title>
<ellipse fill="none" stroke="black" cx="1139.57" cy="-173.78" rx="108.58" ry="18"/>
<text text-anchor="middle" x="1139.57" y="-170.08" font-family="Times,serif" font-size="14.00">RankRange(write_location)</text>
</g>
<!-- IndexRanks&#45;&gt;RankRange(write_location) -->
<g id="edge3" class="edge">
<title>IndexRanks&#45;&gt;RankRange(write_location)</title>
<path fill="none" stroke="purple" d="M928.34,-232.93C945.42,-222.32 969.31,-208.86 992.03,-200.78 1008.23,-195.02 1025.89,-190.44 1043.17,-186.8"/>
<polygon fill="purple" stroke="purple" points="1044.17,-190.17 1053.28,-184.76 1042.79,-183.3 1044.17,-190.17"/>
</g>
<!-- RankRange(slice_element) -->
<g id="node6" class="node">
<title>RankRange(slice_element)</title>
<ellipse fill="none" stroke="black" cx="1139.57" cy="-119.78" rx="106.68" ry="18"/>
<text text-anchor="middle" x="1139.57" y="-116.08" font-family="Times,serif" font-size="14.00">RankRange(slice_element)</text>
</g>
<!-- IndexRanks&#45;&gt;RankRange(slice_element) -->
<g id="edge4" class="edge">
<title>IndexRanks&#45;&gt;RankRange(slice_element)</title>
<path fill="none" stroke="purple" d="M914.28,-231.13C928.34,-207.79 956.4,-167.26 992.03,-146.78 1004.7,-139.51 1018.9,-134.12 1033.36,-130.16"/>
<polygon fill="purple" stroke="purple" points="1034.55,-133.47 1043.39,-127.63 1032.84,-126.68 1034.55,-133.47"/>
</g>
<!-- RankRange(read_address_component) -->
<g id="node7" class="node">
<title>RankRange(read_address_component)</title>
<ellipse fill="none" stroke="black" cx="1139.57" cy="-335.78" rx="147.57" ry="18"/>
<text text-anchor="middle" x="1139.57" y="-332.08" font-family="Times,serif" font-size="14.00">RankRange(read_address_component)</text>
</g>
<!-- IndexRanks&#45;&gt;RankRange(read_address_component) -->
<g id="edge5" class="edge">
<title>IndexRanks&#45;&gt;RankRange(read_address_component)</title>
<path fill="none" stroke="purple" d="M923.53,-265.43C940.42,-279.2 966.29,-298.17 992.03,-308.78 1003.05,-313.33 1014.86,-317.12 1026.8,-320.27"/>
<polygon fill="purple" stroke="purple" points="1026.31,-323.75 1036.86,-322.77 1028,-316.96 1026.31,-323.75"/>
</g>
<!-- DTypesNotImpl -->
<g id="node8" class="node">
<title>DTypesNotImpl</title>
<ellipse fill="none" stroke="black" cx="380.07" cy="-223.78" rx="68.79" ry="18"/>
<text text-anchor="middle" x="380.07" y="-220.08" font-family="Times,serif" font-size="14.00">DTypesNotImpl</text>
</g>
<!-- DTypesNotImpl&#45;&gt;Layout(layout) -->
<g id="edge7" class="edge">
<title>DTypesNotImpl&#45;&gt;Layout(layout)</title>
<path fill="none" stroke="black" d="M411.32,-207.68C427.88,-198.44 448.5,-186.23 465.87,-173.78 483.03,-161.48 484.03,-154.09 501.87,-142.78 586.64,-89.02 615.07,-88.39 708.15,-50.78 731.08,-41.52 735.72,-31.78 760.45,-31.78 760.45,-31.78 760.45,-31.78 904.39,-31.78 1074.76,-31.78 1153.69,52.19 1287.1,-53.78 1336.34,-92.89 1370.44,-288.13 1381.72,-361.69"/>
<polygon fill="black" stroke="black" points="1378.27,-362.26 1383.22,-371.62 1385.19,-361.21 1378.27,-362.26"/>
</g>
<!-- DTypesNotImpl&#45;&gt;IndexRanks -->
<g id="edge6" class="edge">
<title>DTypesNotImpl&#45;&gt;IndexRanks</title>
<path fill="none" stroke="black" d="M428,-236.79C450.2,-242.3 477.2,-248.06 501.87,-250.78 621.75,-264.02 763.06,-258.4 841.72,-253.4"/>
<polygon fill="black" stroke="black" points="842.18,-256.88 851.93,-252.73 841.72,-249.89 842.18,-256.88"/>
</g>
<!-- DTypeIndiv(indices) -->
<g id="node9" class="node">
<title>DTypeIndiv(indices)</title>
<ellipse fill="none" stroke="black" cx="587.01" cy="-169.78" rx="84.49" ry="18"/>
<text text-anchor="middle" x="587.01" y="-166.08" font-family="Times,serif" font-size="14.00">DTypeIndiv(indices)</text>
</g>
<!-- DTypesNotImpl&#45;&gt;DTypeIndiv(indices) -->
<g id="edge8" class="edge">
<title>DTypesNotImpl&#45;&gt;DTypeIndiv(indices)</title>
<path fill="none" stroke="purple" d="M429.12,-211.12C457.18,-203.73 492.91,-194.31 523.19,-186.34"/>
<polygon fill="purple" stroke="purple" points="524.45,-189.63 533.22,-183.69 522.66,-182.86 524.45,-189.63"/>
</g>
<!-- DTypeIndiv(params) -->
<g id="node10" class="node">
<title>DTypeIndiv(params)</title>
<ellipse fill="none" stroke="black" cx="587.01" cy="-223.78" rx="85.29" ry="18"/>
<text text-anchor="middle" x="587.01" y="-220.08" font-family="Times,serif" font-size="14.00">DTypeIndiv(params)</text>
</g>
<!-- DTypesNotImpl&#45;&gt;DTypeIndiv(params) -->
<g id="edge9" class="edge">
<title>DTypesNotImpl&#45;&gt;DTypeIndiv(params)</title>
<path fill="none" stroke="purple" d="M449.03,-223.78C462.62,-223.78 477.14,-223.78 491.44,-223.78"/>
<polygon fill="purple" stroke="purple" points="491.81,-227.28 501.81,-223.78 491.81,-220.28 491.81,-227.28"/>
</g>
<!-- SigMap -->
<g id="node11" class="node">
<title>SigMap</title>
<ellipse fill="none" stroke="black" cx="903.39" cy="-399.78" rx="38.99" ry="18"/>
<text text-anchor="middle" x="903.39" y="-396.08" font-family="Times,serif" font-size="14.00">SigMap</text>
</g>
<!-- Sig(indices) -->
<g id="node12" class="node">
<title>Sig(indices)</title>
<ellipse fill="none" stroke="black" cx="1139.57" cy="-497.78" rx="53.09" ry="18"/>
<text text-anchor="middle" x="1139.57" y="-494.08" font-family="Times,serif" font-size="14.00">Sig(indices)</text>
</g>
<!-- SigMap&#45;&gt;Sig(indices) -->
<g id="edge10" class="edge">
<title>SigMap&#45;&gt;Sig(indices)</title>
<path fill="none" stroke="purple" d="M919.81,-416.41C936.11,-432.91 963.39,-457.6 992.03,-470.78 1018.39,-482.92 1049.78,-489.61 1076.74,-493.29"/>
<polygon fill="purple" stroke="purple" points="1076.47,-496.78 1086.83,-494.55 1077.34,-489.83 1076.47,-496.78"/>
</g>
<!-- Sig(params) -->
<g id="node13" class="node">
<title>Sig(params)</title>
<ellipse fill="none" stroke="black" cx="1139.57" cy="-443.78" rx="53.89" ry="18"/>
<text text-anchor="middle" x="1139.57" y="-440.08" font-family="Times,serif" font-size="14.00">Sig(params)</text>
</g>
<!-- SigMap&#45;&gt;Sig(params) -->
<g id="edge11" class="edge">
<title>SigMap&#45;&gt;Sig(params)</title>
<path fill="none" stroke="purple" d="M939.77,-406.73C955.73,-409.84 974.82,-413.53 992.03,-416.78 1021.56,-422.37 1054.46,-428.44 1081.59,-433.41"/>
<polygon fill="purple" stroke="purple" points="1081.22,-436.91 1091.69,-435.26 1082.48,-430.02 1081.22,-436.91"/>
</g>
<!-- Sig(return[0]) -->
<g id="node14" class="node">
<title>Sig(return[0])</title>
<ellipse fill="none" stroke="black" cx="1139.57" cy="-389.78" rx="59.59" ry="18"/>
<text text-anchor="middle" x="1139.57" y="-386.08" font-family="Times,serif" font-size="14.00">Sig(return[0])</text>
</g>
<!-- SigMap&#45;&gt;Sig(return[0]) -->
<g id="edge12" class="edge">
<title>SigMap&#45;&gt;Sig(return[0])</title>
<path fill="none" stroke="purple" d="M942.27,-398.17C976.71,-396.7 1028.37,-394.49 1070.04,-392.71"/>
<polygon fill="purple" stroke="purple" points="1070.29,-396.2 1080.13,-392.28 1069.99,-389.21 1070.29,-396.2"/>
</g>
<!-- Sig(indices)&#45;&gt;Layout(layout) -->
<g id="edge24" class="edge">
<title>Sig(indices)&#45;&gt;Layout(layout)</title>
<path fill="none" stroke="black" d="M1192.34,-494.63C1221.3,-491.32 1257.42,-484.57 1287.1,-470.78 1316.13,-457.31 1343.81,-433.27 1362.43,-414.87"/>
<polygon fill="black" stroke="black" points="1365.29,-416.95 1369.83,-407.37 1360.31,-412.03 1365.29,-416.95"/>
</g>
<!-- Sig(params)&#45;&gt;Layout(layout) -->
<g id="edge27" class="edge">
<title>Sig(params)&#45;&gt;Layout(layout)</title>
<path fill="none" stroke="black" d="M1188.29,-436.04C1217.04,-431.12 1254.32,-424.27 1287.1,-416.78 1301.74,-413.44 1317.46,-409.36 1331.97,-405.4"/>
<polygon fill="black" stroke="black" points="1333.08,-408.72 1341.78,-402.68 1331.21,-401.98 1333.08,-408.72"/>
</g>
<!-- Sig(return[0])&#45;&gt;Layout(layout) -->
<g id="edge29" class="edge">
<title>Sig(return[0])&#45;&gt;Layout(layout)</title>
<path fill="none" stroke="black" d="M1199.62,-389.78C1233.69,-389.78 1276.81,-389.78 1312.97,-389.78"/>
<polygon fill="black" stroke="black" points="1312.97,-393.28 1322.97,-389.78 1312.97,-386.28 1312.97,-393.28"/>
</g>
<!-- ArgRanks -->
<g id="node15" class="node">
<title>ArgRanks</title>
<ellipse fill="none" stroke="black" cx="761.45" cy="-353.78" rx="46.29" ry="18"/>
<text text-anchor="middle" x="761.45" y="-350.08" font-family="Times,serif" font-size="14.00">ArgRanks</text>
</g>
<!-- ArgRanks&#45;&gt;IndexRanks -->
<g id="edge13" class="edge">
<title>ArgRanks&#45;&gt;IndexRanks</title>
<path fill="none" stroke="black" d="M788.19,-339.05C796.81,-333.85 806.35,-327.8 814.74,-321.78 836.18,-306.42 859.04,-287.28 876.03,-272.45"/>
<polygon fill="black" stroke="black" points="878.68,-274.79 883.87,-265.56 874.05,-269.53 878.68,-274.79"/>
</g>
<!-- ArgRanks&#45;&gt;SigMap -->
<g id="edge14" class="edge">
<title>ArgRanks&#45;&gt;SigMap</title>
<path fill="none" stroke="black" d="M797.4,-365.27C816.88,-371.68 841.24,-379.68 861.59,-386.37"/>
<polygon fill="black" stroke="black" points="860.62,-389.74 871.21,-389.54 862.81,-383.09 860.62,-389.74"/>
</g>
<!-- ArgIndels -->
<g id="node16" class="node">
<title>ArgIndels</title>
<ellipse fill="none" stroke="black" cx="587.01" cy="-353.78" rx="46.29" ry="18"/>
<text text-anchor="middle" x="587.01" y="-350.08" font-family="Times,serif" font-size="14.00">ArgIndels</text>
</g>
<!-- ArgIndels&#45;&gt;ArgRanks -->
<g id="edge15" class="edge">
<title>ArgIndels&#45;&gt;ArgRanks</title>
<path fill="none" stroke="black" d="M633.31,-353.78C655.3,-353.78 681.92,-353.78 705.1,-353.78"/>
<polygon fill="black" stroke="black" points="705.14,-357.28 715.14,-353.78 705.14,-350.28 705.14,-357.28"/>
</g>
<!-- ArgMutations -->
<g id="node17" class="node">
<title>ArgMutations</title>
<ellipse fill="none" stroke="black" cx="380.07" cy="-307.78" rx="60.39" ry="18"/>
<text text-anchor="middle" x="380.07" y="-304.08" font-family="Times,serif" font-size="14.00">ArgMutations</text>
</g>
<!-- ArgMutations&#45;&gt;IndexRanks -->
<g id="edge17" class="edge">
<title>ArgMutations&#45;&gt;IndexRanks</title>
<path fill="none" stroke="black" d="M440.37,-305.74C524.24,-302.18 682.08,-292.95 814.74,-270.78 827.07,-268.72 840.22,-265.82 852.48,-262.79"/>
<polygon fill="black" stroke="black" points="853.7,-266.09 862.53,-260.23 851.98,-259.3 853.7,-266.09"/>
</g>
<!-- ArgMutations&#45;&gt;SigMap -->
<g id="edge18" class="edge">
<title>ArgMutations&#45;&gt;SigMap</title>
<path fill="none" stroke="black" d="M401.77,-324.76C424.66,-342.41 463.42,-369.08 501.87,-380.78 624.78,-418.2 778.65,-411.54 854.95,-404.91"/>
<polygon fill="black" stroke="black" points="855.55,-408.37 865.19,-403.98 854.91,-401.4 855.55,-408.37"/>
</g>
<!-- ArgMutations&#45;&gt;ArgIndels -->
<g id="edge16" class="edge">
<title>ArgMutations&#45;&gt;ArgIndels</title>
<path fill="none" stroke="black" d="M428.86,-318.51C461.34,-325.8 504.18,-335.42 536.93,-342.77"/>
<polygon fill="black" stroke="black" points="536.22,-346.2 546.74,-344.97 537.75,-339.37 536.22,-346.2"/>
</g>
<!-- Args -->
<g id="node18" class="node">
<title>Args</title>
<ellipse fill="none" stroke="black" cx="27.95" cy="-223.78" rx="27.9" ry="18"/>
<text text-anchor="middle" x="27.95" y="-220.08" font-family="Times,serif" font-size="14.00">Args</text>
</g>
<!-- DataTensor(indices) -->
<g id="node19" class="node">
<title>DataTensor(indices)</title>
<ellipse fill="none" stroke="red" cx="175.09" cy="-277.78" rx="82.59" ry="18"/>
<text text-anchor="middle" x="175.09" y="-274.08" font-family="Times,serif" font-size="14.00">DataTensor(indices)</text>
</g>
<!-- Args&#45;&gt;DataTensor(indices) -->
<g id="edge19" class="edge">
<title>Args&#45;&gt;DataTensor(indices)</title>
<path fill="none" stroke="purple" d="M51.19,-233.89C63.15,-239.18 78.21,-245.61 91.9,-250.78 100.06,-253.87 108.76,-256.95 117.32,-259.86"/>
<polygon fill="purple" stroke="purple" points="116.3,-263.21 126.9,-263.07 118.53,-256.57 116.3,-263.21"/>
</g>
<!-- DataTensor(params) -->
<g id="node20" class="node">
<title>DataTensor(params)</title>
<ellipse fill="none" stroke="red" cx="175.09" cy="-223.78" rx="83.39" ry="18"/>
<text text-anchor="middle" x="175.09" y="-220.08" font-family="Times,serif" font-size="14.00">DataTensor(params)</text>
</g>
<!-- Args&#45;&gt;DataTensor(params) -->
<g id="edge20" class="edge">
<title>Args&#45;&gt;DataTensor(params)</title>
<path fill="none" stroke="purple" d="M55.91,-223.78C63.55,-223.78 72.33,-223.78 81.58,-223.78"/>
<polygon fill="purple" stroke="purple" points="81.77,-227.28 91.77,-223.78 81.77,-220.28 81.77,-227.28"/>
</g>
<!-- RankInt(batch_dims) -->
<g id="node21" class="node">
<title>RankInt(batch_dims)</title>
<ellipse fill="none" stroke="red" cx="380.07" cy="-146.78" rx="85.59" ry="18"/>
<text text-anchor="middle" x="380.07" y="-143.08" font-family="Times,serif" font-size="14.00">RankInt(batch_dims)</text>
</g>
<!-- Args&#45;&gt;RankInt(batch_dims) -->
<g id="edge21" class="edge">
<title>Args&#45;&gt;RankInt(batch_dims)</title>
<path fill="none" stroke="purple" d="M50.62,-213C62.55,-207.45 77.76,-200.98 91.9,-196.78 158.25,-177.07 235.69,-164.15 293.42,-156.39"/>
<polygon fill="purple" stroke="purple" points="294.14,-159.82 303.59,-155.05 293.22,-152.88 294.14,-159.82"/>
</g>
<!-- DataTensor(indices)&#45;&gt;DTypesNotImpl -->
<g id="edge23" class="edge">
<title>DataTensor(indices)&#45;&gt;DTypesNotImpl</title>
<path fill="none" stroke="black" d="M228.1,-263.95C256.59,-256.37 291.98,-246.95 321.32,-239.15"/>
<polygon fill="black" stroke="black" points="322.26,-242.52 331.03,-236.57 320.46,-235.75 322.26,-242.52"/>
</g>
<!-- DataTensor(indices)&#45;&gt;ArgMutations -->
<g id="edge22" class="edge">
<title>DataTensor(indices)&#45;&gt;ArgMutations</title>
<path fill="none" stroke="black" d="M243.96,-287.82C267.15,-291.24 292.98,-295.06 315.8,-298.43"/>
<polygon fill="black" stroke="black" points="315.31,-301.9 325.71,-299.9 316.33,-294.97 315.31,-301.9"/>
</g>
<!-- DataTensor(params)&#45;&gt;DTypesNotImpl -->
<g id="edge26" class="edge">
<title>DataTensor(params)&#45;&gt;DTypesNotImpl</title>
<path fill="none" stroke="black" d="M258.36,-223.78C272.42,-223.78 286.99,-223.78 300.94,-223.78"/>
<polygon fill="black" stroke="black" points="300.97,-227.28 310.97,-223.78 300.97,-220.28 300.97,-227.28"/>
</g>
<!-- DataTensor(params)&#45;&gt;ArgMutations -->
<g id="edge25" class="edge">
<title>DataTensor(params)&#45;&gt;ArgMutations</title>
<path fill="none" stroke="black" d="M224.25,-238.5C235.52,-242.25 247.4,-246.45 258.28,-250.78 285.92,-261.8 316.2,-276.09 339.53,-287.61"/>
<polygon fill="black" stroke="black" points="338.24,-290.88 348.75,-292.2 341.36,-284.61 338.24,-290.88"/>
</g>
<!-- RankInt(batch_dims)&#45;&gt;IndexRanks -->
<g id="edge28" class="edge">
<title>RankInt(batch_dims)&#45;&gt;IndexRanks</title>
<path fill="none" stroke="black" d="M451.97,-136.89C511.47,-130.69 598.35,-126.61 672.15,-142.78 746.39,-159.05 825.25,-201.62 868.71,-227.59"/>
<polygon fill="black" stroke="black" points="867.06,-230.69 877.43,-232.87 870.69,-224.7 867.06,-230.69"/>
</g>
<!-- DataFormat -->
<g id="node22" class="node">
<title>DataFormat</title>
<ellipse fill="none" stroke="black" cx="761.45" cy="-77.78" rx="53.09" ry="18"/>
<text text-anchor="middle" x="761.45" y="-74.08" font-family="Times,serif" font-size="14.00">DataFormat</text>
</g>
<!-- DataFormat&#45;&gt;Layout(layout) -->
<g id="edge31" class="edge">
<title>DataFormat&#45;&gt;Layout(layout)</title>
<path fill="none" stroke="black" d="M812.34,-72.22C928.58,-60.34 1213.15,-37.81 1287.1,-92.78 1373.69,-157.16 1385.33,-300.37 1386.2,-361.37"/>
<polygon fill="black" stroke="black" points="1382.7,-361.46 1386.25,-371.44 1389.7,-361.42 1382.7,-361.46"/>
</g>
<!-- DataFormat&#45;&gt;IndexRanks -->
<g id="edge30" class="edge">
<title>DataFormat&#45;&gt;IndexRanks</title>
<path fill="none" stroke="black" d="M792.11,-92.71C800,-97.5 808.15,-103.28 814.74,-109.78 848.46,-143.05 875.31,-191.63 890.01,-221.67"/>
<polygon fill="black" stroke="black" points="886.88,-223.23 894.35,-230.73 893.19,-220.2 886.88,-223.23"/>
</g>
</g>
</svg>
