<?xml version="1.0" encoding="UTF-8" standalone="no"?>
<!DOCTYPE svg PUBLIC "-//W3C//DTD SVG 1.1//EN"
 "http://www.w3.org/Graphics/SVG/1.1/DTD/svg11.dtd">
<!-- Generated by graphviz version 2.43.0 (0)
 -->
<!-- Title: %3 Pages: 1 -->
<svg width="1315pt" height="673pt"
 viewBox="0.00 0.00 1314.60 673.04" xmlns="http://www.w3.org/2000/svg" xmlns:xlink="http://www.w3.org/1999/xlink">
<g id="graph0" class="graph" transform="scale(1 1) rotate(0) translate(4 669.04)">
<title>%3</title>
<polygon fill="white" stroke="transparent" points="-4,4 -4,-669.04 1310.6,-669.04 1310.6,4 -4,4"/>
<!-- ObservedValue(dtypes) -->
<g id="node1" class="node">
<title>ObservedValue(dtypes)</title>
<ellipse fill="none" stroke="black" cx="659.4" cy="-105.04" rx="92.88" ry="18"/>
<text text-anchor="middle" x="659.4" y="-101.34" font-family="Times,serif" font-size="14.00">ObservedValue(dtypes)</text>
</g>
<!-- ObservedValue(shapes) -->
<g id="node2" class="node">
<title>ObservedValue(shapes)</title>
<ellipse fill="none" stroke="black" cx="1213.01" cy="-489.04" rx="93.68" ry="18"/>
<text text-anchor="middle" x="1213.01" y="-485.34" font-family="Times,serif" font-size="14.00">ObservedValue(shapes)</text>
</g>
<!-- ObservedValue(args) -->
<g id="node3" class="node">
<title>ObservedValue(args)</title>
<ellipse fill="none" stroke="black" cx="1213.01" cy="-627.04" rx="85.29" ry="18"/>
<text text-anchor="middle" x="1213.01" y="-623.34" font-family="Times,serif" font-size="14.00">ObservedValue(args)</text>
</g>
<!-- Layout(layout) -->
<g id="node4" class="node">
<title>Layout(layout)</title>
<ellipse fill="none" stroke="black" cx="1213.01" cy="-132.04" rx="63.89" ry="18"/>
<text text-anchor="middle" x="1213.01" y="-128.34" font-family="Times,serif" font-size="14.00">Layout(layout)</text>
</g>
<!-- IndexRanks -->
<g id="node5" class="node">
<title>IndexRanks</title>
<ellipse fill="none" stroke="black" cx="659.4" cy="-381.04" rx="52.79" ry="18"/>
<text text-anchor="middle" x="659.4" y="-377.34" font-family="Times,serif" font-size="14.00">IndexRanks</text>
</g>
<!-- RankRange(batch) -->
<g id="node6" class="node">
<title>RankRange(batch)</title>
<ellipse fill="none" stroke="black" cx="935.88" cy="-581.04" rx="76.89" ry="18"/>
<text text-anchor="middle" x="935.88" y="-577.34" font-family="Times,serif" font-size="14.00">RankRange(batch)</text>
</g>
<!-- IndexRanks&#45;&gt;RankRange(batch) -->
<g id="edge1" class="edge">
<title>IndexRanks&#45;&gt;RankRange(batch)</title>
<path fill="none" stroke="purple" d="M676.06,-398.31C707.29,-432.63 775.42,-506.92 788.35,-516.04 816.53,-535.95 851.79,-551.82 880.65,-562.89"/>
<polygon fill="purple" stroke="purple" points="879.59,-566.23 890.18,-566.47 882.04,-559.68 879.59,-566.23"/>
</g>
<!-- RankRange(read_location) -->
<g id="node7" class="node">
<title>RankRange(read_location)</title>
<ellipse fill="none" stroke="black" cx="935.88" cy="-489.04" rx="105.08" ry="18"/>
<text text-anchor="middle" x="935.88" y="-485.34" font-family="Times,serif" font-size="14.00">RankRange(read_location)</text>
</g>
<!-- IndexRanks&#45;&gt;RankRange(read_location) -->
<g id="edge2" class="edge">
<title>IndexRanks&#45;&gt;RankRange(read_location)</title>
<path fill="none" stroke="purple" d="M681.22,-397.8C705.48,-416.44 747.47,-446.03 788.35,-462.04 804.25,-468.27 821.7,-473.09 838.84,-476.8"/>
<polygon fill="purple" stroke="purple" points="838.39,-480.28 848.89,-478.86 839.79,-473.42 838.39,-480.28"/>
</g>
<!-- RankRange(write_location) -->
<g id="node8" class="node">
<title>RankRange(write_location)</title>
<ellipse fill="none" stroke="black" cx="935.88" cy="-435.04" rx="108.58" ry="18"/>
<text text-anchor="middle" x="935.88" y="-431.34" font-family="Times,serif" font-size="14.00">RankRange(write_location)</text>
</g>
<!-- IndexRanks&#45;&gt;RankRange(write_location) -->
<g id="edge3" class="edge">
<title>IndexRanks&#45;&gt;RankRange(write_location)</title>
<path fill="none" stroke="purple" d="M704.17,-390.57C728.85,-395.87 760.28,-402.5 788.35,-408.04 808.74,-412.07 830.76,-416.23 851.39,-420.04"/>
<polygon fill="purple" stroke="purple" points="850.92,-423.52 861.39,-421.89 852.19,-416.63 850.92,-423.52"/>
</g>
<!-- RankRange(slice_element) -->
<g id="node9" class="node">
<title>RankRange(slice_element)</title>
<ellipse fill="none" stroke="black" cx="935.88" cy="-381.04" rx="106.68" ry="18"/>
<text text-anchor="middle" x="935.88" y="-377.34" font-family="Times,serif" font-size="14.00">RankRange(slice_element)</text>
</g>
<!-- IndexRanks&#45;&gt;RankRange(slice_element) -->
<g id="edge4" class="edge">
<title>IndexRanks&#45;&gt;RankRange(slice_element)</title>
<path fill="none" stroke="purple" d="M712.35,-381.04C742.47,-381.04 781.67,-381.04 818.76,-381.04"/>
<polygon fill="purple" stroke="purple" points="819.15,-384.54 829.15,-381.04 819.15,-377.54 819.15,-384.54"/>
</g>
<!-- RankRange(read_address_component) -->
<g id="node10" class="node">
<title>RankRange(read_address_component)</title>
<ellipse fill="none" stroke="black" cx="935.88" cy="-327.04" rx="147.57" ry="18"/>
<text text-anchor="middle" x="935.88" y="-323.34" font-family="Times,serif" font-size="14.00">RankRange(read_address_component)</text>
</g>
<!-- IndexRanks&#45;&gt;RankRange(read_address_component) -->
<g id="edge5" class="edge">
<title>IndexRanks&#45;&gt;RankRange(read_address_component)</title>
<path fill="none" stroke="purple" d="M704.17,-371.52C728.85,-366.22 760.28,-359.59 788.35,-354.04 805.8,-350.59 824.45,-347.05 842.39,-343.71"/>
<polygon fill="purple" stroke="purple" points="843.08,-347.14 852.28,-341.88 841.8,-340.26 843.08,-347.14"/>
</g>
<!-- RankRange(batch)&#45;&gt;ObservedValue(args) -->
<g id="edge24" class="edge">
<title>RankRange(batch)&#45;&gt;ObservedValue(args)</title>
<path fill="none" stroke="purple" d="M998.97,-591.42C1039.55,-598.21 1092.83,-607.12 1135.95,-614.33"/>
<polygon fill="purple" stroke="purple" points="1135.39,-617.78 1145.83,-615.98 1136.54,-610.88 1135.39,-617.78"/>
</g>
<!-- RankRange(read_location)&#45;&gt;ObservedValue(shapes) -->
<g id="edge25" class="edge">
<title>RankRange(read_location)&#45;&gt;ObservedValue(shapes)</title>
<path fill="none" stroke="purple" d="M1041.29,-489.04C1063.57,-489.04 1087.08,-489.04 1109.29,-489.04"/>
<polygon fill="purple" stroke="purple" points="1109.4,-492.54 1119.4,-489.04 1109.4,-485.54 1109.4,-492.54"/>
</g>
<!-- DTypes -->
<g id="node11" class="node">
<title>DTypes</title>
<ellipse fill="none" stroke="black" cx="477.17" cy="-166.04" rx="38.19" ry="18"/>
<text text-anchor="middle" x="477.17" y="-162.34" font-family="Times,serif" font-size="14.00">DTypes</text>
</g>
<!-- DTypes&#45;&gt;ObservedValue(dtypes) -->
<g id="edge6" class="edge">
<title>DTypes&#45;&gt;ObservedValue(dtypes)</title>
<path fill="none" stroke="black" d="M506.58,-154.42C523.78,-147.55 546.24,-138.89 566.46,-132.04 575.8,-128.88 585.74,-125.74 595.5,-122.77"/>
<polygon fill="black" stroke="black" points="596.6,-126.09 605.18,-119.87 594.59,-119.39 596.6,-126.09"/>
</g>
<!-- DTypes&#45;&gt;Layout(layout) -->
<g id="edge8" class="edge">
<title>DTypes&#45;&gt;Layout(layout)</title>
<path fill="none" stroke="black" d="M490.5,-149.02C505.97,-128.94 534.37,-96.04 566.46,-78.04 654.98,-28.39 687.57,-36.13 788.35,-24.04 918.56,-8.43 960.19,20.84 1083.42,-24.04 1128.35,-40.41 1168.5,-80.14 1191.54,-106.58"/>
<polygon fill="black" stroke="black" points="1188.99,-108.97 1198.13,-114.32 1194.31,-104.43 1188.99,-108.97"/>
</g>
<!-- DTypes&#45;&gt;IndexRanks -->
<g id="edge7" class="edge">
<title>DTypes&#45;&gt;IndexRanks</title>
<path fill="none" stroke="black" d="M492.31,-182.91C523.87,-220.56 600.19,-311.61 637.36,-355.94"/>
<polygon fill="black" stroke="black" points="634.72,-358.24 643.83,-363.65 640.08,-353.74 634.72,-358.24"/>
</g>
<!-- SigMap -->
<g id="node12" class="node">
<title>SigMap</title>
<ellipse fill="none" stroke="black" cx="659.4" cy="-159.04" rx="38.99" ry="18"/>
<text text-anchor="middle" x="659.4" y="-155.34" font-family="Times,serif" font-size="14.00">SigMap</text>
</g>
<!-- Sig(indices) -->
<g id="node13" class="node">
<title>Sig(indices)</title>
<ellipse fill="none" stroke="black" cx="935.88" cy="-159.04" rx="53.09" ry="18"/>
<text text-anchor="middle" x="935.88" y="-155.34" font-family="Times,serif" font-size="14.00">Sig(indices)</text>
</g>
<!-- SigMap&#45;&gt;Sig(indices) -->
<g id="edge9" class="edge">
<title>SigMap&#45;&gt;Sig(indices)</title>
<path fill="none" stroke="purple" d="M698.57,-159.04C743.54,-159.04 818.92,-159.04 872.44,-159.04"/>
<polygon fill="purple" stroke="purple" points="872.5,-162.54 882.5,-159.04 872.5,-155.54 872.5,-162.54"/>
</g>
<!-- Sig(params) -->
<g id="node14" class="node">
<title>Sig(params)</title>
<ellipse fill="none" stroke="black" cx="935.88" cy="-105.04" rx="53.89" ry="18"/>
<text text-anchor="middle" x="935.88" y="-101.34" font-family="Times,serif" font-size="14.00">Sig(params)</text>
</g>
<!-- SigMap&#45;&gt;Sig(params) -->
<g id="edge10" class="edge">
<title>SigMap&#45;&gt;Sig(params)</title>
<path fill="none" stroke="purple" d="M694.84,-151.53C720.56,-145.97 756.61,-138.31 788.35,-132.04 817.83,-126.22 850.72,-120.12 877.87,-115.2"/>
<polygon fill="purple" stroke="purple" points="878.75,-118.59 887.97,-113.37 877.51,-111.71 878.75,-118.59"/>
</g>
<!-- Sig(return[0]) -->
<g id="node15" class="node">
<title>Sig(return[0])</title>
<ellipse fill="none" stroke="black" cx="935.88" cy="-51.04" rx="59.59" ry="18"/>
<text text-anchor="middle" x="935.88" y="-47.34" font-family="Times,serif" font-size="14.00">Sig(return[0])</text>
</g>
<!-- SigMap&#45;&gt;Sig(return[0]) -->
<g id="edge11" class="edge">
<title>SigMap&#45;&gt;Sig(return[0])</title>
<path fill="none" stroke="purple" d="M697.06,-154.29C715.06,-150.54 736.26,-143.87 752.35,-132.04 775.58,-114.95 764.26,-93.91 788.35,-78.04 811.04,-63.09 839.79,-55.87 865.79,-52.54"/>
<polygon fill="purple" stroke="purple" points="866.43,-55.99 875.99,-51.42 865.66,-49.04 866.43,-55.99"/>
</g>
<!-- Sig(indices)&#45;&gt;Layout(layout) -->
<g id="edge26" class="edge">
<title>Sig(indices)&#45;&gt;Layout(layout)</title>
<path fill="none" stroke="black" d="M987.35,-154.09C1030.79,-149.83 1093.94,-143.63 1142.23,-138.89"/>
<polygon fill="black" stroke="black" points="1142.68,-142.36 1152.29,-137.9 1142,-135.4 1142.68,-142.36"/>
</g>
<!-- Sig(params)&#45;&gt;Layout(layout) -->
<g id="edge27" class="edge">
<title>Sig(params)&#45;&gt;Layout(layout)</title>
<path fill="none" stroke="black" d="M987.99,-110.06C1031.51,-114.33 1094.46,-120.51 1142.55,-125.23"/>
<polygon fill="black" stroke="black" points="1142.28,-128.72 1152.57,-126.21 1142.96,-121.75 1142.28,-128.72"/>
</g>
<!-- Sig(return[0])&#45;&gt;Layout(layout) -->
<g id="edge28" class="edge">
<title>Sig(return[0])&#45;&gt;Layout(layout)</title>
<path fill="none" stroke="black" d="M991.13,-58.19C1019.05,-62.57 1053.42,-69.1 1083.42,-78.04 1113.66,-87.07 1146.45,-100.9 1171.34,-112.31"/>
<polygon fill="black" stroke="black" points="1169.93,-115.51 1180.48,-116.54 1172.88,-109.16 1169.93,-115.51"/>
</g>
<!-- ArgIndels -->
<g id="node16" class="node">
<title>ArgIndels</title>
<ellipse fill="none" stroke="black" cx="477.17" cy="-281.04" rx="46.29" ry="18"/>
<text text-anchor="middle" x="477.17" y="-277.34" font-family="Times,serif" font-size="14.00">ArgIndels</text>
</g>
<!-- ArgIndels&#45;&gt;ObservedValue(shapes) -->
<g id="edge14" class="edge">
<title>ArgIndels&#45;&gt;ObservedValue(shapes)</title>
<path fill="none" stroke="black" d="M522.58,-277.35C645.47,-267.91 987.25,-247.21 1083.42,-300.04 1147.66,-335.34 1186.14,-418.08 1202.59,-461.44"/>
<polygon fill="black" stroke="black" points="1199.39,-462.88 1206.13,-471.06 1205.96,-460.47 1199.39,-462.88"/>
</g>
<!-- ArgIndels&#45;&gt;Layout(layout) -->
<g id="edge15" class="edge">
<title>ArgIndels&#45;&gt;Layout(layout)</title>
<path fill="none" stroke="black" d="M519.76,-273.78C579.24,-263.46 692.06,-244.13 788.35,-229.04 919.28,-208.53 955.73,-221.54 1083.42,-186.04 1114.04,-177.53 1147.05,-163.56 1171.97,-151.96"/>
<polygon fill="black" stroke="black" points="1173.55,-155.08 1181.1,-147.64 1170.56,-148.75 1173.55,-155.08"/>
</g>
<!-- ArgIndels&#45;&gt;IndexRanks -->
<g id="edge12" class="edge">
<title>ArgIndels&#45;&gt;IndexRanks</title>
<path fill="none" stroke="black" d="M504.38,-295.58C535.39,-312.79 587.2,-341.54 622.07,-360.88"/>
<polygon fill="black" stroke="black" points="620.54,-364.04 630.98,-365.83 623.94,-357.92 620.54,-364.04"/>
</g>
<!-- ArgIndels&#45;&gt;SigMap -->
<g id="edge13" class="edge">
<title>ArgIndels&#45;&gt;SigMap</title>
<path fill="none" stroke="black" d="M491,-263.79C506.75,-243.73 535.22,-210.85 566.46,-191.04 581,-181.83 598.53,-174.88 614.36,-169.85"/>
<polygon fill="black" stroke="black" points="615.39,-173.2 623.96,-166.97 613.37,-166.49 615.39,-173.2"/>
</g>
<!-- IndexUsage -->
<g id="node17" class="node">
<title>IndexUsage</title>
<ellipse fill="none" stroke="black" cx="335.23" cy="-404.04" rx="52.79" ry="18"/>
<text text-anchor="middle" x="335.23" y="-400.34" font-family="Times,serif" font-size="14.00">IndexUsage</text>
</g>
<!-- IndexUsage&#45;&gt;ObservedValue(shapes) -->
<g id="edge18" class="edge">
<title>IndexUsage&#45;&gt;ObservedValue(shapes)</title>
<path fill="none" stroke="black" d="M373.46,-416.55C450.04,-441.53 631.22,-496.87 788.35,-516.04 918.52,-531.93 952.98,-529.59 1083.42,-516.04 1103.99,-513.91 1126.13,-509.9 1146.13,-505.61"/>
<polygon fill="black" stroke="black" points="1147.06,-508.99 1156.07,-503.42 1145.56,-502.15 1147.06,-508.99"/>
</g>
<!-- IndexUsage&#45;&gt;IndexRanks -->
<g id="edge16" class="edge">
<title>IndexUsage&#45;&gt;IndexRanks</title>
<path fill="none" stroke="black" d="M386.92,-400.42C443.96,-396.35 536.58,-389.74 597.5,-385.39"/>
<polygon fill="black" stroke="black" points="598.01,-388.86 607.74,-384.66 597.52,-381.88 598.01,-388.86"/>
</g>
<!-- IndexUsage&#45;&gt;ArgIndels -->
<g id="edge17" class="edge">
<title>IndexUsage&#45;&gt;ArgIndels</title>
<path fill="none" stroke="black" d="M355.39,-387.2C379.78,-365.76 422.04,-328.62 449.55,-304.44"/>
<polygon fill="black" stroke="black" points="452.03,-306.92 457.23,-297.68 447.41,-301.66 452.03,-306.92"/>
</g>
<!-- IndexConstraints -->
<g id="node18" class="node">
<title>IndexConstraints</title>
<ellipse fill="none" stroke="black" cx="175.74" cy="-404.04" rx="70.69" ry="18"/>
<text text-anchor="middle" x="175.74" y="-400.34" font-family="Times,serif" font-size="14.00">IndexConstraints</text>
</g>
<!-- IndexConstraints&#45;&gt;ObservedValue(args) -->
<g id="edge20" class="edge">
<title>IndexConstraints&#45;&gt;ObservedValue(args)</title>
<path fill="none" stroke="black" d="M185.91,-421.98C217.48,-480.95 327.9,-665.04 476.17,-665.04 476.17,-665.04 476.17,-665.04 660.4,-665.04 826.16,-665.04 1019.28,-647.75 1127.43,-636.5"/>
<polygon fill="black" stroke="black" points="1128.04,-639.95 1137.62,-635.43 1127.31,-632.99 1128.04,-639.95"/>
</g>
<!-- IndexConstraints&#45;&gt;IndexUsage -->
<g id="edge19" class="edge">
<title>IndexConstraints&#45;&gt;IndexUsage</title>
<path fill="none" stroke="black" d="M246.73,-404.04C255.26,-404.04 263.92,-404.04 272.32,-404.04"/>
<polygon fill="black" stroke="black" points="272.4,-407.54 282.4,-404.04 272.4,-400.54 272.4,-407.54"/>
</g>
<!-- Report -->
<g id="node19" class="node">
<title>Report</title>
<ellipse fill="none" stroke="black" cx="34.45" cy="-358.04" rx="34.39" ry="18"/>
<text text-anchor="middle" x="34.45" y="-354.34" font-family="Times,serif" font-size="14.00">Report</text>
</g>
<!-- Report&#45;&gt;DTypes -->
<g id="edge21" class="edge">
<title>Report&#45;&gt;DTypes</title>
<path fill="none" stroke="black" d="M61.37,-346.75C136.16,-314.17 352.47,-219.93 439.38,-182.07"/>
<polygon fill="black" stroke="black" points="440.82,-185.26 448.59,-178.06 438.03,-178.84 440.82,-185.26"/>
</g>
<!-- Report&#45;&gt;IndexConstraints -->
<g id="edge22" class="edge">
<title>Report&#45;&gt;IndexConstraints</title>
<path fill="none" stroke="black" d="M63.97,-367.46C80.73,-373 102.44,-380.17 122.19,-386.69"/>
<polygon fill="black" stroke="black" points="121.1,-390.02 131.7,-389.83 123.3,-383.37 121.1,-390.02"/>
</g>
<!-- DataFormat -->
<g id="node20" class="node">
<title>DataFormat</title>
<ellipse fill="none" stroke="black" cx="477.17" cy="-358.04" rx="53.09" ry="18"/>
<text text-anchor="middle" x="477.17" y="-354.34" font-family="Times,serif" font-size="14.00">DataFormat</text>
</g>
<!-- Report&#45;&gt;DataFormat -->
<g id="edge23" class="edge">
<title>Report&#45;&gt;DataFormat</title>
<path fill="none" stroke="blue" d="M68.93,-358.04C142.49,-358.04 319.11,-358.04 413.77,-358.04"/>
<polygon fill="blue" stroke="blue" points="413.78,-361.54 423.78,-358.04 413.78,-354.54 413.78,-361.54"/>
</g>
<!-- DataFormat&#45;&gt;ObservedValue(args) -->
<g id="edge31" class="edge">
<title>DataFormat&#45;&gt;ObservedValue(args)</title>
<path fill="none" stroke="black" d="M492.31,-375.4C532.54,-423.28 653.46,-557.03 788.35,-608.04 901.46,-650.82 1043.82,-646.53 1131.34,-637.96"/>
<polygon fill="black" stroke="black" points="1131.88,-641.42 1141.48,-636.92 1131.17,-634.46 1131.88,-641.42"/>
</g>
<!-- DataFormat&#45;&gt;Layout(layout) -->
<g id="edge30" class="edge">
<title>DataFormat&#45;&gt;Layout(layout)</title>
<path fill="none" stroke="black" d="M524.98,-349.84C648.61,-327.79 981.33,-265.9 1083.42,-221.04 1121.38,-204.36 1159.82,-175.91 1184.65,-155.66"/>
<polygon fill="black" stroke="black" points="1187.06,-158.21 1192.53,-149.14 1182.6,-152.82 1187.06,-158.21"/>
</g>
<!-- DataFormat&#45;&gt;IndexRanks -->
<g id="edge29" class="edge">
<title>DataFormat&#45;&gt;IndexRanks</title>
<path fill="none" stroke="black" d="M527.42,-364.33C549.75,-367.18 576.34,-370.57 599.7,-373.55"/>
<polygon fill="black" stroke="black" points="599.47,-377.05 609.84,-374.85 600.36,-370.11 599.47,-377.05"/>
</g>
</g>
</svg>
