<?xml version="1.0" encoding="UTF-8" standalone="no"?>
<!DOCTYPE svg PUBLIC "-//W3C//DTD SVG 1.1//EN"
 "http://www.w3.org/Graphics/SVG/1.1/DTD/svg11.dtd">
<!-- Generated by graphviz version 2.43.0 (0)
 -->
<!-- Title: %3 Pages: 1 -->
<svg width="1509pt" height="581pt"
 viewBox="0.00 0.00 1509.19 580.66" xmlns="http://www.w3.org/2000/svg" xmlns:xlink="http://www.w3.org/1999/xlink">
<g id="graph0" class="graph" transform="scale(1 1) rotate(0) translate(4 576.66)">
<title>%3</title>
<polygon fill="white" stroke="transparent" points="-4,4 -4,-576.66 1505.19,-576.66 1505.19,4 -4,4"/>
<!-- Layout(layout) -->
<g id="node1" class="node">
<title>Layout(layout)</title>
<ellipse fill="none" stroke="black" cx="1398.5" cy="-445" rx="63.89" ry="18"/>
<text text-anchor="middle" x="1398.5" y="-441.3" font-family="Times,serif" font-size="14.00">Layout(layout)</text>
</g>
<!-- IndexRanks -->
<g id="node2" class="node">
<title>IndexRanks</title>
<ellipse fill="none" stroke="black" cx="934.58" cy="-245" rx="52.79" ry="18"/>
<text text-anchor="middle" x="934.58" y="-241.3" font-family="Times,serif" font-size="14.00">IndexRanks</text>
</g>
<!-- RankRange(batch) -->
<g id="node3" class="node">
<title>RankRange(batch)</title>
<ellipse fill="none" stroke="black" cx="1153.87" cy="-310" rx="76.89" ry="18"/>
<text text-anchor="middle" x="1153.87" y="-306.3" font-family="Times,serif" font-size="14.00">RankRange(batch)</text>
</g>
<!-- IndexRanks&#45;&gt;RankRange(batch) -->
<g id="edge1" class="edge">
<title>IndexRanks&#45;&gt;RankRange(batch)</title>
<path fill="none" stroke="purple" d="M971.54,-257.92C993.48,-265.62 1022.17,-275.34 1047.93,-283 1061.42,-287.01 1075.99,-290.99 1089.86,-294.6"/>
<polygon fill="purple" stroke="purple" points="1089.25,-298.06 1099.81,-297.17 1091,-291.28 1089.25,-298.06"/>
</g>
<!-- RankRange(input_spatial) -->
<g id="node4" class="node">
<title>RankRange(input_spatial)</title>
<ellipse fill="none" stroke="black" cx="1398.5" cy="-60" rx="102.88" ry="18"/>
<text text-anchor="middle" x="1398.5" y="-56.3" font-family="Times,serif" font-size="14.00">RankRange(input_spatial)</text>
</g>
<!-- IndexRanks&#45;&gt;RankRange(input_spatial) -->
<g id="edge2" class="edge">
<title>IndexRanks&#45;&gt;RankRange(input_spatial)</title>
<path fill="none" stroke="purple" d="M946.14,-227.21C963.56,-199.57 1001.11,-146.8 1047.93,-121 1120.71,-80.88 1213.86,-66.11 1285.7,-61.11"/>
<polygon fill="purple" stroke="purple" points="1285.94,-64.6 1295.69,-60.46 1285.49,-57.61 1285.94,-64.6"/>
</g>
<!-- RankEquiv(output_spatial) -->
<g id="node5" class="node">
<title>RankEquiv(output_spatial)</title>
<ellipse fill="none" stroke="black" cx="1153.87" cy="-18" rx="105.88" ry="18"/>
<text text-anchor="middle" x="1153.87" y="-14.3" font-family="Times,serif" font-size="14.00">RankEquiv(output_spatial)</text>
</g>
<!-- IndexRanks&#45;&gt;RankEquiv(output_spatial) -->
<g id="edge3" class="edge">
<title>IndexRanks&#45;&gt;RankEquiv(output_spatial)</title>
<path fill="none" stroke="purple" d="M945.57,-226.93C963.28,-195.95 1002.65,-131.82 1047.93,-88 1066.98,-69.56 1091.49,-52.9 1112.03,-40.47"/>
<polygon fill="purple" stroke="purple" points="1114.04,-43.35 1120.85,-35.23 1110.47,-37.33 1114.04,-43.35"/>
</g>
<!-- RankRange(channel) -->
<g id="node6" class="node">
<title>RankRange(channel)</title>
<ellipse fill="none" stroke="black" cx="1153.87" cy="-256" rx="85.29" ry="18"/>
<text text-anchor="middle" x="1153.87" y="-252.3" font-family="Times,serif" font-size="14.00">RankRange(channel)</text>
</g>
<!-- IndexRanks&#45;&gt;RankRange(channel) -->
<g id="edge4" class="edge">
<title>IndexRanks&#45;&gt;RankRange(channel)</title>
<path fill="none" stroke="purple" d="M986.8,-247.59C1008.95,-248.71 1035.58,-250.06 1060.95,-251.35"/>
<polygon fill="purple" stroke="purple" points="1060.81,-254.84 1070.98,-251.85 1061.17,-247.85 1060.81,-254.84"/>
</g>
<!-- RankRange(ksize) -->
<g id="node7" class="node">
<title>RankRange(ksize)</title>
<ellipse fill="none" stroke="black" cx="1153.87" cy="-202" rx="75.29" ry="18"/>
<text text-anchor="middle" x="1153.87" y="-198.3" font-family="Times,serif" font-size="14.00">RankRange(ksize)</text>
</g>
<!-- IndexRanks&#45;&gt;RankRange(ksize) -->
<g id="edge5" class="edge">
<title>IndexRanks&#45;&gt;RankRange(ksize)</title>
<path fill="none" stroke="purple" d="M980.6,-236.09C1010.81,-230.11 1051.15,-222.13 1085.2,-215.39"/>
<polygon fill="purple" stroke="purple" points="1085.95,-218.81 1095.08,-213.44 1084.59,-211.94 1085.95,-218.81"/>
</g>
<!-- RankRange(strides) -->
<g id="node8" class="node">
<title>RankRange(strides)</title>
<ellipse fill="none" stroke="black" cx="1153.87" cy="-148" rx="80.69" ry="18"/>
<text text-anchor="middle" x="1153.87" y="-144.3" font-family="Times,serif" font-size="14.00">RankRange(strides)</text>
</g>
<!-- IndexRanks&#45;&gt;RankRange(strides) -->
<g id="edge6" class="edge">
<title>IndexRanks&#45;&gt;RankRange(strides)</title>
<path fill="none" stroke="purple" d="M957.28,-228.66C979.13,-212.9 1014.34,-189.38 1047.93,-175 1059.07,-170.23 1071.26,-166.15 1083.25,-162.71"/>
<polygon fill="purple" stroke="purple" points="1084.53,-165.99 1093.26,-159.98 1082.69,-159.24 1084.53,-165.99"/>
</g>
<!-- RankEquiv(output_spatial)&#45;&gt;RankRange(input_spatial) -->
<g id="edge26" class="edge">
<title>RankEquiv(output_spatial)&#45;&gt;RankRange(input_spatial)</title>
<path fill="none" stroke="black" d="M1228.65,-30.77C1255.85,-35.48 1286.82,-40.84 1314.76,-45.68"/>
<polygon fill="black" stroke="black" points="1314.45,-49.18 1324.9,-47.43 1315.64,-42.28 1314.45,-49.18"/>
</g>
<!-- DTypesNotImpl -->
<g id="node9" class="node">
<title>DTypesNotImpl</title>
<ellipse fill="none" stroke="black" cx="719.2" cy="-441" rx="68.79" ry="18"/>
<text text-anchor="middle" x="719.2" y="-437.3" font-family="Times,serif" font-size="14.00">DTypesNotImpl</text>
</g>
<!-- DTypesNotImpl&#45;&gt;Layout(layout) -->
<g id="edge8" class="edge">
<title>DTypesNotImpl&#45;&gt;Layout(layout)</title>
<path fill="none" stroke="black" d="M748.68,-457.38C830.17,-502.04 1070.57,-618.36 1259.81,-553 1307.11,-536.66 1350.55,-496.63 1375.51,-470.16"/>
<polygon fill="black" stroke="black" points="1378.14,-472.48 1382.35,-462.76 1373,-467.73 1378.14,-472.48"/>
</g>
<!-- DTypesNotImpl&#45;&gt;IndexRanks -->
<g id="edge7" class="edge">
<title>DTypesNotImpl&#45;&gt;IndexRanks</title>
<path fill="none" stroke="black" d="M748.12,-424.55C769.2,-411.54 798.3,-392.24 821.24,-372 857.1,-340.37 892.68,-297.75 913.9,-270.82"/>
<polygon fill="black" stroke="black" points="916.87,-272.7 920.26,-262.67 911.35,-268.4 916.87,-272.7"/>
</g>
<!-- DTypeIndiv(input) -->
<g id="node10" class="node">
<title>DTypeIndiv(input)</title>
<ellipse fill="none" stroke="black" cx="934.58" cy="-445" rx="77.19" ry="18"/>
<text text-anchor="middle" x="934.58" y="-441.3" font-family="Times,serif" font-size="14.00">DTypeIndiv(input)</text>
</g>
<!-- DTypesNotImpl&#45;&gt;DTypeIndiv(input) -->
<g id="edge9" class="edge">
<title>DTypesNotImpl&#45;&gt;DTypeIndiv(input)</title>
<path fill="none" stroke="purple" d="M788.01,-442.27C806.82,-442.62 827.5,-443.01 847.21,-443.38"/>
<polygon fill="purple" stroke="purple" points="847.36,-446.88 857.42,-443.57 847.49,-439.89 847.36,-446.88"/>
</g>
<!-- SigMap -->
<g id="node11" class="node">
<title>SigMap</title>
<ellipse fill="none" stroke="black" cx="934.58" cy="-391" rx="38.99" ry="18"/>
<text text-anchor="middle" x="934.58" y="-387.3" font-family="Times,serif" font-size="14.00">SigMap</text>
</g>
<!-- Sig(input) -->
<g id="node12" class="node">
<title>Sig(input)</title>
<ellipse fill="none" stroke="black" cx="1153.87" cy="-526" rx="46.29" ry="18"/>
<text text-anchor="middle" x="1153.87" y="-522.3" font-family="Times,serif" font-size="14.00">Sig(input)</text>
</g>
<!-- SigMap&#45;&gt;Sig(input) -->
<g id="edge10" class="edge">
<title>SigMap&#45;&gt;Sig(input)</title>
<path fill="none" stroke="purple" d="M971.45,-397.3C985.45,-401.28 1000.78,-407.69 1011.93,-418 1040.85,-444.75 1017.85,-473.55 1047.93,-499 1061.85,-510.78 1080.29,-517.51 1097.81,-521.33"/>
<polygon fill="purple" stroke="purple" points="1097.51,-524.83 1107.99,-523.25 1098.81,-517.95 1097.51,-524.83"/>
</g>
<!-- Sig(ksize) -->
<g id="node13" class="node">
<title>Sig(ksize)</title>
<ellipse fill="none" stroke="black" cx="1153.87" cy="-472" rx="46.29" ry="18"/>
<text text-anchor="middle" x="1153.87" y="-468.3" font-family="Times,serif" font-size="14.00">Sig(ksize)</text>
</g>
<!-- SigMap&#45;&gt;Sig(ksize) -->
<g id="edge11" class="edge">
<title>SigMap&#45;&gt;Sig(ksize)</title>
<path fill="none" stroke="purple" d="M968.45,-400.2C982.28,-404.69 998.29,-410.7 1011.93,-418 1029.56,-427.44 1029.9,-436.34 1047.93,-445 1064.44,-452.93 1083.58,-458.73 1100.95,-462.88"/>
<polygon fill="purple" stroke="purple" points="1100.42,-466.35 1110.94,-465.14 1101.96,-459.52 1100.42,-466.35"/>
</g>
<!-- Sig(strides) -->
<g id="node14" class="node">
<title>Sig(strides)</title>
<ellipse fill="none" stroke="black" cx="1153.87" cy="-418" rx="51.19" ry="18"/>
<text text-anchor="middle" x="1153.87" y="-414.3" font-family="Times,serif" font-size="14.00">Sig(strides)</text>
</g>
<!-- SigMap&#45;&gt;Sig(strides) -->
<g id="edge12" class="edge">
<title>SigMap&#45;&gt;Sig(strides)</title>
<path fill="none" stroke="purple" d="M972.44,-395.58C1006.01,-399.75 1056.12,-405.98 1095.02,-410.81"/>
<polygon fill="purple" stroke="purple" points="1094.81,-414.31 1105.16,-412.07 1095.67,-407.37 1094.81,-414.31"/>
</g>
<!-- Sig(return[0]) -->
<g id="node15" class="node">
<title>Sig(return[0])</title>
<ellipse fill="none" stroke="black" cx="1153.87" cy="-364" rx="59.59" ry="18"/>
<text text-anchor="middle" x="1153.87" y="-360.3" font-family="Times,serif" font-size="14.00">Sig(return[0])</text>
</g>
<!-- SigMap&#45;&gt;Sig(return[0]) -->
<g id="edge13" class="edge">
<title>SigMap&#45;&gt;Sig(return[0])</title>
<path fill="none" stroke="purple" d="M972.44,-386.42C1003.98,-382.5 1050.14,-376.77 1087.87,-372.08"/>
<polygon fill="purple" stroke="purple" points="1088.77,-375.49 1098.27,-370.78 1087.91,-368.54 1088.77,-375.49"/>
</g>
<!-- Sig(input)&#45;&gt;Layout(layout) -->
<g id="edge31" class="edge">
<title>Sig(input)&#45;&gt;Layout(layout)</title>
<path fill="none" stroke="black" d="M1194.06,-517.12C1213.93,-512.31 1238.33,-505.95 1259.81,-499 1291.58,-488.73 1326.6,-474.96 1353.37,-463.89"/>
<polygon fill="black" stroke="black" points="1354.95,-467.03 1362.84,-459.95 1352.26,-460.56 1354.95,-467.03"/>
</g>
<!-- Sig(ksize)&#45;&gt;Layout(layout) -->
<g id="edge33" class="edge">
<title>Sig(ksize)&#45;&gt;Layout(layout)</title>
<path fill="none" stroke="black" d="M1198.52,-467.14C1234.7,-463.12 1286.77,-457.32 1328.56,-452.67"/>
<polygon fill="black" stroke="black" points="1329.13,-456.13 1338.68,-451.55 1328.35,-449.17 1329.13,-456.13"/>
</g>
<!-- Sig(strides)&#45;&gt;Layout(layout) -->
<g id="edge35" class="edge">
<title>Sig(strides)&#45;&gt;Layout(layout)</title>
<path fill="none" stroke="black" d="M1203.09,-423.37C1239.15,-427.38 1288.94,-432.92 1329.1,-437.39"/>
<polygon fill="black" stroke="black" points="1328.76,-440.87 1339.09,-438.5 1329.54,-433.92 1328.76,-440.87"/>
</g>
<!-- Sig(return[0])&#45;&gt;Layout(layout) -->
<g id="edge36" class="edge">
<title>Sig(return[0])&#45;&gt;Layout(layout)</title>
<path fill="none" stroke="black" d="M1201.97,-374.82C1220.18,-379.34 1241.1,-384.95 1259.81,-391 1291.58,-401.27 1326.6,-415.04 1353.37,-426.11"/>
<polygon fill="black" stroke="black" points="1352.26,-429.44 1362.84,-430.05 1354.95,-422.97 1352.26,-429.44"/>
</g>
<!-- ArgRanks -->
<g id="node16" class="node">
<title>ArgRanks</title>
<ellipse fill="none" stroke="black" cx="719.2" cy="-345" rx="46.29" ry="18"/>
<text text-anchor="middle" x="719.2" y="-341.3" font-family="Times,serif" font-size="14.00">ArgRanks</text>
</g>
<!-- ArgRanks&#45;&gt;IndexRanks -->
<g id="edge14" class="edge">
<title>ArgRanks&#45;&gt;IndexRanks</title>
<path fill="none" stroke="black" d="M758.42,-335.22C777.67,-329.72 801.13,-322.11 821.24,-313 849.71,-300.1 879.91,-281.51 901.82,-267.03"/>
<polygon fill="black" stroke="black" points="904.01,-269.77 910.38,-261.3 900.12,-263.95 904.01,-269.77"/>
</g>
<!-- ArgRanks&#45;&gt;SigMap -->
<g id="edge15" class="edge">
<title>ArgRanks&#45;&gt;SigMap</title>
<path fill="none" stroke="black" d="M759.83,-353.54C796.46,-361.44 850.8,-373.15 888.94,-381.38"/>
<polygon fill="black" stroke="black" points="888.24,-384.81 898.75,-383.49 889.71,-377.96 888.24,-384.81"/>
</g>
<!-- ArgIndels -->
<g id="node17" class="node">
<title>ArgIndels</title>
<ellipse fill="none" stroke="black" cx="508.36" cy="-345" rx="46.29" ry="18"/>
<text text-anchor="middle" x="508.36" y="-341.3" font-family="Times,serif" font-size="14.00">ArgIndels</text>
</g>
<!-- ArgIndels&#45;&gt;ArgRanks -->
<g id="edge16" class="edge">
<title>ArgIndels&#45;&gt;ArgRanks</title>
<path fill="none" stroke="black" d="M554.68,-345C586.42,-345 629.03,-345 662.8,-345"/>
<polygon fill="black" stroke="black" points="662.97,-348.5 672.97,-345 662.97,-341.5 662.97,-348.5"/>
</g>
<!-- ArgMutations -->
<g id="node18" class="node">
<title>ArgMutations</title>
<ellipse fill="none" stroke="black" cx="339.13" cy="-345" rx="60.39" ry="18"/>
<text text-anchor="middle" x="339.13" y="-341.3" font-family="Times,serif" font-size="14.00">ArgMutations</text>
</g>
<!-- ArgMutations&#45;&gt;IndexRanks -->
<g id="edge18" class="edge">
<title>ArgMutations&#45;&gt;IndexRanks</title>
<path fill="none" stroke="black" d="M381.65,-331.98C398.29,-327.1 417.72,-321.82 435.57,-318 592.27,-284.5 780.01,-261.54 873.92,-251.2"/>
<polygon fill="black" stroke="black" points="874.52,-254.66 884.08,-250.09 873.76,-247.7 874.52,-254.66"/>
</g>
<!-- ArgMutations&#45;&gt;SigMap -->
<g id="edge19" class="edge">
<title>ArgMutations&#45;&gt;SigMap</title>
<path fill="none" stroke="black" d="M379.59,-358.44C396.61,-363.64 416.86,-369.04 435.57,-372 598.95,-397.85 796.05,-395.69 885.39,-392.93"/>
<polygon fill="black" stroke="black" points="885.61,-396.43 895.49,-392.61 885.38,-389.43 885.61,-396.43"/>
</g>
<!-- ArgMutations&#45;&gt;ArgIndels -->
<g id="edge17" class="edge">
<title>ArgMutations&#45;&gt;ArgIndels</title>
<path fill="none" stroke="black" d="M400.03,-345C416.95,-345 435.28,-345 451.93,-345"/>
<polygon fill="black" stroke="black" points="452.05,-348.5 462.05,-345 452.05,-341.5 452.05,-348.5"/>
</g>
<!-- Options(padding) -->
<g id="node19" class="node">
<title>Options(padding)</title>
<ellipse fill="none" stroke="red" cx="508.36" cy="-253" rx="72.59" ry="18"/>
<text text-anchor="middle" x="508.36" y="-249.3" font-family="Times,serif" font-size="14.00">Options(padding)</text>
</g>
<!-- ArgMutations&#45;&gt;Options(padding) -->
<g id="edge20" class="edge">
<title>ArgMutations&#45;&gt;Options(padding)</title>
<path fill="none" stroke="purple" d="M364.28,-328.48C383.24,-315.84 410.53,-298.36 435.57,-285 443.53,-280.75 452.17,-276.56 460.6,-272.69"/>
<polygon fill="purple" stroke="purple" points="462.31,-275.76 469.99,-268.46 459.43,-269.37 462.31,-275.76"/>
</g>
<!-- Args -->
<g id="node20" class="node">
<title>Args</title>
<ellipse fill="none" stroke="black" cx="27.95" cy="-295" rx="27.9" ry="18"/>
<text text-anchor="middle" x="27.95" y="-291.3" font-family="Times,serif" font-size="14.00">Args</text>
</g>
<!-- Args&#45;&gt;Options(padding) -->
<g id="edge25" class="edge">
<title>Args&#45;&gt;Options(padding)</title>
<path fill="none" stroke="purple" d="M49.85,-283.72C61.8,-277.87 77.28,-271.28 91.9,-268 206.78,-242.23 343.94,-243.21 428.35,-247.32"/>
<polygon fill="purple" stroke="purple" points="428.21,-250.81 438.37,-247.83 428.56,-243.82 428.21,-250.81"/>
</g>
<!-- DataFormat(data_format) -->
<g id="node21" class="node">
<title>DataFormat(data_format)</title>
<ellipse fill="none" stroke="red" cx="719.2" cy="-207" rx="102.08" ry="18"/>
<text text-anchor="middle" x="719.2" y="-203.3" font-family="Times,serif" font-size="14.00">DataFormat(data_format)</text>
</g>
<!-- Args&#45;&gt;DataFormat(data_format) -->
<g id="edge21" class="edge">
<title>Args&#45;&gt;DataFormat(data_format)</title>
<path fill="none" stroke="purple" d="M42.74,-279.45C54.48,-267.4 72.49,-251.53 91.9,-244 271.23,-174.45 501.17,-183.25 626.57,-195.4"/>
<polygon fill="purple" stroke="purple" points="626.22,-198.88 636.52,-196.39 626.92,-191.91 626.22,-198.88"/>
</g>
<!-- DataTensor(input) -->
<g id="node22" class="node">
<title>DataTensor(input)</title>
<ellipse fill="none" stroke="red" cx="167.29" cy="-403" rx="75.29" ry="18"/>
<text text-anchor="middle" x="167.29" y="-399.3" font-family="Times,serif" font-size="14.00">DataTensor(input)</text>
</g>
<!-- Args&#45;&gt;DataTensor(input) -->
<g id="edge22" class="edge">
<title>Args&#45;&gt;DataTensor(input)</title>
<path fill="none" stroke="purple" d="M38.15,-311.87C48.85,-330.06 68.14,-358.71 91.9,-376 96.66,-379.47 101.92,-382.54 107.38,-385.24"/>
<polygon fill="purple" stroke="purple" points="106.13,-388.51 116.69,-389.44 109.01,-382.13 106.13,-388.51"/>
</g>
<!-- ShapeList(ksize) -->
<g id="node23" class="node">
<title>ShapeList(ksize)</title>
<ellipse fill="none" stroke="red" cx="167.29" cy="-349" rx="69.59" ry="18"/>
<text text-anchor="middle" x="167.29" y="-345.3" font-family="Times,serif" font-size="14.00">ShapeList(ksize)</text>
</g>
<!-- Args&#45;&gt;ShapeList(ksize) -->
<g id="edge23" class="edge">
<title>Args&#45;&gt;ShapeList(ksize)</title>
<path fill="none" stroke="purple" d="M51.54,-305.06C63.48,-310.28 78.4,-316.66 91.9,-322 99.53,-325.02 107.64,-328.1 115.61,-331.05"/>
<polygon fill="purple" stroke="purple" points="114.61,-334.41 125.2,-334.56 117.02,-327.83 114.61,-334.41"/>
</g>
<!-- ShapeList(strides) -->
<g id="node24" class="node">
<title>ShapeList(strides)</title>
<ellipse fill="none" stroke="red" cx="167.29" cy="-295" rx="74.99" ry="18"/>
<text text-anchor="middle" x="167.29" y="-291.3" font-family="Times,serif" font-size="14.00">ShapeList(strides)</text>
</g>
<!-- Args&#45;&gt;ShapeList(strides) -->
<g id="edge24" class="edge">
<title>Args&#45;&gt;ShapeList(strides)</title>
<path fill="none" stroke="purple" d="M56.08,-295C63.89,-295 72.84,-295 82.2,-295"/>
<polygon fill="purple" stroke="purple" points="82.48,-298.5 92.48,-295 82.48,-291.5 82.48,-298.5"/>
</g>
<!-- DataFormat(data_format)&#45;&gt;Layout(layout) -->
<g id="edge28" class="edge">
<title>DataFormat(data_format)&#45;&gt;Layout(layout)</title>
<path fill="none" stroke="black" d="M748.88,-189.72C834.54,-140.6 1092.87,-10.56 1259.81,-121 1362.65,-189.04 1388.91,-351.09 1395.43,-416.7"/>
<polygon fill="black" stroke="black" points="1391.95,-417.09 1396.34,-426.73 1398.92,-416.45 1391.95,-417.09"/>
</g>
<!-- DataFormat(data_format)&#45;&gt;IndexRanks -->
<g id="edge27" class="edge">
<title>DataFormat(data_format)&#45;&gt;IndexRanks</title>
<path fill="none" stroke="black" d="M791.55,-219.71C819.47,-224.68 851.02,-230.3 877.29,-234.97"/>
<polygon fill="black" stroke="black" points="876.99,-238.48 887.45,-236.78 878.21,-231.58 876.99,-238.48"/>
</g>
<!-- DataTensor(input)&#45;&gt;DTypesNotImpl -->
<g id="edge30" class="edge">
<title>DataTensor(input)&#45;&gt;DTypesNotImpl</title>
<path fill="none" stroke="black" d="M239.9,-407.95C343.88,-415.13 535.81,-428.4 642.2,-435.75"/>
<polygon fill="black" stroke="black" points="642.01,-439.24 652.23,-436.44 642.49,-432.26 642.01,-439.24"/>
</g>
<!-- DataTensor(input)&#45;&gt;ArgMutations -->
<g id="edge29" class="edge">
<title>DataTensor(input)&#45;&gt;ArgMutations</title>
<path fill="none" stroke="black" d="M211.59,-388.21C235.27,-380.13 264.7,-370.08 289.21,-361.7"/>
<polygon fill="black" stroke="black" points="290.36,-365.01 298.69,-358.47 288.09,-358.39 290.36,-365.01"/>
</g>
<!-- ShapeList(ksize)&#45;&gt;ArgMutations -->
<g id="edge32" class="edge">
<title>ShapeList(ksize)&#45;&gt;ArgMutations</title>
<path fill="none" stroke="black" d="M236.88,-347.38C247.3,-347.14 258.07,-346.89 268.52,-346.64"/>
<polygon fill="black" stroke="black" points="268.92,-350.13 278.84,-346.4 268.76,-343.13 268.92,-350.13"/>
</g>
<!-- ShapeList(strides)&#45;&gt;ArgMutations -->
<g id="edge34" class="edge">
<title>ShapeList(strides)&#45;&gt;ArgMutations</title>
<path fill="none" stroke="black" d="M215.6,-308.93C237.4,-315.35 263.35,-322.99 285.74,-329.58"/>
<polygon fill="black" stroke="black" points="284.84,-332.96 295.42,-332.43 286.82,-326.25 284.84,-332.96"/>
</g>
</g>
</svg>
