<?xml version="1.0" encoding="UTF-8" standalone="no"?>
<!DOCTYPE svg PUBLIC "-//W3C//DTD SVG 1.1//EN"
 "http://www.w3.org/Graphics/SVG/1.1/DTD/svg11.dtd">
<!-- Generated by graphviz version 2.43.0 (0)
 -->
<!-- Title: %3 Pages: 1 -->
<svg width="1237pt" height="373pt"
 viewBox="0.00 0.00 1237.40 372.74" xmlns="http://www.w3.org/2000/svg" xmlns:xlink="http://www.w3.org/1999/xlink">
<g id="graph0" class="graph" transform="scale(1 1) rotate(0) translate(4 368.74)">
<title>%3</title>
<polygon fill="white" stroke="transparent" points="-4,4 -4,-368.74 1233.4,-368.74 1233.4,4 -4,4"/>
<!-- DimsInput(_index_ranks) -->
<g id="node1" class="node">
<title>DimsInput(_index_ranks)</title>
<ellipse fill="none" stroke="black" cx="1127.36" cy="-173.74" rx="102.08" ry="18"/>
<text text-anchor="middle" x="1127.36" y="-170.04" font-family="Times,serif" font-size="14.00">DimsInput(_index_ranks)</text>
</g>
<!-- GenDims(batch) -->
<g id="node2" class="node">
<title>GenDims(batch)</title>
<ellipse fill="none" stroke="black" cx="892.48" cy="-346.74" rx="69.59" ry="18"/>
<text text-anchor="middle" x="892.48" y="-343.04" font-family="Times,serif" font-size="14.00">GenDims(batch)</text>
</g>
<!-- GenDims(batch)&#45;&gt;DimsInput(_index_ranks) -->
<g id="edge1" class="edge">
<title>GenDims(batch)&#45;&gt;DimsInput(_index_ranks)</title>
<path fill="none" stroke="black" d="M949.58,-336.4C963.19,-332.45 977.28,-327.05 989.32,-319.74 1040.6,-288.6 1085.02,-233.09 1108.53,-200.23"/>
<polygon fill="black" stroke="black" points="1111.43,-202.18 1114.32,-191.99 1105.7,-198.16 1111.43,-202.18"/>
</g>
<!-- GenDims(input_spatial) -->
<g id="node3" class="node">
<title>GenDims(input_spatial)</title>
<ellipse fill="none" stroke="black" cx="892.48" cy="-292.74" rx="96.38" ry="18"/>
<text text-anchor="middle" x="892.48" y="-289.04" font-family="Times,serif" font-size="14.00">GenDims(input_spatial)</text>
</g>
<!-- GenDims(input_spatial)&#45;&gt;DimsInput(_index_ranks) -->
<g id="edge2" class="edge">
<title>GenDims(input_spatial)&#45;&gt;DimsInput(_index_ranks)</title>
<path fill="none" stroke="black" d="M946.12,-277.72C960.41,-272.96 975.7,-267.22 989.32,-260.74 1027.21,-242.72 1067.38,-216.23 1094.37,-197.22"/>
<polygon fill="black" stroke="black" points="1096.52,-199.98 1102.64,-191.33 1092.47,-194.28 1096.52,-199.98"/>
</g>
<!-- GenDims(block_size) -->
<g id="node4" class="node">
<title>GenDims(block_size)</title>
<ellipse fill="none" stroke="black" cx="892.48" cy="-146.74" rx="88.28" ry="18"/>
<text text-anchor="middle" x="892.48" y="-143.04" font-family="Times,serif" font-size="14.00">GenDims(block_size)</text>
</g>
<!-- GenDims(block_size)&#45;&gt;DimsInput(_index_ranks) -->
<g id="edge3" class="edge">
<title>GenDims(block_size)&#45;&gt;DimsInput(_index_ranks)</title>
<path fill="none" stroke="black" d="M969.73,-155.58C989.46,-157.87 1010.93,-160.36 1031.48,-162.74"/>
<polygon fill="black" stroke="black" points="1031.14,-166.22 1041.48,-163.9 1031.95,-159.27 1031.14,-166.22"/>
</g>
<!-- GenDims(const_dim_4) -->
<g id="node5" class="node">
<title>GenDims(const_dim_4)</title>
<ellipse fill="none" stroke="black" cx="892.48" cy="-200.74" rx="96.68" ry="18"/>
<text text-anchor="middle" x="892.48" y="-197.04" font-family="Times,serif" font-size="14.00">GenDims(const_dim_4)</text>
</g>
<!-- GenDims(const_dim_4)&#45;&gt;DimsInput(_index_ranks) -->
<g id="edge4" class="edge">
<title>GenDims(const_dim_4)&#45;&gt;DimsInput(_index_ranks)</title>
<path fill="none" stroke="black" d="M974.93,-191.3C993.17,-189.18 1012.66,-186.92 1031.39,-184.75"/>
<polygon fill="black" stroke="black" points="1031.87,-188.22 1041.4,-183.59 1031.06,-181.27 1031.87,-188.22"/>
</g>
<!-- CompDims(output_spatial) -->
<g id="node6" class="node">
<title>CompDims(output_spatial)</title>
<ellipse fill="none" stroke="black" cx="632.25" cy="-246.74" rx="107.78" ry="18"/>
<text text-anchor="middle" x="632.25" y="-243.04" font-family="Times,serif" font-size="14.00">CompDims(output_spatial)</text>
</g>
<!-- CompDims(output_spatial)&#45;&gt;DimsInput(_index_ranks) -->
<g id="edge5" class="edge">
<title>CompDims(output_spatial)&#45;&gt;DimsInput(_index_ranks)</title>
<path fill="none" stroke="black" d="M738.43,-249.93C809.95,-249.97 906.3,-245.81 989.32,-227.74 1021.81,-220.67 1056.65,-206.85 1083.07,-194.96"/>
<polygon fill="black" stroke="black" points="1084.77,-198.03 1092.41,-190.68 1081.86,-191.67 1084.77,-198.03"/>
</g>
<!-- CompDims(output_spatial)&#45;&gt;GenDims(input_spatial) -->
<g id="edge7" class="edge">
<title>CompDims(output_spatial)&#45;&gt;GenDims(input_spatial)</title>
<path fill="none" stroke="purple" d="M706.56,-259.8C739.39,-265.65 778.19,-272.56 811.75,-278.54"/>
<polygon fill="purple" stroke="purple" points="811.53,-282.05 821.99,-280.36 812.76,-275.16 811.53,-282.05"/>
</g>
<!-- CompDims(output_spatial)&#45;&gt;GenDims(block_size) -->
<g id="edge6" class="edge">
<title>CompDims(output_spatial)&#45;&gt;GenDims(block_size)</title>
<path fill="none" stroke="purple" d="M667.48,-229.56C699.93,-213.71 750.32,-190.21 795.64,-173.74 805.65,-170.1 816.4,-166.65 826.95,-163.51"/>
<polygon fill="purple" stroke="purple" points="827.93,-166.87 836.55,-160.71 825.97,-160.15 827.93,-166.87"/>
</g>
<!-- CompDims(squared_block_size) -->
<g id="node7" class="node">
<title>CompDims(squared_block_size)</title>
<ellipse fill="none" stroke="black" cx="632.25" cy="-110.74" rx="127.28" ry="18"/>
<text text-anchor="middle" x="632.25" y="-107.04" font-family="Times,serif" font-size="14.00">CompDims(squared_block_size)</text>
</g>
<!-- CompDims(squared_block_size)&#45;&gt;DimsInput(_index_ranks) -->
<g id="edge8" class="edge">
<title>CompDims(squared_block_size)&#45;&gt;DimsInput(_index_ranks)</title>
<path fill="none" stroke="black" d="M749.05,-103.53C819.25,-101.66 910.24,-103.68 989.32,-119.74 1022.13,-126.4 1057.23,-140.37 1083.69,-152.44"/>
<polygon fill="black" stroke="black" points="1082.48,-155.73 1093.02,-156.78 1085.43,-149.39 1082.48,-155.73"/>
</g>
<!-- CompDims(squared_block_size)&#45;&gt;GenDims(block_size) -->
<g id="edge9" class="edge">
<title>CompDims(squared_block_size)&#45;&gt;GenDims(block_size)</title>
<path fill="none" stroke="purple" d="M723.57,-123.33C751.29,-127.2 781.65,-131.43 808.84,-135.22"/>
<polygon fill="purple" stroke="purple" points="808.71,-138.73 819.09,-136.65 809.67,-131.8 808.71,-138.73"/>
</g>
<!-- GenDims(input_channel) -->
<g id="node8" class="node">
<title>GenDims(input_channel)</title>
<ellipse fill="none" stroke="black" cx="368.12" cy="-66.74" rx="100.98" ry="18"/>
<text text-anchor="middle" x="368.12" y="-63.04" font-family="Times,serif" font-size="14.00">GenDims(input_channel)</text>
</g>
<!-- GenDims(input_channel)&#45;&gt;DimsInput(_index_ranks) -->
<g id="edge10" class="edge">
<title>GenDims(input_channel)&#45;&gt;DimsInput(_index_ranks)</title>
<path fill="none" stroke="black" d="M459.05,-58.94C581.63,-51.11 806.8,-46.79 989.32,-99.74 1027.12,-110.7 1066.23,-133.12 1092.95,-150.42"/>
<polygon fill="black" stroke="black" points="1091.24,-153.49 1101.52,-156.07 1095.1,-147.65 1091.24,-153.49"/>
</g>
<!-- GenDims(input_channel)&#45;&gt;CompDims(squared_block_size) -->
<g id="edge11" class="edge">
<title>GenDims(input_channel)&#45;&gt;CompDims(squared_block_size)</title>
<path fill="none" stroke="purple" d="M442.14,-79C472.21,-84.04 507.39,-89.95 539.2,-95.29"/>
<polygon fill="purple" stroke="purple" points="538.96,-98.8 549.4,-97 540.12,-91.89 538.96,-98.8"/>
</g>
<!-- CompDims(output_flattened) -->
<g id="node9" class="node">
<title>CompDims(output_flattened)</title>
<ellipse fill="none" stroke="black" cx="115.69" cy="-66.74" rx="115.88" ry="18"/>
<text text-anchor="middle" x="115.69" y="-63.04" font-family="Times,serif" font-size="14.00">CompDims(output_flattened)</text>
</g>
<!-- CompDims(output_flattened)&#45;&gt;DimsInput(_index_ranks) -->
<g id="edge12" class="edge">
<title>CompDims(output_flattened)&#45;&gt;DimsInput(_index_ranks)</title>
<path fill="none" stroke="black" d="M178.11,-51.54C324.54,-18.37 703.26,49.07 989.32,-60.74 1037.01,-79.05 1080.36,-120.97 1105.02,-148.29"/>
<polygon fill="black" stroke="black" points="1102.52,-150.74 1111.76,-155.92 1107.76,-146.11 1102.52,-150.74"/>
</g>
<!-- CompDims(output_flattened)&#45;&gt;CompDims(squared_block_size) -->
<g id="edge14" class="edge">
<title>CompDims(output_flattened)&#45;&gt;CompDims(squared_block_size)</title>
<path fill="none" stroke="purple" d="M185.81,-81.08C211.33,-85.86 240.57,-90.73 267.38,-93.74 342.55,-102.19 426.92,-106.46 495.47,-108.6"/>
<polygon fill="purple" stroke="purple" points="495.37,-112.1 505.47,-108.91 495.58,-105.11 495.37,-112.1"/>
</g>
<!-- CompDims(output_flattened)&#45;&gt;GenDims(input_channel) -->
<g id="edge13" class="edge">
<title>CompDims(output_flattened)&#45;&gt;GenDims(input_channel)</title>
<path fill="none" stroke="purple" d="M231.64,-66.74C240.05,-66.74 248.53,-66.74 256.91,-66.74"/>
<polygon fill="purple" stroke="purple" points="257.08,-70.24 267.08,-66.74 257.08,-63.24 257.08,-70.24"/>
</g>
</g>
</svg>
