<?xml version="1.0" encoding="UTF-8" standalone="no"?>
<!DOCTYPE svg PUBLIC "-//W3C//DTD SVG 1.1//EN"
 "http://www.w3.org/Graphics/SVG/1.1/DTD/svg11.dtd">
<!-- Generated by graphviz version 2.43.0 (0)
 -->
<!-- Title: %3 Pages: 1 -->
<svg width="819pt" height="331pt"
 viewBox="0.00 0.00 818.84 330.63" xmlns="http://www.w3.org/2000/svg" xmlns:xlink="http://www.w3.org/1999/xlink">
<g id="graph0" class="graph" transform="scale(1 1) rotate(0) translate(4 326.63)">
<title>%3</title>
<polygon fill="white" stroke="transparent" points="-4,4 -4,-326.63 814.84,-326.63 814.84,4 -4,4"/>
<!-- Schema -->
<g id="node1" class="node">
<title>Schema</title>
<ellipse fill="none" stroke="black" cx="771.84" cy="-137" rx="38.99" ry="18"/>
<text text-anchor="middle" x="771.84" y="-133.3" font-family="Times,serif" font-size="14.00">Schema</text>
</g>
<!-- ShapeMap -->
<g id="node2" class="node">
<title>ShapeMap</title>
<ellipse fill="none" stroke="black" cx="174.44" cy="-218" rx="48.99" ry="18"/>
<text text-anchor="middle" x="174.44" y="-214.3" font-family="Times,serif" font-size="14.00">ShapeMap</text>
</g>
<!-- TensorShape(input) -->
<g id="node3" class="node">
<title>TensorShape(input)</title>
<ellipse fill="none" stroke="black" cx="353.43" cy="-164" rx="80.69" ry="18"/>
<text text-anchor="middle" x="353.43" y="-160.3" font-family="Times,serif" font-size="14.00">TensorShape(input)</text>
</g>
<!-- ShapeMap&#45;&gt;TensorShape(input) -->
<g id="edge1" class="edge">
<title>ShapeMap&#45;&gt;TensorShape(input)</title>
<path fill="none" stroke="purple" d="M211.64,-206.07C226.36,-201.28 243.55,-195.78 259.18,-191 270.03,-187.68 281.61,-184.24 292.8,-180.98"/>
<polygon fill="purple" stroke="purple" points="293.88,-184.31 302.5,-178.16 291.92,-177.59 293.88,-184.31"/>
</g>
<!-- ShapeTensor(block_shape) -->
<g id="node4" class="node">
<title>ShapeTensor(block_shape)</title>
<ellipse fill="none" stroke="black" cx="590.26" cy="-295" rx="106.68" ry="18"/>
<text text-anchor="middle" x="590.26" y="-291.3" font-family="Times,serif" font-size="14.00">ShapeTensor(block_shape)</text>
</g>
<!-- ShapeMap&#45;&gt;ShapeTensor(block_shape) -->
<g id="edge2" class="edge">
<title>ShapeMap&#45;&gt;ShapeTensor(block_shape)</title>
<path fill="none" stroke="purple" d="M187.15,-235.62C201.46,-255.36 227.68,-286.26 259.18,-299 342.86,-332.85 448.52,-323.53 517.43,-311.35"/>
<polygon fill="purple" stroke="purple" points="518.12,-314.78 527.33,-309.54 516.86,-307.9 518.12,-314.78"/>
</g>
<!-- SliceShape(paddings.0) -->
<g id="node5" class="node">
<title>SliceShape(paddings.0)</title>
<ellipse fill="none" stroke="black" cx="353.43" cy="-272" rx="94.48" ry="18"/>
<text text-anchor="middle" x="353.43" y="-268.3" font-family="Times,serif" font-size="14.00">SliceShape(paddings.0)</text>
</g>
<!-- ShapeMap&#45;&gt;SliceShape(paddings.0) -->
<g id="edge3" class="edge">
<title>ShapeMap&#45;&gt;SliceShape(paddings.0)</title>
<path fill="none" stroke="purple" d="M211.64,-229.93C226.36,-234.72 243.55,-240.22 259.18,-245 269.2,-248.06 279.84,-251.23 290.23,-254.27"/>
<polygon fill="purple" stroke="purple" points="289.49,-257.7 300.07,-257.14 291.45,-250.98 289.49,-257.7"/>
</g>
<!-- SliceShape(paddings.1) -->
<g id="node6" class="node">
<title>SliceShape(paddings.1)</title>
<ellipse fill="none" stroke="black" cx="353.43" cy="-218" rx="94.48" ry="18"/>
<text text-anchor="middle" x="353.43" y="-214.3" font-family="Times,serif" font-size="14.00">SliceShape(paddings.1)</text>
</g>
<!-- ShapeMap&#45;&gt;SliceShape(paddings.1) -->
<g id="edge4" class="edge">
<title>ShapeMap&#45;&gt;SliceShape(paddings.1)</title>
<path fill="none" stroke="purple" d="M223.33,-218C231.44,-218 240.13,-218 249.02,-218"/>
<polygon fill="purple" stroke="purple" points="249.13,-221.5 259.13,-218 249.13,-214.5 249.13,-221.5"/>
</g>
<!-- DataTensor(input) -->
<g id="node14" class="node">
<title>DataTensor(input)</title>
<ellipse fill="none" stroke="black" cx="590.26" cy="-164" rx="75.29" ry="18"/>
<text text-anchor="middle" x="590.26" y="-160.3" font-family="Times,serif" font-size="14.00">DataTensor(input)</text>
</g>
<!-- TensorShape(input)&#45;&gt;DataTensor(input) -->
<g id="edge14" class="edge">
<title>TensorShape(input)&#45;&gt;DataTensor(input)</title>
<path fill="none" stroke="black" d="M434.26,-164C456.96,-164 481.76,-164 504.73,-164"/>
<polygon fill="black" stroke="black" points="504.79,-167.5 514.79,-164 504.79,-160.5 504.79,-167.5"/>
</g>
<!-- ShapeTensor(block_shape)&#45;&gt;Schema -->
<g id="edge16" class="edge">
<title>ShapeTensor(block_shape)&#45;&gt;Schema</title>
<path fill="none" stroke="black" d="M638.55,-278.89C657.99,-270.75 679.87,-259.48 696.85,-245 723.56,-222.21 744.98,-187.6 757.77,-163.73"/>
<polygon fill="black" stroke="black" points="760.88,-165.33 762.4,-154.84 754.67,-162.09 760.88,-165.33"/>
</g>
<!-- ShapeTensor2D(paddings) -->
<g id="node15" class="node">
<title>ShapeTensor2D(paddings)</title>
<ellipse fill="none" stroke="black" cx="590.26" cy="-218" rx="104.78" ry="18"/>
<text text-anchor="middle" x="590.26" y="-214.3" font-family="Times,serif" font-size="14.00">ShapeTensor2D(paddings)</text>
</g>
<!-- SliceShape(paddings.0)&#45;&gt;ShapeTensor2D(paddings) -->
<g id="edge18" class="edge">
<title>SliceShape(paddings.0)&#45;&gt;ShapeTensor2D(paddings)</title>
<path fill="none" stroke="black" d="M414.29,-258.23C445.45,-251.07 483.79,-242.25 516.63,-234.7"/>
<polygon fill="black" stroke="black" points="517.67,-238.05 526.63,-232.4 516.1,-231.23 517.67,-238.05"/>
</g>
<!-- SliceShape(paddings.1)&#45;&gt;ShapeTensor2D(paddings) -->
<g id="edge19" class="edge">
<title>SliceShape(paddings.1)&#45;&gt;ShapeTensor2D(paddings)</title>
<path fill="none" stroke="black" d="M447.91,-218C456.83,-218 465.95,-218 475.04,-218"/>
<polygon fill="black" stroke="black" points="475.27,-221.5 485.27,-218 475.27,-214.5 475.27,-221.5"/>
</g>
<!-- DTypes -->
<g id="node7" class="node">
<title>DTypes</title>
<ellipse fill="none" stroke="black" cx="174.44" cy="-118" rx="38.19" ry="18"/>
<text text-anchor="middle" x="174.44" y="-114.3" font-family="Times,serif" font-size="14.00">DTypes</text>
</g>
<!-- TensorDType(input) -->
<g id="node8" class="node">
<title>TensorDType(input)</title>
<ellipse fill="none" stroke="black" cx="353.43" cy="-110" rx="83.39" ry="18"/>
<text text-anchor="middle" x="353.43" y="-106.3" font-family="Times,serif" font-size="14.00">TensorDType(input)</text>
</g>
<!-- DTypes&#45;&gt;TensorDType(input) -->
<g id="edge5" class="edge">
<title>DTypes&#45;&gt;TensorDType(input)</title>
<path fill="none" stroke="purple" d="M212.97,-116.3C227.31,-115.66 244.35,-114.89 261.51,-114.11"/>
<polygon fill="purple" stroke="purple" points="261.78,-117.6 271.61,-113.65 261.46,-110.61 261.78,-117.6"/>
</g>
<!-- TensorDType(input)&#45;&gt;DataTensor(input) -->
<g id="edge15" class="edge">
<title>TensorDType(input)&#45;&gt;DataTensor(input)</title>
<path fill="none" stroke="black" d="M410.97,-123C445.46,-130.93 489.63,-141.09 525.38,-149.31"/>
<polygon fill="black" stroke="black" points="524.69,-152.74 535.22,-151.57 526.26,-145.92 524.69,-152.74"/>
</g>
<!-- ArgMap -->
<g id="node9" class="node">
<title>ArgMap</title>
<ellipse fill="none" stroke="black" cx="174.44" cy="-64" rx="40.89" ry="18"/>
<text text-anchor="middle" x="174.44" y="-60.3" font-family="Times,serif" font-size="14.00">ArgMap</text>
</g>
<!-- DataFormat -->
<g id="node10" class="node">
<title>DataFormat</title>
<ellipse fill="none" stroke="black" cx="590.26" cy="-110" rx="53.09" ry="18"/>
<text text-anchor="middle" x="590.26" y="-106.3" font-family="Times,serif" font-size="14.00">DataFormat</text>
</g>
<!-- ArgMap&#45;&gt;DataFormat -->
<g id="edge6" class="edge">
<title>ArgMap&#45;&gt;DataFormat</title>
<path fill="none" stroke="blue" d="M215.72,-65.32C268.98,-67.4 365.68,-72.36 447.67,-83 476.7,-86.77 508.76,-92.73 535.02,-98.09"/>
<polygon fill="blue" stroke="blue" points="534.65,-101.59 545.15,-100.19 536.07,-94.74 534.65,-101.59"/>
</g>
<!-- DataFormat&#45;&gt;Schema -->
<g id="edge20" class="edge">
<title>DataFormat&#45;&gt;Schema</title>
<path fill="none" stroke="black" d="M639.38,-117.24C665.8,-121.21 698.4,-126.11 724.52,-130.04"/>
<polygon fill="black" stroke="black" points="724.15,-133.52 734.56,-131.54 725.19,-126.6 724.15,-133.52"/>
</g>
<!-- Inventory -->
<g id="node11" class="node">
<title>Inventory</title>
<ellipse fill="none" stroke="black" cx="44.85" cy="-118" rx="44.69" ry="18"/>
<text text-anchor="middle" x="44.85" y="-114.3" font-family="Times,serif" font-size="14.00">Inventory</text>
</g>
<!-- Inventory&#45;&gt;ShapeMap -->
<g id="edge8" class="edge">
<title>Inventory&#45;&gt;ShapeMap</title>
<path fill="none" stroke="black" d="M66.35,-134.07C87.52,-150.66 120.74,-176.7 144.56,-195.37"/>
<polygon fill="black" stroke="black" points="142.54,-198.23 152.56,-201.64 146.85,-192.72 142.54,-198.23"/>
</g>
<!-- Inventory&#45;&gt;DTypes -->
<g id="edge7" class="edge">
<title>Inventory&#45;&gt;DTypes</title>
<path fill="none" stroke="black" d="M89.76,-118C101.35,-118 113.92,-118 125.71,-118"/>
<polygon fill="black" stroke="black" points="125.82,-121.5 135.82,-118 125.82,-114.5 125.82,-121.5"/>
</g>
<!-- Inventory&#45;&gt;ArgMap -->
<g id="edge9" class="edge">
<title>Inventory&#45;&gt;ArgMap</title>
<path fill="none" stroke="black" d="M76.41,-105.07C93.99,-97.63 116.24,-88.21 134.99,-80.27"/>
<polygon fill="black" stroke="black" points="136.6,-83.39 144.44,-76.27 133.87,-76.95 136.6,-83.39"/>
</g>
<!-- GetReturnTensors -->
<g id="node12" class="node">
<title>GetReturnTensors</title>
<ellipse fill="none" stroke="black" cx="590.26" cy="-18" rx="75.29" ry="18"/>
<text text-anchor="middle" x="590.26" y="-14.3" font-family="Times,serif" font-size="14.00">GetReturnTensors</text>
</g>
<!-- GetReturnTensors&#45;&gt;Schema -->
<g id="edge10" class="edge">
<title>GetReturnTensors&#45;&gt;Schema</title>
<path fill="none" stroke="black" d="M649.51,-29.24C665.67,-34.02 682.67,-40.71 696.85,-50 721.01,-65.83 741.64,-91.82 754.93,-111.28"/>
<polygon fill="black" stroke="black" points="752.06,-113.29 760.5,-119.7 757.9,-109.43 752.06,-113.29"/>
</g>
<!-- ValidReturnShapes -->
<g id="node13" class="node">
<title>ValidReturnShapes</title>
<ellipse fill="none" stroke="black" cx="353.43" cy="-18" rx="77.99" ry="18"/>
<text text-anchor="middle" x="353.43" y="-14.3" font-family="Times,serif" font-size="14.00">ValidReturnShapes</text>
</g>
<!-- ValidReturnShapes&#45;&gt;Schema -->
<g id="edge11" class="edge">
<title>ValidReturnShapes&#45;&gt;Schema</title>
<path fill="none" stroke="black" d="M410.97,-30.19C433.55,-34.96 459.81,-40.38 483.67,-45 578.15,-63.29 608.33,-45.22 696.85,-83 714.65,-90.6 732.26,-103.18 745.83,-114.29"/>
<polygon fill="black" stroke="black" points="743.82,-117.18 753.72,-120.96 748.34,-111.83 743.82,-117.18"/>
</g>
<!-- ValidReturnShapes&#45;&gt;GetReturnTensors -->
<g id="edge12" class="edge">
<title>ValidReturnShapes&#45;&gt;GetReturnTensors</title>
<path fill="none" stroke="black" d="M431.64,-18C455.04,-18 480.85,-18 504.7,-18"/>
<polygon fill="black" stroke="black" points="504.79,-21.5 514.79,-18 504.79,-14.5 504.79,-21.5"/>
</g>
<!-- DataTensor(input)&#45;&gt;Schema -->
<g id="edge13" class="edge">
<title>DataTensor(input)&#45;&gt;Schema</title>
<path fill="none" stroke="black" d="M654.57,-154.48C677.57,-151.02 703.11,-147.18 724.39,-143.98"/>
<polygon fill="black" stroke="black" points="725.09,-147.42 734.46,-142.47 724.05,-140.5 725.09,-147.42"/>
</g>
<!-- ShapeTensor2D(paddings)&#45;&gt;Schema -->
<g id="edge17" class="edge">
<title>ShapeTensor2D(paddings)&#45;&gt;Schema</title>
<path fill="none" stroke="black" d="M659.9,-204.5C672.49,-200.9 685.29,-196.44 696.85,-191 714.24,-182.8 731.71,-170.3 745.3,-159.39"/>
<polygon fill="black" stroke="black" points="747.74,-161.92 753.23,-152.86 743.29,-156.52 747.74,-161.92"/>
</g>
</g>
</svg>
