<?xml version="1.0" encoding="UTF-8" standalone="no"?>
<!DOCTYPE svg PUBLIC "-//W3C//DTD SVG 1.1//EN"
 "http://www.w3.org/Graphics/SVG/1.1/DTD/svg11.dtd">
<!-- Generated by graphviz version 2.43.0 (0)
 -->
<!-- Title: %3 Pages: 1 -->
<svg width="884pt" height="336pt"
 viewBox="0.00 0.00 884.23 336.00" xmlns="http://www.w3.org/2000/svg" xmlns:xlink="http://www.w3.org/1999/xlink">
<g id="graph0" class="graph" transform="scale(1 1) rotate(0) translate(4 332)">
<title>%3</title>
<polygon fill="white" stroke="transparent" points="-4,4 -4,-332 880.23,-332 880.23,4 -4,4"/>
<!-- DimsInput(_index_ranks) -->
<g id="node1" class="node">
<title>DimsInput(_index_ranks)</title>
<ellipse fill="none" stroke="black" cx="774.19" cy="-187" rx="102.08" ry="18"/>
<text text-anchor="middle" x="774.19" y="-183.3" font-family="Times,serif" font-size="14.00">DimsInput(_index_ranks)</text>
</g>
<!-- GenDims(batch) -->
<g id="node2" class="node">
<title>GenDims(batch)</title>
<ellipse fill="none" stroke="black" cx="558.16" cy="-310" rx="69.59" ry="18"/>
<text text-anchor="middle" x="558.16" y="-306.3" font-family="Times,serif" font-size="14.00">GenDims(batch)</text>
</g>
<!-- GenDims(batch)&#45;&gt;DimsInput(_index_ranks) -->
<g id="edge1" class="edge">
<title>GenDims(batch)&#45;&gt;DimsInput(_index_ranks)</title>
<path fill="none" stroke="black" d="M604.4,-296.45C615.05,-292.64 626.19,-288.11 636.15,-283 675.79,-262.65 717.13,-232.22 743.9,-211.1"/>
<polygon fill="black" stroke="black" points="746.42,-213.56 752.06,-204.59 742.06,-208.09 746.42,-213.56"/>
</g>
<!-- GenDims(channel) -->
<g id="node3" class="node">
<title>GenDims(channel)</title>
<ellipse fill="none" stroke="black" cx="558.16" cy="-256" rx="77.99" ry="18"/>
<text text-anchor="middle" x="558.16" y="-252.3" font-family="Times,serif" font-size="14.00">GenDims(channel)</text>
</g>
<!-- GenDims(channel)&#45;&gt;DimsInput(_index_ranks) -->
<g id="edge2" class="edge">
<title>GenDims(channel)&#45;&gt;DimsInput(_index_ranks)</title>
<path fill="none" stroke="black" d="M604.29,-241.45C636.46,-231.08 680.01,-217.04 714.82,-205.82"/>
<polygon fill="black" stroke="black" points="715.95,-209.13 724.4,-202.73 713.81,-202.47 715.95,-209.13"/>
</g>
<!-- GenDims(ksize) -->
<g id="node4" class="node">
<title>GenDims(ksize)</title>
<ellipse fill="none" stroke="black" cx="558.16" cy="-164" rx="68.79" ry="18"/>
<text text-anchor="middle" x="558.16" y="-160.3" font-family="Times,serif" font-size="14.00">GenDims(ksize)</text>
</g>
<!-- GenDims(ksize)&#45;&gt;DimsInput(_index_ranks) -->
<g id="edge3" class="edge">
<title>GenDims(ksize)&#45;&gt;DimsInput(_index_ranks)</title>
<path fill="none" stroke="black" d="M622.22,-170.78C639.18,-172.6 657.92,-174.61 676.26,-176.58"/>
<polygon fill="black" stroke="black" points="676.08,-180.08 686.4,-177.67 676.83,-173.12 676.08,-180.08"/>
</g>
<!-- GenDims(strides) -->
<g id="node5" class="node">
<title>GenDims(strides)</title>
<ellipse fill="none" stroke="black" cx="347.97" cy="-72" rx="73.39" ry="18"/>
<text text-anchor="middle" x="347.97" y="-68.3" font-family="Times,serif" font-size="14.00">GenDims(strides)</text>
</g>
<!-- GenDims(strides)&#45;&gt;DimsInput(_index_ranks) -->
<g id="edge4" class="edge">
<title>GenDims(strides)&#45;&gt;DimsInput(_index_ranks)</title>
<path fill="none" stroke="black" d="M418.54,-77.12C477.59,-82.88 563.96,-94.67 636.15,-118 671.79,-129.52 709.62,-149.2 736.48,-164.6"/>
<polygon fill="black" stroke="black" points="734.75,-167.64 745.15,-169.64 738.27,-161.59 734.75,-167.64"/>
</g>
<!-- GenDims(input_spatial) -->
<g id="node6" class="node">
<title>GenDims(input_spatial)</title>
<ellipse fill="none" stroke="black" cx="347.97" cy="-126" rx="96.38" ry="18"/>
<text text-anchor="middle" x="347.97" y="-122.3" font-family="Times,serif" font-size="14.00">GenDims(input_spatial)</text>
</g>
<!-- GenDims(input_spatial)&#45;&gt;DimsInput(_index_ranks) -->
<g id="edge5" class="edge">
<title>GenDims(input_spatial)&#45;&gt;DimsInput(_index_ranks)</title>
<path fill="none" stroke="black" d="M442.29,-122.29C498.88,-121.83 572.26,-124.44 636.15,-137 667.58,-143.18 701.4,-155.45 727.58,-166.3"/>
<polygon fill="black" stroke="black" points="726.29,-169.55 736.86,-170.21 729.01,-163.1 726.29,-169.55"/>
</g>
<!-- GenDims(input_spatial)&#45;&gt;GenDims(ksize) -->
<g id="edge6" class="edge">
<title>GenDims(input_spatial)&#45;&gt;GenDims(ksize)</title>
<path fill="none" stroke="purple" d="M417.43,-138.5C441.17,-142.83 467.74,-147.68 491.27,-151.97"/>
<polygon fill="purple" stroke="purple" points="490.69,-155.43 501.15,-153.78 491.95,-148.54 490.69,-155.43"/>
</g>
<!-- DimsInput(padding) -->
<g id="node7" class="node">
<title>DimsInput(padding)</title>
<ellipse fill="none" stroke="black" cx="347.97" cy="-18" rx="83.39" ry="18"/>
<text text-anchor="middle" x="347.97" y="-14.3" font-family="Times,serif" font-size="14.00">DimsInput(padding)</text>
</g>
<!-- CompDims(output_spatial) -->
<g id="node8" class="node">
<title>CompDims(output_spatial)</title>
<ellipse fill="none" stroke="black" cx="107.89" cy="-126" rx="107.78" ry="18"/>
<text text-anchor="middle" x="107.89" y="-122.3" font-family="Times,serif" font-size="14.00">CompDims(output_spatial)</text>
</g>
<!-- CompDims(output_spatial)&#45;&gt;DimsInput(_index_ranks) -->
<g id="edge7" class="edge">
<title>CompDims(output_spatial)&#45;&gt;DimsInput(_index_ranks)</title>
<path fill="none" stroke="black" d="M151.36,-142.49C179.43,-152.69 217.28,-165.11 251.78,-172 394.37,-200.49 563.22,-199.14 669.29,-194.18"/>
<polygon fill="black" stroke="black" points="669.54,-197.67 679.35,-193.69 669.2,-190.68 669.54,-197.67"/>
</g>
<!-- CompDims(output_spatial)&#45;&gt;GenDims(ksize) -->
<g id="edge9" class="edge">
<title>CompDims(output_spatial)&#45;&gt;GenDims(ksize)</title>
<path fill="none" stroke="purple" d="M173.66,-140.38C198.03,-145.22 226.06,-150.12 251.78,-153 328.69,-161.6 417.11,-163.97 478.95,-164.42"/>
<polygon fill="purple" stroke="purple" points="479,-167.92 489.02,-164.48 479.04,-160.92 479,-167.92"/>
</g>
<!-- CompDims(output_spatial)&#45;&gt;GenDims(strides) -->
<g id="edge8" class="edge">
<title>CompDims(output_spatial)&#45;&gt;GenDims(strides)</title>
<path fill="none" stroke="purple" d="M172.69,-111.53C207.04,-103.74 249.28,-94.16 283.57,-86.38"/>
<polygon fill="purple" stroke="purple" points="284.49,-89.76 293.47,-84.13 282.95,-82.93 284.49,-89.76"/>
</g>
<!-- CompDims(output_spatial)&#45;&gt;GenDims(input_spatial) -->
<g id="edge10" class="edge">
<title>CompDims(output_spatial)&#45;&gt;GenDims(input_spatial)</title>
<path fill="none" stroke="purple" d="M216.09,-126C224.51,-126 233.02,-126 241.43,-126"/>
<polygon fill="purple" stroke="purple" points="241.64,-129.5 251.64,-126 241.64,-122.5 241.64,-129.5"/>
</g>
<!-- CompDims(output_spatial)&#45;&gt;DimsInput(padding) -->
<g id="edge11" class="edge">
<title>CompDims(output_spatial)&#45;&gt;DimsInput(padding)</title>
<path fill="none" stroke="blue" d="M135.3,-108.47C163.26,-90.52 209.16,-62.82 251.78,-45 261.33,-41.01 271.66,-37.4 281.86,-34.21"/>
<polygon fill="blue" stroke="blue" points="283.02,-37.52 291.59,-31.29 281,-30.82 283.02,-37.52"/>
</g>
</g>
</svg>
