<?xml version="1.0" encoding="UTF-8" standalone="no"?>
<!DOCTYPE svg PUBLIC "-//W3C//DTD SVG 1.1//EN"
 "http://www.w3.org/Graphics/SVG/1.1/DTD/svg11.dtd">
<!-- Generated by graphviz version 2.43.0 (0)
 -->
<!-- Title: %3 Pages: 1 -->
<svg width="1352pt" height="844pt"
 viewBox="0.00 0.00 1352.30 844.00" xmlns="http://www.w3.org/2000/svg" xmlns:xlink="http://www.w3.org/1999/xlink">
<g id="graph0" class="graph" transform="scale(1 1) rotate(0) translate(4 840)">
<title>%3</title>
<polygon fill="white" stroke="transparent" points="-4,4 -4,-840 1348.3,-840 1348.3,4 -4,4"/>
<!-- ObservedValue(dtypes) -->
<g id="node1" class="node">
<title>ObservedValue(dtypes)</title>
<ellipse fill="none" stroke="black" cx="710.75" cy="-537" rx="92.88" ry="18"/>
<text text-anchor="middle" x="710.75" y="-533.3" font-family="Times,serif" font-size="14.00">ObservedValue(dtypes)</text>
</g>
<!-- ObservedValue(shapes) -->
<g id="node2" class="node">
<title>ObservedValue(shapes)</title>
<ellipse fill="none" stroke="black" cx="710.75" cy="-145" rx="93.68" ry="18"/>
<text text-anchor="middle" x="710.75" y="-141.3" font-family="Times,serif" font-size="14.00">ObservedValue(shapes)</text>
</g>
<!-- ObservedValue(args) -->
<g id="node3" class="node">
<title>ObservedValue(args)</title>
<ellipse fill="none" stroke="black" cx="367.72" cy="-272" rx="85.29" ry="18"/>
<text text-anchor="middle" x="367.72" y="-268.3" font-family="Times,serif" font-size="14.00">ObservedValue(args)</text>
</g>
<!-- Layout(layout) -->
<g id="node4" class="node">
<title>Layout(layout)</title>
<ellipse fill="none" stroke="black" cx="1241.61" cy="-207" rx="63.89" ry="18"/>
<text text-anchor="middle" x="1241.61" y="-203.3" font-family="Times,serif" font-size="14.00">Layout(layout)</text>
</g>
<!-- IndexRanks -->
<g id="node5" class="node">
<title>IndexRanks</title>
<ellipse fill="none" stroke="black" cx="710.75" cy="-483" rx="52.79" ry="18"/>
<text text-anchor="middle" x="710.75" y="-479.3" font-family="Times,serif" font-size="14.00">IndexRanks</text>
</g>
<!-- RankRange(batch) -->
<g id="node6" class="node">
<title>RankRange(batch)</title>
<ellipse fill="none" stroke="black" cx="971.63" cy="-402" rx="76.89" ry="18"/>
<text text-anchor="middle" x="971.63" y="-398.3" font-family="Times,serif" font-size="14.00">RankRange(batch)</text>
</g>
<!-- IndexRanks&#45;&gt;RankRange(batch) -->
<g id="edge1" class="edge">
<title>IndexRanks&#45;&gt;RankRange(batch)</title>
<path fill="none" stroke="purple" d="M741.79,-468.43C767.47,-456.46 805.65,-439.77 840.34,-429 859.03,-423.2 879.63,-418.28 898.81,-414.29"/>
<polygon fill="purple" stroke="purple" points="899.59,-417.71 908.7,-412.3 898.2,-410.85 899.59,-417.71"/>
</g>
<!-- RankRange(input_spatial) -->
<g id="node7" class="node">
<title>RankRange(input_spatial)</title>
<ellipse fill="none" stroke="black" cx="1241.61" cy="-687" rx="102.88" ry="18"/>
<text text-anchor="middle" x="1241.61" y="-683.3" font-family="Times,serif" font-size="14.00">RankRange(input_spatial)</text>
</g>
<!-- IndexRanks&#45;&gt;RankRange(input_spatial) -->
<g id="edge2" class="edge">
<title>IndexRanks&#45;&gt;RankRange(input_spatial)</title>
<path fill="none" stroke="purple" d="M761.88,-487.98C777.28,-491.83 793.11,-498.5 804.34,-510 847.74,-554.41 793.14,-604.65 840.34,-645 862.16,-663.66 1020.97,-675.67 1131.86,-681.88"/>
<polygon fill="purple" stroke="purple" points="1131.93,-685.39 1142.1,-682.45 1132.31,-678.4 1131.93,-685.39"/>
</g>
<!-- RankEquiv(padded_input_spatial) -->
<g id="node8" class="node">
<title>RankEquiv(padded_input_spatial)</title>
<ellipse fill="none" stroke="black" cx="971.63" cy="-618" rx="131.08" ry="18"/>
<text text-anchor="middle" x="971.63" y="-614.3" font-family="Times,serif" font-size="14.00">RankEquiv(padded_input_spatial)</text>
</g>
<!-- IndexRanks&#45;&gt;RankEquiv(padded_input_spatial) -->
<g id="edge3" class="edge">
<title>IndexRanks&#45;&gt;RankEquiv(padded_input_spatial)</title>
<path fill="none" stroke="purple" d="M760.86,-489.06C776.19,-492.98 792.24,-499.42 804.34,-510 834.01,-535.92 809.67,-566.28 840.34,-591 846.03,-595.58 852.3,-599.45 858.92,-602.7"/>
<polygon fill="purple" stroke="purple" points="857.59,-605.94 868.15,-606.76 860.41,-599.53 857.59,-605.94"/>
</g>
<!-- RankEquiv(block_shape) -->
<g id="node9" class="node">
<title>RankEquiv(block_shape)</title>
<ellipse fill="none" stroke="black" cx="971.63" cy="-510" rx="100.18" ry="18"/>
<text text-anchor="middle" x="971.63" y="-506.3" font-family="Times,serif" font-size="14.00">RankEquiv(block_shape)</text>
</g>
<!-- IndexRanks&#45;&gt;RankEquiv(block_shape) -->
<g id="edge4" class="edge">
<title>IndexRanks&#45;&gt;RankEquiv(block_shape)</title>
<path fill="none" stroke="purple" d="M761.36,-488.17C793.37,-491.51 836.06,-495.97 874.54,-499.98"/>
<polygon fill="purple" stroke="purple" points="874.43,-503.49 884.74,-501.04 875.16,-496.52 874.43,-503.49"/>
</g>
<!-- RankRange(remaining) -->
<g id="node10" class="node">
<title>RankRange(remaining)</title>
<ellipse fill="none" stroke="black" cx="971.63" cy="-564" rx="93.68" ry="18"/>
<text text-anchor="middle" x="971.63" y="-560.3" font-family="Times,serif" font-size="14.00">RankRange(remaining)</text>
</g>
<!-- IndexRanks&#45;&gt;RankRange(remaining) -->
<g id="edge5" class="edge">
<title>IndexRanks&#45;&gt;RankRange(remaining)</title>
<path fill="none" stroke="purple" d="M755.84,-492.39C771.61,-496.64 789.21,-502.44 804.34,-510 822.23,-518.94 822.11,-528.77 840.34,-537 853.99,-543.16 869.07,-547.93 883.99,-551.62"/>
<polygon fill="purple" stroke="purple" points="883.23,-555.03 893.76,-553.89 884.81,-548.22 883.23,-555.03"/>
</g>
<!-- RankEquiv(padding_start) -->
<g id="node11" class="node">
<title>RankEquiv(padding_start)</title>
<ellipse fill="none" stroke="black" cx="971.63" cy="-818" rx="103.98" ry="18"/>
<text text-anchor="middle" x="971.63" y="-814.3" font-family="Times,serif" font-size="14.00">RankEquiv(padding_start)</text>
</g>
<!-- IndexRanks&#45;&gt;RankEquiv(padding_start) -->
<g id="edge6" class="edge">
<title>IndexRanks&#45;&gt;RankEquiv(padding_start)</title>
<path fill="none" stroke="purple" d="M762.32,-487.02C777.94,-490.79 793.79,-497.65 804.34,-510 886.15,-605.71 754.8,-698.61 840.34,-791 847.04,-798.23 855.12,-803.81 863.95,-808.07"/>
<polygon fill="purple" stroke="purple" points="862.81,-811.39 873.38,-812.05 865.53,-804.94 862.81,-811.39"/>
</g>
<!-- RankEquiv(padding_end) -->
<g id="node12" class="node">
<title>RankEquiv(padding_end)</title>
<ellipse fill="none" stroke="black" cx="971.63" cy="-764" rx="101.28" ry="18"/>
<text text-anchor="middle" x="971.63" y="-760.3" font-family="Times,serif" font-size="14.00">RankEquiv(padding_end)</text>
</g>
<!-- IndexRanks&#45;&gt;RankEquiv(padding_end) -->
<g id="edge7" class="edge">
<title>IndexRanks&#45;&gt;RankEquiv(padding_end)</title>
<path fill="none" stroke="purple" d="M762.11,-487.2C777.71,-490.98 793.61,-497.81 804.34,-510 871.86,-586.65 769.83,-663.09 840.34,-737 847.59,-744.6 856.38,-750.35 865.92,-754.67"/>
<polygon fill="purple" stroke="purple" points="864.7,-757.95 875.28,-758.39 867.28,-751.45 864.7,-757.95"/>
</g>
<!-- RankEquiv(output_spatial) -->
<g id="node13" class="node">
<title>RankEquiv(output_spatial)</title>
<ellipse fill="none" stroke="black" cx="971.63" cy="-710" rx="105.88" ry="18"/>
<text text-anchor="middle" x="971.63" y="-706.3" font-family="Times,serif" font-size="14.00">RankEquiv(output_spatial)</text>
</g>
<!-- IndexRanks&#45;&gt;RankEquiv(output_spatial) -->
<g id="edge8" class="edge">
<title>IndexRanks&#45;&gt;RankEquiv(output_spatial)</title>
<path fill="none" stroke="purple" d="M761.74,-487.54C777.31,-491.35 793.28,-498.11 804.34,-510 856.34,-565.92 787.15,-623.21 840.34,-678 848.58,-686.49 858.68,-692.87 869.57,-697.64"/>
<polygon fill="purple" stroke="purple" points="868.3,-700.9 878.88,-701.28 870.85,-694.38 868.3,-700.9"/>
</g>
<!-- RankRange(output_batch) -->
<g id="node14" class="node">
<title>RankRange(output_batch)</title>
<ellipse fill="none" stroke="black" cx="971.63" cy="-456" rx="103.18" ry="18"/>
<text text-anchor="middle" x="971.63" y="-452.3" font-family="Times,serif" font-size="14.00">RankRange(output_batch)</text>
</g>
<!-- IndexRanks&#45;&gt;RankRange(output_batch) -->
<g id="edge9" class="edge">
<title>IndexRanks&#45;&gt;RankRange(output_batch)</title>
<path fill="none" stroke="purple" d="M761.36,-477.83C792.83,-474.54 834.63,-470.18 872.59,-466.23"/>
<polygon fill="purple" stroke="purple" points="873.08,-469.69 882.66,-465.17 872.35,-462.73 873.08,-469.69"/>
</g>
<!-- RankEquiv(padded_input_spatial)&#45;&gt;RankRange(input_spatial) -->
<g id="edge30" class="edge">
<title>RankEquiv(padded_input_spatial)&#45;&gt;RankRange(input_spatial)</title>
<path fill="none" stroke="black" d="M1037.31,-633.59C1058.27,-638.72 1081.6,-644.52 1102.92,-650 1126.62,-656.09 1152.55,-663 1175.46,-669.18"/>
<polygon fill="black" stroke="black" points="1174.84,-672.64 1185.41,-671.87 1176.67,-665.88 1174.84,-672.64"/>
</g>
<!-- RankEquiv(block_shape)&#45;&gt;RankRange(input_spatial) -->
<g id="edge31" class="edge">
<title>RankEquiv(block_shape)&#45;&gt;RankRange(input_spatial)</title>
<path fill="none" stroke="black" d="M1057.09,-519.49C1072.97,-523.46 1088.96,-529.08 1102.92,-537 1156.68,-567.51 1201.24,-626.33 1224.09,-660.55"/>
<polygon fill="black" stroke="black" points="1221.28,-662.65 1229.68,-669.09 1227.13,-658.81 1221.28,-662.65"/>
</g>
<!-- RankEquiv(padding_start)&#45;&gt;RankRange(input_spatial) -->
<g id="edge32" class="edge">
<title>RankEquiv(padding_start)&#45;&gt;RankRange(input_spatial)</title>
<path fill="none" stroke="black" d="M1053.98,-806.93C1070.6,-803.08 1087.66,-797.91 1102.92,-791 1146.44,-771.27 1189.18,-735.76 1215.22,-711.78"/>
<polygon fill="black" stroke="black" points="1217.83,-714.13 1222.74,-704.74 1213.05,-709.02 1217.83,-714.13"/>
</g>
<!-- RankEquiv(padding_end)&#45;&gt;RankRange(input_spatial) -->
<g id="edge33" class="edge">
<title>RankEquiv(padding_end)&#45;&gt;RankRange(input_spatial)</title>
<path fill="none" stroke="black" d="M1043.4,-751.26C1062.83,-747.25 1083.81,-742.42 1102.92,-737 1132.32,-728.66 1164.45,-717.14 1190.27,-707.25"/>
<polygon fill="black" stroke="black" points="1191.78,-710.43 1199.84,-703.56 1189.25,-703.9 1191.78,-710.43"/>
</g>
<!-- RankEquiv(output_spatial)&#45;&gt;RankRange(input_spatial) -->
<g id="edge34" class="edge">
<title>RankEquiv(output_spatial)&#45;&gt;RankRange(input_spatial)</title>
<path fill="none" stroke="black" d="M1066.73,-701.92C1090.09,-699.92 1115.23,-697.76 1138.93,-695.73"/>
<polygon fill="black" stroke="black" points="1139.32,-699.21 1148.99,-694.86 1138.73,-692.23 1139.32,-699.21"/>
</g>
<!-- DTypes -->
<g id="node15" class="node">
<title>DTypes</title>
<ellipse fill="none" stroke="black" cx="535.01" cy="-442" rx="38.19" ry="18"/>
<text text-anchor="middle" x="535.01" y="-438.3" font-family="Times,serif" font-size="14.00">DTypes</text>
</g>
<!-- DTypes&#45;&gt;ObservedValue(dtypes) -->
<g id="edge10" class="edge">
<title>DTypes&#45;&gt;ObservedValue(dtypes)</title>
<path fill="none" stroke="black" d="M551.61,-458.54C566.95,-473.91 591.7,-496.4 617.16,-510 624.3,-513.81 632.04,-517.15 639.91,-520.05"/>
<polygon fill="black" stroke="black" points="638.94,-523.42 649.54,-523.38 641.23,-516.81 638.94,-523.42"/>
</g>
<!-- DTypes&#45;&gt;Layout(layout) -->
<g id="edge12" class="edge">
<title>DTypes&#45;&gt;Layout(layout)</title>
<path fill="none" stroke="black" d="M569.66,-433.96C625.64,-420.74 741.52,-393.96 840.34,-375 956.48,-352.72 996.42,-383.41 1102.92,-332 1151.82,-308.39 1195.9,-261.85 1220.38,-232.7"/>
<polygon fill="black" stroke="black" points="1223.09,-234.91 1226.76,-224.97 1217.69,-230.46 1223.09,-234.91"/>
</g>
<!-- DTypes&#45;&gt;IndexRanks -->
<g id="edge11" class="edge">
<title>DTypes&#45;&gt;IndexRanks</title>
<path fill="none" stroke="black" d="M569.51,-449.91C594.3,-455.75 628.55,-463.84 656.99,-470.55"/>
<polygon fill="black" stroke="black" points="656.25,-473.97 666.79,-472.86 657.86,-467.16 656.25,-473.97"/>
</g>
<!-- SigMap -->
<g id="node16" class="node">
<title>SigMap</title>
<ellipse fill="none" stroke="black" cx="710.75" cy="-199" rx="38.99" ry="18"/>
<text text-anchor="middle" x="710.75" y="-195.3" font-family="Times,serif" font-size="14.00">SigMap</text>
</g>
<!-- Sig(input) -->
<g id="node17" class="node">
<title>Sig(input)</title>
<ellipse fill="none" stroke="black" cx="971.63" cy="-234" rx="46.29" ry="18"/>
<text text-anchor="middle" x="971.63" y="-230.3" font-family="Times,serif" font-size="14.00">Sig(input)</text>
</g>
<!-- SigMap&#45;&gt;Sig(input) -->
<g id="edge13" class="edge">
<title>SigMap&#45;&gt;Sig(input)</title>
<path fill="none" stroke="purple" d="M748.29,-203.94C792.49,-209.92 867.25,-220.02 917.74,-226.85"/>
<polygon fill="purple" stroke="purple" points="917.44,-230.34 927.81,-228.21 918.37,-223.4 917.44,-230.34"/>
</g>
<!-- Sig(block_shape) -->
<g id="node18" class="node">
<title>Sig(block_shape)</title>
<ellipse fill="none" stroke="black" cx="971.63" cy="-180" rx="72.29" ry="18"/>
<text text-anchor="middle" x="971.63" y="-176.3" font-family="Times,serif" font-size="14.00">Sig(block_shape)</text>
</g>
<!-- SigMap&#45;&gt;Sig(block_shape) -->
<g id="edge14" class="edge">
<title>SigMap&#45;&gt;Sig(block_shape)</title>
<path fill="none" stroke="purple" d="M749.39,-196.24C786.63,-193.5 844.74,-189.24 892.07,-185.77"/>
<polygon fill="purple" stroke="purple" points="892.58,-189.24 902.3,-185.02 892.07,-182.26 892.58,-189.24"/>
</g>
<!-- Sig(paddings.0) -->
<g id="node19" class="node">
<title>Sig(paddings.0)</title>
<ellipse fill="none" stroke="black" cx="971.63" cy="-126" rx="66.89" ry="18"/>
<text text-anchor="middle" x="971.63" y="-122.3" font-family="Times,serif" font-size="14.00">Sig(paddings.0)</text>
</g>
<!-- SigMap&#45;&gt;Sig(paddings.0) -->
<g id="edge15" class="edge">
<title>SigMap&#45;&gt;Sig(paddings.0)</title>
<path fill="none" stroke="purple" d="M745.73,-190.85C763.49,-186.16 785.41,-179.67 804.34,-172 821.11,-165.21 823.32,-159.12 840.34,-153 859.96,-145.95 881.94,-140.51 902.18,-136.43"/>
<polygon fill="purple" stroke="purple" points="903.11,-139.82 912.27,-134.48 901.78,-132.94 903.11,-139.82"/>
</g>
<!-- Sig(paddings.1) -->
<g id="node20" class="node">
<title>Sig(paddings.1)</title>
<ellipse fill="none" stroke="black" cx="971.63" cy="-72" rx="66.89" ry="18"/>
<text text-anchor="middle" x="971.63" y="-68.3" font-family="Times,serif" font-size="14.00">Sig(paddings.1)</text>
</g>
<!-- SigMap&#45;&gt;Sig(paddings.1) -->
<g id="edge16" class="edge">
<title>SigMap&#45;&gt;Sig(paddings.1)</title>
<path fill="none" stroke="purple" d="M749.35,-195.17C767.64,-191.66 788.95,-184.92 804.34,-172 832.05,-148.75 811.73,-121.14 840.34,-99 855.9,-86.96 875.52,-79.95 894.79,-75.94"/>
<polygon fill="purple" stroke="purple" points="895.6,-79.35 904.8,-74.11 894.34,-72.47 895.6,-79.35"/>
</g>
<!-- Sig(return[0]) -->
<g id="node21" class="node">
<title>Sig(return[0])</title>
<ellipse fill="none" stroke="black" cx="971.63" cy="-18" rx="59.59" ry="18"/>
<text text-anchor="middle" x="971.63" y="-14.3" font-family="Times,serif" font-size="14.00">Sig(return[0])</text>
</g>
<!-- SigMap&#45;&gt;Sig(return[0]) -->
<g id="edge17" class="edge">
<title>SigMap&#45;&gt;Sig(return[0])</title>
<path fill="none" stroke="purple" d="M749.47,-196.47C768.25,-193.31 789.95,-186.5 804.34,-172 845.67,-130.36 797.39,-84.97 840.34,-45 856.84,-29.65 879.68,-22.08 901.64,-18.58"/>
<polygon fill="purple" stroke="purple" points="902.19,-22.04 911.64,-17.25 901.27,-15.1 902.19,-22.04"/>
</g>
<!-- Sig(input)&#45;&gt;Layout(layout) -->
<g id="edge35" class="edge">
<title>Sig(input)&#45;&gt;Layout(layout)</title>
<path fill="none" stroke="black" d="M1016.58,-229.57C1058.45,-225.35 1122.14,-218.94 1170.92,-214.02"/>
<polygon fill="black" stroke="black" points="1171.49,-217.48 1181.09,-213 1170.79,-210.52 1171.49,-217.48"/>
</g>
<!-- Sig(block_shape)&#45;&gt;Layout(layout) -->
<g id="edge36" class="edge">
<title>Sig(block_shape)&#45;&gt;Layout(layout)</title>
<path fill="none" stroke="black" d="M1038.87,-186.67C1079.02,-190.72 1130.19,-195.87 1170.94,-199.98"/>
<polygon fill="black" stroke="black" points="1170.77,-203.48 1181.07,-201 1171.47,-196.52 1170.77,-203.48"/>
</g>
<!-- Sig(paddings.0)&#45;&gt;Layout(layout) -->
<g id="edge37" class="edge">
<title>Sig(paddings.0)&#45;&gt;Layout(layout)</title>
<path fill="none" stroke="black" d="M1028.62,-135.45C1051.83,-139.92 1078.89,-145.86 1102.92,-153 1135.14,-162.58 1170.42,-176.49 1197.2,-187.79"/>
<polygon fill="black" stroke="black" points="1196.09,-191.12 1206.66,-191.82 1198.83,-184.68 1196.09,-191.12"/>
</g>
<!-- Sig(paddings.1)&#45;&gt;Layout(layout) -->
<g id="edge38" class="edge">
<title>Sig(paddings.1)&#45;&gt;Layout(layout)</title>
<path fill="none" stroke="black" d="M1033.82,-78.72C1056.28,-82.71 1081.44,-89.03 1102.92,-99 1147.37,-119.64 1190.47,-157.15 1216.28,-182.08"/>
<polygon fill="black" stroke="black" points="1214.12,-184.87 1223.71,-189.37 1219.03,-179.87 1214.12,-184.87"/>
</g>
<!-- Sig(return[0])&#45;&gt;Layout(layout) -->
<g id="edge39" class="edge">
<title>Sig(return[0])&#45;&gt;Layout(layout)</title>
<path fill="none" stroke="black" d="M1030.42,-21.73C1054.18,-25.29 1081.16,-32.1 1102.92,-45 1159.4,-78.5 1203.88,-143.69 1225.76,-180.33"/>
<polygon fill="black" stroke="black" points="1222.76,-182.13 1230.83,-189 1228.8,-178.6 1222.76,-182.13"/>
</g>
<!-- ArgIndels -->
<g id="node22" class="node">
<title>ArgIndels</title>
<ellipse fill="none" stroke="black" cx="535.01" cy="-218" rx="46.29" ry="18"/>
<text text-anchor="middle" x="535.01" y="-214.3" font-family="Times,serif" font-size="14.00">ArgIndels</text>
</g>
<!-- ArgIndels&#45;&gt;ObservedValue(shapes) -->
<g id="edge20" class="edge">
<title>ArgIndels&#45;&gt;ObservedValue(shapes)</title>
<path fill="none" stroke="black" d="M559.76,-202.59C575.55,-192.83 597.02,-180.51 617.16,-172 625.54,-168.46 634.54,-165.2 643.51,-162.27"/>
<polygon fill="black" stroke="black" points="644.71,-165.56 653.2,-159.22 642.61,-158.89 644.71,-165.56"/>
</g>
<!-- ArgIndels&#45;&gt;Layout(layout) -->
<g id="edge21" class="edge">
<title>ArgIndels&#45;&gt;Layout(layout)</title>
<path fill="none" stroke="black" d="M574.21,-227.71C666.11,-249.62 906.52,-298.13 1102.92,-261 1137.34,-254.49 1174.17,-239.59 1201.07,-227.08"/>
<polygon fill="black" stroke="black" points="1202.62,-230.22 1210.16,-222.78 1199.62,-223.9 1202.62,-230.22"/>
</g>
<!-- ArgIndels&#45;&gt;IndexRanks -->
<g id="edge18" class="edge">
<title>ArgIndels&#45;&gt;IndexRanks</title>
<path fill="none" stroke="black" d="M557.14,-234.23C565.21,-241.05 574.16,-249.39 581.16,-258 633.79,-322.76 677.66,-411.78 697.83,-455.92"/>
<polygon fill="black" stroke="black" points="694.69,-457.47 702,-465.14 701.07,-454.58 694.69,-457.47"/>
</g>
<!-- ArgIndels&#45;&gt;SigMap -->
<g id="edge19" class="edge">
<title>ArgIndels&#45;&gt;SigMap</title>
<path fill="none" stroke="black" d="M579.85,-213.21C605.03,-210.45 636.67,-206.99 662.41,-204.18"/>
<polygon fill="black" stroke="black" points="663.12,-207.62 672.69,-203.05 662.36,-200.66 663.12,-207.62"/>
</g>
<!-- IndexUsage -->
<g id="node23" class="node">
<title>IndexUsage</title>
<ellipse fill="none" stroke="black" cx="367.72" cy="-218" rx="52.79" ry="18"/>
<text text-anchor="middle" x="367.72" y="-214.3" font-family="Times,serif" font-size="14.00">IndexUsage</text>
</g>
<!-- IndexUsage&#45;&gt;ObservedValue(shapes) -->
<g id="edge24" class="edge">
<title>IndexUsage&#45;&gt;ObservedValue(shapes)</title>
<path fill="none" stroke="black" d="M412.06,-208.09C434.89,-202.91 463.38,-196.52 488.87,-191 537.88,-180.39 593.11,-168.89 636.09,-160.04"/>
<polygon fill="black" stroke="black" points="636.81,-163.46 645.9,-158.02 635.4,-156.61 636.81,-163.46"/>
</g>
<!-- IndexUsage&#45;&gt;IndexRanks -->
<g id="edge22" class="edge">
<title>IndexUsage&#45;&gt;IndexRanks</title>
<path fill="none" stroke="black" d="M411.77,-227.88C425.45,-232.03 440.28,-237.65 452.87,-245 554.34,-304.3 649.04,-409.76 689.34,-457.85"/>
<polygon fill="black" stroke="black" points="686.69,-460.14 695.78,-465.6 692.08,-455.67 686.69,-460.14"/>
</g>
<!-- IndexUsage&#45;&gt;ArgIndels -->
<g id="edge23" class="edge">
<title>IndexUsage&#45;&gt;ArgIndels</title>
<path fill="none" stroke="black" d="M420.57,-218C439.02,-218 459.86,-218 478.6,-218"/>
<polygon fill="black" stroke="black" points="478.77,-221.5 488.77,-218 478.77,-214.5 478.77,-221.5"/>
</g>
<!-- IndexConstraints -->
<g id="node24" class="node">
<title>IndexConstraints</title>
<ellipse fill="none" stroke="black" cx="175.74" cy="-268" rx="70.69" ry="18"/>
<text text-anchor="middle" x="175.74" y="-264.3" font-family="Times,serif" font-size="14.00">IndexConstraints</text>
</g>
<!-- IndexConstraints&#45;&gt;ObservedValue(args) -->
<g id="edge26" class="edge">
<title>IndexConstraints&#45;&gt;ObservedValue(args)</title>
<path fill="none" stroke="black" d="M246.4,-269.47C255.02,-269.65 263.94,-269.84 272.84,-270.02"/>
<polygon fill="black" stroke="black" points="272.8,-273.52 282.87,-270.23 272.95,-266.52 272.8,-273.52"/>
</g>
<!-- IndexConstraints&#45;&gt;IndexUsage -->
<g id="edge25" class="edge">
<title>IndexConstraints&#45;&gt;IndexUsage</title>
<path fill="none" stroke="black" d="M225.66,-255.12C253.18,-247.88 287.5,-238.85 315.4,-231.51"/>
<polygon fill="black" stroke="black" points="316.58,-234.82 325.36,-228.89 314.8,-228.05 316.58,-234.82"/>
</g>
<!-- Report -->
<g id="node25" class="node">
<title>Report</title>
<ellipse fill="none" stroke="black" cx="34.45" cy="-322" rx="34.39" ry="18"/>
<text text-anchor="middle" x="34.45" y="-318.3" font-family="Times,serif" font-size="14.00">Report</text>
</g>
<!-- Report&#45;&gt;DTypes -->
<g id="edge27" class="edge">
<title>Report&#45;&gt;DTypes</title>
<path fill="none" stroke="black" d="M61.92,-333.06C74.77,-338.23 90.51,-344.28 104.89,-349 182.61,-374.52 202.76,-379.11 282.58,-397 353.83,-412.97 437.44,-427.01 488.04,-435"/>
<polygon fill="black" stroke="black" points="487.59,-438.47 498.01,-436.56 488.67,-431.56 487.59,-438.47"/>
</g>
<!-- Report&#45;&gt;IndexConstraints -->
<g id="edge28" class="edge">
<title>Report&#45;&gt;IndexConstraints</title>
<path fill="none" stroke="black" d="M62.49,-311.47C75.33,-306.48 90.9,-300.42 104.89,-295 111.81,-292.32 119.11,-289.49 126.29,-286.72"/>
<polygon fill="black" stroke="black" points="127.88,-289.85 135.94,-282.98 125.35,-283.32 127.88,-289.85"/>
</g>
<!-- DataFormat -->
<g id="node26" class="node">
<title>DataFormat</title>
<ellipse fill="none" stroke="black" cx="175.74" cy="-322" rx="53.09" ry="18"/>
<text text-anchor="middle" x="175.74" y="-318.3" font-family="Times,serif" font-size="14.00">DataFormat</text>
</g>
<!-- Report&#45;&gt;DataFormat -->
<g id="edge29" class="edge">
<title>Report&#45;&gt;DataFormat</title>
<path fill="none" stroke="blue" d="M69.17,-322C82.12,-322 97.35,-322 112.16,-322"/>
<polygon fill="blue" stroke="blue" points="112.31,-325.5 122.31,-322 112.31,-318.5 112.31,-325.5"/>
</g>
<!-- DataFormat&#45;&gt;ObservedValue(args) -->
<g id="edge42" class="edge">
<title>DataFormat&#45;&gt;ObservedValue(args)</title>
<path fill="none" stroke="black" d="M218.43,-311.03C243.44,-304.44 275.75,-295.94 303.82,-288.56"/>
<polygon fill="black" stroke="black" points="304.77,-291.92 313.55,-285.99 302.99,-285.15 304.77,-291.92"/>
</g>
<!-- DataFormat&#45;&gt;Layout(layout) -->
<g id="edge41" class="edge">
<title>DataFormat&#45;&gt;Layout(layout)</title>
<path fill="none" stroke="black" d="M229.1,-321.05C298.73,-319.86 425.61,-318 534.01,-318 534.01,-318 534.01,-318 711.75,-318 886.38,-318 935.77,-331.56 1102.92,-281 1141.19,-269.42 1181.02,-246.66 1207.94,-229.42"/>
<polygon fill="black" stroke="black" points="1210.08,-232.2 1216.55,-223.81 1206.26,-226.34 1210.08,-232.2"/>
</g>
<!-- DataFormat&#45;&gt;IndexRanks -->
<g id="edge40" class="edge">
<title>DataFormat&#45;&gt;IndexRanks</title>
<path fill="none" stroke="black" d="M225.23,-328.96C302.35,-340.95 456.92,-368.77 581.16,-415 614.68,-427.47 650.46,-446.95 675.75,-461.87"/>
<polygon fill="black" stroke="black" points="674.18,-465.02 684.56,-467.14 677.77,-459.01 674.18,-465.02"/>
</g>
</g>
</svg>
