<?xml version="1.0" encoding="UTF-8" standalone="no"?>
<!DOCTYPE svg PUBLIC "-//W3C//DTD SVG 1.1//EN"
 "http://www.w3.org/Graphics/SVG/1.1/DTD/svg11.dtd">
<!-- Generated by graphviz version 2.43.0 (0)
 -->
<!-- Title: %3 Pages: 1 -->
<svg width="404pt" height="152pt"
 viewBox="0.00 0.00 404.07 152.00" xmlns="http://www.w3.org/2000/svg" xmlns:xlink="http://www.w3.org/1999/xlink">
<g id="graph0" class="graph" transform="scale(1 1) rotate(0) translate(4 148)">
<title>%3</title>
<polygon fill="white" stroke="transparent" points="-4,4 -4,-148 400.07,-148 400.07,4 -4,4"/>
<!-- DimsInput(_index_ranks) -->
<g id="node1" class="node">
<title>DimsInput(_index_ranks)</title>
<ellipse fill="none" stroke="black" cx="294.03" cy="-72" rx="102.08" ry="18"/>
<text text-anchor="middle" x="294.03" y="-68.3" font-family="Times,serif" font-size="14.00">DimsInput(_index_ranks)</text>
</g>
<!-- GenDims(batch) -->
<g id="node2" class="node">
<title>GenDims(batch)</title>
<ellipse fill="none" stroke="black" cx="77.99" cy="-126" rx="69.59" ry="18"/>
<text text-anchor="middle" x="77.99" y="-122.3" font-family="Times,serif" font-size="14.00">GenDims(batch)</text>
</g>
<!-- GenDims(batch)&#45;&gt;DimsInput(_index_ranks) -->
<g id="edge1" class="edge">
<title>GenDims(batch)&#45;&gt;DimsInput(_index_ranks)</title>
<path fill="none" stroke="black" d="M128.37,-113.54C157,-106.32 193.47,-97.12 224.81,-89.21"/>
<polygon fill="black" stroke="black" points="225.95,-92.53 234.79,-86.69 224.24,-85.75 225.95,-92.53"/>
</g>
<!-- GenDims(spatial) -->
<g id="node3" class="node">
<title>GenDims(spatial)</title>
<ellipse fill="none" stroke="black" cx="77.99" cy="-72" rx="73.39" ry="18"/>
<text text-anchor="middle" x="77.99" y="-68.3" font-family="Times,serif" font-size="14.00">GenDims(spatial)</text>
</g>
<!-- GenDims(spatial)&#45;&gt;DimsInput(_index_ranks) -->
<g id="edge2" class="edge">
<title>GenDims(spatial)&#45;&gt;DimsInput(_index_ranks)</title>
<path fill="none" stroke="black" d="M151.46,-72C161.19,-72 171.35,-72 181.56,-72"/>
<polygon fill="black" stroke="black" points="181.78,-75.5 191.78,-72 181.78,-68.5 181.78,-75.5"/>
</g>
<!-- GenDims(channel) -->
<g id="node4" class="node">
<title>GenDims(channel)</title>
<ellipse fill="none" stroke="black" cx="77.99" cy="-18" rx="77.99" ry="18"/>
<text text-anchor="middle" x="77.99" y="-14.3" font-family="Times,serif" font-size="14.00">GenDims(channel)</text>
</g>
<!-- GenDims(channel)&#45;&gt;DimsInput(_index_ranks) -->
<g id="edge3" class="edge">
<title>GenDims(channel)&#45;&gt;DimsInput(_index_ranks)</title>
<path fill="none" stroke="black" d="M131.35,-31.21C159.48,-38.31 194.5,-47.14 224.75,-54.77"/>
<polygon fill="black" stroke="black" points="224.25,-58.26 234.81,-57.31 225.97,-51.47 224.25,-58.26"/>
</g>
</g>
</svg>
