<?xml version="1.0" encoding="UTF-8" standalone="no"?>
<!DOCTYPE svg PUBLIC "-//W3C//DTD SVG 1.1//EN"
 "http://www.w3.org/Graphics/SVG/1.1/DTD/svg11.dtd">
<!-- Generated by graphviz version 2.43.0 (0)
 -->
<!-- Title: %3 Pages: 1 -->
<svg width="1517pt" height="637pt"
 viewBox="0.00 0.00 1516.99 636.92" xmlns="http://www.w3.org/2000/svg" xmlns:xlink="http://www.w3.org/1999/xlink">
<g id="graph0" class="graph" transform="scale(1 1) rotate(0) translate(4 632.92)">
<title>%3</title>
<polygon fill="white" stroke="transparent" points="-4,4 -4,-632.92 1512.99,-632.92 1512.99,4 -4,4"/>
<!-- Layout(layout) -->
<g id="node1" class="node">
<title>Layout(layout)</title>
<ellipse fill="none" stroke="black" cx="1406.3" cy="-102.92" rx="63.89" ry="18"/>
<text text-anchor="middle" x="1406.3" y="-99.22" font-family="Times,serif" font-size="14.00">Layout(layout)</text>
</g>
<!-- IndexRanks -->
<g id="node2" class="node">
<title>IndexRanks</title>
<ellipse fill="none" stroke="black" cx="900.79" cy="-372.92" rx="52.79" ry="18"/>
<text text-anchor="middle" x="900.79" y="-369.22" font-family="Times,serif" font-size="14.00">IndexRanks</text>
</g>
<!-- RankRange(batch) -->
<g id="node3" class="node">
<title>RankRange(batch)</title>
<ellipse fill="none" stroke="black" cx="1140.87" cy="-372.92" rx="76.89" ry="18"/>
<text text-anchor="middle" x="1140.87" y="-369.22" font-family="Times,serif" font-size="14.00">RankRange(batch)</text>
</g>
<!-- IndexRanks&#45;&gt;RankRange(batch) -->
<g id="edge1" class="edge">
<title>IndexRanks&#45;&gt;RankRange(batch)</title>
<path fill="none" stroke="purple" d="M953.45,-372.92C982.7,-372.92 1020.04,-372.92 1053.61,-372.92"/>
<polygon fill="purple" stroke="purple" points="1053.89,-376.42 1063.89,-372.92 1053.89,-369.42 1053.89,-376.42"/>
</g>
<!-- RankRange(input_spatial) -->
<g id="node4" class="node">
<title>RankRange(input_spatial)</title>
<ellipse fill="none" stroke="black" cx="1406.3" cy="-568.92" rx="102.88" ry="18"/>
<text text-anchor="middle" x="1406.3" y="-565.22" font-family="Times,serif" font-size="14.00">RankRange(input_spatial)</text>
</g>
<!-- IndexRanks&#45;&gt;RankRange(input_spatial) -->
<g id="edge2" class="edge">
<title>IndexRanks&#45;&gt;RankRange(input_spatial)</title>
<path fill="none" stroke="purple" d="M911.06,-390.93C927.45,-420.73 964.53,-479.8 1014.13,-507.92 1100.08,-556.65 1212.85,-569.89 1295.21,-572.13"/>
<polygon fill="purple" stroke="purple" points="1295.28,-575.63 1305.36,-572.35 1295.44,-568.63 1295.28,-575.63"/>
</g>
<!-- RankRange(block_size) -->
<g id="node5" class="node">
<title>RankRange(block_size)</title>
<ellipse fill="none" stroke="black" cx="1140.87" cy="-318.92" rx="94.78" ry="18"/>
<text text-anchor="middle" x="1140.87" y="-315.22" font-family="Times,serif" font-size="14.00">RankRange(block_size)</text>
</g>
<!-- IndexRanks&#45;&gt;RankRange(block_size) -->
<g id="edge3" class="edge">
<title>IndexRanks&#45;&gt;RankRange(block_size)</title>
<path fill="none" stroke="purple" d="M943.87,-362.55C964.94,-357.42 990.85,-351.22 1014.13,-345.92 1031.05,-342.07 1049.3,-338.07 1066.49,-334.36"/>
<polygon fill="purple" stroke="purple" points="1067.44,-337.74 1076.48,-332.22 1065.97,-330.9 1067.44,-337.74"/>
</g>
<!-- RankRange(input_channel) -->
<g id="node6" class="node">
<title>RankRange(input_channel)</title>
<ellipse fill="none" stroke="black" cx="1140.87" cy="-264.92" rx="107.48" ry="18"/>
<text text-anchor="middle" x="1140.87" y="-261.22" font-family="Times,serif" font-size="14.00">RankRange(input_channel)</text>
</g>
<!-- IndexRanks&#45;&gt;RankRange(input_channel) -->
<g id="edge4" class="edge">
<title>IndexRanks&#45;&gt;RankRange(input_channel)</title>
<path fill="none" stroke="purple" d="M920.15,-355.94C941.24,-337.37 977.65,-308.13 1014.13,-291.92 1025.48,-286.88 1037.83,-282.75 1050.22,-279.38"/>
<polygon fill="purple" stroke="purple" points="1051.33,-282.71 1060.14,-276.84 1049.59,-275.93 1051.33,-282.71"/>
</g>
<!-- RankRange(const_dim_4) -->
<g id="node7" class="node">
<title>RankRange(const_dim_4)</title>
<ellipse fill="none" stroke="black" cx="1140.87" cy="-210.92" rx="103.18" ry="18"/>
<text text-anchor="middle" x="1140.87" y="-207.22" font-family="Times,serif" font-size="14.00">RankRange(const_dim_4)</text>
</g>
<!-- IndexRanks&#45;&gt;RankRange(const_dim_4) -->
<g id="edge5" class="edge">
<title>IndexRanks&#45;&gt;RankRange(const_dim_4)</title>
<path fill="none" stroke="purple" d="M911.24,-355.22C927.89,-325.87 965.35,-267.44 1014.13,-237.92 1023.73,-232.11 1034.41,-227.54 1045.38,-223.95"/>
<polygon fill="purple" stroke="purple" points="1046.5,-227.27 1055.07,-221.04 1044.48,-220.56 1046.5,-227.27"/>
</g>
<!-- RankRange(squared_block_size) -->
<g id="node8" class="node">
<title>RankRange(squared_block_size)</title>
<ellipse fill="none" stroke="black" cx="1140.87" cy="-480.92" rx="126.98" ry="18"/>
<text text-anchor="middle" x="1140.87" y="-477.22" font-family="Times,serif" font-size="14.00">RankRange(squared_block_size)</text>
</g>
<!-- IndexRanks&#45;&gt;RankRange(squared_block_size) -->
<g id="edge6" class="edge">
<title>IndexRanks&#45;&gt;RankRange(squared_block_size)</title>
<path fill="none" stroke="purple" d="M920.15,-389.91C941.24,-408.47 977.65,-437.72 1014.13,-453.92 1023.89,-458.26 1034.4,-461.92 1045.03,-465"/>
<polygon fill="purple" stroke="purple" points="1044.24,-468.42 1054.81,-467.67 1046.09,-461.66 1044.24,-468.42"/>
</g>
<!-- RankEquiv(output_spatial) -->
<g id="node9" class="node">
<title>RankEquiv(output_spatial)</title>
<ellipse fill="none" stroke="black" cx="1140.87" cy="-610.92" rx="105.88" ry="18"/>
<text text-anchor="middle" x="1140.87" y="-607.22" font-family="Times,serif" font-size="14.00">RankEquiv(output_spatial)</text>
</g>
<!-- IndexRanks&#45;&gt;RankEquiv(output_spatial) -->
<g id="edge7" class="edge">
<title>IndexRanks&#45;&gt;RankEquiv(output_spatial)</title>
<path fill="none" stroke="purple" d="M910.18,-390.87C926.37,-423.97 964.72,-495.38 1014.13,-540.92 1036.2,-561.27 1065.25,-577.93 1089.87,-589.89"/>
<polygon fill="purple" stroke="purple" points="1088.53,-593.13 1099.06,-594.24 1091.52,-586.8 1088.53,-593.13"/>
</g>
<!-- RankRange(output_flattened) -->
<g id="node10" class="node">
<title>RankRange(output_flattened)</title>
<ellipse fill="none" stroke="black" cx="1140.87" cy="-426.92" rx="115.08" ry="18"/>
<text text-anchor="middle" x="1140.87" y="-423.22" font-family="Times,serif" font-size="14.00">RankRange(output_flattened)</text>
</g>
<!-- IndexRanks&#45;&gt;RankRange(output_flattened) -->
<g id="edge8" class="edge">
<title>IndexRanks&#45;&gt;RankRange(output_flattened)</title>
<path fill="none" stroke="purple" d="M943.87,-383.29C964.94,-388.42 990.85,-394.63 1014.13,-399.92 1029.31,-403.38 1045.55,-406.95 1061.14,-410.32"/>
<polygon fill="purple" stroke="purple" points="1060.77,-413.82 1071.28,-412.51 1062.24,-406.98 1060.77,-413.82"/>
</g>
<!-- RankEquiv(output_spatial)&#45;&gt;RankRange(input_spatial) -->
<g id="edge24" class="edge">
<title>RankEquiv(output_spatial)&#45;&gt;RankRange(input_spatial)</title>
<path fill="none" stroke="black" d="M1218.77,-598.66C1250.43,-593.61 1287.22,-587.75 1319.72,-582.57"/>
<polygon fill="black" stroke="black" points="1320.34,-586.01 1329.66,-580.98 1319.24,-579.1 1320.34,-586.01"/>
</g>
<!-- DTypesNotImpl -->
<g id="node11" class="node">
<title>DTypesNotImpl</title>
<ellipse fill="none" stroke="black" cx="685.4" cy="-491.92" rx="68.79" ry="18"/>
<text text-anchor="middle" x="685.4" y="-488.22" font-family="Times,serif" font-size="14.00">DTypesNotImpl</text>
</g>
<!-- DTypesNotImpl&#45;&gt;Layout(layout) -->
<g id="edge10" class="edge">
<title>DTypesNotImpl&#45;&gt;Layout(layout)</title>
<path fill="none" stroke="black" d="M723.82,-506.96C823.24,-544.24 1097.94,-629.44 1267.61,-507.92 1392.77,-418.28 1405.51,-208.24 1405.83,-131.58"/>
<polygon fill="black" stroke="black" points="1409.33,-131.25 1405.8,-121.26 1402.33,-131.28 1409.33,-131.25"/>
</g>
<!-- DTypesNotImpl&#45;&gt;IndexRanks -->
<g id="edge9" class="edge">
<title>DTypesNotImpl&#45;&gt;IndexRanks</title>
<path fill="none" stroke="black" d="M715.62,-475.62C754.12,-454.16 821.81,-416.41 863.52,-393.14"/>
<polygon fill="black" stroke="black" points="865.24,-396.2 872.27,-388.27 861.83,-390.08 865.24,-396.2"/>
</g>
<!-- DTypeIndiv(input) -->
<g id="node12" class="node">
<title>DTypeIndiv(input)</title>
<ellipse fill="none" stroke="black" cx="900.79" cy="-610.92" rx="77.19" ry="18"/>
<text text-anchor="middle" x="900.79" y="-607.22" font-family="Times,serif" font-size="14.00">DTypeIndiv(input)</text>
</g>
<!-- DTypesNotImpl&#45;&gt;DTypeIndiv(input) -->
<g id="edge11" class="edge">
<title>DTypesNotImpl&#45;&gt;DTypeIndiv(input)</title>
<path fill="none" stroke="purple" d="M710.42,-508.93C737.21,-527.48 782.23,-557.4 823.44,-578.92 831.95,-583.37 841.22,-587.67 850.27,-591.6"/>
<polygon fill="purple" stroke="purple" points="849.01,-594.87 859.58,-595.56 851.74,-588.43 849.01,-594.87"/>
</g>
<!-- SigMap -->
<g id="node13" class="node">
<title>SigMap</title>
<ellipse fill="none" stroke="black" cx="900.79" cy="-156.92" rx="38.99" ry="18"/>
<text text-anchor="middle" x="900.79" y="-153.22" font-family="Times,serif" font-size="14.00">SigMap</text>
</g>
<!-- Sig(input) -->
<g id="node14" class="node">
<title>Sig(input)</title>
<ellipse fill="none" stroke="black" cx="1140.87" cy="-48.92" rx="46.29" ry="18"/>
<text text-anchor="middle" x="1140.87" y="-45.22" font-family="Times,serif" font-size="14.00">Sig(input)</text>
</g>
<!-- SigMap&#45;&gt;Sig(input) -->
<g id="edge12" class="edge">
<title>SigMap&#45;&gt;Sig(input)</title>
<path fill="none" stroke="purple" d="M919.03,-140.93C939.93,-122.44 976.99,-92.42 1014.13,-75.92 1036.79,-65.85 1063.46,-59.44 1086.39,-55.4"/>
<polygon fill="purple" stroke="purple" points="1087,-58.85 1096.29,-53.76 1085.86,-51.94 1087,-58.85"/>
</g>
<!-- Sig(block_size) -->
<g id="node15" class="node">
<title>Sig(block_size)</title>
<ellipse fill="none" stroke="black" cx="1140.87" cy="-156.92" rx="65.79" ry="18"/>
<text text-anchor="middle" x="1140.87" y="-153.22" font-family="Times,serif" font-size="14.00">Sig(block_size)</text>
</g>
<!-- SigMap&#45;&gt;Sig(block_size) -->
<g id="edge13" class="edge">
<title>SigMap&#45;&gt;Sig(block_size)</title>
<path fill="none" stroke="purple" d="M940.04,-156.92C973.55,-156.92 1023.25,-156.92 1064.69,-156.92"/>
<polygon fill="purple" stroke="purple" points="1064.76,-160.42 1074.76,-156.92 1064.76,-153.42 1064.76,-160.42"/>
</g>
<!-- Sig(return[0]) -->
<g id="node16" class="node">
<title>Sig(return[0])</title>
<ellipse fill="none" stroke="black" cx="1140.87" cy="-102.92" rx="59.59" ry="18"/>
<text text-anchor="middle" x="1140.87" y="-99.22" font-family="Times,serif" font-size="14.00">Sig(return[0])</text>
</g>
<!-- SigMap&#45;&gt;Sig(return[0]) -->
<g id="edge14" class="edge">
<title>SigMap&#45;&gt;Sig(return[0])</title>
<path fill="none" stroke="purple" d="M935.66,-148.55C957.93,-143.11 987.72,-135.93 1014.13,-129.92 1036.02,-124.94 1060.12,-119.71 1081.31,-115.19"/>
<polygon fill="purple" stroke="purple" points="1082.09,-118.6 1091.14,-113.1 1080.63,-111.75 1082.09,-118.6"/>
</g>
<!-- Sig(input)&#45;&gt;Layout(layout) -->
<g id="edge29" class="edge">
<title>Sig(input)&#45;&gt;Layout(layout)</title>
<path fill="none" stroke="black" d="M1182.16,-57.18C1225.31,-66.03 1294.29,-80.17 1344.14,-90.38"/>
<polygon fill="black" stroke="black" points="1343.66,-93.86 1354.15,-92.44 1345.06,-87 1343.66,-93.86"/>
</g>
<!-- Sig(block_size)&#45;&gt;Layout(layout) -->
<g id="edge31" class="edge">
<title>Sig(block_size)&#45;&gt;Layout(layout)</title>
<path fill="none" stroke="black" d="M1193.91,-146.25C1237.13,-137.39 1298.67,-124.78 1344.21,-115.44"/>
<polygon fill="black" stroke="black" points="1345.16,-118.82 1354.26,-113.38 1343.76,-111.96 1345.16,-118.82"/>
</g>
<!-- Sig(return[0])&#45;&gt;Layout(layout) -->
<g id="edge32" class="edge">
<title>Sig(return[0])&#45;&gt;Layout(layout)</title>
<path fill="none" stroke="black" d="M1200.99,-102.92C1239.81,-102.92 1290.86,-102.92 1332.22,-102.92"/>
<polygon fill="black" stroke="black" points="1332.24,-106.42 1342.24,-102.92 1332.24,-99.42 1332.24,-106.42"/>
</g>
<!-- ArgRanks -->
<g id="node17" class="node">
<title>ArgRanks</title>
<ellipse fill="none" stroke="black" cx="685.4" cy="-326.92" rx="46.29" ry="18"/>
<text text-anchor="middle" x="685.4" y="-323.22" font-family="Times,serif" font-size="14.00">ArgRanks</text>
</g>
<!-- ArgRanks&#45;&gt;IndexRanks -->
<g id="edge15" class="edge">
<title>ArgRanks&#45;&gt;IndexRanks</title>
<path fill="none" stroke="black" d="M726.04,-335.47C759.75,-342.73 808.48,-353.24 845.76,-361.28"/>
<polygon fill="black" stroke="black" points="845.44,-364.79 855.95,-363.47 846.91,-357.94 845.44,-364.79"/>
</g>
<!-- ArgRanks&#45;&gt;SigMap -->
<g id="edge16" class="edge">
<title>ArgRanks&#45;&gt;SigMap</title>
<path fill="none" stroke="black" d="M727.67,-319.57C747,-314.75 769.64,-307.03 787.44,-294.92 830.74,-265.48 865.94,-214.55 884.8,-183.47"/>
<polygon fill="black" stroke="black" points="888.02,-184.9 890.11,-174.51 882,-181.33 888.02,-184.9"/>
</g>
<!-- ArgIndels -->
<g id="node18" class="node">
<title>ArgIndels</title>
<ellipse fill="none" stroke="black" cx="501.22" cy="-326.92" rx="46.29" ry="18"/>
<text text-anchor="middle" x="501.22" y="-323.22" font-family="Times,serif" font-size="14.00">ArgIndels</text>
</g>
<!-- ArgIndels&#45;&gt;ArgRanks -->
<g id="edge17" class="edge">
<title>ArgIndels&#45;&gt;ArgRanks</title>
<path fill="none" stroke="black" d="M547.72,-326.92C572.38,-326.92 603.04,-326.92 629.07,-326.92"/>
<polygon fill="black" stroke="black" points="629.16,-330.42 639.16,-326.92 629.16,-323.42 629.16,-330.42"/>
</g>
<!-- ArgMutations -->
<g id="node19" class="node">
<title>ArgMutations</title>
<ellipse fill="none" stroke="black" cx="358.62" cy="-326.92" rx="60.39" ry="18"/>
<text text-anchor="middle" x="358.62" y="-323.22" font-family="Times,serif" font-size="14.00">ArgMutations</text>
</g>
<!-- ArgMutations&#45;&gt;IndexRanks -->
<g id="edge19" class="edge">
<title>ArgMutations&#45;&gt;IndexRanks</title>
<path fill="none" stroke="black" d="M399.1,-340.32C416.11,-345.51 436.37,-350.92 455.07,-353.92 590.35,-375.64 751.55,-376.39 837.88,-374.8"/>
<polygon fill="black" stroke="black" points="838.11,-378.29 848.04,-374.59 837.97,-371.29 838.11,-378.29"/>
</g>
<!-- ArgMutations&#45;&gt;SigMap -->
<g id="edge20" class="edge">
<title>ArgMutations&#45;&gt;SigMap</title>
<path fill="none" stroke="black" d="M400.61,-313.75C417.35,-308.79 436.99,-303.49 455.07,-299.92 600.94,-271.15 652.46,-324.27 787.44,-261.92 826.64,-243.82 861.14,-206.68 881.24,-181.79"/>
<polygon fill="black" stroke="black" points="884.05,-183.88 887.5,-173.86 878.56,-179.55 884.05,-183.88"/>
</g>
<!-- ArgMutations&#45;&gt;ArgIndels -->
<g id="edge18" class="edge">
<title>ArgMutations&#45;&gt;ArgIndels</title>
<path fill="none" stroke="black" d="M419.25,-326.92C427.76,-326.92 436.49,-326.92 444.91,-326.92"/>
<polygon fill="black" stroke="black" points="445.01,-330.42 455.01,-326.92 445.01,-323.42 445.01,-330.42"/>
</g>
<!-- Args -->
<g id="node20" class="node">
<title>Args</title>
<ellipse fill="none" stroke="black" cx="27.95" cy="-303.92" rx="27.9" ry="18"/>
<text text-anchor="middle" x="27.95" y="-300.22" font-family="Times,serif" font-size="14.00">Args</text>
</g>
<!-- DataFormat(data_format) -->
<g id="node21" class="node">
<title>DataFormat(data_format)</title>
<ellipse fill="none" stroke="red" cx="685.4" cy="-234.92" rx="102.08" ry="18"/>
<text text-anchor="middle" x="685.4" y="-231.22" font-family="Times,serif" font-size="14.00">DataFormat(data_format)</text>
</g>
<!-- Args&#45;&gt;DataFormat(data_format) -->
<g id="edge21" class="edge">
<title>Args&#45;&gt;DataFormat(data_format)</title>
<path fill="none" stroke="purple" d="M50.18,-292.7C62.1,-286.95 77.45,-280.43 91.9,-276.92 256.59,-236.97 454,-231 574.25,-231.85"/>
<polygon fill="purple" stroke="purple" points="574.54,-235.36 584.57,-231.94 574.6,-228.36 574.54,-235.36"/>
</g>
<!-- DataTensor(input) -->
<g id="node22" class="node">
<title>DataTensor(input)</title>
<ellipse fill="none" stroke="red" cx="177.04" cy="-357.92" rx="75.29" ry="18"/>
<text text-anchor="middle" x="177.04" y="-354.22" font-family="Times,serif" font-size="14.00">DataTensor(input)</text>
</g>
<!-- Args&#45;&gt;DataTensor(input) -->
<g id="edge22" class="edge">
<title>Args&#45;&gt;DataTensor(input)</title>
<path fill="none" stroke="purple" d="M51.17,-314.06C63.13,-319.37 78.2,-325.8 91.9,-330.92 100.85,-334.27 110.44,-337.59 119.81,-340.7"/>
<polygon fill="purple" stroke="purple" points="118.88,-344.07 129.47,-343.85 121.05,-337.42 118.88,-344.07"/>
</g>
<!-- ShapeInt(block_size) -->
<g id="node23" class="node">
<title>ShapeInt(block_size)</title>
<ellipse fill="none" stroke="red" cx="177.04" cy="-303.92" rx="85.29" ry="18"/>
<text text-anchor="middle" x="177.04" y="-300.22" font-family="Times,serif" font-size="14.00">ShapeInt(block_size)</text>
</g>
<!-- Args&#45;&gt;ShapeInt(block_size) -->
<g id="edge23" class="edge">
<title>Args&#45;&gt;ShapeInt(block_size)</title>
<path fill="none" stroke="purple" d="M55.93,-303.92C63.54,-303.92 72.28,-303.92 81.51,-303.92"/>
<polygon fill="purple" stroke="purple" points="81.68,-307.42 91.68,-303.92 81.68,-300.42 81.68,-307.42"/>
</g>
<!-- DataFormat(data_format)&#45;&gt;Layout(layout) -->
<g id="edge26" class="edge">
<title>DataFormat(data_format)&#45;&gt;Layout(layout)</title>
<path fill="none" stroke="black" d="M704.22,-217.15C750.38,-172.63 879.61,-57.37 1014.13,-21.92 1123.07,6.79 1158.91,7.68 1267.61,-21.92 1308.66,-33.1 1349.95,-59.97 1376.46,-79.7"/>
<polygon fill="black" stroke="black" points="1374.44,-82.57 1384.52,-85.83 1378.68,-77 1374.44,-82.57"/>
</g>
<!-- DataFormat(data_format)&#45;&gt;IndexRanks -->
<g id="edge25" class="edge">
<title>DataFormat(data_format)&#45;&gt;IndexRanks</title>
<path fill="none" stroke="black" d="M713.44,-252.27C733.8,-265.34 762.4,-283.73 787.44,-299.92 814.17,-317.2 844.42,-336.87 866.8,-351.43"/>
<polygon fill="black" stroke="black" points="864.97,-354.42 875.26,-356.94 868.79,-348.55 864.97,-354.42"/>
</g>
<!-- DataTensor(input)&#45;&gt;DTypesNotImpl -->
<g id="edge28" class="edge">
<title>DataTensor(input)&#45;&gt;DTypesNotImpl</title>
<path fill="none" stroke="black" d="M228.44,-371.26C323,-396.28 526.48,-450.13 626.5,-476.6"/>
<polygon fill="black" stroke="black" points="625.87,-480.05 636.43,-479.23 627.66,-473.28 625.87,-480.05"/>
</g>
<!-- DataTensor(input)&#45;&gt;ArgMutations -->
<g id="edge27" class="edge">
<title>DataTensor(input)&#45;&gt;ArgMutations</title>
<path fill="none" stroke="black" d="M238.84,-347.43C257.21,-344.25 277.4,-340.77 295.84,-337.59"/>
<polygon fill="black" stroke="black" points="296.62,-341 305.88,-335.85 295.43,-334.11 296.62,-341"/>
</g>
<!-- ShapeInt(block_size)&#45;&gt;ArgMutations -->
<g id="edge30" class="edge">
<title>ShapeInt(block_size)&#45;&gt;ArgMutations</title>
<path fill="none" stroke="black" d="M250.31,-313.18C264.29,-314.97 278.86,-316.83 292.59,-318.59"/>
<polygon fill="black" stroke="black" points="292.54,-322.11 302.9,-319.91 293.43,-315.17 292.54,-322.11"/>
</g>
</g>
</svg>
