<?xml version="1.0" encoding="UTF-8" standalone="no"?>
<!DOCTYPE svg PUBLIC "-//W3C//DTD SVG 1.1//EN"
 "http://www.w3.org/Graphics/SVG/1.1/DTD/svg11.dtd">
<!-- Generated by graphviz version 2.43.0 (0)
 -->
<!-- Title: %3 Pages: 1 -->
<svg width="1591pt" height="806pt"
 viewBox="0.00 0.00 1591.08 806.00" xmlns="http://www.w3.org/2000/svg" xmlns:xlink="http://www.w3.org/1999/xlink">
<g id="graph0" class="graph" transform="scale(1 1) rotate(0) translate(4 802)">
<title>%3</title>
<polygon fill="white" stroke="transparent" points="-4,4 -4,-802 1587.08,-802 1587.08,4 -4,4"/>
<!-- Layout(layout) -->
<g id="node1" class="node">
<title>Layout(layout)</title>
<ellipse fill="none" stroke="black" cx="1480.39" cy="-180" rx="63.89" ry="18"/>
<text text-anchor="middle" x="1480.39" y="-176.3" font-family="Times,serif" font-size="14.00">Layout(layout)</text>
</g>
<!-- IndexRanks -->
<g id="node2" class="node">
<title>IndexRanks</title>
<ellipse fill="none" stroke="black" cx="973.58" cy="-472" rx="52.79" ry="18"/>
<text text-anchor="middle" x="973.58" y="-468.3" font-family="Times,serif" font-size="14.00">IndexRanks</text>
</g>
<!-- RankRange(batch) -->
<g id="node3" class="node">
<title>RankRange(batch)</title>
<ellipse fill="none" stroke="black" cx="1201.96" cy="-672" rx="76.89" ry="18"/>
<text text-anchor="middle" x="1201.96" y="-668.3" font-family="Times,serif" font-size="14.00">RankRange(batch)</text>
</g>
<!-- IndexRanks&#45;&gt;RankRange(batch) -->
<g id="edge1" class="edge">
<title>IndexRanks&#45;&gt;RankRange(batch)</title>
<path fill="none" stroke="purple" d="M978.21,-490.05C986.41,-525.76 1009.84,-605.42 1062.22,-645 1077.65,-656.65 1096.71,-663.69 1115.72,-667.85"/>
<polygon fill="purple" stroke="purple" points="1115.15,-671.3 1125.64,-669.77 1116.49,-664.43 1115.15,-671.3"/>
</g>
<!-- RankRange(input_spatial) -->
<g id="node4" class="node">
<title>RankRange(input_spatial)</title>
<ellipse fill="none" stroke="black" cx="1480.39" cy="-618" rx="102.88" ry="18"/>
<text text-anchor="middle" x="1480.39" y="-614.3" font-family="Times,serif" font-size="14.00">RankRange(input_spatial)</text>
</g>
<!-- IndexRanks&#45;&gt;RankRange(input_spatial) -->
<g id="edge2" class="edge">
<title>IndexRanks&#45;&gt;RankRange(input_spatial)</title>
<path fill="none" stroke="purple" d="M1011.32,-484.79C1026.87,-489.81 1045.28,-495.26 1062.22,-499 1184.64,-525.99 1223.25,-495.97 1341.7,-537 1380.72,-550.52 1420.92,-575.71 1447.74,-594.42"/>
<polygon fill="purple" stroke="purple" points="1445.77,-597.32 1455.96,-600.25 1449.82,-591.61 1445.77,-597.32"/>
</g>
<!-- RankRange(input_channel) -->
<g id="node5" class="node">
<title>RankRange(input_channel)</title>
<ellipse fill="none" stroke="black" cx="1201.96" cy="-472" rx="107.48" ry="18"/>
<text text-anchor="middle" x="1201.96" y="-468.3" font-family="Times,serif" font-size="14.00">RankRange(input_channel)</text>
</g>
<!-- IndexRanks&#45;&gt;RankRange(input_channel) -->
<g id="edge3" class="edge">
<title>IndexRanks&#45;&gt;RankRange(input_channel)</title>
<path fill="none" stroke="purple" d="M1026.23,-472C1043.73,-472 1064.04,-472 1084.5,-472"/>
<polygon fill="purple" stroke="purple" points="1084.54,-475.5 1094.54,-472 1084.54,-468.5 1084.54,-475.5"/>
</g>
<!-- RankEquiv(filter_spatial) -->
<g id="node6" class="node">
<title>RankEquiv(filter_spatial)</title>
<ellipse fill="none" stroke="black" cx="1201.96" cy="-780" rx="100.98" ry="18"/>
<text text-anchor="middle" x="1201.96" y="-776.3" font-family="Times,serif" font-size="14.00">RankEquiv(filter_spatial)</text>
</g>
<!-- IndexRanks&#45;&gt;RankEquiv(filter_spatial) -->
<g id="edge4" class="edge">
<title>IndexRanks&#45;&gt;RankEquiv(filter_spatial)</title>
<path fill="none" stroke="purple" d="M974.31,-490.09C974.63,-540.23 982.85,-681.92 1062.22,-753 1071.67,-761.46 1082.96,-767.61 1094.96,-772.02"/>
<polygon fill="purple" stroke="purple" points="1094.12,-775.43 1104.71,-775.21 1096.3,-768.78 1094.12,-775.43"/>
</g>
<!-- RankEquiv(dilated_filter_spatial) -->
<g id="node7" class="node">
<title>RankEquiv(dilated_filter_spatial)</title>
<ellipse fill="none" stroke="black" cx="1201.96" cy="-726" rx="128.88" ry="18"/>
<text text-anchor="middle" x="1201.96" y="-722.3" font-family="Times,serif" font-size="14.00">RankEquiv(dilated_filter_spatial)</text>
</g>
<!-- IndexRanks&#45;&gt;RankEquiv(dilated_filter_spatial) -->
<g id="edge5" class="edge">
<title>IndexRanks&#45;&gt;RankEquiv(dilated_filter_spatial)</title>
<path fill="none" stroke="purple" d="M975.84,-490.08C979.89,-533.46 996.48,-643.93 1062.22,-699 1068.51,-704.26 1075.51,-708.61 1082.94,-712.2"/>
<polygon fill="purple" stroke="purple" points="1081.99,-715.6 1092.56,-716.34 1084.76,-709.17 1081.99,-715.6"/>
</g>
<!-- RankRange(output_channel) -->
<g id="node8" class="node">
<title>RankRange(output_channel)</title>
<ellipse fill="none" stroke="black" cx="1201.96" cy="-418" rx="111.58" ry="18"/>
<text text-anchor="middle" x="1201.96" y="-414.3" font-family="Times,serif" font-size="14.00">RankRange(output_channel)</text>
</g>
<!-- IndexRanks&#45;&gt;RankRange(output_channel) -->
<g id="edge6" class="edge">
<title>IndexRanks&#45;&gt;RankRange(output_channel)</title>
<path fill="none" stroke="purple" d="M1011.86,-459.55C1027.34,-454.64 1045.54,-449.18 1062.22,-445 1079.24,-440.74 1097.56,-436.75 1115.15,-433.22"/>
<polygon fill="purple" stroke="purple" points="1116.26,-436.56 1125.4,-431.19 1114.91,-429.7 1116.26,-436.56"/>
</g>
<!-- RankEquiv(output_spatial_declared) -->
<g id="node9" class="node">
<title>RankEquiv(output_spatial_declared)</title>
<ellipse fill="none" stroke="black" cx="1201.96" cy="-618" rx="139.98" ry="18"/>
<text text-anchor="middle" x="1201.96" y="-614.3" font-family="Times,serif" font-size="14.00">RankEquiv(output_spatial_declared)</text>
</g>
<!-- IndexRanks&#45;&gt;RankEquiv(output_spatial_declared) -->
<g id="edge7" class="edge">
<title>IndexRanks&#45;&gt;RankEquiv(output_spatial_declared)</title>
<path fill="none" stroke="purple" d="M982.42,-489.82C995.11,-516.42 1022.76,-566.03 1062.22,-591 1069.61,-595.67 1077.62,-599.56 1085.94,-602.81"/>
<polygon fill="purple" stroke="purple" points="1084.86,-606.14 1095.46,-606.2 1087.21,-599.54 1084.86,-606.14"/>
</g>
<!-- RankEquiv(output_spatial) -->
<g id="node10" class="node">
<title>RankEquiv(output_spatial)</title>
<ellipse fill="none" stroke="black" cx="1201.96" cy="-564" rx="105.88" ry="18"/>
<text text-anchor="middle" x="1201.96" y="-560.3" font-family="Times,serif" font-size="14.00">RankEquiv(output_spatial)</text>
</g>
<!-- IndexRanks&#45;&gt;RankEquiv(output_spatial) -->
<g id="edge8" class="edge">
<title>IndexRanks&#45;&gt;RankEquiv(output_spatial)</title>
<path fill="none" stroke="purple" d="M994.19,-488.63C1011.16,-502.2 1036.9,-520.89 1062.22,-532 1078.65,-539.21 1096.91,-544.9 1114.65,-549.36"/>
<polygon fill="purple" stroke="purple" points="1113.89,-552.77 1124.43,-551.71 1115.52,-545.97 1113.89,-552.77"/>
</g>
<!-- RankRange(rate) -->
<g id="node11" class="node">
<title>RankRange(rate)</title>
<ellipse fill="none" stroke="black" cx="1201.96" cy="-364" rx="70.69" ry="18"/>
<text text-anchor="middle" x="1201.96" y="-360.3" font-family="Times,serif" font-size="14.00">RankRange(rate)</text>
</g>
<!-- IndexRanks&#45;&gt;RankRange(rate) -->
<g id="edge9" class="edge">
<title>IndexRanks&#45;&gt;RankRange(rate)</title>
<path fill="none" stroke="purple" d="M988.37,-454.43C1004.14,-435.64 1031.73,-406.46 1062.22,-391 1081.22,-381.37 1103.29,-375.17 1124.15,-371.17"/>
<polygon fill="purple" stroke="purple" points="1125.04,-374.57 1134.28,-369.39 1123.83,-367.68 1125.04,-374.57"/>
</g>
<!-- RankEquiv(filter_spatial)&#45;&gt;RankRange(input_spatial) -->
<g id="edge31" class="edge">
<title>RankEquiv(filter_spatial)&#45;&gt;RankRange(input_spatial)</title>
<path fill="none" stroke="black" d="M1289.98,-771.11C1307.75,-767.11 1325.84,-761.33 1341.7,-753 1392.08,-726.52 1436.28,-675.67 1460.28,-644.5"/>
<polygon fill="black" stroke="black" points="1463.26,-646.35 1466.5,-636.26 1457.68,-642.13 1463.26,-646.35"/>
</g>
<!-- RankEquiv(dilated_filter_spatial)&#45;&gt;RankRange(input_spatial) -->
<g id="edge32" class="edge">
<title>RankEquiv(dilated_filter_spatial)&#45;&gt;RankRange(input_spatial)</title>
<path fill="none" stroke="black" d="M1292.66,-713.18C1309.24,-709.52 1326.21,-704.87 1341.7,-699 1380.08,-684.47 1420.1,-659.67 1447.04,-641.33"/>
<polygon fill="black" stroke="black" points="1449.06,-644.18 1455.3,-635.62 1445.09,-638.42 1449.06,-644.18"/>
</g>
<!-- RankEquiv(output_spatial_declared)&#45;&gt;RankRange(input_spatial) -->
<g id="edge33" class="edge">
<title>RankEquiv(output_spatial_declared)&#45;&gt;RankRange(input_spatial)</title>
<path fill="none" stroke="black" d="M1341.99,-618C1350.49,-618 1359,-618 1367.37,-618"/>
<polygon fill="black" stroke="black" points="1367.5,-621.5 1377.5,-618 1367.5,-614.5 1367.5,-621.5"/>
</g>
<!-- RankEquiv(output_spatial)&#45;&gt;RankRange(input_spatial) -->
<g id="edge34" class="edge">
<title>RankEquiv(output_spatial)&#45;&gt;RankRange(input_spatial)</title>
<path fill="none" stroke="black" d="M1272.48,-577.51C1294.61,-581.81 1319.18,-586.6 1341.7,-591 1360.94,-594.76 1381.69,-598.82 1401.1,-602.63"/>
<polygon fill="black" stroke="black" points="1400.62,-606.1 1411.11,-604.59 1401.97,-599.23 1400.62,-606.1"/>
</g>
<!-- DTypesNotImpl -->
<g id="node12" class="node">
<title>DTypesNotImpl</title>
<ellipse fill="none" stroke="black" cx="415.17" cy="-353" rx="68.79" ry="18"/>
<text text-anchor="middle" x="415.17" y="-349.3" font-family="Times,serif" font-size="14.00">DTypesNotImpl</text>
</g>
<!-- DTypesNotImpl&#45;&gt;Layout(layout) -->
<g id="edge11" class="edge">
<title>DTypesNotImpl&#45;&gt;Layout(layout)</title>
<path fill="none" stroke="black" d="M483.86,-350.82C683.77,-344.05 1262.49,-321.97 1341.7,-291 1388.81,-272.58 1432.31,-231.9 1457.33,-205.24"/>
<polygon fill="black" stroke="black" points="1459.99,-207.52 1464.19,-197.79 1454.84,-202.78 1459.99,-207.52"/>
</g>
<!-- DTypesNotImpl&#45;&gt;IndexRanks -->
<g id="edge10" class="edge">
<title>DTypesNotImpl&#45;&gt;IndexRanks</title>
<path fill="none" stroke="black" d="M479.32,-359.82C570.28,-370.61 742.86,-394.76 884.93,-436 900.87,-440.63 917.86,-447.2 932.6,-453.46"/>
<polygon fill="black" stroke="black" points="931.36,-456.74 941.92,-457.51 934.15,-450.32 931.36,-456.74"/>
</g>
<!-- DTypeIndiv(value) -->
<g id="node13" class="node">
<title>DTypeIndiv(value)</title>
<ellipse fill="none" stroke="black" cx="806.29" cy="-463" rx="78.79" ry="18"/>
<text text-anchor="middle" x="806.29" y="-459.3" font-family="Times,serif" font-size="14.00">DTypeIndiv(value)</text>
</g>
<!-- DTypesNotImpl&#45;&gt;DTypeIndiv(value) -->
<g id="edge12" class="edge">
<title>DTypesNotImpl&#45;&gt;DTypeIndiv(value)</title>
<path fill="none" stroke="purple" d="M440.21,-369.8C460.57,-383.23 491,-401.5 520.06,-412 585.78,-435.74 664.16,-448.74 722.11,-455.65"/>
<polygon fill="purple" stroke="purple" points="721.99,-459.16 732.32,-456.84 722.79,-452.21 721.99,-459.16"/>
</g>
<!-- DTypeEquate(filters) -->
<g id="node14" class="node">
<title>DTypeEquate(filters)</title>
<ellipse fill="none" stroke="black" cx="605.86" cy="-482" rx="85.59" ry="18"/>
<text text-anchor="middle" x="605.86" y="-478.3" font-family="Times,serif" font-size="14.00">DTypeEquate(filters)</text>
</g>
<!-- DTypesNotImpl&#45;&gt;DTypeEquate(filters) -->
<g id="edge13" class="edge">
<title>DTypesNotImpl&#45;&gt;DTypeEquate(filters)</title>
<path fill="none" stroke="purple" d="M431.07,-370.61C449.91,-391.93 484.22,-427.73 520.06,-450 528.2,-455.05 537.26,-459.51 546.34,-463.38"/>
<polygon fill="purple" stroke="purple" points="545.19,-466.69 555.78,-467.18 547.81,-460.2 545.19,-466.69"/>
</g>
<!-- DTypeEquate(filters)&#45;&gt;DTypeIndiv(value) -->
<g id="edge46" class="edge">
<title>DTypeEquate(filters)&#45;&gt;DTypeIndiv(value)</title>
<path fill="none" stroke="black" d="M684.14,-474.6C696.94,-473.37 710.25,-472.1 723.15,-470.86"/>
<polygon fill="black" stroke="black" points="723.78,-474.32 733.4,-469.88 723.12,-467.35 723.78,-474.32"/>
</g>
<!-- SigMap -->
<g id="node15" class="node">
<title>SigMap</title>
<ellipse fill="none" stroke="black" cx="973.58" cy="-176" rx="38.99" ry="18"/>
<text text-anchor="middle" x="973.58" y="-172.3" font-family="Times,serif" font-size="14.00">SigMap</text>
</g>
<!-- Sig(value) -->
<g id="node16" class="node">
<title>Sig(value)</title>
<ellipse fill="none" stroke="black" cx="1201.96" cy="-234" rx="47.39" ry="18"/>
<text text-anchor="middle" x="1201.96" y="-230.3" font-family="Times,serif" font-size="14.00">Sig(value)</text>
</g>
<!-- SigMap&#45;&gt;Sig(value) -->
<g id="edge14" class="edge">
<title>SigMap&#45;&gt;Sig(value)</title>
<path fill="none" stroke="purple" d="M1003.85,-187.58C1020.72,-193.94 1042.45,-201.61 1062.22,-207 1090.13,-214.6 1121.74,-220.93 1147.74,-225.54"/>
<polygon fill="purple" stroke="purple" points="1147.32,-229.02 1157.77,-227.29 1148.52,-222.13 1147.32,-229.02"/>
</g>
<!-- Sig(filters) -->
<g id="node17" class="node">
<title>Sig(filters)</title>
<ellipse fill="none" stroke="black" cx="1201.96" cy="-180" rx="48.99" ry="18"/>
<text text-anchor="middle" x="1201.96" y="-176.3" font-family="Times,serif" font-size="14.00">Sig(filters)</text>
</g>
<!-- SigMap&#45;&gt;Sig(filters) -->
<g id="edge15" class="edge">
<title>SigMap&#45;&gt;Sig(filters)</title>
<path fill="none" stroke="purple" d="M1012.73,-176.67C1048.39,-177.3 1102.14,-178.25 1143.09,-178.98"/>
<polygon fill="purple" stroke="purple" points="1143.14,-182.48 1153.2,-179.16 1143.27,-175.48 1143.14,-182.48"/>
</g>
<!-- Sig(output_shape) -->
<g id="node18" class="node">
<title>Sig(output_shape)</title>
<ellipse fill="none" stroke="black" cx="1201.96" cy="-126" rx="75.29" ry="18"/>
<text text-anchor="middle" x="1201.96" y="-122.3" font-family="Times,serif" font-size="14.00">Sig(output_shape)</text>
</g>
<!-- SigMap&#45;&gt;Sig(output_shape) -->
<g id="edge16" class="edge">
<title>SigMap&#45;&gt;Sig(output_shape)</title>
<path fill="none" stroke="purple" d="M1007.34,-166.87C1023.75,-162.43 1043.97,-157.17 1062.22,-153 1084.63,-147.89 1109.21,-142.9 1131.38,-138.63"/>
<polygon fill="purple" stroke="purple" points="1132.21,-142.04 1141.37,-136.72 1130.9,-135.16 1132.21,-142.04"/>
</g>
<!-- Sig(rate) -->
<g id="node19" class="node">
<title>Sig(rate)</title>
<ellipse fill="none" stroke="black" cx="1201.96" cy="-72" rx="41.69" ry="18"/>
<text text-anchor="middle" x="1201.96" y="-68.3" font-family="Times,serif" font-size="14.00">Sig(rate)</text>
</g>
<!-- SigMap&#45;&gt;Sig(rate) -->
<g id="edge17" class="edge">
<title>SigMap&#45;&gt;Sig(rate)</title>
<path fill="none" stroke="purple" d="M988.56,-159.31C1004.49,-141.46 1032.23,-113.73 1062.22,-99 1089.66,-85.52 1123.26,-78.77 1150.51,-75.39"/>
<polygon fill="purple" stroke="purple" points="1151.07,-78.84 1160.62,-74.25 1150.29,-71.89 1151.07,-78.84"/>
</g>
<!-- Sig(return[0]) -->
<g id="node20" class="node">
<title>Sig(return[0])</title>
<ellipse fill="none" stroke="black" cx="1201.96" cy="-18" rx="59.59" ry="18"/>
<text text-anchor="middle" x="1201.96" y="-14.3" font-family="Times,serif" font-size="14.00">Sig(return[0])</text>
</g>
<!-- SigMap&#45;&gt;Sig(return[0]) -->
<g id="edge18" class="edge">
<title>SigMap&#45;&gt;Sig(return[0])</title>
<path fill="none" stroke="purple" d="M981.15,-158.29C992.78,-129.56 1019.84,-73.18 1062.22,-45 1082.7,-31.39 1108.4,-24.3 1132.09,-20.71"/>
<polygon fill="purple" stroke="purple" points="1132.66,-24.16 1142.11,-19.37 1131.73,-17.22 1132.66,-24.16"/>
</g>
<!-- Sig(value)&#45;&gt;Layout(layout) -->
<g id="edge37" class="edge">
<title>Sig(value)&#45;&gt;Layout(layout)</title>
<path fill="none" stroke="black" d="M1244.55,-225.92C1272.11,-220.57 1309.07,-213.37 1341.7,-207 1366.59,-202.14 1394.02,-196.76 1417.79,-192.1"/>
<polygon fill="black" stroke="black" points="1418.6,-195.51 1427.74,-190.15 1417.25,-188.64 1418.6,-195.51"/>
</g>
<!-- Sig(filters)&#45;&gt;Layout(layout) -->
<g id="edge40" class="edge">
<title>Sig(filters)&#45;&gt;Layout(layout)</title>
<path fill="none" stroke="black" d="M1250.8,-180C1293.64,-180 1357.13,-180 1406.33,-180"/>
<polygon fill="black" stroke="black" points="1406.6,-183.5 1416.6,-180 1406.6,-176.5 1406.6,-183.5"/>
</g>
<!-- Sig(output_shape)&#45;&gt;Layout(layout) -->
<g id="edge42" class="edge">
<title>Sig(output_shape)&#45;&gt;Layout(layout)</title>
<path fill="none" stroke="black" d="M1261.02,-137.28C1285.87,-142.11 1315.21,-147.82 1341.7,-153 1366.59,-157.86 1394.02,-163.24 1417.79,-167.9"/>
<polygon fill="black" stroke="black" points="1417.25,-171.36 1427.74,-169.85 1418.6,-164.49 1417.25,-171.36"/>
</g>
<!-- Sig(rate)&#45;&gt;Layout(layout) -->
<g id="edge44" class="edge">
<title>Sig(rate)&#45;&gt;Layout(layout)</title>
<path fill="none" stroke="black" d="M1242.51,-76.07C1270.82,-79.85 1309.46,-86.79 1341.7,-99 1380.55,-113.71 1421.08,-138.94 1448.02,-157.34"/>
<polygon fill="black" stroke="black" points="1446.05,-160.24 1456.27,-163.05 1450.04,-154.48 1446.05,-160.24"/>
</g>
<!-- Sig(return[0])&#45;&gt;Layout(layout) -->
<g id="edge45" class="edge">
<title>Sig(return[0])&#45;&gt;Layout(layout)</title>
<path fill="none" stroke="black" d="M1260.81,-21.69C1286.72,-25.21 1316.94,-31.99 1341.7,-45 1392.35,-71.62 1436.75,-122.88 1460.66,-154"/>
<polygon fill="black" stroke="black" points="1458.04,-156.33 1466.85,-162.21 1463.63,-152.12 1458.04,-156.33"/>
</g>
<!-- ArgRanks -->
<g id="node21" class="node">
<title>ArgRanks</title>
<ellipse fill="none" stroke="black" cx="806.29" cy="-222" rx="46.29" ry="18"/>
<text text-anchor="middle" x="806.29" y="-218.3" font-family="Times,serif" font-size="14.00">ArgRanks</text>
</g>
<!-- ArgRanks&#45;&gt;IndexRanks -->
<g id="edge19" class="edge">
<title>ArgRanks&#45;&gt;IndexRanks</title>
<path fill="none" stroke="black" d="M848.79,-229.33C861.67,-233.34 875.06,-239.51 884.93,-249 941,-302.88 961.92,-396.98 969.13,-443.83"/>
<polygon fill="black" stroke="black" points="965.68,-444.48 970.57,-453.88 972.61,-443.48 965.68,-444.48"/>
</g>
<!-- ArgRanks&#45;&gt;SigMap -->
<g id="edge20" class="edge">
<title>ArgRanks&#45;&gt;SigMap</title>
<path fill="none" stroke="black" d="M844.39,-211.68C869.79,-204.61 903.54,-195.21 930.04,-187.84"/>
<polygon fill="black" stroke="black" points="931.11,-191.17 939.81,-185.12 929.23,-184.43 931.11,-191.17"/>
</g>
<!-- ArgIndels -->
<g id="node22" class="node">
<title>ArgIndels</title>
<ellipse fill="none" stroke="black" cx="605.86" cy="-224" rx="46.29" ry="18"/>
<text text-anchor="middle" x="605.86" y="-220.3" font-family="Times,serif" font-size="14.00">ArgIndels</text>
</g>
<!-- ArgIndels&#45;&gt;ArgRanks -->
<g id="edge21" class="edge">
<title>ArgIndels&#45;&gt;ArgRanks</title>
<path fill="none" stroke="black" d="M652.38,-223.54C681.37,-223.25 719.11,-222.87 749.85,-222.56"/>
<polygon fill="black" stroke="black" points="750.01,-226.06 759.98,-222.46 749.94,-219.06 750.01,-226.06"/>
</g>
<!-- ArgMutations -->
<g id="node23" class="node">
<title>ArgMutations</title>
<ellipse fill="none" stroke="black" cx="415.17" cy="-226" rx="60.39" ry="18"/>
<text text-anchor="middle" x="415.17" y="-222.3" font-family="Times,serif" font-size="14.00">ArgMutations</text>
</g>
<!-- ArgMutations&#45;&gt;IndexRanks -->
<g id="edge23" class="edge">
<title>ArgMutations&#45;&gt;IndexRanks</title>
<path fill="none" stroke="black" d="M463.62,-236.82C551.24,-258.12 742.47,-310.87 884.93,-395 909.28,-409.38 933.14,-430.98 949.8,-447.64"/>
<polygon fill="black" stroke="black" points="947.43,-450.22 956.93,-454.91 952.43,-445.32 947.43,-450.22"/>
</g>
<!-- ArgMutations&#45;&gt;SigMap -->
<g id="edge24" class="edge">
<title>ArgMutations&#45;&gt;SigMap</title>
<path fill="none" stroke="black" d="M456.16,-212.56C475.27,-206.72 498.62,-200.45 520.06,-197 665.83,-173.58 841.14,-173.22 924.29,-174.69"/>
<polygon fill="black" stroke="black" points="924.37,-178.19 934.44,-174.88 924.51,-171.19 924.37,-178.19"/>
</g>
<!-- ArgMutations&#45;&gt;ArgIndels -->
<g id="edge22" class="edge">
<title>ArgMutations&#45;&gt;ArgIndels</title>
<path fill="none" stroke="black" d="M475.61,-225.37C499.23,-225.12 526.25,-224.83 549.45,-224.59"/>
<polygon fill="black" stroke="black" points="549.52,-228.09 559.48,-224.48 549.44,-221.09 549.52,-228.09"/>
</g>
<!-- Options(padding) -->
<g id="node24" class="node">
<title>Options(padding)</title>
<ellipse fill="none" stroke="red" cx="605.86" cy="-130" rx="72.59" ry="18"/>
<text text-anchor="middle" x="605.86" y="-126.3" font-family="Times,serif" font-size="14.00">Options(padding)</text>
</g>
<!-- ArgMutations&#45;&gt;Options(padding) -->
<g id="edge25" class="edge">
<title>ArgMutations&#45;&gt;Options(padding)</title>
<path fill="none" stroke="purple" d="M440.18,-209.37C460.77,-195.57 491.54,-176.01 520.06,-162 530.33,-156.96 541.61,-152.2 552.49,-147.97"/>
<polygon fill="purple" stroke="purple" points="553.8,-151.21 561.91,-144.39 551.32,-144.67 553.8,-151.21"/>
</g>
<!-- Args -->
<g id="node25" class="node">
<title>Args</title>
<ellipse fill="none" stroke="black" cx="27.95" cy="-230" rx="27.9" ry="18"/>
<text text-anchor="middle" x="27.95" y="-226.3" font-family="Times,serif" font-size="14.00">Args</text>
</g>
<!-- Args&#45;&gt;Options(padding) -->
<g id="edge30" class="edge">
<title>Args&#45;&gt;Options(padding)</title>
<path fill="none" stroke="purple" d="M36.71,-212.7C46.48,-193.27 65.27,-162.65 91.9,-149 238.15,-74.04 439.89,-97.22 541.27,-116.04"/>
<polygon fill="purple" stroke="purple" points="540.88,-119.53 551.35,-117.96 542.18,-112.66 540.88,-119.53"/>
</g>
<!-- DataTensor(value) -->
<g id="node26" class="node">
<title>DataTensor(value)</title>
<ellipse fill="none" stroke="red" cx="201.09" cy="-338" rx="76.89" ry="18"/>
<text text-anchor="middle" x="201.09" y="-334.3" font-family="Times,serif" font-size="14.00">DataTensor(value)</text>
</g>
<!-- Args&#45;&gt;DataTensor(value) -->
<g id="edge26" class="edge">
<title>Args&#45;&gt;DataTensor(value)</title>
<path fill="none" stroke="purple" d="M37.63,-247.01C48.01,-265.6 67.12,-294.86 91.9,-311 101.84,-317.48 113.23,-322.41 124.81,-326.15"/>
<polygon fill="purple" stroke="purple" points="123.96,-329.55 134.54,-329.02 125.94,-322.83 123.96,-329.55"/>
</g>
<!-- DataTensor(filters) -->
<g id="node27" class="node">
<title>DataTensor(filters)</title>
<ellipse fill="none" stroke="red" cx="201.09" cy="-284" rx="77.99" ry="18"/>
<text text-anchor="middle" x="201.09" y="-280.3" font-family="Times,serif" font-size="14.00">DataTensor(filters)</text>
</g>
<!-- Args&#45;&gt;DataTensor(filters) -->
<g id="edge27" class="edge">
<title>Args&#45;&gt;DataTensor(filters)</title>
<path fill="none" stroke="purple" d="M51.04,-240.51C62.96,-245.92 78.03,-252.33 91.9,-257 105.26,-261.5 119.77,-265.62 133.7,-269.22"/>
<polygon fill="purple" stroke="purple" points="133.16,-272.7 143.72,-271.75 134.88,-265.91 133.16,-272.7"/>
</g>
<!-- ShapeTensor(output_shape) -->
<g id="node28" class="node">
<title>ShapeTensor(output_shape)</title>
<ellipse fill="none" stroke="red" cx="201.09" cy="-176" rx="109.38" ry="18"/>
<text text-anchor="middle" x="201.09" y="-172.3" font-family="Times,serif" font-size="14.00">ShapeTensor(output_shape)</text>
</g>
<!-- Args&#45;&gt;ShapeTensor(output_shape) -->
<g id="edge28" class="edge">
<title>Args&#45;&gt;ShapeTensor(output_shape)</title>
<path fill="none" stroke="purple" d="M51.04,-219.49C62.96,-214.08 78.03,-207.67 91.9,-203 102.61,-199.39 114.06,-196.02 125.36,-192.98"/>
<polygon fill="purple" stroke="purple" points="126.45,-196.31 135.23,-190.38 124.67,-189.54 126.45,-196.31"/>
</g>
<!-- ShapeInt(rate) -->
<g id="node29" class="node">
<title>ShapeInt(rate)</title>
<ellipse fill="none" stroke="red" cx="201.09" cy="-230" rx="61.19" ry="18"/>
<text text-anchor="middle" x="201.09" y="-226.3" font-family="Times,serif" font-size="14.00">ShapeInt(rate)</text>
</g>
<!-- Args&#45;&gt;ShapeInt(rate) -->
<g id="edge29" class="edge">
<title>Args&#45;&gt;ShapeInt(rate)</title>
<path fill="none" stroke="purple" d="M56.06,-230C75.87,-230 103.67,-230 129.57,-230"/>
<polygon fill="purple" stroke="purple" points="129.77,-233.5 139.77,-230 129.77,-226.5 129.77,-233.5"/>
</g>
<!-- DataTensor(value)&#45;&gt;DTypesNotImpl -->
<g id="edge36" class="edge">
<title>DataTensor(value)&#45;&gt;DTypesNotImpl</title>
<path fill="none" stroke="black" d="M274.78,-343.14C295.28,-344.59 317.64,-346.17 338.33,-347.64"/>
<polygon fill="black" stroke="black" points="338.11,-351.13 348.33,-348.34 338.61,-344.15 338.11,-351.13"/>
</g>
<!-- DataTensor(value)&#45;&gt;ArgMutations -->
<g id="edge35" class="edge">
<title>DataTensor(value)&#45;&gt;ArgMutations</title>
<path fill="none" stroke="black" d="M263.86,-327.55C279.49,-323.58 295.91,-318.21 310.28,-311 340.98,-295.59 370.78,-269.74 390.53,-250.58"/>
<polygon fill="black" stroke="black" points="393.19,-252.87 397.84,-243.35 388.27,-247.89 393.19,-252.87"/>
</g>
<!-- DataTensor(filters)&#45;&gt;DTypesNotImpl -->
<g id="edge39" class="edge">
<title>DataTensor(filters)&#45;&gt;DTypesNotImpl</title>
<path fill="none" stroke="black" d="M258.1,-296.4C275.01,-300.57 293.52,-305.55 310.28,-311 330.29,-317.51 351.93,-326.01 370.26,-333.66"/>
<polygon fill="black" stroke="black" points="368.94,-336.91 379.51,-337.57 371.66,-330.46 368.94,-336.91"/>
</g>
<!-- DataTensor(filters)&#45;&gt;ArgMutations -->
<g id="edge38" class="edge">
<title>DataTensor(filters)&#45;&gt;ArgMutations</title>
<path fill="none" stroke="black" d="M255.87,-271.09C273.27,-266.78 292.63,-261.83 310.28,-257 327.5,-252.28 346.23,-246.8 362.98,-241.78"/>
<polygon fill="black" stroke="black" points="364.02,-245.12 372.59,-238.88 362,-238.42 364.02,-245.12"/>
</g>
<!-- ShapeTensor(output_shape)&#45;&gt;ArgMutations -->
<g id="edge41" class="edge">
<title>ShapeTensor(output_shape)&#45;&gt;ArgMutations</title>
<path fill="none" stroke="black" d="M264.57,-190.73C293.97,-197.66 328.78,-205.87 357.42,-212.62"/>
<polygon fill="black" stroke="black" points="356.74,-216.06 367.27,-214.94 358.34,-209.24 356.74,-216.06"/>
</g>
<!-- ShapeInt(rate)&#45;&gt;ArgMutations -->
<g id="edge43" class="edge">
<title>ShapeInt(rate)&#45;&gt;ArgMutations</title>
<path fill="none" stroke="black" d="M262.29,-228.86C287.92,-228.38 317.97,-227.81 344.55,-227.31"/>
<polygon fill="black" stroke="black" points="344.61,-230.81 354.55,-227.12 344.48,-223.81 344.61,-230.81"/>
</g>
<!-- DataFormat -->
<g id="node30" class="node">
<title>DataFormat</title>
<ellipse fill="none" stroke="black" cx="806.29" cy="-276" rx="53.09" ry="18"/>
<text text-anchor="middle" x="806.29" y="-272.3" font-family="Times,serif" font-size="14.00">DataFormat</text>
</g>
<!-- DataFormat&#45;&gt;Layout(layout) -->
<g id="edge48" class="edge">
<title>DataFormat&#45;&gt;Layout(layout)</title>
<path fill="none" stroke="black" d="M856.06,-282.58C951.54,-293.75 1168.87,-310.68 1341.7,-261 1382.35,-249.32 1423.43,-222.81 1450,-203.29"/>
<polygon fill="black" stroke="black" points="1452.19,-206.02 1458.1,-197.22 1448,-200.41 1452.19,-206.02"/>
</g>
<!-- DataFormat&#45;&gt;IndexRanks -->
<g id="edge47" class="edge">
<title>DataFormat&#45;&gt;IndexRanks</title>
<path fill="none" stroke="black" d="M828.27,-292.66C844.62,-306.15 867.41,-326.12 884.93,-346 913.15,-378.01 940.36,-419.27 956.78,-445.69"/>
<polygon fill="black" stroke="black" points="953.9,-447.69 962.12,-454.37 959.86,-444.02 953.9,-447.69"/>
</g>
</g>
</svg>
