<?xml version="1.0" encoding="UTF-8" standalone="no"?>
<!DOCTYPE svg PUBLIC "-//W3C//DTD SVG 1.1//EN"
 "http://www.w3.org/Graphics/SVG/1.1/DTD/svg11.dtd">
<!-- Generated by graphviz version 2.43.0 (0)
 -->
<!-- Title: %3 Pages: 1 -->
<svg width="1060pt" height="425pt"
 viewBox="0.00 0.00 1059.72 424.61" xmlns="http://www.w3.org/2000/svg" xmlns:xlink="http://www.w3.org/1999/xlink">
<g id="graph0" class="graph" transform="scale(1 1) rotate(0) translate(4 420.61)">
<title>%3</title>
<polygon fill="white" stroke="transparent" points="-4,4 -4,-420.61 1055.72,-420.61 1055.72,4 -4,4"/>
<!-- DimsInput(_index_ranks) -->
<g id="node1" class="node">
<title>DimsInput(_index_ranks)</title>
<ellipse fill="none" stroke="black" cx="949.68" cy="-198.61" rx="102.08" ry="18"/>
<text text-anchor="middle" x="949.68" y="-194.91" font-family="Times,serif" font-size="14.00">DimsInput(_index_ranks)</text>
</g>
<!-- GenDims(batch) -->
<g id="node2" class="node">
<title>GenDims(batch)</title>
<ellipse fill="none" stroke="black" cx="706.99" cy="-398.61" rx="69.59" ry="18"/>
<text text-anchor="middle" x="706.99" y="-394.91" font-family="Times,serif" font-size="14.00">GenDims(batch)</text>
</g>
<!-- GenDims(batch)&#45;&gt;DimsInput(_index_ranks) -->
<g id="edge1" class="edge">
<title>GenDims(batch)&#45;&gt;DimsInput(_index_ranks)</title>
<path fill="none" stroke="black" d="M763.41,-387.96C779.84,-383.15 797.27,-376.3 811.63,-366.61 867.17,-329.19 911.71,-262.63 933.71,-225.52"/>
<polygon fill="black" stroke="black" points="936.8,-227.16 938.81,-216.75 930.75,-223.64 936.8,-227.16"/>
</g>
<!-- GenDims(filter_spatial) -->
<g id="node3" class="node">
<title>GenDims(filter_spatial)</title>
<ellipse fill="none" stroke="black" cx="706.99" cy="-106.61" rx="94.78" ry="18"/>
<text text-anchor="middle" x="706.99" y="-102.91" font-family="Times,serif" font-size="14.00">GenDims(filter_spatial)</text>
</g>
<!-- GenDims(filter_spatial)&#45;&gt;DimsInput(_index_ranks) -->
<g id="edge2" class="edge">
<title>GenDims(filter_spatial)&#45;&gt;DimsInput(_index_ranks)</title>
<path fill="none" stroke="black" d="M760.31,-121.51C776.86,-126.55 795.13,-132.48 811.63,-138.61 842.85,-150.22 877.19,-165.26 903.68,-177.38"/>
<polygon fill="black" stroke="black" points="902.52,-180.69 913.06,-181.7 905.44,-174.33 902.52,-180.69"/>
</g>
<!-- GenDims(input_spatial) -->
<g id="node4" class="node">
<title>GenDims(input_spatial)</title>
<ellipse fill="none" stroke="black" cx="435.71" cy="-68.61" rx="96.38" ry="18"/>
<text text-anchor="middle" x="435.71" y="-64.91" font-family="Times,serif" font-size="14.00">GenDims(input_spatial)</text>
</g>
<!-- GenDims(input_spatial)&#45;&gt;DimsInput(_index_ranks) -->
<g id="edge3" class="edge">
<title>GenDims(input_spatial)&#45;&gt;DimsInput(_index_ranks)</title>
<path fill="none" stroke="black" d="M508.63,-56.81C586.26,-47.18 712.15,-40.78 811.63,-79.61 860.79,-98.8 904.28,-143.81 928.48,-172.65"/>
<polygon fill="black" stroke="black" points="926.02,-175.16 935.07,-180.67 931.43,-170.72 926.02,-175.16"/>
</g>
<!-- GenDims(input_spatial)&#45;&gt;GenDims(filter_spatial) -->
<g id="edge4" class="edge">
<title>GenDims(input_spatial)&#45;&gt;GenDims(filter_spatial)</title>
<path fill="none" stroke="purple" d="M513.16,-79.4C546.56,-84.11 585.87,-89.66 620.26,-94.51"/>
<polygon fill="purple" stroke="purple" points="619.9,-98 630.29,-95.93 620.88,-91.07 619.9,-98"/>
</g>
<!-- GenDims(input_channel) -->
<g id="node5" class="node">
<title>GenDims(input_channel)</title>
<ellipse fill="none" stroke="black" cx="706.99" cy="-252.61" rx="100.98" ry="18"/>
<text text-anchor="middle" x="706.99" y="-248.91" font-family="Times,serif" font-size="14.00">GenDims(input_channel)</text>
</g>
<!-- GenDims(input_channel)&#45;&gt;DimsInput(_index_ranks) -->
<g id="edge5" class="edge">
<title>GenDims(input_channel)&#45;&gt;DimsInput(_index_ranks)</title>
<path fill="none" stroke="black" d="M770.6,-238.57C802.93,-231.31 842.54,-222.43 876.19,-214.88"/>
<polygon fill="black" stroke="black" points="876.97,-218.29 885.96,-212.68 875.44,-211.46 876.97,-218.29"/>
</g>
<!-- GenDims(output_channel) -->
<g id="node6" class="node">
<title>GenDims(output_channel)</title>
<ellipse fill="none" stroke="black" cx="706.99" cy="-198.61" rx="104.78" ry="18"/>
<text text-anchor="middle" x="706.99" y="-194.91" font-family="Times,serif" font-size="14.00">GenDims(output_channel)</text>
</g>
<!-- GenDims(output_channel)&#45;&gt;DimsInput(_index_ranks) -->
<g id="edge6" class="edge">
<title>GenDims(output_channel)&#45;&gt;DimsInput(_index_ranks)</title>
<path fill="none" stroke="black" d="M811.81,-198.61C820.32,-198.61 828.93,-198.61 837.49,-198.61"/>
<polygon fill="black" stroke="black" points="837.49,-202.11 847.49,-198.61 837.49,-195.11 837.49,-202.11"/>
</g>
<!-- GenDims(rate) -->
<g id="node7" class="node">
<title>GenDims(rate)</title>
<ellipse fill="none" stroke="black" cx="706.99" cy="-306.61" rx="63.89" ry="18"/>
<text text-anchor="middle" x="706.99" y="-302.91" font-family="Times,serif" font-size="14.00">GenDims(rate)</text>
</g>
<!-- GenDims(rate)&#45;&gt;DimsInput(_index_ranks) -->
<g id="edge7" class="edge">
<title>GenDims(rate)&#45;&gt;DimsInput(_index_ranks)</title>
<path fill="none" stroke="black" d="M759.26,-296.26C776.27,-292.04 795.07,-286.51 811.63,-279.61 849,-264.06 888.46,-239.8 915.39,-221.88"/>
<polygon fill="black" stroke="black" points="917.69,-224.55 924.03,-216.06 913.78,-218.75 917.69,-224.55"/>
</g>
<!-- CompDims(dilated_filter_spatial) -->
<g id="node8" class="node">
<title>CompDims(dilated_filter_spatial)</title>
<ellipse fill="none" stroke="black" cx="435.71" cy="-176.61" rx="130.78" ry="18"/>
<text text-anchor="middle" x="435.71" y="-172.91" font-family="Times,serif" font-size="14.00">CompDims(dilated_filter_spatial)</text>
</g>
<!-- CompDims(dilated_filter_spatial)&#45;&gt;DimsInput(_index_ranks) -->
<g id="edge8" class="edge">
<title>CompDims(dilated_filter_spatial)&#45;&gt;DimsInput(_index_ranks)</title>
<path fill="none" stroke="black" d="M552.69,-168.48C626.9,-164.9 725.14,-163.17 811.63,-171.61 833.62,-173.76 857.3,-177.79 878.7,-182.1"/>
<polygon fill="black" stroke="black" points="878.17,-185.57 888.67,-184.17 879.59,-178.71 878.17,-185.57"/>
</g>
<!-- CompDims(dilated_filter_spatial)&#45;&gt;GenDims(filter_spatial) -->
<g id="edge10" class="edge">
<title>CompDims(dilated_filter_spatial)&#45;&gt;GenDims(filter_spatial)</title>
<path fill="none" stroke="purple" d="M512.74,-162.02C530.41,-158.28 549.1,-154.06 566.35,-149.61 568.49,-149.06 609.51,-136.42 646.55,-124.99"/>
<polygon fill="purple" stroke="purple" points="647.83,-128.25 656.35,-121.96 645.76,-121.57 647.83,-128.25"/>
</g>
<!-- CompDims(dilated_filter_spatial)&#45;&gt;GenDims(rate) -->
<g id="edge9" class="edge">
<title>CompDims(dilated_filter_spatial)&#45;&gt;GenDims(rate)</title>
<path fill="none" stroke="purple" d="M460.15,-194.39C491.15,-217.14 548.21,-256.36 602.35,-279.61 615.68,-285.34 630.51,-290.08 644.68,-293.9"/>
<polygon fill="purple" stroke="purple" points="643.81,-297.29 654.37,-296.41 645.56,-290.52 643.81,-297.29"/>
</g>
<!-- DimsInput(padding) -->
<g id="node9" class="node">
<title>DimsInput(padding)</title>
<ellipse fill="none" stroke="black" cx="435.71" cy="-122.61" rx="83.39" ry="18"/>
<text text-anchor="middle" x="435.71" y="-118.91" font-family="Times,serif" font-size="14.00">DimsInput(padding)</text>
</g>
<!-- GenDims(output_spatial_declared) -->
<g id="node10" class="node">
<title>GenDims(output_spatial_declared)</title>
<ellipse fill="none" stroke="black" cx="134.54" cy="-162.61" rx="134.58" ry="18"/>
<text text-anchor="middle" x="134.54" y="-158.91" font-family="Times,serif" font-size="14.00">GenDims(output_spatial_declared)</text>
</g>
<!-- GenDims(output_spatial_declared)&#45;&gt;DimsInput(_index_ranks) -->
<g id="edge11" class="edge">
<title>GenDims(output_spatial_declared)&#45;&gt;DimsInput(_index_ranks)</title>
<path fill="none" stroke="black" d="M170.08,-180.09C245.91,-217.36 433.66,-303.69 602.35,-333.61 693.94,-349.86 725.57,-368.89 811.63,-333.61 865.02,-311.73 908.76,-257.9 931.56,-225.21"/>
<polygon fill="black" stroke="black" points="934.7,-226.83 937.43,-216.6 928.91,-222.89 934.7,-226.83"/>
</g>
<!-- GenDims(output_spatial_declared)&#45;&gt;GenDims(input_spatial) -->
<g id="edge13" class="edge">
<title>GenDims(output_spatial_declared)&#45;&gt;GenDims(input_spatial)</title>
<path fill="none" stroke="purple" d="M203.88,-147.14C225.37,-140.98 248.77,-132.86 269.08,-122.61 286.93,-113.6 286.85,-103.85 305.08,-95.61 318.18,-89.69 332.63,-85.05 346.97,-81.42"/>
<polygon fill="purple" stroke="purple" points="347.95,-84.78 356.87,-79.06 346.33,-77.97 347.95,-84.78"/>
</g>
<!-- GenDims(output_spatial_declared)&#45;&gt;CompDims(dilated_filter_spatial) -->
<g id="edge12" class="edge">
<title>GenDims(output_spatial_declared)&#45;&gt;CompDims(dilated_filter_spatial)</title>
<path fill="none" stroke="purple" d="M261.98,-168.53C275.07,-169.14 288.4,-169.77 301.56,-170.38"/>
<polygon fill="purple" stroke="purple" points="301.43,-173.88 311.59,-170.85 301.76,-166.89 301.43,-173.88"/>
</g>
<!-- GenDims(output_spatial_declared)&#45;&gt;DimsInput(padding) -->
<g id="edge14" class="edge">
<title>GenDims(output_spatial_declared)&#45;&gt;DimsInput(padding)</title>
<path fill="none" stroke="blue" d="M230.61,-149.9C270.5,-144.57 316.39,-138.43 354.54,-133.33"/>
<polygon fill="blue" stroke="blue" points="355.12,-136.79 364.57,-131.99 354.2,-129.85 355.12,-136.79"/>
</g>
<!-- CompDims(output_spatial) -->
<g id="node11" class="node">
<title>CompDims(output_spatial)</title>
<ellipse fill="none" stroke="black" cx="134.54" cy="-95.61" rx="107.78" ry="18"/>
<text text-anchor="middle" x="134.54" y="-91.91" font-family="Times,serif" font-size="14.00">CompDims(output_spatial)</text>
</g>
<!-- CompDims(output_spatial)&#45;&gt;DimsInput(_index_ranks) -->
<g id="edge15" class="edge">
<title>CompDims(output_spatial)&#45;&gt;DimsInput(_index_ranks)</title>
<path fill="none" stroke="black" d="M178,-78.96C288.43,-38.42 591.35,54.97 811.63,-45.61 869.1,-71.85 912.66,-135.05 934.04,-171.49"/>
<polygon fill="black" stroke="black" points="931.23,-173.63 939.24,-180.57 937.31,-170.15 931.23,-173.63"/>
</g>
<!-- CompDims(output_spatial)&#45;&gt;GenDims(input_spatial) -->
<g id="edge17" class="edge">
<title>CompDims(output_spatial)&#45;&gt;GenDims(input_spatial)</title>
<path fill="none" stroke="purple" d="M229.79,-87.11C264.47,-83.98 303.78,-80.43 338.63,-77.28"/>
<polygon fill="purple" stroke="purple" points="339.16,-80.75 348.81,-76.37 338.53,-73.78 339.16,-80.75"/>
</g>
<!-- CompDims(output_spatial)&#45;&gt;CompDims(dilated_filter_spatial) -->
<g id="edge16" class="edge">
<title>CompDims(output_spatial)&#45;&gt;CompDims(dilated_filter_spatial)</title>
<path fill="none" stroke="purple" d="M190.75,-111.08C214.93,-118.13 243.56,-126.84 269.08,-135.61 285.31,-141.19 288.62,-144.74 305.08,-149.61 318.11,-153.48 332.05,-157 345.76,-160.12"/>
<polygon fill="purple" stroke="purple" points="345.18,-163.58 355.7,-162.33 346.7,-156.75 345.18,-163.58"/>
</g>
<!-- CompDims(output_spatial)&#45;&gt;DimsInput(padding) -->
<g id="edge18" class="edge">
<title>CompDims(output_spatial)&#45;&gt;DimsInput(padding)</title>
<path fill="none" stroke="blue" d="M229.79,-104.12C267.68,-107.54 311.08,-111.45 348.15,-114.8"/>
<polygon fill="blue" stroke="blue" points="348.16,-118.32 358.43,-115.73 348.79,-111.34 348.16,-118.32"/>
</g>
</g>
</svg>
