<?xml version="1.0" encoding="UTF-8" standalone="no"?>
<!DOCTYPE svg PUBLIC "-//W3C//DTD SVG 1.1//EN"
 "http://www.w3.org/Graphics/SVG/1.1/DTD/svg11.dtd">
<!-- Generated by graphviz version 2.43.0 (0)
 -->
<!-- Title: %3 Pages: 1 -->
<svg width="1561pt" height="875pt"
 viewBox="0.00 0.00 1561.18 874.85" xmlns="http://www.w3.org/2000/svg" xmlns:xlink="http://www.w3.org/1999/xlink">
<g id="graph0" class="graph" transform="scale(1 1) rotate(0) translate(4 870.85)">
<title>%3</title>
<polygon fill="white" stroke="transparent" points="-4,4 -4,-870.85 1557.18,-870.85 1557.18,4 -4,4"/>
<!-- Layout(layout) -->
<g id="node1" class="node">
<title>Layout(layout)</title>
<ellipse fill="none" stroke="black" cx="1450.49" cy="-162.85" rx="63.89" ry="18"/>
<text text-anchor="middle" x="1450.49" y="-159.15" font-family="Times,serif" font-size="14.00">Layout(layout)</text>
</g>
<!-- IndexRanks -->
<g id="node2" class="node">
<title>IndexRanks</title>
<ellipse fill="none" stroke="black" cx="965.78" cy="-513.85" rx="52.79" ry="18"/>
<text text-anchor="middle" x="965.78" y="-510.15" font-family="Times,serif" font-size="14.00">IndexRanks</text>
</g>
<!-- RankRange(batch) -->
<g id="node3" class="node">
<title>RankRange(batch)</title>
<ellipse fill="none" stroke="black" cx="1183.11" cy="-432.85" rx="76.89" ry="18"/>
<text text-anchor="middle" x="1183.11" y="-429.15" font-family="Times,serif" font-size="14.00">RankRange(batch)</text>
</g>
<!-- IndexRanks&#45;&gt;RankRange(batch) -->
<g id="edge1" class="edge">
<title>IndexRanks&#45;&gt;RankRange(batch)</title>
<path fill="none" stroke="purple" d="M988.71,-497.38C1005.78,-485.3 1030.53,-469.41 1054.43,-459.85 1070.96,-453.24 1089.37,-448.15 1106.95,-444.26"/>
<polygon fill="purple" stroke="purple" points="1108.12,-447.59 1117.19,-442.11 1106.68,-440.74 1108.12,-447.59"/>
</g>
<!-- RankRange(input_spatial) -->
<g id="node4" class="node">
<title>RankRange(input_spatial)</title>
<ellipse fill="none" stroke="black" cx="1450.49" cy="-725.85" rx="102.88" ry="18"/>
<text text-anchor="middle" x="1450.49" y="-722.15" font-family="Times,serif" font-size="14.00">RankRange(input_spatial)</text>
</g>
<!-- IndexRanks&#45;&gt;RankRange(input_spatial) -->
<g id="edge2" class="edge">
<title>IndexRanks&#45;&gt;RankRange(input_spatial)</title>
<path fill="none" stroke="purple" d="M967.73,-531.89C971.1,-575.03 986.28,-683.97 1054.43,-729.85 1102.35,-762.13 1258.28,-750.19 1359.32,-738.26"/>
<polygon fill="purple" stroke="purple" points="1360.02,-741.7 1369.53,-737.03 1359.18,-734.75 1360.02,-741.7"/>
</g>
<!-- RankEquiv(filter_spatial) -->
<g id="node5" class="node">
<title>RankEquiv(filter_spatial)</title>
<ellipse fill="none" stroke="black" cx="1183.11" cy="-702.85" rx="100.98" ry="18"/>
<text text-anchor="middle" x="1183.11" y="-699.15" font-family="Times,serif" font-size="14.00">RankEquiv(filter_spatial)</text>
</g>
<!-- IndexRanks&#45;&gt;RankEquiv(filter_spatial) -->
<g id="edge3" class="edge">
<title>IndexRanks&#45;&gt;RankEquiv(filter_spatial)</title>
<path fill="none" stroke="purple" d="M971.18,-532.01C980.4,-565.98 1005.11,-639.01 1054.43,-675.85 1063.18,-682.39 1073.17,-687.43 1083.62,-691.29"/>
<polygon fill="purple" stroke="purple" points="1082.72,-694.68 1093.32,-694.52 1084.94,-688.04 1082.72,-694.68"/>
</g>
<!-- RankEquiv(dilated_filter_spatial) -->
<g id="node6" class="node">
<title>RankEquiv(dilated_filter_spatial)</title>
<ellipse fill="none" stroke="black" cx="1183.11" cy="-486.85" rx="128.88" ry="18"/>
<text text-anchor="middle" x="1183.11" y="-483.15" font-family="Times,serif" font-size="14.00">RankEquiv(dilated_filter_spatial)</text>
</g>
<!-- IndexRanks&#45;&gt;RankEquiv(dilated_filter_spatial) -->
<g id="edge4" class="edge">
<title>IndexRanks&#45;&gt;RankEquiv(dilated_filter_spatial)</title>
<path fill="none" stroke="purple" d="M1015.37,-507.76C1033.58,-505.48 1055.05,-502.79 1076.41,-500.11"/>
<polygon fill="purple" stroke="purple" points="1077.05,-503.55 1086.54,-498.84 1076.18,-496.61 1077.05,-503.55"/>
</g>
<!-- RankEquiv(strides) -->
<g id="node7" class="node">
<title>RankEquiv(strides)</title>
<ellipse fill="none" stroke="black" cx="1183.11" cy="-378.85" rx="79.09" ry="18"/>
<text text-anchor="middle" x="1183.11" y="-375.15" font-family="Times,serif" font-size="14.00">RankEquiv(strides)</text>
</g>
<!-- IndexRanks&#45;&gt;RankEquiv(strides) -->
<g id="edge5" class="edge">
<title>IndexRanks&#45;&gt;RankEquiv(strides)</title>
<path fill="none" stroke="purple" d="M976.02,-496.13C989.71,-471.73 1017.75,-428.27 1054.43,-405.85 1068.03,-397.53 1083.81,-391.75 1099.54,-387.73"/>
<polygon fill="purple" stroke="purple" points="1100.36,-391.13 1109.3,-385.45 1098.77,-384.32 1100.36,-391.13"/>
</g>
<!-- RankEquiv(dilations) -->
<g id="node8" class="node">
<title>RankEquiv(dilations)</title>
<ellipse fill="none" stroke="black" cx="1183.11" cy="-848.85" rx="86.38" ry="18"/>
<text text-anchor="middle" x="1183.11" y="-845.15" font-family="Times,serif" font-size="14.00">RankEquiv(dilations)</text>
</g>
<!-- IndexRanks&#45;&gt;RankEquiv(dilations) -->
<g id="edge6" class="edge">
<title>IndexRanks&#45;&gt;RankEquiv(dilations)</title>
<path fill="none" stroke="purple" d="M965.99,-532.02C964.76,-585.22 968.88,-742 1054.43,-821.85 1064.19,-830.97 1076.24,-837.32 1088.99,-841.69"/>
<polygon fill="purple" stroke="purple" points="1088.27,-845.13 1098.85,-844.67 1090.29,-838.43 1088.27,-845.13"/>
</g>
<!-- RankRange(input_channel) -->
<g id="node9" class="node">
<title>RankRange(input_channel)</title>
<ellipse fill="none" stroke="black" cx="1183.11" cy="-648.85" rx="107.48" ry="18"/>
<text text-anchor="middle" x="1183.11" y="-645.15" font-family="Times,serif" font-size="14.00">RankRange(input_channel)</text>
</g>
<!-- IndexRanks&#45;&gt;RankRange(input_channel) -->
<g id="edge7" class="edge">
<title>IndexRanks&#45;&gt;RankRange(input_channel)</title>
<path fill="none" stroke="purple" d="M976.02,-531.58C989.71,-555.98 1017.75,-599.43 1054.43,-621.85 1063.75,-627.55 1074.09,-632.07 1084.74,-635.63"/>
<polygon fill="purple" stroke="purple" points="1084,-639.07 1094.59,-638.65 1086.05,-632.37 1084,-639.07"/>
</g>
<!-- RankRange(filter_input_channel) -->
<g id="node10" class="node">
<title>RankRange(filter_input_channel)</title>
<ellipse fill="none" stroke="black" cx="1183.11" cy="-594.85" rx="128.88" ry="18"/>
<text text-anchor="middle" x="1183.11" y="-591.15" font-family="Times,serif" font-size="14.00">RankRange(filter_input_channel)</text>
</g>
<!-- IndexRanks&#45;&gt;RankRange(filter_input_channel) -->
<g id="edge8" class="edge">
<title>IndexRanks&#45;&gt;RankRange(filter_input_channel)</title>
<path fill="none" stroke="purple" d="M988.71,-530.33C1005.78,-542.41 1030.53,-558.3 1054.43,-567.85 1065,-572.08 1076.35,-575.69 1087.76,-578.76"/>
<polygon fill="purple" stroke="purple" points="1087.22,-582.24 1097.78,-581.32 1088.96,-575.45 1087.22,-582.24"/>
</g>
<!-- RankRange(output_channel) -->
<g id="node11" class="node">
<title>RankRange(output_channel)</title>
<ellipse fill="none" stroke="black" cx="1183.11" cy="-540.85" rx="111.58" ry="18"/>
<text text-anchor="middle" x="1183.11" y="-537.15" font-family="Times,serif" font-size="14.00">RankRange(output_channel)</text>
</g>
<!-- IndexRanks&#45;&gt;RankRange(output_channel) -->
<g id="edge9" class="edge">
<title>IndexRanks&#45;&gt;RankRange(output_channel)</title>
<path fill="none" stroke="purple" d="M1015.37,-519.95C1035.78,-522.51 1060.28,-525.58 1084.15,-528.57"/>
<polygon fill="purple" stroke="purple" points="1083.97,-532.07 1094.32,-529.85 1084.84,-525.13 1083.97,-532.07"/>
</g>
<!-- RankEquiv(output_spatial) -->
<g id="node12" class="node">
<title>RankEquiv(output_spatial)</title>
<ellipse fill="none" stroke="black" cx="1183.11" cy="-794.85" rx="105.88" ry="18"/>
<text text-anchor="middle" x="1183.11" y="-791.15" font-family="Times,serif" font-size="14.00">RankEquiv(output_spatial)</text>
</g>
<!-- IndexRanks&#45;&gt;RankEquiv(output_spatial) -->
<g id="edge10" class="edge">
<title>IndexRanks&#45;&gt;RankEquiv(output_spatial)</title>
<path fill="none" stroke="purple" d="M967.56,-532.03C970.55,-577.97 984.98,-699.58 1054.43,-762.85 1063.2,-770.85 1073.68,-776.92 1084.79,-781.51"/>
<polygon fill="purple" stroke="purple" points="1083.67,-784.83 1094.26,-785.04 1086.11,-778.27 1083.67,-784.83"/>
</g>
<!-- RankEquiv(filter_spatial)&#45;&gt;RankRange(input_spatial) -->
<g id="edge33" class="edge">
<title>RankEquiv(filter_spatial)&#45;&gt;RankRange(input_spatial)</title>
<path fill="none" stroke="black" d="M1273.96,-710.64C1297.75,-712.7 1323.6,-714.94 1347.96,-717.05"/>
<polygon fill="black" stroke="black" points="1347.67,-720.54 1357.93,-717.92 1348.27,-713.57 1347.67,-720.54"/>
</g>
<!-- RankEquiv(dilated_filter_spatial)&#45;&gt;RankRange(input_spatial) -->
<g id="edge34" class="edge">
<title>RankEquiv(dilated_filter_spatial)&#45;&gt;RankRange(input_spatial)</title>
<path fill="none" stroke="black" d="M1280.95,-498.71C1291.9,-502.5 1302.46,-507.44 1311.8,-513.85 1379.42,-560.27 1421.69,-651.88 1439.59,-697.98"/>
<polygon fill="black" stroke="black" points="1436.42,-699.5 1443.23,-707.62 1442.97,-697.02 1436.42,-699.5"/>
</g>
<!-- RankEquiv(strides)&#45;&gt;RankRange(input_spatial) -->
<g id="edge35" class="edge">
<title>RankEquiv(strides)&#45;&gt;RankRange(input_spatial)</title>
<path fill="none" stroke="black" d="M1260.64,-382.92C1278.94,-386.99 1297.34,-394.01 1311.8,-405.85 1405.34,-482.49 1436.76,-634.6 1446.03,-697.56"/>
<polygon fill="black" stroke="black" points="1442.58,-698.14 1447.43,-707.56 1449.51,-697.17 1442.58,-698.14"/>
</g>
<!-- RankEquiv(dilations)&#45;&gt;RankRange(input_spatial) -->
<g id="edge36" class="edge">
<title>RankEquiv(dilations)&#45;&gt;RankRange(input_spatial)</title>
<path fill="none" stroke="black" d="M1255.6,-838.98C1274.35,-834.99 1294.23,-829.46 1311.8,-821.85 1353.49,-803.8 1395.46,-772.14 1421.91,-750.14"/>
<polygon fill="black" stroke="black" points="1424.22,-752.77 1429.61,-743.65 1419.71,-747.42 1424.22,-752.77"/>
</g>
<!-- RankEquiv(output_spatial)&#45;&gt;RankRange(input_spatial) -->
<g id="edge37" class="edge">
<title>RankEquiv(output_spatial)&#45;&gt;RankRange(input_spatial)</title>
<path fill="none" stroke="black" d="M1243.93,-780.09C1265.36,-774.74 1289.68,-768.6 1311.8,-762.85 1335.49,-756.7 1361.42,-749.78 1384.32,-743.61"/>
<polygon fill="black" stroke="black" points="1385.54,-746.91 1394.28,-740.92 1383.71,-740.15 1385.54,-746.91"/>
</g>
<!-- DTypesNotImpl -->
<g id="node13" class="node">
<title>DTypesNotImpl</title>
<ellipse fill="none" stroke="black" cx="360.57" cy="-173.85" rx="68.79" ry="18"/>
<text text-anchor="middle" x="360.57" y="-170.15" font-family="Times,serif" font-size="14.00">DTypesNotImpl</text>
</g>
<!-- DTypesNotImpl&#45;&gt;Layout(layout) -->
<g id="edge12" class="edge">
<title>DTypesNotImpl&#45;&gt;Layout(layout)</title>
<path fill="none" stroke="black" d="M379.2,-156.21C398.49,-138.22 431.26,-111.37 465.47,-99.85 643.75,-39.83 1130.3,-32.42 1311.8,-81.85 1352.85,-93.03 1394.15,-119.9 1420.65,-139.64"/>
<polygon fill="black" stroke="black" points="1418.64,-142.5 1428.72,-145.77 1422.87,-136.93 1418.64,-142.5"/>
</g>
<!-- DTypesNotImpl&#45;&gt;IndexRanks -->
<g id="edge11" class="edge">
<title>DTypesNotImpl&#45;&gt;IndexRanks</title>
<path fill="none" stroke="black" d="M428.2,-177.83C551.85,-186.5 810.32,-211.07 877.13,-267.85 943.25,-324.05 959.5,-433.71 963.48,-485.49"/>
<polygon fill="black" stroke="black" points="960,-485.88 964.16,-495.62 966.99,-485.41 960,-485.88"/>
</g>
<!-- DTypeIndiv(input) -->
<g id="node14" class="node">
<title>DTypeIndiv(input)</title>
<ellipse fill="none" stroke="black" cx="775.09" cy="-145.85" rx="77.19" ry="18"/>
<text text-anchor="middle" x="775.09" y="-142.15" font-family="Times,serif" font-size="14.00">DTypeIndiv(input)</text>
</g>
<!-- DTypesNotImpl&#45;&gt;DTypeIndiv(input) -->
<g id="edge13" class="edge">
<title>DTypesNotImpl&#45;&gt;DTypeIndiv(input)</title>
<path fill="none" stroke="purple" d="M427.4,-169.39C498.69,-164.55 612.62,-156.81 690.27,-151.54"/>
<polygon fill="purple" stroke="purple" points="690.76,-155.02 700.5,-150.85 690.29,-148.03 690.76,-155.02"/>
</g>
<!-- DTypeEquate(filters) -->
<g id="node15" class="node">
<title>DTypeEquate(filters)</title>
<ellipse fill="none" stroke="black" cx="551.26" cy="-126.85" rx="85.59" ry="18"/>
<text text-anchor="middle" x="551.26" y="-123.15" font-family="Times,serif" font-size="14.00">DTypeEquate(filters)</text>
</g>
<!-- DTypesNotImpl&#45;&gt;DTypeEquate(filters) -->
<g id="edge14" class="edge">
<title>DTypesNotImpl&#45;&gt;DTypeEquate(filters)</title>
<path fill="none" stroke="purple" d="M411.15,-161.5C433.89,-155.84 461.16,-149.05 485.5,-142.99"/>
<polygon fill="purple" stroke="purple" points="486.51,-146.34 495.37,-140.53 484.82,-139.55 486.51,-146.34"/>
</g>
<!-- DTypeEquate(filters)&#45;&gt;DTypeIndiv(input) -->
<g id="edge50" class="edge">
<title>DTypeEquate(filters)&#45;&gt;DTypeIndiv(input)</title>
<path fill="none" stroke="black" d="M631.1,-133.61C650.91,-135.3 672.22,-137.13 692.18,-138.84"/>
<polygon fill="black" stroke="black" points="691.91,-142.33 702.17,-139.69 692.51,-135.35 691.91,-142.33"/>
</g>
<!-- SigMap -->
<g id="node16" class="node">
<title>SigMap</title>
<ellipse fill="none" stroke="black" cx="965.78" cy="-248.85" rx="38.99" ry="18"/>
<text text-anchor="middle" x="965.78" y="-245.15" font-family="Times,serif" font-size="14.00">SigMap</text>
</g>
<!-- Sig(input) -->
<g id="node17" class="node">
<title>Sig(input)</title>
<ellipse fill="none" stroke="black" cx="1183.11" cy="-216.85" rx="46.29" ry="18"/>
<text text-anchor="middle" x="1183.11" y="-213.15" font-family="Times,serif" font-size="14.00">Sig(input)</text>
</g>
<!-- SigMap&#45;&gt;Sig(input) -->
<g id="edge15" class="edge">
<title>SigMap&#45;&gt;Sig(input)</title>
<path fill="none" stroke="purple" d="M1003.31,-243.43C1038.08,-238.26 1090.77,-230.43 1129.95,-224.61"/>
<polygon fill="purple" stroke="purple" points="1130.48,-228.07 1139.86,-223.13 1129.45,-221.14 1130.48,-228.07"/>
</g>
<!-- Sig(filters) -->
<g id="node18" class="node">
<title>Sig(filters)</title>
<ellipse fill="none" stroke="black" cx="1183.11" cy="-162.85" rx="48.99" ry="18"/>
<text text-anchor="middle" x="1183.11" y="-159.15" font-family="Times,serif" font-size="14.00">Sig(filters)</text>
</g>
<!-- SigMap&#45;&gt;Sig(filters) -->
<g id="edge16" class="edge">
<title>SigMap&#45;&gt;Sig(filters)</title>
<path fill="none" stroke="purple" d="M985.38,-233.2C1002.32,-219.73 1028.58,-200.79 1054.43,-189.85 1077.15,-180.24 1103.64,-173.92 1126.59,-169.83"/>
<polygon fill="purple" stroke="purple" points="1127.24,-173.27 1136.52,-168.15 1126.07,-166.36 1127.24,-173.27"/>
</g>
<!-- Sig(strides) -->
<g id="node19" class="node">
<title>Sig(strides)</title>
<ellipse fill="none" stroke="black" cx="1183.11" cy="-108.85" rx="51.19" ry="18"/>
<text text-anchor="middle" x="1183.11" y="-105.15" font-family="Times,serif" font-size="14.00">Sig(strides)</text>
</g>
<!-- SigMap&#45;&gt;Sig(strides) -->
<g id="edge17" class="edge">
<title>SigMap&#45;&gt;Sig(strides)</title>
<path fill="none" stroke="purple" d="M975.35,-231.16C988.61,-205.81 1016.56,-159.58 1054.43,-135.85 1074.49,-123.28 1099.45,-116.47 1121.96,-112.82"/>
<polygon fill="purple" stroke="purple" points="1122.71,-116.25 1132.11,-111.35 1121.71,-109.32 1122.71,-116.25"/>
</g>
<!-- Sig(dilations) -->
<g id="node20" class="node">
<title>Sig(dilations)</title>
<ellipse fill="none" stroke="black" cx="1183.11" cy="-324.85" rx="58.49" ry="18"/>
<text text-anchor="middle" x="1183.11" y="-321.15" font-family="Times,serif" font-size="14.00">Sig(dilations)</text>
</g>
<!-- SigMap&#45;&gt;Sig(dilations) -->
<g id="edge18" class="edge">
<title>SigMap&#45;&gt;Sig(dilations)</title>
<path fill="none" stroke="purple" d="M988.58,-263.49C1005.79,-274.43 1030.76,-288.97 1054.43,-297.85 1075.12,-305.62 1098.58,-311.39 1119.7,-315.55"/>
<polygon fill="purple" stroke="purple" points="1119.06,-319 1129.54,-317.41 1120.36,-312.12 1119.06,-319"/>
</g>
<!-- Sig(return[0]) -->
<g id="node21" class="node">
<title>Sig(return[0])</title>
<ellipse fill="none" stroke="black" cx="1183.11" cy="-270.85" rx="59.59" ry="18"/>
<text text-anchor="middle" x="1183.11" y="-267.15" font-family="Times,serif" font-size="14.00">Sig(return[0])</text>
</g>
<!-- SigMap&#45;&gt;Sig(return[0]) -->
<g id="edge19" class="edge">
<title>SigMap&#45;&gt;Sig(return[0])</title>
<path fill="none" stroke="purple" d="M1004.29,-252.69C1035.02,-255.83 1079.25,-260.34 1115.92,-264.09"/>
<polygon fill="purple" stroke="purple" points="1115.73,-267.59 1126.04,-265.12 1116.45,-260.63 1115.73,-267.59"/>
</g>
<!-- Sig(input)&#45;&gt;Layout(layout) -->
<g id="edge42" class="edge">
<title>Sig(input)&#45;&gt;Layout(layout)</title>
<path fill="none" stroke="black" d="M1224.42,-208.65C1267.96,-199.79 1337.86,-185.57 1388.21,-175.32"/>
<polygon fill="black" stroke="black" points="1389.23,-178.69 1398.33,-173.26 1387.83,-171.83 1389.23,-178.69"/>
</g>
<!-- Sig(filters)&#45;&gt;Layout(layout) -->
<g id="edge45" class="edge">
<title>Sig(filters)&#45;&gt;Layout(layout)</title>
<path fill="none" stroke="black" d="M1231.87,-162.85C1272.1,-162.85 1330.31,-162.85 1376.4,-162.85"/>
<polygon fill="black" stroke="black" points="1376.64,-166.35 1386.64,-162.85 1376.64,-159.35 1376.64,-166.35"/>
</g>
<!-- Sig(strides)&#45;&gt;Layout(layout) -->
<g id="edge47" class="edge">
<title>Sig(strides)&#45;&gt;Layout(layout)</title>
<path fill="none" stroke="black" d="M1227.94,-117.77C1271.73,-126.68 1339.44,-140.46 1388.48,-150.44"/>
<polygon fill="black" stroke="black" points="1387.84,-153.88 1398.34,-152.44 1389.23,-147.02 1387.84,-153.88"/>
</g>
<!-- Sig(dilations)&#45;&gt;Layout(layout) -->
<g id="edge49" class="edge">
<title>Sig(dilations)&#45;&gt;Layout(layout)</title>
<path fill="none" stroke="black" d="M1239.58,-320.06C1262.93,-316.33 1289.73,-309.68 1311.8,-297.85 1362.24,-270.82 1406.71,-219.7 1430.69,-188.71"/>
<polygon fill="black" stroke="black" points="1433.64,-190.62 1436.9,-180.54 1428.07,-186.39 1433.64,-190.62"/>
</g>
<!-- Sig(return[0])&#45;&gt;Layout(layout) -->
<g id="edge51" class="edge">
<title>Sig(return[0])&#45;&gt;Layout(layout)</title>
<path fill="none" stroke="black" d="M1237.72,-263.49C1260.99,-259.29 1288.25,-252.99 1311.8,-243.85 1350.53,-228.83 1391.08,-203.66 1418.06,-185.35"/>
<polygon fill="black" stroke="black" points="1420.06,-188.22 1426.32,-179.67 1416.1,-182.45 1420.06,-188.22"/>
</g>
<!-- ArgRanks -->
<g id="node22" class="node">
<title>ArgRanks</title>
<ellipse fill="none" stroke="black" cx="775.09" cy="-294.85" rx="46.29" ry="18"/>
<text text-anchor="middle" x="775.09" y="-291.15" font-family="Times,serif" font-size="14.00">ArgRanks</text>
</g>
<!-- ArgRanks&#45;&gt;IndexRanks -->
<g id="edge20" class="edge">
<title>ArgRanks&#45;&gt;IndexRanks</title>
<path fill="none" stroke="black" d="M819.04,-300.42C838.64,-304.83 861.01,-312.72 877.13,-326.85 925.88,-369.57 949.48,-445.2 959.15,-485.96"/>
<polygon fill="black" stroke="black" points="955.75,-486.79 961.36,-495.77 962.58,-485.24 955.75,-486.79"/>
</g>
<!-- ArgRanks&#45;&gt;SigMap -->
<g id="edge21" class="edge">
<title>ArgRanks&#45;&gt;SigMap</title>
<path fill="none" stroke="black" d="M814.73,-285.43C845.57,-277.92 888.79,-267.38 920.92,-259.55"/>
<polygon fill="black" stroke="black" points="922.05,-262.87 930.94,-257.1 920.39,-256.07 922.05,-262.87"/>
</g>
<!-- ArgIndels -->
<g id="node23" class="node">
<title>ArgIndels</title>
<ellipse fill="none" stroke="black" cx="551.26" cy="-294.85" rx="46.29" ry="18"/>
<text text-anchor="middle" x="551.26" y="-291.15" font-family="Times,serif" font-size="14.00">ArgIndels</text>
</g>
<!-- ArgIndels&#45;&gt;ArgRanks -->
<g id="edge22" class="edge">
<title>ArgIndels&#45;&gt;ArgRanks</title>
<path fill="none" stroke="black" d="M597.42,-294.85C632.39,-294.85 681.01,-294.85 718.39,-294.85"/>
<polygon fill="black" stroke="black" points="718.62,-298.35 728.62,-294.85 718.62,-291.35 718.62,-298.35"/>
</g>
<!-- ArgMutations -->
<g id="node24" class="node">
<title>ArgMutations</title>
<ellipse fill="none" stroke="black" cx="360.57" cy="-289.85" rx="60.39" ry="18"/>
<text text-anchor="middle" x="360.57" y="-286.15" font-family="Times,serif" font-size="14.00">ArgMutations</text>
</g>
<!-- ArgMutations&#45;&gt;IndexRanks -->
<g id="edge24" class="edge">
<title>ArgMutations&#45;&gt;IndexRanks</title>
<path fill="none" stroke="black" d="M401.81,-303.08C420.99,-309.17 444.3,-316.26 465.47,-321.85 540.98,-341.81 563.12,-334.65 637.05,-359.85 747.19,-397.41 869.39,-461.16 928.63,-493.6"/>
<polygon fill="black" stroke="black" points="927.14,-496.77 937.59,-498.53 930.51,-490.64 927.14,-496.77"/>
</g>
<!-- ArgMutations&#45;&gt;SigMap -->
<g id="edge25" class="edge">
<title>ArgMutations&#45;&gt;SigMap</title>
<path fill="none" stroke="black" d="M407.32,-278.41C425.33,-274.36 446.26,-270.24 465.47,-267.85 630.05,-247.45 827.29,-246.92 916.61,-247.97"/>
<polygon fill="black" stroke="black" points="916.66,-251.47 926.71,-248.1 916.75,-244.47 916.66,-251.47"/>
</g>
<!-- ArgMutations&#45;&gt;ArgIndels -->
<g id="edge23" class="edge">
<title>ArgMutations&#45;&gt;ArgIndels</title>
<path fill="none" stroke="black" d="M421.02,-291.43C444.73,-292.06 471.87,-292.78 495.13,-293.39"/>
<polygon fill="black" stroke="black" points="495.09,-296.89 505.18,-293.66 495.28,-289.9 495.09,-296.89"/>
</g>
<!-- Options(padding) -->
<g id="node25" class="node">
<title>Options(padding)</title>
<ellipse fill="none" stroke="red" cx="551.26" cy="-386.85" rx="72.59" ry="18"/>
<text text-anchor="middle" x="551.26" y="-383.15" font-family="Times,serif" font-size="14.00">Options(padding)</text>
</g>
<!-- ArgMutations&#45;&gt;Options(padding) -->
<g id="edge26" class="edge">
<title>ArgMutations&#45;&gt;Options(padding)</title>
<path fill="none" stroke="purple" d="M385.14,-306.49C405.71,-320.54 436.68,-340.59 465.47,-354.85 475.51,-359.83 486.52,-364.51 497.19,-368.68"/>
<polygon fill="purple" stroke="purple" points="496.27,-372.07 506.86,-372.35 498.75,-365.53 496.27,-372.07"/>
</g>
<!-- Args -->
<g id="node26" class="node">
<title>Args</title>
<ellipse fill="none" stroke="black" cx="27.95" cy="-257.85" rx="27.9" ry="18"/>
<text text-anchor="middle" x="27.95" y="-254.15" font-family="Times,serif" font-size="14.00">Args</text>
</g>
<!-- Args&#45;&gt;Options(padding) -->
<g id="edge30" class="edge">
<title>Args&#45;&gt;Options(padding)</title>
<path fill="none" stroke="purple" d="M33.59,-275.83C41.13,-300.95 58.66,-345.73 91.9,-365.85 215.99,-440.99 395.49,-419.85 488.77,-401.39"/>
<polygon fill="purple" stroke="purple" points="489.51,-404.81 498.61,-399.39 488.12,-397.95 489.51,-404.81"/>
</g>
<!-- DataFormat(data_format) -->
<g id="node27" class="node">
<title>DataFormat(data_format)</title>
<ellipse fill="none" stroke="red" cx="775.09" cy="-18.85" rx="102.08" ry="18"/>
<text text-anchor="middle" x="775.09" y="-15.15" font-family="Times,serif" font-size="14.00">DataFormat(data_format)</text>
</g>
<!-- Args&#45;&gt;DataFormat(data_format) -->
<g id="edge27" class="edge">
<title>Args&#45;&gt;DataFormat(data_format)</title>
<path fill="none" stroke="purple" d="M34.5,-240C42.95,-215.85 61.34,-173.13 91.9,-149.85 262.63,-19.77 525.7,-7.24 670.2,-11.69"/>
<polygon fill="purple" stroke="purple" points="670.28,-15.2 680.39,-12.04 670.52,-8.2 670.28,-15.2"/>
</g>
<!-- DataTensor(input) -->
<g id="node28" class="node">
<title>DataTensor(input)</title>
<ellipse fill="none" stroke="red" cx="173.79" cy="-176.85" rx="75.29" ry="18"/>
<text text-anchor="middle" x="173.79" y="-173.15" font-family="Times,serif" font-size="14.00">DataTensor(input)</text>
</g>
<!-- Args&#45;&gt;DataTensor(input) -->
<g id="edge28" class="edge">
<title>Args&#45;&gt;DataTensor(input)</title>
<path fill="none" stroke="purple" d="M43.21,-242.74C55.21,-230.77 73.36,-214.36 91.9,-203.85 98.6,-200.06 105.92,-196.69 113.33,-193.73"/>
<polygon fill="purple" stroke="purple" points="114.59,-196.99 122.72,-190.2 112.13,-190.44 114.59,-196.99"/>
</g>
<!-- DataTensor(filters) -->
<g id="node29" class="node">
<title>DataTensor(filters)</title>
<ellipse fill="none" stroke="red" cx="173.79" cy="-230.85" rx="77.99" ry="18"/>
<text text-anchor="middle" x="173.79" y="-227.15" font-family="Times,serif" font-size="14.00">DataTensor(filters)</text>
</g>
<!-- Args&#45;&gt;DataTensor(filters) -->
<g id="edge29" class="edge">
<title>Args&#45;&gt;DataTensor(filters)</title>
<path fill="none" stroke="purple" d="M55,-252.96C68.46,-250.44 85.61,-247.22 102.63,-244.02"/>
<polygon fill="purple" stroke="purple" points="103.43,-247.43 112.61,-242.15 102.14,-240.55 103.43,-247.43"/>
</g>
<!-- ShapeList(strides) -->
<g id="node30" class="node">
<title>ShapeList(strides)</title>
<ellipse fill="none" stroke="red" cx="173.79" cy="-338.85" rx="74.99" ry="18"/>
<text text-anchor="middle" x="173.79" y="-335.15" font-family="Times,serif" font-size="14.00">ShapeList(strides)</text>
</g>
<!-- Args&#45;&gt;ShapeList(strides) -->
<g id="edge31" class="edge">
<title>Args&#45;&gt;ShapeList(strides)</title>
<path fill="none" stroke="purple" d="M43.21,-272.97C55.21,-284.94 73.36,-301.35 91.9,-311.85 98.6,-315.65 105.92,-319.02 113.33,-321.98"/>
<polygon fill="purple" stroke="purple" points="112.13,-325.27 122.72,-325.51 114.59,-318.72 112.13,-325.27"/>
</g>
<!-- ShapeList(dilations) -->
<g id="node31" class="node">
<title>ShapeList(dilations)</title>
<ellipse fill="none" stroke="red" cx="173.79" cy="-284.85" rx="81.79" ry="18"/>
<text text-anchor="middle" x="173.79" y="-281.15" font-family="Times,serif" font-size="14.00">ShapeList(dilations)</text>
</g>
<!-- Args&#45;&gt;ShapeList(dilations) -->
<g id="edge32" class="edge">
<title>Args&#45;&gt;ShapeList(dilations)</title>
<path fill="none" stroke="purple" d="M55,-262.74C68,-265.18 84.44,-268.27 100.88,-271.36"/>
<polygon fill="purple" stroke="purple" points="100.62,-274.87 111.09,-273.27 101.91,-267.99 100.62,-274.87"/>
</g>
<!-- DataFormat(data_format)&#45;&gt;Layout(layout) -->
<g id="edge39" class="edge">
<title>DataFormat(data_format)&#45;&gt;Layout(layout)</title>
<path fill="none" stroke="black" d="M857.47,-8.09C965.43,2.83 1160.04,10.66 1311.8,-48.85 1359.66,-67.62 1403.24,-109.83 1428.03,-137.29"/>
<polygon fill="black" stroke="black" points="1425.56,-139.78 1434.81,-144.95 1430.81,-135.14 1425.56,-139.78"/>
</g>
<!-- DataFormat(data_format)&#45;&gt;IndexRanks -->
<g id="edge38" class="edge">
<title>DataFormat(data_format)&#45;&gt;IndexRanks</title>
<path fill="none" stroke="black" d="M800.89,-36.59C824.22,-54.62 858.29,-84.72 877.13,-118.85 879.41,-122.97 939.15,-396.35 958.67,-485.84"/>
<polygon fill="black" stroke="black" points="955.3,-486.79 960.85,-495.81 962.14,-485.29 955.3,-486.79"/>
</g>
<!-- DataTensor(input)&#45;&gt;DTypesNotImpl -->
<g id="edge41" class="edge">
<title>DataTensor(input)&#45;&gt;DTypesNotImpl</title>
<path fill="none" stroke="black" d="M249.15,-175.65C259.79,-175.47 270.76,-175.3 281.47,-175.12"/>
<polygon fill="black" stroke="black" points="281.7,-178.62 291.64,-174.96 281.58,-171.62 281.7,-178.62"/>
</g>
<!-- DataTensor(input)&#45;&gt;ArgMutations -->
<g id="edge40" class="edge">
<title>DataTensor(input)&#45;&gt;ArgMutations</title>
<path fill="none" stroke="black" d="M224.79,-190.33C235.3,-194.04 246.1,-198.54 255.68,-203.85 285.68,-220.51 315.38,-246.28 335.29,-265.27"/>
<polygon fill="black" stroke="black" points="333.07,-267.99 342.68,-272.43 337.94,-262.96 333.07,-267.99"/>
</g>
<!-- DataTensor(filters)&#45;&gt;DTypesNotImpl -->
<g id="edge44" class="edge">
<title>DataTensor(filters)&#45;&gt;DTypesNotImpl</title>
<path fill="none" stroke="black" d="M221.42,-216.47C247.03,-208.57 278.93,-198.73 305.61,-190.5"/>
<polygon fill="black" stroke="black" points="306.66,-193.84 315.19,-187.55 304.6,-187.15 306.66,-193.84"/>
</g>
<!-- DataTensor(filters)&#45;&gt;ArgMutations -->
<g id="edge43" class="edge">
<title>DataTensor(filters)&#45;&gt;ArgMutations</title>
<path fill="none" stroke="black" d="M220.47,-245.44C247.21,-253.98 281.05,-264.78 308.65,-273.59"/>
<polygon fill="black" stroke="black" points="307.93,-277.04 318.52,-276.74 310.05,-270.37 307.93,-277.04"/>
</g>
<!-- ShapeList(strides)&#45;&gt;ArgMutations -->
<g id="edge46" class="edge">
<title>ShapeList(strides)&#45;&gt;ArgMutations</title>
<path fill="none" stroke="black" d="M224.79,-325.59C249.61,-319.01 279.64,-311.05 305.04,-304.31"/>
<polygon fill="black" stroke="black" points="306.12,-307.65 314.89,-301.7 304.33,-300.88 306.12,-307.65"/>
</g>
<!-- ShapeList(dilations)&#45;&gt;ArgMutations -->
<g id="edge48" class="edge">
<title>ShapeList(dilations)&#45;&gt;ArgMutations</title>
<path fill="none" stroke="black" d="M255.3,-287.03C266.84,-287.34 278.64,-287.66 289.94,-287.97"/>
<polygon fill="black" stroke="black" points="290.08,-291.47 300.17,-288.25 290.27,-284.48 290.08,-291.47"/>
</g>
</g>
</svg>
