<?xml version="1.0" encoding="UTF-8" standalone="no"?>
<!DOCTYPE svg PUBLIC "-//W3C//DTD SVG 1.1//EN"
 "http://www.w3.org/Graphics/SVG/1.1/DTD/svg11.dtd">
<!-- Generated by graphviz version 2.43.0 (0)
 -->
<!-- Title: %3 Pages: 1 -->
<svg width="1351pt" height="790pt"
 viewBox="0.00 0.00 1351.00 790.00" xmlns="http://www.w3.org/2000/svg" xmlns:xlink="http://www.w3.org/1999/xlink">
<g id="graph0" class="graph" transform="scale(1 1) rotate(0) translate(4 786)">
<title>%3</title>
<polygon fill="white" stroke="transparent" points="-4,4 -4,-786 1347,-786 1347,4 -4,4"/>
<!-- ObservedValue(dtypes) -->
<g id="node1" class="node">
<title>ObservedValue(dtypes)</title>
<ellipse fill="none" stroke="black" cx="714.65" cy="-764" rx="92.88" ry="18"/>
<text text-anchor="middle" x="714.65" y="-760.3" font-family="Times,serif" font-size="14.00">ObservedValue(dtypes)</text>
</g>
<!-- ObservedValue(shapes) -->
<g id="node2" class="node">
<title>ObservedValue(shapes)</title>
<ellipse fill="none" stroke="black" cx="714.65" cy="-114" rx="93.68" ry="18"/>
<text text-anchor="middle" x="714.65" y="-110.3" font-family="Times,serif" font-size="14.00">ObservedValue(shapes)</text>
</g>
<!-- ObservedValue(args) -->
<g id="node3" class="node">
<title>ObservedValue(args)</title>
<ellipse fill="none" stroke="black" cx="371.62" cy="-218" rx="85.29" ry="18"/>
<text text-anchor="middle" x="371.62" y="-214.3" font-family="Times,serif" font-size="14.00">ObservedValue(args)</text>
</g>
<!-- Layout(layout) -->
<g id="node4" class="node">
<title>Layout(layout)</title>
<ellipse fill="none" stroke="black" cx="1240.31" cy="-180" rx="63.89" ry="18"/>
<text text-anchor="middle" x="1240.31" y="-176.3" font-family="Times,serif" font-size="14.00">Layout(layout)</text>
</g>
<!-- IndexRanks -->
<g id="node5" class="node">
<title>IndexRanks</title>
<ellipse fill="none" stroke="black" cx="714.65" cy="-445" rx="52.79" ry="18"/>
<text text-anchor="middle" x="714.65" y="-441.3" font-family="Times,serif" font-size="14.00">IndexRanks</text>
</g>
<!-- RankRange(batch) -->
<g id="node6" class="node">
<title>RankRange(batch)</title>
<ellipse fill="none" stroke="black" cx="972.93" cy="-310" rx="76.89" ry="18"/>
<text text-anchor="middle" x="972.93" y="-306.3" font-family="Times,serif" font-size="14.00">RankRange(batch)</text>
</g>
<!-- IndexRanks&#45;&gt;RankRange(batch) -->
<g id="edge1" class="edge">
<title>IndexRanks&#45;&gt;RankRange(batch)</title>
<path fill="none" stroke="purple" d="M730.82,-427.77C753.15,-403.56 797.33,-359.86 844.24,-337 859.65,-329.49 877.1,-324.06 894.05,-320.14"/>
<polygon fill="purple" stroke="purple" points="894.91,-323.53 903.94,-318 893.43,-316.69 894.91,-323.53"/>
</g>
<!-- RankRange(input_spatial) -->
<g id="node7" class="node">
<title>RankRange(input_spatial)</title>
<ellipse fill="none" stroke="black" cx="1240.31" cy="-595" rx="102.88" ry="18"/>
<text text-anchor="middle" x="1240.31" y="-591.3" font-family="Times,serif" font-size="14.00">RankRange(input_spatial)</text>
</g>
<!-- IndexRanks&#45;&gt;RankRange(input_spatial) -->
<g id="edge2" class="edge">
<title>IndexRanks&#45;&gt;RankRange(input_spatial)</title>
<path fill="none" stroke="purple" d="M730.15,-462.47C752,-487.41 795.95,-532.46 844.24,-553 894.02,-574.18 1031.13,-585.17 1129.85,-590.51"/>
<polygon fill="purple" stroke="purple" points="1129.71,-594.01 1139.88,-591.04 1130.08,-587.02 1129.71,-594.01"/>
</g>
<!-- RankRange(input_channel) -->
<g id="node8" class="node">
<title>RankRange(input_channel)</title>
<ellipse fill="none" stroke="black" cx="972.93" cy="-472" rx="107.48" ry="18"/>
<text text-anchor="middle" x="972.93" y="-468.3" font-family="Times,serif" font-size="14.00">RankRange(input_channel)</text>
</g>
<!-- IndexRanks&#45;&gt;RankRange(input_channel) -->
<g id="edge3" class="edge">
<title>IndexRanks&#45;&gt;RankRange(input_channel)</title>
<path fill="none" stroke="purple" d="M765.06,-450.21C795.24,-453.39 834.94,-457.57 871.48,-461.42"/>
<polygon fill="purple" stroke="purple" points="871.38,-464.93 881.69,-462.49 872.11,-457.96 871.38,-464.93"/>
</g>
<!-- RankEquiv(filter_spatial) -->
<g id="node9" class="node">
<title>RankEquiv(filter_spatial)</title>
<ellipse fill="none" stroke="black" cx="972.93" cy="-526" rx="100.98" ry="18"/>
<text text-anchor="middle" x="972.93" y="-522.3" font-family="Times,serif" font-size="14.00">RankEquiv(filter_spatial)</text>
</g>
<!-- IndexRanks&#45;&gt;RankEquiv(filter_spatial) -->
<g id="edge4" class="edge">
<title>IndexRanks&#45;&gt;RankEquiv(filter_spatial)</title>
<path fill="none" stroke="purple" d="M745.96,-459.65C771.64,-471.6 809.69,-488.2 844.24,-499 859.05,-503.63 875.08,-507.72 890.61,-511.22"/>
<polygon fill="purple" stroke="purple" points="890.21,-514.71 900.73,-513.43 891.71,-507.87 890.21,-514.71"/>
</g>
<!-- RankEquiv(dilated_filter_spatial) -->
<g id="node10" class="node">
<title>RankEquiv(dilated_filter_spatial)</title>
<ellipse fill="none" stroke="black" cx="972.93" cy="-672" rx="128.88" ry="18"/>
<text text-anchor="middle" x="972.93" y="-668.3" font-family="Times,serif" font-size="14.00">RankEquiv(dilated_filter_spatial)</text>
</g>
<!-- IndexRanks&#45;&gt;RankEquiv(dilated_filter_spatial) -->
<g id="edge5" class="edge">
<title>IndexRanks&#45;&gt;RankEquiv(dilated_filter_spatial)</title>
<path fill="none" stroke="purple" d="M721.77,-463.09C736.22,-502.9 776.45,-598.24 844.24,-645 850.8,-649.52 857.96,-653.31 865.44,-656.49"/>
<polygon fill="purple" stroke="purple" points="864.48,-659.86 875.07,-660.18 866.99,-653.33 864.48,-659.86"/>
</g>
<!-- RankRange(output_channel) -->
<g id="node11" class="node">
<title>RankRange(output_channel)</title>
<ellipse fill="none" stroke="black" cx="972.93" cy="-418" rx="111.58" ry="18"/>
<text text-anchor="middle" x="972.93" y="-414.3" font-family="Times,serif" font-size="14.00">RankRange(output_channel)</text>
</g>
<!-- IndexRanks&#45;&gt;RankRange(output_channel) -->
<g id="edge6" class="edge">
<title>IndexRanks&#45;&gt;RankRange(output_channel)</title>
<path fill="none" stroke="purple" d="M765.06,-439.79C794.51,-436.69 833.02,-432.63 868.81,-428.86"/>
<polygon fill="purple" stroke="purple" points="869.25,-432.34 878.83,-427.81 868.52,-425.38 869.25,-432.34"/>
</g>
<!-- RankEquiv(output_spatial) -->
<g id="node12" class="node">
<title>RankEquiv(output_spatial)</title>
<ellipse fill="none" stroke="black" cx="972.93" cy="-618" rx="105.88" ry="18"/>
<text text-anchor="middle" x="972.93" y="-614.3" font-family="Times,serif" font-size="14.00">RankEquiv(output_spatial)</text>
</g>
<!-- IndexRanks&#45;&gt;RankEquiv(output_spatial) -->
<g id="edge7" class="edge">
<title>IndexRanks&#45;&gt;RankEquiv(output_spatial)</title>
<path fill="none" stroke="purple" d="M726.73,-462.8C746.48,-492.99 790.77,-554.06 844.24,-586 856.24,-593.17 869.79,-598.74 883.47,-603.06"/>
<polygon fill="purple" stroke="purple" points="882.85,-606.53 893.44,-606 884.83,-599.81 882.85,-606.53"/>
</g>
<!-- RankRange(rate) -->
<g id="node13" class="node">
<title>RankRange(rate)</title>
<ellipse fill="none" stroke="black" cx="972.93" cy="-364" rx="70.69" ry="18"/>
<text text-anchor="middle" x="972.93" y="-360.3" font-family="Times,serif" font-size="14.00">RankRange(rate)</text>
</g>
<!-- IndexRanks&#45;&gt;RankRange(rate) -->
<g id="edge8" class="edge">
<title>IndexRanks&#45;&gt;RankRange(rate)</title>
<path fill="none" stroke="purple" d="M745.96,-430.35C771.64,-418.4 809.69,-401.8 844.24,-391 863.21,-385.07 884.17,-380.03 903.53,-375.98"/>
<polygon fill="purple" stroke="purple" points="904.39,-379.37 913.49,-373.94 902.99,-372.51 904.39,-379.37"/>
</g>
<!-- RankEquiv(filter_spatial)&#45;&gt;RankRange(input_spatial) -->
<g id="edge29" class="edge">
<title>RankEquiv(filter_spatial)&#45;&gt;RankRange(input_spatial)</title>
<path fill="none" stroke="black" d="M1032.78,-540.53C1054.45,-545.93 1079.17,-552.17 1101.62,-558 1125.31,-564.15 1151.23,-571.07 1174.14,-577.24"/>
<polygon fill="black" stroke="black" points="1173.53,-580.7 1184.09,-579.93 1175.35,-573.95 1173.53,-580.7"/>
</g>
<!-- RankEquiv(dilated_filter_spatial)&#45;&gt;RankRange(input_spatial) -->
<g id="edge30" class="edge">
<title>RankEquiv(dilated_filter_spatial)&#45;&gt;RankRange(input_spatial)</title>
<path fill="none" stroke="black" d="M1050.66,-657.6C1067.55,-653.92 1085.28,-649.67 1101.62,-645 1131,-636.6 1163.13,-625.08 1188.96,-615.2"/>
<polygon fill="black" stroke="black" points="1190.46,-618.38 1198.53,-611.51 1187.94,-611.85 1190.46,-618.38"/>
</g>
<!-- RankEquiv(output_spatial)&#45;&gt;RankRange(input_spatial) -->
<g id="edge31" class="edge">
<title>RankEquiv(output_spatial)&#45;&gt;RankRange(input_spatial)</title>
<path fill="none" stroke="black" d="M1067.87,-609.86C1090.47,-607.9 1114.71,-605.8 1137.64,-603.81"/>
<polygon fill="black" stroke="black" points="1138.07,-607.29 1147.73,-602.94 1137.46,-600.31 1138.07,-607.29"/>
</g>
<!-- DTypes -->
<g id="node14" class="node">
<title>DTypes</title>
<ellipse fill="none" stroke="black" cx="538.91" cy="-568" rx="38.19" ry="18"/>
<text text-anchor="middle" x="538.91" y="-564.3" font-family="Times,serif" font-size="14.00">DTypes</text>
</g>
<!-- DTypes&#45;&gt;ObservedValue(dtypes) -->
<g id="edge9" class="edge">
<title>DTypes&#45;&gt;ObservedValue(dtypes)</title>
<path fill="none" stroke="black" d="M544.01,-586.07C552.53,-619.59 575.29,-691.69 621.06,-732 627.64,-737.8 635.33,-742.56 643.42,-746.47"/>
<polygon fill="black" stroke="black" points="642.11,-749.71 652.67,-750.52 644.92,-743.3 642.11,-749.71"/>
</g>
<!-- DTypes&#45;&gt;Layout(layout) -->
<g id="edge11" class="edge">
<title>DTypes&#45;&gt;Layout(layout)</title>
<path fill="none" stroke="black" d="M560.02,-583.21C638.33,-640.47 927.21,-833.17 1101.62,-699 1104.16,-697.05 1203.95,-315.41 1232.03,-207.9"/>
<polygon fill="black" stroke="black" points="1235.45,-208.65 1234.59,-198.09 1228.68,-206.88 1235.45,-208.65"/>
</g>
<!-- DTypes&#45;&gt;IndexRanks -->
<g id="edge10" class="edge">
<title>DTypes&#45;&gt;IndexRanks</title>
<path fill="none" stroke="black" d="M560.87,-553.16C591.07,-531.78 647.06,-492.14 682.22,-467.25"/>
<polygon fill="black" stroke="black" points="684.55,-469.89 690.69,-461.26 680.5,-464.18 684.55,-469.89"/>
</g>
<!-- SigMap -->
<g id="node15" class="node">
<title>SigMap</title>
<ellipse fill="none" stroke="black" cx="714.65" cy="-168" rx="38.99" ry="18"/>
<text text-anchor="middle" x="714.65" y="-164.3" font-family="Times,serif" font-size="14.00">SigMap</text>
</g>
<!-- Sig(value) -->
<g id="node16" class="node">
<title>Sig(value)</title>
<ellipse fill="none" stroke="black" cx="972.93" cy="-180" rx="47.39" ry="18"/>
<text text-anchor="middle" x="972.93" y="-176.3" font-family="Times,serif" font-size="14.00">Sig(value)</text>
</g>
<!-- SigMap&#45;&gt;Sig(value) -->
<g id="edge12" class="edge">
<title>SigMap&#45;&gt;Sig(value)</title>
<path fill="none" stroke="purple" d="M753.46,-169.77C796.23,-171.77 866.31,-175.05 915.54,-177.36"/>
<polygon fill="purple" stroke="purple" points="915.56,-180.86 925.71,-177.84 915.88,-173.87 915.56,-180.86"/>
</g>
<!-- Sig(filters) -->
<g id="node17" class="node">
<title>Sig(filters)</title>
<ellipse fill="none" stroke="black" cx="972.93" cy="-126" rx="48.99" ry="18"/>
<text text-anchor="middle" x="972.93" y="-122.3" font-family="Times,serif" font-size="14.00">Sig(filters)</text>
</g>
<!-- SigMap&#45;&gt;Sig(filters) -->
<g id="edge13" class="edge">
<title>SigMap&#45;&gt;Sig(filters)</title>
<path fill="none" stroke="purple" d="M751.55,-162.12C794.86,-155.02 868.06,-143.02 918.12,-134.82"/>
<polygon fill="purple" stroke="purple" points="918.82,-138.25 928.12,-133.18 917.68,-131.34 918.82,-138.25"/>
</g>
<!-- Sig(rate) -->
<g id="node18" class="node">
<title>Sig(rate)</title>
<ellipse fill="none" stroke="black" cx="972.93" cy="-72" rx="41.69" ry="18"/>
<text text-anchor="middle" x="972.93" y="-68.3" font-family="Times,serif" font-size="14.00">Sig(rate)</text>
</g>
<!-- SigMap&#45;&gt;Sig(rate) -->
<g id="edge14" class="edge">
<title>SigMap&#45;&gt;Sig(rate)</title>
<path fill="none" stroke="purple" d="M751.98,-162.46C769.96,-158.51 791.36,-151.89 808.24,-141 828.9,-127.67 823.09,-111.54 844.24,-99 867.43,-85.25 896.65,-78.45 921.29,-75.1"/>
<polygon fill="purple" stroke="purple" points="922.02,-78.54 931.53,-73.87 921.19,-71.59 922.02,-78.54"/>
</g>
<!-- Sig(return[0]) -->
<g id="node19" class="node">
<title>Sig(return[0])</title>
<ellipse fill="none" stroke="black" cx="972.93" cy="-18" rx="59.59" ry="18"/>
<text text-anchor="middle" x="972.93" y="-14.3" font-family="Times,serif" font-size="14.00">Sig(return[0])</text>
</g>
<!-- SigMap&#45;&gt;Sig(return[0]) -->
<g id="edge15" class="edge">
<title>SigMap&#45;&gt;Sig(return[0])</title>
<path fill="none" stroke="purple" d="M753.35,-164.89C771.89,-161.56 793.39,-154.78 808.24,-141 841.65,-110.01 809.69,-74.71 844.24,-45 860.48,-31.03 882.14,-23.7 903,-20.01"/>
<polygon fill="purple" stroke="purple" points="903.78,-23.43 913.15,-18.47 902.74,-16.51 903.78,-23.43"/>
</g>
<!-- Sig(value)&#45;&gt;Layout(layout) -->
<g id="edge32" class="edge">
<title>Sig(value)&#45;&gt;Layout(layout)</title>
<path fill="none" stroke="black" d="M1020.46,-180C1060.76,-180 1119.74,-180 1166.32,-180"/>
<polygon fill="black" stroke="black" points="1166.36,-183.5 1176.36,-180 1166.36,-176.5 1166.36,-183.5"/>
</g>
<!-- Sig(filters)&#45;&gt;Layout(layout) -->
<g id="edge33" class="edge">
<title>Sig(filters)&#45;&gt;Layout(layout)</title>
<path fill="none" stroke="black" d="M1015.98,-134.56C1059.6,-143.43 1128.24,-157.4 1177.92,-167.51"/>
<polygon fill="black" stroke="black" points="1177.41,-170.98 1187.91,-169.54 1178.81,-164.12 1177.41,-170.98"/>
</g>
<!-- Sig(rate)&#45;&gt;Layout(layout) -->
<g id="edge35" class="edge">
<title>Sig(rate)&#45;&gt;Layout(layout)</title>
<path fill="none" stroke="black" d="M1013.14,-76.93C1038.9,-80.98 1072.99,-87.9 1101.62,-99 1140.35,-114.03 1180.9,-139.2 1207.87,-157.5"/>
<polygon fill="black" stroke="black" points="1205.91,-160.4 1216.14,-163.18 1209.88,-154.63 1205.91,-160.4"/>
</g>
<!-- Sig(return[0])&#45;&gt;Layout(layout) -->
<g id="edge36" class="edge">
<title>Sig(return[0])&#45;&gt;Layout(layout)</title>
<path fill="none" stroke="black" d="M1030.67,-23C1053.71,-26.77 1079.95,-33.39 1101.62,-45 1152.06,-72.03 1196.52,-123.15 1220.51,-154.14"/>
<polygon fill="black" stroke="black" points="1217.88,-156.47 1226.72,-162.31 1223.45,-152.23 1217.88,-156.47"/>
</g>
<!-- ArgIndels -->
<g id="node20" class="node">
<title>ArgIndels</title>
<ellipse fill="none" stroke="black" cx="538.91" cy="-168" rx="46.29" ry="18"/>
<text text-anchor="middle" x="538.91" y="-164.3" font-family="Times,serif" font-size="14.00">ArgIndels</text>
</g>
<!-- ArgIndels&#45;&gt;ObservedValue(shapes) -->
<g id="edge18" class="edge">
<title>ArgIndels&#45;&gt;ObservedValue(shapes)</title>
<path fill="none" stroke="black" d="M574.17,-156.28C588.6,-151.43 605.61,-145.82 621.06,-141 630.87,-137.94 641.3,-134.79 651.49,-131.78"/>
<polygon fill="black" stroke="black" points="652.54,-135.12 661.15,-128.94 650.57,-128.4 652.54,-135.12"/>
</g>
<!-- ArgIndels&#45;&gt;Layout(layout) -->
<g id="edge19" class="edge">
<title>ArgIndels&#45;&gt;Layout(layout)</title>
<path fill="none" stroke="black" d="M571.77,-180.79C586.52,-186.15 604.43,-191.85 621.06,-195 830.96,-234.82 888.97,-227.65 1101.62,-207 1128.15,-204.42 1157.16,-199.12 1181.67,-193.88"/>
<polygon fill="black" stroke="black" points="1182.51,-197.28 1191.54,-191.73 1181.02,-190.44 1182.51,-197.28"/>
</g>
<!-- ArgIndels&#45;&gt;IndexRanks -->
<g id="edge16" class="edge">
<title>ArgIndels&#45;&gt;IndexRanks</title>
<path fill="none" stroke="black" d="M561.13,-184.15C569.23,-190.96 578.15,-199.31 585.06,-208 639.59,-276.63 683.15,-371.67 702.61,-417.76"/>
<polygon fill="black" stroke="black" points="699.42,-419.2 706.5,-427.08 705.88,-416.51 699.42,-419.2"/>
</g>
<!-- ArgIndels&#45;&gt;SigMap -->
<g id="edge17" class="edge">
<title>ArgIndels&#45;&gt;SigMap</title>
<path fill="none" stroke="black" d="M585.11,-168C609.76,-168 640.28,-168 665.4,-168"/>
<polygon fill="black" stroke="black" points="665.44,-171.5 675.44,-168 665.44,-164.5 665.44,-171.5"/>
</g>
<!-- IndexUsage -->
<g id="node21" class="node">
<title>IndexUsage</title>
<ellipse fill="none" stroke="black" cx="371.62" cy="-164" rx="52.79" ry="18"/>
<text text-anchor="middle" x="371.62" y="-160.3" font-family="Times,serif" font-size="14.00">IndexUsage</text>
</g>
<!-- IndexUsage&#45;&gt;ObservedValue(shapes) -->
<g id="edge22" class="edge">
<title>IndexUsage&#45;&gt;ObservedValue(shapes)</title>
<path fill="none" stroke="black" d="M417,-154.76C439.62,-150.24 467.59,-144.94 492.77,-141 535.25,-134.34 582.55,-128.37 622.45,-123.75"/>
<polygon fill="black" stroke="black" points="622.89,-127.22 632.43,-122.6 622.09,-120.26 622.89,-127.22"/>
</g>
<!-- IndexUsage&#45;&gt;IndexRanks -->
<g id="edge20" class="edge">
<title>IndexUsage&#45;&gt;IndexRanks</title>
<path fill="none" stroke="black" d="M416.25,-173.77C429.81,-177.9 444.43,-183.52 456.77,-191 561.2,-254.33 655.39,-368.29 694.5,-419.2"/>
<polygon fill="black" stroke="black" points="691.88,-421.54 700.72,-427.38 697.45,-417.31 691.88,-421.54"/>
</g>
<!-- IndexUsage&#45;&gt;ArgIndels -->
<g id="edge21" class="edge">
<title>IndexUsage&#45;&gt;ArgIndels</title>
<path fill="none" stroke="black" d="M424.47,-165.25C442.92,-165.7 463.76,-166.21 482.5,-166.66"/>
<polygon fill="black" stroke="black" points="482.59,-170.16 492.67,-166.91 482.76,-163.16 482.59,-170.16"/>
</g>
<!-- IndexConstraints -->
<g id="node22" class="node">
<title>IndexConstraints</title>
<ellipse fill="none" stroke="black" cx="177.69" cy="-164" rx="70.69" ry="18"/>
<text text-anchor="middle" x="177.69" y="-160.3" font-family="Times,serif" font-size="14.00">IndexConstraints</text>
</g>
<!-- IndexConstraints&#45;&gt;ObservedValue(args) -->
<g id="edge24" class="edge">
<title>IndexConstraints&#45;&gt;ObservedValue(args)</title>
<path fill="none" stroke="black" d="M226.13,-177.35C251.44,-184.47 282.86,-193.31 309.93,-200.93"/>
<polygon fill="black" stroke="black" points="309.12,-204.33 319.69,-203.67 311.01,-197.59 309.12,-204.33"/>
</g>
<!-- IndexConstraints&#45;&gt;IndexUsage -->
<g id="edge23" class="edge">
<title>IndexConstraints&#45;&gt;IndexUsage</title>
<path fill="none" stroke="black" d="M248.8,-164C268.4,-164 289.57,-164 308.67,-164"/>
<polygon fill="black" stroke="black" points="308.74,-167.5 318.74,-164 308.74,-160.5 308.74,-167.5"/>
</g>
<!-- Report -->
<g id="node23" class="node">
<title>Report</title>
<ellipse fill="none" stroke="black" cx="34.45" cy="-245" rx="34.39" ry="18"/>
<text text-anchor="middle" x="34.45" y="-241.3" font-family="Times,serif" font-size="14.00">Report</text>
</g>
<!-- Report&#45;&gt;DTypes -->
<g id="edge25" class="edge">
<title>Report&#45;&gt;DTypes</title>
<path fill="none" stroke="black" d="M53.62,-259.98C67.4,-271.13 86.97,-286.52 104.89,-299 249.75,-399.9 431.76,-506.88 505.08,-549.2"/>
<polygon fill="black" stroke="black" points="503.47,-552.31 513.88,-554.27 506.96,-546.25 503.47,-552.31"/>
</g>
<!-- Report&#45;&gt;IndexConstraints -->
<g id="edge26" class="edge">
<title>Report&#45;&gt;IndexConstraints</title>
<path fill="none" stroke="black" d="M52.39,-229.45C65.86,-217.7 85.57,-201.82 104.89,-191 110.75,-187.72 117.08,-184.69 123.48,-181.93"/>
<polygon fill="black" stroke="black" points="124.92,-185.12 132.84,-178.09 122.26,-178.65 124.92,-185.12"/>
</g>
<!-- Options(padding) -->
<g id="node24" class="node">
<title>Options(padding)</title>
<ellipse fill="none" stroke="black" cx="177.69" cy="-218" rx="72.59" ry="18"/>
<text text-anchor="middle" x="177.69" y="-214.3" font-family="Times,serif" font-size="14.00">Options(padding)</text>
</g>
<!-- Report&#45;&gt;Options(padding) -->
<g id="edge27" class="edge">
<title>Report&#45;&gt;Options(padding)</title>
<path fill="none" stroke="purple" d="M67.14,-238.94C79.7,-236.54 94.64,-233.68 109.39,-230.86"/>
<polygon fill="purple" stroke="purple" points="110.38,-234.24 119.54,-228.92 109.06,-227.36 110.38,-234.24"/>
</g>
<!-- DataFormat -->
<g id="node25" class="node">
<title>DataFormat</title>
<ellipse fill="none" stroke="black" cx="177.69" cy="-272" rx="53.09" ry="18"/>
<text text-anchor="middle" x="177.69" y="-268.3" font-family="Times,serif" font-size="14.00">DataFormat</text>
</g>
<!-- Report&#45;&gt;DataFormat -->
<g id="edge28" class="edge">
<title>Report&#45;&gt;DataFormat</title>
<path fill="none" stroke="blue" d="M67.14,-251.06C83,-254.09 102.65,-257.85 120.92,-261.34"/>
<polygon fill="blue" stroke="blue" points="120.42,-264.81 130.9,-263.25 121.73,-257.93 120.42,-264.81"/>
</g>
<!-- Options(padding)&#45;&gt;ObservedValue(args) -->
<g id="edge34" class="edge">
<title>Options(padding)&#45;&gt;ObservedValue(args)</title>
<path fill="none" stroke="black" d="M250.7,-218C259.04,-218 267.63,-218 276.2,-218"/>
<polygon fill="black" stroke="black" points="276.24,-221.5 286.24,-218 276.24,-214.5 276.24,-221.5"/>
</g>
<!-- DataFormat&#45;&gt;ObservedValue(args) -->
<g id="edge39" class="edge">
<title>DataFormat&#45;&gt;ObservedValue(args)</title>
<path fill="none" stroke="black" d="M219.39,-260.55C245.69,-253.15 280.39,-243.39 309.91,-235.08"/>
<polygon fill="black" stroke="black" points="311.03,-238.4 319.71,-232.32 309.13,-231.66 311.03,-238.4"/>
</g>
<!-- DataFormat&#45;&gt;Layout(layout) -->
<g id="edge38" class="edge">
<title>DataFormat&#45;&gt;Layout(layout)</title>
<path fill="none" stroke="black" d="M230.73,-270.11C300.6,-267.75 428.59,-264 537.91,-264 537.91,-264 537.91,-264 715.65,-264 887.89,-264 933.38,-265.94 1101.62,-229 1133.73,-221.95 1168.62,-209.48 1195.24,-198.89"/>
<polygon fill="black" stroke="black" points="1196.69,-202.07 1204.65,-195.08 1194.07,-195.58 1196.69,-202.07"/>
</g>
<!-- DataFormat&#45;&gt;IndexRanks -->
<g id="edge37" class="edge">
<title>DataFormat&#45;&gt;IndexRanks</title>
<path fill="none" stroke="black" d="M216.73,-284.3C312.12,-315.15 561.31,-395.74 666.12,-429.63"/>
<polygon fill="black" stroke="black" points="665.21,-433.01 675.8,-432.76 667.36,-426.35 665.21,-433.01"/>
</g>
</g>
</svg>
