<?xml version="1.0" encoding="UTF-8" standalone="no"?>
<!DOCTYPE svg PUBLIC "-//W3C//DTD SVG 1.1//EN"
 "http://www.w3.org/Graphics/SVG/1.1/DTD/svg11.dtd">
<!-- Generated by graphviz version 2.43.0 (0)
 -->
<!-- Title: %3 Pages: 1 -->
<svg width="1379pt" height="412pt"
 viewBox="0.00 0.00 1379.09 412.00" xmlns="http://www.w3.org/2000/svg" xmlns:xlink="http://www.w3.org/1999/xlink">
<g id="graph0" class="graph" transform="scale(1 1) rotate(0) translate(4 408)">
<title>%3</title>
<polygon fill="white" stroke="transparent" points="-4,4 -4,-408 1375.09,-408 1375.09,4 -4,4"/>
<!-- DimsInput(_index_ranks) -->
<g id="node1" class="node">
<title>DimsInput(_index_ranks)</title>
<ellipse fill="none" stroke="black" cx="1269.05" cy="-210" rx="102.08" ry="18"/>
<text text-anchor="middle" x="1269.05" y="-206.3" font-family="Times,serif" font-size="14.00">DimsInput(_index_ranks)</text>
</g>
<!-- GenDims(batch) -->
<g id="node2" class="node">
<title>GenDims(batch)</title>
<ellipse fill="none" stroke="black" cx="954.22" cy="-386" rx="69.59" ry="18"/>
<text text-anchor="middle" x="954.22" y="-382.3" font-family="Times,serif" font-size="14.00">GenDims(batch)</text>
</g>
<!-- GenDims(batch)&#45;&gt;DimsInput(_index_ranks) -->
<g id="edge1" class="edge">
<title>GenDims(batch)&#45;&gt;DimsInput(_index_ranks)</title>
<path fill="none" stroke="black" d="M1024.09,-385.96C1057.98,-383.39 1098.45,-376.36 1131.01,-359 1185.24,-330.09 1229.33,-271.15 1251.82,-236.7"/>
<polygon fill="black" stroke="black" points="1254.89,-238.4 1257.33,-228.09 1248.99,-234.63 1254.89,-238.4"/>
</g>
<!-- GenDims(output_channel) -->
<g id="node3" class="node">
<title>GenDims(output_channel)</title>
<ellipse fill="none" stroke="black" cx="954.22" cy="-332" rx="104.78" ry="18"/>
<text text-anchor="middle" x="954.22" y="-328.3" font-family="Times,serif" font-size="14.00">GenDims(output_channel)</text>
</g>
<!-- GenDims(output_channel)&#45;&gt;DimsInput(_index_ranks) -->
<g id="edge2" class="edge">
<title>GenDims(output_channel)&#45;&gt;DimsInput(_index_ranks)</title>
<path fill="none" stroke="black" d="M1044.79,-322.79C1073.05,-318.02 1103.94,-310.83 1131.01,-300 1171.31,-283.88 1212.23,-255.03 1238.72,-234.33"/>
<polygon fill="black" stroke="black" points="1241.14,-236.88 1246.8,-227.93 1236.79,-231.4 1241.14,-236.88"/>
</g>
<!-- GenDims(filter_spatial) -->
<g id="node4" class="node">
<title>GenDims(filter_spatial)</title>
<ellipse fill="none" stroke="black" cx="954.22" cy="-164" rx="94.78" ry="18"/>
<text text-anchor="middle" x="954.22" y="-160.3" font-family="Times,serif" font-size="14.00">GenDims(filter_spatial)</text>
</g>
<!-- GenDims(filter_spatial)&#45;&gt;DimsInput(_index_ranks) -->
<g id="edge3" class="edge">
<title>GenDims(filter_spatial)&#45;&gt;DimsInput(_index_ranks)</title>
<path fill="none" stroke="black" d="M1029.76,-174.96C1074.89,-181.6 1132.69,-190.1 1180.06,-197.06"/>
<polygon fill="black" stroke="black" points="1179.6,-200.53 1190,-198.52 1180.61,-193.61 1179.6,-200.53"/>
</g>
<!-- GenDims(strides) -->
<g id="node5" class="node">
<title>GenDims(strides)</title>
<ellipse fill="none" stroke="black" cx="610.8" cy="-240" rx="73.39" ry="18"/>
<text text-anchor="middle" x="610.8" y="-236.3" font-family="Times,serif" font-size="14.00">GenDims(strides)</text>
</g>
<!-- GenDims(strides)&#45;&gt;DimsInput(_index_ranks) -->
<g id="edge4" class="edge">
<title>GenDims(strides)&#45;&gt;DimsInput(_index_ranks)</title>
<path fill="none" stroke="black" d="M684.54,-239.39C785.03,-238.17 971.96,-234.56 1131.01,-224 1144.45,-223.11 1158.61,-221.93 1172.53,-220.64"/>
<polygon fill="black" stroke="black" points="1172.98,-224.11 1182.6,-219.68 1172.31,-217.14 1172.98,-224.11"/>
</g>
<!-- GenDims(dilations) -->
<g id="node6" class="node">
<title>GenDims(dilations)</title>
<ellipse fill="none" stroke="black" cx="954.22" cy="-110" rx="81.49" ry="18"/>
<text text-anchor="middle" x="954.22" y="-106.3" font-family="Times,serif" font-size="14.00">GenDims(dilations)</text>
</g>
<!-- GenDims(dilations)&#45;&gt;DimsInput(_index_ranks) -->
<g id="edge5" class="edge">
<title>GenDims(dilations)&#45;&gt;DimsInput(_index_ranks)</title>
<path fill="none" stroke="black" d="M1030.95,-115.98C1062.46,-119.91 1099.07,-126.38 1131.01,-137 1167.78,-149.22 1206.47,-170.74 1233.32,-187.25"/>
<polygon fill="black" stroke="black" points="1231.62,-190.32 1241.96,-192.64 1235.33,-184.38 1231.62,-190.32"/>
</g>
<!-- GenDims(input_channel, filter_input_channel) -->
<g id="node7" class="node">
<title>GenDims(input_channel, filter_input_channel)</title>
<ellipse fill="none" stroke="black" cx="954.22" cy="-18" rx="176.57" ry="18"/>
<text text-anchor="middle" x="954.22" y="-14.3" font-family="Times,serif" font-size="14.00">GenDims(input_channel, filter_input_channel)</text>
</g>
<!-- GenDims(input_channel, filter_input_channel)&#45;&gt;DimsInput(_index_ranks) -->
<g id="edge6" class="edge">
<title>GenDims(input_channel, filter_input_channel)&#45;&gt;DimsInput(_index_ranks)</title>
<path fill="none" stroke="black" d="M1082.79,-30.49C1099.66,-35.18 1116.21,-41.5 1131.01,-50 1187.2,-82.27 1231.25,-146.51 1253.05,-183.01"/>
<polygon fill="black" stroke="black" points="1250.29,-185.22 1258.36,-192.09 1256.33,-181.69 1250.29,-185.22"/>
</g>
<!-- CompDims(dilated_filter_spatial) -->
<g id="node8" class="node">
<title>CompDims(dilated_filter_spatial)</title>
<ellipse fill="none" stroke="black" cx="610.8" cy="-164" rx="130.78" ry="18"/>
<text text-anchor="middle" x="610.8" y="-160.3" font-family="Times,serif" font-size="14.00">CompDims(dilated_filter_spatial)</text>
</g>
<!-- CompDims(dilated_filter_spatial)&#45;&gt;DimsInput(_index_ranks) -->
<g id="edge7" class="edge">
<title>CompDims(dilated_filter_spatial)&#45;&gt;DimsInput(_index_ranks)</title>
<path fill="none" stroke="black" d="M688.65,-178.54C716.52,-183.28 748.31,-188.07 777.44,-191 907.2,-204.04 1057.09,-208.28 1156.71,-209.58"/>
<polygon fill="black" stroke="black" points="1156.75,-213.08 1166.79,-209.7 1156.83,-206.08 1156.75,-213.08"/>
</g>
<!-- CompDims(dilated_filter_spatial)&#45;&gt;GenDims(filter_spatial) -->
<g id="edge9" class="edge">
<title>CompDims(dilated_filter_spatial)&#45;&gt;GenDims(filter_spatial)</title>
<path fill="none" stroke="purple" d="M741.85,-164C777.21,-164 815.03,-164 848.76,-164"/>
<polygon fill="purple" stroke="purple" points="849.09,-167.5 859.09,-164 849.09,-160.5 849.09,-167.5"/>
</g>
<!-- CompDims(dilated_filter_spatial)&#45;&gt;GenDims(dilations) -->
<g id="edge8" class="edge">
<title>CompDims(dilated_filter_spatial)&#45;&gt;GenDims(dilations)</title>
<path fill="none" stroke="purple" d="M695.19,-150.25C721.5,-145.96 750.68,-141.24 777.44,-137 809.77,-131.88 845.47,-126.37 876.2,-121.67"/>
<polygon fill="purple" stroke="purple" points="877.07,-125.08 886.42,-120.11 876.01,-118.16 877.07,-125.08"/>
</g>
<!-- GenDims(input_spatial) -->
<g id="node9" class="node">
<title>GenDims(input_spatial)</title>
<ellipse fill="none" stroke="black" cx="347.97" cy="-156" rx="96.38" ry="18"/>
<text text-anchor="middle" x="347.97" y="-152.3" font-family="Times,serif" font-size="14.00">GenDims(input_spatial)</text>
</g>
<!-- GenDims(input_spatial)&#45;&gt;DimsInput(_index_ranks) -->
<g id="edge10" class="edge">
<title>GenDims(input_spatial)&#45;&gt;DimsInput(_index_ranks)</title>
<path fill="none" stroke="black" d="M412.74,-142.69C575.1,-109.96 1000.49,-31.82 1131.01,-83 1182.63,-103.24 1226.41,-153.07 1249.81,-183.95"/>
<polygon fill="black" stroke="black" points="1247.09,-186.17 1255.86,-192.12 1252.72,-182 1247.09,-186.17"/>
</g>
<!-- GenDims(input_spatial)&#45;&gt;CompDims(dilated_filter_spatial) -->
<g id="edge11" class="edge">
<title>GenDims(input_spatial)&#45;&gt;CompDims(dilated_filter_spatial)</title>
<path fill="none" stroke="purple" d="M443.14,-158.89C452.88,-159.19 462.91,-159.49 473,-159.8"/>
<polygon fill="purple" stroke="purple" points="472.99,-163.31 483.09,-160.11 473.2,-156.31 472.99,-163.31"/>
</g>
<!-- DimsInput(padding) -->
<g id="node10" class="node">
<title>DimsInput(padding)</title>
<ellipse fill="none" stroke="black" cx="347.97" cy="-102" rx="83.39" ry="18"/>
<text text-anchor="middle" x="347.97" y="-98.3" font-family="Times,serif" font-size="14.00">DimsInput(padding)</text>
</g>
<!-- CompDims(output_spatial) -->
<g id="node11" class="node">
<title>CompDims(output_spatial)</title>
<ellipse fill="none" stroke="black" cx="107.89" cy="-202" rx="107.78" ry="18"/>
<text text-anchor="middle" x="107.89" y="-198.3" font-family="Times,serif" font-size="14.00">CompDims(output_spatial)</text>
</g>
<!-- CompDims(output_spatial)&#45;&gt;DimsInput(_index_ranks) -->
<g id="edge12" class="edge">
<title>CompDims(output_spatial)&#45;&gt;DimsInput(_index_ranks)</title>
<path fill="none" stroke="black" d="M166.67,-217.12C192.57,-223.54 223.58,-230.74 251.78,-236 352.48,-254.77 377.96,-260.1 480.16,-267 768.95,-286.51 844.86,-287.56 1131.01,-244 1155.82,-240.22 1182.7,-234.03 1206.03,-227.96"/>
<polygon fill="black" stroke="black" points="1207.03,-231.31 1215.8,-225.37 1205.23,-224.55 1207.03,-231.31"/>
</g>
<!-- CompDims(output_spatial)&#45;&gt;GenDims(strides) -->
<g id="edge13" class="edge">
<title>CompDims(output_spatial)&#45;&gt;GenDims(strides)</title>
<path fill="none" stroke="purple" d="M200.33,-211.38C217.42,-213.01 235.14,-214.63 251.78,-216 346.95,-223.85 456.52,-230.9 529.11,-235.3"/>
<polygon fill="purple" stroke="purple" points="528.91,-238.8 539.11,-235.9 529.33,-231.81 528.91,-238.8"/>
</g>
<!-- CompDims(output_spatial)&#45;&gt;CompDims(dilated_filter_spatial) -->
<g id="edge15" class="edge">
<title>CompDims(output_spatial)&#45;&gt;CompDims(dilated_filter_spatial)</title>
<path fill="none" stroke="purple" d="M212.83,-197.66C279.1,-194.5 366.76,-189.63 444.16,-183 463.2,-181.37 483.42,-179.32 502.97,-177.17"/>
<polygon fill="purple" stroke="purple" points="503.56,-180.63 513.11,-176.04 502.79,-173.67 503.56,-180.63"/>
</g>
<!-- CompDims(output_spatial)&#45;&gt;GenDims(input_spatial) -->
<g id="edge14" class="edge">
<title>CompDims(output_spatial)&#45;&gt;GenDims(input_spatial)</title>
<path fill="none" stroke="purple" d="M179.04,-188.45C207.62,-182.92 240.77,-176.52 270.02,-170.87"/>
<polygon fill="purple" stroke="purple" points="271.03,-174.24 280.19,-168.9 269.71,-167.36 271.03,-174.24"/>
</g>
<!-- CompDims(output_spatial)&#45;&gt;DimsInput(padding) -->
<g id="edge16" class="edge">
<title>CompDims(output_spatial)&#45;&gt;DimsInput(padding)</title>
<path fill="none" stroke="blue" d="M138.48,-184.71C166.84,-168.67 211.2,-144.94 251.78,-129 261.6,-125.14 272.18,-121.59 282.59,-118.4"/>
<polygon fill="blue" stroke="blue" points="283.9,-121.66 292.5,-115.47 281.91,-114.95 283.9,-121.66"/>
</g>
</g>
</svg>
