<?xml version="1.0" encoding="UTF-8" standalone="no"?>
<!DOCTYPE svg PUBLIC "-//W3C//DTD SVG 1.1//EN"
 "http://www.w3.org/Graphics/SVG/1.1/DTD/svg11.dtd">
<!-- Generated by graphviz version 2.43.0 (0)
 -->
<!-- Title: %3 Pages: 1 -->
<svg width="1503pt" height="806pt"
 viewBox="0.00 0.00 1502.69 806.00" xmlns="http://www.w3.org/2000/svg" xmlns:xlink="http://www.w3.org/1999/xlink">
<g id="graph0" class="graph" transform="scale(1 1) rotate(0) translate(4 802)">
<title>%3</title>
<polygon fill="white" stroke="transparent" points="-4,4 -4,-802 1498.69,-802 1498.69,4 -4,4"/>
<!-- Layout(layout) -->
<g id="node1" class="node">
<title>Layout(layout)</title>
<ellipse fill="none" stroke="black" cx="1392" cy="-180" rx="63.89" ry="18"/>
<text text-anchor="middle" x="1392" y="-176.3" font-family="Times,serif" font-size="14.00">Layout(layout)</text>
</g>
<!-- IndexRanks -->
<g id="node2" class="node">
<title>IndexRanks</title>
<ellipse fill="none" stroke="black" cx="877.39" cy="-472" rx="52.79" ry="18"/>
<text text-anchor="middle" x="877.39" y="-468.3" font-family="Times,serif" font-size="14.00">IndexRanks</text>
</g>
<!-- RankRange(batch) -->
<g id="node3" class="node">
<title>RankRange(batch)</title>
<ellipse fill="none" stroke="black" cx="1122.02" cy="-364" rx="76.89" ry="18"/>
<text text-anchor="middle" x="1122.02" y="-360.3" font-family="Times,serif" font-size="14.00">RankRange(batch)</text>
</g>
<!-- IndexRanks&#45;&gt;RankRange(batch) -->
<g id="edge1" class="edge">
<title>IndexRanks&#45;&gt;RankRange(batch)</title>
<path fill="none" stroke="purple" d="M896.73,-454.97C917.81,-436.36 954.2,-407.08 990.73,-391 1007.32,-383.7 1025.98,-378.34 1043.89,-374.41"/>
<polygon fill="purple" stroke="purple" points="1044.65,-377.83 1053.74,-372.38 1043.24,-370.97 1044.65,-377.83"/>
</g>
<!-- RankRange(input_spatial) -->
<g id="node4" class="node">
<title>RankRange(input_spatial)</title>
<ellipse fill="none" stroke="black" cx="1392" cy="-645" rx="102.88" ry="18"/>
<text text-anchor="middle" x="1392" y="-641.3" font-family="Times,serif" font-size="14.00">RankRange(input_spatial)</text>
</g>
<!-- IndexRanks&#45;&gt;RankRange(input_spatial) -->
<g id="edge2" class="edge">
<title>IndexRanks&#45;&gt;RankRange(input_spatial)</title>
<path fill="none" stroke="purple" d="M919.54,-482.85C940.71,-488.19 966.99,-494.44 990.73,-499 1106.53,-521.25 1144.9,-490.6 1253.31,-537 1298.56,-556.37 1341.68,-594.47 1367.24,-619.85"/>
<polygon fill="purple" stroke="purple" points="1364.76,-622.32 1374.29,-626.96 1369.74,-617.39 1364.76,-622.32"/>
</g>
<!-- RankEquiv(padded_input_spatial) -->
<g id="node5" class="node">
<title>RankEquiv(padded_input_spatial)</title>
<ellipse fill="none" stroke="black" cx="1122.02" cy="-780" rx="131.08" ry="18"/>
<text text-anchor="middle" x="1122.02" y="-776.3" font-family="Times,serif" font-size="14.00">RankEquiv(padded_input_spatial)</text>
</g>
<!-- IndexRanks&#45;&gt;RankEquiv(padded_input_spatial) -->
<g id="edge3" class="edge">
<title>IndexRanks&#45;&gt;RankEquiv(padded_input_spatial)</title>
<path fill="none" stroke="purple" d="M925.34,-479.81C936.46,-483.81 947.25,-489.86 954.73,-499 1026.94,-587.24 912.71,-669.86 990.73,-753 994.93,-757.48 999.67,-761.32 1004.78,-764.6"/>
<polygon fill="purple" stroke="purple" points="1003.28,-767.77 1013.71,-769.62 1006.71,-761.67 1003.28,-767.77"/>
</g>
<!-- RankEquiv(block_shape) -->
<g id="node6" class="node">
<title>RankEquiv(block_shape)</title>
<ellipse fill="none" stroke="black" cx="1122.02" cy="-726" rx="100.18" ry="18"/>
<text text-anchor="middle" x="1122.02" y="-722.3" font-family="Times,serif" font-size="14.00">RankEquiv(block_shape)</text>
</g>
<!-- IndexRanks&#45;&gt;RankEquiv(block_shape) -->
<g id="edge4" class="edge">
<title>IndexRanks&#45;&gt;RankEquiv(block_shape)</title>
<path fill="none" stroke="purple" d="M925.11,-480C936.23,-484 947.08,-490 954.73,-499 1013.22,-567.82 927.71,-634.3 990.73,-699 998.18,-706.65 1007.19,-712.42 1016.95,-716.73"/>
<polygon fill="purple" stroke="purple" points="1015.92,-720.09 1026.51,-720.44 1018.45,-713.56 1015.92,-720.09"/>
</g>
<!-- RankRange(remaining) -->
<g id="node7" class="node">
<title>RankRange(remaining)</title>
<ellipse fill="none" stroke="black" cx="1122.02" cy="-472" rx="93.68" ry="18"/>
<text text-anchor="middle" x="1122.02" y="-468.3" font-family="Times,serif" font-size="14.00">RankRange(remaining)</text>
</g>
<!-- IndexRanks&#45;&gt;RankRange(remaining) -->
<g id="edge5" class="edge">
<title>IndexRanks&#45;&gt;RankRange(remaining)</title>
<path fill="none" stroke="purple" d="M930.14,-472C955.77,-472 987.67,-472 1018,-472"/>
<polygon fill="purple" stroke="purple" points="1018.21,-475.5 1028.21,-472 1018.21,-468.5 1018.21,-475.5"/>
</g>
<!-- RankEquiv(padding_start) -->
<g id="node8" class="node">
<title>RankEquiv(padding_start)</title>
<ellipse fill="none" stroke="black" cx="1122.02" cy="-672" rx="103.98" ry="18"/>
<text text-anchor="middle" x="1122.02" y="-668.3" font-family="Times,serif" font-size="14.00">RankEquiv(padding_start)</text>
</g>
<!-- IndexRanks&#45;&gt;RankEquiv(padding_start) -->
<g id="edge6" class="edge">
<title>IndexRanks&#45;&gt;RankEquiv(padding_start)</title>
<path fill="none" stroke="purple" d="M924.33,-480.2C935.59,-484.19 946.71,-490.15 954.73,-499 999.61,-548.52 942.6,-598.63 990.73,-645 998.03,-652.03 1006.66,-657.45 1015.94,-661.59"/>
<polygon fill="purple" stroke="purple" points="1014.82,-664.91 1025.41,-665.33 1017.39,-658.4 1014.82,-664.91"/>
</g>
<!-- RankEquiv(padding_end) -->
<g id="node9" class="node">
<title>RankEquiv(padding_end)</title>
<ellipse fill="none" stroke="black" cx="1122.02" cy="-618" rx="101.28" ry="18"/>
<text text-anchor="middle" x="1122.02" y="-614.3" font-family="Times,serif" font-size="14.00">RankEquiv(padding_end)</text>
</g>
<!-- IndexRanks&#45;&gt;RankEquiv(padding_end) -->
<g id="edge7" class="edge">
<title>IndexRanks&#45;&gt;RankEquiv(padding_end)</title>
<path fill="none" stroke="purple" d="M923.58,-480.92C934.84,-484.92 946.14,-490.69 954.73,-499 986.29,-529.53 957.18,-562.68 990.73,-591 999.11,-598.07 1008.86,-603.45 1019.19,-607.52"/>
<polygon fill="purple" stroke="purple" points="1018.22,-610.89 1028.81,-610.9 1020.54,-604.28 1018.22,-610.89"/>
</g>
<!-- RankEquiv(output_spatial) -->
<g id="node10" class="node">
<title>RankEquiv(output_spatial)</title>
<ellipse fill="none" stroke="black" cx="1122.02" cy="-564" rx="105.88" ry="18"/>
<text text-anchor="middle" x="1122.02" y="-560.3" font-family="Times,serif" font-size="14.00">RankEquiv(output_spatial)</text>
</g>
<!-- IndexRanks&#45;&gt;RankEquiv(output_spatial) -->
<g id="edge8" class="edge">
<title>IndexRanks&#45;&gt;RankEquiv(output_spatial)</title>
<path fill="none" stroke="purple" d="M919.38,-483.12C931.23,-487.21 943.89,-492.48 954.73,-499 973.34,-510.18 971.59,-521.76 990.73,-532 1004.12,-539.17 1019.15,-544.76 1034.1,-549.11"/>
<polygon fill="purple" stroke="purple" points="1033.33,-552.53 1043.9,-551.8 1035.18,-545.78 1033.33,-552.53"/>
</g>
<!-- RankRange(output_batch) -->
<g id="node11" class="node">
<title>RankRange(output_batch)</title>
<ellipse fill="none" stroke="black" cx="1122.02" cy="-418" rx="103.18" ry="18"/>
<text text-anchor="middle" x="1122.02" y="-414.3" font-family="Times,serif" font-size="14.00">RankRange(output_batch)</text>
</g>
<!-- IndexRanks&#45;&gt;RankRange(output_batch) -->
<g id="edge9" class="edge">
<title>IndexRanks&#45;&gt;RankRange(output_batch)</title>
<path fill="none" stroke="purple" d="M920.46,-461.56C941.52,-456.41 967.44,-450.21 990.73,-445 1007.79,-441.18 1026.14,-437.27 1043.53,-433.64"/>
<polygon fill="purple" stroke="purple" points="1044.57,-437 1053.65,-431.54 1043.14,-430.15 1044.57,-437"/>
</g>
<!-- RankEquiv(padded_input_spatial)&#45;&gt;RankRange(input_spatial) -->
<g id="edge27" class="edge">
<title>RankEquiv(padded_input_spatial)&#45;&gt;RankRange(input_spatial)</title>
<path fill="none" stroke="black" d="M1213.09,-767.02C1226.9,-763.42 1240.74,-758.84 1253.31,-753 1297.51,-732.48 1340.38,-695.27 1366.23,-670.35"/>
<polygon fill="black" stroke="black" points="1368.99,-672.54 1373.69,-663.04 1364.1,-667.54 1368.99,-672.54"/>
</g>
<!-- RankEquiv(block_shape)&#45;&gt;RankRange(input_spatial) -->
<g id="edge28" class="edge">
<title>RankEquiv(block_shape)&#45;&gt;RankRange(input_spatial)</title>
<path fill="none" stroke="black" d="M1194.22,-713.51C1213.56,-709.51 1234.38,-704.63 1253.31,-699 1284.11,-689.84 1317.69,-676.73 1343.99,-665.73"/>
<polygon fill="black" stroke="black" points="1345.48,-668.9 1353.32,-661.78 1342.75,-662.45 1345.48,-668.9"/>
</g>
<!-- RankEquiv(padding_start)&#45;&gt;RankRange(input_spatial) -->
<g id="edge29" class="edge">
<title>RankEquiv(padding_start)&#45;&gt;RankRange(input_spatial)</title>
<path fill="none" stroke="black" d="M1212.25,-663.01C1238.04,-660.41 1266.32,-657.56 1292.63,-654.91"/>
<polygon fill="black" stroke="black" points="1293.01,-658.39 1302.61,-653.91 1292.31,-651.43 1293.01,-658.39"/>
</g>
<!-- RankEquiv(padding_end)&#45;&gt;RankRange(input_spatial) -->
<g id="edge30" class="edge">
<title>RankEquiv(padding_end)&#45;&gt;RankRange(input_spatial)</title>
<path fill="none" stroke="black" d="M1210.77,-626.84C1236.89,-629.47 1265.69,-632.37 1292.45,-635.07"/>
<polygon fill="black" stroke="black" points="1292.3,-638.57 1302.6,-636.09 1293,-631.61 1292.3,-638.57"/>
</g>
<!-- RankEquiv(output_spatial)&#45;&gt;RankRange(input_spatial) -->
<g id="edge31" class="edge">
<title>RankEquiv(output_spatial)&#45;&gt;RankRange(input_spatial)</title>
<path fill="none" stroke="black" d="M1196.26,-576.91C1215.02,-580.83 1235.04,-585.57 1253.31,-591 1284.11,-600.16 1317.69,-613.27 1343.99,-624.27"/>
<polygon fill="black" stroke="black" points="1342.75,-627.55 1353.32,-628.22 1345.48,-621.1 1342.75,-627.55"/>
</g>
<!-- DTypesNotImpl -->
<g id="node12" class="node">
<title>DTypesNotImpl</title>
<ellipse fill="none" stroke="black" cx="695.15" cy="-472" rx="68.79" ry="18"/>
<text text-anchor="middle" x="695.15" y="-468.3" font-family="Times,serif" font-size="14.00">DTypesNotImpl</text>
</g>
<!-- DTypesNotImpl&#45;&gt;Layout(layout) -->
<g id="edge11" class="edge">
<title>DTypesNotImpl&#45;&gt;Layout(layout)</title>
<path fill="none" stroke="black" d="M725.76,-455.63C777.84,-427.49 889.89,-369.8 990.73,-337 1103.95,-300.18 1144.75,-332.88 1253.31,-284 1297.13,-264.27 1340.09,-228.44 1366.07,-204.42"/>
<polygon fill="black" stroke="black" points="1368.67,-206.78 1373.57,-197.38 1363.88,-201.67 1368.67,-206.78"/>
</g>
<!-- DTypesNotImpl&#45;&gt;IndexRanks -->
<g id="edge10" class="edge">
<title>DTypesNotImpl&#45;&gt;IndexRanks</title>
<path fill="none" stroke="black" d="M764.29,-472C780.73,-472 798.2,-472 814.34,-472"/>
<polygon fill="black" stroke="black" points="814.73,-475.5 824.73,-472 814.73,-468.5 814.73,-475.5"/>
</g>
<!-- DTypeIndiv(input) -->
<g id="node13" class="node">
<title>DTypeIndiv(input)</title>
<ellipse fill="none" stroke="black" cx="877.39" cy="-526" rx="77.19" ry="18"/>
<text text-anchor="middle" x="877.39" y="-522.3" font-family="Times,serif" font-size="14.00">DTypeIndiv(input)</text>
</g>
<!-- DTypesNotImpl&#45;&gt;DTypeIndiv(input) -->
<g id="edge12" class="edge">
<title>DTypesNotImpl&#45;&gt;DTypeIndiv(input)</title>
<path fill="none" stroke="purple" d="M741.17,-485.49C764.82,-492.57 794.07,-501.34 819.3,-508.9"/>
<polygon fill="purple" stroke="purple" points="818.53,-512.32 829.11,-511.84 820.54,-505.61 818.53,-512.32"/>
</g>
<!-- SigMap -->
<g id="node14" class="node">
<title>SigMap</title>
<ellipse fill="none" stroke="black" cx="877.39" cy="-180" rx="38.99" ry="18"/>
<text text-anchor="middle" x="877.39" y="-176.3" font-family="Times,serif" font-size="14.00">SigMap</text>
</g>
<!-- Sig(input) -->
<g id="node15" class="node">
<title>Sig(input)</title>
<ellipse fill="none" stroke="black" cx="1122.02" cy="-18" rx="46.29" ry="18"/>
<text text-anchor="middle" x="1122.02" y="-14.3" font-family="Times,serif" font-size="14.00">Sig(input)</text>
</g>
<!-- SigMap&#45;&gt;Sig(input) -->
<g id="edge13" class="edge">
<title>SigMap&#45;&gt;Sig(input)</title>
<path fill="none" stroke="purple" d="M887.82,-162.26C904.43,-132.85 941.84,-74.34 990.73,-45 1013.26,-31.48 1041.49,-24.64 1065.91,-21.22"/>
<polygon fill="purple" stroke="purple" points="1066.62,-24.66 1076.11,-19.95 1065.76,-17.71 1066.62,-24.66"/>
</g>
<!-- Sig(block_shape) -->
<g id="node16" class="node">
<title>Sig(block_shape)</title>
<ellipse fill="none" stroke="black" cx="1122.02" cy="-234" rx="72.29" ry="18"/>
<text text-anchor="middle" x="1122.02" y="-230.3" font-family="Times,serif" font-size="14.00">Sig(block_shape)</text>
</g>
<!-- SigMap&#45;&gt;Sig(block_shape) -->
<g id="edge14" class="edge">
<title>SigMap&#45;&gt;Sig(block_shape)</title>
<path fill="none" stroke="purple" d="M912.24,-188.43C934.51,-193.9 964.3,-201.09 990.73,-207 1011.65,-211.68 1034.53,-216.52 1055.19,-220.78"/>
<polygon fill="purple" stroke="purple" points="1054.64,-224.24 1065.14,-222.82 1056.05,-217.38 1054.64,-224.24"/>
</g>
<!-- Sig(paddings.0) -->
<g id="node17" class="node">
<title>Sig(paddings.0)</title>
<ellipse fill="none" stroke="black" cx="1122.02" cy="-180" rx="66.89" ry="18"/>
<text text-anchor="middle" x="1122.02" y="-176.3" font-family="Times,serif" font-size="14.00">Sig(paddings.0)</text>
</g>
<!-- SigMap&#45;&gt;Sig(paddings.0) -->
<g id="edge15" class="edge">
<title>SigMap&#45;&gt;Sig(paddings.0)</title>
<path fill="none" stroke="purple" d="M916.57,-180C950.79,-180 1002.02,-180 1044.64,-180"/>
<polygon fill="purple" stroke="purple" points="1044.71,-183.5 1054.71,-180 1044.71,-176.5 1044.71,-183.5"/>
</g>
<!-- Sig(paddings.1) -->
<g id="node18" class="node">
<title>Sig(paddings.1)</title>
<ellipse fill="none" stroke="black" cx="1122.02" cy="-126" rx="66.89" ry="18"/>
<text text-anchor="middle" x="1122.02" y="-122.3" font-family="Times,serif" font-size="14.00">Sig(paddings.1)</text>
</g>
<!-- SigMap&#45;&gt;Sig(paddings.1) -->
<g id="edge16" class="edge">
<title>SigMap&#45;&gt;Sig(paddings.1)</title>
<path fill="none" stroke="purple" d="M912.24,-171.57C934.51,-166.1 964.3,-158.91 990.73,-153 1012.53,-148.12 1036.44,-143.08 1057.77,-138.69"/>
<polygon fill="purple" stroke="purple" points="1058.6,-142.09 1067.69,-136.66 1057.19,-135.24 1058.6,-142.09"/>
</g>
<!-- Sig(return[0]) -->
<g id="node19" class="node">
<title>Sig(return[0])</title>
<ellipse fill="none" stroke="black" cx="1122.02" cy="-72" rx="59.59" ry="18"/>
<text text-anchor="middle" x="1122.02" y="-68.3" font-family="Times,serif" font-size="14.00">Sig(return[0])</text>
</g>
<!-- SigMap&#45;&gt;Sig(return[0]) -->
<g id="edge17" class="edge">
<title>SigMap&#45;&gt;Sig(return[0])</title>
<path fill="none" stroke="purple" d="M895.61,-163.96C916.49,-145.42 953.54,-115.37 990.73,-99 1010.99,-90.09 1034.34,-84.06 1055.62,-80.01"/>
<polygon fill="purple" stroke="purple" points="1056.34,-83.44 1065.56,-78.23 1055.1,-76.55 1056.34,-83.44"/>
</g>
<!-- Sig(input)&#45;&gt;Layout(layout) -->
<g id="edge34" class="edge">
<title>Sig(input)&#45;&gt;Layout(layout)</title>
<path fill="none" stroke="black" d="M1167.68,-20.95C1193.88,-24.18 1226.91,-30.92 1253.31,-45 1303.8,-71.93 1348.25,-123.08 1372.22,-154.11"/>
<polygon fill="black" stroke="black" points="1369.59,-156.43 1378.42,-162.29 1375.17,-152.2 1369.59,-156.43"/>
</g>
<!-- Sig(block_shape)&#45;&gt;Layout(layout) -->
<g id="edge36" class="edge">
<title>Sig(block_shape)&#45;&gt;Layout(layout)</title>
<path fill="none" stroke="black" d="M1178.55,-222.81C1222.59,-213.94 1284.09,-201.54 1329.59,-192.37"/>
<polygon fill="black" stroke="black" points="1330.52,-195.76 1339.63,-190.35 1329.14,-188.9 1330.52,-195.76"/>
</g>
<!-- Sig(paddings.0)&#45;&gt;Layout(layout) -->
<g id="edge38" class="edge">
<title>Sig(paddings.0)&#45;&gt;Layout(layout)</title>
<path fill="none" stroke="black" d="M1189.26,-180C1228.41,-180 1278.03,-180 1318.27,-180"/>
<polygon fill="black" stroke="black" points="1318.28,-183.5 1328.28,-180 1318.28,-176.5 1318.28,-183.5"/>
</g>
<!-- Sig(paddings.1)&#45;&gt;Layout(layout) -->
<g id="edge39" class="edge">
<title>Sig(paddings.1)&#45;&gt;Layout(layout)</title>
<path fill="none" stroke="black" d="M1175.96,-136.67C1220.16,-145.57 1283.2,-158.28 1329.6,-167.63"/>
<polygon fill="black" stroke="black" points="1329.04,-171.08 1339.53,-169.63 1330.42,-164.22 1329.04,-171.08"/>
</g>
<!-- Sig(return[0])&#45;&gt;Layout(layout) -->
<g id="edge40" class="edge">
<title>Sig(return[0])&#45;&gt;Layout(layout)</title>
<path fill="none" stroke="black" d="M1177.08,-79.13C1200.96,-83.3 1229.06,-89.65 1253.31,-99 1292.07,-113.95 1332.61,-139.13 1359.58,-157.46"/>
<polygon fill="black" stroke="black" points="1357.62,-160.36 1367.84,-163.15 1361.59,-154.59 1357.62,-160.36"/>
</g>
<!-- ArgRanks -->
<g id="node20" class="node">
<title>ArgRanks</title>
<ellipse fill="none" stroke="black" cx="695.15" cy="-326" rx="46.29" ry="18"/>
<text text-anchor="middle" x="695.15" y="-322.3" font-family="Times,serif" font-size="14.00">ArgRanks</text>
</g>
<!-- ArgRanks&#45;&gt;IndexRanks -->
<g id="edge18" class="edge">
<title>ArgRanks&#45;&gt;IndexRanks</title>
<path fill="none" stroke="black" d="M732.15,-336.98C742.9,-341.12 754.39,-346.45 764.04,-353 802.23,-378.92 837.18,-419.85 857.63,-446.31"/>
<polygon fill="black" stroke="black" points="854.91,-448.51 863.75,-454.36 860.49,-444.28 854.91,-448.51"/>
</g>
<!-- ArgRanks&#45;&gt;SigMap -->
<g id="edge19" class="edge">
<title>ArgRanks&#45;&gt;SigMap</title>
<path fill="none" stroke="black" d="M724.18,-311.87C736.8,-305.02 751.63,-296.27 764.04,-287 798.03,-261.63 832.7,-227 854.36,-204.09"/>
<polygon fill="black" stroke="black" points="857.18,-206.2 861.46,-196.51 852.07,-201.42 857.18,-206.2"/>
</g>
<!-- ArgIndels -->
<g id="node21" class="node">
<title>ArgIndels</title>
<ellipse fill="none" stroke="black" cx="544.11" cy="-333" rx="46.29" ry="18"/>
<text text-anchor="middle" x="544.11" y="-329.3" font-family="Times,serif" font-size="14.00">ArgIndels</text>
</g>
<!-- ArgIndels&#45;&gt;ArgRanks -->
<g id="edge20" class="edge">
<title>ArgIndels&#45;&gt;ArgRanks</title>
<path fill="none" stroke="black" d="M590.23,-330.88C605.55,-330.16 622.85,-329.35 638.87,-328.6"/>
<polygon fill="black" stroke="black" points="639.36,-332.08 649.18,-328.11 639.03,-325.09 639.36,-332.08"/>
</g>
<!-- ArgMutations -->
<g id="node22" class="node">
<title>ArgMutations</title>
<ellipse fill="none" stroke="black" cx="401.52" cy="-359" rx="60.39" ry="18"/>
<text text-anchor="middle" x="401.52" y="-355.3" font-family="Times,serif" font-size="14.00">ArgMutations</text>
</g>
<!-- ArgMutations&#45;&gt;IndexRanks -->
<g id="edge22" class="edge">
<title>ArgMutations&#45;&gt;IndexRanks</title>
<path fill="none" stroke="black" d="M449.33,-370.1C518.25,-386.45 651.1,-417.99 764.04,-445 783.64,-449.69 805.16,-454.85 824.07,-459.4"/>
<polygon fill="black" stroke="black" points="823.44,-462.85 833.98,-461.78 825.08,-456.04 823.44,-462.85"/>
</g>
<!-- ArgMutations&#45;&gt;SigMap -->
<g id="edge23" class="edge">
<title>ArgMutations&#45;&gt;SigMap</title>
<path fill="none" stroke="black" d="M428.59,-342.79C447.41,-331.53 473.67,-316.68 497.97,-306 615.78,-254.21 761.99,-211.21 833.26,-191.53"/>
<polygon fill="black" stroke="black" points="834.51,-194.82 843.22,-188.8 832.65,-188.07 834.51,-194.82"/>
</g>
<!-- ArgMutations&#45;&gt;ArgIndels -->
<g id="edge21" class="edge">
<title>ArgMutations&#45;&gt;ArgIndels</title>
<path fill="none" stroke="black" d="M453.28,-349.61C465.94,-347.27 479.52,-344.76 492.19,-342.42"/>
<polygon fill="black" stroke="black" points="492.92,-345.84 502.12,-340.58 491.65,-338.96 492.92,-345.84"/>
</g>
<!-- Args -->
<g id="node23" class="node">
<title>Args</title>
<ellipse fill="none" stroke="black" cx="27.95" cy="-386" rx="27.9" ry="18"/>
<text text-anchor="middle" x="27.95" y="-382.3" font-family="Times,serif" font-size="14.00">Args</text>
</g>
<!-- DataTensor(input) -->
<g id="node24" class="node">
<title>DataTensor(input)</title>
<ellipse fill="none" stroke="red" cx="198.49" cy="-440" rx="75.29" ry="18"/>
<text text-anchor="middle" x="198.49" y="-436.3" font-family="Times,serif" font-size="14.00">DataTensor(input)</text>
</g>
<!-- Args&#45;&gt;DataTensor(input) -->
<g id="edge24" class="edge">
<title>Args&#45;&gt;DataTensor(input)</title>
<path fill="none" stroke="purple" d="M51.05,-396.48C62.98,-401.87 78.05,-408.29 91.9,-413 105.09,-417.49 119.42,-421.62 133.16,-425.24"/>
<polygon fill="purple" stroke="purple" points="132.47,-428.68 143.02,-427.79 134.21,-421.9 132.47,-428.68"/>
</g>
<!-- ShapeTensor(block_shape) -->
<g id="node25" class="node">
<title>ShapeTensor(block_shape)</title>
<ellipse fill="none" stroke="red" cx="198.49" cy="-332" rx="106.68" ry="18"/>
<text text-anchor="middle" x="198.49" y="-328.3" font-family="Times,serif" font-size="14.00">ShapeTensor(block_shape)</text>
</g>
<!-- Args&#45;&gt;ShapeTensor(block_shape) -->
<g id="edge25" class="edge">
<title>Args&#45;&gt;ShapeTensor(block_shape)</title>
<path fill="none" stroke="purple" d="M51.05,-375.52C62.98,-370.13 78.05,-363.71 91.9,-359 102.43,-355.42 113.69,-352.06 124.79,-349.01"/>
<polygon fill="purple" stroke="purple" points="125.73,-352.38 134.48,-346.41 123.92,-345.62 125.73,-352.38"/>
</g>
<!-- ShapeTensor2D(paddings) -->
<g id="node26" class="node">
<title>ShapeTensor2D(paddings)</title>
<ellipse fill="none" stroke="red" cx="198.49" cy="-386" rx="104.78" ry="18"/>
<text text-anchor="middle" x="198.49" y="-382.3" font-family="Times,serif" font-size="14.00">ShapeTensor2D(paddings)</text>
</g>
<!-- Args&#45;&gt;ShapeTensor2D(paddings) -->
<g id="edge26" class="edge">
<title>Args&#45;&gt;ShapeTensor2D(paddings)</title>
<path fill="none" stroke="purple" d="M56.03,-386C64.05,-386 73.39,-386 83.36,-386"/>
<polygon fill="purple" stroke="purple" points="83.53,-389.5 93.53,-386 83.53,-382.5 83.53,-389.5"/>
</g>
<!-- DataTensor(input)&#45;&gt;DTypesNotImpl -->
<g id="edge33" class="edge">
<title>DataTensor(input)&#45;&gt;DTypesNotImpl</title>
<path fill="none" stroke="black" d="M271.41,-444.65C363.84,-450.63 523.6,-460.97 618.02,-467.07"/>
<polygon fill="black" stroke="black" points="617.87,-470.57 628.07,-467.73 618.32,-463.59 617.87,-470.57"/>
</g>
<!-- DataTensor(input)&#45;&gt;ArgMutations -->
<g id="edge32" class="edge">
<title>DataTensor(input)&#45;&gt;ArgMutations</title>
<path fill="none" stroke="black" d="M256.27,-428.41C272.32,-424.35 289.63,-419.22 305.08,-413 326.58,-404.34 349.23,-391.7 367.06,-380.83"/>
<polygon fill="black" stroke="black" points="369.26,-383.58 375.91,-375.33 365.57,-377.63 369.26,-383.58"/>
</g>
<!-- ShapeTensor(block_shape)&#45;&gt;ArgMutations -->
<g id="edge35" class="edge">
<title>ShapeTensor(block_shape)&#45;&gt;ArgMutations</title>
<path fill="none" stroke="black" d="M282.41,-343.14C300.24,-345.53 318.83,-348.03 335.84,-350.31"/>
<polygon fill="black" stroke="black" points="335.83,-353.84 346.2,-351.7 336.76,-346.9 335.83,-353.84"/>
</g>
<!-- ShapeTensor2D(paddings)&#45;&gt;ArgMutations -->
<g id="edge37" class="edge">
<title>ShapeTensor2D(paddings)&#45;&gt;ArgMutations</title>
<path fill="none" stroke="black" d="M281.54,-374.98C299.7,-372.54 318.68,-369.99 336.02,-367.66"/>
<polygon fill="black" stroke="black" points="336.57,-371.12 346.01,-366.32 335.64,-364.18 336.57,-371.12"/>
</g>
<!-- DataFormat -->
<g id="node27" class="node">
<title>DataFormat</title>
<ellipse fill="none" stroke="black" cx="695.15" cy="-380" rx="53.09" ry="18"/>
<text text-anchor="middle" x="695.15" y="-376.3" font-family="Times,serif" font-size="14.00">DataFormat</text>
</g>
<!-- DataFormat&#45;&gt;Layout(layout) -->
<g id="edge42" class="edge">
<title>DataFormat&#45;&gt;Layout(layout)</title>
<path fill="none" stroke="black" d="M736.2,-368.35C745.89,-364.42 755.81,-359.36 764.04,-353 785.43,-336.48 776.54,-317.33 800.04,-304 976.07,-204.18 1060.8,-323.34 1253.31,-261 1293.31,-248.05 1334.22,-222.03 1360.93,-202.97"/>
<polygon fill="black" stroke="black" points="1363.05,-205.75 1369.09,-197.05 1358.94,-200.09 1363.05,-205.75"/>
</g>
<!-- DataFormat&#45;&gt;IndexRanks -->
<g id="edge41" class="edge">
<title>DataFormat&#45;&gt;IndexRanks</title>
<path fill="none" stroke="black" d="M727.4,-394.33C738.98,-399.74 752.17,-406.03 764.04,-412 789.63,-424.85 818.08,-440.06 839.95,-451.94"/>
<polygon fill="black" stroke="black" points="838.43,-455.1 848.89,-456.82 841.78,-448.96 838.43,-455.1"/>
</g>
</g>
</svg>
