<?xml version="1.0" encoding="UTF-8" standalone="no"?>
<!DOCTYPE svg PUBLIC "-//W3C//DTD SVG 1.1//EN"
 "http://www.w3.org/Graphics/SVG/1.1/DTD/svg11.dtd">
<!-- Generated by graphviz version 2.43.0 (0)
 -->
<!-- Title: %3 Pages: 1 -->
<svg width="790pt" height="306pt"
 viewBox="0.00 0.00 790.24 306.00" xmlns="http://www.w3.org/2000/svg" xmlns:xlink="http://www.w3.org/1999/xlink">
<g id="graph0" class="graph" transform="scale(1 1) rotate(0) translate(4 302)">
<title>%3</title>
<polygon fill="white" stroke="transparent" points="-4,4 -4,-302 786.24,-302 786.24,4 -4,4"/>
<!-- Schema -->
<g id="node1" class="node">
<title>Schema</title>
<ellipse fill="none" stroke="black" cx="743.25" cy="-188" rx="38.99" ry="18"/>
<text text-anchor="middle" x="743.25" y="-184.3" font-family="Times,serif" font-size="14.00">Schema</text>
</g>
<!-- ShapeMap -->
<g id="node2" class="node">
<title>ShapeMap</title>
<ellipse fill="none" stroke="black" cx="174.44" cy="-72" rx="48.99" ry="18"/>
<text text-anchor="middle" x="174.44" y="-68.3" font-family="Times,serif" font-size="14.00">ShapeMap</text>
</g>
<!-- TensorShape(value) -->
<g id="node3" class="node">
<title>TensorShape(value)</title>
<ellipse fill="none" stroke="black" cx="343.68" cy="-18" rx="81.49" ry="18"/>
<text text-anchor="middle" x="343.68" y="-14.3" font-family="Times,serif" font-size="14.00">TensorShape(value)</text>
</g>
<!-- ShapeMap&#45;&gt;TensorShape(value) -->
<g id="edge1" class="edge">
<title>ShapeMap&#45;&gt;TensorShape(value)</title>
<path fill="none" stroke="purple" d="M211.73,-60.28C233.78,-53.16 262.37,-43.93 287.22,-35.91"/>
<polygon fill="purple" stroke="purple" points="288.45,-39.19 296.89,-32.78 286.3,-32.53 288.45,-39.19"/>
</g>
<!-- TensorShape(bias) -->
<g id="node4" class="node">
<title>TensorShape(bias)</title>
<ellipse fill="none" stroke="black" cx="343.68" cy="-72" rx="76.89" ry="18"/>
<text text-anchor="middle" x="343.68" y="-68.3" font-family="Times,serif" font-size="14.00">TensorShape(bias)</text>
</g>
<!-- ShapeMap&#45;&gt;TensorShape(bias) -->
<g id="edge2" class="edge">
<title>ShapeMap&#45;&gt;TensorShape(bias)</title>
<path fill="none" stroke="purple" d="M223.36,-72C233.89,-72 245.34,-72 256.85,-72"/>
<polygon fill="purple" stroke="purple" points="256.96,-75.5 266.96,-72 256.96,-68.5 256.96,-75.5"/>
</g>
<!-- DataTensor(value) -->
<g id="node13" class="node">
<title>DataTensor(value)</title>
<ellipse fill="none" stroke="black" cx="566.21" cy="-80" rx="76.89" ry="18"/>
<text text-anchor="middle" x="566.21" y="-76.3" font-family="Times,serif" font-size="14.00">DataTensor(value)</text>
</g>
<!-- TensorShape(value)&#45;&gt;DataTensor(value) -->
<g id="edge14" class="edge">
<title>TensorShape(value)&#45;&gt;DataTensor(value)</title>
<path fill="none" stroke="black" d="M394.72,-32.07C427.8,-41.37 471.31,-53.6 506.1,-63.38"/>
<polygon fill="black" stroke="black" points="505.55,-66.86 516.12,-66.2 507.45,-60.12 505.55,-66.86"/>
</g>
<!-- DataTensor(bias) -->
<g id="node14" class="node">
<title>DataTensor(bias)</title>
<ellipse fill="none" stroke="black" cx="566.21" cy="-134" rx="71.49" ry="18"/>
<text text-anchor="middle" x="566.21" y="-130.3" font-family="Times,serif" font-size="14.00">DataTensor(bias)</text>
</g>
<!-- TensorShape(bias)&#45;&gt;DataTensor(bias) -->
<g id="edge17" class="edge">
<title>TensorShape(bias)&#45;&gt;DataTensor(bias)</title>
<path fill="none" stroke="black" d="M391.71,-86.06C413.69,-92.55 440.23,-100.3 464.17,-107 477.75,-110.8 492.38,-114.78 506.19,-118.48"/>
<polygon fill="black" stroke="black" points="505.5,-121.92 516.07,-121.12 507.31,-115.16 505.5,-121.92"/>
</g>
<!-- DTypes -->
<g id="node5" class="node">
<title>DTypes</title>
<ellipse fill="none" stroke="black" cx="174.44" cy="-153" rx="38.19" ry="18"/>
<text text-anchor="middle" x="174.44" y="-149.3" font-family="Times,serif" font-size="14.00">DTypes</text>
</g>
<!-- TensorDType(value) -->
<g id="node6" class="node">
<title>TensorDType(value)</title>
<ellipse fill="none" stroke="black" cx="343.68" cy="-126" rx="84.49" ry="18"/>
<text text-anchor="middle" x="343.68" y="-122.3" font-family="Times,serif" font-size="14.00">TensorDType(value)</text>
</g>
<!-- DTypes&#45;&gt;TensorDType(value) -->
<g id="edge3" class="edge">
<title>DTypes&#45;&gt;TensorDType(value)</title>
<path fill="none" stroke="purple" d="M210.9,-147.27C226.99,-144.68 246.68,-141.5 265.89,-138.4"/>
<polygon fill="purple" stroke="purple" points="266.55,-141.84 275.87,-136.79 265.44,-134.92 266.55,-141.84"/>
</g>
<!-- TensorDType(bias) -->
<g id="node7" class="node">
<title>TensorDType(bias)</title>
<ellipse fill="none" stroke="black" cx="343.68" cy="-180" rx="79.09" ry="18"/>
<text text-anchor="middle" x="343.68" y="-176.3" font-family="Times,serif" font-size="14.00">TensorDType(bias)</text>
</g>
<!-- DTypes&#45;&gt;TensorDType(bias) -->
<g id="edge4" class="edge">
<title>DTypes&#45;&gt;TensorDType(bias)</title>
<path fill="none" stroke="purple" d="M210.9,-158.73C227.72,-161.44 248.47,-164.79 268.5,-168.02"/>
<polygon fill="purple" stroke="purple" points="268.13,-171.51 278.56,-169.65 269.25,-164.6 268.13,-171.51"/>
</g>
<!-- TensorDType(value)&#45;&gt;DataTensor(value) -->
<g id="edge15" class="edge">
<title>TensorDType(value)&#45;&gt;DataTensor(value)</title>
<path fill="none" stroke="black" d="M404.65,-113.49C433.64,-107.44 468.53,-100.16 498.38,-93.94"/>
<polygon fill="black" stroke="black" points="499.21,-97.34 508.29,-91.87 497.79,-90.49 499.21,-97.34"/>
</g>
<!-- TensorDType(bias)&#45;&gt;DataTensor(bias) -->
<g id="edge18" class="edge">
<title>TensorDType(bias)&#45;&gt;DataTensor(bias)</title>
<path fill="none" stroke="black" d="M402.62,-167.91C432.79,-161.62 469.76,-153.91 500.83,-147.43"/>
<polygon fill="black" stroke="black" points="501.61,-150.84 510.69,-145.37 500.18,-143.99 501.61,-150.84"/>
</g>
<!-- ArgMap -->
<g id="node8" class="node">
<title>ArgMap</title>
<ellipse fill="none" stroke="black" cx="174.44" cy="-243" rx="40.89" ry="18"/>
<text text-anchor="middle" x="174.44" y="-239.3" font-family="Times,serif" font-size="14.00">ArgMap</text>
</g>
<!-- DataFormat(data_format) -->
<g id="node9" class="node">
<title>DataFormat(data_format)</title>
<ellipse fill="none" stroke="black" cx="566.21" cy="-280" rx="102.08" ry="18"/>
<text text-anchor="middle" x="566.21" y="-276.3" font-family="Times,serif" font-size="14.00">DataFormat(data_format)</text>
</g>
<!-- ArgMap&#45;&gt;DataFormat(data_format) -->
<g id="edge5" class="edge">
<title>ArgMap&#45;&gt;DataFormat(data_format)</title>
<path fill="none" stroke="purple" d="M210.68,-251.8C225.56,-255.2 243.13,-258.79 259.18,-261 323.61,-269.87 396.23,-274.6 454.56,-277.13"/>
<polygon fill="purple" stroke="purple" points="454.77,-280.64 464.91,-277.56 455.06,-273.64 454.77,-280.64"/>
</g>
<!-- DataFormat(data_format)&#45;&gt;Schema -->
<g id="edge12" class="edge">
<title>DataFormat(data_format)&#45;&gt;Schema</title>
<path fill="none" stroke="black" d="M626.17,-265.41C640.38,-260.79 655.21,-255.02 668.25,-248 686.51,-238.17 704.63,-223.57 718.38,-211.24"/>
<polygon fill="black" stroke="black" points="720.94,-213.64 725.93,-204.29 716.2,-208.49 720.94,-213.64"/>
</g>
<!-- Inventory -->
<g id="node10" class="node">
<title>Inventory</title>
<ellipse fill="none" stroke="black" cx="44.85" cy="-153" rx="44.69" ry="18"/>
<text text-anchor="middle" x="44.85" y="-149.3" font-family="Times,serif" font-size="14.00">Inventory</text>
</g>
<!-- Inventory&#45;&gt;ShapeMap -->
<g id="edge7" class="edge">
<title>Inventory&#45;&gt;ShapeMap</title>
<path fill="none" stroke="black" d="M69.55,-137.95C89.52,-125.27 118.32,-106.99 140.53,-92.89"/>
<polygon fill="black" stroke="black" points="142.43,-95.83 149,-87.52 138.68,-89.92 142.43,-95.83"/>
</g>
<!-- Inventory&#45;&gt;DTypes -->
<g id="edge6" class="edge">
<title>Inventory&#45;&gt;DTypes</title>
<path fill="none" stroke="black" d="M89.76,-153C101.35,-153 113.92,-153 125.71,-153"/>
<polygon fill="black" stroke="black" points="125.82,-156.5 135.82,-153 125.82,-149.5 125.82,-156.5"/>
</g>
<!-- Inventory&#45;&gt;ArgMap -->
<g id="edge8" class="edge">
<title>Inventory&#45;&gt;ArgMap</title>
<path fill="none" stroke="black" d="M67.78,-168.47C88.63,-183.18 120.16,-205.42 143.35,-221.78"/>
<polygon fill="black" stroke="black" points="141.6,-224.83 151.79,-227.73 145.64,-219.11 141.6,-224.83"/>
</g>
<!-- GetReturnTensors -->
<g id="node11" class="node">
<title>GetReturnTensors</title>
<ellipse fill="none" stroke="black" cx="566.21" cy="-188" rx="75.29" ry="18"/>
<text text-anchor="middle" x="566.21" y="-184.3" font-family="Times,serif" font-size="14.00">GetReturnTensors</text>
</g>
<!-- GetReturnTensors&#45;&gt;Schema -->
<g id="edge9" class="edge">
<title>GetReturnTensors&#45;&gt;Schema</title>
<path fill="none" stroke="black" d="M641.69,-188C659.25,-188 677.52,-188 693.6,-188"/>
<polygon fill="black" stroke="black" points="693.81,-191.5 703.81,-188 693.81,-184.5 693.81,-191.5"/>
</g>
<!-- ValidReturnShapes -->
<g id="node12" class="node">
<title>ValidReturnShapes</title>
<ellipse fill="none" stroke="black" cx="343.68" cy="-234" rx="77.99" ry="18"/>
<text text-anchor="middle" x="343.68" y="-230.3" font-family="Times,serif" font-size="14.00">ValidReturnShapes</text>
</g>
<!-- ValidReturnShapes&#45;&gt;Schema -->
<g id="edge10" class="edge">
<title>ValidReturnShapes&#45;&gt;Schema</title>
<path fill="none" stroke="black" d="M421.33,-235.73C487.42,-235.75 585.04,-232.24 668.25,-215 680.49,-212.46 693.42,-208.3 704.99,-203.99"/>
<polygon fill="black" stroke="black" points="706.29,-207.24 714.35,-200.37 703.76,-200.71 706.29,-207.24"/>
</g>
<!-- ValidReturnShapes&#45;&gt;GetReturnTensors -->
<g id="edge11" class="edge">
<title>ValidReturnShapes&#45;&gt;GetReturnTensors</title>
<path fill="none" stroke="black" d="M402.04,-222.03C431.75,-215.84 468.18,-208.24 499.07,-201.8"/>
<polygon fill="black" stroke="black" points="499.82,-205.22 508.89,-199.75 498.39,-198.36 499.82,-205.22"/>
</g>
<!-- DataTensor(value)&#45;&gt;Schema -->
<g id="edge13" class="edge">
<title>DataTensor(value)&#45;&gt;Schema</title>
<path fill="none" stroke="black" d="M628.8,-90.5C642.4,-94.41 656.3,-99.74 668.25,-107 691.33,-121.02 711.55,-144.36 724.99,-162.39"/>
<polygon fill="black" stroke="black" points="722.34,-164.7 731.03,-170.76 728.01,-160.6 722.34,-164.7"/>
</g>
<!-- DataTensor(bias)&#45;&gt;Schema -->
<g id="edge16" class="edge">
<title>DataTensor(bias)&#45;&gt;Schema</title>
<path fill="none" stroke="black" d="M617.83,-146.59C634.03,-150.86 651.97,-155.87 668.25,-161 679.75,-164.63 692.11,-168.96 703.36,-173.08"/>
<polygon fill="black" stroke="black" points="702.33,-176.43 712.93,-176.62 704.77,-169.86 702.33,-176.43"/>
</g>
</g>
</svg>
