<?xml version="1.0" encoding="UTF-8" standalone="no"?>
<!DOCTYPE svg PUBLIC "-//W3C//DTD SVG 1.1//EN"
 "http://www.w3.org/Graphics/SVG/1.1/DTD/svg11.dtd">
<!-- Generated by graphviz version 2.43.0 (0)
 -->
<!-- Title: %3 Pages: 1 -->
<svg width="788pt" height="336pt"
 viewBox="0.00 0.00 787.64 336.00" xmlns="http://www.w3.org/2000/svg" xmlns:xlink="http://www.w3.org/1999/xlink">
<g id="graph0" class="graph" transform="scale(1 1) rotate(0) translate(4 332)">
<title>%3</title>
<polygon fill="white" stroke="transparent" points="-4,4 -4,-332 783.64,-332 783.64,4 -4,4"/>
<!-- Schema -->
<g id="node1" class="node">
<title>Schema</title>
<ellipse fill="none" stroke="black" cx="740.65" cy="-180" rx="38.99" ry="18"/>
<text text-anchor="middle" x="740.65" y="-176.3" font-family="Times,serif" font-size="14.00">Schema</text>
</g>
<!-- ShapeMap -->
<g id="node2" class="node">
<title>ShapeMap</title>
<ellipse fill="none" stroke="black" cx="174.44" cy="-210" rx="48.99" ry="18"/>
<text text-anchor="middle" x="174.44" y="-206.3" font-family="Times,serif" font-size="14.00">ShapeMap</text>
</g>
<!-- TensorShape(input) -->
<g id="node3" class="node">
<title>TensorShape(input)</title>
<ellipse fill="none" stroke="black" cx="342.38" cy="-156" rx="80.69" ry="18"/>
<text text-anchor="middle" x="342.38" y="-152.3" font-family="Times,serif" font-size="14.00">TensorShape(input)</text>
</g>
<!-- ShapeMap&#45;&gt;TensorShape(input) -->
<g id="edge1" class="edge">
<title>ShapeMap&#45;&gt;TensorShape(input)</title>
<path fill="none" stroke="purple" d="M211.44,-198.28C233.32,-191.16 261.7,-181.93 286.35,-173.91"/>
<polygon fill="purple" stroke="purple" points="287.52,-177.21 295.94,-170.78 285.35,-170.55 287.52,-177.21"/>
</g>
<!-- ShapeList(ksize) -->
<g id="node4" class="node">
<title>ShapeList(ksize)</title>
<ellipse fill="none" stroke="black" cx="563.61" cy="-310" rx="69.59" ry="18"/>
<text text-anchor="middle" x="563.61" y="-306.3" font-family="Times,serif" font-size="14.00">ShapeList(ksize)</text>
</g>
<!-- ShapeMap&#45;&gt;ShapeList(ksize) -->
<g id="edge2" class="edge">
<title>ShapeMap&#45;&gt;ShapeList(ksize)</title>
<path fill="none" stroke="purple" d="M187.56,-227.62C202.06,-247.05 228.28,-277.36 259.18,-291 333.28,-323.7 427.58,-324.03 491.23,-319.04"/>
<polygon fill="purple" stroke="purple" points="491.9,-322.49 501.56,-318.16 491.3,-315.52 491.9,-322.49"/>
</g>
<!-- ShapeList(strides) -->
<g id="node5" class="node">
<title>ShapeList(strides)</title>
<ellipse fill="none" stroke="black" cx="342.38" cy="-264" rx="74.99" ry="18"/>
<text text-anchor="middle" x="342.38" y="-260.3" font-family="Times,serif" font-size="14.00">ShapeList(strides)</text>
</g>
<!-- ShapeMap&#45;&gt;ShapeList(strides) -->
<g id="edge3" class="edge">
<title>ShapeMap&#45;&gt;ShapeList(strides)</title>
<path fill="none" stroke="purple" d="M211.44,-221.72C233.66,-228.95 262.57,-238.36 287.48,-246.46"/>
<polygon fill="purple" stroke="purple" points="286.57,-249.85 297.17,-249.61 288.74,-243.19 286.57,-249.85"/>
</g>
<!-- DataTensor(input) -->
<g id="node14" class="node">
<title>DataTensor(input)</title>
<ellipse fill="none" stroke="black" cx="563.61" cy="-126" rx="75.29" ry="18"/>
<text text-anchor="middle" x="563.61" y="-122.3" font-family="Times,serif" font-size="14.00">DataTensor(input)</text>
</g>
<!-- TensorShape(input)&#45;&gt;DataTensor(input) -->
<g id="edge15" class="edge">
<title>TensorShape(input)&#45;&gt;DataTensor(input)</title>
<path fill="none" stroke="black" d="M411.54,-146.67C435.74,-143.36 463.09,-139.62 487.81,-136.24"/>
<polygon fill="black" stroke="black" points="488.43,-139.68 497.86,-134.86 487.48,-132.75 488.43,-139.68"/>
</g>
<!-- ShapeList(ksize)&#45;&gt;Schema -->
<g id="edge17" class="edge">
<title>ShapeList(ksize)&#45;&gt;Schema</title>
<path fill="none" stroke="black" d="M619.65,-299.22C635.44,-294.43 652.05,-287.61 665.65,-278 692,-259.37 713.06,-228.51 725.88,-206.39"/>
<polygon fill="black" stroke="black" points="729.02,-207.95 730.85,-197.51 722.91,-204.52 729.02,-207.95"/>
</g>
<!-- ShapeList(strides)&#45;&gt;Schema -->
<g id="edge18" class="edge">
<title>ShapeList(strides)&#45;&gt;Schema</title>
<path fill="none" stroke="black" d="M417.15,-264.84C483.87,-263.44 583.89,-255.93 665.65,-227 682.25,-221.13 698.95,-210.97 712.28,-201.59"/>
<polygon fill="black" stroke="black" points="714.49,-204.31 720.51,-195.6 710.37,-198.65 714.49,-204.31"/>
</g>
<!-- DTypes -->
<g id="node6" class="node">
<title>DTypes</title>
<ellipse fill="none" stroke="black" cx="174.44" cy="-102" rx="38.19" ry="18"/>
<text text-anchor="middle" x="174.44" y="-98.3" font-family="Times,serif" font-size="14.00">DTypes</text>
</g>
<!-- TensorDType(input) -->
<g id="node7" class="node">
<title>TensorDType(input)</title>
<ellipse fill="none" stroke="black" cx="342.38" cy="-102" rx="83.39" ry="18"/>
<text text-anchor="middle" x="342.38" y="-98.3" font-family="Times,serif" font-size="14.00">TensorDType(input)</text>
</g>
<!-- DTypes&#45;&gt;TensorDType(input) -->
<g id="edge4" class="edge">
<title>DTypes&#45;&gt;TensorDType(input)</title>
<path fill="none" stroke="purple" d="M213.09,-102C223.96,-102 236.32,-102 248.97,-102"/>
<polygon fill="purple" stroke="purple" points="249.17,-105.5 259.17,-102 249.17,-98.5 249.17,-105.5"/>
</g>
<!-- TensorDType(input)&#45;&gt;DataTensor(input) -->
<g id="edge16" class="edge">
<title>TensorDType(input)&#45;&gt;DataTensor(input)</title>
<path fill="none" stroke="black" d="M416.99,-110.06C438.78,-112.44 462.7,-115.06 484.75,-117.48"/>
<polygon fill="black" stroke="black" points="484.42,-120.96 494.74,-118.57 485.18,-114 484.42,-120.96"/>
</g>
<!-- ArgMap -->
<g id="node8" class="node">
<title>ArgMap</title>
<ellipse fill="none" stroke="black" cx="342.38" cy="-48" rx="40.89" ry="18"/>
<text text-anchor="middle" x="342.38" y="-44.3" font-family="Times,serif" font-size="14.00">ArgMap</text>
</g>
<!-- DataFormat(data_format) -->
<g id="node9" class="node">
<title>DataFormat(data_format)</title>
<ellipse fill="none" stroke="black" cx="563.61" cy="-72" rx="102.08" ry="18"/>
<text text-anchor="middle" x="563.61" y="-68.3" font-family="Times,serif" font-size="14.00">DataFormat(data_format)</text>
</g>
<!-- ArgMap&#45;&gt;DataFormat(data_format) -->
<g id="edge5" class="edge">
<title>ArgMap&#45;&gt;DataFormat(data_format)</title>
<path fill="none" stroke="purple" d="M382.32,-52.26C405.75,-54.83 436.7,-58.22 466.33,-61.46"/>
<polygon fill="purple" stroke="purple" points="466,-64.94 476.32,-62.55 466.76,-57.99 466,-64.94"/>
</g>
<!-- Options(padding) -->
<g id="node10" class="node">
<title>Options(padding)</title>
<ellipse fill="none" stroke="black" cx="563.61" cy="-18" rx="72.59" ry="18"/>
<text text-anchor="middle" x="563.61" y="-14.3" font-family="Times,serif" font-size="14.00">Options(padding)</text>
</g>
<!-- ArgMap&#45;&gt;Options(padding) -->
<g id="edge6" class="edge">
<title>ArgMap&#45;&gt;Options(padding)</title>
<path fill="none" stroke="purple" d="M381.56,-42.77C411.28,-38.71 453.4,-32.94 489.54,-28"/>
<polygon fill="purple" stroke="purple" points="490.12,-31.45 499.56,-26.63 489.17,-24.52 490.12,-31.45"/>
</g>
<!-- DataFormat(data_format)&#45;&gt;Schema -->
<g id="edge13" class="edge">
<title>DataFormat(data_format)&#45;&gt;Schema</title>
<path fill="none" stroke="black" d="M634.43,-85.04C645.32,-88.63 656.11,-93.2 665.65,-99 688.73,-113.02 708.95,-136.36 722.39,-154.39"/>
<polygon fill="black" stroke="black" points="719.74,-156.7 728.43,-162.76 725.41,-152.6 719.74,-156.7"/>
</g>
<!-- Options(padding)&#45;&gt;Schema -->
<g id="edge19" class="edge">
<title>Options(padding)&#45;&gt;Schema</title>
<path fill="none" stroke="black" d="M627.86,-26.56C641.3,-30.57 654.72,-36.43 665.65,-45 700.79,-72.57 721.58,-121.67 731.79,-152.45"/>
<polygon fill="black" stroke="black" points="728.5,-153.64 734.85,-162.12 735.17,-151.53 728.5,-153.64"/>
</g>
<!-- Inventory -->
<g id="node11" class="node">
<title>Inventory</title>
<ellipse fill="none" stroke="black" cx="44.85" cy="-102" rx="44.69" ry="18"/>
<text text-anchor="middle" x="44.85" y="-98.3" font-family="Times,serif" font-size="14.00">Inventory</text>
</g>
<!-- Inventory&#45;&gt;ShapeMap -->
<g id="edge8" class="edge">
<title>Inventory&#45;&gt;ShapeMap</title>
<path fill="none" stroke="black" d="M64.95,-118.17C86.43,-136.36 121.51,-166.05 145.94,-186.73"/>
<polygon fill="black" stroke="black" points="143.89,-189.58 153.79,-193.37 148.41,-184.23 143.89,-189.58"/>
</g>
<!-- Inventory&#45;&gt;DTypes -->
<g id="edge7" class="edge">
<title>Inventory&#45;&gt;DTypes</title>
<path fill="none" stroke="black" d="M89.76,-102C101.35,-102 113.92,-102 125.71,-102"/>
<polygon fill="black" stroke="black" points="125.82,-105.5 135.82,-102 125.82,-98.5 125.82,-105.5"/>
</g>
<!-- Inventory&#45;&gt;ArgMap -->
<g id="edge9" class="edge">
<title>Inventory&#45;&gt;ArgMap</title>
<path fill="none" stroke="black" d="M77.67,-89.6C92.13,-84.39 109.57,-78.69 125.69,-75 181.71,-62.16 247.41,-55.04 291.44,-51.38"/>
<polygon fill="black" stroke="black" points="291.91,-54.86 301.6,-50.57 291.35,-47.88 291.91,-54.86"/>
</g>
<!-- GetReturnTensors -->
<g id="node12" class="node">
<title>GetReturnTensors</title>
<ellipse fill="none" stroke="black" cx="563.61" cy="-180" rx="75.29" ry="18"/>
<text text-anchor="middle" x="563.61" y="-176.3" font-family="Times,serif" font-size="14.00">GetReturnTensors</text>
</g>
<!-- GetReturnTensors&#45;&gt;Schema -->
<g id="edge10" class="edge">
<title>GetReturnTensors&#45;&gt;Schema</title>
<path fill="none" stroke="black" d="M639.1,-180C656.65,-180 674.92,-180 691,-180"/>
<polygon fill="black" stroke="black" points="691.21,-183.5 701.21,-180 691.21,-176.5 691.21,-183.5"/>
</g>
<!-- ValidReturnShapes -->
<g id="node13" class="node">
<title>ValidReturnShapes</title>
<ellipse fill="none" stroke="black" cx="342.38" cy="-210" rx="77.99" ry="18"/>
<text text-anchor="middle" x="342.38" y="-206.3" font-family="Times,serif" font-size="14.00">ValidReturnShapes</text>
</g>
<!-- ValidReturnShapes&#45;&gt;Schema -->
<g id="edge11" class="edge">
<title>ValidReturnShapes&#45;&gt;Schema</title>
<path fill="none" stroke="black" d="M415.71,-216.28C481.47,-220.35 580.87,-222.39 665.65,-207 678.05,-204.75 691.12,-200.62 702.76,-196.25"/>
<polygon fill="black" stroke="black" points="704.13,-199.48 712.16,-192.57 701.58,-192.96 704.13,-199.48"/>
</g>
<!-- ValidReturnShapes&#45;&gt;GetReturnTensors -->
<g id="edge12" class="edge">
<title>ValidReturnShapes&#45;&gt;GetReturnTensors</title>
<path fill="none" stroke="black" d="M409.75,-200.92C434.34,-197.55 462.38,-193.72 487.68,-190.25"/>
<polygon fill="black" stroke="black" points="488.16,-193.72 497.59,-188.9 487.21,-186.78 488.16,-193.72"/>
</g>
<!-- DataTensor(input)&#45;&gt;Schema -->
<g id="edge14" class="edge">
<title>DataTensor(input)&#45;&gt;Schema</title>
<path fill="none" stroke="black" d="M616.53,-138.93C632.38,-143.13 649.81,-148 665.65,-153 677.15,-156.63 689.51,-160.96 700.76,-165.08"/>
<polygon fill="black" stroke="black" points="699.73,-168.43 710.33,-168.62 702.17,-161.86 699.73,-168.43"/>
</g>
</g>
</svg>
