<?xml version="1.0" encoding="UTF-8" standalone="no"?>
<!DOCTYPE svg PUBLIC "-//W3C//DTD SVG 1.1//EN"
 "http://www.w3.org/Graphics/SVG/1.1/DTD/svg11.dtd">
<!-- Generated by graphviz version 2.43.0 (0)
 -->
<!-- Title: %3 Pages: 1 -->
<svg width="1406pt" height="698pt"
 viewBox="0.00 0.00 1405.60 698.00" xmlns="http://www.w3.org/2000/svg" xmlns:xlink="http://www.w3.org/1999/xlink">
<g id="graph0" class="graph" transform="scale(1 1) rotate(0) translate(4 694)">
<title>%3</title>
<polygon fill="white" stroke="transparent" points="-4,4 -4,-694 1401.6,-694 1401.6,4 -4,4"/>
<!-- ObservedValue(dtypes) -->
<g id="node1" class="node">
<title>ObservedValue(dtypes)</title>
<ellipse fill="none" stroke="black" cx="773.14" cy="-672" rx="92.88" ry="18"/>
<text text-anchor="middle" x="773.14" y="-668.3" font-family="Times,serif" font-size="14.00">ObservedValue(dtypes)</text>
</g>
<!-- ObservedValue(shapes) -->
<g id="node2" class="node">
<title>ObservedValue(shapes)</title>
<ellipse fill="none" stroke="black" cx="773.14" cy="-72" rx="93.68" ry="18"/>
<text text-anchor="middle" x="773.14" y="-68.3" font-family="Times,serif" font-size="14.00">ObservedValue(shapes)</text>
</g>
<!-- ObservedValue(args) -->
<g id="node3" class="node">
<title>ObservedValue(args)</title>
<ellipse fill="none" stroke="black" cx="430.12" cy="-164" rx="85.29" ry="18"/>
<text text-anchor="middle" x="430.12" y="-160.3" font-family="Times,serif" font-size="14.00">ObservedValue(args)</text>
</g>
<!-- Layout(layout) -->
<g id="node4" class="node">
<title>Layout(layout)</title>
<ellipse fill="none" stroke="black" cx="1294.9" cy="-149" rx="63.89" ry="18"/>
<text text-anchor="middle" x="1294.9" y="-145.3" font-family="Times,serif" font-size="14.00">Layout(layout)</text>
</g>
<!-- IndexRanks -->
<g id="node5" class="node">
<title>IndexRanks</title>
<ellipse fill="none" stroke="black" cx="773.14" cy="-412" rx="52.79" ry="18"/>
<text text-anchor="middle" x="773.14" y="-408.3" font-family="Times,serif" font-size="14.00">IndexRanks</text>
</g>
<!-- RankRange(batch) -->
<g id="node6" class="node">
<title>RankRange(batch)</title>
<ellipse fill="none" stroke="black" cx="1029.47" cy="-472" rx="76.89" ry="18"/>
<text text-anchor="middle" x="1029.47" y="-468.3" font-family="Times,serif" font-size="14.00">RankRange(batch)</text>
</g>
<!-- IndexRanks&#45;&gt;RankRange(batch) -->
<g id="edge1" class="edge">
<title>IndexRanks&#45;&gt;RankRange(batch)</title>
<path fill="none" stroke="purple" d="M815.16,-422.97C840.36,-429.6 873.35,-438.08 902.74,-445 921.62,-449.45 942.17,-453.99 961.08,-458.04"/>
<polygon fill="purple" stroke="purple" points="960.58,-461.52 971.09,-460.18 962.04,-454.67 960.58,-461.52"/>
</g>
<!-- RankRange(input_spatial) -->
<g id="node7" class="node">
<title>RankRange(input_spatial)</title>
<ellipse fill="none" stroke="black" cx="1294.9" cy="-622" rx="102.88" ry="18"/>
<text text-anchor="middle" x="1294.9" y="-618.3" font-family="Times,serif" font-size="14.00">RankRange(input_spatial)</text>
</g>
<!-- IndexRanks&#45;&gt;RankRange(input_spatial) -->
<g id="edge2" class="edge">
<title>IndexRanks&#45;&gt;RankRange(input_spatial)</title>
<path fill="none" stroke="purple" d="M779.67,-429.89C793.14,-470.08 831.9,-567.09 902.74,-607 1001.78,-662.8 1138.4,-652.08 1221.2,-637.95"/>
<polygon fill="purple" stroke="purple" points="1222.04,-641.36 1231.28,-636.17 1220.82,-634.47 1222.04,-641.36"/>
</g>
<!-- RankRange(block_size) -->
<g id="node8" class="node">
<title>RankRange(block_size)</title>
<ellipse fill="none" stroke="black" cx="1029.47" cy="-418" rx="94.78" ry="18"/>
<text text-anchor="middle" x="1029.47" y="-414.3" font-family="Times,serif" font-size="14.00">RankRange(block_size)</text>
</g>
<!-- IndexRanks&#45;&gt;RankRange(block_size) -->
<g id="edge3" class="edge">
<title>IndexRanks&#45;&gt;RankRange(block_size)</title>
<path fill="none" stroke="purple" d="M825.92,-413.22C854.47,-413.9 890.96,-414.76 925.08,-415.56"/>
<polygon fill="purple" stroke="purple" points="925.03,-419.06 935.11,-415.8 925.19,-412.06 925.03,-419.06"/>
</g>
<!-- RankRange(input_channel) -->
<g id="node9" class="node">
<title>RankRange(input_channel)</title>
<ellipse fill="none" stroke="black" cx="1029.47" cy="-364" rx="107.48" ry="18"/>
<text text-anchor="middle" x="1029.47" y="-360.3" font-family="Times,serif" font-size="14.00">RankRange(input_channel)</text>
</g>
<!-- IndexRanks&#45;&gt;RankRange(input_channel) -->
<g id="edge4" class="edge">
<title>IndexRanks&#45;&gt;RankRange(input_channel)</title>
<path fill="none" stroke="purple" d="M819.61,-403.42C855.06,-396.73 905.2,-387.27 947.47,-379.29"/>
<polygon fill="purple" stroke="purple" points="948.29,-382.69 957.47,-377.4 947,-375.82 948.29,-382.69"/>
</g>
<!-- RankRange(const_dim_4) -->
<g id="node10" class="node">
<title>RankRange(const_dim_4)</title>
<ellipse fill="none" stroke="black" cx="1029.47" cy="-310" rx="103.18" ry="18"/>
<text text-anchor="middle" x="1029.47" y="-306.3" font-family="Times,serif" font-size="14.00">RankRange(const_dim_4)</text>
</g>
<!-- IndexRanks&#45;&gt;RankRange(const_dim_4) -->
<g id="edge5" class="edge">
<title>IndexRanks&#45;&gt;RankRange(const_dim_4)</title>
<path fill="none" stroke="purple" d="M796.72,-395.84C821.56,-378.79 863.22,-352.32 902.74,-337 915.47,-332.07 929.29,-327.95 942.96,-324.54"/>
<polygon fill="purple" stroke="purple" points="943.95,-327.9 952.87,-322.18 942.33,-321.09 943.95,-327.9"/>
</g>
<!-- RankRange(squared_block_size) -->
<g id="node11" class="node">
<title>RankRange(squared_block_size)</title>
<ellipse fill="none" stroke="black" cx="1029.47" cy="-256" rx="126.98" ry="18"/>
<text text-anchor="middle" x="1029.47" y="-252.3" font-family="Times,serif" font-size="14.00">RankRange(squared_block_size)</text>
</g>
<!-- IndexRanks&#45;&gt;RankRange(squared_block_size) -->
<g id="edge6" class="edge">
<title>IndexRanks&#45;&gt;RankRange(squared_block_size)</title>
<path fill="none" stroke="purple" d="M786.48,-394.2C807.09,-365.9 851.38,-311.01 902.74,-283 910.96,-278.52 919.86,-274.78 928.99,-271.66"/>
<polygon fill="purple" stroke="purple" points="930.1,-274.98 938.58,-268.63 927.99,-268.31 930.1,-274.98"/>
</g>
<!-- RankEquiv(output_spatial) -->
<g id="node12" class="node">
<title>RankEquiv(output_spatial)</title>
<ellipse fill="none" stroke="black" cx="1029.47" cy="-580" rx="105.88" ry="18"/>
<text text-anchor="middle" x="1029.47" y="-576.3" font-family="Times,serif" font-size="14.00">RankEquiv(output_spatial)</text>
</g>
<!-- IndexRanks&#45;&gt;RankEquiv(output_spatial) -->
<g id="edge7" class="edge">
<title>IndexRanks&#45;&gt;RankEquiv(output_spatial)</title>
<path fill="none" stroke="purple" d="M785.11,-429.99C804.69,-460.47 848.73,-521.97 902.74,-553 912.39,-558.55 923.06,-562.96 933.98,-566.47"/>
<polygon fill="purple" stroke="purple" points="933.04,-569.84 943.62,-569.32 935.03,-563.13 933.04,-569.84"/>
</g>
<!-- RankRange(output_flattened) -->
<g id="node13" class="node">
<title>RankRange(output_flattened)</title>
<ellipse fill="none" stroke="black" cx="1029.47" cy="-526" rx="115.08" ry="18"/>
<text text-anchor="middle" x="1029.47" y="-522.3" font-family="Times,serif" font-size="14.00">RankRange(output_flattened)</text>
</g>
<!-- IndexRanks&#45;&gt;RankRange(output_flattened) -->
<g id="edge8" class="edge">
<title>IndexRanks&#45;&gt;RankRange(output_flattened)</title>
<path fill="none" stroke="purple" d="M793.66,-428.77C817.71,-448.56 860.59,-481.02 902.74,-499 913.65,-503.65 925.44,-507.54 937.29,-510.77"/>
<polygon fill="purple" stroke="purple" points="936.68,-514.23 947.23,-513.34 938.42,-507.45 936.68,-514.23"/>
</g>
<!-- RankEquiv(output_spatial)&#45;&gt;RankRange(input_spatial) -->
<g id="edge27" class="edge">
<title>RankEquiv(output_spatial)&#45;&gt;RankRange(input_spatial)</title>
<path fill="none" stroke="black" d="M1107.38,-592.26C1139.03,-597.31 1175.83,-603.17 1208.33,-608.36"/>
<polygon fill="black" stroke="black" points="1207.84,-611.82 1218.27,-609.94 1208.95,-604.91 1207.84,-611.82"/>
</g>
<!-- DTypes -->
<g id="node14" class="node">
<title>DTypes</title>
<ellipse fill="none" stroke="black" cx="597.41" cy="-519" rx="38.19" ry="18"/>
<text text-anchor="middle" x="597.41" y="-515.3" font-family="Times,serif" font-size="14.00">DTypes</text>
</g>
<!-- DTypes&#45;&gt;ObservedValue(dtypes) -->
<g id="edge9" class="edge">
<title>DTypes&#45;&gt;ObservedValue(dtypes)</title>
<path fill="none" stroke="black" d="M605.88,-536.88C617.74,-563.14 643.29,-612.06 679.55,-640 686.87,-645.64 695.26,-650.33 703.93,-654.21"/>
<polygon fill="black" stroke="black" points="702.83,-657.55 713.41,-658.12 705.5,-651.07 702.83,-657.55"/>
</g>
<!-- DTypes&#45;&gt;Layout(layout) -->
<g id="edge11" class="edge">
<title>DTypes&#45;&gt;Layout(layout)</title>
<path fill="none" stroke="black" d="M621.13,-533.17C702.75,-582.1 985.3,-734.09 1156.21,-607 1227.67,-553.86 1276.05,-268.21 1289.86,-177.01"/>
<polygon fill="black" stroke="black" points="1293.32,-177.52 1291.33,-167.12 1286.4,-176.49 1293.32,-177.52"/>
</g>
<!-- DTypes&#45;&gt;IndexRanks -->
<g id="edge10" class="edge">
<title>DTypes&#45;&gt;IndexRanks</title>
<path fill="none" stroke="black" d="M621.48,-504.79C651.3,-486.42 703.49,-454.28 737.94,-433.07"/>
<polygon fill="black" stroke="black" points="740.04,-435.88 746.72,-427.66 736.37,-429.92 740.04,-435.88"/>
</g>
<!-- SigMap -->
<g id="node15" class="node">
<title>SigMap</title>
<ellipse fill="none" stroke="black" cx="773.14" cy="-126" rx="38.99" ry="18"/>
<text text-anchor="middle" x="773.14" y="-122.3" font-family="Times,serif" font-size="14.00">SigMap</text>
</g>
<!-- Sig(input) -->
<g id="node16" class="node">
<title>Sig(input)</title>
<ellipse fill="none" stroke="black" cx="1029.47" cy="-18" rx="46.29" ry="18"/>
<text text-anchor="middle" x="1029.47" y="-14.3" font-family="Times,serif" font-size="14.00">Sig(input)</text>
</g>
<!-- SigMap&#45;&gt;Sig(input) -->
<g id="edge12" class="edge">
<title>SigMap&#45;&gt;Sig(input)</title>
<path fill="none" stroke="purple" d="M811.06,-121.3C829.18,-117.57 850.54,-110.89 866.74,-99 889.99,-81.93 878.88,-61.22 902.74,-45 923.32,-31 949.83,-24.08 973.19,-20.72"/>
<polygon fill="purple" stroke="purple" points="973.84,-24.16 983.33,-19.45 972.97,-17.22 973.84,-24.16"/>
</g>
<!-- Sig(block_size) -->
<g id="node17" class="node">
<title>Sig(block_size)</title>
<ellipse fill="none" stroke="black" cx="1029.47" cy="-126" rx="65.79" ry="18"/>
<text text-anchor="middle" x="1029.47" y="-122.3" font-family="Times,serif" font-size="14.00">Sig(block_size)</text>
</g>
<!-- SigMap&#45;&gt;Sig(block_size) -->
<g id="edge13" class="edge">
<title>SigMap&#45;&gt;Sig(block_size)</title>
<path fill="none" stroke="purple" d="M812.22,-126C849.4,-126 907,-126 953.41,-126"/>
<polygon fill="purple" stroke="purple" points="953.43,-129.5 963.43,-126 953.43,-122.5 953.43,-129.5"/>
</g>
<!-- Sig(return[0]) -->
<g id="node18" class="node">
<title>Sig(return[0])</title>
<ellipse fill="none" stroke="black" cx="1029.47" cy="-72" rx="59.59" ry="18"/>
<text text-anchor="middle" x="1029.47" y="-68.3" font-family="Times,serif" font-size="14.00">Sig(return[0])</text>
</g>
<!-- SigMap&#45;&gt;Sig(return[0]) -->
<g id="edge14" class="edge">
<title>SigMap&#45;&gt;Sig(return[0])</title>
<path fill="none" stroke="purple" d="M808.97,-118.6C850.47,-109.8 920.41,-94.94 970.19,-84.37"/>
<polygon fill="purple" stroke="purple" points="971.12,-87.76 980.18,-82.25 969.67,-80.91 971.12,-87.76"/>
</g>
<!-- Sig(input)&#45;&gt;Layout(layout) -->
<g id="edge31" class="edge">
<title>Sig(input)&#45;&gt;Layout(layout)</title>
<path fill="none" stroke="black" d="M1074.15,-22.62C1099.04,-26.41 1130.33,-33.15 1156.21,-45 1199.91,-65 1242.9,-100.77 1268.92,-124.69"/>
<polygon fill="black" stroke="black" points="1266.74,-127.44 1276.43,-131.7 1271.51,-122.32 1266.74,-127.44"/>
</g>
<!-- Sig(block_size)&#45;&gt;Layout(layout) -->
<g id="edge32" class="edge">
<title>Sig(block_size)&#45;&gt;Layout(layout)</title>
<path fill="none" stroke="black" d="M1092.24,-131.39C1131.63,-134.83 1182.79,-139.3 1223.72,-142.87"/>
<polygon fill="black" stroke="black" points="1223.62,-146.38 1233.89,-143.76 1224.23,-139.4 1223.62,-146.38"/>
</g>
<!-- Sig(return[0])&#45;&gt;Layout(layout) -->
<g id="edge33" class="edge">
<title>Sig(return[0])&#45;&gt;Layout(layout)</title>
<path fill="none" stroke="black" d="M1081.04,-81.22C1104.14,-85.84 1131.75,-91.97 1156.21,-99 1187.45,-107.98 1221.82,-120.46 1248.4,-130.7"/>
<polygon fill="black" stroke="black" points="1247.23,-134 1257.82,-134.36 1249.77,-127.48 1247.23,-134"/>
</g>
<!-- ArgIndels -->
<g id="node19" class="node">
<title>ArgIndels</title>
<ellipse fill="none" stroke="black" cx="597.41" cy="-126" rx="46.29" ry="18"/>
<text text-anchor="middle" x="597.41" y="-122.3" font-family="Times,serif" font-size="14.00">ArgIndels</text>
</g>
<!-- ArgIndels&#45;&gt;ObservedValue(shapes) -->
<g id="edge17" class="edge">
<title>ArgIndels&#45;&gt;ObservedValue(shapes)</title>
<path fill="none" stroke="black" d="M632.67,-114.28C647.1,-109.43 664.1,-103.82 679.55,-99 689.36,-95.94 699.79,-92.79 709.98,-89.78"/>
<polygon fill="black" stroke="black" points="711.04,-93.12 719.65,-86.94 709.07,-86.4 711.04,-93.12"/>
</g>
<!-- ArgIndels&#45;&gt;Layout(layout) -->
<g id="edge18" class="edge">
<title>ArgIndels&#45;&gt;Layout(layout)</title>
<path fill="none" stroke="black" d="M629.8,-139.06C644.61,-144.54 662.7,-150.27 679.55,-153 888.68,-186.88 944.39,-156.08 1156.21,-153 1177.38,-152.69 1200.37,-152.12 1221.39,-151.5"/>
<polygon fill="black" stroke="black" points="1221.65,-155 1231.54,-151.2 1221.44,-148 1221.65,-155"/>
</g>
<!-- ArgIndels&#45;&gt;IndexRanks -->
<g id="edge15" class="edge">
<title>ArgIndels&#45;&gt;IndexRanks</title>
<path fill="none" stroke="black" d="M609.01,-143.46C638.39,-191.83 720.98,-327.77 756.06,-385.52"/>
<polygon fill="black" stroke="black" points="753.27,-387.68 761.46,-394.41 759.26,-384.04 753.27,-387.68"/>
</g>
<!-- ArgIndels&#45;&gt;SigMap -->
<g id="edge16" class="edge">
<title>ArgIndels&#45;&gt;SigMap</title>
<path fill="none" stroke="black" d="M643.6,-126C668.26,-126 698.78,-126 723.89,-126"/>
<polygon fill="black" stroke="black" points="723.94,-129.5 733.94,-126 723.94,-122.5 723.94,-129.5"/>
</g>
<!-- IndexUsage -->
<g id="node20" class="node">
<title>IndexUsage</title>
<ellipse fill="none" stroke="black" cx="430.12" cy="-110" rx="52.79" ry="18"/>
<text text-anchor="middle" x="430.12" y="-106.3" font-family="Times,serif" font-size="14.00">IndexUsage</text>
</g>
<!-- IndexUsage&#45;&gt;ObservedValue(shapes) -->
<g id="edge21" class="edge">
<title>IndexUsage&#45;&gt;ObservedValue(shapes)</title>
<path fill="none" stroke="black" d="M480.34,-104.52C532.78,-98.67 616.95,-89.29 681.45,-82.11"/>
<polygon fill="black" stroke="black" points="682.07,-85.56 691.62,-80.97 681.3,-78.6 682.07,-85.56"/>
</g>
<!-- IndexUsage&#45;&gt;IndexRanks -->
<g id="edge19" class="edge">
<title>IndexUsage&#45;&gt;IndexRanks</title>
<path fill="none" stroke="black" d="M474.93,-119.48C488.5,-123.59 503.08,-129.28 515.26,-137 623.98,-205.92 717.52,-331.65 754.84,-385.92"/>
<polygon fill="black" stroke="black" points="752.02,-388 760.54,-394.3 757.81,-384.06 752.02,-388"/>
</g>
<!-- IndexUsage&#45;&gt;ArgIndels -->
<g id="edge20" class="edge">
<title>IndexUsage&#45;&gt;ArgIndels</title>
<path fill="none" stroke="black" d="M481.16,-114.84C500.5,-116.72 522.67,-118.86 542.37,-120.77"/>
<polygon fill="black" stroke="black" points="542.13,-124.26 552.42,-121.74 542.8,-117.29 542.13,-124.26"/>
</g>
<!-- IndexConstraints -->
<g id="node21" class="node">
<title>IndexConstraints</title>
<ellipse fill="none" stroke="black" cx="206.93" cy="-160" rx="70.69" ry="18"/>
<text text-anchor="middle" x="206.93" y="-156.3" font-family="Times,serif" font-size="14.00">IndexConstraints</text>
</g>
<!-- IndexConstraints&#45;&gt;ObservedValue(args) -->
<g id="edge23" class="edge">
<title>IndexConstraints&#45;&gt;ObservedValue(args)</title>
<path fill="none" stroke="black" d="M277.62,-161.26C295.84,-161.59 315.79,-161.95 335.05,-162.3"/>
<polygon fill="black" stroke="black" points="334.99,-165.8 345.05,-162.48 335.12,-158.8 334.99,-165.8"/>
</g>
<!-- IndexConstraints&#45;&gt;IndexUsage -->
<g id="edge22" class="edge">
<title>IndexConstraints&#45;&gt;IndexUsage</title>
<path fill="none" stroke="black" d="M260.35,-148.15C295.12,-140.29 340.6,-130.01 375.59,-122.1"/>
<polygon fill="black" stroke="black" points="376.65,-125.45 385.63,-119.83 375.1,-118.62 376.65,-125.45"/>
</g>
<!-- Report -->
<g id="node22" class="node">
<title>Report</title>
<ellipse fill="none" stroke="black" cx="34.45" cy="-214" rx="34.39" ry="18"/>
<text text-anchor="middle" x="34.45" y="-210.3" font-family="Times,serif" font-size="14.00">Report</text>
</g>
<!-- Report&#45;&gt;DTypes -->
<g id="edge24" class="edge">
<title>Report&#45;&gt;DTypes</title>
<path fill="none" stroke="black" d="M58.84,-226.72C146.91,-274.6 458.81,-444.18 562.56,-500.6"/>
<polygon fill="black" stroke="black" points="561.2,-503.84 571.66,-505.54 564.54,-497.69 561.2,-503.84"/>
</g>
<!-- Report&#45;&gt;IndexConstraints -->
<g id="edge25" class="edge">
<title>Report&#45;&gt;IndexConstraints</title>
<path fill="none" stroke="black" d="M61.91,-202.92C74.77,-197.75 90.51,-191.7 104.89,-187 117.95,-182.73 132.11,-178.63 145.58,-174.97"/>
<polygon fill="black" stroke="black" points="146.49,-178.35 155.25,-172.38 144.68,-171.58 146.49,-178.35"/>
</g>
<!-- DataFormat(data_format) -->
<g id="node23" class="node">
<title>DataFormat(data_format)</title>
<ellipse fill="none" stroke="black" cx="206.93" cy="-214" rx="102.08" ry="18"/>
<text text-anchor="middle" x="206.93" y="-210.3" font-family="Times,serif" font-size="14.00">DataFormat(data_format)</text>
</g>
<!-- Report&#45;&gt;DataFormat(data_format) -->
<g id="edge26" class="edge">
<title>Report&#45;&gt;DataFormat(data_format)</title>
<path fill="none" stroke="blue" d="M69.13,-214C76.9,-214 85.58,-214 94.7,-214"/>
<polygon fill="blue" stroke="blue" points="94.75,-217.5 104.75,-214 94.75,-210.5 94.75,-217.5"/>
</g>
<!-- DataFormat(data_format)&#45;&gt;ObservedValue(args) -->
<g id="edge30" class="edge">
<title>DataFormat(data_format)&#45;&gt;ObservedValue(args)</title>
<path fill="none" stroke="black" d="M270.43,-199.87C298.77,-193.47 332.34,-185.88 361.29,-179.33"/>
<polygon fill="black" stroke="black" points="362.34,-182.68 371.33,-177.06 360.8,-175.86 362.34,-182.68"/>
</g>
<!-- DataFormat(data_format)&#45;&gt;Layout(layout) -->
<g id="edge29" class="edge">
<title>DataFormat(data_format)&#45;&gt;Layout(layout)</title>
<path fill="none" stroke="black" d="M308.95,-212.39C387.35,-211.28 498.78,-210 596.41,-210 596.41,-210 596.41,-210 774.14,-210 940.65,-210 1135.13,-178.74 1232.2,-160.97"/>
<polygon fill="black" stroke="black" points="1232.93,-164.4 1242.13,-159.14 1231.66,-157.51 1232.93,-164.4"/>
</g>
<!-- DataFormat(data_format)&#45;&gt;IndexRanks -->
<g id="edge28" class="edge">
<title>DataFormat(data_format)&#45;&gt;IndexRanks</title>
<path fill="none" stroke="black" d="M253.63,-230.04C359.46,-267.17 620.41,-358.75 726.34,-395.93"/>
<polygon fill="black" stroke="black" points="725.21,-399.24 735.8,-399.25 727.53,-392.63 725.21,-399.24"/>
</g>
</g>
</svg>
