<?xml version="1.0" encoding="UTF-8" standalone="no"?>
<!DOCTYPE svg PUBLIC "-//W3C//DTD SVG 1.1//EN"
 "http://www.w3.org/Graphics/SVG/1.1/DTD/svg11.dtd">
<!-- Generated by graphviz version 2.43.0 (0)
 -->
<!-- Title: %3 Pages: 1 -->
<svg width="745pt" height="438pt"
 viewBox="0.00 0.00 744.75 438.00" xmlns="http://www.w3.org/2000/svg" xmlns:xlink="http://www.w3.org/1999/xlink">
<g id="graph0" class="graph" transform="scale(1 1) rotate(0) translate(4 434)">
<title>%3</title>
<polygon fill="white" stroke="transparent" points="-4,4 -4,-434 740.75,-434 740.75,4 -4,4"/>
<!-- Schema -->
<g id="node1" class="node">
<title>Schema</title>
<ellipse fill="none" stroke="black" cx="697.75" cy="-266" rx="38.99" ry="18"/>
<text text-anchor="middle" x="697.75" y="-262.3" font-family="Times,serif" font-size="14.00">Schema</text>
</g>
<!-- ShapeMap -->
<g id="node2" class="node">
<title>ShapeMap</title>
<ellipse fill="none" stroke="black" cx="174.44" cy="-180" rx="48.99" ry="18"/>
<text text-anchor="middle" x="174.44" y="-176.3" font-family="Times,serif" font-size="14.00">ShapeMap</text>
</g>
<!-- TensorShape(value) -->
<g id="node3" class="node">
<title>TensorShape(value)</title>
<ellipse fill="none" stroke="black" cx="344.98" cy="-180" rx="81.49" ry="18"/>
<text text-anchor="middle" x="344.98" y="-176.3" font-family="Times,serif" font-size="14.00">TensorShape(value)</text>
</g>
<!-- ShapeMap&#45;&gt;TensorShape(value) -->
<g id="edge1" class="edge">
<title>ShapeMap&#45;&gt;TensorShape(value)</title>
<path fill="none" stroke="purple" d="M223.28,-180C232.7,-180 242.87,-180 253.16,-180"/>
<polygon fill="purple" stroke="purple" points="253.48,-183.5 263.48,-180 253.48,-176.5 253.48,-183.5"/>
</g>
<!-- TensorShape(filters) -->
<g id="node4" class="node">
<title>TensorShape(filters)</title>
<ellipse fill="none" stroke="black" cx="344.98" cy="-126" rx="83.39" ry="18"/>
<text text-anchor="middle" x="344.98" y="-122.3" font-family="Times,serif" font-size="14.00">TensorShape(filters)</text>
</g>
<!-- ShapeMap&#45;&gt;TensorShape(filters) -->
<g id="edge2" class="edge">
<title>ShapeMap&#45;&gt;TensorShape(filters)</title>
<path fill="none" stroke="purple" d="M211.7,-168.28C226.43,-163.52 243.62,-157.99 259.18,-153 268.36,-150.06 278.09,-146.95 287.57,-143.93"/>
<polygon fill="purple" stroke="purple" points="288.85,-147.19 297.32,-140.82 286.73,-140.53 288.85,-147.19"/>
</g>
<!-- ShapeInt(rate) -->
<g id="node5" class="node">
<title>ShapeInt(rate)</title>
<ellipse fill="none" stroke="black" cx="544.76" cy="-212" rx="61.19" ry="18"/>
<text text-anchor="middle" x="544.76" y="-208.3" font-family="Times,serif" font-size="14.00">ShapeInt(rate)</text>
</g>
<!-- ShapeMap&#45;&gt;ShapeInt(rate) -->
<g id="edge3" class="edge">
<title>ShapeMap&#45;&gt;ShapeInt(rate)</title>
<path fill="none" stroke="purple" d="M208.3,-193.07C223.52,-198.48 242,-204.14 259.18,-207 332.07,-219.12 416.89,-218.78 474.85,-216.41"/>
<polygon fill="purple" stroke="purple" points="475.15,-219.9 484.99,-215.97 474.84,-212.91 475.15,-219.9"/>
</g>
<!-- DataTensor(value) -->
<g id="node15" class="node">
<title>DataTensor(value)</title>
<ellipse fill="none" stroke="black" cx="544.76" cy="-158" rx="76.89" ry="18"/>
<text text-anchor="middle" x="544.76" y="-154.3" font-family="Times,serif" font-size="14.00">DataTensor(value)</text>
</g>
<!-- TensorShape(value)&#45;&gt;DataTensor(value) -->
<g id="edge15" class="edge">
<title>TensorShape(value)&#45;&gt;DataTensor(value)</title>
<path fill="none" stroke="black" d="M417.94,-172C433.25,-170.29 449.5,-168.49 465.05,-166.76"/>
<polygon fill="black" stroke="black" points="465.6,-170.22 475.15,-165.63 464.82,-163.26 465.6,-170.22"/>
</g>
<!-- DataTensor(filters) -->
<g id="node16" class="node">
<title>DataTensor(filters)</title>
<ellipse fill="none" stroke="black" cx="544.76" cy="-104" rx="77.99" ry="18"/>
<text text-anchor="middle" x="544.76" y="-100.3" font-family="Times,serif" font-size="14.00">DataTensor(filters)</text>
</g>
<!-- TensorShape(filters)&#45;&gt;DataTensor(filters) -->
<g id="edge18" class="edge">
<title>TensorShape(filters)&#45;&gt;DataTensor(filters)</title>
<path fill="none" stroke="black" d="M419.34,-117.84C433.9,-116.22 449.25,-114.51 464.02,-112.87"/>
<polygon fill="black" stroke="black" points="464.57,-116.33 474.12,-111.75 463.8,-109.37 464.57,-116.33"/>
</g>
<!-- ShapeInt(rate)&#45;&gt;Schema -->
<g id="edge21" class="edge">
<title>ShapeInt(rate)&#45;&gt;Schema</title>
<path fill="none" stroke="black" d="M584.96,-225.64C597.09,-229.89 610.48,-234.61 622.75,-239 633.91,-242.99 645.99,-247.37 657.09,-251.42"/>
<polygon fill="black" stroke="black" points="655.95,-254.73 666.54,-254.88 658.35,-248.16 655.95,-254.73"/>
</g>
<!-- DTypes -->
<g id="node6" class="node">
<title>DTypes</title>
<ellipse fill="none" stroke="black" cx="174.44" cy="-72" rx="38.19" ry="18"/>
<text text-anchor="middle" x="174.44" y="-68.3" font-family="Times,serif" font-size="14.00">DTypes</text>
</g>
<!-- TensorDType(value) -->
<g id="node7" class="node">
<title>TensorDType(value)</title>
<ellipse fill="none" stroke="black" cx="344.98" cy="-72" rx="84.49" ry="18"/>
<text text-anchor="middle" x="344.98" y="-68.3" font-family="Times,serif" font-size="14.00">TensorDType(value)</text>
</g>
<!-- DTypes&#45;&gt;TensorDType(value) -->
<g id="edge4" class="edge">
<title>DTypes&#45;&gt;TensorDType(value)</title>
<path fill="none" stroke="purple" d="M212.84,-72C224.12,-72 237.05,-72 250.29,-72"/>
<polygon fill="purple" stroke="purple" points="250.46,-75.5 260.46,-72 250.46,-68.5 250.46,-75.5"/>
</g>
<!-- TensorDType(filters) -->
<g id="node8" class="node">
<title>TensorDType(filters)</title>
<ellipse fill="none" stroke="black" cx="344.98" cy="-18" rx="85.59" ry="18"/>
<text text-anchor="middle" x="344.98" y="-14.3" font-family="Times,serif" font-size="14.00">TensorDType(filters)</text>
</g>
<!-- DTypes&#45;&gt;TensorDType(filters) -->
<g id="edge5" class="edge">
<title>DTypes&#45;&gt;TensorDType(filters)</title>
<path fill="none" stroke="purple" d="M206.45,-61.97C222.23,-56.88 241.73,-50.59 259.18,-45 268.25,-42.1 277.86,-39.03 287.23,-36.04"/>
<polygon fill="purple" stroke="purple" points="288.41,-39.34 296.87,-32.97 286.28,-32.67 288.41,-39.34"/>
</g>
<!-- TensorDType(value)&#45;&gt;DataTensor(value) -->
<g id="edge16" class="edge">
<title>TensorDType(value)&#45;&gt;DataTensor(value)</title>
<path fill="none" stroke="black" d="M400.78,-85.73C411.07,-89.33 421.5,-93.73 430.77,-99 449.37,-109.59 448.32,-120.14 466.77,-131 472.67,-134.48 479.1,-137.6 485.63,-140.39"/>
<polygon fill="black" stroke="black" points="484.65,-143.76 495.24,-144.22 487.25,-137.26 484.65,-143.76"/>
</g>
<!-- TensorDType(filters)&#45;&gt;DataTensor(filters) -->
<g id="edge19" class="edge">
<title>TensorDType(filters)&#45;&gt;DataTensor(filters)</title>
<path fill="none" stroke="black" d="M396.26,-32.43C407.74,-36.16 419.79,-40.43 430.77,-45 456.69,-55.8 484.67,-70.38 506.3,-82.35"/>
<polygon fill="black" stroke="black" points="504.72,-85.48 515.16,-87.3 508.14,-79.37 504.72,-85.48"/>
</g>
<!-- ArgMap -->
<g id="node9" class="node">
<title>ArgMap</title>
<ellipse fill="none" stroke="black" cx="344.98" cy="-358" rx="40.89" ry="18"/>
<text text-anchor="middle" x="344.98" y="-354.3" font-family="Times,serif" font-size="14.00">ArgMap</text>
</g>
<!-- Options(padding) -->
<g id="node10" class="node">
<title>Options(padding)</title>
<ellipse fill="none" stroke="black" cx="544.76" cy="-358" rx="72.59" ry="18"/>
<text text-anchor="middle" x="544.76" y="-354.3" font-family="Times,serif" font-size="14.00">Options(padding)</text>
</g>
<!-- ArgMap&#45;&gt;Options(padding) -->
<g id="edge6" class="edge">
<title>ArgMap&#45;&gt;Options(padding)</title>
<path fill="none" stroke="purple" d="M386,-358C407.72,-358 435.41,-358 461.5,-358"/>
<polygon fill="purple" stroke="purple" points="461.79,-361.5 471.79,-358 461.79,-354.5 461.79,-361.5"/>
</g>
<!-- DataFormat -->
<g id="node11" class="node">
<title>DataFormat</title>
<ellipse fill="none" stroke="black" cx="544.76" cy="-412" rx="53.09" ry="18"/>
<text text-anchor="middle" x="544.76" y="-408.3" font-family="Times,serif" font-size="14.00">DataFormat</text>
</g>
<!-- ArgMap&#45;&gt;DataFormat -->
<g id="edge7" class="edge">
<title>ArgMap&#45;&gt;DataFormat</title>
<path fill="none" stroke="blue" d="M380.43,-367.41C411.59,-375.91 457.86,-388.55 493.21,-398.2"/>
<polygon fill="blue" stroke="blue" points="492.3,-401.58 502.87,-400.84 494.14,-394.83 492.3,-401.58"/>
</g>
<!-- Options(padding)&#45;&gt;Schema -->
<g id="edge20" class="edge">
<title>Options(padding)&#45;&gt;Schema</title>
<path fill="none" stroke="black" d="M587.18,-343.34C599.01,-338.48 611.69,-332.6 622.75,-326 640.45,-315.45 658.44,-300.96 672.25,-288.87"/>
<polygon fill="black" stroke="black" points="674.74,-291.34 679.87,-282.07 670.08,-286.12 674.74,-291.34"/>
</g>
<!-- DataFormat&#45;&gt;Schema -->
<g id="edge22" class="edge">
<title>DataFormat&#45;&gt;Schema</title>
<path fill="none" stroke="black" d="M589.95,-402.18C601.44,-398.17 613.25,-392.62 622.75,-385 653.18,-360.6 674.52,-320.09 686.22,-293.22"/>
<polygon fill="black" stroke="black" points="689.45,-294.57 690.09,-283.99 682.99,-291.86 689.45,-294.57"/>
</g>
<!-- Inventory -->
<g id="node12" class="node">
<title>Inventory</title>
<ellipse fill="none" stroke="black" cx="44.85" cy="-180" rx="44.69" ry="18"/>
<text text-anchor="middle" x="44.85" y="-176.3" font-family="Times,serif" font-size="14.00">Inventory</text>
</g>
<!-- Inventory&#45;&gt;ShapeMap -->
<g id="edge9" class="edge">
<title>Inventory&#45;&gt;ShapeMap</title>
<path fill="none" stroke="black" d="M89.76,-180C98.05,-180 106.83,-180 115.48,-180"/>
<polygon fill="black" stroke="black" points="115.52,-183.5 125.52,-180 115.52,-176.5 115.52,-183.5"/>
</g>
<!-- Inventory&#45;&gt;DTypes -->
<g id="edge8" class="edge">
<title>Inventory&#45;&gt;DTypes</title>
<path fill="none" stroke="black" d="M64.95,-163.83C86.81,-145.33 122.74,-114.91 147.21,-94.2"/>
<polygon fill="black" stroke="black" points="149.66,-96.71 155.03,-87.58 145.14,-91.37 149.66,-96.71"/>
</g>
<!-- Inventory&#45;&gt;ArgMap -->
<g id="edge10" class="edge">
<title>Inventory&#45;&gt;ArgMap</title>
<path fill="none" stroke="black" d="M69.57,-195.3C108.68,-220.37 189.29,-271.47 259.18,-312 275.26,-321.32 293.33,-331.21 308.65,-339.41"/>
<polygon fill="black" stroke="black" points="307.31,-342.67 317.79,-344.29 310.61,-336.49 307.31,-342.67"/>
</g>
<!-- GetReturnTensors -->
<g id="node13" class="node">
<title>GetReturnTensors</title>
<ellipse fill="none" stroke="black" cx="544.76" cy="-266" rx="75.29" ry="18"/>
<text text-anchor="middle" x="544.76" y="-262.3" font-family="Times,serif" font-size="14.00">GetReturnTensors</text>
</g>
<!-- GetReturnTensors&#45;&gt;Schema -->
<g id="edge11" class="edge">
<title>GetReturnTensors&#45;&gt;Schema</title>
<path fill="none" stroke="black" d="M620.37,-266C629.88,-266 639.4,-266 648.34,-266"/>
<polygon fill="black" stroke="black" points="648.53,-269.5 658.53,-266 648.53,-262.5 648.53,-269.5"/>
</g>
<!-- ValidReturnShapes -->
<g id="node14" class="node">
<title>ValidReturnShapes</title>
<ellipse fill="none" stroke="black" cx="344.98" cy="-285" rx="77.99" ry="18"/>
<text text-anchor="middle" x="344.98" y="-281.3" font-family="Times,serif" font-size="14.00">ValidReturnShapes</text>
</g>
<!-- ValidReturnShapes&#45;&gt;Schema -->
<g id="edge12" class="edge">
<title>ValidReturnShapes&#45;&gt;Schema</title>
<path fill="none" stroke="black" d="M411.67,-294.34C468.1,-300.6 551.39,-305.61 622.75,-293 635.27,-290.79 648.46,-286.62 660.18,-282.21"/>
<polygon fill="black" stroke="black" points="661.6,-285.41 669.63,-278.49 659.04,-278.9 661.6,-285.41"/>
</g>
<!-- ValidReturnShapes&#45;&gt;GetReturnTensors -->
<g id="edge13" class="edge">
<title>ValidReturnShapes&#45;&gt;GetReturnTensors</title>
<path fill="none" stroke="black" d="M417.38,-278.14C432.63,-276.68 448.83,-275.12 464.36,-273.63"/>
<polygon fill="black" stroke="black" points="464.83,-277.1 474.45,-272.66 464.16,-270.13 464.83,-277.1"/>
</g>
<!-- DataTensor(value)&#45;&gt;Schema -->
<g id="edge14" class="edge">
<title>DataTensor(value)&#45;&gt;Schema</title>
<path fill="none" stroke="black" d="M595.94,-171.55C605.25,-175.17 614.6,-179.61 622.75,-185 645.15,-199.8 665.31,-222.85 678.92,-240.59"/>
<polygon fill="black" stroke="black" points="676.26,-242.88 685.05,-248.81 681.87,-238.7 676.26,-242.88"/>
</g>
<!-- DataTensor(filters)&#45;&gt;Schema -->
<g id="edge17" class="edge">
<title>DataTensor(filters)&#45;&gt;Schema</title>
<path fill="none" stroke="black" d="M599.46,-117.06C607.83,-120.66 615.95,-125.23 622.75,-131 656.64,-159.73 677.71,-208.06 688.33,-238.43"/>
<polygon fill="black" stroke="black" points="685.04,-239.62 691.53,-247.99 691.68,-237.39 685.04,-239.62"/>
</g>
</g>
</svg>
