<?xml version="1.0" encoding="UTF-8" standalone="no"?>
<!DOCTYPE svg PUBLIC "-//W3C//DTD SVG 1.1//EN"
 "http://www.w3.org/Graphics/SVG/1.1/DTD/svg11.dtd">
<!-- Generated by graphviz version 2.43.0 (0)
 -->
<!-- Title: %3 Pages: 1 -->
<svg width="807pt" height="413pt"
 viewBox="0.00 0.00 807.14 413.00" xmlns="http://www.w3.org/2000/svg" xmlns:xlink="http://www.w3.org/1999/xlink">
<g id="graph0" class="graph" transform="scale(1 1) rotate(0) translate(4 409)">
<title>%3</title>
<polygon fill="white" stroke="transparent" points="-4,4 -4,-409 803.14,-409 803.14,4 -4,4"/>
<!-- Schema -->
<g id="node1" class="node">
<title>Schema</title>
<ellipse fill="none" stroke="black" cx="760.15" cy="-210" rx="38.99" ry="18"/>
<text text-anchor="middle" x="760.15" y="-206.3" font-family="Times,serif" font-size="14.00">Schema</text>
</g>
<!-- ShapeMap -->
<g id="node2" class="node">
<title>ShapeMap</title>
<ellipse fill="none" stroke="black" cx="174.44" cy="-234" rx="48.99" ry="18"/>
<text text-anchor="middle" x="174.44" y="-230.3" font-family="Times,serif" font-size="14.00">ShapeMap</text>
</g>
<!-- TensorShape(value) -->
<g id="node3" class="node">
<title>TensorShape(value)</title>
<ellipse fill="none" stroke="black" cx="344.98" cy="-234" rx="81.49" ry="18"/>
<text text-anchor="middle" x="344.98" y="-230.3" font-family="Times,serif" font-size="14.00">TensorShape(value)</text>
</g>
<!-- ShapeMap&#45;&gt;TensorShape(value) -->
<g id="edge1" class="edge">
<title>ShapeMap&#45;&gt;TensorShape(value)</title>
<path fill="none" stroke="purple" d="M223.28,-234C232.7,-234 242.87,-234 253.16,-234"/>
<polygon fill="purple" stroke="purple" points="253.48,-237.5 263.48,-234 253.48,-230.5 253.48,-237.5"/>
</g>
<!-- TensorShape(filters) -->
<g id="node4" class="node">
<title>TensorShape(filters)</title>
<ellipse fill="none" stroke="black" cx="344.98" cy="-180" rx="83.39" ry="18"/>
<text text-anchor="middle" x="344.98" y="-176.3" font-family="Times,serif" font-size="14.00">TensorShape(filters)</text>
</g>
<!-- ShapeMap&#45;&gt;TensorShape(filters) -->
<g id="edge2" class="edge">
<title>ShapeMap&#45;&gt;TensorShape(filters)</title>
<path fill="none" stroke="purple" d="M211.7,-222.28C226.43,-217.52 243.62,-211.99 259.18,-207 268.36,-204.06 278.09,-200.95 287.57,-197.93"/>
<polygon fill="purple" stroke="purple" points="288.85,-201.19 297.32,-194.82 286.73,-194.53 288.85,-201.19"/>
</g>
<!-- ShapeTensor(output_shape) -->
<g id="node5" class="node">
<title>ShapeTensor(output_shape)</title>
<ellipse fill="none" stroke="black" cx="575.96" cy="-387" rx="109.38" ry="18"/>
<text text-anchor="middle" x="575.96" y="-383.3" font-family="Times,serif" font-size="14.00">ShapeTensor(output_shape)</text>
</g>
<!-- ShapeMap&#45;&gt;ShapeTensor(output_shape) -->
<g id="edge3" class="edge">
<title>ShapeMap&#45;&gt;ShapeTensor(output_shape)</title>
<path fill="none" stroke="purple" d="M183.53,-252C195.91,-277.21 222.06,-322.37 259.18,-344 319.98,-379.44 398.32,-390.28 461.76,-392.21"/>
<polygon fill="purple" stroke="purple" points="461.73,-395.71 471.81,-392.45 461.89,-388.71 461.73,-395.71"/>
</g>
<!-- ShapeInt(rate) -->
<g id="node6" class="node">
<title>ShapeInt(rate)</title>
<ellipse fill="none" stroke="black" cx="575.96" cy="-333" rx="61.19" ry="18"/>
<text text-anchor="middle" x="575.96" y="-329.3" font-family="Times,serif" font-size="14.00">ShapeInt(rate)</text>
</g>
<!-- ShapeMap&#45;&gt;ShapeInt(rate) -->
<g id="edge4" class="edge">
<title>ShapeMap&#45;&gt;ShapeInt(rate)</title>
<path fill="none" stroke="purple" d="M187.55,-251.65C202.03,-271.11 228.24,-301.45 259.18,-315 340.35,-350.55 444.66,-348.44 510.68,-342.01"/>
<polygon fill="purple" stroke="purple" points="511.36,-345.46 520.94,-340.95 510.63,-338.5 511.36,-345.46"/>
</g>
<!-- DataTensor(value) -->
<g id="node16" class="node">
<title>DataTensor(value)</title>
<ellipse fill="none" stroke="black" cx="575.96" cy="-187" rx="76.89" ry="18"/>
<text text-anchor="middle" x="575.96" y="-183.3" font-family="Times,serif" font-size="14.00">DataTensor(value)</text>
</g>
<!-- TensorShape(value)&#45;&gt;DataTensor(value) -->
<g id="edge16" class="edge">
<title>TensorShape(value)&#45;&gt;DataTensor(value)</title>
<path fill="none" stroke="black" d="M405.24,-221.84C436.59,-215.4 475.19,-207.48 507.66,-200.81"/>
<polygon fill="black" stroke="black" points="508.43,-204.23 517.52,-198.79 507.02,-197.37 508.43,-204.23"/>
</g>
<!-- DataTensor(filters) -->
<g id="node17" class="node">
<title>DataTensor(filters)</title>
<ellipse fill="none" stroke="black" cx="575.96" cy="-133" rx="77.99" ry="18"/>
<text text-anchor="middle" x="575.96" y="-129.3" font-family="Times,serif" font-size="14.00">DataTensor(filters)</text>
</g>
<!-- TensorShape(filters)&#45;&gt;DataTensor(filters) -->
<g id="edge19" class="edge">
<title>TensorShape(filters)&#45;&gt;DataTensor(filters)</title>
<path fill="none" stroke="black" d="M405.84,-167.71C436.81,-161.36 474.74,-153.57 506.83,-146.98"/>
<polygon fill="black" stroke="black" points="507.93,-150.33 517.03,-144.89 506.53,-143.47 507.93,-150.33"/>
</g>
<!-- ShapeTensor(output_shape)&#45;&gt;Schema -->
<g id="edge21" class="edge">
<title>ShapeTensor(output_shape)&#45;&gt;Schema</title>
<path fill="none" stroke="black" d="M658.37,-375.03C668.02,-371.28 677.24,-366.38 685.15,-360 723.97,-328.7 744.01,-271.89 752.99,-237.88"/>
<polygon fill="black" stroke="black" points="756.4,-238.67 755.43,-228.11 749.61,-236.97 756.4,-238.67"/>
</g>
<!-- ShapeInt(rate)&#45;&gt;Schema -->
<g id="edge22" class="edge">
<title>ShapeInt(rate)&#45;&gt;Schema</title>
<path fill="none" stroke="black" d="M632.97,-326.4C650.69,-322.45 669.68,-316.12 685.15,-306 711.81,-288.56 732.81,-258.18 745.53,-236.26"/>
<polygon fill="black" stroke="black" points="748.63,-237.88 750.46,-227.45 742.52,-234.46 748.63,-237.88"/>
</g>
<!-- DTypes -->
<g id="node7" class="node">
<title>DTypes</title>
<ellipse fill="none" stroke="black" cx="174.44" cy="-111" rx="38.19" ry="18"/>
<text text-anchor="middle" x="174.44" y="-107.3" font-family="Times,serif" font-size="14.00">DTypes</text>
</g>
<!-- TensorDType(value) -->
<g id="node8" class="node">
<title>TensorDType(value)</title>
<ellipse fill="none" stroke="black" cx="344.98" cy="-126" rx="84.49" ry="18"/>
<text text-anchor="middle" x="344.98" y="-122.3" font-family="Times,serif" font-size="14.00">TensorDType(value)</text>
</g>
<!-- DTypes&#45;&gt;TensorDType(value) -->
<g id="edge5" class="edge">
<title>DTypes&#45;&gt;TensorDType(value)</title>
<path fill="none" stroke="purple" d="M212.42,-114.29C225.54,-115.46 240.91,-116.83 256.44,-118.21"/>
<polygon fill="purple" stroke="purple" points="256.37,-121.72 266.64,-119.12 256.99,-114.74 256.37,-121.72"/>
</g>
<!-- TensorDType(filters) -->
<g id="node9" class="node">
<title>TensorDType(filters)</title>
<ellipse fill="none" stroke="black" cx="344.98" cy="-72" rx="85.59" ry="18"/>
<text text-anchor="middle" x="344.98" y="-68.3" font-family="Times,serif" font-size="14.00">TensorDType(filters)</text>
</g>
<!-- DTypes&#45;&gt;TensorDType(filters) -->
<g id="edge6" class="edge">
<title>DTypes&#45;&gt;TensorDType(filters)</title>
<path fill="none" stroke="purple" d="M209.14,-103.2C228.56,-98.71 253.66,-92.9 276.93,-87.52"/>
<polygon fill="purple" stroke="purple" points="277.81,-90.9 286.76,-85.24 276.23,-84.08 277.81,-90.9"/>
</g>
<!-- TensorDType(value)&#45;&gt;DataTensor(value) -->
<g id="edge17" class="edge">
<title>TensorDType(value)&#45;&gt;DataTensor(value)</title>
<path fill="none" stroke="black" d="M395.84,-140.4C417.58,-146.58 443.4,-153.8 466.77,-160 481.36,-163.87 497.11,-167.89 511.95,-171.61"/>
<polygon fill="black" stroke="black" points="511.5,-175.11 522.05,-174.13 513.19,-168.32 511.5,-175.11"/>
</g>
<!-- TensorDType(filters)&#45;&gt;DataTensor(filters) -->
<g id="edge20" class="edge">
<title>TensorDType(filters)&#45;&gt;DataTensor(filters)</title>
<path fill="none" stroke="black" d="M397.66,-86.28C419.03,-92.15 444.08,-98.96 466.77,-105 481.76,-108.99 497.95,-113.22 513.12,-117.15"/>
<polygon fill="black" stroke="black" points="512.36,-120.57 522.92,-119.68 514.11,-113.79 512.36,-120.57"/>
</g>
<!-- ArgMap -->
<g id="node10" class="node">
<title>ArgMap</title>
<ellipse fill="none" stroke="black" cx="344.98" cy="-18" rx="40.89" ry="18"/>
<text text-anchor="middle" x="344.98" y="-14.3" font-family="Times,serif" font-size="14.00">ArgMap</text>
</g>
<!-- Options(padding) -->
<g id="node11" class="node">
<title>Options(padding)</title>
<ellipse fill="none" stroke="black" cx="575.96" cy="-22" rx="72.59" ry="18"/>
<text text-anchor="middle" x="575.96" y="-18.3" font-family="Times,serif" font-size="14.00">Options(padding)</text>
</g>
<!-- ArgMap&#45;&gt;Options(padding) -->
<g id="edge7" class="edge">
<title>ArgMap&#45;&gt;Options(padding)</title>
<path fill="none" stroke="purple" d="M386.12,-18.7C415.67,-19.22 456.85,-19.94 493.22,-20.57"/>
<polygon fill="purple" stroke="purple" points="493.27,-24.07 503.33,-20.75 493.4,-17.07 493.27,-24.07"/>
</g>
<!-- DataFormat -->
<g id="node12" class="node">
<title>DataFormat</title>
<ellipse fill="none" stroke="black" cx="575.96" cy="-78" rx="53.09" ry="18"/>
<text text-anchor="middle" x="575.96" y="-74.3" font-family="Times,serif" font-size="14.00">DataFormat</text>
</g>
<!-- ArgMap&#45;&gt;DataFormat -->
<g id="edge8" class="edge">
<title>ArgMap&#45;&gt;DataFormat</title>
<path fill="none" stroke="blue" d="M380.75,-27.11C418.71,-37.06 479.87,-53.08 523.41,-64.49"/>
<polygon fill="blue" stroke="blue" points="522.68,-67.92 533.24,-67.07 524.45,-61.15 522.68,-67.92"/>
</g>
<!-- Options(padding)&#45;&gt;Schema -->
<g id="edge23" class="edge">
<title>Options(padding)&#45;&gt;Schema</title>
<path fill="none" stroke="black" d="M642.04,-29.77C657.45,-34.08 672.94,-40.75 685.15,-51 725.79,-85.13 745.39,-146.49 753.76,-182.18"/>
<polygon fill="black" stroke="black" points="750.35,-182.94 755.92,-191.95 757.18,-181.43 750.35,-182.94"/>
</g>
<!-- DataFormat&#45;&gt;Schema -->
<g id="edge24" class="edge">
<title>DataFormat&#45;&gt;Schema</title>
<path fill="none" stroke="black" d="M626.87,-83.45C646.34,-87.41 668.05,-94.23 685.15,-106 713.38,-125.43 734.52,-159.35 746.82,-183.16"/>
<polygon fill="black" stroke="black" points="743.81,-184.96 751.4,-192.36 750.07,-181.84 743.81,-184.96"/>
</g>
<!-- Inventory -->
<g id="node13" class="node">
<title>Inventory</title>
<ellipse fill="none" stroke="black" cx="44.85" cy="-111" rx="44.69" ry="18"/>
<text text-anchor="middle" x="44.85" y="-107.3" font-family="Times,serif" font-size="14.00">Inventory</text>
</g>
<!-- Inventory&#45;&gt;ShapeMap -->
<g id="edge10" class="edge">
<title>Inventory&#45;&gt;ShapeMap</title>
<path fill="none" stroke="black" d="M63.05,-127.59C85.12,-148.86 123.55,-185.9 148.74,-210.19"/>
<polygon fill="black" stroke="black" points="146.47,-212.86 156.1,-217.28 151.32,-207.82 146.47,-212.86"/>
</g>
<!-- Inventory&#45;&gt;DTypes -->
<g id="edge9" class="edge">
<title>Inventory&#45;&gt;DTypes</title>
<path fill="none" stroke="black" d="M89.76,-111C101.35,-111 113.92,-111 125.71,-111"/>
<polygon fill="black" stroke="black" points="125.82,-114.5 135.82,-111 125.82,-107.5 125.82,-114.5"/>
</g>
<!-- Inventory&#45;&gt;ArgMap -->
<g id="edge11" class="edge">
<title>Inventory&#45;&gt;ArgMap</title>
<path fill="none" stroke="black" d="M79.57,-99.33C93.77,-94.48 110.5,-88.86 125.69,-84 186.03,-64.68 256.24,-43.72 300.39,-30.73"/>
<polygon fill="black" stroke="black" points="301.61,-34.02 310.22,-27.84 299.63,-27.3 301.61,-34.02"/>
</g>
<!-- GetReturnTensors -->
<g id="node14" class="node">
<title>GetReturnTensors</title>
<ellipse fill="none" stroke="black" cx="575.96" cy="-279" rx="75.29" ry="18"/>
<text text-anchor="middle" x="575.96" y="-275.3" font-family="Times,serif" font-size="14.00">GetReturnTensors</text>
</g>
<!-- GetReturnTensors&#45;&gt;Schema -->
<g id="edge12" class="edge">
<title>GetReturnTensors&#45;&gt;Schema</title>
<path fill="none" stroke="black" d="M627.95,-265.92C646.23,-260.7 666.84,-254.22 685.15,-247 698.67,-241.67 713.07,-234.77 725.53,-228.38"/>
<polygon fill="black" stroke="black" points="727.4,-231.35 734.64,-223.62 724.16,-225.15 727.4,-231.35"/>
</g>
<!-- ValidReturnShapes -->
<g id="node15" class="node">
<title>ValidReturnShapes</title>
<ellipse fill="none" stroke="black" cx="344.98" cy="-288" rx="77.99" ry="18"/>
<text text-anchor="middle" x="344.98" y="-284.3" font-family="Times,serif" font-size="14.00">ValidReturnShapes</text>
</g>
<!-- ValidReturnShapes&#45;&gt;Schema -->
<g id="edge13" class="edge">
<title>ValidReturnShapes&#45;&gt;Schema</title>
<path fill="none" stroke="black" d="M390.03,-273.17C412.74,-265.96 441.01,-257.66 466.77,-252 552.29,-233.22 653.8,-220.81 711.92,-214.62"/>
<polygon fill="black" stroke="black" points="712.33,-218.1 721.91,-213.58 711.6,-211.14 712.33,-218.1"/>
</g>
<!-- ValidReturnShapes&#45;&gt;GetReturnTensors -->
<g id="edge14" class="edge">
<title>ValidReturnShapes&#45;&gt;GetReturnTensors</title>
<path fill="none" stroke="black" d="M421.91,-285.02C444.03,-284.15 468.34,-283.19 490.93,-282.3"/>
<polygon fill="black" stroke="black" points="491.33,-285.79 501.18,-281.9 491.05,-278.8 491.33,-285.79"/>
</g>
<!-- DataTensor(value)&#45;&gt;Schema -->
<g id="edge15" class="edge">
<title>DataTensor(value)&#45;&gt;Schema</title>
<path fill="none" stroke="black" d="M643.76,-195.43C666.44,-198.3 691.28,-201.43 712.08,-204.06"/>
<polygon fill="black" stroke="black" points="711.9,-207.56 722.25,-205.34 712.77,-200.62 711.9,-207.56"/>
</g>
<!-- DataTensor(filters)&#45;&gt;Schema -->
<g id="edge18" class="edge">
<title>DataTensor(filters)&#45;&gt;Schema</title>
<path fill="none" stroke="black" d="M637.45,-144.15C653.34,-148.13 670.21,-153.34 685.15,-160 701.64,-167.35 718.45,-178.37 731.87,-188.19"/>
<polygon fill="black" stroke="black" points="730.06,-191.21 740.16,-194.42 734.26,-185.61 730.06,-191.21"/>
</g>
</g>
</svg>
