<?xml version="1.0" encoding="UTF-8" standalone="no"?>
<!DOCTYPE svg PUBLIC "-//W3C//DTD SVG 1.1//EN"
 "http://www.w3.org/Graphics/SVG/1.1/DTD/svg11.dtd">
<!-- Generated by graphviz version 2.43.0 (0)
 -->
<!-- Title: %3 Pages: 1 -->
<svg width="1006pt" height="374pt"
 viewBox="0.00 0.00 1006.42 374.00" xmlns="http://www.w3.org/2000/svg" xmlns:xlink="http://www.w3.org/1999/xlink">
<g id="graph0" class="graph" transform="scale(1 1) rotate(0) translate(4 370)">
<title>%3</title>
<polygon fill="white" stroke="transparent" points="-4,4 -4,-370 1002.42,-370 1002.42,4 -4,4"/>
<!-- DimsInput(_index_ranks) -->
<g id="node1" class="node">
<title>DimsInput(_index_ranks)</title>
<ellipse fill="none" stroke="black" cx="896.38" cy="-187" rx="102.08" ry="18"/>
<text text-anchor="middle" x="896.38" y="-183.3" font-family="Times,serif" font-size="14.00">DimsInput(_index_ranks)</text>
</g>
<!-- GenDims(batch) -->
<g id="node2" class="node">
<title>GenDims(batch)</title>
<ellipse fill="none" stroke="black" cx="653.7" cy="-348" rx="69.59" ry="18"/>
<text text-anchor="middle" x="653.7" y="-344.3" font-family="Times,serif" font-size="14.00">GenDims(batch)</text>
</g>
<!-- GenDims(batch)&#45;&gt;DimsInput(_index_ranks) -->
<g id="edge1" class="edge">
<title>GenDims(batch)&#45;&gt;DimsInput(_index_ranks)</title>
<path fill="none" stroke="black" d="M712.96,-338.43C728.34,-334.43 744.5,-328.82 758.34,-321 807.32,-293.31 851.39,-243.73 875.66,-213.27"/>
<polygon fill="black" stroke="black" points="878.56,-215.24 881.97,-205.21 873.05,-210.93 878.56,-215.24"/>
</g>
<!-- GenDims(input_channel) -->
<g id="node3" class="node">
<title>GenDims(input_channel)</title>
<ellipse fill="none" stroke="black" cx="653.7" cy="-294" rx="100.98" ry="18"/>
<text text-anchor="middle" x="653.7" y="-290.3" font-family="Times,serif" font-size="14.00">GenDims(input_channel)</text>
</g>
<!-- GenDims(input_channel)&#45;&gt;DimsInput(_index_ranks) -->
<g id="edge2" class="edge">
<title>GenDims(input_channel)&#45;&gt;DimsInput(_index_ranks)</title>
<path fill="none" stroke="black" d="M710.3,-279.08C726.06,-274.25 743.08,-268.46 758.34,-262 793.69,-247.05 831.83,-225.71 858.87,-209.62"/>
<polygon fill="black" stroke="black" points="860.83,-212.52 867.6,-204.38 857.23,-206.52 860.83,-212.52"/>
</g>
<!-- GenDims(filter_spatial) -->
<g id="node4" class="node">
<title>GenDims(filter_spatial)</title>
<ellipse fill="none" stroke="black" cx="653.7" cy="-164" rx="94.78" ry="18"/>
<text text-anchor="middle" x="653.7" y="-160.3" font-family="Times,serif" font-size="14.00">GenDims(filter_spatial)</text>
</g>
<!-- GenDims(filter_spatial)&#45;&gt;DimsInput(_index_ranks) -->
<g id="edge3" class="edge">
<title>GenDims(filter_spatial)&#45;&gt;DimsInput(_index_ranks)</title>
<path fill="none" stroke="black" d="M738.88,-172.04C757.38,-173.81 777.13,-175.7 796.16,-177.52"/>
<polygon fill="black" stroke="black" points="796.05,-181.02 806.34,-178.49 796.72,-174.06 796.05,-181.02"/>
</g>
<!-- GenDims(input_spatial) -->
<g id="node5" class="node">
<title>GenDims(input_spatial)</title>
<ellipse fill="none" stroke="black" cx="382.42" cy="-187" rx="96.38" ry="18"/>
<text text-anchor="middle" x="382.42" y="-183.3" font-family="Times,serif" font-size="14.00">GenDims(input_spatial)</text>
</g>
<!-- GenDims(input_spatial)&#45;&gt;DimsInput(_index_ranks) -->
<g id="edge4" class="edge">
<title>GenDims(input_spatial)&#45;&gt;DimsInput(_index_ranks)</title>
<path fill="none" stroke="black" d="M477.58,-189.67C500.93,-190.22 525.9,-190.72 549.06,-191 642.06,-192.12 665.34,-192.36 758.34,-191 767.25,-190.87 776.49,-190.69 785.77,-190.48"/>
<polygon fill="black" stroke="black" points="785.92,-193.98 795.84,-190.25 785.76,-186.98 785.92,-193.98"/>
</g>
<!-- GenDims(input_spatial)&#45;&gt;GenDims(filter_spatial) -->
<g id="edge5" class="edge">
<title>GenDims(input_spatial)&#45;&gt;GenDims(filter_spatial)</title>
<path fill="none" stroke="purple" d="M470.1,-179.6C497.63,-177.25 528.23,-174.63 556.38,-172.23"/>
<polygon fill="purple" stroke="purple" points="556.97,-175.69 566.64,-171.35 556.38,-168.71 556.97,-175.69"/>
</g>
<!-- GenDims(output_channel) -->
<g id="node6" class="node">
<title>GenDims(output_channel)</title>
<ellipse fill="none" stroke="black" cx="653.7" cy="-18" rx="104.78" ry="18"/>
<text text-anchor="middle" x="653.7" y="-14.3" font-family="Times,serif" font-size="14.00">GenDims(output_channel)</text>
</g>
<!-- GenDims(output_channel)&#45;&gt;DimsInput(_index_ranks) -->
<g id="edge6" class="edge">
<title>GenDims(output_channel)&#45;&gt;DimsInput(_index_ranks)</title>
<path fill="none" stroke="black" d="M726.17,-31.08C737.36,-34.67 748.47,-39.23 758.34,-45 809.17,-74.71 853.51,-128.52 877.17,-160.69"/>
<polygon fill="black" stroke="black" points="874.59,-163.09 883.28,-169.15 880.26,-158.99 874.59,-163.09"/>
</g>
<!-- GenDims(rate) -->
<g id="node7" class="node">
<title>GenDims(rate)</title>
<ellipse fill="none" stroke="black" cx="653.7" cy="-72" rx="63.89" ry="18"/>
<text text-anchor="middle" x="653.7" y="-68.3" font-family="Times,serif" font-size="14.00">GenDims(rate)</text>
</g>
<!-- GenDims(rate)&#45;&gt;DimsInput(_index_ranks) -->
<g id="edge7" class="edge">
<title>GenDims(rate)&#45;&gt;DimsInput(_index_ranks)</title>
<path fill="none" stroke="black" d="M701.77,-83.89C719.82,-89.13 740.39,-95.94 758.34,-104 795.66,-120.76 835.33,-145.66 862.34,-163.81"/>
<polygon fill="black" stroke="black" points="860.4,-166.73 870.64,-169.45 864.33,-160.94 860.4,-166.73"/>
</g>
<!-- CompDims(dilated_filter_spatial) -->
<g id="node8" class="node">
<title>CompDims(dilated_filter_spatial)</title>
<ellipse fill="none" stroke="black" cx="382.42" cy="-133" rx="130.78" ry="18"/>
<text text-anchor="middle" x="382.42" y="-129.3" font-family="Times,serif" font-size="14.00">CompDims(dilated_filter_spatial)</text>
</g>
<!-- CompDims(dilated_filter_spatial)&#45;&gt;DimsInput(_index_ranks) -->
<g id="edge8" class="edge">
<title>CompDims(dilated_filter_spatial)&#45;&gt;DimsInput(_index_ranks)</title>
<path fill="none" stroke="black" d="M497.16,-124.3C571.98,-120.99 671.73,-121.22 758.34,-137 790.07,-142.78 824.15,-155.19 850.38,-166.19"/>
<polygon fill="black" stroke="black" points="849.1,-169.45 859.68,-170.17 851.86,-163.02 849.1,-169.45"/>
</g>
<!-- CompDims(dilated_filter_spatial)&#45;&gt;GenDims(filter_spatial) -->
<g id="edge10" class="edge">
<title>CompDims(dilated_filter_spatial)&#45;&gt;GenDims(filter_spatial)</title>
<path fill="none" stroke="purple" d="M483.31,-144.5C509.2,-147.48 536.94,-150.67 562.32,-153.6"/>
<polygon fill="purple" stroke="purple" points="561.96,-157.08 572.3,-154.74 562.76,-150.12 561.96,-157.08"/>
</g>
<!-- CompDims(dilated_filter_spatial)&#45;&gt;GenDims(rate) -->
<g id="edge9" class="edge">
<title>CompDims(dilated_filter_spatial)&#45;&gt;GenDims(rate)</title>
<path fill="none" stroke="purple" d="M456.87,-118.15C475.25,-114.31 494.89,-110.1 513.06,-106 540.35,-99.84 570.52,-92.55 595.81,-86.31"/>
<polygon fill="purple" stroke="purple" points="596.74,-89.68 605.61,-83.88 595.06,-82.89 596.74,-89.68"/>
</g>
<!-- DimsInput(padding) -->
<g id="node9" class="node">
<title>DimsInput(padding)</title>
<ellipse fill="none" stroke="black" cx="382.42" cy="-79" rx="83.39" ry="18"/>
<text text-anchor="middle" x="382.42" y="-75.3" font-family="Times,serif" font-size="14.00">DimsInput(padding)</text>
</g>
<!-- CompDims(output_spatial) -->
<g id="node10" class="node">
<title>CompDims(output_spatial)</title>
<ellipse fill="none" stroke="black" cx="107.89" cy="-160" rx="107.78" ry="18"/>
<text text-anchor="middle" x="107.89" y="-156.3" font-family="Times,serif" font-size="14.00">CompDims(output_spatial)</text>
</g>
<!-- CompDims(output_spatial)&#45;&gt;DimsInput(_index_ranks) -->
<g id="edge11" class="edge">
<title>CompDims(output_spatial)&#45;&gt;DimsInput(_index_ranks)</title>
<path fill="none" stroke="black" d="M143.4,-177.09C171.73,-190.12 213.3,-206.97 251.78,-214 451.88,-250.55 692.53,-221.53 815.1,-201.67"/>
<polygon fill="black" stroke="black" points="815.85,-205.09 825.15,-200.02 814.72,-198.18 815.85,-205.09"/>
</g>
<!-- CompDims(output_spatial)&#45;&gt;GenDims(input_spatial) -->
<g id="edge12" class="edge">
<title>CompDims(output_spatial)&#45;&gt;GenDims(input_spatial)</title>
<path fill="none" stroke="purple" d="M201.16,-169.14C228.8,-171.88 259.15,-174.89 286.93,-177.64"/>
<polygon fill="purple" stroke="purple" points="286.75,-181.14 297.04,-178.64 287.44,-174.17 286.75,-181.14"/>
</g>
<!-- CompDims(output_spatial)&#45;&gt;CompDims(dilated_filter_spatial) -->
<g id="edge13" class="edge">
<title>CompDims(output_spatial)&#45;&gt;CompDims(dilated_filter_spatial)</title>
<path fill="none" stroke="purple" d="M201.16,-150.86C221.82,-148.81 243.99,-146.62 265.48,-144.49"/>
<polygon fill="purple" stroke="purple" points="266.02,-147.95 275.63,-143.48 265.33,-140.98 266.02,-147.95"/>
</g>
<!-- CompDims(output_spatial)&#45;&gt;DimsInput(padding) -->
<g id="edge14" class="edge">
<title>CompDims(output_spatial)&#45;&gt;DimsInput(padding)</title>
<path fill="none" stroke="blue" d="M148.36,-143.18C176.74,-131.56 216.13,-116.38 251.78,-106 269.57,-100.82 289,-96.23 307.28,-92.36"/>
<polygon fill="blue" stroke="blue" points="308.22,-95.74 317.3,-90.29 306.8,-88.89 308.22,-95.74"/>
</g>
</g>
</svg>
