<?xml version="1.0" encoding="UTF-8" standalone="no"?>
<!DOCTYPE svg PUBLIC "-//W3C//DTD SVG 1.1//EN"
 "http://www.w3.org/Graphics/SVG/1.1/DTD/svg11.dtd">
<!-- Generated by graphviz version 2.43.0 (0)
 -->
<!-- Title: %3 Pages: 1 -->
<svg width="788pt" height="247pt"
 viewBox="0.00 0.00 787.64 247.31" xmlns="http://www.w3.org/2000/svg" xmlns:xlink="http://www.w3.org/1999/xlink">
<g id="graph0" class="graph" transform="scale(1 1) rotate(0) translate(4 243.31)">
<title>%3</title>
<polygon fill="white" stroke="transparent" points="-4,4 -4,-243.31 783.64,-243.31 783.64,4 -4,4"/>
<!-- Schema -->
<g id="node1" class="node">
<title>Schema</title>
<ellipse fill="none" stroke="black" cx="740.65" cy="-103.31" rx="38.99" ry="18"/>
<text text-anchor="middle" x="740.65" y="-99.61" font-family="Times,serif" font-size="14.00">Schema</text>
</g>
<!-- ShapeMap -->
<g id="node2" class="node">
<title>ShapeMap</title>
<ellipse fill="none" stroke="black" cx="174.44" cy="-198.31" rx="48.99" ry="18"/>
<text text-anchor="middle" x="174.44" y="-194.61" font-family="Times,serif" font-size="14.00">ShapeMap</text>
</g>
<!-- TensorShape(input) -->
<g id="node3" class="node">
<title>TensorShape(input)</title>
<ellipse fill="none" stroke="black" cx="342.38" cy="-196.31" rx="80.69" ry="18"/>
<text text-anchor="middle" x="342.38" y="-192.61" font-family="Times,serif" font-size="14.00">TensorShape(input)</text>
</g>
<!-- ShapeMap&#45;&gt;TensorShape(input) -->
<g id="edge1" class="edge">
<title>ShapeMap&#45;&gt;TensorShape(input)</title>
<path fill="none" stroke="purple" d="M223.43,-197.73C232.31,-197.62 241.85,-197.51 251.51,-197.39"/>
<polygon fill="purple" stroke="purple" points="251.64,-200.89 261.6,-197.27 251.56,-193.89 251.64,-200.89"/>
</g>
<!-- ShapeInt(block_size) -->
<g id="node4" class="node">
<title>ShapeInt(block_size)</title>
<ellipse fill="none" stroke="black" cx="563.61" cy="-221.31" rx="85.29" ry="18"/>
<text text-anchor="middle" x="563.61" y="-217.61" font-family="Times,serif" font-size="14.00">ShapeInt(block_size)</text>
</g>
<!-- ShapeMap&#45;&gt;ShapeInt(block_size) -->
<g id="edge2" class="edge">
<title>ShapeMap&#45;&gt;ShapeInt(block_size)</title>
<path fill="none" stroke="purple" d="M209.56,-210.94C224.56,-215.85 242.52,-220.87 259.18,-223.31 331.13,-233.82 413.69,-232.41 474.51,-228.89"/>
<polygon fill="purple" stroke="purple" points="475.07,-232.36 484.84,-228.26 474.65,-225.37 475.07,-232.36"/>
</g>
<!-- DataTensor(input) -->
<g id="node12" class="node">
<title>DataTensor(input)</title>
<ellipse fill="none" stroke="black" cx="563.61" cy="-157.31" rx="75.29" ry="18"/>
<text text-anchor="middle" x="563.61" y="-153.61" font-family="Times,serif" font-size="14.00">DataTensor(input)</text>
</g>
<!-- TensorShape(input)&#45;&gt;DataTensor(input) -->
<g id="edge13" class="edge">
<title>TensorShape(input)&#45;&gt;DataTensor(input)</title>
<path fill="none" stroke="black" d="M405.91,-185.18C432.96,-180.37 464.74,-174.72 492.58,-169.77"/>
<polygon fill="black" stroke="black" points="493.41,-173.17 502.64,-167.98 492.18,-166.28 493.41,-173.17"/>
</g>
<!-- ShapeInt(block_size)&#45;&gt;Schema -->
<g id="edge15" class="edge">
<title>ShapeInt(block_size)&#45;&gt;Schema</title>
<path fill="none" stroke="black" d="M617.53,-207.27C633.76,-201.59 651.14,-194.04 665.65,-184.31 687.94,-169.35 708.12,-146.32 721.75,-128.63"/>
<polygon fill="black" stroke="black" points="724.7,-130.53 727.9,-120.43 719.1,-126.33 724.7,-130.53"/>
</g>
<!-- DTypes -->
<g id="node5" class="node">
<title>DTypes</title>
<ellipse fill="none" stroke="black" cx="174.44" cy="-144.31" rx="38.19" ry="18"/>
<text text-anchor="middle" x="174.44" y="-140.61" font-family="Times,serif" font-size="14.00">DTypes</text>
</g>
<!-- TensorDType(input) -->
<g id="node6" class="node">
<title>TensorDType(input)</title>
<ellipse fill="none" stroke="black" cx="342.38" cy="-142.31" rx="83.39" ry="18"/>
<text text-anchor="middle" x="342.38" y="-138.61" font-family="Times,serif" font-size="14.00">TensorDType(input)</text>
</g>
<!-- DTypes&#45;&gt;TensorDType(input) -->
<g id="edge3" class="edge">
<title>DTypes&#45;&gt;TensorDType(input)</title>
<path fill="none" stroke="purple" d="M213.09,-143.85C223.96,-143.72 236.32,-143.57 248.97,-143.42"/>
<polygon fill="purple" stroke="purple" points="249.21,-146.92 259.17,-143.3 249.12,-139.92 249.21,-146.92"/>
</g>
<!-- TensorDType(input)&#45;&gt;DataTensor(input) -->
<g id="edge14" class="edge">
<title>TensorDType(input)&#45;&gt;DataTensor(input)</title>
<path fill="none" stroke="black" d="M421.91,-147.68C440.96,-148.98 461.39,-150.38 480.6,-151.7"/>
<polygon fill="black" stroke="black" points="480.62,-155.21 490.83,-152.4 481.09,-148.22 480.62,-155.21"/>
</g>
<!-- ArgMap -->
<g id="node7" class="node">
<title>ArgMap</title>
<ellipse fill="none" stroke="black" cx="174.44" cy="-90.31" rx="40.89" ry="18"/>
<text text-anchor="middle" x="174.44" y="-86.61" font-family="Times,serif" font-size="14.00">ArgMap</text>
</g>
<!-- DataFormat(data_format) -->
<g id="node8" class="node">
<title>DataFormat(data_format)</title>
<ellipse fill="none" stroke="black" cx="563.61" cy="-103.31" rx="102.08" ry="18"/>
<text text-anchor="middle" x="563.61" y="-99.61" font-family="Times,serif" font-size="14.00">DataFormat(data_format)</text>
</g>
<!-- ArgMap&#45;&gt;DataFormat(data_format) -->
<g id="edge4" class="edge">
<title>ArgMap&#45;&gt;DataFormat(data_format)</title>
<path fill="none" stroke="purple" d="M215.41,-91.65C271,-93.52 373.74,-96.97 453.09,-99.63"/>
<polygon fill="purple" stroke="purple" points="453.03,-103.13 463.14,-99.97 453.26,-96.13 453.03,-103.13"/>
</g>
<!-- DataFormat(data_format)&#45;&gt;Schema -->
<g id="edge11" class="edge">
<title>DataFormat(data_format)&#45;&gt;Schema</title>
<path fill="none" stroke="black" d="M665.67,-103.31C674.62,-103.31 683.38,-103.31 691.56,-103.31"/>
<polygon fill="black" stroke="black" points="691.58,-106.81 701.58,-103.31 691.58,-99.81 691.58,-106.81"/>
</g>
<!-- Inventory -->
<g id="node9" class="node">
<title>Inventory</title>
<ellipse fill="none" stroke="black" cx="44.85" cy="-144.31" rx="44.69" ry="18"/>
<text text-anchor="middle" x="44.85" y="-140.61" font-family="Times,serif" font-size="14.00">Inventory</text>
</g>
<!-- Inventory&#45;&gt;ShapeMap -->
<g id="edge6" class="edge">
<title>Inventory&#45;&gt;ShapeMap</title>
<path fill="none" stroke="black" d="M76.41,-157.24C93.23,-164.36 114.34,-173.29 132.56,-181.01"/>
<polygon fill="black" stroke="black" points="131.22,-184.24 141.79,-184.91 133.95,-177.79 131.22,-184.24"/>
</g>
<!-- Inventory&#45;&gt;DTypes -->
<g id="edge5" class="edge">
<title>Inventory&#45;&gt;DTypes</title>
<path fill="none" stroke="black" d="M89.76,-144.31C101.35,-144.31 113.92,-144.31 125.71,-144.31"/>
<polygon fill="black" stroke="black" points="125.82,-147.81 135.82,-144.31 125.82,-140.81 125.82,-147.81"/>
</g>
<!-- Inventory&#45;&gt;ArgMap -->
<g id="edge7" class="edge">
<title>Inventory&#45;&gt;ArgMap</title>
<path fill="none" stroke="black" d="M76.41,-131.37C93.99,-123.93 116.24,-114.52 134.99,-106.58"/>
<polygon fill="black" stroke="black" points="136.6,-109.7 144.44,-102.58 133.87,-103.25 136.6,-109.7"/>
</g>
<!-- GetReturnTensors -->
<g id="node10" class="node">
<title>GetReturnTensors</title>
<ellipse fill="none" stroke="black" cx="563.61" cy="-49.31" rx="75.29" ry="18"/>
<text text-anchor="middle" x="563.61" y="-45.61" font-family="Times,serif" font-size="14.00">GetReturnTensors</text>
</g>
<!-- GetReturnTensors&#45;&gt;Schema -->
<g id="edge8" class="edge">
<title>GetReturnTensors&#45;&gt;Schema</title>
<path fill="none" stroke="black" d="M616.53,-62.24C632.38,-66.44 649.81,-71.31 665.65,-76.31 677.15,-79.93 689.51,-84.26 700.76,-88.39"/>
<polygon fill="black" stroke="black" points="699.73,-91.74 710.33,-91.93 702.17,-85.17 699.73,-91.74"/>
</g>
<!-- ValidReturnShapes -->
<g id="node11" class="node">
<title>ValidReturnShapes</title>
<ellipse fill="none" stroke="black" cx="342.38" cy="-38.31" rx="77.99" ry="18"/>
<text text-anchor="middle" x="342.38" y="-34.61" font-family="Times,serif" font-size="14.00">ValidReturnShapes</text>
</g>
<!-- ValidReturnShapes&#45;&gt;Schema -->
<g id="edge9" class="edge">
<title>ValidReturnShapes&#45;&gt;Schema</title>
<path fill="none" stroke="black" d="M388.67,-23.78C453.23,-5.73 574.03,18.09 665.65,-22.31 690.93,-33.45 711.31,-57.97 724.24,-77.12"/>
<polygon fill="black" stroke="black" points="721.44,-79.25 729.81,-85.75 727.32,-75.45 721.44,-79.25"/>
</g>
<!-- ValidReturnShapes&#45;&gt;GetReturnTensors -->
<g id="edge10" class="edge">
<title>ValidReturnShapes&#45;&gt;GetReturnTensors</title>
<path fill="none" stroke="black" d="M418.82,-42.09C438.43,-43.08 459.65,-44.14 479.62,-45.14"/>
<polygon fill="black" stroke="black" points="479.45,-48.64 489.62,-45.64 479.8,-41.65 479.45,-48.64"/>
</g>
<!-- DataTensor(input)&#45;&gt;Schema -->
<g id="edge12" class="edge">
<title>DataTensor(input)&#45;&gt;Schema</title>
<path fill="none" stroke="black" d="M616.53,-144.38C632.38,-140.18 649.81,-135.3 665.65,-130.31 677.15,-126.68 689.51,-122.35 700.76,-118.23"/>
<polygon fill="black" stroke="black" points="702.17,-121.44 710.33,-114.69 699.73,-114.88 702.17,-121.44"/>
</g>
</g>
</svg>
