<?xml version="1.0" encoding="UTF-8" standalone="no"?>
<!DOCTYPE svg PUBLIC "-//W3C//DTD SVG 1.1//EN"
 "http://www.w3.org/Graphics/SVG/1.1/DTD/svg11.dtd">
<!-- Generated by graphviz version 2.43.0 (0)
 -->
<!-- Title: %3 Pages: 1 -->
<svg width="1364pt" height="634pt"
 viewBox="0.00 0.00 1364.00 634.40" xmlns="http://www.w3.org/2000/svg" xmlns:xlink="http://www.w3.org/1999/xlink">
<g id="graph0" class="graph" transform="scale(1 1) rotate(0) translate(4 630.4)">
<title>%3</title>
<polygon fill="white" stroke="transparent" points="-4,4 -4,-630.4 1360,-630.4 1360,4 -4,4"/>
<!-- ObservedValue(dtypes) -->
<g id="node1" class="node">
<title>ObservedValue(dtypes)</title>
<ellipse fill="none" stroke="black" cx="773.14" cy="-418" rx="92.88" ry="18"/>
<text text-anchor="middle" x="773.14" y="-414.3" font-family="Times,serif" font-size="14.00">ObservedValue(dtypes)</text>
</g>
<!-- ObservedValue(shapes) -->
<g id="node2" class="node">
<title>ObservedValue(shapes)</title>
<ellipse fill="none" stroke="black" cx="773.14" cy="-114" rx="93.68" ry="18"/>
<text text-anchor="middle" x="773.14" y="-110.3" font-family="Times,serif" font-size="14.00">ObservedValue(shapes)</text>
</g>
<!-- ObservedValue(args) -->
<g id="node3" class="node">
<title>ObservedValue(args)</title>
<ellipse fill="none" stroke="black" cx="430.12" cy="-218" rx="85.29" ry="18"/>
<text text-anchor="middle" x="430.12" y="-214.3" font-family="Times,serif" font-size="14.00">ObservedValue(args)</text>
</g>
<!-- Layout(layout) -->
<g id="node4" class="node">
<title>Layout(layout)</title>
<ellipse fill="none" stroke="black" cx="1253.31" cy="-180" rx="63.89" ry="18"/>
<text text-anchor="middle" x="1253.31" y="-176.3" font-family="Times,serif" font-size="14.00">Layout(layout)</text>
</g>
<!-- IndexRanks -->
<g id="node5" class="node">
<title>IndexRanks</title>
<ellipse fill="none" stroke="black" cx="773.14" cy="-364" rx="52.79" ry="18"/>
<text text-anchor="middle" x="773.14" y="-360.3" font-family="Times,serif" font-size="14.00">IndexRanks</text>
</g>
<!-- RankRange(batch) -->
<g id="node6" class="node">
<title>RankRange(batch)</title>
<ellipse fill="none" stroke="black" cx="1008.68" cy="-310" rx="76.89" ry="18"/>
<text text-anchor="middle" x="1008.68" y="-306.3" font-family="Times,serif" font-size="14.00">RankRange(batch)</text>
</g>
<!-- IndexRanks&#45;&gt;RankRange(batch) -->
<g id="edge1" class="edge">
<title>IndexRanks&#45;&gt;RankRange(batch)</title>
<path fill="none" stroke="purple" d="M817.25,-354.03C852.61,-345.86 903.19,-334.16 943.34,-324.88"/>
<polygon fill="purple" stroke="purple" points="944.35,-328.24 953.3,-322.57 942.77,-321.42 944.35,-328.24"/>
</g>
<!-- RankRange(input_spatial) -->
<g id="node7" class="node">
<title>RankRange(input_spatial)</title>
<ellipse fill="none" stroke="black" cx="1253.31" cy="-514" rx="102.88" ry="18"/>
<text text-anchor="middle" x="1253.31" y="-510.3" font-family="Times,serif" font-size="14.00">RankRange(input_spatial)</text>
</g>
<!-- IndexRanks&#45;&gt;RankRange(input_spatial) -->
<g id="edge2" class="edge">
<title>IndexRanks&#45;&gt;RankRange(input_spatial)</title>
<path fill="none" stroke="purple" d="M821.78,-371.18C837.18,-375.18 853.64,-381.39 866.74,-391 889.99,-408.07 878.61,-429.19 902.74,-445 982.76,-497.44 1020.84,-464.04 1114.62,-483 1136.28,-487.38 1159.78,-492.52 1181.12,-497.35"/>
<polygon fill="purple" stroke="purple" points="1180.56,-500.81 1191.09,-499.61 1182.11,-493.98 1180.56,-500.81"/>
</g>
<!-- RankEquiv(output_spatial) -->
<g id="node8" class="node">
<title>RankEquiv(output_spatial)</title>
<ellipse fill="none" stroke="black" cx="1008.68" cy="-564" rx="105.88" ry="18"/>
<text text-anchor="middle" x="1008.68" y="-560.3" font-family="Times,serif" font-size="14.00">RankEquiv(output_spatial)</text>
</g>
<!-- IndexRanks&#45;&gt;RankEquiv(output_spatial) -->
<g id="edge3" class="edge">
<title>IndexRanks&#45;&gt;RankEquiv(output_spatial)</title>
<path fill="none" stroke="purple" d="M824.4,-368.86C839.81,-372.7 855.61,-379.4 866.74,-391 912.99,-439.24 855.72,-489.5 902.74,-537 906.98,-541.28 911.8,-544.92 916.99,-548"/>
<polygon fill="purple" stroke="purple" points="915.55,-551.19 926.04,-552.67 918.76,-544.97 915.55,-551.19"/>
</g>
<!-- RankRange(channel) -->
<g id="node9" class="node">
<title>RankRange(channel)</title>
<ellipse fill="none" stroke="black" cx="1008.68" cy="-510" rx="85.29" ry="18"/>
<text text-anchor="middle" x="1008.68" y="-506.3" font-family="Times,serif" font-size="14.00">RankRange(channel)</text>
</g>
<!-- IndexRanks&#45;&gt;RankRange(channel) -->
<g id="edge4" class="edge">
<title>IndexRanks&#45;&gt;RankRange(channel)</title>
<path fill="none" stroke="purple" d="M823.42,-369.88C838.76,-373.79 854.77,-380.27 866.74,-391 897.89,-418.94 871.76,-449.87 902.74,-478 910.89,-485.4 920.71,-491.09 931.03,-495.47"/>
<polygon fill="purple" stroke="purple" points="930.02,-498.83 940.61,-499.13 932.52,-492.29 930.02,-498.83"/>
</g>
<!-- RankRange(ksize) -->
<g id="node10" class="node">
<title>RankRange(ksize)</title>
<ellipse fill="none" stroke="black" cx="1008.68" cy="-418" rx="75.29" ry="18"/>
<text text-anchor="middle" x="1008.68" y="-414.3" font-family="Times,serif" font-size="14.00">RankRange(ksize)</text>
</g>
<!-- IndexRanks&#45;&gt;RankRange(ksize) -->
<g id="edge5" class="edge">
<title>IndexRanks&#45;&gt;RankRange(ksize)</title>
<path fill="none" stroke="purple" d="M817.25,-373.97C852.73,-382.17 903.54,-393.92 943.75,-403.22"/>
<polygon fill="purple" stroke="purple" points="943.2,-406.68 953.73,-405.53 944.78,-399.86 943.2,-406.68"/>
</g>
<!-- RankRange(strides) -->
<g id="node11" class="node">
<title>RankRange(strides)</title>
<ellipse fill="none" stroke="black" cx="1008.68" cy="-364" rx="80.69" ry="18"/>
<text text-anchor="middle" x="1008.68" y="-360.3" font-family="Times,serif" font-size="14.00">RankRange(strides)</text>
</g>
<!-- IndexRanks&#45;&gt;RankRange(strides) -->
<g id="edge6" class="edge">
<title>IndexRanks&#45;&gt;RankRange(strides)</title>
<path fill="none" stroke="purple" d="M825.97,-364C853.01,-364 886.86,-364 918,-364"/>
<polygon fill="purple" stroke="purple" points="918,-367.5 928,-364 918,-360.5 918,-367.5"/>
</g>
<!-- RankEquiv(output_spatial)&#45;&gt;RankRange(input_spatial) -->
<g id="edge27" class="edge">
<title>RankEquiv(output_spatial)&#45;&gt;RankRange(input_spatial)</title>
<path fill="none" stroke="black" d="M1076.94,-550.14C1107.69,-543.8 1144.27,-536.26 1176.04,-529.72"/>
<polygon fill="black" stroke="black" points="1177.08,-533.08 1186.17,-527.63 1175.67,-526.22 1177.08,-533.08"/>
</g>
<!-- DTypes -->
<g id="node12" class="node">
<title>DTypes</title>
<ellipse fill="none" stroke="black" cx="597.41" cy="-391" rx="38.19" ry="18"/>
<text text-anchor="middle" x="597.41" y="-387.3" font-family="Times,serif" font-size="14.00">DTypes</text>
</g>
<!-- DTypes&#45;&gt;ObservedValue(dtypes) -->
<g id="edge7" class="edge">
<title>DTypes&#45;&gt;ObservedValue(dtypes)</title>
<path fill="none" stroke="black" d="M633.98,-396.53C650.29,-399.06 670.35,-402.18 690.08,-405.25"/>
<polygon fill="black" stroke="black" points="689.62,-408.72 700.04,-406.79 690.69,-401.8 689.62,-408.72"/>
</g>
<!-- DTypes&#45;&gt;Layout(layout) -->
<g id="edge9" class="edge">
<title>DTypes&#45;&gt;Layout(layout)</title>
<path fill="none" stroke="black" d="M614.14,-407.24C680.42,-473.7 941.43,-715.63 1114.62,-591 1116.67,-589.52 1212.58,-300.08 1243.09,-207.87"/>
<polygon fill="black" stroke="black" points="1246.5,-208.71 1246.32,-198.12 1239.85,-206.51 1246.5,-208.71"/>
</g>
<!-- DTypes&#45;&gt;IndexRanks -->
<g id="edge8" class="edge">
<title>DTypes&#45;&gt;IndexRanks</title>
<path fill="none" stroke="black" d="M633.98,-385.47C657.22,-381.86 688.09,-377.06 714.76,-372.92"/>
<polygon fill="black" stroke="black" points="715.4,-376.36 724.75,-371.37 714.33,-369.44 715.4,-376.36"/>
</g>
<!-- SigMap -->
<g id="node13" class="node">
<title>SigMap</title>
<ellipse fill="none" stroke="black" cx="773.14" cy="-168" rx="38.99" ry="18"/>
<text text-anchor="middle" x="773.14" y="-164.3" font-family="Times,serif" font-size="14.00">SigMap</text>
</g>
<!-- Sig(input) -->
<g id="node14" class="node">
<title>Sig(input)</title>
<ellipse fill="none" stroke="black" cx="1008.68" cy="-72" rx="46.29" ry="18"/>
<text text-anchor="middle" x="1008.68" y="-68.3" font-family="Times,serif" font-size="14.00">Sig(input)</text>
</g>
<!-- SigMap&#45;&gt;Sig(input) -->
<g id="edge10" class="edge">
<title>SigMap&#45;&gt;Sig(input)</title>
<path fill="none" stroke="purple" d="M810.48,-162.46C828.45,-158.51 849.85,-151.89 866.74,-141 887.4,-127.67 881.87,-112 902.74,-99 918.15,-89.4 936.87,-83.2 954.2,-79.2"/>
<polygon fill="purple" stroke="purple" points="955.15,-82.58 964.21,-77.09 953.7,-75.73 955.15,-82.58"/>
</g>
<!-- Sig(ksize) -->
<g id="node15" class="node">
<title>Sig(ksize)</title>
<ellipse fill="none" stroke="black" cx="1008.68" cy="-18" rx="46.29" ry="18"/>
<text text-anchor="middle" x="1008.68" y="-14.3" font-family="Times,serif" font-size="14.00">Sig(ksize)</text>
</g>
<!-- SigMap&#45;&gt;Sig(ksize) -->
<g id="edge11" class="edge">
<title>SigMap&#45;&gt;Sig(ksize)</title>
<path fill="none" stroke="purple" d="M811.84,-164.89C830.38,-161.56 851.88,-154.78 866.74,-141 900.14,-110.01 868.84,-75.45 902.74,-45 916.36,-32.76 934.81,-25.92 952.44,-22.15"/>
<polygon fill="purple" stroke="purple" points="953.48,-25.52 962.68,-20.27 952.21,-18.63 953.48,-25.52"/>
</g>
<!-- Sig(strides) -->
<g id="node16" class="node">
<title>Sig(strides)</title>
<ellipse fill="none" stroke="black" cx="1008.68" cy="-180" rx="51.19" ry="18"/>
<text text-anchor="middle" x="1008.68" y="-176.3" font-family="Times,serif" font-size="14.00">Sig(strides)</text>
</g>
<!-- SigMap&#45;&gt;Sig(strides) -->
<g id="edge12" class="edge">
<title>SigMap&#45;&gt;Sig(strides)</title>
<path fill="none" stroke="purple" d="M811.92,-169.94C848.61,-171.83 904.89,-174.72 947.7,-176.92"/>
<polygon fill="purple" stroke="purple" points="947.56,-180.42 957.72,-177.43 947.91,-173.42 947.56,-180.42"/>
</g>
<!-- Sig(return[0]) -->
<g id="node17" class="node">
<title>Sig(return[0])</title>
<ellipse fill="none" stroke="black" cx="1008.68" cy="-126" rx="59.59" ry="18"/>
<text text-anchor="middle" x="1008.68" y="-122.3" font-family="Times,serif" font-size="14.00">Sig(return[0])</text>
</g>
<!-- SigMap&#45;&gt;Sig(return[0]) -->
<g id="edge13" class="edge">
<title>SigMap&#45;&gt;Sig(return[0])</title>
<path fill="none" stroke="purple" d="M809.61,-161.62C845.95,-155.09 903.15,-144.8 946.76,-136.96"/>
<polygon fill="purple" stroke="purple" points="947.46,-140.39 956.69,-135.17 946.22,-133.5 947.46,-140.39"/>
</g>
<!-- Sig(input)&#45;&gt;Layout(layout) -->
<g id="edge31" class="edge">
<title>Sig(input)&#45;&gt;Layout(layout)</title>
<path fill="none" stroke="black" d="M1050.65,-79.75C1070.4,-84.18 1094.19,-90.56 1114.62,-99 1152.78,-114.77 1193.13,-139.59 1220.21,-157.61"/>
<polygon fill="black" stroke="black" points="1218.26,-160.52 1228.51,-163.2 1222.17,-154.71 1218.26,-160.52"/>
</g>
<!-- Sig(ksize)&#45;&gt;Layout(layout) -->
<g id="edge32" class="edge">
<title>Sig(ksize)&#45;&gt;Layout(layout)</title>
<path fill="none" stroke="black" d="M1052.45,-23.77C1072.28,-27.73 1095.61,-34.28 1114.62,-45 1164.19,-72.97 1208.65,-123.33 1232.92,-154.01"/>
<polygon fill="black" stroke="black" points="1230.31,-156.36 1239.22,-162.1 1235.84,-152.06 1230.31,-156.36"/>
</g>
<!-- Sig(strides)&#45;&gt;Layout(layout) -->
<g id="edge33" class="edge">
<title>Sig(strides)&#45;&gt;Layout(layout)</title>
<path fill="none" stroke="black" d="M1060.24,-180C1094.67,-180 1140.77,-180 1179.18,-180"/>
<polygon fill="black" stroke="black" points="1179.28,-183.5 1189.28,-180 1179.28,-176.5 1179.28,-183.5"/>
</g>
<!-- Sig(return[0])&#45;&gt;Layout(layout) -->
<g id="edge35" class="edge">
<title>Sig(return[0])&#45;&gt;Layout(layout)</title>
<path fill="none" stroke="black" d="M1057.32,-136.6C1096.08,-145.23 1150.99,-157.45 1192.66,-166.73"/>
<polygon fill="black" stroke="black" points="1192.16,-170.2 1202.69,-168.96 1193.69,-163.37 1192.16,-170.2"/>
</g>
<!-- ArgIndels -->
<g id="node18" class="node">
<title>ArgIndels</title>
<ellipse fill="none" stroke="black" cx="597.41" cy="-168" rx="46.29" ry="18"/>
<text text-anchor="middle" x="597.41" y="-164.3" font-family="Times,serif" font-size="14.00">ArgIndels</text>
</g>
<!-- ArgIndels&#45;&gt;ObservedValue(shapes) -->
<g id="edge16" class="edge">
<title>ArgIndels&#45;&gt;ObservedValue(shapes)</title>
<path fill="none" stroke="black" d="M632.67,-156.28C647.1,-151.43 664.1,-145.82 679.55,-141 689.36,-137.94 699.79,-134.79 709.98,-131.78"/>
<polygon fill="black" stroke="black" points="711.04,-135.12 719.65,-128.94 709.07,-128.4 711.04,-135.12"/>
</g>
<!-- ArgIndels&#45;&gt;Layout(layout) -->
<g id="edge17" class="edge">
<title>ArgIndels&#45;&gt;Layout(layout)</title>
<path fill="none" stroke="black" d="M630.26,-180.79C645.01,-186.15 662.92,-191.85 679.55,-195 869.6,-231.05 922.09,-225.7 1114.62,-207 1141.15,-204.42 1170.15,-199.12 1194.67,-193.88"/>
<polygon fill="black" stroke="black" points="1195.51,-197.28 1204.53,-191.73 1194.02,-190.44 1195.51,-197.28"/>
</g>
<!-- ArgIndels&#45;&gt;IndexRanks -->
<g id="edge14" class="edge">
<title>ArgIndels&#45;&gt;IndexRanks</title>
<path fill="none" stroke="black" d="M618.35,-184.49C626.44,-191.47 635.7,-199.86 643.55,-208 685.21,-251.17 728.57,-306.24 752.78,-338.07"/>
<polygon fill="black" stroke="black" points="750.26,-340.54 759.09,-346.4 755.84,-336.32 750.26,-340.54"/>
</g>
<!-- ArgIndels&#45;&gt;SigMap -->
<g id="edge15" class="edge">
<title>ArgIndels&#45;&gt;SigMap</title>
<path fill="none" stroke="black" d="M643.6,-168C668.26,-168 698.78,-168 723.89,-168"/>
<polygon fill="black" stroke="black" points="723.94,-171.5 733.94,-168 723.94,-164.5 723.94,-171.5"/>
</g>
<!-- IndexUsage -->
<g id="node19" class="node">
<title>IndexUsage</title>
<ellipse fill="none" stroke="black" cx="430.12" cy="-164" rx="52.79" ry="18"/>
<text text-anchor="middle" x="430.12" y="-160.3" font-family="Times,serif" font-size="14.00">IndexUsage</text>
</g>
<!-- IndexUsage&#45;&gt;ObservedValue(shapes) -->
<g id="edge20" class="edge">
<title>IndexUsage&#45;&gt;ObservedValue(shapes)</title>
<path fill="none" stroke="black" d="M475.5,-154.76C498.11,-150.24 526.08,-144.94 551.26,-141 593.75,-134.34 641.05,-128.37 680.95,-123.75"/>
<polygon fill="black" stroke="black" points="681.39,-127.22 690.92,-122.6 680.59,-120.26 681.39,-127.22"/>
</g>
<!-- IndexUsage&#45;&gt;IndexRanks -->
<g id="edge18" class="edge">
<title>IndexUsage&#45;&gt;IndexRanks</title>
<path fill="none" stroke="black" d="M472.68,-174.79C486.55,-179.06 501.87,-184.51 515.26,-191 604.3,-234.19 698.08,-304.69 743.77,-340.92"/>
<polygon fill="black" stroke="black" points="741.73,-343.77 751.73,-347.27 746.1,-338.29 741.73,-343.77"/>
</g>
<!-- IndexUsage&#45;&gt;ArgIndels -->
<g id="edge19" class="edge">
<title>IndexUsage&#45;&gt;ArgIndels</title>
<path fill="none" stroke="black" d="M482.96,-165.25C501.42,-165.7 522.26,-166.21 541,-166.66"/>
<polygon fill="black" stroke="black" points="541.08,-170.16 551.16,-166.91 541.25,-163.16 541.08,-170.16"/>
</g>
<!-- IndexConstraints -->
<g id="node20" class="node">
<title>IndexConstraints</title>
<ellipse fill="none" stroke="black" cx="206.93" cy="-164" rx="70.69" ry="18"/>
<text text-anchor="middle" x="206.93" y="-160.3" font-family="Times,serif" font-size="14.00">IndexConstraints</text>
</g>
<!-- IndexConstraints&#45;&gt;ObservedValue(args) -->
<g id="edge22" class="edge">
<title>IndexConstraints&#45;&gt;ObservedValue(args)</title>
<path fill="none" stroke="black" d="M258.68,-176.39C289.9,-184.01 330.24,-193.86 363.83,-202.06"/>
<polygon fill="black" stroke="black" points="363.02,-205.47 373.57,-204.44 364.68,-198.67 363.02,-205.47"/>
</g>
<!-- IndexConstraints&#45;&gt;IndexUsage -->
<g id="edge21" class="edge">
<title>IndexConstraints&#45;&gt;IndexUsage</title>
<path fill="none" stroke="black" d="M277.92,-164C306.54,-164 339.37,-164 367.11,-164"/>
<polygon fill="black" stroke="black" points="367.47,-167.5 377.47,-164 367.47,-160.5 367.47,-167.5"/>
</g>
<!-- Report -->
<g id="node21" class="node">
<title>Report</title>
<ellipse fill="none" stroke="black" cx="34.45" cy="-245" rx="34.39" ry="18"/>
<text text-anchor="middle" x="34.45" y="-241.3" font-family="Times,serif" font-size="14.00">Report</text>
</g>
<!-- Report&#45;&gt;DTypes -->
<g id="edge23" class="edge">
<title>Report&#45;&gt;DTypes</title>
<path fill="none" stroke="black" d="M51.09,-260.77C64.29,-273.12 84.28,-289.72 104.89,-299 257.19,-367.56 458.17,-385.03 548.65,-389.48"/>
<polygon fill="black" stroke="black" points="548.72,-392.99 558.87,-389.95 549.04,-385.99 548.72,-392.99"/>
</g>
<!-- Report&#45;&gt;IndexConstraints -->
<g id="edge24" class="edge">
<title>Report&#45;&gt;IndexConstraints</title>
<path fill="none" stroke="black" d="M51.83,-229.15C65.14,-217.09 84.92,-200.92 104.89,-191 115.93,-185.52 128.21,-181.05 140.31,-177.43"/>
<polygon fill="black" stroke="black" points="141.27,-180.8 149.94,-174.72 139.37,-174.06 141.27,-180.8"/>
</g>
<!-- DataFormat(data_format) -->
<g id="node22" class="node">
<title>DataFormat(data_format)</title>
<ellipse fill="none" stroke="black" cx="206.93" cy="-272" rx="102.08" ry="18"/>
<text text-anchor="middle" x="206.93" y="-268.3" font-family="Times,serif" font-size="14.00">DataFormat(data_format)</text>
</g>
<!-- Report&#45;&gt;DataFormat(data_format) -->
<g id="edge25" class="edge">
<title>Report&#45;&gt;DataFormat(data_format)</title>
<path fill="none" stroke="blue" d="M67.51,-250.08C82.71,-252.49 101.66,-255.49 120.61,-258.49"/>
<polygon fill="blue" stroke="blue" points="120.08,-261.95 130.51,-260.05 121.18,-255.03 120.08,-261.95"/>
</g>
<!-- Options(padding) -->
<g id="node23" class="node">
<title>Options(padding)</title>
<ellipse fill="none" stroke="black" cx="206.93" cy="-218" rx="72.59" ry="18"/>
<text text-anchor="middle" x="206.93" y="-214.3" font-family="Times,serif" font-size="14.00">Options(padding)</text>
</g>
<!-- Report&#45;&gt;Options(padding) -->
<g id="edge26" class="edge">
<title>Report&#45;&gt;Options(padding)</title>
<path fill="none" stroke="purple" d="M67.51,-239.92C86.59,-236.9 111.58,-232.94 135.07,-229.22"/>
<polygon fill="purple" stroke="purple" points="135.69,-232.67 145.02,-227.65 134.6,-225.75 135.69,-232.67"/>
</g>
<!-- DataFormat(data_format)&#45;&gt;ObservedValue(args) -->
<g id="edge30" class="edge">
<title>DataFormat(data_format)&#45;&gt;ObservedValue(args)</title>
<path fill="none" stroke="black" d="M267.5,-257.46C297.16,-250.22 333.09,-241.45 363.53,-234.01"/>
<polygon fill="black" stroke="black" points="364.74,-237.32 373.63,-231.55 363.08,-230.52 364.74,-237.32"/>
</g>
<!-- DataFormat(data_format)&#45;&gt;Layout(layout) -->
<g id="edge29" class="edge">
<title>DataFormat(data_format)&#45;&gt;Layout(layout)</title>
<path fill="none" stroke="black" d="M307.73,-268.82C386.19,-266.58 498.26,-264 596.41,-264 596.41,-264 596.41,-264 774.14,-264 926.31,-264 966.13,-261.26 1114.62,-228 1146.41,-220.88 1181.03,-208.79 1207.61,-198.52"/>
<polygon fill="black" stroke="black" points="1208.98,-201.74 1217.02,-194.83 1206.43,-195.22 1208.98,-201.74"/>
</g>
<!-- DataFormat(data_format)&#45;&gt;IndexRanks -->
<g id="edge28" class="edge">
<title>DataFormat(data_format)&#45;&gt;IndexRanks</title>
<path fill="none" stroke="black" d="M282.57,-284.17C396.79,-302.8 612.51,-337.97 715.13,-354.7"/>
<polygon fill="black" stroke="black" points="714.86,-358.21 725.29,-356.36 715.99,-351.3 714.86,-358.21"/>
</g>
<!-- Options(padding)&#45;&gt;ObservedValue(args) -->
<g id="edge34" class="edge">
<title>Options(padding)&#45;&gt;ObservedValue(args)</title>
<path fill="none" stroke="black" d="M279.75,-218C297.31,-218 316.36,-218 334.8,-218"/>
<polygon fill="black" stroke="black" points="334.97,-221.5 344.97,-218 334.97,-214.5 334.97,-221.5"/>
</g>
</g>
</svg>
