<?xml version="1.0" encoding="UTF-8" standalone="no"?>
<!DOCTYPE svg PUBLIC "-//W3C//DTD SVG 1.1//EN"
 "http://www.w3.org/Graphics/SVG/1.1/DTD/svg11.dtd">
<!-- Generated by graphviz version 2.43.0 (0)
 -->
<!-- Title: %3 Pages: 1 -->
<svg width="1244pt" height="516pt"
 viewBox="0.00 0.00 1244.41 516.11" xmlns="http://www.w3.org/2000/svg" xmlns:xlink="http://www.w3.org/1999/xlink">
<g id="graph0" class="graph" transform="scale(1 1) rotate(0) translate(4 512.11)">
<title>%3</title>
<polygon fill="white" stroke="transparent" points="-4,4 -4,-512.11 1240.41,-512.11 1240.41,4 -4,4"/>
<!-- ObservedValue(dtypes) -->
<g id="node1" class="node">
<title>ObservedValue(dtypes)</title>
<ellipse fill="none" stroke="black" cx="773.14" cy="-445" rx="92.88" ry="18"/>
<text text-anchor="middle" x="773.14" y="-441.3" font-family="Times,serif" font-size="14.00">ObservedValue(dtypes)</text>
</g>
<!-- ObservedValue(shapes) -->
<g id="node2" class="node">
<title>ObservedValue(shapes)</title>
<ellipse fill="none" stroke="black" cx="773.14" cy="-18" rx="93.68" ry="18"/>
<text text-anchor="middle" x="773.14" y="-14.3" font-family="Times,serif" font-size="14.00">ObservedValue(shapes)</text>
</g>
<!-- ObservedValue(args) -->
<g id="node3" class="node">
<title>ObservedValue(args)</title>
<ellipse fill="none" stroke="black" cx="430.12" cy="-293" rx="85.29" ry="18"/>
<text text-anchor="middle" x="430.12" y="-289.3" font-family="Times,serif" font-size="14.00">ObservedValue(args)</text>
</g>
<!-- Layout(layout) -->
<g id="node4" class="node">
<title>Layout(layout)</title>
<ellipse fill="none" stroke="black" cx="1172.72" cy="-191" rx="63.89" ry="18"/>
<text text-anchor="middle" x="1172.72" y="-187.3" font-family="Times,serif" font-size="14.00">Layout(layout)</text>
</g>
<!-- IndexRanks -->
<g id="node5" class="node">
<title>IndexRanks</title>
<ellipse fill="none" stroke="black" cx="773.14" cy="-326" rx="52.79" ry="18"/>
<text text-anchor="middle" x="773.14" y="-322.3" font-family="Times,serif" font-size="14.00">IndexRanks</text>
</g>
<!-- RankRange(batch) -->
<g id="node6" class="node">
<title>RankRange(batch)</title>
<ellipse fill="none" stroke="black" cx="987.88" cy="-380" rx="76.89" ry="18"/>
<text text-anchor="middle" x="987.88" y="-376.3" font-family="Times,serif" font-size="14.00">RankRange(batch)</text>
</g>
<!-- IndexRanks&#45;&gt;RankRange(batch) -->
<g id="edge1" class="edge">
<title>IndexRanks&#45;&gt;RankRange(batch)</title>
<path fill="none" stroke="purple" d="M815.92,-336.6C846.98,-344.49 889.86,-355.37 924.9,-364.27"/>
<polygon fill="purple" stroke="purple" points="924.48,-367.77 935.03,-366.84 926.2,-360.99 924.48,-367.77"/>
</g>
<!-- RankRange(spatial) -->
<g id="node7" class="node">
<title>RankRange(spatial)</title>
<ellipse fill="none" stroke="black" cx="987.88" cy="-326" rx="80.69" ry="18"/>
<text text-anchor="middle" x="987.88" y="-322.3" font-family="Times,serif" font-size="14.00">RankRange(spatial)</text>
</g>
<!-- IndexRanks&#45;&gt;RankRange(spatial) -->
<g id="edge2" class="edge">
<title>IndexRanks&#45;&gt;RankRange(spatial)</title>
<path fill="none" stroke="purple" d="M825.91,-326C847.22,-326 872.54,-326 896.71,-326"/>
<polygon fill="purple" stroke="purple" points="896.99,-329.5 906.99,-326 896.99,-322.5 896.99,-329.5"/>
</g>
<!-- RankRange(channel) -->
<g id="node8" class="node">
<title>RankRange(channel)</title>
<ellipse fill="none" stroke="black" cx="987.88" cy="-272" rx="85.29" ry="18"/>
<text text-anchor="middle" x="987.88" y="-268.3" font-family="Times,serif" font-size="14.00">RankRange(channel)</text>
</g>
<!-- IndexRanks&#45;&gt;RankRange(channel) -->
<g id="edge3" class="edge">
<title>IndexRanks&#45;&gt;RankRange(channel)</title>
<path fill="none" stroke="purple" d="M815.92,-315.4C846.32,-307.68 888.04,-297.09 922.66,-288.3"/>
<polygon fill="purple" stroke="purple" points="923.85,-291.61 932.68,-285.76 922.13,-284.82 923.85,-291.61"/>
</g>
<!-- DTypes -->
<g id="node9" class="node">
<title>DTypes</title>
<ellipse fill="none" stroke="black" cx="597.41" cy="-445" rx="38.19" ry="18"/>
<text text-anchor="middle" x="597.41" y="-441.3" font-family="Times,serif" font-size="14.00">DTypes</text>
</g>
<!-- DTypes&#45;&gt;ObservedValue(dtypes) -->
<g id="edge4" class="edge">
<title>DTypes&#45;&gt;ObservedValue(dtypes)</title>
<path fill="none" stroke="black" d="M636.11,-445C646.32,-445 657.89,-445 669.85,-445"/>
<polygon fill="black" stroke="black" points="669.98,-448.5 679.98,-445 669.98,-441.5 669.98,-448.5"/>
</g>
<!-- DTypes&#45;&gt;Layout(layout) -->
<g id="edge6" class="edge">
<title>DTypes&#45;&gt;Layout(layout)</title>
<path fill="none" stroke="black" d="M626.76,-456.93C642.09,-462.73 661.53,-469.08 679.55,-472 852.75,-500.06 935.9,-549.46 1073.02,-440 1142.89,-384.23 1163.48,-271.79 1169.4,-219.25"/>
<polygon fill="black" stroke="black" points="1172.88,-219.59 1170.43,-209.29 1165.92,-218.88 1172.88,-219.59"/>
</g>
<!-- DTypes&#45;&gt;IndexRanks -->
<g id="edge5" class="edge">
<title>DTypes&#45;&gt;IndexRanks</title>
<path fill="none" stroke="black" d="M620.06,-430.17C650.33,-409.43 705.51,-371.64 740.42,-347.73"/>
<polygon fill="black" stroke="black" points="742.56,-350.51 748.83,-341.97 738.6,-344.73 742.56,-350.51"/>
</g>
<!-- SigMap -->
<g id="node10" class="node">
<title>SigMap</title>
<ellipse fill="none" stroke="black" cx="773.14" cy="-164" rx="38.99" ry="18"/>
<text text-anchor="middle" x="773.14" y="-160.3" font-family="Times,serif" font-size="14.00">SigMap</text>
</g>
<!-- Sig(value) -->
<g id="node11" class="node">
<title>Sig(value)</title>
<ellipse fill="none" stroke="black" cx="987.88" cy="-164" rx="47.39" ry="18"/>
<text text-anchor="middle" x="987.88" y="-160.3" font-family="Times,serif" font-size="14.00">Sig(value)</text>
</g>
<!-- SigMap&#45;&gt;Sig(value) -->
<g id="edge7" class="edge">
<title>SigMap&#45;&gt;Sig(value)</title>
<path fill="none" stroke="purple" d="M812.18,-164C844.95,-164 892.73,-164 930.04,-164"/>
<polygon fill="purple" stroke="purple" points="930.27,-167.5 940.27,-164 930.27,-160.5 930.27,-167.5"/>
</g>
<!-- Sig(bias) -->
<g id="node12" class="node">
<title>Sig(bias)</title>
<ellipse fill="none" stroke="black" cx="987.88" cy="-110" rx="42.49" ry="18"/>
<text text-anchor="middle" x="987.88" y="-106.3" font-family="Times,serif" font-size="14.00">Sig(bias)</text>
</g>
<!-- SigMap&#45;&gt;Sig(bias) -->
<g id="edge8" class="edge">
<title>SigMap&#45;&gt;Sig(bias)</title>
<path fill="none" stroke="purple" d="M807.85,-155.44C843.93,-146.29 901.36,-131.71 941.41,-121.54"/>
<polygon fill="purple" stroke="purple" points="942.37,-124.91 951.2,-119.06 940.64,-118.12 942.37,-124.91"/>
</g>
<!-- Sig(return[0]) -->
<g id="node13" class="node">
<title>Sig(return[0])</title>
<ellipse fill="none" stroke="black" cx="987.88" cy="-218" rx="59.59" ry="18"/>
<text text-anchor="middle" x="987.88" y="-214.3" font-family="Times,serif" font-size="14.00">Sig(return[0])</text>
</g>
<!-- SigMap&#45;&gt;Sig(return[0]) -->
<g id="edge9" class="edge">
<title>SigMap&#45;&gt;Sig(return[0])</title>
<path fill="none" stroke="purple" d="M807.85,-172.56C841.05,-180.98 892.33,-194 931.51,-203.95"/>
<polygon fill="purple" stroke="purple" points="930.9,-207.4 941.45,-206.47 932.62,-200.62 930.9,-207.4"/>
</g>
<!-- Sig(value)&#45;&gt;Layout(layout) -->
<g id="edge25" class="edge">
<title>Sig(value)&#45;&gt;Layout(layout)</title>
<path fill="none" stroke="black" d="M1032.67,-170.47C1054.49,-173.69 1081.32,-177.65 1105.58,-181.23"/>
<polygon fill="black" stroke="black" points="1105.39,-184.74 1115.8,-182.74 1106.42,-177.82 1105.39,-184.74"/>
</g>
<!-- Sig(bias)&#45;&gt;Layout(layout) -->
<g id="edge26" class="edge">
<title>Sig(bias)&#45;&gt;Layout(layout)</title>
<path fill="none" stroke="black" d="M1023.81,-119.58C1039.15,-124.21 1057.23,-130.22 1073.02,-137 1094.77,-146.34 1118.04,-158.93 1136.52,-169.61"/>
<polygon fill="black" stroke="black" points="1134.78,-172.65 1145.18,-174.68 1138.31,-166.61 1134.78,-172.65"/>
</g>
<!-- Sig(return[0])&#45;&gt;Layout(layout) -->
<g id="edge27" class="edge">
<title>Sig(return[0])&#45;&gt;Layout(layout)</title>
<path fill="none" stroke="black" d="M1041.76,-210.19C1061.7,-207.25 1084.64,-203.86 1105.63,-200.76"/>
<polygon fill="black" stroke="black" points="1106.38,-204.19 1115.76,-199.26 1105.36,-197.26 1106.38,-204.19"/>
</g>
<!-- ArgIndels -->
<g id="node14" class="node">
<title>ArgIndels</title>
<ellipse fill="none" stroke="black" cx="597.41" cy="-164" rx="46.29" ry="18"/>
<text text-anchor="middle" x="597.41" y="-160.3" font-family="Times,serif" font-size="14.00">ArgIndels</text>
</g>
<!-- ArgIndels&#45;&gt;ObservedValue(shapes) -->
<g id="edge12" class="edge">
<title>ArgIndels&#45;&gt;ObservedValue(shapes)</title>
<path fill="none" stroke="black" d="M606.56,-146.34C618.94,-121.41 644.74,-76.06 679.55,-50 686.95,-44.46 695.38,-39.83 704.07,-35.98"/>
<polygon fill="black" stroke="black" points="705.64,-39.12 713.57,-32.09 702.99,-32.64 705.64,-39.12"/>
</g>
<!-- ArgIndels&#45;&gt;Layout(layout) -->
<g id="edge13" class="edge">
<title>ArgIndels&#45;&gt;Layout(layout)</title>
<path fill="none" stroke="black" d="M624.89,-149.41C699.01,-110.64 913.54,-12.7 1073.02,-83 1110.44,-99.5 1139.83,-137.97 1156.49,-164.24"/>
<polygon fill="black" stroke="black" points="1153.63,-166.28 1161.85,-172.97 1159.6,-162.62 1153.63,-166.28"/>
</g>
<!-- ArgIndels&#45;&gt;IndexRanks -->
<g id="edge10" class="edge">
<title>ArgIndels&#45;&gt;IndexRanks</title>
<path fill="none" stroke="black" d="M616.35,-180.73C647.3,-209.59 710.83,-268.83 746.46,-302.05"/>
<polygon fill="black" stroke="black" points="744.34,-304.86 754.04,-309.12 749.12,-299.74 744.34,-304.86"/>
</g>
<!-- ArgIndels&#45;&gt;SigMap -->
<g id="edge11" class="edge">
<title>ArgIndels&#45;&gt;SigMap</title>
<path fill="none" stroke="black" d="M643.6,-164C668.26,-164 698.78,-164 723.89,-164"/>
<polygon fill="black" stroke="black" points="723.94,-167.5 733.94,-164 723.94,-160.5 723.94,-167.5"/>
</g>
<!-- IndexUsage -->
<g id="node15" class="node">
<title>IndexUsage</title>
<ellipse fill="none" stroke="black" cx="430.12" cy="-208" rx="52.79" ry="18"/>
<text text-anchor="middle" x="430.12" y="-204.3" font-family="Times,serif" font-size="14.00">IndexUsage</text>
</g>
<!-- IndexUsage&#45;&gt;ObservedValue(shapes) -->
<g id="edge16" class="edge">
<title>IndexUsage&#45;&gt;ObservedValue(shapes)</title>
<path fill="none" stroke="black" d="M453.03,-191.55C495.12,-160.55 590.94,-92.76 679.55,-50 689.74,-45.08 700.89,-40.56 711.8,-36.56"/>
<polygon fill="black" stroke="black" points="713.06,-39.83 721.31,-33.18 710.71,-33.23 713.06,-39.83"/>
</g>
<!-- IndexUsage&#45;&gt;IndexRanks -->
<g id="edge14" class="edge">
<title>IndexUsage&#45;&gt;IndexRanks</title>
<path fill="none" stroke="black" d="M467.94,-220.74C530.48,-242.38 657.34,-286.27 725.81,-309.97"/>
<polygon fill="black" stroke="black" points="724.88,-313.35 735.48,-313.31 727.17,-306.74 724.88,-313.35"/>
</g>
<!-- IndexUsage&#45;&gt;ArgIndels -->
<g id="edge15" class="edge">
<title>IndexUsage&#45;&gt;ArgIndels</title>
<path fill="none" stroke="black" d="M472.4,-197.01C495.68,-190.81 524.86,-183.05 549.06,-176.6"/>
<polygon fill="black" stroke="black" points="549.99,-179.98 558.76,-174.02 548.19,-173.21 549.99,-179.98"/>
</g>
<!-- IndexConstraints -->
<g id="node16" class="node">
<title>IndexConstraints</title>
<ellipse fill="none" stroke="black" cx="206.93" cy="-291" rx="70.69" ry="18"/>
<text text-anchor="middle" x="206.93" y="-287.3" font-family="Times,serif" font-size="14.00">IndexConstraints</text>
</g>
<!-- IndexConstraints&#45;&gt;ObservedValue(args) -->
<g id="edge18" class="edge">
<title>IndexConstraints&#45;&gt;ObservedValue(args)</title>
<path fill="none" stroke="black" d="M277.92,-291.63C295.94,-291.8 315.64,-291.97 334.68,-292.15"/>
<polygon fill="black" stroke="black" points="334.84,-295.65 344.87,-292.24 334.9,-288.65 334.84,-295.65"/>
</g>
<!-- IndexConstraints&#45;&gt;IndexUsage -->
<g id="edge17" class="edge">
<title>IndexConstraints&#45;&gt;IndexUsage</title>
<path fill="none" stroke="black" d="M247.48,-276.16C285.93,-261.73 344.27,-239.84 384.39,-224.78"/>
<polygon fill="black" stroke="black" points="385.79,-228 393.93,-221.21 383.34,-221.44 385.79,-228"/>
</g>
<!-- Report -->
<g id="node17" class="node">
<title>Report</title>
<ellipse fill="none" stroke="black" cx="34.45" cy="-345" rx="34.39" ry="18"/>
<text text-anchor="middle" x="34.45" y="-341.3" font-family="Times,serif" font-size="14.00">Report</text>
</g>
<!-- Report&#45;&gt;DTypes -->
<g id="edge19" class="edge">
<title>Report&#45;&gt;DTypes</title>
<path fill="none" stroke="black" d="M61.41,-356.53C74.28,-361.87 90.18,-367.93 104.89,-372 264.45,-416.15 460.99,-435.13 549.4,-441.87"/>
<polygon fill="black" stroke="black" points="549.16,-445.36 559.39,-442.61 549.68,-438.38 549.16,-445.36"/>
</g>
<!-- Report&#45;&gt;IndexConstraints -->
<g id="edge20" class="edge">
<title>Report&#45;&gt;IndexConstraints</title>
<path fill="none" stroke="black" d="M61.91,-333.92C74.77,-328.75 90.51,-322.7 104.89,-318 117.95,-313.73 132.11,-309.63 145.58,-305.97"/>
<polygon fill="black" stroke="black" points="146.49,-309.35 155.25,-303.38 144.68,-302.58 146.49,-309.35"/>
</g>
<!-- DataFormat(data_format) -->
<g id="node18" class="node">
<title>DataFormat(data_format)</title>
<ellipse fill="none" stroke="black" cx="206.93" cy="-345" rx="102.08" ry="18"/>
<text text-anchor="middle" x="206.93" y="-341.3" font-family="Times,serif" font-size="14.00">DataFormat(data_format)</text>
</g>
<!-- Report&#45;&gt;DataFormat(data_format) -->
<g id="edge21" class="edge">
<title>Report&#45;&gt;DataFormat(data_format)</title>
<path fill="none" stroke="blue" d="M69.13,-345C76.9,-345 85.58,-345 94.7,-345"/>
<polygon fill="blue" stroke="blue" points="94.75,-348.5 104.75,-345 94.75,-341.5 94.75,-348.5"/>
</g>
<!-- DataFormat(data_format)&#45;&gt;ObservedValue(args) -->
<g id="edge24" class="edge">
<title>DataFormat(data_format)&#45;&gt;ObservedValue(args)</title>
<path fill="none" stroke="black" d="M268.96,-330.65C298.02,-323.82 332.85,-315.63 362.59,-308.64"/>
<polygon fill="black" stroke="black" points="363.53,-312.01 372.47,-306.32 361.93,-305.2 363.53,-312.01"/>
</g>
<!-- DataFormat(data_format)&#45;&gt;Layout(layout) -->
<g id="edge23" class="edge">
<title>DataFormat(data_format)&#45;&gt;Layout(layout)</title>
<path fill="none" stroke="black" d="M287.68,-356.12C489.27,-383.47 1007.9,-448.84 1073.02,-407 1138.48,-364.94 1161.06,-267.5 1168.41,-219.2"/>
<polygon fill="black" stroke="black" points="1171.9,-219.51 1169.83,-209.12 1164.97,-218.54 1171.9,-219.51"/>
</g>
<!-- DataFormat(data_format)&#45;&gt;IndexRanks -->
<g id="edge22" class="edge">
<title>DataFormat(data_format)&#45;&gt;IndexRanks</title>
<path fill="none" stroke="black" d="M307.51,-341.65C423.95,-337.73 613.11,-331.36 710.25,-328.08"/>
<polygon fill="black" stroke="black" points="710.62,-331.57 720.5,-327.74 710.39,-324.58 710.62,-331.57"/>
</g>
</g>
</svg>
