<?xml version="1.0" encoding="UTF-8" standalone="no"?>
<!DOCTYPE svg PUBLIC "-//W3C//DTD SVG 1.1//EN"
 "http://www.w3.org/Graphics/SVG/1.1/DTD/svg11.dtd">
<!-- Generated by graphviz version 2.43.0 (0)
 -->
<!-- Title: %3 Pages: 1 -->
<svg width="1373pt" height="417pt"
 viewBox="0.00 0.00 1372.70 417.08" xmlns="http://www.w3.org/2000/svg" xmlns:xlink="http://www.w3.org/1999/xlink">
<g id="graph0" class="graph" transform="scale(1 1) rotate(0) translate(4 413.08)">
<title>%3</title>
<polygon fill="white" stroke="transparent" points="-4,4 -4,-413.08 1368.7,-413.08 1368.7,4 -4,4"/>
<!-- Layout(layout) -->
<g id="node1" class="node">
<title>Layout(layout)</title>
<ellipse fill="none" stroke="black" cx="1301.01" cy="-126" rx="63.89" ry="18"/>
<text text-anchor="middle" x="1301.01" y="-122.3" font-family="Times,serif" font-size="14.00">Layout(layout)</text>
</g>
<!-- IndexRanks -->
<g id="node2" class="node">
<title>IndexRanks</title>
<ellipse fill="none" stroke="black" cx="942.38" cy="-234" rx="52.79" ry="18"/>
<text text-anchor="middle" x="942.38" y="-230.3" font-family="Times,serif" font-size="14.00">IndexRanks</text>
</g>
<!-- RankRange(batch) -->
<g id="node3" class="node">
<title>RankRange(batch)</title>
<ellipse fill="none" stroke="black" cx="1116.17" cy="-180" rx="76.89" ry="18"/>
<text text-anchor="middle" x="1116.17" y="-176.3" font-family="Times,serif" font-size="14.00">RankRange(batch)</text>
</g>
<!-- IndexRanks&#45;&gt;RankRange(batch) -->
<g id="edge1" class="edge">
<title>IndexRanks&#45;&gt;RankRange(batch)</title>
<path fill="none" stroke="purple" d="M981.93,-221.88C1004.82,-214.69 1034.21,-205.45 1059.57,-197.48"/>
<polygon fill="purple" stroke="purple" points="1060.94,-200.72 1069.43,-194.38 1058.84,-194.04 1060.94,-200.72"/>
</g>
<!-- RankRange(spatial) -->
<g id="node4" class="node">
<title>RankRange(spatial)</title>
<ellipse fill="none" stroke="black" cx="1116.17" cy="-288" rx="80.69" ry="18"/>
<text text-anchor="middle" x="1116.17" y="-284.3" font-family="Times,serif" font-size="14.00">RankRange(spatial)</text>
</g>
<!-- IndexRanks&#45;&gt;RankRange(spatial) -->
<g id="edge2" class="edge">
<title>IndexRanks&#45;&gt;RankRange(spatial)</title>
<path fill="none" stroke="purple" d="M981.93,-246.12C1004.64,-253.26 1033.77,-262.41 1058.99,-270.34"/>
<polygon fill="purple" stroke="purple" points="1058.22,-273.77 1068.81,-273.43 1060.32,-267.09 1058.22,-273.77"/>
</g>
<!-- RankRange(channel) -->
<g id="node5" class="node">
<title>RankRange(channel)</title>
<ellipse fill="none" stroke="black" cx="1116.17" cy="-234" rx="85.29" ry="18"/>
<text text-anchor="middle" x="1116.17" y="-230.3" font-family="Times,serif" font-size="14.00">RankRange(channel)</text>
</g>
<!-- IndexRanks&#45;&gt;RankRange(channel) -->
<g id="edge3" class="edge">
<title>IndexRanks&#45;&gt;RankRange(channel)</title>
<path fill="none" stroke="purple" d="M995.39,-234C1003.48,-234 1012.05,-234 1020.74,-234"/>
<polygon fill="purple" stroke="purple" points="1020.97,-237.5 1030.97,-234 1020.97,-230.5 1020.97,-237.5"/>
</g>
<!-- DTypesNotImpl -->
<g id="node6" class="node">
<title>DTypesNotImpl</title>
<ellipse fill="none" stroke="black" cx="350.18" cy="-258" rx="68.79" ry="18"/>
<text text-anchor="middle" x="350.18" y="-254.3" font-family="Times,serif" font-size="14.00">DTypesNotImpl</text>
</g>
<!-- DTypesNotImpl&#45;&gt;Layout(layout) -->
<g id="edge5" class="edge">
<title>DTypesNotImpl&#45;&gt;Layout(layout)</title>
<path fill="none" stroke="black" d="M394.7,-271.85C467.57,-293.77 619.19,-334 750.7,-334 750.7,-334 750.7,-334 943.38,-334 1000.86,-334 1153.29,-346.57 1201.31,-315 1258.04,-277.71 1284.14,-196.86 1294.38,-154"/>
<polygon fill="black" stroke="black" points="1297.8,-154.74 1296.6,-144.21 1290.97,-153.19 1297.8,-154.74"/>
</g>
<!-- DTypesNotImpl&#45;&gt;IndexRanks -->
<g id="edge4" class="edge">
<title>DTypesNotImpl&#45;&gt;IndexRanks</title>
<path fill="none" stroke="black" d="M419.08,-258.75C431.07,-258.85 443.43,-258.94 455.07,-259 632.25,-259.85 678.18,-281.97 853.74,-258 867.19,-256.16 881.5,-252.85 894.58,-249.26"/>
<polygon fill="black" stroke="black" points="895.65,-252.59 904.3,-246.48 893.72,-245.86 895.65,-252.59"/>
</g>
<!-- DTypeIndiv(value) -->
<g id="node7" class="node">
<title>DTypeIndiv(value)</title>
<ellipse fill="none" stroke="black" cx="751.7" cy="-231" rx="78.79" ry="18"/>
<text text-anchor="middle" x="751.7" y="-227.3" font-family="Times,serif" font-size="14.00">DTypeIndiv(value)</text>
</g>
<!-- DTypesNotImpl&#45;&gt;DTypeIndiv(value) -->
<g id="edge6" class="edge">
<title>DTypesNotImpl&#45;&gt;DTypeIndiv(value)</title>
<path fill="none" stroke="purple" d="M417.15,-253.54C485.2,-248.94 591.59,-241.75 665.86,-236.73"/>
<polygon fill="purple" stroke="purple" points="666.38,-240.21 676.12,-236.04 665.91,-233.22 666.38,-240.21"/>
</g>
<!-- DTypeEquate(bias) -->
<g id="node8" class="node">
<title>DTypeEquate(bias)</title>
<ellipse fill="none" stroke="black" cx="534.36" cy="-212" rx="79.09" ry="18"/>
<text text-anchor="middle" x="534.36" y="-208.3" font-family="Times,serif" font-size="14.00">DTypeEquate(bias)</text>
</g>
<!-- DTypesNotImpl&#45;&gt;DTypeEquate(bias) -->
<g id="edge7" class="edge">
<title>DTypesNotImpl&#45;&gt;DTypeEquate(bias)</title>
<path fill="none" stroke="purple" d="M400.48,-245.55C422.05,-240.1 447.61,-233.65 470.53,-227.86"/>
<polygon fill="purple" stroke="purple" points="471.67,-231.19 480.51,-225.34 469.96,-224.4 471.67,-231.19"/>
</g>
<!-- DTypeEquate(bias)&#45;&gt;DTypeIndiv(value) -->
<g id="edge28" class="edge">
<title>DTypeEquate(bias)&#45;&gt;DTypeIndiv(value)</title>
<path fill="none" stroke="black" d="M608.56,-218.46C627.67,-220.14 648.39,-221.97 667.95,-223.7"/>
<polygon fill="black" stroke="black" points="667.79,-227.2 678.06,-224.59 668.41,-220.23 667.79,-227.2"/>
</g>
<!-- SigMap -->
<g id="node9" class="node">
<title>SigMap</title>
<ellipse fill="none" stroke="black" cx="942.38" cy="-74" rx="38.99" ry="18"/>
<text text-anchor="middle" x="942.38" y="-70.3" font-family="Times,serif" font-size="14.00">SigMap</text>
</g>
<!-- Sig(value) -->
<g id="node10" class="node">
<title>Sig(value)</title>
<ellipse fill="none" stroke="black" cx="1116.17" cy="-72" rx="47.39" ry="18"/>
<text text-anchor="middle" x="1116.17" y="-68.3" font-family="Times,serif" font-size="14.00">Sig(value)</text>
</g>
<!-- SigMap&#45;&gt;Sig(value) -->
<g id="edge8" class="edge">
<title>SigMap&#45;&gt;Sig(value)</title>
<path fill="none" stroke="purple" d="M981.51,-73.56C1004.1,-73.29 1033.15,-72.95 1058.39,-72.66"/>
<polygon fill="purple" stroke="purple" points="1058.62,-76.16 1068.58,-72.54 1058.54,-69.16 1058.62,-76.16"/>
</g>
<!-- Sig(bias) -->
<g id="node11" class="node">
<title>Sig(bias)</title>
<ellipse fill="none" stroke="black" cx="1116.17" cy="-18" rx="42.49" ry="18"/>
<text text-anchor="middle" x="1116.17" y="-14.3" font-family="Times,serif" font-size="14.00">Sig(bias)</text>
</g>
<!-- SigMap&#45;&gt;Sig(bias) -->
<g id="edge9" class="edge">
<title>SigMap&#45;&gt;Sig(bias)</title>
<path fill="none" stroke="purple" d="M974.59,-63.6C991.32,-58.04 1012.28,-51.11 1031.03,-45 1044.4,-40.64 1058.97,-35.95 1072.19,-31.71"/>
<polygon fill="purple" stroke="purple" points="1073.52,-34.96 1081.98,-28.57 1071.39,-28.29 1073.52,-34.96"/>
</g>
<!-- Sig(return[0]) -->
<g id="node12" class="node">
<title>Sig(return[0])</title>
<ellipse fill="none" stroke="black" cx="1116.17" cy="-126" rx="59.59" ry="18"/>
<text text-anchor="middle" x="1116.17" y="-122.3" font-family="Times,serif" font-size="14.00">Sig(return[0])</text>
</g>
<!-- SigMap&#45;&gt;Sig(return[0]) -->
<g id="edge10" class="edge">
<title>SigMap&#45;&gt;Sig(return[0])</title>
<path fill="none" stroke="purple" d="M975.29,-83.66C1000.03,-91.15 1034.81,-101.68 1063.5,-110.36"/>
<polygon fill="purple" stroke="purple" points="1062.79,-113.8 1073.37,-113.35 1064.81,-107.1 1062.79,-113.8"/>
</g>
<!-- Sig(value)&#45;&gt;Layout(layout) -->
<g id="edge24" class="edge">
<title>Sig(value)&#45;&gt;Layout(layout)</title>
<path fill="none" stroke="black" d="M1154.17,-82.93C1180.7,-90.76 1216.85,-101.44 1246.51,-110.2"/>
<polygon fill="black" stroke="black" points="1245.72,-113.62 1256.3,-113.09 1247.7,-106.9 1245.72,-113.62"/>
</g>
<!-- Sig(bias)&#45;&gt;Layout(layout) -->
<g id="edge27" class="edge">
<title>Sig(bias)&#45;&gt;Layout(layout)</title>
<path fill="none" stroke="black" d="M1153.6,-26.45C1168.87,-30.81 1186.49,-36.93 1201.31,-45 1229.07,-60.13 1256.54,-83.54 1275.42,-101.31"/>
<polygon fill="black" stroke="black" points="1273.32,-104.15 1282.96,-108.54 1278.16,-99.09 1273.32,-104.15"/>
</g>
<!-- Sig(return[0])&#45;&gt;Layout(layout) -->
<g id="edge29" class="edge">
<title>Sig(return[0])&#45;&gt;Layout(layout)</title>
<path fill="none" stroke="black" d="M1176.03,-126C1192.19,-126 1209.92,-126 1226.79,-126"/>
<polygon fill="black" stroke="black" points="1227.16,-129.5 1237.16,-126 1227.16,-122.5 1227.16,-129.5"/>
</g>
<!-- ArgRanks -->
<g id="node13" class="node">
<title>ArgRanks</title>
<ellipse fill="none" stroke="black" cx="751.7" cy="-120" rx="46.29" ry="18"/>
<text text-anchor="middle" x="751.7" y="-116.3" font-family="Times,serif" font-size="14.00">ArgRanks</text>
</g>
<!-- ArgRanks&#45;&gt;IndexRanks -->
<g id="edge11" class="edge">
<title>ArgRanks&#45;&gt;IndexRanks</title>
<path fill="none" stroke="black" d="M792.79,-128.31C812.07,-133.38 835,-141.03 853.74,-152 879.31,-166.97 903.52,-190.61 919.99,-208.67"/>
<polygon fill="black" stroke="black" points="917.72,-211.39 926.99,-216.53 922.95,-206.73 917.72,-211.39"/>
</g>
<!-- ArgRanks&#45;&gt;SigMap -->
<g id="edge12" class="edge">
<title>ArgRanks&#45;&gt;SigMap</title>
<path fill="none" stroke="black" d="M791.33,-110.58C822.18,-103.06 865.39,-92.53 897.52,-84.69"/>
<polygon fill="black" stroke="black" points="898.65,-88.02 907.54,-82.25 896.99,-81.22 898.65,-88.02"/>
</g>
<!-- ArgIndels -->
<g id="node14" class="node">
<title>ArgIndels</title>
<ellipse fill="none" stroke="black" cx="534.36" cy="-120" rx="46.29" ry="18"/>
<text text-anchor="middle" x="534.36" y="-116.3" font-family="Times,serif" font-size="14.00">ArgIndels</text>
</g>
<!-- ArgIndels&#45;&gt;ArgRanks -->
<g id="edge13" class="edge">
<title>ArgIndels&#45;&gt;ArgRanks</title>
<path fill="none" stroke="black" d="M580.77,-120C614.12,-120 659.62,-120 695.15,-120"/>
<polygon fill="black" stroke="black" points="695.35,-123.5 705.35,-120 695.35,-116.5 695.35,-123.5"/>
</g>
<!-- ArgMutations -->
<g id="node15" class="node">
<title>ArgMutations</title>
<ellipse fill="none" stroke="black" cx="350.18" cy="-166" rx="60.39" ry="18"/>
<text text-anchor="middle" x="350.18" y="-162.3" font-family="Times,serif" font-size="14.00">ArgMutations</text>
</g>
<!-- ArgMutations&#45;&gt;IndexRanks -->
<g id="edge15" class="edge">
<title>ArgMutations&#45;&gt;IndexRanks</title>
<path fill="none" stroke="black" d="M410.66,-165.57C505.44,-165.99 696.09,-171.32 853.74,-204 868.44,-207.05 884.07,-211.86 898,-216.75"/>
<polygon fill="black" stroke="black" points="897.21,-220.18 907.81,-220.29 899.59,-213.6 897.21,-220.18"/>
</g>
<!-- ArgMutations&#45;&gt;SigMap -->
<g id="edge16" class="edge">
<title>ArgMutations&#45;&gt;SigMap</title>
<path fill="none" stroke="black" d="M368.87,-148.65C388.22,-130.95 421.03,-104.5 455.07,-93 609.26,-40.91 806.75,-56.45 895.07,-67.34"/>
<polygon fill="black" stroke="black" points="894.68,-70.82 905.04,-68.61 895.56,-63.87 894.68,-70.82"/>
</g>
<!-- ArgMutations&#45;&gt;ArgIndels -->
<g id="edge14" class="edge">
<title>ArgMutations&#45;&gt;ArgIndels</title>
<path fill="none" stroke="black" d="M397.15,-154.39C424.09,-147.59 458.08,-139.01 485.37,-132.12"/>
<polygon fill="black" stroke="black" points="486.25,-135.5 495.09,-129.66 484.54,-128.72 486.25,-135.5"/>
</g>
<!-- Args -->
<g id="node16" class="node">
<title>Args</title>
<ellipse fill="none" stroke="black" cx="27.95" cy="-258" rx="27.9" ry="18"/>
<text text-anchor="middle" x="27.95" y="-254.3" font-family="Times,serif" font-size="14.00">Args</text>
</g>
<!-- DataFormat(data_format) -->
<g id="node17" class="node">
<title>DataFormat(data_format)</title>
<ellipse fill="none" stroke="red" cx="751.7" cy="-380" rx="102.08" ry="18"/>
<text text-anchor="middle" x="751.7" y="-376.3" font-family="Times,serif" font-size="14.00">DataFormat(data_format)</text>
</g>
<!-- Args&#45;&gt;DataFormat(data_format) -->
<g id="edge17" class="edge">
<title>Args&#45;&gt;DataFormat(data_format)</title>
<path fill="none" stroke="purple" d="M50.62,-268.79C62.55,-274.34 77.76,-280.81 91.9,-285 281.38,-341.23 511.76,-364.73 643.79,-374.14"/>
<polygon fill="purple" stroke="purple" points="643.69,-377.64 653.91,-374.84 644.18,-370.65 643.69,-377.64"/>
</g>
<!-- DataTensor(value) -->
<g id="node18" class="node">
<title>DataTensor(value)</title>
<ellipse fill="none" stroke="red" cx="168.59" cy="-258" rx="76.89" ry="18"/>
<text text-anchor="middle" x="168.59" y="-254.3" font-family="Times,serif" font-size="14.00">DataTensor(value)</text>
</g>
<!-- Args&#45;&gt;DataTensor(value) -->
<g id="edge18" class="edge">
<title>Args&#45;&gt;DataTensor(value)</title>
<path fill="none" stroke="purple" d="M56.01,-258C63.65,-258 72.39,-258 81.55,-258"/>
<polygon fill="purple" stroke="purple" points="81.62,-261.5 91.62,-258 81.62,-254.5 81.62,-261.5"/>
</g>
<!-- DataTensor(bias) -->
<g id="node19" class="node">
<title>DataTensor(bias)</title>
<ellipse fill="none" stroke="red" cx="168.59" cy="-204" rx="71.49" ry="18"/>
<text text-anchor="middle" x="168.59" y="-200.3" font-family="Times,serif" font-size="14.00">DataTensor(bias)</text>
</g>
<!-- Args&#45;&gt;DataTensor(bias) -->
<g id="edge19" class="edge">
<title>Args&#45;&gt;DataTensor(bias)</title>
<path fill="none" stroke="purple" d="M51.24,-248.04C63.22,-242.78 78.28,-236.34 91.9,-231 99.56,-227.99 107.71,-224.94 115.72,-222.02"/>
<polygon fill="purple" stroke="purple" points="117.16,-225.22 125.37,-218.53 114.78,-218.63 117.16,-225.22"/>
</g>
<!-- DataFormat(data_format)&#45;&gt;Layout(layout) -->
<g id="edge21" class="edge">
<title>DataFormat(data_format)&#45;&gt;Layout(layout)</title>
<path fill="none" stroke="black" d="M815.09,-394.13C908.29,-411.46 1085.3,-429.4 1201.31,-348 1266.47,-302.28 1289.2,-203.32 1296.64,-154.46"/>
<polygon fill="black" stroke="black" points="1300.15,-154.67 1298.08,-144.28 1293.22,-153.69 1300.15,-154.67"/>
</g>
<!-- DataFormat(data_format)&#45;&gt;IndexRanks -->
<g id="edge20" class="edge">
<title>DataFormat(data_format)&#45;&gt;IndexRanks</title>
<path fill="none" stroke="black" d="M779.43,-362.63C800.12,-348.91 829.29,-328.97 853.74,-310 875.07,-293.44 898.09,-273.38 915.19,-258.03"/>
<polygon fill="black" stroke="black" points="918,-260.21 923.07,-250.91 913.3,-255.02 918,-260.21"/>
</g>
<!-- DataTensor(value)&#45;&gt;DTypesNotImpl -->
<g id="edge23" class="edge">
<title>DataTensor(value)&#45;&gt;DTypesNotImpl</title>
<path fill="none" stroke="black" d="M245.49,-258C253.93,-258 262.54,-258 271,-258"/>
<polygon fill="black" stroke="black" points="271.24,-261.5 281.24,-258 271.24,-254.5 271.24,-261.5"/>
</g>
<!-- DataTensor(value)&#45;&gt;ArgMutations -->
<g id="edge22" class="edge">
<title>DataTensor(value)&#45;&gt;ArgMutations</title>
<path fill="none" stroke="black" d="M215.07,-243.58C225.19,-239.88 235.74,-235.62 245.28,-231 270.47,-218.81 297.2,-201.98 317.24,-188.51"/>
<polygon fill="black" stroke="black" points="319.37,-191.29 325.67,-182.77 315.44,-185.5 319.37,-191.29"/>
</g>
<!-- DataTensor(bias)&#45;&gt;DTypesNotImpl -->
<g id="edge26" class="edge">
<title>DataTensor(bias)&#45;&gt;DTypesNotImpl</title>
<path fill="none" stroke="black" d="M215.37,-217.77C239.5,-225.02 269.26,-233.97 294.58,-241.58"/>
<polygon fill="black" stroke="black" points="293.82,-245.01 304.41,-244.54 295.84,-238.31 293.82,-245.01"/>
</g>
<!-- DataTensor(bias)&#45;&gt;ArgMutations -->
<g id="edge25" class="edge">
<title>DataTensor(bias)&#45;&gt;ArgMutations</title>
<path fill="none" stroke="black" d="M223.96,-192.5C244.99,-188.05 269.11,-182.94 290.53,-178.41"/>
<polygon fill="black" stroke="black" points="291.43,-181.8 300.48,-176.3 289.98,-174.95 291.43,-181.8"/>
</g>
</g>
</svg>
