<?xml version="1.0" encoding="UTF-8" standalone="no"?>
<!DOCTYPE svg PUBLIC "-//W3C//DTD SVG 1.1//EN"
 "http://www.w3.org/Graphics/SVG/1.1/DTD/svg11.dtd">
<!-- Generated by graphviz version 2.43.0 (0)
 -->
<!-- Title: %3 Pages: 1 -->
<svg width="1008pt" height="355pt"
 viewBox="0.00 0.00 1007.72 355.13" xmlns="http://www.w3.org/2000/svg" xmlns:xlink="http://www.w3.org/1999/xlink">
<g id="graph0" class="graph" transform="scale(1 1) rotate(0) translate(4 351.13)">
<title>%3</title>
<polygon fill="white" stroke="transparent" points="-4,4 -4,-351.13 1003.72,-351.13 1003.72,4 -4,4"/>
<!-- DimsInput(_index_ranks) -->
<g id="node1" class="node">
<title>DimsInput(_index_ranks)</title>
<ellipse fill="none" stroke="black" cx="897.68" cy="-175" rx="102.08" ry="18"/>
<text text-anchor="middle" x="897.68" y="-171.3" font-family="Times,serif" font-size="14.00">DimsInput(_index_ranks)</text>
</g>
<!-- GenDims(input_spatial) -->
<g id="node2" class="node">
<title>GenDims(input_spatial)</title>
<ellipse fill="none" stroke="black" cx="658.9" cy="-294" rx="96.38" ry="18"/>
<text text-anchor="middle" x="658.9" y="-290.3" font-family="Times,serif" font-size="14.00">GenDims(input_spatial)</text>
</g>
<!-- GenDims(input_spatial)&#45;&gt;DimsInput(_index_ranks) -->
<g id="edge1" class="edge">
<title>GenDims(input_spatial)&#45;&gt;DimsInput(_index_ranks)</title>
<path fill="none" stroke="black" d="M722.46,-280.43C735.04,-276.78 747.97,-272.32 759.64,-267 799.4,-248.87 840.42,-219.69 867.09,-199.07"/>
<polygon fill="black" stroke="black" points="869.51,-201.62 875.22,-192.69 865.19,-196.1 869.51,-201.62"/>
</g>
<!-- GenDims(block_size) -->
<g id="node3" class="node">
<title>GenDims(block_size)</title>
<ellipse fill="none" stroke="black" cx="658.9" cy="-240" rx="88.28" ry="18"/>
<text text-anchor="middle" x="658.9" y="-236.3" font-family="Times,serif" font-size="14.00">GenDims(block_size)</text>
</g>
<!-- GenDims(block_size)&#45;&gt;DimsInput(_index_ranks) -->
<g id="edge2" class="edge">
<title>GenDims(block_size)&#45;&gt;DimsInput(_index_ranks)</title>
<path fill="none" stroke="black" d="M712.45,-225.57C747.72,-215.89 794.42,-203.07 831.97,-192.76"/>
<polygon fill="black" stroke="black" points="833.09,-196.09 841.81,-190.06 831.24,-189.34 833.09,-196.09"/>
</g>
<!-- CompDims(squared_block_size) -->
<g id="node4" class="node">
<title>CompDims(squared_block_size)</title>
<ellipse fill="none" stroke="black" cx="394.77" cy="-202" rx="127.28" ry="18"/>
<text text-anchor="middle" x="394.77" y="-198.3" font-family="Times,serif" font-size="14.00">CompDims(squared_block_size)</text>
</g>
<!-- CompDims(squared_block_size)&#45;&gt;DimsInput(_index_ranks) -->
<g id="edge3" class="edge">
<title>CompDims(squared_block_size)&#45;&gt;DimsInput(_index_ranks)</title>
<path fill="none" stroke="black" d="M514.16,-195.62C597.66,-191.12 708.59,-185.14 789.48,-180.78"/>
<polygon fill="black" stroke="black" points="789.9,-184.26 799.69,-180.23 789.52,-177.27 789.9,-184.26"/>
</g>
<!-- CompDims(squared_block_size)&#45;&gt;GenDims(block_size) -->
<g id="edge4" class="edge">
<title>CompDims(squared_block_size)&#45;&gt;GenDims(block_size)</title>
<path fill="none" stroke="purple" d="M484.51,-214.87C514.14,-219.16 547,-223.92 576.08,-228.14"/>
<polygon fill="purple" stroke="purple" points="575.8,-231.63 586.19,-229.61 576.8,-224.71 575.8,-231.63"/>
</g>
<!-- GenDims(batch) -->
<g id="node5" class="node">
<title>GenDims(batch)</title>
<ellipse fill="none" stroke="black" cx="658.9" cy="-18" rx="69.59" ry="18"/>
<text text-anchor="middle" x="658.9" y="-14.3" font-family="Times,serif" font-size="14.00">GenDims(batch)</text>
</g>
<!-- GenDims(batch)&#45;&gt;DimsInput(_index_ranks) -->
<g id="edge5" class="edge">
<title>GenDims(batch)&#45;&gt;DimsInput(_index_ranks)</title>
<path fill="none" stroke="black" d="M711.4,-29.93C727.47,-34.84 744.85,-41.43 759.64,-50 805.8,-76.73 849.6,-121.21 874.77,-149.27"/>
<polygon fill="black" stroke="black" points="872.42,-151.89 881.66,-157.07 877.66,-147.26 872.42,-151.89"/>
</g>
<!-- GenDims(input_channel) -->
<g id="node6" class="node">
<title>GenDims(input_channel)</title>
<ellipse fill="none" stroke="black" cx="658.9" cy="-110" rx="100.98" ry="18"/>
<text text-anchor="middle" x="658.9" y="-106.3" font-family="Times,serif" font-size="14.00">GenDims(input_channel)</text>
</g>
<!-- GenDims(input_channel)&#45;&gt;DimsInput(_index_ranks) -->
<g id="edge6" class="edge">
<title>GenDims(input_channel)&#45;&gt;DimsInput(_index_ranks)</title>
<path fill="none" stroke="black" d="M714.82,-125.08C749.66,-134.64 794.91,-147.06 831.56,-157.12"/>
<polygon fill="black" stroke="black" points="831.08,-160.62 841.65,-159.89 832.93,-153.87 831.08,-160.62"/>
</g>
<!-- GenDims(vect_c_channel) -->
<g id="node7" class="node">
<title>GenDims(vect_c_channel)</title>
<ellipse fill="none" stroke="black" cx="394.77" cy="-66" rx="105.08" ry="18"/>
<text text-anchor="middle" x="394.77" y="-62.3" font-family="Times,serif" font-size="14.00">GenDims(vect_c_channel)</text>
</g>
<!-- GenDims(vect_c_channel)&#45;&gt;DimsInput(_index_ranks) -->
<g id="edge7" class="edge">
<title>GenDims(vect_c_channel)&#45;&gt;DimsInput(_index_ranks)</title>
<path fill="none" stroke="black" d="M486.06,-56.96C561.21,-52.54 670.01,-53.4 759.64,-83 802.12,-97.03 843.75,-128.16 869.77,-150.31"/>
<polygon fill="black" stroke="black" points="867.8,-153.25 877.65,-157.16 872.4,-147.96 867.8,-153.25"/>
</g>
<!-- CompDims(output_spatial) -->
<g id="node8" class="node">
<title>CompDims(output_spatial)</title>
<ellipse fill="none" stroke="black" cx="394.77" cy="-310" rx="107.78" ry="18"/>
<text text-anchor="middle" x="394.77" y="-306.3" font-family="Times,serif" font-size="14.00">CompDims(output_spatial)</text>
</g>
<!-- CompDims(output_spatial)&#45;&gt;DimsInput(_index_ranks) -->
<g id="edge8" class="edge">
<title>CompDims(output_spatial)&#45;&gt;DimsInput(_index_ranks)</title>
<path fill="none" stroke="black" d="M450.26,-325.5C523.85,-343.42 657.56,-365.19 759.64,-321 815.72,-296.72 859.4,-236.94 881.27,-201.87"/>
<polygon fill="black" stroke="black" points="884.39,-203.46 886.6,-193.1 878.41,-199.82 884.39,-203.46"/>
</g>
<!-- CompDims(output_spatial)&#45;&gt;GenDims(input_spatial) -->
<g id="edge10" class="edge">
<title>CompDims(output_spatial)&#45;&gt;GenDims(input_spatial)</title>
<path fill="none" stroke="purple" d="M496.36,-303.86C516.25,-302.65 537.13,-301.37 557.02,-300.16"/>
<polygon fill="purple" stroke="purple" points="557.24,-303.65 567.01,-299.55 556.82,-296.66 557.24,-303.65"/>
</g>
<!-- CompDims(output_spatial)&#45;&gt;GenDims(block_size) -->
<g id="edge9" class="edge">
<title>CompDims(output_spatial)&#45;&gt;GenDims(block_size)</title>
<path fill="none" stroke="purple" d="M469.63,-296.91C487.04,-293.09 505.41,-288.45 522.16,-283 538.81,-277.59 541.66,-272.86 558.16,-267 568.81,-263.22 580.27,-259.66 591.48,-256.44"/>
<polygon fill="purple" stroke="purple" points="592.56,-259.78 601.25,-253.71 590.68,-253.03 592.56,-259.78"/>
</g>
<!-- DimsInput(_layout) -->
<g id="node9" class="node">
<title>DimsInput(_layout)</title>
<ellipse fill="none" stroke="black" cx="394.77" cy="-256" rx="81.49" ry="18"/>
<text text-anchor="middle" x="394.77" y="-252.3" font-family="Times,serif" font-size="14.00">DimsInput(_layout)</text>
</g>
<!-- CompDims(output_flattened) -->
<g id="node10" class="node">
<title>CompDims(output_flattened)</title>
<ellipse fill="none" stroke="black" cx="115.69" cy="-156" rx="115.88" ry="18"/>
<text text-anchor="middle" x="115.69" y="-152.3" font-family="Times,serif" font-size="14.00">CompDims(output_flattened)</text>
</g>
<!-- CompDims(output_flattened)&#45;&gt;DimsInput(_index_ranks) -->
<g id="edge11" class="edge">
<title>CompDims(output_flattened)&#45;&gt;DimsInput(_index_ranks)</title>
<path fill="none" stroke="black" d="M230.11,-158.76C378.96,-162.39 638.56,-168.71 786.02,-172.3"/>
<polygon fill="black" stroke="black" points="786.36,-175.81 796.44,-172.56 786.53,-168.82 786.36,-175.81"/>
</g>
<!-- CompDims(output_flattened)&#45;&gt;CompDims(squared_block_size) -->
<g id="edge13" class="edge">
<title>CompDims(output_flattened)&#45;&gt;CompDims(squared_block_size)</title>
<path fill="none" stroke="purple" d="M195.35,-169.06C228.4,-174.55 267.09,-180.97 301.48,-186.68"/>
<polygon fill="purple" stroke="purple" points="301.09,-190.16 311.53,-188.35 302.24,-183.26 301.09,-190.16"/>
</g>
<!-- CompDims(output_flattened)&#45;&gt;GenDims(input_channel) -->
<g id="edge14" class="edge">
<title>CompDims(output_flattened)&#45;&gt;GenDims(input_channel)</title>
<path fill="none" stroke="purple" d="M215.16,-146.7C232.56,-145.1 250.5,-143.48 267.38,-142 365.31,-133.44 477.12,-124.35 555.93,-118.05"/>
<polygon fill="purple" stroke="purple" points="556.65,-121.5 566.34,-117.22 556.1,-114.53 556.65,-121.5"/>
</g>
<!-- CompDims(output_flattened)&#45;&gt;GenDims(vect_c_channel) -->
<g id="edge12" class="edge">
<title>CompDims(output_flattened)&#45;&gt;GenDims(vect_c_channel)</title>
<path fill="none" stroke="purple" d="M160.6,-139.39C190.52,-128.29 231.13,-113.64 267.38,-102 286.89,-95.73 308.27,-89.43 327.81,-83.89"/>
<polygon fill="purple" stroke="purple" points="328.85,-87.23 337.53,-81.15 326.96,-80.49 328.85,-87.23"/>
</g>
<!-- CompDims(output_flattened)&#45;&gt;DimsInput(_layout) -->
<g id="edge15" class="edge">
<title>CompDims(output_flattened)&#45;&gt;DimsInput(_layout)</title>
<path fill="none" stroke="blue" d="M146.93,-173.34C176.72,-189.77 223.94,-214.08 267.38,-229 283.79,-234.64 301.82,-239.33 318.99,-243.14"/>
<polygon fill="blue" stroke="blue" points="318.47,-246.61 328.98,-245.28 319.93,-239.76 318.47,-246.61"/>
</g>
</g>
</svg>
