<?xml version="1.0" encoding="UTF-8" standalone="no"?>
<!DOCTYPE svg PUBLIC "-//W3C//DTD SVG 1.1//EN"
 "http://www.w3.org/Graphics/SVG/1.1/DTD/svg11.dtd">
<!-- Generated by graphviz version 2.43.0 (0)
 -->
<!-- Title: %3 Pages: 1 -->
<svg width="1507pt" height="698pt"
 viewBox="0.00 0.00 1506.59 698.00" xmlns="http://www.w3.org/2000/svg" xmlns:xlink="http://www.w3.org/1999/xlink">
<g id="graph0" class="graph" transform="scale(1 1) rotate(0) translate(4 694)">
<title>%3</title>
<polygon fill="white" stroke="transparent" points="-4,4 -4,-694 1502.59,-694 1502.59,4 -4,4"/>
<!-- Layout(layout) -->
<g id="node1" class="node">
<title>Layout(layout)</title>
<ellipse fill="none" stroke="black" cx="1395.9" cy="-537" rx="63.89" ry="18"/>
<text text-anchor="middle" x="1395.9" y="-533.3" font-family="Times,serif" font-size="14.00">Layout(layout)</text>
</g>
<!-- IndexRanks -->
<g id="node2" class="node">
<title>IndexRanks</title>
<ellipse fill="none" stroke="black" cx="911.19" cy="-299" rx="52.79" ry="18"/>
<text text-anchor="middle" x="911.19" y="-295.3" font-family="Times,serif" font-size="14.00">IndexRanks</text>
</g>
<!-- RankRange(batch) -->
<g id="node3" class="node">
<title>RankRange(batch)</title>
<ellipse fill="none" stroke="black" cx="1128.52" cy="-326" rx="76.89" ry="18"/>
<text text-anchor="middle" x="1128.52" y="-322.3" font-family="Times,serif" font-size="14.00">RankRange(batch)</text>
</g>
<!-- IndexRanks&#45;&gt;RankRange(batch) -->
<g id="edge1" class="edge">
<title>IndexRanks&#45;&gt;RankRange(batch)</title>
<path fill="none" stroke="purple" d="M960.78,-305.09C987.19,-308.4 1020.47,-312.58 1050.34,-316.32"/>
<polygon fill="purple" stroke="purple" points="1049.97,-319.8 1060.33,-317.58 1050.84,-312.86 1049.97,-319.8"/>
</g>
<!-- RankRange(input_spatial) -->
<g id="node4" class="node">
<title>RankRange(input_spatial)</title>
<ellipse fill="none" stroke="black" cx="1395.9" cy="-149" rx="102.88" ry="18"/>
<text text-anchor="middle" x="1395.9" y="-145.3" font-family="Times,serif" font-size="14.00">RankRange(input_spatial)</text>
</g>
<!-- IndexRanks&#45;&gt;RankRange(input_spatial) -->
<g id="edge2" class="edge">
<title>IndexRanks&#45;&gt;RankRange(input_spatial)</title>
<path fill="none" stroke="purple" d="M933.24,-282.61C950.25,-270.24 975.31,-253.93 999.83,-245 1108.47,-205.42 1145.85,-238.14 1257.21,-207 1290.06,-197.82 1325.49,-182.76 1352.18,-170.3"/>
<polygon fill="purple" stroke="purple" points="1353.7,-173.45 1361.24,-166.01 1350.71,-167.12 1353.7,-173.45"/>
</g>
<!-- RankRange(input_channel) -->
<g id="node5" class="node">
<title>RankRange(input_channel)</title>
<ellipse fill="none" stroke="black" cx="1128.52" cy="-180" rx="107.48" ry="18"/>
<text text-anchor="middle" x="1128.52" y="-176.3" font-family="Times,serif" font-size="14.00">RankRange(input_channel)</text>
</g>
<!-- IndexRanks&#45;&gt;RankRange(input_channel) -->
<g id="edge3" class="edge">
<title>IndexRanks&#45;&gt;RankRange(input_channel)</title>
<path fill="none" stroke="purple" d="M925.01,-281.5C940.52,-261.63 968.46,-229.7 999.83,-212 1012.28,-204.97 1026.28,-199.47 1040.31,-195.17"/>
<polygon fill="purple" stroke="purple" points="1041.37,-198.5 1050.02,-192.37 1039.44,-191.78 1041.37,-198.5"/>
</g>
<!-- RankEquiv(filter_spatial) -->
<g id="node6" class="node">
<title>RankEquiv(filter_spatial)</title>
<ellipse fill="none" stroke="black" cx="1128.52" cy="-72" rx="100.98" ry="18"/>
<text text-anchor="middle" x="1128.52" y="-68.3" font-family="Times,serif" font-size="14.00">RankEquiv(filter_spatial)</text>
</g>
<!-- IndexRanks&#45;&gt;RankEquiv(filter_spatial) -->
<g id="edge4" class="edge">
<title>IndexRanks&#45;&gt;RankEquiv(filter_spatial)</title>
<path fill="none" stroke="purple" d="M914.58,-280.75C920.81,-241.06 941.32,-146.62 999.83,-99 1008.17,-92.21 1017.81,-87.01 1027.98,-83.05"/>
<polygon fill="purple" stroke="purple" points="1029.16,-86.34 1037.44,-79.74 1026.85,-79.73 1029.16,-86.34"/>
</g>
<!-- RankEquiv(dilated_filter_spatial) -->
<g id="node7" class="node">
<title>RankEquiv(dilated_filter_spatial)</title>
<ellipse fill="none" stroke="black" cx="1128.52" cy="-18" rx="128.88" ry="18"/>
<text text-anchor="middle" x="1128.52" y="-14.3" font-family="Times,serif" font-size="14.00">RankEquiv(dilated_filter_spatial)</text>
</g>
<!-- IndexRanks&#45;&gt;RankEquiv(dilated_filter_spatial) -->
<g id="edge5" class="edge">
<title>IndexRanks&#45;&gt;RankEquiv(dilated_filter_spatial)</title>
<path fill="none" stroke="purple" d="M912.67,-281C914.94,-234.32 927.8,-108.61 999.83,-45 1004.97,-40.47 1010.67,-36.62 1016.73,-33.38"/>
<polygon fill="purple" stroke="purple" points="1018.33,-36.49 1025.85,-29.03 1015.32,-30.17 1018.33,-36.49"/>
</g>
<!-- RankRange(output_channel) -->
<g id="node8" class="node">
<title>RankRange(output_channel)</title>
<ellipse fill="none" stroke="black" cx="1128.52" cy="-126" rx="111.58" ry="18"/>
<text text-anchor="middle" x="1128.52" y="-122.3" font-family="Times,serif" font-size="14.00">RankRange(output_channel)</text>
</g>
<!-- IndexRanks&#45;&gt;RankRange(output_channel) -->
<g id="edge6" class="edge">
<title>IndexRanks&#45;&gt;RankRange(output_channel)</title>
<path fill="none" stroke="purple" d="M917.7,-280.9C928.24,-249.55 954.33,-185.43 999.83,-153 1007.64,-147.44 1016.35,-142.97 1025.46,-139.4"/>
<polygon fill="purple" stroke="purple" points="1026.81,-142.63 1035.07,-135.99 1024.47,-136.04 1026.81,-142.63"/>
</g>
<!-- RankEquiv(output_spatial) -->
<g id="node9" class="node">
<title>RankEquiv(output_spatial)</title>
<ellipse fill="none" stroke="black" cx="1128.52" cy="-272" rx="105.88" ry="18"/>
<text text-anchor="middle" x="1128.52" y="-268.3" font-family="Times,serif" font-size="14.00">RankEquiv(output_spatial)</text>
</g>
<!-- IndexRanks&#45;&gt;RankEquiv(output_spatial) -->
<g id="edge7" class="edge">
<title>IndexRanks&#45;&gt;RankEquiv(output_spatial)</title>
<path fill="none" stroke="purple" d="M960.78,-292.91C982.04,-290.24 1007.75,-287.02 1032.55,-283.91"/>
<polygon fill="purple" stroke="purple" points="1033.24,-287.35 1042.73,-282.63 1032.37,-280.4 1033.24,-287.35"/>
</g>
<!-- RankRange(rate) -->
<g id="node10" class="node">
<title>RankRange(rate)</title>
<ellipse fill="none" stroke="black" cx="1128.52" cy="-380" rx="70.69" ry="18"/>
<text text-anchor="middle" x="1128.52" y="-376.3" font-family="Times,serif" font-size="14.00">RankRange(rate)</text>
</g>
<!-- IndexRanks&#45;&gt;RankRange(rate) -->
<g id="edge8" class="edge">
<title>IndexRanks&#45;&gt;RankRange(rate)</title>
<path fill="none" stroke="purple" d="M934.11,-315.48C951.19,-327.56 975.93,-343.45 999.83,-353 1017.58,-360.09 1037.49,-365.44 1056.21,-369.43"/>
<polygon fill="purple" stroke="purple" points="1055.68,-372.89 1066.18,-371.45 1057.07,-366.03 1055.68,-372.89"/>
</g>
<!-- RankEquiv(filter_spatial)&#45;&gt;RankRange(input_spatial) -->
<g id="edge28" class="edge">
<title>RankEquiv(filter_spatial)&#45;&gt;RankRange(input_spatial)</title>
<path fill="none" stroke="black" d="M1199.2,-84.89C1218.15,-88.9 1238.58,-93.68 1257.21,-99 1286.59,-107.4 1318.72,-118.92 1344.55,-128.8"/>
<polygon fill="black" stroke="black" points="1343.53,-132.15 1354.12,-132.49 1346.05,-125.62 1343.53,-132.15"/>
</g>
<!-- RankEquiv(dilated_filter_spatial)&#45;&gt;RankRange(input_spatial) -->
<g id="edge29" class="edge">
<title>RankEquiv(dilated_filter_spatial)&#45;&gt;RankRange(input_spatial)</title>
<path fill="none" stroke="black" d="M1217.02,-31.15C1230.8,-34.73 1244.63,-39.27 1257.21,-45 1300.69,-64.82 1343.44,-100.31 1369.49,-124.26"/>
<polygon fill="black" stroke="black" points="1367.32,-127.02 1377.02,-131.29 1372.1,-121.9 1367.32,-127.02"/>
</g>
<!-- RankEquiv(output_spatial)&#45;&gt;RankRange(input_spatial) -->
<g id="edge30" class="edge">
<title>RankEquiv(output_spatial)&#45;&gt;RankRange(input_spatial)</title>
<path fill="none" stroke="black" d="M1200.53,-258.72C1219.38,-253.99 1239.43,-247.83 1257.21,-240 1297.2,-222.39 1338.4,-193.47 1365.19,-172.96"/>
<polygon fill="black" stroke="black" points="1367.6,-175.52 1373.36,-166.62 1363.31,-169.99 1367.6,-175.52"/>
</g>
<!-- DTypesNotImpl -->
<g id="node11" class="node">
<title>DTypesNotImpl</title>
<ellipse fill="none" stroke="black" cx="352.78" cy="-380" rx="68.79" ry="18"/>
<text text-anchor="middle" x="352.78" y="-376.3" font-family="Times,serif" font-size="14.00">DTypesNotImpl</text>
</g>
<!-- DTypesNotImpl&#45;&gt;Layout(layout) -->
<g id="edge10" class="edge">
<title>DTypesNotImpl&#45;&gt;Layout(layout)</title>
<path fill="none" stroke="black" d="M393.77,-394.54C463.62,-418.58 612.79,-464 742.9,-464 742.9,-464 742.9,-464 912.19,-464 1065.76,-464 1107.15,-450.33 1257.21,-483 1291.1,-490.38 1327.56,-505 1354.44,-517.18"/>
<polygon fill="black" stroke="black" points="1352.98,-520.36 1363.53,-521.36 1355.91,-514 1352.98,-520.36"/>
</g>
<!-- DTypesNotImpl&#45;&gt;IndexRanks -->
<g id="edge9" class="edge">
<title>DTypesNotImpl&#45;&gt;IndexRanks</title>
<path fill="none" stroke="black" d="M405.14,-368.28C421.84,-364.7 440.49,-360.93 457.67,-358 597.63,-334.1 763.4,-314.75 850.25,-305.29"/>
<polygon fill="black" stroke="black" points="850.88,-308.74 860.44,-304.18 850.12,-301.78 850.88,-308.74"/>
</g>
<!-- DTypeIndiv(value) -->
<g id="node12" class="node">
<title>DTypeIndiv(value)</title>
<ellipse fill="none" stroke="black" cx="743.9" cy="-269" rx="78.79" ry="18"/>
<text text-anchor="middle" x="743.9" y="-265.3" font-family="Times,serif" font-size="14.00">DTypeIndiv(value)</text>
</g>
<!-- DTypesNotImpl&#45;&gt;DTypeIndiv(value) -->
<g id="edge11" class="edge">
<title>DTypesNotImpl&#45;&gt;DTypeIndiv(value)</title>
<path fill="none" stroke="purple" d="M377.37,-363.17C397.7,-349.48 428.32,-330.72 457.67,-320 523.19,-296.06 601.42,-283.09 659.37,-276.23"/>
<polygon fill="purple" stroke="purple" points="660.04,-279.68 669.58,-275.06 659.24,-272.72 660.04,-279.68"/>
</g>
<!-- DTypeEquate(filters) -->
<g id="node13" class="node">
<title>DTypeEquate(filters)</title>
<ellipse fill="none" stroke="black" cx="543.46" cy="-250" rx="85.59" ry="18"/>
<text text-anchor="middle" x="543.46" y="-246.3" font-family="Times,serif" font-size="14.00">DTypeEquate(filters)</text>
</g>
<!-- DTypesNotImpl&#45;&gt;DTypeEquate(filters) -->
<g id="edge12" class="edge">
<title>DTypesNotImpl&#45;&gt;DTypeEquate(filters)</title>
<path fill="none" stroke="purple" d="M368.64,-362.19C387.44,-340.65 421.71,-304.47 457.67,-282 465.79,-276.93 474.84,-272.45 483.92,-268.59"/>
<polygon fill="purple" stroke="purple" points="485.4,-271.77 493.36,-264.78 482.78,-265.28 485.4,-271.77"/>
</g>
<!-- DTypeEquate(filters)&#45;&gt;DTypeIndiv(value) -->
<g id="edge39" class="edge">
<title>DTypeEquate(filters)&#45;&gt;DTypeIndiv(value)</title>
<path fill="none" stroke="black" d="M621.75,-257.4C634.54,-258.63 647.85,-259.9 660.76,-261.14"/>
<polygon fill="black" stroke="black" points="660.72,-264.65 671.01,-262.12 661.39,-257.68 660.72,-264.65"/>
</g>
<!-- SigMap -->
<g id="node14" class="node">
<title>SigMap</title>
<ellipse fill="none" stroke="black" cx="911.19" cy="-560" rx="38.99" ry="18"/>
<text text-anchor="middle" x="911.19" y="-556.3" font-family="Times,serif" font-size="14.00">SigMap</text>
</g>
<!-- Sig(value) -->
<g id="node15" class="node">
<title>Sig(value)</title>
<ellipse fill="none" stroke="black" cx="1128.52" cy="-564" rx="47.39" ry="18"/>
<text text-anchor="middle" x="1128.52" y="-560.3" font-family="Times,serif" font-size="14.00">Sig(value)</text>
</g>
<!-- SigMap&#45;&gt;Sig(value) -->
<g id="edge13" class="edge">
<title>SigMap&#45;&gt;Sig(value)</title>
<path fill="none" stroke="purple" d="M950.19,-560.71C983.52,-561.33 1032.45,-562.23 1070.48,-562.94"/>
<polygon fill="purple" stroke="purple" points="1070.83,-566.45 1080.9,-563.13 1070.96,-559.45 1070.83,-566.45"/>
</g>
<!-- Sig(filters) -->
<g id="node16" class="node">
<title>Sig(filters)</title>
<ellipse fill="none" stroke="black" cx="1128.52" cy="-510" rx="48.99" ry="18"/>
<text text-anchor="middle" x="1128.52" y="-506.3" font-family="Times,serif" font-size="14.00">Sig(filters)</text>
</g>
<!-- SigMap&#45;&gt;Sig(filters) -->
<g id="edge14" class="edge">
<title>SigMap&#45;&gt;Sig(filters)</title>
<path fill="none" stroke="purple" d="M944.97,-551C961.39,-546.59 981.61,-541.31 999.83,-537 1024.51,-531.16 1052.02,-525.26 1075.17,-520.48"/>
<polygon fill="purple" stroke="purple" points="1076.04,-523.87 1085.13,-518.43 1074.63,-517.01 1076.04,-523.87"/>
</g>
<!-- Sig(rate) -->
<g id="node17" class="node">
<title>Sig(rate)</title>
<ellipse fill="none" stroke="black" cx="1128.52" cy="-672" rx="41.69" ry="18"/>
<text text-anchor="middle" x="1128.52" y="-668.3" font-family="Times,serif" font-size="14.00">Sig(rate)</text>
</g>
<!-- SigMap&#45;&gt;Sig(rate) -->
<g id="edge15" class="edge">
<title>SigMap&#45;&gt;Sig(rate)</title>
<path fill="none" stroke="purple" d="M924.72,-576.95C940.14,-596.51 968.21,-628.17 999.83,-645 1023.54,-657.62 1052.68,-664.35 1077.13,-667.93"/>
<polygon fill="purple" stroke="purple" points="1076.92,-671.43 1087.29,-669.28 1077.84,-664.49 1076.92,-671.43"/>
</g>
<!-- Sig(return[0]) -->
<g id="node18" class="node">
<title>Sig(return[0])</title>
<ellipse fill="none" stroke="black" cx="1128.52" cy="-618" rx="59.59" ry="18"/>
<text text-anchor="middle" x="1128.52" y="-614.3" font-family="Times,serif" font-size="14.00">Sig(return[0])</text>
</g>
<!-- SigMap&#45;&gt;Sig(return[0]) -->
<g id="edge16" class="edge">
<title>SigMap&#45;&gt;Sig(return[0])</title>
<path fill="none" stroke="purple" d="M941.49,-571.45C958.37,-577.78 980.1,-585.45 999.83,-591 1021.48,-597.09 1045.55,-602.52 1066.89,-606.88"/>
<polygon fill="purple" stroke="purple" points="1066.32,-610.33 1076.81,-608.87 1067.69,-603.47 1066.32,-610.33"/>
</g>
<!-- Sig(value)&#45;&gt;Layout(layout) -->
<g id="edge33" class="edge">
<title>Sig(value)&#45;&gt;Layout(layout)</title>
<path fill="none" stroke="black" d="M1174.54,-559.42C1215.95,-555.21 1278,-548.89 1325.71,-544.04"/>
<polygon fill="black" stroke="black" points="1326.07,-547.52 1335.66,-543.03 1325.36,-540.56 1326.07,-547.52"/>
</g>
<!-- Sig(filters)&#45;&gt;Layout(layout) -->
<g id="edge36" class="edge">
<title>Sig(filters)&#45;&gt;Layout(layout)</title>
<path fill="none" stroke="black" d="M1175.74,-514.7C1217.11,-518.91 1278.34,-525.14 1325.57,-529.95"/>
<polygon fill="black" stroke="black" points="1325.42,-533.45 1335.72,-530.98 1326.13,-526.49 1325.42,-533.45"/>
</g>
<!-- Sig(rate)&#45;&gt;Layout(layout) -->
<g id="edge38" class="edge">
<title>Sig(rate)&#45;&gt;Layout(layout)</title>
<path fill="none" stroke="black" d="M1169.27,-668.32C1195.25,-664.79 1229.39,-657.99 1257.21,-645 1301.62,-624.27 1344.73,-586.78 1370.55,-561.89"/>
<polygon fill="black" stroke="black" points="1373.29,-564.1 1377.99,-554.6 1368.4,-559.1 1373.29,-564.1"/>
</g>
<!-- Sig(return[0])&#45;&gt;Layout(layout) -->
<g id="edge40" class="edge">
<title>Sig(return[0])&#45;&gt;Layout(layout)</title>
<path fill="none" stroke="black" d="M1180.96,-609.14C1204.44,-604.58 1232.46,-598.41 1257.21,-591 1289.41,-581.35 1324.69,-567.45 1351.47,-556.17"/>
<polygon fill="black" stroke="black" points="1353.1,-559.28 1360.93,-552.14 1350.36,-552.84 1353.1,-559.28"/>
</g>
<!-- ArgRanks -->
<g id="node19" class="node">
<title>ArgRanks</title>
<ellipse fill="none" stroke="black" cx="743.9" cy="-510" rx="46.29" ry="18"/>
<text text-anchor="middle" x="743.9" y="-506.3" font-family="Times,serif" font-size="14.00">ArgRanks</text>
</g>
<!-- ArgRanks&#45;&gt;IndexRanks -->
<g id="edge17" class="edge">
<title>ArgRanks&#45;&gt;IndexRanks</title>
<path fill="none" stroke="black" d="M767.38,-494.36C783.89,-482.15 806.21,-464.11 822.54,-445 854.6,-407.48 882.12,-356.81 897.38,-326.1"/>
<polygon fill="black" stroke="black" points="900.65,-327.39 901.9,-316.87 894.36,-324.31 900.65,-327.39"/>
</g>
<!-- ArgRanks&#45;&gt;SigMap -->
<g id="edge18" class="edge">
<title>ArgRanks&#45;&gt;SigMap</title>
<path fill="none" stroke="black" d="M780.76,-520.85C806.55,-528.65 841.41,-539.19 868.45,-547.37"/>
<polygon fill="black" stroke="black" points="867.44,-550.73 878.03,-550.27 869.47,-544.03 867.44,-550.73"/>
</g>
<!-- ArgIndels -->
<g id="node20" class="node">
<title>ArgIndels</title>
<ellipse fill="none" stroke="black" cx="543.46" cy="-510" rx="46.29" ry="18"/>
<text text-anchor="middle" x="543.46" y="-506.3" font-family="Times,serif" font-size="14.00">ArgIndels</text>
</g>
<!-- ArgIndels&#45;&gt;ArgRanks -->
<g id="edge19" class="edge">
<title>ArgIndels&#45;&gt;ArgRanks</title>
<path fill="none" stroke="black" d="M589.99,-510C618.98,-510 656.72,-510 687.45,-510"/>
<polygon fill="black" stroke="black" points="687.58,-513.5 697.58,-510 687.58,-506.5 687.58,-513.5"/>
</g>
<!-- ArgMutations -->
<g id="node21" class="node">
<title>ArgMutations</title>
<ellipse fill="none" stroke="black" cx="352.78" cy="-510" rx="60.39" ry="18"/>
<text text-anchor="middle" x="352.78" y="-506.3" font-family="Times,serif" font-size="14.00">ArgMutations</text>
</g>
<!-- ArgMutations&#45;&gt;IndexRanks -->
<g id="edge21" class="edge">
<title>ArgMutations&#45;&gt;IndexRanks</title>
<path fill="none" stroke="black" d="M390.67,-495.83C448.95,-473.46 565.92,-428.63 665.25,-391 735.14,-364.52 816.37,-334.08 865.49,-315.7"/>
<polygon fill="black" stroke="black" points="866.73,-318.97 874.87,-312.19 864.28,-312.42 866.73,-318.97"/>
</g>
<!-- ArgMutations&#45;&gt;SigMap -->
<g id="edge22" class="edge">
<title>ArgMutations&#45;&gt;SigMap</title>
<path fill="none" stroke="black" d="M395.33,-522.87C414.17,-528.16 436.85,-533.8 457.67,-537 603.62,-559.43 778.85,-561.33 861.93,-560.75"/>
<polygon fill="black" stroke="black" points="862.11,-564.25 872.08,-560.67 862.05,-557.25 862.11,-564.25"/>
</g>
<!-- ArgMutations&#45;&gt;ArgIndels -->
<g id="edge20" class="edge">
<title>ArgMutations&#45;&gt;ArgIndels</title>
<path fill="none" stroke="black" d="M413.48,-510C437.08,-510 464.05,-510 487.2,-510"/>
<polygon fill="black" stroke="black" points="487.21,-513.5 497.21,-510 487.21,-506.5 487.21,-513.5"/>
</g>
<!-- Options(padding) -->
<g id="node22" class="node">
<title>Options(padding)</title>
<ellipse fill="none" stroke="red" cx="543.46" cy="-602" rx="72.59" ry="18"/>
<text text-anchor="middle" x="543.46" y="-598.3" font-family="Times,serif" font-size="14.00">Options(padding)</text>
</g>
<!-- ArgMutations&#45;&gt;Options(padding) -->
<g id="edge23" class="edge">
<title>ArgMutations&#45;&gt;Options(padding)</title>
<path fill="none" stroke="purple" d="M379.19,-526.24C399.85,-539.06 430,-556.89 457.67,-570 468.12,-574.95 479.55,-579.69 490.55,-583.94"/>
<polygon fill="purple" stroke="purple" points="489.47,-587.28 500.06,-587.54 491.95,-580.73 489.47,-587.28"/>
</g>
<!-- Args -->
<g id="node23" class="node">
<title>Args</title>
<ellipse fill="none" stroke="black" cx="27.95" cy="-495" rx="27.9" ry="18"/>
<text text-anchor="middle" x="27.95" y="-491.3" font-family="Times,serif" font-size="14.00">Args</text>
</g>
<!-- Args&#45;&gt;Options(padding) -->
<g id="edge26" class="edge">
<title>Args&#45;&gt;Options(padding)</title>
<path fill="none" stroke="purple" d="M42.21,-510.65C53.9,-523.28 72.11,-540.33 91.9,-549 213.05,-602.1 369.17,-608.34 462.23,-606.35"/>
<polygon fill="purple" stroke="purple" points="462.51,-609.84 472.42,-606.09 462.34,-602.84 462.51,-609.84"/>
</g>
<!-- DataTensor(value) -->
<g id="node24" class="node">
<title>DataTensor(value)</title>
<ellipse fill="none" stroke="red" cx="169.89" cy="-468" rx="76.89" ry="18"/>
<text text-anchor="middle" x="169.89" y="-464.3" font-family="Times,serif" font-size="14.00">DataTensor(value)</text>
</g>
<!-- Args&#45;&gt;DataTensor(value) -->
<g id="edge24" class="edge">
<title>Args&#45;&gt;DataTensor(value)</title>
<path fill="none" stroke="purple" d="M54.94,-489.98C67.77,-487.51 83.92,-484.39 99.99,-481.29"/>
<polygon fill="purple" stroke="purple" points="100.8,-484.7 109.96,-479.37 99.47,-477.83 100.8,-484.7"/>
</g>
<!-- DataTensor(filters) -->
<g id="node25" class="node">
<title>DataTensor(filters)</title>
<ellipse fill="none" stroke="red" cx="169.89" cy="-414" rx="77.99" ry="18"/>
<text text-anchor="middle" x="169.89" y="-410.3" font-family="Times,serif" font-size="14.00">DataTensor(filters)</text>
</g>
<!-- Args&#45;&gt;DataTensor(filters) -->
<g id="edge25" class="edge">
<title>Args&#45;&gt;DataTensor(filters)</title>
<path fill="none" stroke="purple" d="M43.74,-479.48C55.77,-467.59 73.68,-451.5 91.9,-441 97.75,-437.62 104.09,-434.57 110.54,-431.83"/>
<polygon fill="purple" stroke="purple" points="112.03,-435.01 120.03,-428.05 109.44,-428.5 112.03,-435.01"/>
</g>
<!-- ShapeInt(rate) -->
<g id="node26" class="node">
<title>ShapeInt(rate)</title>
<ellipse fill="none" stroke="red" cx="169.89" cy="-522" rx="61.19" ry="18"/>
<text text-anchor="middle" x="169.89" y="-518.3" font-family="Times,serif" font-size="14.00">ShapeInt(rate)</text>
</g>
<!-- Args&#45;&gt;ShapeInt(rate) -->
<g id="edge27" class="edge">
<title>Args&#45;&gt;ShapeInt(rate)</title>
<path fill="none" stroke="purple" d="M54.94,-500.02C70.02,-502.92 89.67,-506.72 108.4,-510.33"/>
<polygon fill="purple" stroke="purple" points="107.9,-513.8 118.38,-512.26 109.23,-506.92 107.9,-513.8"/>
</g>
<!-- DataTensor(value)&#45;&gt;DTypesNotImpl -->
<g id="edge32" class="edge">
<title>DataTensor(value)&#45;&gt;DTypesNotImpl</title>
<path fill="none" stroke="black" d="M216.66,-453.59C227.08,-449.86 237.99,-445.59 247.88,-441 272.07,-429.79 297.93,-414.61 317.8,-402.21"/>
<polygon fill="black" stroke="black" points="319.89,-405.02 326.48,-396.73 316.16,-399.11 319.89,-405.02"/>
</g>
<!-- DataTensor(value)&#45;&gt;ArgMutations -->
<g id="edge31" class="edge">
<title>DataTensor(value)&#45;&gt;ArgMutations</title>
<path fill="none" stroke="black" d="M225.16,-480.6C247.09,-485.69 272.42,-491.57 294.63,-496.73"/>
<polygon fill="black" stroke="black" points="294.06,-500.19 304.59,-499.04 295.64,-493.37 294.06,-500.19"/>
</g>
<!-- DataTensor(filters)&#45;&gt;DTypesNotImpl -->
<g id="edge35" class="edge">
<title>DataTensor(filters)&#45;&gt;DTypesNotImpl</title>
<path fill="none" stroke="black" d="M230.87,-402.73C248.66,-399.38 268.23,-395.7 286.34,-392.3"/>
<polygon fill="black" stroke="black" points="287.05,-395.73 296.24,-390.44 285.76,-388.85 287.05,-395.73"/>
</g>
<!-- DataTensor(filters)&#45;&gt;ArgMutations -->
<g id="edge34" class="edge">
<title>DataTensor(filters)&#45;&gt;ArgMutations</title>
<path fill="none" stroke="black" d="M217.66,-428.31C227.82,-431.99 238.37,-436.27 247.88,-441 274.17,-454.08 301.77,-472.67 321.9,-487.26"/>
<polygon fill="black" stroke="black" points="319.92,-490.14 330.05,-493.24 324.06,-484.5 319.92,-490.14"/>
</g>
<!-- ShapeInt(rate)&#45;&gt;ArgMutations -->
<g id="edge37" class="edge">
<title>ShapeInt(rate)&#45;&gt;ArgMutations</title>
<path fill="none" stroke="black" d="M229.62,-518.1C246.78,-516.97 265.68,-515.71 283.39,-514.54"/>
<polygon fill="black" stroke="black" points="283.9,-518.01 293.65,-513.86 283.44,-511.03 283.9,-518.01"/>
</g>
<!-- DataFormat -->
<g id="node27" class="node">
<title>DataFormat</title>
<ellipse fill="none" stroke="black" cx="743.9" cy="-418" rx="53.09" ry="18"/>
<text text-anchor="middle" x="743.9" y="-414.3" font-family="Times,serif" font-size="14.00">DataFormat</text>
</g>
<!-- DataFormat&#45;&gt;Layout(layout) -->
<g id="edge42" class="edge">
<title>DataFormat&#45;&gt;Layout(layout)</title>
<path fill="none" stroke="black" d="M795.15,-413.06C888.71,-405.62 1094.84,-397.46 1257.21,-450 1298.96,-463.51 1340.7,-492.62 1367.09,-513.44"/>
<polygon fill="black" stroke="black" points="1365.11,-516.34 1375.1,-519.88 1369.5,-510.89 1365.11,-516.34"/>
</g>
<!-- DataFormat&#45;&gt;IndexRanks -->
<g id="edge41" class="edge">
<title>DataFormat&#45;&gt;IndexRanks</title>
<path fill="none" stroke="black" d="M783.12,-405.67C796.18,-400.58 810.52,-393.99 822.54,-386 848.48,-368.77 873.2,-343.08 889.73,-324.09"/>
<polygon fill="black" stroke="black" points="892.47,-326.27 896.3,-316.4 887.14,-321.73 892.47,-326.27"/>
</g>
</g>
</svg>
