<?xml version="1.0" encoding="UTF-8" standalone="no"?>
<!DOCTYPE svg PUBLIC "-//W3C//DTD SVG 1.1//EN"
 "http://www.w3.org/Graphics/SVG/1.1/DTD/svg11.dtd">
<!-- Generated by graphviz version 2.43.0 (0)
 -->
<!-- Title: %3 Pages: 1 -->
<svg width="1409pt" height="898pt"
 viewBox="0.00 0.00 1409.49 898.00" xmlns="http://www.w3.org/2000/svg" xmlns:xlink="http://www.w3.org/1999/xlink">
<g id="graph0" class="graph" transform="scale(1 1) rotate(0) translate(4 894)">
<title>%3</title>
<polygon fill="white" stroke="transparent" points="-4,4 -4,-894 1405.49,-894 1405.49,4 -4,4"/>
<!-- ObservedValue(dtypes) -->
<g id="node1" class="node">
<title>ObservedValue(dtypes)</title>
<ellipse fill="none" stroke="black" cx="773.14" cy="-548" rx="92.88" ry="18"/>
<text text-anchor="middle" x="773.14" y="-544.3" font-family="Times,serif" font-size="14.00">ObservedValue(dtypes)</text>
</g>
<!-- ObservedValue(shapes) -->
<g id="node2" class="node">
<title>ObservedValue(shapes)</title>
<ellipse fill="none" stroke="black" cx="773.14" cy="-145" rx="93.68" ry="18"/>
<text text-anchor="middle" x="773.14" y="-141.3" font-family="Times,serif" font-size="14.00">ObservedValue(shapes)</text>
</g>
<!-- ObservedValue(args) -->
<g id="node3" class="node">
<title>ObservedValue(args)</title>
<ellipse fill="none" stroke="black" cx="430.12" cy="-272" rx="85.29" ry="18"/>
<text text-anchor="middle" x="430.12" y="-268.3" font-family="Times,serif" font-size="14.00">ObservedValue(args)</text>
</g>
<!-- Layout(layout) -->
<g id="node4" class="node">
<title>Layout(layout)</title>
<ellipse fill="none" stroke="black" cx="1298.8" cy="-207" rx="63.89" ry="18"/>
<text text-anchor="middle" x="1298.8" y="-203.3" font-family="Times,serif" font-size="14.00">Layout(layout)</text>
</g>
<!-- IndexRanks -->
<g id="node5" class="node">
<title>IndexRanks</title>
<ellipse fill="none" stroke="black" cx="773.14" cy="-494" rx="52.79" ry="18"/>
<text text-anchor="middle" x="773.14" y="-490.3" font-family="Times,serif" font-size="14.00">IndexRanks</text>
</g>
<!-- RankRange(batch) -->
<g id="node6" class="node">
<title>RankRange(batch)</title>
<ellipse fill="none" stroke="black" cx="1031.42" cy="-494" rx="76.89" ry="18"/>
<text text-anchor="middle" x="1031.42" y="-490.3" font-family="Times,serif" font-size="14.00">RankRange(batch)</text>
</g>
<!-- IndexRanks&#45;&gt;RankRange(batch) -->
<g id="edge1" class="edge">
<title>IndexRanks&#45;&gt;RankRange(batch)</title>
<path fill="none" stroke="purple" d="M826.01,-494C859.91,-494 905.02,-494 944.24,-494"/>
<polygon fill="purple" stroke="purple" points="944.33,-497.5 954.33,-494 944.33,-490.5 944.33,-497.5"/>
</g>
<!-- RankRange(input_spatial) -->
<g id="node7" class="node">
<title>RankRange(input_spatial)</title>
<ellipse fill="none" stroke="black" cx="1298.8" cy="-737" rx="102.88" ry="18"/>
<text text-anchor="middle" x="1298.8" y="-733.3" font-family="Times,serif" font-size="14.00">RankRange(input_spatial)</text>
</g>
<!-- IndexRanks&#45;&gt;RankRange(input_spatial) -->
<g id="edge2" class="edge">
<title>IndexRanks&#45;&gt;RankRange(input_spatial)</title>
<path fill="none" stroke="purple" d="M806.6,-479.98C876.98,-451.95 1046.41,-397.35 1160.11,-467 1248.4,-521.08 1282.31,-651.52 1293.28,-709"/>
<polygon fill="purple" stroke="purple" points="1289.84,-709.63 1295.07,-718.85 1296.72,-708.38 1289.84,-709.63"/>
</g>
<!-- RankEquiv(filter_spatial) -->
<g id="node8" class="node">
<title>RankEquiv(filter_spatial)</title>
<ellipse fill="none" stroke="black" cx="1031.42" cy="-402" rx="100.98" ry="18"/>
<text text-anchor="middle" x="1031.42" y="-398.3" font-family="Times,serif" font-size="14.00">RankEquiv(filter_spatial)</text>
</g>
<!-- IndexRanks&#45;&gt;RankEquiv(filter_spatial) -->
<g id="edge3" class="edge">
<title>IndexRanks&#45;&gt;RankEquiv(filter_spatial)</title>
<path fill="none" stroke="purple" d="M802.34,-478.93C827.97,-465.7 867.1,-446.65 902.74,-434 919.57,-428.03 938.03,-422.72 955.55,-418.22"/>
<polygon fill="purple" stroke="purple" points="956.88,-421.5 965.73,-415.67 955.18,-414.71 956.88,-421.5"/>
</g>
<!-- RankEquiv(dilated_filter_spatial) -->
<g id="node9" class="node">
<title>RankEquiv(dilated_filter_spatial)</title>
<ellipse fill="none" stroke="black" cx="1031.42" cy="-872" rx="128.88" ry="18"/>
<text text-anchor="middle" x="1031.42" y="-868.3" font-family="Times,serif" font-size="14.00">RankEquiv(dilated_filter_spatial)</text>
</g>
<!-- IndexRanks&#45;&gt;RankEquiv(dilated_filter_spatial) -->
<g id="edge4" class="edge">
<title>IndexRanks&#45;&gt;RankEquiv(dilated_filter_spatial)</title>
<path fill="none" stroke="purple" d="M824.84,-497.92C840.46,-501.68 856.29,-508.57 866.74,-521 959.95,-631.92 805.41,-737.67 902.74,-845 906.83,-849.52 911.48,-853.38 916.51,-856.68"/>
<polygon fill="purple" stroke="purple" points="914.9,-859.79 925.32,-861.72 918.38,-853.72 914.9,-859.79"/>
</g>
<!-- RankEquiv(strides) -->
<g id="node10" class="node">
<title>RankEquiv(strides)</title>
<ellipse fill="none" stroke="black" cx="1031.42" cy="-818" rx="79.09" ry="18"/>
<text text-anchor="middle" x="1031.42" y="-814.3" font-family="Times,serif" font-size="14.00">RankEquiv(strides)</text>
</g>
<!-- IndexRanks&#45;&gt;RankEquiv(strides) -->
<g id="edge5" class="edge">
<title>IndexRanks&#45;&gt;RankEquiv(strides)</title>
<path fill="none" stroke="purple" d="M824.68,-498.05C840.29,-501.82 856.15,-508.68 866.74,-521 945.63,-612.82 820.44,-702.21 902.74,-791 913.29,-802.38 927.33,-809.61 942.25,-814.08"/>
<polygon fill="purple" stroke="purple" points="941.59,-817.53 952.15,-816.64 943.34,-810.75 941.59,-817.53"/>
</g>
<!-- RankEquiv(dilations) -->
<g id="node11" class="node">
<title>RankEquiv(dilations)</title>
<ellipse fill="none" stroke="black" cx="1031.42" cy="-764" rx="86.38" ry="18"/>
<text text-anchor="middle" x="1031.42" y="-760.3" font-family="Times,serif" font-size="14.00">RankEquiv(dilations)</text>
</g>
<!-- IndexRanks&#45;&gt;RankEquiv(dilations) -->
<g id="edge6" class="edge">
<title>IndexRanks&#45;&gt;RankEquiv(dilations)</title>
<path fill="none" stroke="purple" d="M824.45,-498.25C840.05,-502.04 855.95,-508.85 866.74,-521 931.36,-593.78 835.42,-666.71 902.74,-737 911.98,-746.65 923.74,-753.29 936.36,-757.79"/>
<polygon fill="purple" stroke="purple" points="935.57,-761.21 946.16,-760.83 937.65,-754.52 935.57,-761.21"/>
</g>
<!-- RankRange(input_channel) -->
<g id="node12" class="node">
<title>RankRange(input_channel)</title>
<ellipse fill="none" stroke="black" cx="1031.42" cy="-656" rx="107.48" ry="18"/>
<text text-anchor="middle" x="1031.42" y="-652.3" font-family="Times,serif" font-size="14.00">RankRange(input_channel)</text>
</g>
<!-- IndexRanks&#45;&gt;RankRange(input_channel) -->
<g id="edge7" class="edge">
<title>IndexRanks&#45;&gt;RankRange(input_channel)</title>
<path fill="none" stroke="purple" d="M823.87,-499.39C839.24,-503.27 855.16,-509.85 866.74,-521 903.19,-556.09 864.99,-595.31 902.74,-629 909.69,-635.21 917.7,-640.11 926.26,-643.98"/>
<polygon fill="purple" stroke="purple" points="925.14,-647.31 935.73,-647.78 927.75,-640.81 925.14,-647.31"/>
</g>
<!-- RankRange(filter_input_channel) -->
<g id="node13" class="node">
<title>RankRange(filter_input_channel)</title>
<ellipse fill="none" stroke="black" cx="1031.42" cy="-602" rx="128.88" ry="18"/>
<text text-anchor="middle" x="1031.42" y="-598.3" font-family="Times,serif" font-size="14.00">RankRange(filter_input_channel)</text>
</g>
<!-- IndexRanks&#45;&gt;RankRange(filter_input_channel) -->
<g id="edge8" class="edge">
<title>IndexRanks&#45;&gt;RankRange(filter_input_channel)</title>
<path fill="none" stroke="purple" d="M821.78,-501.18C837.18,-505.18 853.64,-511.39 866.74,-521 889.99,-538.07 878.86,-558.82 902.74,-575 909.47,-579.56 916.83,-583.38 924.5,-586.56"/>
<polygon fill="purple" stroke="purple" points="923.4,-589.89 933.99,-590.15 925.87,-583.34 923.4,-589.89"/>
</g>
<!-- RankRange(output_channel) -->
<g id="node14" class="node">
<title>RankRange(output_channel)</title>
<ellipse fill="none" stroke="black" cx="1031.42" cy="-548" rx="111.58" ry="18"/>
<text text-anchor="middle" x="1031.42" y="-544.3" font-family="Times,serif" font-size="14.00">RankRange(output_channel)</text>
</g>
<!-- IndexRanks&#45;&gt;RankRange(output_channel) -->
<g id="edge9" class="edge">
<title>IndexRanks&#45;&gt;RankRange(output_channel)</title>
<path fill="none" stroke="purple" d="M818.49,-503.34C855.39,-511.12 908.78,-522.37 952.75,-531.63"/>
<polygon fill="purple" stroke="purple" points="952.04,-535.06 962.55,-533.7 953.48,-528.21 952.04,-535.06"/>
</g>
<!-- RankEquiv(output_spatial) -->
<g id="node15" class="node">
<title>RankEquiv(output_spatial)</title>
<ellipse fill="none" stroke="black" cx="1031.42" cy="-710" rx="105.88" ry="18"/>
<text text-anchor="middle" x="1031.42" y="-706.3" font-family="Times,serif" font-size="14.00">RankEquiv(output_spatial)</text>
</g>
<!-- IndexRanks&#45;&gt;RankEquiv(output_spatial) -->
<g id="edge10" class="edge">
<title>IndexRanks&#45;&gt;RankEquiv(output_spatial)</title>
<path fill="none" stroke="purple" d="M824.08,-498.59C839.65,-502.4 855.63,-509.15 866.74,-521 917.17,-574.82 850.31,-631.12 902.74,-683 909.3,-689.5 917.01,-694.61 925.34,-698.61"/>
<polygon fill="purple" stroke="purple" points="924.01,-701.85 934.59,-702.54 926.75,-695.41 924.01,-701.85"/>
</g>
<!-- RankEquiv(filter_spatial)&#45;&gt;RankRange(input_spatial) -->
<g id="edge32" class="edge">
<title>RankEquiv(filter_spatial)&#45;&gt;RankRange(input_spatial)</title>
<path fill="none" stroke="black" d="M1116.57,-411.7C1132.28,-416.52 1147.65,-423.61 1160.11,-434 1248.04,-507.3 1282.34,-648.6 1293.35,-708.77"/>
<polygon fill="black" stroke="black" points="1289.92,-709.45 1295.09,-718.69 1296.81,-708.24 1289.92,-709.45"/>
</g>
<!-- RankEquiv(dilated_filter_spatial)&#45;&gt;RankRange(input_spatial) -->
<g id="edge33" class="edge">
<title>RankEquiv(dilated_filter_spatial)&#45;&gt;RankRange(input_spatial)</title>
<path fill="none" stroke="black" d="M1120.36,-858.96C1134.01,-855.36 1147.69,-850.8 1160.11,-845 1204.27,-824.39 1247.15,-787.2 1273.02,-762.31"/>
<polygon fill="black" stroke="black" points="1275.78,-764.5 1280.48,-755.01 1270.88,-759.5 1275.78,-764.5"/>
</g>
<!-- RankEquiv(strides)&#45;&gt;RankRange(input_spatial) -->
<g id="edge34" class="edge">
<title>RankEquiv(strides)&#45;&gt;RankRange(input_spatial)</title>
<path fill="none" stroke="black" d="M1094.64,-806.99C1115.63,-802.71 1139.06,-797.31 1160.11,-791 1190.89,-781.78 1224.48,-768.67 1250.78,-757.68"/>
<polygon fill="black" stroke="black" points="1252.26,-760.85 1260.12,-753.74 1249.54,-754.4 1252.26,-760.85"/>
</g>
<!-- RankEquiv(dilations)&#45;&gt;RankRange(input_spatial) -->
<g id="edge35" class="edge">
<title>RankEquiv(dilations)&#45;&gt;RankRange(input_spatial)</title>
<path fill="none" stroke="black" d="M1109.54,-756.15C1137.59,-753.3 1169.68,-750.04 1199.33,-747.02"/>
<polygon fill="black" stroke="black" points="1199.68,-750.5 1209.28,-746.01 1198.97,-743.54 1199.68,-750.5"/>
</g>
<!-- RankEquiv(output_spatial)&#45;&gt;RankRange(input_spatial) -->
<g id="edge36" class="edge">
<title>RankEquiv(output_spatial)&#45;&gt;RankRange(input_spatial)</title>
<path fill="none" stroke="black" d="M1122.64,-719.18C1147.34,-721.69 1174.23,-724.43 1199.36,-726.98"/>
<polygon fill="black" stroke="black" points="1199.33,-730.5 1209.64,-728.03 1200.04,-723.54 1199.33,-730.5"/>
</g>
<!-- DTypes -->
<g id="node16" class="node">
<title>DTypes</title>
<ellipse fill="none" stroke="black" cx="597.41" cy="-471" rx="38.19" ry="18"/>
<text text-anchor="middle" x="597.41" y="-467.3" font-family="Times,serif" font-size="14.00">DTypes</text>
</g>
<!-- DTypes&#45;&gt;ObservedValue(dtypes) -->
<g id="edge11" class="edge">
<title>DTypes&#45;&gt;ObservedValue(dtypes)</title>
<path fill="none" stroke="black" d="M619.24,-486.01C635.14,-496.92 657.93,-511.39 679.55,-521 687.76,-524.64 696.58,-527.95 705.42,-530.89"/>
<polygon fill="black" stroke="black" points="704.38,-534.23 714.97,-533.94 706.51,-527.56 704.38,-534.23"/>
</g>
<!-- DTypes&#45;&gt;Layout(layout) -->
<g id="edge13" class="edge">
<title>DTypes&#45;&gt;Layout(layout)</title>
<path fill="none" stroke="black" d="M628.25,-460.05C682.32,-440.55 800.38,-399.57 902.74,-375 1015.51,-347.93 1055.75,-382.58 1160.11,-332 1208.98,-308.32 1253.07,-261.8 1277.56,-232.67"/>
<polygon fill="black" stroke="black" points="1280.27,-234.89 1283.94,-224.95 1274.87,-230.43 1280.27,-234.89"/>
</g>
<!-- DTypes&#45;&gt;IndexRanks -->
<g id="edge12" class="edge">
<title>DTypes&#45;&gt;IndexRanks</title>
<path fill="none" stroke="black" d="M634.41,-475.77C657.22,-478.79 687.26,-482.76 713.46,-486.23"/>
<polygon fill="black" stroke="black" points="713.3,-489.74 723.67,-487.58 714.22,-482.8 713.3,-489.74"/>
</g>
<!-- SigMap -->
<g id="node17" class="node">
<title>SigMap</title>
<ellipse fill="none" stroke="black" cx="773.14" cy="-199" rx="38.99" ry="18"/>
<text text-anchor="middle" x="773.14" y="-195.3" font-family="Times,serif" font-size="14.00">SigMap</text>
</g>
<!-- Sig(input) -->
<g id="node18" class="node">
<title>Sig(input)</title>
<ellipse fill="none" stroke="black" cx="1031.42" cy="-234" rx="46.29" ry="18"/>
<text text-anchor="middle" x="1031.42" y="-230.3" font-family="Times,serif" font-size="14.00">Sig(input)</text>
</g>
<!-- SigMap&#45;&gt;Sig(input) -->
<g id="edge14" class="edge">
<title>SigMap&#45;&gt;Sig(input)</title>
<path fill="none" stroke="purple" d="M810.86,-204.01C854.5,-209.97 927.65,-219.96 977.42,-226.76"/>
<polygon fill="purple" stroke="purple" points="976.97,-230.23 987.36,-228.12 977.92,-223.3 976.97,-230.23"/>
</g>
<!-- Sig(filters) -->
<g id="node19" class="node">
<title>Sig(filters)</title>
<ellipse fill="none" stroke="black" cx="1031.42" cy="-180" rx="48.99" ry="18"/>
<text text-anchor="middle" x="1031.42" y="-176.3" font-family="Times,serif" font-size="14.00">Sig(filters)</text>
</g>
<!-- SigMap&#45;&gt;Sig(filters) -->
<g id="edge15" class="edge">
<title>SigMap&#45;&gt;Sig(filters)</title>
<path fill="none" stroke="purple" d="M811.68,-196.22C854.13,-193.07 923.72,-187.91 973,-184.26"/>
<polygon fill="purple" stroke="purple" points="973.48,-187.73 983.19,-183.5 972.96,-180.75 973.48,-187.73"/>
</g>
<!-- Sig(strides) -->
<g id="node20" class="node">
<title>Sig(strides)</title>
<ellipse fill="none" stroke="black" cx="1031.42" cy="-126" rx="51.19" ry="18"/>
<text text-anchor="middle" x="1031.42" y="-122.3" font-family="Times,serif" font-size="14.00">Sig(strides)</text>
</g>
<!-- SigMap&#45;&gt;Sig(strides) -->
<g id="edge16" class="edge">
<title>SigMap&#45;&gt;Sig(strides)</title>
<path fill="none" stroke="purple" d="M808.13,-190.85C825.88,-186.16 847.8,-179.67 866.74,-172 883.51,-165.21 885.72,-159.15 902.74,-153 925.28,-144.85 951,-138.82 973.42,-134.56"/>
<polygon fill="purple" stroke="purple" points="974.25,-137.96 983.46,-132.72 973,-131.08 974.25,-137.96"/>
</g>
<!-- Sig(dilations) -->
<g id="node21" class="node">
<title>Sig(dilations)</title>
<ellipse fill="none" stroke="black" cx="1031.42" cy="-72" rx="58.49" ry="18"/>
<text text-anchor="middle" x="1031.42" y="-68.3" font-family="Times,serif" font-size="14.00">Sig(dilations)</text>
</g>
<!-- SigMap&#45;&gt;Sig(dilations) -->
<g id="edge17" class="edge">
<title>SigMap&#45;&gt;Sig(dilations)</title>
<path fill="none" stroke="purple" d="M811.74,-195.17C830.04,-191.66 851.34,-184.92 866.74,-172 894.45,-148.75 874.17,-121.19 902.74,-99 919.88,-85.68 942.08,-78.55 963.15,-74.84"/>
<polygon fill="purple" stroke="purple" points="963.7,-78.3 973.05,-73.32 962.64,-71.38 963.7,-78.3"/>
</g>
<!-- Sig(return[0]) -->
<g id="node22" class="node">
<title>Sig(return[0])</title>
<ellipse fill="none" stroke="black" cx="1031.42" cy="-18" rx="59.59" ry="18"/>
<text text-anchor="middle" x="1031.42" y="-14.3" font-family="Times,serif" font-size="14.00">Sig(return[0])</text>
</g>
<!-- SigMap&#45;&gt;Sig(return[0]) -->
<g id="edge18" class="edge">
<title>SigMap&#45;&gt;Sig(return[0])</title>
<path fill="none" stroke="purple" d="M811.86,-196.47C830.64,-193.31 852.35,-186.5 866.74,-172 908.06,-130.36 859.87,-85.05 902.74,-45 918.6,-30.18 940.48,-22.67 961.65,-19.07"/>
<polygon fill="purple" stroke="purple" points="962.22,-22.53 971.62,-17.65 961.23,-15.6 962.22,-22.53"/>
</g>
<!-- Sig(input)&#45;&gt;Layout(layout) -->
<g id="edge40" class="edge">
<title>Sig(input)&#45;&gt;Layout(layout)</title>
<path fill="none" stroke="black" d="M1076.25,-229.54C1117.62,-225.33 1180.32,-218.95 1228.47,-214.05"/>
<polygon fill="black" stroke="black" points="1228.92,-217.53 1238.51,-213.03 1228.21,-210.56 1228.92,-217.53"/>
</g>
<!-- Sig(filters)&#45;&gt;Layout(layout) -->
<g id="edge41" class="edge">
<title>Sig(filters)&#45;&gt;Layout(layout)</title>
<path fill="none" stroke="black" d="M1078.65,-184.7C1120.02,-188.91 1181.24,-195.14 1228.47,-199.95"/>
<polygon fill="black" stroke="black" points="1228.33,-203.45 1238.63,-200.98 1229.04,-196.49 1228.33,-203.45"/>
</g>
<!-- Sig(strides)&#45;&gt;Layout(layout) -->
<g id="edge43" class="edge">
<title>Sig(strides)&#45;&gt;Layout(layout)</title>
<path fill="none" stroke="black" d="M1078.09,-133.76C1102.65,-138.4 1133.31,-144.97 1160.11,-153 1192.32,-162.65 1227.59,-176.55 1254.38,-187.83"/>
<polygon fill="black" stroke="black" points="1253.27,-191.16 1263.84,-191.86 1256.01,-184.72 1253.27,-191.16"/>
</g>
<!-- Sig(dilations)&#45;&gt;Layout(layout) -->
<g id="edge44" class="edge">
<title>Sig(dilations)&#45;&gt;Layout(layout)</title>
<path fill="none" stroke="black" d="M1086.98,-77.93C1110.29,-81.87 1137.32,-88.36 1160.11,-99 1204.52,-119.73 1247.63,-157.22 1273.45,-182.11"/>
<polygon fill="black" stroke="black" points="1271.3,-184.9 1280.89,-189.4 1276.2,-179.9 1271.3,-184.9"/>
</g>
<!-- Sig(return[0])&#45;&gt;Layout(layout) -->
<g id="edge45" class="edge">
<title>Sig(return[0])&#45;&gt;Layout(layout)</title>
<path fill="none" stroke="black" d="M1089.71,-22.03C1112.84,-25.65 1138.99,-32.42 1160.11,-45 1216.53,-78.62 1261.04,-143.76 1282.94,-180.37"/>
<polygon fill="black" stroke="black" points="1279.93,-182.16 1288.01,-189.02 1285.97,-178.62 1279.93,-182.16"/>
</g>
<!-- ArgIndels -->
<g id="node23" class="node">
<title>ArgIndels</title>
<ellipse fill="none" stroke="black" cx="597.41" cy="-218" rx="46.29" ry="18"/>
<text text-anchor="middle" x="597.41" y="-214.3" font-family="Times,serif" font-size="14.00">ArgIndels</text>
</g>
<!-- ArgIndels&#45;&gt;ObservedValue(shapes) -->
<g id="edge21" class="edge">
<title>ArgIndels&#45;&gt;ObservedValue(shapes)</title>
<path fill="none" stroke="black" d="M622.16,-202.59C637.95,-192.83 659.41,-180.51 679.55,-172 687.93,-168.46 696.93,-165.2 705.9,-162.27"/>
<polygon fill="black" stroke="black" points="707.11,-165.56 715.6,-159.22 705.01,-158.89 707.11,-165.56"/>
</g>
<!-- ArgIndels&#45;&gt;Layout(layout) -->
<g id="edge22" class="edge">
<title>ArgIndels&#45;&gt;Layout(layout)</title>
<path fill="none" stroke="black" d="M636.59,-227.75C727.9,-249.59 965.75,-297.75 1160.11,-261 1194.53,-254.49 1231.37,-239.59 1258.27,-227.08"/>
<polygon fill="black" stroke="black" points="1259.81,-230.22 1267.35,-222.78 1256.82,-223.9 1259.81,-230.22"/>
</g>
<!-- ArgIndels&#45;&gt;IndexRanks -->
<g id="edge19" class="edge">
<title>ArgIndels&#45;&gt;IndexRanks</title>
<path fill="none" stroke="black" d="M619.62,-234.16C627.71,-240.97 636.64,-249.32 643.55,-258 697.97,-326.36 741.58,-420.99 761.08,-466.88"/>
<polygon fill="black" stroke="black" points="757.88,-468.3 764.98,-476.16 764.33,-465.59 757.88,-468.3"/>
</g>
<!-- ArgIndels&#45;&gt;SigMap -->
<g id="edge20" class="edge">
<title>ArgIndels&#45;&gt;SigMap</title>
<path fill="none" stroke="black" d="M642.25,-213.21C667.43,-210.45 699.06,-206.99 724.81,-204.18"/>
<polygon fill="black" stroke="black" points="725.52,-207.62 735.08,-203.05 724.76,-200.66 725.52,-207.62"/>
</g>
<!-- IndexUsage -->
<g id="node24" class="node">
<title>IndexUsage</title>
<ellipse fill="none" stroke="black" cx="430.12" cy="-218" rx="52.79" ry="18"/>
<text text-anchor="middle" x="430.12" y="-214.3" font-family="Times,serif" font-size="14.00">IndexUsage</text>
</g>
<!-- IndexUsage&#45;&gt;ObservedValue(shapes) -->
<g id="edge25" class="edge">
<title>IndexUsage&#45;&gt;ObservedValue(shapes)</title>
<path fill="none" stroke="black" d="M474.46,-208.09C497.29,-202.91 525.77,-196.52 551.26,-191 600.27,-180.39 655.51,-168.89 698.48,-160.04"/>
<polygon fill="black" stroke="black" points="699.2,-163.46 708.29,-158.02 697.79,-156.61 699.2,-163.46"/>
</g>
<!-- IndexUsage&#45;&gt;IndexRanks -->
<g id="edge23" class="edge">
<title>IndexUsage&#45;&gt;IndexRanks</title>
<path fill="none" stroke="black" d="M474.7,-227.84C488.26,-231.97 502.89,-237.58 515.26,-245 618.74,-307.05 713.09,-418.31 752.58,-468.37"/>
<polygon fill="black" stroke="black" points="749.96,-470.69 758.88,-476.42 755.48,-466.38 749.96,-470.69"/>
</g>
<!-- IndexUsage&#45;&gt;ArgIndels -->
<g id="edge24" class="edge">
<title>IndexUsage&#45;&gt;ArgIndels</title>
<path fill="none" stroke="black" d="M482.96,-218C501.42,-218 522.26,-218 541,-218"/>
<polygon fill="black" stroke="black" points="541.16,-221.5 551.16,-218 541.16,-214.5 541.16,-221.5"/>
</g>
<!-- IndexConstraints -->
<g id="node25" class="node">
<title>IndexConstraints</title>
<ellipse fill="none" stroke="black" cx="206.93" cy="-218" rx="70.69" ry="18"/>
<text text-anchor="middle" x="206.93" y="-214.3" font-family="Times,serif" font-size="14.00">IndexConstraints</text>
</g>
<!-- IndexConstraints&#45;&gt;ObservedValue(args) -->
<g id="edge27" class="edge">
<title>IndexConstraints&#45;&gt;ObservedValue(args)</title>
<path fill="none" stroke="black" d="M258.68,-230.39C289.9,-238.01 330.24,-247.86 363.83,-256.06"/>
<polygon fill="black" stroke="black" points="363.02,-259.47 373.57,-258.44 364.68,-252.67 363.02,-259.47"/>
</g>
<!-- IndexConstraints&#45;&gt;IndexUsage -->
<g id="edge26" class="edge">
<title>IndexConstraints&#45;&gt;IndexUsage</title>
<path fill="none" stroke="black" d="M277.92,-218C306.54,-218 339.37,-218 367.11,-218"/>
<polygon fill="black" stroke="black" points="367.47,-221.5 377.47,-218 367.47,-214.5 367.47,-221.5"/>
</g>
<!-- Report -->
<g id="node26" class="node">
<title>Report</title>
<ellipse fill="none" stroke="black" cx="34.45" cy="-299" rx="34.39" ry="18"/>
<text text-anchor="middle" x="34.45" y="-295.3" font-family="Times,serif" font-size="14.00">Report</text>
</g>
<!-- Report&#45;&gt;DTypes -->
<g id="edge28" class="edge">
<title>Report&#45;&gt;DTypes</title>
<path fill="none" stroke="black" d="M51.49,-314.74C64.77,-326.91 84.66,-343.27 104.89,-353 257.42,-426.35 459.1,-456.16 549.3,-466.39"/>
<polygon fill="black" stroke="black" points="549.15,-469.9 559.48,-467.52 549.92,-462.94 549.15,-469.9"/>
</g>
<!-- Report&#45;&gt;IndexConstraints -->
<g id="edge29" class="edge">
<title>Report&#45;&gt;IndexConstraints</title>
<path fill="none" stroke="black" d="M51.83,-283.15C65.14,-271.09 84.92,-254.92 104.89,-245 115.93,-239.52 128.21,-235.05 140.31,-231.43"/>
<polygon fill="black" stroke="black" points="141.27,-234.8 149.94,-228.72 139.37,-228.06 141.27,-234.8"/>
</g>
<!-- DataFormat(data_format) -->
<g id="node27" class="node">
<title>DataFormat(data_format)</title>
<ellipse fill="none" stroke="black" cx="206.93" cy="-326" rx="102.08" ry="18"/>
<text text-anchor="middle" x="206.93" y="-322.3" font-family="Times,serif" font-size="14.00">DataFormat(data_format)</text>
</g>
<!-- Report&#45;&gt;DataFormat(data_format) -->
<g id="edge30" class="edge">
<title>Report&#45;&gt;DataFormat(data_format)</title>
<path fill="none" stroke="blue" d="M67.51,-304.08C82.71,-306.49 101.66,-309.49 120.61,-312.49"/>
<polygon fill="blue" stroke="blue" points="120.08,-315.95 130.51,-314.05 121.18,-309.03 120.08,-315.95"/>
</g>
<!-- Options(padding) -->
<g id="node28" class="node">
<title>Options(padding)</title>
<ellipse fill="none" stroke="black" cx="206.93" cy="-272" rx="72.59" ry="18"/>
<text text-anchor="middle" x="206.93" y="-268.3" font-family="Times,serif" font-size="14.00">Options(padding)</text>
</g>
<!-- Report&#45;&gt;Options(padding) -->
<g id="edge31" class="edge">
<title>Report&#45;&gt;Options(padding)</title>
<path fill="none" stroke="purple" d="M67.51,-293.92C86.59,-290.9 111.58,-286.94 135.07,-283.22"/>
<polygon fill="purple" stroke="purple" points="135.69,-286.67 145.02,-281.65 134.6,-279.75 135.69,-286.67"/>
</g>
<!-- DataFormat(data_format)&#45;&gt;ObservedValue(args) -->
<g id="edge39" class="edge">
<title>DataFormat(data_format)&#45;&gt;ObservedValue(args)</title>
<path fill="none" stroke="black" d="M267.5,-311.46C297.16,-304.22 333.09,-295.45 363.53,-288.01"/>
<polygon fill="black" stroke="black" points="364.74,-291.32 373.63,-285.55 363.08,-284.52 364.74,-291.32"/>
</g>
<!-- DataFormat(data_format)&#45;&gt;Layout(layout) -->
<g id="edge38" class="edge">
<title>DataFormat(data_format)&#45;&gt;Layout(layout)</title>
<path fill="none" stroke="black" d="M307.73,-322.82C386.19,-320.58 498.26,-318 596.41,-318 596.41,-318 596.41,-318 774.14,-318 946.47,-318 995.2,-331 1160.11,-281 1198.38,-269.4 1238.21,-246.64 1265.13,-229.41"/>
<polygon fill="black" stroke="black" points="1267.27,-232.19 1273.74,-223.8 1263.45,-226.32 1267.27,-232.19"/>
</g>
<!-- DataFormat(data_format)&#45;&gt;IndexRanks -->
<g id="edge37" class="edge">
<title>DataFormat(data_format)&#45;&gt;IndexRanks</title>
<path fill="none" stroke="black" d="M269.14,-340.4C354,-360.85 511.81,-400.68 643.55,-444 672.68,-453.58 704.83,-466.08 729.7,-476.18"/>
<polygon fill="black" stroke="black" points="728.61,-479.52 739.19,-480.07 731.26,-473.04 728.61,-479.52"/>
</g>
<!-- Options(padding)&#45;&gt;ObservedValue(args) -->
<g id="edge42" class="edge">
<title>Options(padding)&#45;&gt;ObservedValue(args)</title>
<path fill="none" stroke="black" d="M279.75,-272C297.31,-272 316.36,-272 334.8,-272"/>
<polygon fill="black" stroke="black" points="334.97,-275.5 344.97,-272 334.97,-268.5 334.97,-275.5"/>
</g>
</g>
</svg>
