<?xml version="1.0" encoding="UTF-8" standalone="no"?>
<!DOCTYPE svg PUBLIC "-//W3C//DTD SVG 1.1//EN"
 "http://www.w3.org/Graphics/SVG/1.1/DTD/svg11.dtd">
<!-- Generated by graphviz version 2.43.0 (0)
 -->
<!-- Title: %3 Pages: 1 -->
<svg width="793pt" height="413pt"
 viewBox="0.00 0.00 792.84 413.00" xmlns="http://www.w3.org/2000/svg" xmlns:xlink="http://www.w3.org/1999/xlink">
<g id="graph0" class="graph" transform="scale(1 1) rotate(0) translate(4 409)">
<title>%3</title>
<polygon fill="white" stroke="transparent" points="-4,4 -4,-409 788.84,-409 788.84,4 -4,4"/>
<!-- Schema -->
<g id="node1" class="node">
<title>Schema</title>
<ellipse fill="none" stroke="black" cx="745.85" cy="-210" rx="38.99" ry="18"/>
<text text-anchor="middle" x="745.85" y="-206.3" font-family="Times,serif" font-size="14.00">Schema</text>
</g>
<!-- ShapeMap -->
<g id="node2" class="node">
<title>ShapeMap</title>
<ellipse fill="none" stroke="black" cx="174.44" cy="-234" rx="48.99" ry="18"/>
<text text-anchor="middle" x="174.44" y="-230.3" font-family="Times,serif" font-size="14.00">ShapeMap</text>
</g>
<!-- TensorShape(input) -->
<g id="node3" class="node">
<title>TensorShape(input)</title>
<ellipse fill="none" stroke="black" cx="344.98" cy="-234" rx="80.69" ry="18"/>
<text text-anchor="middle" x="344.98" y="-230.3" font-family="Times,serif" font-size="14.00">TensorShape(input)</text>
</g>
<!-- ShapeMap&#45;&gt;TensorShape(input) -->
<g id="edge1" class="edge">
<title>ShapeMap&#45;&gt;TensorShape(input)</title>
<path fill="none" stroke="purple" d="M223.28,-234C232.94,-234 243.4,-234 253.97,-234"/>
<polygon fill="purple" stroke="purple" points="254.12,-237.5 264.12,-234 254.12,-230.5 254.12,-237.5"/>
</g>
<!-- TensorShape(filters) -->
<g id="node4" class="node">
<title>TensorShape(filters)</title>
<ellipse fill="none" stroke="black" cx="344.98" cy="-180" rx="83.39" ry="18"/>
<text text-anchor="middle" x="344.98" y="-176.3" font-family="Times,serif" font-size="14.00">TensorShape(filters)</text>
</g>
<!-- ShapeMap&#45;&gt;TensorShape(filters) -->
<g id="edge2" class="edge">
<title>ShapeMap&#45;&gt;TensorShape(filters)</title>
<path fill="none" stroke="purple" d="M211.7,-222.28C226.43,-217.52 243.62,-211.99 259.18,-207 268.36,-204.06 278.09,-200.95 287.57,-197.93"/>
<polygon fill="purple" stroke="purple" points="288.85,-201.19 297.32,-194.82 286.73,-194.53 288.85,-201.19"/>
</g>
<!-- ShapeList(strides) -->
<g id="node5" class="node">
<title>ShapeList(strides)</title>
<ellipse fill="none" stroke="black" cx="568.81" cy="-387" rx="74.99" ry="18"/>
<text text-anchor="middle" x="568.81" y="-383.3" font-family="Times,serif" font-size="14.00">ShapeList(strides)</text>
</g>
<!-- ShapeMap&#45;&gt;ShapeList(strides) -->
<g id="edge3" class="edge">
<title>ShapeMap&#45;&gt;ShapeList(strides)</title>
<path fill="none" stroke="purple" d="M183.54,-251.98C195.93,-277.17 222.1,-322.31 259.18,-344 328.33,-384.45 420.74,-392.49 486.37,-392.08"/>
<polygon fill="purple" stroke="purple" points="486.72,-395.58 496.67,-391.95 486.62,-388.58 486.72,-395.58"/>
</g>
<!-- ShapeList(dilations) -->
<g id="node6" class="node">
<title>ShapeList(dilations)</title>
<ellipse fill="none" stroke="black" cx="568.81" cy="-333" rx="81.79" ry="18"/>
<text text-anchor="middle" x="568.81" y="-329.3" font-family="Times,serif" font-size="14.00">ShapeList(dilations)</text>
</g>
<!-- ShapeMap&#45;&gt;ShapeList(dilations) -->
<g id="edge4" class="edge">
<title>ShapeMap&#45;&gt;ShapeList(dilations)</title>
<path fill="none" stroke="purple" d="M187.55,-251.64C202.04,-271.09 228.25,-301.43 259.18,-315 331.96,-346.93 423.81,-347.95 488.31,-343.13"/>
<polygon fill="purple" stroke="purple" points="488.74,-346.6 498.42,-342.31 488.17,-339.63 488.74,-346.6"/>
</g>
<!-- DataTensor(input) -->
<g id="node16" class="node">
<title>DataTensor(input)</title>
<ellipse fill="none" stroke="black" cx="568.81" cy="-187" rx="75.29" ry="18"/>
<text text-anchor="middle" x="568.81" y="-183.3" font-family="Times,serif" font-size="14.00">DataTensor(input)</text>
</g>
<!-- TensorShape(input)&#45;&gt;DataTensor(input) -->
<g id="edge17" class="edge">
<title>TensorShape(input)&#45;&gt;DataTensor(input)</title>
<path fill="none" stroke="black" d="M403.97,-221.71C433.97,-215.36 470.72,-207.57 501.81,-200.98"/>
<polygon fill="black" stroke="black" points="502.63,-204.39 511.69,-198.89 501.18,-197.54 502.63,-204.39"/>
</g>
<!-- DataTensor(filters) -->
<g id="node17" class="node">
<title>DataTensor(filters)</title>
<ellipse fill="none" stroke="black" cx="568.81" cy="-133" rx="77.99" ry="18"/>
<text text-anchor="middle" x="568.81" y="-129.3" font-family="Times,serif" font-size="14.00">DataTensor(filters)</text>
</g>
<!-- TensorShape(filters)&#45;&gt;DataTensor(filters) -->
<g id="edge20" class="edge">
<title>TensorShape(filters)&#45;&gt;DataTensor(filters)</title>
<path fill="none" stroke="black" d="M405.13,-167.47C434.54,-161.24 470.2,-153.68 500.63,-147.23"/>
<polygon fill="black" stroke="black" points="501.68,-150.59 510.73,-145.09 500.22,-143.74 501.68,-150.59"/>
</g>
<!-- ShapeList(strides)&#45;&gt;Schema -->
<g id="edge23" class="edge">
<title>ShapeList(strides)&#45;&gt;Schema</title>
<path fill="none" stroke="black" d="M634.65,-378.38C647.63,-374.37 660.46,-368.52 670.85,-360 709.41,-328.38 729.54,-271.68 738.61,-237.78"/>
<polygon fill="black" stroke="black" points="742.01,-238.6 741.07,-228.04 735.22,-236.88 742.01,-238.6"/>
</g>
<!-- ShapeList(dilations)&#45;&gt;Schema -->
<g id="edge24" class="edge">
<title>ShapeList(dilations)&#45;&gt;Schema</title>
<path fill="none" stroke="black" d="M635.04,-322.28C647.57,-318.41 660.12,-313.15 670.85,-306 697.21,-288.44 718.15,-258.35 730.93,-236.53"/>
<polygon fill="black" stroke="black" points="734.02,-238.17 735.9,-227.74 727.93,-234.72 734.02,-238.17"/>
</g>
<!-- DTypes -->
<g id="node7" class="node">
<title>DTypes</title>
<ellipse fill="none" stroke="black" cx="174.44" cy="-111" rx="38.19" ry="18"/>
<text text-anchor="middle" x="174.44" y="-107.3" font-family="Times,serif" font-size="14.00">DTypes</text>
</g>
<!-- TensorDType(input) -->
<g id="node8" class="node">
<title>TensorDType(input)</title>
<ellipse fill="none" stroke="black" cx="344.98" cy="-126" rx="83.39" ry="18"/>
<text text-anchor="middle" x="344.98" y="-122.3" font-family="Times,serif" font-size="14.00">TensorDType(input)</text>
</g>
<!-- DTypes&#45;&gt;TensorDType(input) -->
<g id="edge5" class="edge">
<title>DTypes&#45;&gt;TensorDType(input)</title>
<path fill="none" stroke="purple" d="M212.42,-114.29C225.78,-115.48 241.47,-116.88 257.28,-118.28"/>
<polygon fill="purple" stroke="purple" points="257.39,-121.81 267.67,-119.21 258.02,-114.84 257.39,-121.81"/>
</g>
<!-- TensorDType(filters) -->
<g id="node9" class="node">
<title>TensorDType(filters)</title>
<ellipse fill="none" stroke="black" cx="344.98" cy="-72" rx="85.59" ry="18"/>
<text text-anchor="middle" x="344.98" y="-68.3" font-family="Times,serif" font-size="14.00">TensorDType(filters)</text>
</g>
<!-- DTypes&#45;&gt;TensorDType(filters) -->
<g id="edge6" class="edge">
<title>DTypes&#45;&gt;TensorDType(filters)</title>
<path fill="none" stroke="purple" d="M209.14,-103.2C228.56,-98.71 253.66,-92.9 276.93,-87.52"/>
<polygon fill="purple" stroke="purple" points="277.81,-90.9 286.76,-85.24 276.23,-84.08 277.81,-90.9"/>
</g>
<!-- TensorDType(input)&#45;&gt;DataTensor(input) -->
<g id="edge18" class="edge">
<title>TensorDType(input)&#45;&gt;DataTensor(input)</title>
<path fill="none" stroke="black" d="M396.18,-140.29C417.87,-146.43 443.55,-153.63 466.77,-160 480.08,-163.65 494.4,-167.52 507.96,-171.15"/>
<polygon fill="black" stroke="black" points="507.1,-174.54 517.66,-173.74 508.91,-167.78 507.1,-174.54"/>
</g>
<!-- TensorDType(filters)&#45;&gt;DataTensor(filters) -->
<g id="edge21" class="edge">
<title>TensorDType(filters)&#45;&gt;DataTensor(filters)</title>
<path fill="none" stroke="black" d="M397.71,-86.22C430.68,-95.29 473.53,-107.08 507.97,-116.55"/>
<polygon fill="black" stroke="black" points="507.34,-120 517.91,-119.28 509.19,-113.25 507.34,-120"/>
</g>
<!-- ArgMap -->
<g id="node10" class="node">
<title>ArgMap</title>
<ellipse fill="none" stroke="black" cx="344.98" cy="-18" rx="40.89" ry="18"/>
<text text-anchor="middle" x="344.98" y="-14.3" font-family="Times,serif" font-size="14.00">ArgMap</text>
</g>
<!-- DataFormat(data_format) -->
<g id="node11" class="node">
<title>DataFormat(data_format)</title>
<ellipse fill="none" stroke="black" cx="568.81" cy="-22" rx="102.08" ry="18"/>
<text text-anchor="middle" x="568.81" y="-18.3" font-family="Times,serif" font-size="14.00">DataFormat(data_format)</text>
</g>
<!-- ArgMap&#45;&gt;DataFormat(data_format) -->
<g id="edge7" class="edge">
<title>ArgMap&#45;&gt;DataFormat(data_format)</title>
<path fill="none" stroke="purple" d="M385.89,-18.72C406.04,-19.08 431.59,-19.54 457.12,-20"/>
<polygon fill="purple" stroke="purple" points="457.21,-23.51 467.28,-20.19 457.34,-16.51 457.21,-23.51"/>
</g>
<!-- Options(padding) -->
<g id="node12" class="node">
<title>Options(padding)</title>
<ellipse fill="none" stroke="black" cx="568.81" cy="-78" rx="72.59" ry="18"/>
<text text-anchor="middle" x="568.81" y="-74.3" font-family="Times,serif" font-size="14.00">Options(padding)</text>
</g>
<!-- ArgMap&#45;&gt;Options(padding) -->
<g id="edge8" class="edge">
<title>ArgMap&#45;&gt;Options(padding)</title>
<path fill="none" stroke="purple" d="M380.15,-27.24C414.4,-36.51 467.78,-50.95 508.87,-62.06"/>
<polygon fill="purple" stroke="purple" points="508.2,-65.5 518.77,-64.74 510.03,-58.75 508.2,-65.5"/>
</g>
<!-- DataFormat(data_format)&#45;&gt;Schema -->
<g id="edge15" class="edge">
<title>DataFormat(data_format)&#45;&gt;Schema</title>
<path fill="none" stroke="black" d="M642.42,-34.56C652.72,-38.6 662.6,-43.94 670.85,-51 711.01,-85.34 730.73,-146.19 739.26,-181.83"/>
<polygon fill="black" stroke="black" points="735.95,-183.04 741.56,-192.02 742.77,-181.5 735.95,-183.04"/>
</g>
<!-- Options(padding)&#45;&gt;Schema -->
<g id="edge22" class="edge">
<title>Options(padding)&#45;&gt;Schema</title>
<path fill="none" stroke="black" d="M630.51,-87.65C644.59,-91.77 658.93,-97.64 670.85,-106 698.92,-125.67 720.08,-159.54 732.44,-183.27"/>
<polygon fill="black" stroke="black" points="729.43,-185.07 737.04,-192.44 735.68,-181.93 729.43,-185.07"/>
</g>
<!-- Inventory -->
<g id="node13" class="node">
<title>Inventory</title>
<ellipse fill="none" stroke="black" cx="44.85" cy="-111" rx="44.69" ry="18"/>
<text text-anchor="middle" x="44.85" y="-107.3" font-family="Times,serif" font-size="14.00">Inventory</text>
</g>
<!-- Inventory&#45;&gt;ShapeMap -->
<g id="edge10" class="edge">
<title>Inventory&#45;&gt;ShapeMap</title>
<path fill="none" stroke="black" d="M63.05,-127.59C85.12,-148.86 123.55,-185.9 148.74,-210.19"/>
<polygon fill="black" stroke="black" points="146.47,-212.86 156.1,-217.28 151.32,-207.82 146.47,-212.86"/>
</g>
<!-- Inventory&#45;&gt;DTypes -->
<g id="edge9" class="edge">
<title>Inventory&#45;&gt;DTypes</title>
<path fill="none" stroke="black" d="M89.76,-111C101.35,-111 113.92,-111 125.71,-111"/>
<polygon fill="black" stroke="black" points="125.82,-114.5 135.82,-111 125.82,-107.5 125.82,-114.5"/>
</g>
<!-- Inventory&#45;&gt;ArgMap -->
<g id="edge11" class="edge">
<title>Inventory&#45;&gt;ArgMap</title>
<path fill="none" stroke="black" d="M79.57,-99.33C93.77,-94.48 110.5,-88.86 125.69,-84 186.03,-64.68 256.24,-43.72 300.39,-30.73"/>
<polygon fill="black" stroke="black" points="301.61,-34.02 310.22,-27.84 299.63,-27.3 301.61,-34.02"/>
</g>
<!-- GetReturnTensors -->
<g id="node14" class="node">
<title>GetReturnTensors</title>
<ellipse fill="none" stroke="black" cx="568.81" cy="-279" rx="75.29" ry="18"/>
<text text-anchor="middle" x="568.81" y="-275.3" font-family="Times,serif" font-size="14.00">GetReturnTensors</text>
</g>
<!-- GetReturnTensors&#45;&gt;Schema -->
<g id="edge12" class="edge">
<title>GetReturnTensors&#45;&gt;Schema</title>
<path fill="none" stroke="black" d="M618.16,-265.38C635.03,-260.18 653.97,-253.84 670.85,-247 684.21,-241.58 698.48,-234.72 710.88,-228.38"/>
<polygon fill="black" stroke="black" points="712.69,-231.39 719.96,-223.67 709.47,-225.17 712.69,-231.39"/>
</g>
<!-- ValidReturnShapes -->
<g id="node15" class="node">
<title>ValidReturnShapes</title>
<ellipse fill="none" stroke="black" cx="344.98" cy="-288" rx="77.99" ry="18"/>
<text text-anchor="middle" x="344.98" y="-284.3" font-family="Times,serif" font-size="14.00">ValidReturnShapes</text>
</g>
<!-- ValidReturnShapes&#45;&gt;Schema -->
<g id="edge13" class="edge">
<title>ValidReturnShapes&#45;&gt;Schema</title>
<path fill="none" stroke="black" d="M390.05,-273.25C412.76,-266.06 441.03,-257.75 466.77,-252 546.9,-234.1 641.75,-221.59 697.4,-215.12"/>
<polygon fill="black" stroke="black" points="698.12,-218.56 707.66,-213.94 697.32,-211.6 698.12,-218.56"/>
</g>
<!-- ValidReturnShapes&#45;&gt;GetReturnTensors -->
<g id="edge14" class="edge">
<title>ValidReturnShapes&#45;&gt;GetReturnTensors</title>
<path fill="none" stroke="black" d="M422.01,-284.92C441.96,-284.11 463.6,-283.23 483.94,-282.4"/>
<polygon fill="black" stroke="black" points="484.28,-285.89 494.13,-281.99 483.99,-278.9 484.28,-285.89"/>
</g>
<!-- DataTensor(input)&#45;&gt;Schema -->
<g id="edge16" class="edge">
<title>DataTensor(input)&#45;&gt;Schema</title>
<path fill="none" stroke="black" d="M635.48,-195.63C656.21,-198.35 678.67,-201.3 697.82,-203.82"/>
<polygon fill="black" stroke="black" points="697.43,-207.3 707.8,-205.13 698.34,-200.36 697.43,-207.3"/>
</g>
<!-- DataTensor(filters)&#45;&gt;Schema -->
<g id="edge19" class="edge">
<title>DataTensor(filters)&#45;&gt;Schema</title>
<path fill="none" stroke="black" d="M627.61,-144.91C642.07,-148.84 657.3,-153.82 670.85,-160 687.28,-167.49 704.08,-178.52 717.51,-188.31"/>
<polygon fill="black" stroke="black" points="715.71,-191.33 725.81,-194.52 719.9,-185.73 715.71,-191.33"/>
</g>
</g>
</svg>
