<?xml version="1.0" encoding="UTF-8" standalone="no"?>
<!DOCTYPE svg PUBLIC "-//W3C//DTD SVG 1.1//EN"
 "http://www.w3.org/Graphics/SVG/1.1/DTD/svg11.dtd">
<!-- Generated by graphviz version 2.43.0 (0)
 -->
<!-- Title: %3 Pages: 1 -->
<svg width="1406pt" height="682pt"
 viewBox="0.00 0.00 1405.60 682.00" xmlns="http://www.w3.org/2000/svg" xmlns:xlink="http://www.w3.org/1999/xlink">
<g id="graph0" class="graph" transform="scale(1 1) rotate(0) translate(4 678)">
<title>%3</title>
<polygon fill="white" stroke="transparent" points="-4,4 -4,-678 1401.6,-678 1401.6,4 -4,4"/>
<!-- ObservedValue(dtypes) -->
<g id="node1" class="node">
<title>ObservedValue(dtypes)</title>
<ellipse fill="none" stroke="black" cx="773.14" cy="-656" rx="92.88" ry="18"/>
<text text-anchor="middle" x="773.14" y="-652.3" font-family="Times,serif" font-size="14.00">ObservedValue(dtypes)</text>
</g>
<!-- ObservedValue(shapes) -->
<g id="node2" class="node">
<title>ObservedValue(shapes)</title>
<ellipse fill="none" stroke="black" cx="773.14" cy="-72" rx="93.68" ry="18"/>
<text text-anchor="middle" x="773.14" y="-68.3" font-family="Times,serif" font-size="14.00">ObservedValue(shapes)</text>
</g>
<!-- ObservedValue(args) -->
<g id="node3" class="node">
<title>ObservedValue(args)</title>
<ellipse fill="none" stroke="black" cx="430.12" cy="-164" rx="85.29" ry="18"/>
<text text-anchor="middle" x="430.12" y="-160.3" font-family="Times,serif" font-size="14.00">ObservedValue(args)</text>
</g>
<!-- Layout(layout) -->
<g id="node4" class="node">
<title>Layout(layout)</title>
<ellipse fill="none" stroke="black" cx="1294.9" cy="-149" rx="63.89" ry="18"/>
<text text-anchor="middle" x="1294.9" y="-145.3" font-family="Times,serif" font-size="14.00">Layout(layout)</text>
</g>
<!-- IndexRanks -->
<g id="node5" class="node">
<title>IndexRanks</title>
<ellipse fill="none" stroke="black" cx="773.14" cy="-412" rx="52.79" ry="18"/>
<text text-anchor="middle" x="773.14" y="-408.3" font-family="Times,serif" font-size="14.00">IndexRanks</text>
</g>
<!-- RankRange(batch) -->
<g id="node6" class="node">
<title>RankRange(batch)</title>
<ellipse fill="none" stroke="black" cx="1029.47" cy="-418" rx="76.89" ry="18"/>
<text text-anchor="middle" x="1029.47" y="-414.3" font-family="Times,serif" font-size="14.00">RankRange(batch)</text>
</g>
<!-- IndexRanks&#45;&gt;RankRange(batch) -->
<g id="edge1" class="edge">
<title>IndexRanks&#45;&gt;RankRange(batch)</title>
<path fill="none" stroke="purple" d="M825.92,-413.22C859.52,-414.01 904.1,-415.07 942.89,-415.98"/>
<polygon fill="purple" stroke="purple" points="943.06,-419.49 953.14,-416.22 943.22,-412.49 943.06,-419.49"/>
</g>
<!-- RankRange(input_spatial) -->
<g id="node7" class="node">
<title>RankRange(input_spatial)</title>
<ellipse fill="none" stroke="black" cx="1294.9" cy="-614" rx="102.88" ry="18"/>
<text text-anchor="middle" x="1294.9" y="-610.3" font-family="Times,serif" font-size="14.00">RankRange(input_spatial)</text>
</g>
<!-- IndexRanks&#45;&gt;RankRange(input_spatial) -->
<g id="edge2" class="edge">
<title>IndexRanks&#45;&gt;RankRange(input_spatial)</title>
<path fill="none" stroke="purple" d="M784.62,-429.83C803.77,-460.63 847.58,-523.36 902.74,-553 989.19,-599.45 1100.9,-613.06 1182.8,-616.02"/>
<polygon fill="purple" stroke="purple" points="1182.78,-619.52 1192.88,-616.33 1183,-612.52 1182.78,-619.52"/>
</g>
<!-- RankRange(input_channel) -->
<g id="node8" class="node">
<title>RankRange(input_channel)</title>
<ellipse fill="none" stroke="black" cx="1029.47" cy="-364" rx="107.48" ry="18"/>
<text text-anchor="middle" x="1029.47" y="-360.3" font-family="Times,serif" font-size="14.00">RankRange(input_channel)</text>
</g>
<!-- IndexRanks&#45;&gt;RankRange(input_channel) -->
<g id="edge3" class="edge">
<title>IndexRanks&#45;&gt;RankRange(input_channel)</title>
<path fill="none" stroke="purple" d="M819.61,-403.42C855.06,-396.73 905.2,-387.27 947.47,-379.29"/>
<polygon fill="purple" stroke="purple" points="948.29,-382.69 957.47,-377.4 947,-375.82 948.29,-382.69"/>
</g>
<!-- RankEquiv(output_spatial) -->
<g id="node9" class="node">
<title>RankEquiv(output_spatial)</title>
<ellipse fill="none" stroke="black" cx="1029.47" cy="-656" rx="105.88" ry="18"/>
<text text-anchor="middle" x="1029.47" y="-652.3" font-family="Times,serif" font-size="14.00">RankEquiv(output_spatial)</text>
</g>
<!-- IndexRanks&#45;&gt;RankEquiv(output_spatial) -->
<g id="edge4" class="edge">
<title>IndexRanks&#45;&gt;RankEquiv(output_spatial)</title>
<path fill="none" stroke="purple" d="M783.78,-429.73C802.85,-463.54 848.29,-538.13 902.74,-586 925.53,-606.04 955.01,-622.82 979.69,-634.93"/>
<polygon fill="purple" stroke="purple" points="978.36,-638.17 988.89,-639.34 981.38,-631.86 978.36,-638.17"/>
</g>
<!-- RankRange(output_flattened) -->
<g id="node10" class="node">
<title>RankRange(output_flattened)</title>
<ellipse fill="none" stroke="black" cx="1029.47" cy="-310" rx="115.08" ry="18"/>
<text text-anchor="middle" x="1029.47" y="-306.3" font-family="Times,serif" font-size="14.00">RankRange(output_flattened)</text>
</g>
<!-- IndexRanks&#45;&gt;RankRange(output_flattened) -->
<g id="edge5" class="edge">
<title>IndexRanks&#45;&gt;RankRange(output_flattened)</title>
<path fill="none" stroke="purple" d="M796.72,-395.84C821.56,-378.79 863.22,-352.32 902.74,-337 914.4,-332.48 926.98,-328.64 939.52,-325.41"/>
<polygon fill="purple" stroke="purple" points="940.67,-328.73 949.54,-322.95 939,-321.93 940.67,-328.73"/>
</g>
<!-- RankRange(vect_c_channel) -->
<g id="node11" class="node">
<title>RankRange(vect_c_channel)</title>
<ellipse fill="none" stroke="black" cx="1029.47" cy="-256" rx="112.38" ry="18"/>
<text text-anchor="middle" x="1029.47" y="-252.3" font-family="Times,serif" font-size="14.00">RankRange(vect_c_channel)</text>
</g>
<!-- IndexRanks&#45;&gt;RankRange(vect_c_channel) -->
<g id="edge6" class="edge">
<title>IndexRanks&#45;&gt;RankRange(vect_c_channel)</title>
<path fill="none" stroke="purple" d="M786.48,-394.2C807.09,-365.9 851.38,-311.01 902.74,-283 912.12,-277.88 922.38,-273.74 932.88,-270.38"/>
<polygon fill="purple" stroke="purple" points="933.97,-273.71 942.56,-267.51 931.98,-266.99 933.97,-273.71"/>
</g>
<!-- RankRange(block_size) -->
<g id="node12" class="node">
<title>RankRange(block_size)</title>
<ellipse fill="none" stroke="black" cx="1029.47" cy="-526" rx="94.78" ry="18"/>
<text text-anchor="middle" x="1029.47" y="-522.3" font-family="Times,serif" font-size="14.00">RankRange(block_size)</text>
</g>
<!-- IndexRanks&#45;&gt;RankRange(block_size) -->
<g id="edge7" class="edge">
<title>IndexRanks&#45;&gt;RankRange(block_size)</title>
<path fill="none" stroke="purple" d="M793.66,-428.77C817.71,-448.56 860.59,-481.02 902.74,-499 915.83,-504.59 930.21,-509.07 944.42,-512.64"/>
<polygon fill="purple" stroke="purple" points="943.67,-516.06 954.21,-514.98 945.29,-509.25 943.67,-516.06"/>
</g>
<!-- RankRange(squared_block_size) -->
<g id="node13" class="node">
<title>RankRange(squared_block_size)</title>
<ellipse fill="none" stroke="black" cx="1029.47" cy="-472" rx="126.98" ry="18"/>
<text text-anchor="middle" x="1029.47" y="-468.3" font-family="Times,serif" font-size="14.00">RankRange(squared_block_size)</text>
</g>
<!-- IndexRanks&#45;&gt;RankRange(squared_block_size) -->
<g id="edge8" class="edge">
<title>IndexRanks&#45;&gt;RankRange(squared_block_size)</title>
<path fill="none" stroke="purple" d="M815.16,-422.97C840.36,-429.6 873.35,-438.08 902.74,-445 917.04,-448.37 932.3,-451.79 947.08,-455.01"/>
<polygon fill="purple" stroke="purple" points="946.7,-458.51 957.21,-457.21 948.18,-451.67 946.7,-458.51"/>
</g>
<!-- RankEquiv(output_spatial)&#45;&gt;RankRange(input_spatial) -->
<g id="edge27" class="edge">
<title>RankEquiv(output_spatial)&#45;&gt;RankRange(input_spatial)</title>
<path fill="none" stroke="black" d="M1107.38,-643.74C1139.03,-638.69 1175.83,-632.83 1208.33,-627.64"/>
<polygon fill="black" stroke="black" points="1208.95,-631.09 1218.27,-626.06 1207.84,-624.18 1208.95,-631.09"/>
</g>
<!-- DTypes -->
<g id="node14" class="node">
<title>DTypes</title>
<ellipse fill="none" stroke="black" cx="597.41" cy="-511" rx="38.19" ry="18"/>
<text text-anchor="middle" x="597.41" y="-507.3" font-family="Times,serif" font-size="14.00">DTypes</text>
</g>
<!-- DTypes&#45;&gt;ObservedValue(dtypes) -->
<g id="edge9" class="edge">
<title>DTypes&#45;&gt;ObservedValue(dtypes)</title>
<path fill="none" stroke="black" d="M606.61,-528.51C619.03,-553.21 644.89,-598.17 679.55,-624 687.14,-629.66 695.81,-634.37 704.73,-638.27"/>
<polygon fill="black" stroke="black" points="703.49,-641.55 714.08,-642.06 706.12,-635.06 703.49,-641.55"/>
</g>
<!-- DTypes&#45;&gt;Layout(layout) -->
<g id="edge11" class="edge">
<title>DTypes&#45;&gt;Layout(layout)</title>
<path fill="none" stroke="black" d="M624.88,-523.79C710.97,-563.34 987.21,-673.95 1156.21,-553 1281.13,-463.6 1294.03,-254.07 1294.41,-177.59"/>
<polygon fill="black" stroke="black" points="1297.91,-177.29 1294.39,-167.3 1290.91,-177.31 1297.91,-177.29"/>
</g>
<!-- DTypes&#45;&gt;IndexRanks -->
<g id="edge10" class="edge">
<title>DTypes&#45;&gt;IndexRanks</title>
<path fill="none" stroke="black" d="M622.56,-497.23C652.09,-480.41 702.32,-451.79 736.34,-432.4"/>
<polygon fill="black" stroke="black" points="738.1,-435.43 745.05,-427.44 734.63,-429.35 738.1,-435.43"/>
</g>
<!-- SigMap -->
<g id="node15" class="node">
<title>SigMap</title>
<ellipse fill="none" stroke="black" cx="773.14" cy="-126" rx="38.99" ry="18"/>
<text text-anchor="middle" x="773.14" y="-122.3" font-family="Times,serif" font-size="14.00">SigMap</text>
</g>
<!-- Sig(input) -->
<g id="node16" class="node">
<title>Sig(input)</title>
<ellipse fill="none" stroke="black" cx="1029.47" cy="-18" rx="46.29" ry="18"/>
<text text-anchor="middle" x="1029.47" y="-14.3" font-family="Times,serif" font-size="14.00">Sig(input)</text>
</g>
<!-- SigMap&#45;&gt;Sig(input) -->
<g id="edge12" class="edge">
<title>SigMap&#45;&gt;Sig(input)</title>
<path fill="none" stroke="purple" d="M811.06,-121.3C829.18,-117.57 850.54,-110.89 866.74,-99 889.99,-81.93 878.88,-61.22 902.74,-45 923.32,-31 949.83,-24.08 973.19,-20.72"/>
<polygon fill="purple" stroke="purple" points="973.84,-24.16 983.33,-19.45 972.97,-17.22 973.84,-24.16"/>
</g>
<!-- Sig(block_size) -->
<g id="node17" class="node">
<title>Sig(block_size)</title>
<ellipse fill="none" stroke="black" cx="1029.47" cy="-126" rx="65.79" ry="18"/>
<text text-anchor="middle" x="1029.47" y="-122.3" font-family="Times,serif" font-size="14.00">Sig(block_size)</text>
</g>
<!-- SigMap&#45;&gt;Sig(block_size) -->
<g id="edge13" class="edge">
<title>SigMap&#45;&gt;Sig(block_size)</title>
<path fill="none" stroke="purple" d="M812.22,-126C849.4,-126 907,-126 953.41,-126"/>
<polygon fill="purple" stroke="purple" points="953.43,-129.5 963.43,-126 953.43,-122.5 953.43,-129.5"/>
</g>
<!-- Sig(return[0]) -->
<g id="node18" class="node">
<title>Sig(return[0])</title>
<ellipse fill="none" stroke="black" cx="1029.47" cy="-72" rx="59.59" ry="18"/>
<text text-anchor="middle" x="1029.47" y="-68.3" font-family="Times,serif" font-size="14.00">Sig(return[0])</text>
</g>
<!-- SigMap&#45;&gt;Sig(return[0]) -->
<g id="edge14" class="edge">
<title>SigMap&#45;&gt;Sig(return[0])</title>
<path fill="none" stroke="purple" d="M808.97,-118.6C850.47,-109.8 920.41,-94.94 970.19,-84.37"/>
<polygon fill="purple" stroke="purple" points="971.12,-87.76 980.18,-82.25 969.67,-80.91 971.12,-87.76"/>
</g>
<!-- Sig(input)&#45;&gt;Layout(layout) -->
<g id="edge31" class="edge">
<title>Sig(input)&#45;&gt;Layout(layout)</title>
<path fill="none" stroke="black" d="M1074.15,-22.62C1099.04,-26.41 1130.33,-33.15 1156.21,-45 1199.91,-65 1242.9,-100.77 1268.92,-124.69"/>
<polygon fill="black" stroke="black" points="1266.74,-127.44 1276.43,-131.7 1271.51,-122.32 1266.74,-127.44"/>
</g>
<!-- Sig(block_size)&#45;&gt;Layout(layout) -->
<g id="edge32" class="edge">
<title>Sig(block_size)&#45;&gt;Layout(layout)</title>
<path fill="none" stroke="black" d="M1092.24,-131.39C1131.63,-134.83 1182.79,-139.3 1223.72,-142.87"/>
<polygon fill="black" stroke="black" points="1223.62,-146.38 1233.89,-143.76 1224.23,-139.4 1223.62,-146.38"/>
</g>
<!-- Sig(return[0])&#45;&gt;Layout(layout) -->
<g id="edge33" class="edge">
<title>Sig(return[0])&#45;&gt;Layout(layout)</title>
<path fill="none" stroke="black" d="M1081.04,-81.22C1104.14,-85.84 1131.75,-91.97 1156.21,-99 1187.45,-107.98 1221.82,-120.46 1248.4,-130.7"/>
<polygon fill="black" stroke="black" points="1247.23,-134 1257.82,-134.36 1249.77,-127.48 1247.23,-134"/>
</g>
<!-- ArgIndels -->
<g id="node19" class="node">
<title>ArgIndels</title>
<ellipse fill="none" stroke="black" cx="597.41" cy="-126" rx="46.29" ry="18"/>
<text text-anchor="middle" x="597.41" y="-122.3" font-family="Times,serif" font-size="14.00">ArgIndels</text>
</g>
<!-- ArgIndels&#45;&gt;ObservedValue(shapes) -->
<g id="edge17" class="edge">
<title>ArgIndels&#45;&gt;ObservedValue(shapes)</title>
<path fill="none" stroke="black" d="M632.67,-114.28C647.1,-109.43 664.1,-103.82 679.55,-99 689.36,-95.94 699.79,-92.79 709.98,-89.78"/>
<polygon fill="black" stroke="black" points="711.04,-93.12 719.65,-86.94 709.07,-86.4 711.04,-93.12"/>
</g>
<!-- ArgIndels&#45;&gt;Layout(layout) -->
<g id="edge18" class="edge">
<title>ArgIndels&#45;&gt;Layout(layout)</title>
<path fill="none" stroke="black" d="M629.8,-139.06C644.61,-144.54 662.7,-150.27 679.55,-153 888.68,-186.88 944.39,-156.08 1156.21,-153 1177.38,-152.69 1200.37,-152.12 1221.39,-151.5"/>
<polygon fill="black" stroke="black" points="1221.65,-155 1231.54,-151.2 1221.44,-148 1221.65,-155"/>
</g>
<!-- ArgIndels&#45;&gt;IndexRanks -->
<g id="edge15" class="edge">
<title>ArgIndels&#45;&gt;IndexRanks</title>
<path fill="none" stroke="black" d="M609.01,-143.46C638.39,-191.83 720.98,-327.77 756.06,-385.52"/>
<polygon fill="black" stroke="black" points="753.27,-387.68 761.46,-394.41 759.26,-384.04 753.27,-387.68"/>
</g>
<!-- ArgIndels&#45;&gt;SigMap -->
<g id="edge16" class="edge">
<title>ArgIndels&#45;&gt;SigMap</title>
<path fill="none" stroke="black" d="M643.6,-126C668.26,-126 698.78,-126 723.89,-126"/>
<polygon fill="black" stroke="black" points="723.94,-129.5 733.94,-126 723.94,-122.5 723.94,-129.5"/>
</g>
<!-- IndexUsage -->
<g id="node20" class="node">
<title>IndexUsage</title>
<ellipse fill="none" stroke="black" cx="430.12" cy="-110" rx="52.79" ry="18"/>
<text text-anchor="middle" x="430.12" y="-106.3" font-family="Times,serif" font-size="14.00">IndexUsage</text>
</g>
<!-- IndexUsage&#45;&gt;ObservedValue(shapes) -->
<g id="edge21" class="edge">
<title>IndexUsage&#45;&gt;ObservedValue(shapes)</title>
<path fill="none" stroke="black" d="M480.34,-104.52C532.78,-98.67 616.95,-89.29 681.45,-82.11"/>
<polygon fill="black" stroke="black" points="682.07,-85.56 691.62,-80.97 681.3,-78.6 682.07,-85.56"/>
</g>
<!-- IndexUsage&#45;&gt;IndexRanks -->
<g id="edge19" class="edge">
<title>IndexUsage&#45;&gt;IndexRanks</title>
<path fill="none" stroke="black" d="M474.93,-119.48C488.5,-123.59 503.08,-129.28 515.26,-137 623.98,-205.92 717.52,-331.65 754.84,-385.92"/>
<polygon fill="black" stroke="black" points="752.02,-388 760.54,-394.3 757.81,-384.06 752.02,-388"/>
</g>
<!-- IndexUsage&#45;&gt;ArgIndels -->
<g id="edge20" class="edge">
<title>IndexUsage&#45;&gt;ArgIndels</title>
<path fill="none" stroke="black" d="M481.16,-114.84C500.5,-116.72 522.67,-118.86 542.37,-120.77"/>
<polygon fill="black" stroke="black" points="542.13,-124.26 552.42,-121.74 542.8,-117.29 542.13,-124.26"/>
</g>
<!-- IndexConstraints -->
<g id="node21" class="node">
<title>IndexConstraints</title>
<ellipse fill="none" stroke="black" cx="206.93" cy="-160" rx="70.69" ry="18"/>
<text text-anchor="middle" x="206.93" y="-156.3" font-family="Times,serif" font-size="14.00">IndexConstraints</text>
</g>
<!-- IndexConstraints&#45;&gt;ObservedValue(args) -->
<g id="edge23" class="edge">
<title>IndexConstraints&#45;&gt;ObservedValue(args)</title>
<path fill="none" stroke="black" d="M277.62,-161.26C295.84,-161.59 315.79,-161.95 335.05,-162.3"/>
<polygon fill="black" stroke="black" points="334.99,-165.8 345.05,-162.48 335.12,-158.8 334.99,-165.8"/>
</g>
<!-- IndexConstraints&#45;&gt;IndexUsage -->
<g id="edge22" class="edge">
<title>IndexConstraints&#45;&gt;IndexUsage</title>
<path fill="none" stroke="black" d="M260.35,-148.15C295.12,-140.29 340.6,-130.01 375.59,-122.1"/>
<polygon fill="black" stroke="black" points="376.65,-125.45 385.63,-119.83 375.1,-118.62 376.65,-125.45"/>
</g>
<!-- Report -->
<g id="node22" class="node">
<title>Report</title>
<ellipse fill="none" stroke="black" cx="34.45" cy="-214" rx="34.39" ry="18"/>
<text text-anchor="middle" x="34.45" y="-210.3" font-family="Times,serif" font-size="14.00">Report</text>
</g>
<!-- Report&#45;&gt;DTypes -->
<g id="edge24" class="edge">
<title>Report&#45;&gt;DTypes</title>
<path fill="none" stroke="black" d="M59.19,-226.57C147.66,-273.41 458.38,-437.92 562.28,-492.93"/>
<polygon fill="black" stroke="black" points="560.91,-496.17 571.39,-497.75 564.19,-489.98 560.91,-496.17"/>
</g>
<!-- Report&#45;&gt;IndexConstraints -->
<g id="edge25" class="edge">
<title>Report&#45;&gt;IndexConstraints</title>
<path fill="none" stroke="black" d="M61.91,-202.92C74.77,-197.75 90.51,-191.7 104.89,-187 117.95,-182.73 132.11,-178.63 145.58,-174.97"/>
<polygon fill="black" stroke="black" points="146.49,-178.35 155.25,-172.38 144.68,-171.58 146.49,-178.35"/>
</g>
<!-- DataFormat(data_format) -->
<g id="node23" class="node">
<title>DataFormat(data_format)</title>
<ellipse fill="none" stroke="black" cx="206.93" cy="-214" rx="102.08" ry="18"/>
<text text-anchor="middle" x="206.93" y="-210.3" font-family="Times,serif" font-size="14.00">DataFormat(data_format)</text>
</g>
<!-- Report&#45;&gt;DataFormat(data_format) -->
<g id="edge26" class="edge">
<title>Report&#45;&gt;DataFormat(data_format)</title>
<path fill="none" stroke="blue" d="M69.13,-214C76.9,-214 85.58,-214 94.7,-214"/>
<polygon fill="blue" stroke="blue" points="94.75,-217.5 104.75,-214 94.75,-210.5 94.75,-217.5"/>
</g>
<!-- DataFormat(data_format)&#45;&gt;ObservedValue(args) -->
<g id="edge30" class="edge">
<title>DataFormat(data_format)&#45;&gt;ObservedValue(args)</title>
<path fill="none" stroke="black" d="M270.43,-199.87C298.77,-193.47 332.34,-185.88 361.29,-179.33"/>
<polygon fill="black" stroke="black" points="362.34,-182.68 371.33,-177.06 360.8,-175.86 362.34,-182.68"/>
</g>
<!-- DataFormat(data_format)&#45;&gt;Layout(layout) -->
<g id="edge29" class="edge">
<title>DataFormat(data_format)&#45;&gt;Layout(layout)</title>
<path fill="none" stroke="black" d="M308.95,-212.39C387.35,-211.28 498.78,-210 596.41,-210 596.41,-210 596.41,-210 774.14,-210 940.65,-210 1135.13,-178.74 1232.2,-160.97"/>
<polygon fill="black" stroke="black" points="1232.93,-164.4 1242.13,-159.14 1231.66,-157.51 1232.93,-164.4"/>
</g>
<!-- DataFormat(data_format)&#45;&gt;IndexRanks -->
<g id="edge28" class="edge">
<title>DataFormat(data_format)&#45;&gt;IndexRanks</title>
<path fill="none" stroke="black" d="M253.63,-230.04C359.46,-267.17 620.41,-358.75 726.34,-395.93"/>
<polygon fill="black" stroke="black" points="725.21,-399.24 735.8,-399.25 727.53,-392.63 725.21,-399.24"/>
</g>
</g>
</svg>
