<?xml version="1.0" encoding="UTF-8" standalone="no"?>
<!DOCTYPE svg PUBLIC "-//W3C//DTD SVG 1.1//EN"
 "http://www.w3.org/Graphics/SVG/1.1/DTD/svg11.dtd">
<!-- Generated by graphviz version 2.43.0 (0)
 -->
<!-- Title: %3 Pages: 1 -->
<svg width="1373pt" height="844pt"
 viewBox="0.00 0.00 1373.10 844.00" xmlns="http://www.w3.org/2000/svg" xmlns:xlink="http://www.w3.org/1999/xlink">
<g id="graph0" class="graph" transform="scale(1 1) rotate(0) translate(4 840)">
<title>%3</title>
<polygon fill="white" stroke="transparent" points="-4,4 -4,-840 1369.1,-840 1369.1,4 -4,4"/>
<!-- ObservedValue(dtypes) -->
<g id="node1" class="node">
<title>ObservedValue(dtypes)</title>
<ellipse fill="none" stroke="black" cx="714.65" cy="-537" rx="92.88" ry="18"/>
<text text-anchor="middle" x="714.65" y="-533.3" font-family="Times,serif" font-size="14.00">ObservedValue(dtypes)</text>
</g>
<!-- ObservedValue(shapes) -->
<g id="node2" class="node">
<title>ObservedValue(shapes)</title>
<ellipse fill="none" stroke="black" cx="714.65" cy="-145" rx="93.68" ry="18"/>
<text text-anchor="middle" x="714.65" y="-141.3" font-family="Times,serif" font-size="14.00">ObservedValue(shapes)</text>
</g>
<!-- ObservedValue(args) -->
<g id="node3" class="node">
<title>ObservedValue(args)</title>
<ellipse fill="none" stroke="black" cx="371.62" cy="-272" rx="85.29" ry="18"/>
<text text-anchor="middle" x="371.62" y="-268.3" font-family="Times,serif" font-size="14.00">ObservedValue(args)</text>
</g>
<!-- Layout(layout) -->
<g id="node4" class="node">
<title>Layout(layout)</title>
<ellipse fill="none" stroke="black" cx="1262.41" cy="-207" rx="63.89" ry="18"/>
<text text-anchor="middle" x="1262.41" y="-203.3" font-family="Times,serif" font-size="14.00">Layout(layout)</text>
</g>
<!-- IndexRanks -->
<g id="node5" class="node">
<title>IndexRanks</title>
<ellipse fill="none" stroke="black" cx="714.65" cy="-483" rx="52.79" ry="18"/>
<text text-anchor="middle" x="714.65" y="-479.3" font-family="Times,serif" font-size="14.00">IndexRanks</text>
</g>
<!-- RankRange(batch) -->
<g id="node6" class="node">
<title>RankRange(batch)</title>
<ellipse fill="none" stroke="black" cx="983.98" cy="-402" rx="76.89" ry="18"/>
<text text-anchor="middle" x="983.98" y="-398.3" font-family="Times,serif" font-size="14.00">RankRange(batch)</text>
</g>
<!-- IndexRanks&#45;&gt;RankRange(batch) -->
<g id="edge1" class="edge">
<title>IndexRanks&#45;&gt;RankRange(batch)</title>
<path fill="none" stroke="purple" d="M745.66,-468.32C771.31,-456.28 809.49,-439.56 844.24,-429 864.92,-422.72 887.78,-417.57 908.89,-413.51"/>
<polygon fill="purple" stroke="purple" points="909.58,-416.94 918.76,-411.66 908.29,-410.06 909.58,-416.94"/>
</g>
<!-- RankRange(input_spatial) -->
<g id="node7" class="node">
<title>RankRange(input_spatial)</title>
<ellipse fill="none" stroke="black" cx="1262.41" cy="-726" rx="102.88" ry="18"/>
<text text-anchor="middle" x="1262.41" y="-722.3" font-family="Times,serif" font-size="14.00">RankRange(input_spatial)</text>
</g>
<!-- IndexRanks&#45;&gt;RankRange(input_spatial) -->
<g id="edge2" class="edge">
<title>IndexRanks&#45;&gt;RankRange(input_spatial)</title>
<path fill="none" stroke="purple" d="M766.08,-487.14C781.69,-490.92 797.57,-497.76 808.24,-510 879.99,-592.29 761.58,-681.68 844.24,-753 894.21,-796.12 1083.76,-764.34 1189.32,-742.32"/>
<polygon fill="purple" stroke="purple" points="1190.2,-745.71 1199.26,-740.22 1188.76,-738.86 1190.2,-745.71"/>
</g>
<!-- RankRange(input_channel) -->
<g id="node8" class="node">
<title>RankRange(input_channel)</title>
<ellipse fill="none" stroke="black" cx="983.98" cy="-672" rx="107.48" ry="18"/>
<text text-anchor="middle" x="983.98" y="-668.3" font-family="Times,serif" font-size="14.00">RankRange(input_channel)</text>
</g>
<!-- IndexRanks&#45;&gt;RankRange(input_channel) -->
<g id="edge3" class="edge">
<title>IndexRanks&#45;&gt;RankRange(input_channel)</title>
<path fill="none" stroke="purple" d="M765.78,-487.98C781.18,-491.83 797.01,-498.5 808.24,-510 851.64,-554.41 798.86,-602.62 844.24,-645 852.41,-652.63 862.07,-658.4 872.42,-662.73"/>
<polygon fill="purple" stroke="purple" points="871.51,-666.12 882.1,-666.31 873.94,-659.56 871.51,-666.12"/>
</g>
<!-- RankEquiv(filter_spatial) -->
<g id="node9" class="node">
<title>RankEquiv(filter_spatial)</title>
<ellipse fill="none" stroke="black" cx="983.98" cy="-726" rx="100.98" ry="18"/>
<text text-anchor="middle" x="983.98" y="-722.3" font-family="Times,serif" font-size="14.00">RankEquiv(filter_spatial)</text>
</g>
<!-- IndexRanks&#45;&gt;RankEquiv(filter_spatial) -->
<g id="edge4" class="edge">
<title>IndexRanks&#45;&gt;RankEquiv(filter_spatial)</title>
<path fill="none" stroke="purple" d="M765.79,-487.4C781.38,-491.19 797.32,-497.98 808.24,-510 865.75,-573.28 783.9,-638.41 844.24,-699 853.12,-707.92 864.01,-714.34 875.75,-718.92"/>
<polygon fill="purple" stroke="purple" points="874.73,-722.27 885.33,-722.21 877.01,-715.65 874.73,-722.27"/>
</g>
<!-- RankEquiv(dilated_filter_spatial) -->
<g id="node10" class="node">
<title>RankEquiv(dilated_filter_spatial)</title>
<ellipse fill="none" stroke="black" cx="983.98" cy="-618" rx="128.88" ry="18"/>
<text text-anchor="middle" x="983.98" y="-614.3" font-family="Times,serif" font-size="14.00">RankEquiv(dilated_filter_spatial)</text>
</g>
<!-- IndexRanks&#45;&gt;RankEquiv(dilated_filter_spatial) -->
<g id="edge5" class="edge">
<title>IndexRanks&#45;&gt;RankEquiv(dilated_filter_spatial)</title>
<path fill="none" stroke="purple" d="M764.76,-489.06C780.09,-492.98 796.14,-499.42 808.24,-510 837.91,-535.92 813.42,-566.46 844.24,-591 850.93,-596.33 858.38,-600.71 866.24,-604.29"/>
<polygon fill="purple" stroke="purple" points="865.06,-607.59 875.64,-608.15 867.72,-601.12 865.06,-607.59"/>
</g>
<!-- RankRange(output_channel) -->
<g id="node11" class="node">
<title>RankRange(output_channel)</title>
<ellipse fill="none" stroke="black" cx="983.98" cy="-510" rx="111.58" ry="18"/>
<text text-anchor="middle" x="983.98" y="-506.3" font-family="Times,serif" font-size="14.00">RankRange(output_channel)</text>
</g>
<!-- IndexRanks&#45;&gt;RankRange(output_channel) -->
<g id="edge6" class="edge">
<title>IndexRanks&#45;&gt;RankRange(output_channel)</title>
<path fill="none" stroke="purple" d="M765.31,-488.02C797.12,-491.23 839.6,-495.52 878.59,-499.46"/>
<polygon fill="purple" stroke="purple" points="878.65,-502.98 888.95,-500.5 879.35,-496.02 878.65,-502.98"/>
</g>
<!-- RankEquiv(output_spatial_declared) -->
<g id="node12" class="node">
<title>RankEquiv(output_spatial_declared)</title>
<ellipse fill="none" stroke="black" cx="983.98" cy="-564" rx="139.98" ry="18"/>
<text text-anchor="middle" x="983.98" y="-560.3" font-family="Times,serif" font-size="14.00">RankEquiv(output_spatial_declared)</text>
</g>
<!-- IndexRanks&#45;&gt;RankEquiv(output_spatial_declared) -->
<g id="edge7" class="edge">
<title>IndexRanks&#45;&gt;RankEquiv(output_spatial_declared)</title>
<path fill="none" stroke="purple" d="M759.74,-492.39C775.51,-496.64 793.11,-502.44 808.24,-510 826.13,-518.94 825.96,-528.88 844.24,-537 854.48,-541.54 865.47,-545.33 876.63,-548.47"/>
<polygon fill="purple" stroke="purple" points="875.9,-551.9 886.46,-551.08 877.69,-545.13 875.9,-551.9"/>
</g>
<!-- RankEquiv(output_spatial) -->
<g id="node13" class="node">
<title>RankEquiv(output_spatial)</title>
<ellipse fill="none" stroke="black" cx="983.98" cy="-818" rx="105.88" ry="18"/>
<text text-anchor="middle" x="983.98" y="-814.3" font-family="Times,serif" font-size="14.00">RankEquiv(output_spatial)</text>
</g>
<!-- IndexRanks&#45;&gt;RankEquiv(output_spatial) -->
<g id="edge8" class="edge">
<title>IndexRanks&#45;&gt;RankEquiv(output_spatial)</title>
<path fill="none" stroke="purple" d="M766.21,-487.03C781.82,-490.8 797.67,-497.67 808.24,-510 888.72,-603.94 761.11,-694.39 844.24,-786 852.89,-795.53 863.76,-802.51 875.6,-807.58"/>
<polygon fill="purple" stroke="purple" points="874.68,-810.98 885.27,-811.25 877.16,-804.43 874.68,-810.98"/>
</g>
<!-- RankRange(rate) -->
<g id="node14" class="node">
<title>RankRange(rate)</title>
<ellipse fill="none" stroke="black" cx="983.98" cy="-456" rx="70.69" ry="18"/>
<text text-anchor="middle" x="983.98" y="-452.3" font-family="Times,serif" font-size="14.00">RankRange(rate)</text>
</g>
<!-- IndexRanks&#45;&gt;RankRange(rate) -->
<g id="edge9" class="edge">
<title>IndexRanks&#45;&gt;RankRange(rate)</title>
<path fill="none" stroke="purple" d="M765.31,-477.98C805.31,-473.94 862.21,-468.2 907.8,-463.59"/>
<polygon fill="purple" stroke="purple" points="908.34,-467.06 917.93,-462.57 907.63,-460.09 908.34,-467.06"/>
</g>
<!-- RankEquiv(filter_spatial)&#45;&gt;RankRange(input_spatial) -->
<g id="edge31" class="edge">
<title>RankEquiv(filter_spatial)&#45;&gt;RankRange(input_spatial)</title>
<path fill="none" stroke="black" d="M1084.78,-726C1105.74,-726 1127.98,-726 1149.35,-726"/>
<polygon fill="black" stroke="black" points="1149.43,-729.5 1159.43,-726 1149.43,-722.5 1149.43,-729.5"/>
</g>
<!-- RankEquiv(dilated_filter_spatial)&#45;&gt;RankRange(input_spatial) -->
<g id="edge32" class="edge">
<title>RankEquiv(dilated_filter_spatial)&#45;&gt;RankRange(input_spatial)</title>
<path fill="none" stroke="black" d="M1074.67,-630.82C1091.26,-634.48 1108.23,-639.13 1123.72,-645 1162.1,-659.53 1202.12,-684.33 1229.05,-702.67"/>
<polygon fill="black" stroke="black" points="1227.1,-705.58 1237.32,-708.38 1231.08,-699.82 1227.1,-705.58"/>
</g>
<!-- RankEquiv(output_spatial_declared)&#45;&gt;RankRange(input_spatial) -->
<g id="edge33" class="edge">
<title>RankEquiv(output_spatial_declared)&#45;&gt;RankRange(input_spatial)</title>
<path fill="none" stroke="black" d="M1085.89,-576.39C1099.03,-580.07 1111.99,-584.84 1123.72,-591 1174.1,-617.48 1218.29,-668.33 1242.29,-699.5"/>
<polygon fill="black" stroke="black" points="1239.69,-701.87 1248.52,-707.74 1245.28,-697.65 1239.69,-701.87"/>
</g>
<!-- RankEquiv(output_spatial)&#45;&gt;RankRange(input_spatial) -->
<g id="edge34" class="edge">
<title>RankEquiv(output_spatial)&#45;&gt;RankRange(input_spatial)</title>
<path fill="none" stroke="black" d="M1054.83,-804.52C1077.09,-799.53 1101.65,-793.28 1123.72,-786 1156.17,-775.29 1191.48,-759.82 1218.21,-747.27"/>
<polygon fill="black" stroke="black" points="1219.76,-750.41 1227.29,-742.97 1216.76,-744.09 1219.76,-750.41"/>
</g>
<!-- DTypes -->
<g id="node15" class="node">
<title>DTypes</title>
<ellipse fill="none" stroke="black" cx="538.91" cy="-442" rx="38.19" ry="18"/>
<text text-anchor="middle" x="538.91" y="-438.3" font-family="Times,serif" font-size="14.00">DTypes</text>
</g>
<!-- DTypes&#45;&gt;ObservedValue(dtypes) -->
<g id="edge10" class="edge">
<title>DTypes&#45;&gt;ObservedValue(dtypes)</title>
<path fill="none" stroke="black" d="M555.51,-458.54C570.85,-473.91 595.6,-496.4 621.06,-510 628.2,-513.81 635.94,-517.15 643.81,-520.05"/>
<polygon fill="black" stroke="black" points="642.84,-523.42 653.43,-523.38 645.13,-516.81 642.84,-523.42"/>
</g>
<!-- DTypes&#45;&gt;Layout(layout) -->
<g id="edge12" class="edge">
<title>DTypes&#45;&gt;Layout(layout)</title>
<path fill="none" stroke="black" d="M573.54,-433.86C629.49,-420.47 745.33,-393.48 844.24,-375 967.78,-351.92 1010.28,-386.08 1123.72,-332 1172.79,-308.6 1216.87,-261.91 1241.3,-232.68"/>
<polygon fill="black" stroke="black" points="1244.32,-234.53 1247.95,-224.58 1238.9,-230.09 1244.32,-234.53"/>
</g>
<!-- DTypes&#45;&gt;IndexRanks -->
<g id="edge11" class="edge">
<title>DTypes&#45;&gt;IndexRanks</title>
<path fill="none" stroke="black" d="M573.41,-449.91C598.2,-455.75 632.45,-463.84 660.89,-470.55"/>
<polygon fill="black" stroke="black" points="660.15,-473.97 670.69,-472.86 661.76,-467.16 660.15,-473.97"/>
</g>
<!-- SigMap -->
<g id="node16" class="node">
<title>SigMap</title>
<ellipse fill="none" stroke="black" cx="714.65" cy="-199" rx="38.99" ry="18"/>
<text text-anchor="middle" x="714.65" y="-195.3" font-family="Times,serif" font-size="14.00">SigMap</text>
</g>
<!-- Sig(value) -->
<g id="node17" class="node">
<title>Sig(value)</title>
<ellipse fill="none" stroke="black" cx="983.98" cy="-18" rx="47.39" ry="18"/>
<text text-anchor="middle" x="983.98" y="-14.3" font-family="Times,serif" font-size="14.00">Sig(value)</text>
</g>
<!-- SigMap&#45;&gt;Sig(value) -->
<g id="edge13" class="edge">
<title>SigMap&#45;&gt;Sig(value)</title>
<path fill="none" stroke="purple" d="M753.37,-196.47C772.15,-193.31 793.85,-186.5 808.24,-172 849.57,-130.36 801.05,-84.71 844.24,-45 866.28,-24.74 898.83,-17.66 926.86,-15.79"/>
<polygon fill="purple" stroke="purple" points="927.13,-19.29 936.96,-15.33 926.81,-12.29 927.13,-19.29"/>
</g>
<!-- Sig(filters) -->
<g id="node18" class="node">
<title>Sig(filters)</title>
<ellipse fill="none" stroke="black" cx="983.98" cy="-234" rx="48.99" ry="18"/>
<text text-anchor="middle" x="983.98" y="-230.3" font-family="Times,serif" font-size="14.00">Sig(filters)</text>
</g>
<!-- SigMap&#45;&gt;Sig(filters) -->
<g id="edge14" class="edge">
<title>SigMap&#45;&gt;Sig(filters)</title>
<path fill="none" stroke="purple" d="M752.26,-203.79C797.57,-209.73 875.17,-219.89 927.73,-226.77"/>
<polygon fill="purple" stroke="purple" points="927.53,-230.27 937.9,-228.1 928.44,-223.33 927.53,-230.27"/>
</g>
<!-- Sig(output_shape) -->
<g id="node19" class="node">
<title>Sig(output_shape)</title>
<ellipse fill="none" stroke="black" cx="983.98" cy="-180" rx="75.29" ry="18"/>
<text text-anchor="middle" x="983.98" y="-176.3" font-family="Times,serif" font-size="14.00">Sig(output_shape)</text>
</g>
<!-- SigMap&#45;&gt;Sig(output_shape) -->
<g id="edge15" class="edge">
<title>SigMap&#45;&gt;Sig(output_shape)</title>
<path fill="none" stroke="purple" d="M753.38,-196.32C791.69,-193.6 852.22,-189.29 901.51,-185.79"/>
<polygon fill="purple" stroke="purple" points="901.8,-189.28 911.53,-185.08 901.3,-182.3 901.8,-189.28"/>
</g>
<!-- Sig(rate) -->
<g id="node20" class="node">
<title>Sig(rate)</title>
<ellipse fill="none" stroke="black" cx="983.98" cy="-126" rx="41.69" ry="18"/>
<text text-anchor="middle" x="983.98" y="-122.3" font-family="Times,serif" font-size="14.00">Sig(rate)</text>
</g>
<!-- SigMap&#45;&gt;Sig(rate) -->
<g id="edge16" class="edge">
<title>SigMap&#45;&gt;Sig(rate)</title>
<path fill="none" stroke="purple" d="M749.63,-190.85C767.39,-186.16 789.31,-179.67 808.24,-172 825.01,-165.21 827.18,-159.01 844.24,-153 873.07,-142.84 906.7,-136.17 933.63,-132.01"/>
<polygon fill="purple" stroke="purple" points="934.22,-135.46 943.59,-130.53 933.19,-128.53 934.22,-135.46"/>
</g>
<!-- Sig(return[0]) -->
<g id="node21" class="node">
<title>Sig(return[0])</title>
<ellipse fill="none" stroke="black" cx="983.98" cy="-72" rx="59.59" ry="18"/>
<text text-anchor="middle" x="983.98" y="-68.3" font-family="Times,serif" font-size="14.00">Sig(return[0])</text>
</g>
<!-- SigMap&#45;&gt;Sig(return[0]) -->
<g id="edge17" class="edge">
<title>SigMap&#45;&gt;Sig(return[0])</title>
<path fill="none" stroke="purple" d="M753.25,-195.17C771.54,-191.66 792.85,-184.92 808.24,-172 835.95,-148.75 815.5,-120.96 844.24,-99 864.03,-83.88 889.94,-76.5 914,-73.11"/>
<polygon fill="purple" stroke="purple" points="914.67,-76.56 924.18,-71.89 913.83,-69.61 914.67,-76.56"/>
</g>
<!-- Sig(value)&#45;&gt;Layout(layout) -->
<g id="edge35" class="edge">
<title>Sig(value)&#45;&gt;Layout(layout)</title>
<path fill="none" stroke="black" d="M1031.42,-19.36C1059.75,-21.98 1095.76,-28.65 1123.72,-45 1180.55,-78.24 1225.03,-143.82 1246.78,-180.52"/>
<polygon fill="black" stroke="black" points="1243.77,-182.3 1251.82,-189.2 1249.82,-178.79 1243.77,-182.3"/>
</g>
<!-- Sig(filters)&#45;&gt;Layout(layout) -->
<g id="edge36" class="edge">
<title>Sig(filters)&#45;&gt;Layout(layout)</title>
<path fill="none" stroke="black" d="M1031.25,-229.48C1075.1,-225.2 1141.56,-218.71 1191.81,-213.8"/>
<polygon fill="black" stroke="black" points="1192.34,-217.26 1201.95,-212.81 1191.66,-210.3 1192.34,-217.26"/>
</g>
<!-- Sig(output_shape)&#45;&gt;Layout(layout) -->
<g id="edge37" class="edge">
<title>Sig(output_shape)&#45;&gt;Layout(layout)</title>
<path fill="none" stroke="black" d="M1054.02,-186.74C1095.98,-190.84 1149.39,-196.06 1191.5,-200.17"/>
<polygon fill="black" stroke="black" points="1191.38,-203.68 1201.68,-201.17 1192.06,-196.71 1191.38,-203.68"/>
</g>
<!-- Sig(rate)&#45;&gt;Layout(layout) -->
<g id="edge38" class="edge">
<title>Sig(rate)&#45;&gt;Layout(layout)</title>
<path fill="none" stroke="black" d="M1023.7,-131.6C1051.78,-136.13 1090.49,-143.34 1123.72,-153 1156.11,-162.42 1191.51,-176.39 1218.31,-187.76"/>
<polygon fill="black" stroke="black" points="1217.2,-191.1 1227.77,-191.82 1219.96,-184.66 1217.2,-191.1"/>
</g>
<!-- Sig(return[0])&#45;&gt;Layout(layout) -->
<g id="edge40" class="edge">
<title>Sig(return[0])&#45;&gt;Layout(layout)</title>
<path fill="none" stroke="black" d="M1041.86,-76.92C1067.71,-80.69 1098.16,-87.32 1123.72,-99 1168.29,-119.37 1211.36,-156.95 1237.12,-181.97"/>
<polygon fill="black" stroke="black" points="1234.97,-184.76 1244.55,-189.29 1239.89,-179.78 1234.97,-184.76"/>
</g>
<!-- ArgIndels -->
<g id="node22" class="node">
<title>ArgIndels</title>
<ellipse fill="none" stroke="black" cx="538.91" cy="-218" rx="46.29" ry="18"/>
<text text-anchor="middle" x="538.91" y="-214.3" font-family="Times,serif" font-size="14.00">ArgIndels</text>
</g>
<!-- ArgIndels&#45;&gt;ObservedValue(shapes) -->
<g id="edge20" class="edge">
<title>ArgIndels&#45;&gt;ObservedValue(shapes)</title>
<path fill="none" stroke="black" d="M563.66,-202.59C579.45,-192.83 600.92,-180.51 621.06,-172 629.44,-168.46 638.44,-165.2 647.41,-162.27"/>
<polygon fill="black" stroke="black" points="648.61,-165.56 657.1,-159.22 646.51,-158.89 648.61,-165.56"/>
</g>
<!-- ArgIndels&#45;&gt;Layout(layout) -->
<g id="edge21" class="edge">
<title>ArgIndels&#45;&gt;Layout(layout)</title>
<path fill="none" stroke="black" d="M578.21,-227.61C672.07,-249.71 920.75,-299.38 1123.72,-261 1158.13,-254.49 1194.97,-239.59 1221.87,-227.08"/>
<polygon fill="black" stroke="black" points="1223.42,-230.22 1230.95,-222.78 1220.42,-223.9 1223.42,-230.22"/>
</g>
<!-- ArgIndels&#45;&gt;IndexRanks -->
<g id="edge18" class="edge">
<title>ArgIndels&#45;&gt;IndexRanks</title>
<path fill="none" stroke="black" d="M561.04,-234.23C569.11,-241.05 578.06,-249.39 585.06,-258 637.69,-322.76 681.56,-411.78 701.73,-455.92"/>
<polygon fill="black" stroke="black" points="698.59,-457.47 705.9,-465.14 704.97,-454.58 698.59,-457.47"/>
</g>
<!-- ArgIndels&#45;&gt;SigMap -->
<g id="edge19" class="edge">
<title>ArgIndels&#45;&gt;SigMap</title>
<path fill="none" stroke="black" d="M583.75,-213.21C608.93,-210.45 640.57,-206.99 666.31,-204.18"/>
<polygon fill="black" stroke="black" points="667.02,-207.62 676.58,-203.05 666.26,-200.66 667.02,-207.62"/>
</g>
<!-- IndexUsage -->
<g id="node23" class="node">
<title>IndexUsage</title>
<ellipse fill="none" stroke="black" cx="371.62" cy="-218" rx="52.79" ry="18"/>
<text text-anchor="middle" x="371.62" y="-214.3" font-family="Times,serif" font-size="14.00">IndexUsage</text>
</g>
<!-- IndexUsage&#45;&gt;ObservedValue(shapes) -->
<g id="edge24" class="edge">
<title>IndexUsage&#45;&gt;ObservedValue(shapes)</title>
<path fill="none" stroke="black" d="M415.96,-208.09C438.79,-202.91 467.27,-196.52 492.77,-191 541.78,-180.39 597.01,-168.89 639.99,-160.04"/>
<polygon fill="black" stroke="black" points="640.71,-163.46 649.8,-158.02 639.3,-156.61 640.71,-163.46"/>
</g>
<!-- IndexUsage&#45;&gt;IndexRanks -->
<g id="edge22" class="edge">
<title>IndexUsage&#45;&gt;IndexRanks</title>
<path fill="none" stroke="black" d="M415.67,-227.88C429.35,-232.03 444.18,-237.65 456.77,-245 558.24,-304.3 652.94,-409.76 693.24,-457.85"/>
<polygon fill="black" stroke="black" points="690.59,-460.14 699.68,-465.6 695.98,-455.67 690.59,-460.14"/>
</g>
<!-- IndexUsage&#45;&gt;ArgIndels -->
<g id="edge23" class="edge">
<title>IndexUsage&#45;&gt;ArgIndels</title>
<path fill="none" stroke="black" d="M424.47,-218C442.92,-218 463.76,-218 482.5,-218"/>
<polygon fill="black" stroke="black" points="482.67,-221.5 492.67,-218 482.67,-214.5 482.67,-221.5"/>
</g>
<!-- IndexConstraints -->
<g id="node24" class="node">
<title>IndexConstraints</title>
<ellipse fill="none" stroke="black" cx="177.69" cy="-218" rx="70.69" ry="18"/>
<text text-anchor="middle" x="177.69" y="-214.3" font-family="Times,serif" font-size="14.00">IndexConstraints</text>
</g>
<!-- IndexConstraints&#45;&gt;ObservedValue(args) -->
<g id="edge26" class="edge">
<title>IndexConstraints&#45;&gt;ObservedValue(args)</title>
<path fill="none" stroke="black" d="M226.13,-231.35C251.44,-238.47 282.86,-247.31 309.93,-254.93"/>
<polygon fill="black" stroke="black" points="309.12,-258.33 319.69,-257.67 311.01,-251.59 309.12,-258.33"/>
</g>
<!-- IndexConstraints&#45;&gt;IndexUsage -->
<g id="edge25" class="edge">
<title>IndexConstraints&#45;&gt;IndexUsage</title>
<path fill="none" stroke="black" d="M248.8,-218C268.4,-218 289.57,-218 308.67,-218"/>
<polygon fill="black" stroke="black" points="308.74,-221.5 318.74,-218 308.74,-214.5 308.74,-221.5"/>
</g>
<!-- Report -->
<g id="node25" class="node">
<title>Report</title>
<ellipse fill="none" stroke="black" cx="34.45" cy="-299" rx="34.39" ry="18"/>
<text text-anchor="middle" x="34.45" y="-295.3" font-family="Times,serif" font-size="14.00">Report</text>
</g>
<!-- Report&#45;&gt;DTypes -->
<g id="edge27" class="edge">
<title>Report&#45;&gt;DTypes</title>
<path fill="none" stroke="black" d="M51.5,-314.73C64.77,-326.89 84.67,-343.25 104.89,-353 235.16,-415.82 408.28,-434.38 490.57,-439.8"/>
<polygon fill="black" stroke="black" points="490.43,-443.3 500.62,-440.43 490.86,-436.31 490.43,-443.3"/>
</g>
<!-- Report&#45;&gt;IndexConstraints -->
<g id="edge28" class="edge">
<title>Report&#45;&gt;IndexConstraints</title>
<path fill="none" stroke="black" d="M52.39,-283.45C65.86,-271.7 85.57,-255.82 104.89,-245 110.75,-241.72 117.08,-238.69 123.48,-235.93"/>
<polygon fill="black" stroke="black" points="124.92,-239.12 132.84,-232.09 122.26,-232.65 124.92,-239.12"/>
</g>
<!-- Options(padding) -->
<g id="node26" class="node">
<title>Options(padding)</title>
<ellipse fill="none" stroke="black" cx="177.69" cy="-272" rx="72.59" ry="18"/>
<text text-anchor="middle" x="177.69" y="-268.3" font-family="Times,serif" font-size="14.00">Options(padding)</text>
</g>
<!-- Report&#45;&gt;Options(padding) -->
<g id="edge29" class="edge">
<title>Report&#45;&gt;Options(padding)</title>
<path fill="none" stroke="purple" d="M67.14,-292.94C79.7,-290.54 94.64,-287.68 109.39,-284.86"/>
<polygon fill="purple" stroke="purple" points="110.38,-288.24 119.54,-282.92 109.06,-281.36 110.38,-288.24"/>
</g>
<!-- DataFormat -->
<g id="node27" class="node">
<title>DataFormat</title>
<ellipse fill="none" stroke="black" cx="177.69" cy="-326" rx="53.09" ry="18"/>
<text text-anchor="middle" x="177.69" y="-322.3" font-family="Times,serif" font-size="14.00">DataFormat</text>
</g>
<!-- Report&#45;&gt;DataFormat -->
<g id="edge30" class="edge">
<title>Report&#45;&gt;DataFormat</title>
<path fill="none" stroke="blue" d="M67.14,-305.06C83,-308.09 102.65,-311.85 120.92,-315.34"/>
<polygon fill="blue" stroke="blue" points="120.42,-318.81 130.9,-317.25 121.73,-311.93 120.42,-318.81"/>
</g>
<!-- Options(padding)&#45;&gt;ObservedValue(args) -->
<g id="edge39" class="edge">
<title>Options(padding)&#45;&gt;ObservedValue(args)</title>
<path fill="none" stroke="black" d="M250.7,-272C259.04,-272 267.63,-272 276.2,-272"/>
<polygon fill="black" stroke="black" points="276.24,-275.5 286.24,-272 276.24,-268.5 276.24,-275.5"/>
</g>
<!-- DataFormat&#45;&gt;ObservedValue(args) -->
<g id="edge43" class="edge">
<title>DataFormat&#45;&gt;ObservedValue(args)</title>
<path fill="none" stroke="black" d="M219.39,-314.55C245.69,-307.15 280.39,-297.39 309.91,-289.08"/>
<polygon fill="black" stroke="black" points="311.03,-292.4 319.71,-286.32 309.13,-285.66 311.03,-292.4"/>
</g>
<!-- DataFormat&#45;&gt;Layout(layout) -->
<g id="edge42" class="edge">
<title>DataFormat&#45;&gt;Layout(layout)</title>
<path fill="none" stroke="black" d="M230.73,-324.11C300.6,-321.75 428.59,-318 537.91,-318 537.91,-318 537.91,-318 715.65,-318 897.72,-318 949.43,-334.65 1123.72,-282 1162.34,-270.33 1202.41,-247.03 1229.29,-229.48"/>
<polygon fill="black" stroke="black" points="1231.49,-232.22 1237.88,-223.77 1227.61,-226.39 1231.49,-232.22"/>
</g>
<!-- DataFormat&#45;&gt;IndexRanks -->
<g id="edge41" class="edge">
<title>DataFormat&#45;&gt;IndexRanks</title>
<path fill="none" stroke="black" d="M227.74,-332.36C305.36,-343.39 460.44,-369.37 585.06,-415 618.64,-427.3 654.42,-446.8 679.68,-461.77"/>
<polygon fill="black" stroke="black" points="678.12,-464.91 688.49,-467.06 681.72,-458.91 678.12,-464.91"/>
</g>
</g>
</svg>
