<?xml version="1.0" encoding="UTF-8" standalone="no"?>
<!DOCTYPE svg PUBLIC "-//W3C//DTD SVG 1.1//EN"
 "http://www.w3.org/Graphics/SVG/1.1/DTD/svg11.dtd">
<!-- Generated by graphviz version 2.43.0 (0)
 -->
<!-- Title: %3 Pages: 1 -->
<svg width="1328pt" height="353pt"
 viewBox="0.00 0.00 1328.40 352.59" xmlns="http://www.w3.org/2000/svg" xmlns:xlink="http://www.w3.org/1999/xlink">
<g id="graph0" class="graph" transform="scale(1 1) rotate(0) translate(4 348.59)">
<title>%3</title>
<polygon fill="white" stroke="transparent" points="-4,4 -4,-348.59 1324.4,-348.59 1324.4,4 -4,4"/>
<!-- DimsInput(_index_ranks) -->
<g id="node1" class="node">
<title>DimsInput(_index_ranks)</title>
<ellipse fill="none" stroke="black" cx="1218.35" cy="-179" rx="102.08" ry="18"/>
<text text-anchor="middle" x="1218.35" y="-175.3" font-family="Times,serif" font-size="14.00">DimsInput(_index_ranks)</text>
</g>
<!-- GenDims(batch) -->
<g id="node2" class="node">
<title>GenDims(batch)</title>
<ellipse fill="none" stroke="black" cx="984.12" cy="-294" rx="69.59" ry="18"/>
<text text-anchor="middle" x="984.12" y="-290.3" font-family="Times,serif" font-size="14.00">GenDims(batch)</text>
</g>
<!-- GenDims(batch)&#45;&gt;DimsInput(_index_ranks) -->
<g id="edge1" class="edge">
<title>GenDims(batch)&#45;&gt;DimsInput(_index_ranks)</title>
<path fill="none" stroke="black" d="M1031.43,-280.7C1047.23,-275.57 1064.81,-269.19 1080.31,-262 1117.2,-244.89 1156.64,-220.25 1183.7,-202.27"/>
<polygon fill="black" stroke="black" points="1185.67,-205.16 1192.03,-196.68 1181.77,-199.35 1185.67,-205.16"/>
</g>
<!-- GenDims(input_spatial) -->
<g id="node3" class="node">
<title>GenDims(input_spatial)</title>
<ellipse fill="none" stroke="black" cx="984.12" cy="-72" rx="96.38" ry="18"/>
<text text-anchor="middle" x="984.12" y="-68.3" font-family="Times,serif" font-size="14.00">GenDims(input_spatial)</text>
</g>
<!-- GenDims(input_spatial)&#45;&gt;DimsInput(_index_ranks) -->
<g id="edge2" class="edge">
<title>GenDims(input_spatial)&#45;&gt;DimsInput(_index_ranks)</title>
<path fill="none" stroke="black" d="M1036.14,-87.31C1050.62,-92.15 1066.26,-97.85 1080.31,-104 1115.36,-119.34 1153.39,-140.54 1180.48,-156.49"/>
<polygon fill="black" stroke="black" points="1178.84,-159.59 1189.22,-161.69 1182.41,-153.57 1178.84,-159.59"/>
</g>
<!-- GenDims(block_shape) -->
<g id="node4" class="node">
<title>GenDims(block_shape)</title>
<ellipse fill="none" stroke="black" cx="984.12" cy="-202" rx="94.78" ry="18"/>
<text text-anchor="middle" x="984.12" y="-198.3" font-family="Times,serif" font-size="14.00">GenDims(block_shape)</text>
</g>
<!-- GenDims(block_shape)&#45;&gt;DimsInput(_index_ranks) -->
<g id="edge3" class="edge">
<title>GenDims(block_shape)&#45;&gt;DimsInput(_index_ranks)</title>
<path fill="none" stroke="black" d="M1068.64,-193.73C1084.9,-192.12 1102.08,-190.42 1118.78,-188.76"/>
<polygon fill="black" stroke="black" points="1119.49,-192.21 1129.1,-187.74 1118.8,-185.24 1119.49,-192.21"/>
</g>
<!-- GenDims(remaining) -->
<g id="node5" class="node">
<title>GenDims(remaining)</title>
<ellipse fill="none" stroke="black" cx="984.12" cy="-18" rx="87.18" ry="18"/>
<text text-anchor="middle" x="984.12" y="-14.3" font-family="Times,serif" font-size="14.00">GenDims(remaining)</text>
</g>
<!-- GenDims(remaining)&#45;&gt;DimsInput(_index_ranks) -->
<g id="edge4" class="edge">
<title>GenDims(remaining)&#45;&gt;DimsInput(_index_ranks)</title>
<path fill="none" stroke="black" d="M1046.63,-30.58C1058.25,-34.29 1069.98,-39.01 1080.31,-45 1129,-73.22 1173.16,-122.62 1197.53,-152.92"/>
<polygon fill="black" stroke="black" points="1194.92,-155.25 1203.87,-160.92 1200.41,-150.91 1194.92,-155.25"/>
</g>
<!-- GenDims(padding_start, padding_end) -->
<g id="node6" class="node">
<title>GenDims(padding_start, padding_end)</title>
<ellipse fill="none" stroke="black" cx="703.09" cy="-110" rx="148.67" ry="18"/>
<text text-anchor="middle" x="703.09" y="-106.3" font-family="Times,serif" font-size="14.00">GenDims(padding_start, padding_end)</text>
</g>
<!-- GenDims(padding_start, padding_end)&#45;&gt;DimsInput(_index_ranks) -->
<g id="edge5" class="edge">
<title>GenDims(padding_start, padding_end)&#45;&gt;DimsInput(_index_ranks)</title>
<path fill="none" stroke="black" d="M843.78,-115.92C914.97,-120.44 1002.68,-128.33 1080.31,-142 1106.12,-146.54 1134.14,-153.7 1158.08,-160.51"/>
<polygon fill="black" stroke="black" points="1157.14,-163.88 1167.72,-163.3 1159.08,-157.16 1157.14,-163.88"/>
</g>
<!-- GenDims(padding_start, padding_end)&#45;&gt;GenDims(input_spatial) -->
<g id="edge6" class="edge">
<title>GenDims(padding_start, padding_end)&#45;&gt;GenDims(input_spatial)</title>
<path fill="none" stroke="purple" d="M802.86,-96.55C833.15,-92.42 866.25,-87.92 895.73,-83.9"/>
<polygon fill="purple" stroke="purple" points="896.56,-87.32 905.99,-82.5 895.61,-80.39 896.56,-87.32"/>
</g>
<!-- GenDims(padding_start, padding_end)&#45;&gt;GenDims(block_shape) -->
<g id="edge7" class="edge">
<title>GenDims(padding_start, padding_end)&#45;&gt;GenDims(block_shape)</title>
<path fill="none" stroke="purple" d="M755.27,-126.87C803.65,-142.83 876.1,-166.71 926.27,-183.25"/>
<polygon fill="purple" stroke="purple" points="925.39,-186.65 935.99,-186.46 927.59,-180 925.39,-186.65"/>
</g>
<!-- CompDims(padded_input_spatial) -->
<g id="node7" class="node">
<title>CompDims(padded_input_spatial)</title>
<ellipse fill="none" stroke="black" cx="385.02" cy="-133" rx="133.48" ry="18"/>
<text text-anchor="middle" x="385.02" y="-129.3" font-family="Times,serif" font-size="14.00">CompDims(padded_input_spatial)</text>
</g>
<!-- CompDims(padded_input_spatial)&#45;&gt;DimsInput(_index_ranks) -->
<g id="edge8" class="edge">
<title>CompDims(padded_input_spatial)&#45;&gt;DimsInput(_index_ranks)</title>
<path fill="none" stroke="black" d="M508.69,-139.79C671.38,-148.79 955.94,-164.53 1110.34,-173.08"/>
<polygon fill="black" stroke="black" points="1110.6,-176.6 1120.78,-173.66 1110.99,-169.61 1110.6,-176.6"/>
</g>
<!-- CompDims(padded_input_spatial)&#45;&gt;GenDims(input_spatial) -->
<g id="edge10" class="edge">
<title>CompDims(padded_input_spatial)&#45;&gt;GenDims(input_spatial)</title>
<path fill="none" stroke="purple" d="M431.32,-115.99C464.77,-104.32 511.67,-89.75 554.26,-83 664.82,-65.47 793.38,-64.73 880.7,-67.11"/>
<polygon fill="purple" stroke="purple" points="880.78,-70.61 890.88,-67.41 880.98,-63.62 880.78,-70.61"/>
</g>
<!-- CompDims(padded_input_spatial)&#45;&gt;GenDims(padding_start, padding_end) -->
<g id="edge9" class="edge">
<title>CompDims(padded_input_spatial)&#45;&gt;GenDims(padding_start, padding_end)</title>
<path fill="none" stroke="purple" d="M502.82,-124.5C523.07,-123.03 544.29,-121.48 565.02,-119.97"/>
<polygon fill="purple" stroke="purple" points="565.43,-123.45 575.15,-119.24 564.93,-116.47 565.43,-123.45"/>
</g>
<!-- CompDims(output_spatial) -->
<g id="node8" class="node">
<title>CompDims(output_spatial)</title>
<ellipse fill="none" stroke="black" cx="107.89" cy="-202" rx="107.78" ry="18"/>
<text text-anchor="middle" x="107.89" y="-198.3" font-family="Times,serif" font-size="14.00">CompDims(output_spatial)</text>
</g>
<!-- CompDims(output_spatial)&#45;&gt;DimsInput(_index_ranks) -->
<g id="edge11" class="edge">
<title>CompDims(output_spatial)&#45;&gt;DimsInput(_index_ranks)</title>
<path fill="none" stroke="black" d="M185.54,-214.53C350.65,-239.25 751.56,-287.1 1080.31,-229 1112.19,-223.37 1146.39,-210.9 1172.66,-199.82"/>
<polygon fill="black" stroke="black" points="1174.15,-202.99 1181.95,-195.82 1171.38,-196.56 1174.15,-202.99"/>
</g>
<!-- CompDims(output_spatial)&#45;&gt;GenDims(block_shape) -->
<g id="edge13" class="edge">
<title>CompDims(output_spatial)&#45;&gt;GenDims(block_shape)</title>
<path fill="none" stroke="purple" d="M216.09,-202C385.21,-202 711.86,-202 879.03,-202"/>
<polygon fill="purple" stroke="purple" points="879.07,-205.5 889.07,-202 879.07,-198.5 879.07,-205.5"/>
</g>
<!-- CompDims(output_spatial)&#45;&gt;CompDims(padded_input_spatial) -->
<g id="edge12" class="edge">
<title>CompDims(output_spatial)&#45;&gt;CompDims(padded_input_spatial)</title>
<path fill="none" stroke="purple" d="M168.59,-187.03C210.32,-176.56 266.3,-162.52 310.73,-151.38"/>
<polygon fill="purple" stroke="purple" points="311.76,-154.73 320.61,-148.9 310.06,-147.94 311.76,-154.73"/>
</g>
<!-- CompDims(output_batch) -->
<g id="node9" class="node">
<title>CompDims(output_batch)</title>
<ellipse fill="none" stroke="black" cx="703.09" cy="-294" rx="103.98" ry="18"/>
<text text-anchor="middle" x="703.09" y="-290.3" font-family="Times,serif" font-size="14.00">CompDims(output_batch)</text>
</g>
<!-- CompDims(output_batch)&#45;&gt;DimsInput(_index_ranks) -->
<g id="edge14" class="edge">
<title>CompDims(output_batch)&#45;&gt;DimsInput(_index_ranks)</title>
<path fill="none" stroke="black" d="M749.72,-310.19C822.78,-333.36 969.11,-368.22 1080.31,-321 1135.46,-297.58 1179.21,-239.9 1201.4,-205.69"/>
<polygon fill="black" stroke="black" points="1204.44,-207.44 1206.83,-197.12 1198.52,-203.7 1204.44,-207.44"/>
</g>
<!-- CompDims(output_batch)&#45;&gt;GenDims(batch) -->
<g id="edge15" class="edge">
<title>CompDims(output_batch)&#45;&gt;GenDims(batch)</title>
<path fill="none" stroke="purple" d="M807.2,-294C839.28,-294 874.12,-294 904.27,-294"/>
<polygon fill="purple" stroke="purple" points="904.3,-297.5 914.3,-294 904.3,-290.5 904.3,-297.5"/>
</g>
<!-- CompDims(output_batch)&#45;&gt;GenDims(block_shape) -->
<g id="edge16" class="edge">
<title>CompDims(output_batch)&#45;&gt;GenDims(block_shape)</title>
<path fill="none" stroke="purple" d="M752.38,-278.08C800.74,-262.14 875.13,-237.61 926.3,-220.73"/>
<polygon fill="purple" stroke="purple" points="927.49,-224.03 935.89,-217.57 925.3,-217.38 927.49,-224.03"/>
</g>
</g>
</svg>
