<?xml version="1.0" encoding="UTF-8" standalone="no"?>
<!DOCTYPE svg PUBLIC "-//W3C//DTD SVG 1.1//EN"
 "http://www.w3.org/Graphics/SVG/1.1/DTD/svg11.dtd">
<!-- Generated by graphviz version 2.43.0 (0)
 -->
<!-- Title: %3 Pages: 1 -->
<svg width="1517pt" height="739pt"
 viewBox="0.00 0.00 1516.99 738.67" xmlns="http://www.w3.org/2000/svg" xmlns:xlink="http://www.w3.org/1999/xlink">
<g id="graph0" class="graph" transform="scale(1 1) rotate(0) translate(4 734.67)">
<title>%3</title>
<polygon fill="white" stroke="transparent" points="-4,4 -4,-734.67 1512.99,-734.67 1512.99,4 -4,4"/>
<!-- Layout(layout) -->
<g id="node1" class="node">
<title>Layout(layout)</title>
<ellipse fill="none" stroke="black" cx="1406.3" cy="-139.67" rx="63.89" ry="18"/>
<text text-anchor="middle" x="1406.3" y="-135.97" font-family="Times,serif" font-size="14.00">Layout(layout)</text>
</g>
<!-- IndexRanks -->
<g id="node2" class="node">
<title>IndexRanks</title>
<ellipse fill="none" stroke="black" cx="900.79" cy="-409.67" rx="52.79" ry="18"/>
<text text-anchor="middle" x="900.79" y="-405.97" font-family="Times,serif" font-size="14.00">IndexRanks</text>
</g>
<!-- RankRange(batch) -->
<g id="node3" class="node">
<title>RankRange(batch)</title>
<ellipse fill="none" stroke="black" cx="1140.87" cy="-328.67" rx="76.89" ry="18"/>
<text text-anchor="middle" x="1140.87" y="-324.97" font-family="Times,serif" font-size="14.00">RankRange(batch)</text>
</g>
<!-- IndexRanks&#45;&gt;RankRange(batch) -->
<g id="edge1" class="edge">
<title>IndexRanks&#45;&gt;RankRange(batch)</title>
<path fill="none" stroke="purple" d="M929.17,-394.24C951.46,-382.25 984.03,-365.97 1014.13,-355.67 1031.08,-349.87 1049.76,-345.05 1067.42,-341.17"/>
<polygon fill="purple" stroke="purple" points="1068.62,-344.49 1077.68,-338.99 1067.17,-337.65 1068.62,-344.49"/>
</g>
<!-- RankRange(input_spatial) -->
<g id="node4" class="node">
<title>RankRange(input_spatial)</title>
<ellipse fill="none" stroke="black" cx="1406.3" cy="-597.67" rx="102.88" ry="18"/>
<text text-anchor="middle" x="1406.3" y="-593.97" font-family="Times,serif" font-size="14.00">RankRange(input_spatial)</text>
</g>
<!-- IndexRanks&#45;&gt;RankRange(input_spatial) -->
<g id="edge2" class="edge">
<title>IndexRanks&#45;&gt;RankRange(input_spatial)</title>
<path fill="none" stroke="purple" d="M914.85,-427.4C933.84,-451.81 971.5,-495.27 1014.13,-517.67 1102.55,-564.12 1215.35,-583.63 1297.08,-591.8"/>
<polygon fill="purple" stroke="purple" points="1297.11,-595.32 1307.4,-592.79 1297.78,-588.35 1297.11,-595.32"/>
</g>
<!-- RankRange(input_channel) -->
<g id="node5" class="node">
<title>RankRange(input_channel)</title>
<ellipse fill="none" stroke="black" cx="1140.87" cy="-274.67" rx="107.48" ry="18"/>
<text text-anchor="middle" x="1140.87" y="-270.97" font-family="Times,serif" font-size="14.00">RankRange(input_channel)</text>
</g>
<!-- IndexRanks&#45;&gt;RankRange(input_channel) -->
<g id="edge3" class="edge">
<title>IndexRanks&#45;&gt;RankRange(input_channel)</title>
<path fill="none" stroke="purple" d="M914.88,-392C933.9,-367.66 971.61,-324.28 1014.13,-301.67 1024.19,-296.32 1035.24,-292.03 1046.49,-288.59"/>
<polygon fill="purple" stroke="purple" points="1047.73,-291.88 1056.39,-285.78 1045.82,-285.14 1047.73,-291.88"/>
</g>
<!-- RankEquiv(output_spatial) -->
<g id="node6" class="node">
<title>RankEquiv(output_spatial)</title>
<ellipse fill="none" stroke="black" cx="1140.87" cy="-620.67" rx="105.88" ry="18"/>
<text text-anchor="middle" x="1140.87" y="-616.97" font-family="Times,serif" font-size="14.00">RankEquiv(output_spatial)</text>
</g>
<!-- IndexRanks&#45;&gt;RankEquiv(output_spatial) -->
<g id="edge4" class="edge">
<title>IndexRanks&#45;&gt;RankEquiv(output_spatial)</title>
<path fill="none" stroke="purple" d="M907.83,-427.58C921.03,-463.89 956.01,-546.32 1014.13,-588.67 1024.33,-596.1 1036.08,-601.82 1048.23,-606.2"/>
<polygon fill="purple" stroke="purple" points="1047.44,-609.63 1058.03,-609.45 1049.64,-602.98 1047.44,-609.63"/>
</g>
<!-- RankRange(output_flattened) -->
<g id="node7" class="node">
<title>RankRange(output_flattened)</title>
<ellipse fill="none" stroke="black" cx="1140.87" cy="-220.67" rx="115.08" ry="18"/>
<text text-anchor="middle" x="1140.87" y="-216.97" font-family="Times,serif" font-size="14.00">RankRange(output_flattened)</text>
</g>
<!-- IndexRanks&#45;&gt;RankRange(output_flattened) -->
<g id="edge5" class="edge">
<title>IndexRanks&#45;&gt;RankRange(output_flattened)</title>
<path fill="none" stroke="purple" d="M908.86,-391.72C923.22,-357.78 959.17,-284.31 1014.13,-247.67 1021.84,-242.53 1030.35,-238.35 1039.2,-234.95"/>
<polygon fill="purple" stroke="purple" points="1040.63,-238.16 1048.92,-231.56 1038.33,-231.55 1040.63,-238.16"/>
</g>
<!-- RankRange(vect_c_channel) -->
<g id="node8" class="node">
<title>RankRange(vect_c_channel)</title>
<ellipse fill="none" stroke="black" cx="1140.87" cy="-490.67" rx="112.38" ry="18"/>
<text text-anchor="middle" x="1140.87" y="-486.97" font-family="Times,serif" font-size="14.00">RankRange(vect_c_channel)</text>
</g>
<!-- IndexRanks&#45;&gt;RankRange(vect_c_channel) -->
<g id="edge6" class="edge">
<title>IndexRanks&#45;&gt;RankRange(vect_c_channel)</title>
<path fill="none" stroke="purple" d="M929.17,-425.1C951.46,-437.09 984.03,-453.37 1014.13,-463.67 1026.96,-468.06 1040.79,-471.89 1054.41,-475.18"/>
<polygon fill="purple" stroke="purple" points="1053.74,-478.62 1064.27,-477.47 1055.33,-471.8 1053.74,-478.62"/>
</g>
<!-- RankRange(block_size) -->
<g id="node9" class="node">
<title>RankRange(block_size)</title>
<ellipse fill="none" stroke="black" cx="1140.87" cy="-436.67" rx="94.78" ry="18"/>
<text text-anchor="middle" x="1140.87" y="-432.97" font-family="Times,serif" font-size="14.00">RankRange(block_size)</text>
</g>
<!-- IndexRanks&#45;&gt;RankRange(block_size) -->
<g id="edge7" class="edge">
<title>IndexRanks&#45;&gt;RankRange(block_size)</title>
<path fill="none" stroke="purple" d="M951.12,-415.27C979.26,-418.46 1015.43,-422.56 1048.56,-426.32"/>
<polygon fill="purple" stroke="purple" points="1048.4,-429.82 1058.73,-427.47 1049.19,-422.87 1048.4,-429.82"/>
</g>
<!-- RankRange(squared_block_size) -->
<g id="node10" class="node">
<title>RankRange(squared_block_size)</title>
<ellipse fill="none" stroke="black" cx="1140.87" cy="-382.67" rx="126.98" ry="18"/>
<text text-anchor="middle" x="1140.87" y="-378.97" font-family="Times,serif" font-size="14.00">RankRange(squared_block_size)</text>
</g>
<!-- IndexRanks&#45;&gt;RankRange(squared_block_size) -->
<g id="edge8" class="edge">
<title>IndexRanks&#45;&gt;RankRange(squared_block_size)</title>
<path fill="none" stroke="purple" d="M951.12,-404.08C974.29,-401.45 1002.9,-398.2 1030.77,-395.04"/>
<polygon fill="purple" stroke="purple" points="1031.46,-398.49 1041,-393.88 1030.67,-391.53 1031.46,-398.49"/>
</g>
<!-- RankEquiv(output_spatial)&#45;&gt;RankRange(input_spatial) -->
<g id="edge25" class="edge">
<title>RankEquiv(output_spatial)&#45;&gt;RankRange(input_spatial)</title>
<path fill="none" stroke="black" d="M1235.49,-612.5C1257.54,-610.57 1281.16,-608.51 1303.56,-606.55"/>
<polygon fill="black" stroke="black" points="1304.09,-610.02 1313.75,-605.66 1303.49,-603.05 1304.09,-610.02"/>
</g>
<!-- DTypesNotImpl -->
<g id="node11" class="node">
<title>DTypesNotImpl</title>
<ellipse fill="none" stroke="black" cx="685.4" cy="-576.67" rx="68.79" ry="18"/>
<text text-anchor="middle" x="685.4" y="-572.97" font-family="Times,serif" font-size="14.00">DTypesNotImpl</text>
</g>
<!-- DTypesNotImpl&#45;&gt;Layout(layout) -->
<g id="edge10" class="edge">
<title>DTypesNotImpl&#45;&gt;Layout(layout)</title>
<path fill="none" stroke="black" d="M731.62,-590.12C853.23,-625.1 1183.74,-711.83 1267.61,-647.67 1307.21,-617.37 1379.38,-269.43 1399.79,-167.54"/>
<polygon fill="black" stroke="black" points="1403.23,-168.16 1401.76,-157.67 1396.37,-166.79 1403.23,-168.16"/>
</g>
<!-- DTypesNotImpl&#45;&gt;IndexRanks -->
<g id="edge9" class="edge">
<title>DTypesNotImpl&#45;&gt;IndexRanks</title>
<path fill="none" stroke="black" d="M708.43,-559.43C747.17,-529.11 827.45,-466.29 870.69,-432.44"/>
<polygon fill="black" stroke="black" points="873.1,-435 878.82,-426.08 868.79,-429.49 873.1,-435"/>
</g>
<!-- DTypeIndiv(input) -->
<g id="node12" class="node">
<title>DTypeIndiv(input)</title>
<ellipse fill="none" stroke="black" cx="900.79" cy="-712.67" rx="77.19" ry="18"/>
<text text-anchor="middle" x="900.79" y="-708.97" font-family="Times,serif" font-size="14.00">DTypeIndiv(input)</text>
</g>
<!-- DTypesNotImpl&#45;&gt;DTypeIndiv(input) -->
<g id="edge11" class="edge">
<title>DTypesNotImpl&#45;&gt;DTypeIndiv(input)</title>
<path fill="none" stroke="purple" d="M706.16,-594.24C731.83,-616.44 778.68,-654.86 823.44,-680.67 831.49,-685.31 840.34,-689.65 849.07,-693.54"/>
<polygon fill="purple" stroke="purple" points="847.89,-696.84 858.46,-697.58 850.66,-690.41 847.89,-696.84"/>
</g>
<!-- SigMap -->
<g id="node13" class="node">
<title>SigMap</title>
<ellipse fill="none" stroke="black" cx="900.79" cy="-166.67" rx="38.99" ry="18"/>
<text text-anchor="middle" x="900.79" y="-162.97" font-family="Times,serif" font-size="14.00">SigMap</text>
</g>
<!-- Sig(input) -->
<g id="node14" class="node">
<title>Sig(input)</title>
<ellipse fill="none" stroke="black" cx="1140.87" cy="-112.67" rx="46.29" ry="18"/>
<text text-anchor="middle" x="1140.87" y="-108.97" font-family="Times,serif" font-size="14.00">Sig(input)</text>
</g>
<!-- SigMap&#45;&gt;Sig(input) -->
<g id="edge12" class="edge">
<title>SigMap&#45;&gt;Sig(input)</title>
<path fill="none" stroke="purple" d="M935.66,-158.3C957.93,-152.86 987.72,-145.68 1014.13,-139.67 1039.07,-134 1066.86,-128 1089.97,-123.1"/>
<polygon fill="purple" stroke="purple" points="1090.83,-126.49 1099.89,-121 1089.38,-119.64 1090.83,-126.49"/>
</g>
<!-- Sig(block_size) -->
<g id="node15" class="node">
<title>Sig(block_size)</title>
<ellipse fill="none" stroke="black" cx="1140.87" cy="-58.67" rx="65.79" ry="18"/>
<text text-anchor="middle" x="1140.87" y="-54.97" font-family="Times,serif" font-size="14.00">Sig(block_size)</text>
</g>
<!-- SigMap&#45;&gt;Sig(block_size) -->
<g id="edge13" class="edge">
<title>SigMap&#45;&gt;Sig(block_size)</title>
<path fill="none" stroke="purple" d="M919.03,-150.68C939.93,-132.19 976.99,-102.17 1014.13,-85.67 1031.86,-77.79 1052.04,-72.15 1070.96,-68.14"/>
<polygon fill="purple" stroke="purple" points="1071.9,-71.52 1081.02,-66.13 1070.53,-64.66 1071.9,-71.52"/>
</g>
<!-- Sig(return[0]) -->
<g id="node16" class="node">
<title>Sig(return[0])</title>
<ellipse fill="none" stroke="black" cx="1140.87" cy="-166.67" rx="59.59" ry="18"/>
<text text-anchor="middle" x="1140.87" y="-162.97" font-family="Times,serif" font-size="14.00">Sig(return[0])</text>
</g>
<!-- SigMap&#45;&gt;Sig(return[0]) -->
<g id="edge14" class="edge">
<title>SigMap&#45;&gt;Sig(return[0])</title>
<path fill="none" stroke="purple" d="M940.04,-166.67C975.21,-166.67 1028.19,-166.67 1070.76,-166.67"/>
<polygon fill="purple" stroke="purple" points="1070.78,-170.17 1080.78,-166.67 1070.78,-163.17 1070.78,-170.17"/>
</g>
<!-- Sig(input)&#45;&gt;Layout(layout) -->
<g id="edge30" class="edge">
<title>Sig(input)&#45;&gt;Layout(layout)</title>
<path fill="none" stroke="black" d="M1185.66,-117.16C1226.55,-121.35 1288.25,-127.67 1335.85,-132.55"/>
<polygon fill="black" stroke="black" points="1335.78,-136.06 1346.09,-133.6 1336.5,-129.1 1335.78,-136.06"/>
</g>
<!-- Sig(block_size)&#45;&gt;Layout(layout) -->
<g id="edge32" class="edge">
<title>Sig(block_size)&#45;&gt;Layout(layout)</title>
<path fill="none" stroke="black" d="M1196.51,-68.4C1218.77,-72.88 1244.63,-78.75 1267.61,-85.67 1299.79,-95.37 1335.07,-109.27 1361.86,-120.54"/>
<polygon fill="black" stroke="black" points="1360.75,-123.87 1371.32,-124.56 1363.49,-117.43 1360.75,-123.87"/>
</g>
<!-- Sig(return[0])&#45;&gt;Layout(layout) -->
<g id="edge33" class="edge">
<title>Sig(return[0])&#45;&gt;Layout(layout)</title>
<path fill="none" stroke="black" d="M1197.73,-160.95C1238,-156.82 1292.62,-151.22 1335.72,-146.8"/>
<polygon fill="black" stroke="black" points="1336.26,-150.27 1345.85,-145.76 1335.55,-143.3 1336.26,-150.27"/>
</g>
<!-- ArgRanks -->
<g id="node17" class="node">
<title>ArgRanks</title>
<ellipse fill="none" stroke="black" cx="685.4" cy="-340.67" rx="46.29" ry="18"/>
<text text-anchor="middle" x="685.4" y="-336.97" font-family="Times,serif" font-size="14.00">ArgRanks</text>
</g>
<!-- ArgRanks&#45;&gt;IndexRanks -->
<g id="edge15" class="edge">
<title>ArgRanks&#45;&gt;IndexRanks</title>
<path fill="none" stroke="black" d="M721.97,-351.83C741.35,-357.93 765.73,-365.66 787.44,-372.67 808.94,-379.61 832.7,-387.42 852.82,-394.07"/>
<polygon fill="black" stroke="black" points="851.78,-397.41 862.37,-397.23 853.98,-390.77 851.78,-397.41"/>
</g>
<!-- ArgRanks&#45;&gt;SigMap -->
<g id="edge16" class="edge">
<title>ArgRanks&#45;&gt;SigMap</title>
<path fill="none" stroke="black" d="M706.48,-324.3C744.98,-292.91 829.21,-224.22 872.67,-188.79"/>
<polygon fill="black" stroke="black" points="875,-191.4 880.54,-182.37 870.57,-185.98 875,-191.4"/>
</g>
<!-- ArgIndels -->
<g id="node18" class="node">
<title>ArgIndels</title>
<ellipse fill="none" stroke="black" cx="501.22" cy="-340.67" rx="46.29" ry="18"/>
<text text-anchor="middle" x="501.22" y="-336.97" font-family="Times,serif" font-size="14.00">ArgIndels</text>
</g>
<!-- ArgIndels&#45;&gt;ArgRanks -->
<g id="edge17" class="edge">
<title>ArgIndels&#45;&gt;ArgRanks</title>
<path fill="none" stroke="black" d="M547.72,-340.67C572.38,-340.67 603.04,-340.67 629.07,-340.67"/>
<polygon fill="black" stroke="black" points="629.16,-344.17 639.16,-340.67 629.16,-337.17 629.16,-344.17"/>
</g>
<!-- ArgMutations -->
<g id="node19" class="node">
<title>ArgMutations</title>
<ellipse fill="none" stroke="black" cx="358.62" cy="-351.67" rx="60.39" ry="18"/>
<text text-anchor="middle" x="358.62" y="-347.97" font-family="Times,serif" font-size="14.00">ArgMutations</text>
</g>
<!-- ArgMutations&#45;&gt;Layout(layout) -->
<g id="edge21" class="edge">
<title>ArgMutations&#45;&gt;Layout(layout)</title>
<path fill="none" stroke="purple" d="M366.45,-333.45C394.11,-263.03 505.09,-12.67 684.4,-12.67 684.4,-12.67 684.4,-12.67 901.79,-12.67 1064.59,-12.67 1115.15,25.45 1267.61,-31.67 1314.47,-49.23 1358.04,-88.92 1383.15,-114.98"/>
<polygon fill="purple" stroke="purple" points="1380.62,-117.39 1390.03,-122.26 1385.71,-112.59 1380.62,-117.39"/>
</g>
<!-- ArgMutations&#45;&gt;IndexRanks -->
<g id="edge19" class="edge">
<title>ArgMutations&#45;&gt;IndexRanks</title>
<path fill="none" stroke="black" d="M410.54,-360.9C424.91,-363.32 440.58,-365.77 455.07,-367.67 591.77,-385.56 753.07,-398.86 838.88,-405.31"/>
<polygon fill="black" stroke="black" points="838.73,-408.81 848.97,-406.07 839.25,-401.83 838.73,-408.81"/>
</g>
<!-- ArgMutations&#45;&gt;SigMap -->
<g id="edge20" class="edge">
<title>ArgMutations&#45;&gt;SigMap</title>
<path fill="none" stroke="black" d="M394.79,-337.09C412.73,-329.8 434.96,-320.99 455.07,-313.67 602.18,-260.13 779.53,-203.98 858.44,-179.43"/>
<polygon fill="black" stroke="black" points="859.51,-182.76 868.02,-176.46 857.43,-176.08 859.51,-182.76"/>
</g>
<!-- ArgMutations&#45;&gt;ArgIndels -->
<g id="edge18" class="edge">
<title>ArgMutations&#45;&gt;ArgIndels</title>
<path fill="none" stroke="black" d="M417.21,-347.17C426.68,-346.42 436.47,-345.66 445.85,-344.92"/>
<polygon fill="black" stroke="black" points="446.15,-348.41 455.84,-344.14 445.6,-341.43 446.15,-348.41"/>
</g>
<!-- Args -->
<g id="node20" class="node">
<title>Args</title>
<ellipse fill="none" stroke="black" cx="27.95" cy="-428.67" rx="27.9" ry="18"/>
<text text-anchor="middle" x="27.95" y="-424.97" font-family="Times,serif" font-size="14.00">Args</text>
</g>
<!-- DataFormat(data_format) -->
<g id="node21" class="node">
<title>DataFormat(data_format)</title>
<ellipse fill="none" stroke="red" cx="685.4" cy="-432.67" rx="102.08" ry="18"/>
<text text-anchor="middle" x="685.4" y="-428.97" font-family="Times,serif" font-size="14.00">DataFormat(data_format)</text>
</g>
<!-- Args&#45;&gt;DataFormat(data_format) -->
<g id="edge22" class="edge">
<title>Args&#45;&gt;DataFormat(data_format)</title>
<path fill="none" stroke="purple" d="M56.28,-428.84C143.29,-429.37 417.25,-431.04 573.11,-431.99"/>
<polygon fill="purple" stroke="purple" points="573.18,-435.49 583.2,-432.05 573.22,-428.49 573.18,-435.49"/>
</g>
<!-- DataTensor(input) -->
<g id="node22" class="node">
<title>DataTensor(input)</title>
<ellipse fill="none" stroke="red" cx="177.04" cy="-474.67" rx="75.29" ry="18"/>
<text text-anchor="middle" x="177.04" y="-470.97" font-family="Times,serif" font-size="14.00">DataTensor(input)</text>
</g>
<!-- Args&#45;&gt;DataTensor(input) -->
<g id="edge23" class="edge">
<title>Args&#45;&gt;DataTensor(input)</title>
<path fill="none" stroke="purple" d="M53.57,-436.37C71.89,-442.1 97.62,-450.15 120.77,-457.39"/>
<polygon fill="purple" stroke="purple" points="119.92,-460.79 130.5,-460.43 122.01,-454.11 119.92,-460.79"/>
</g>
<!-- ShapeInt(block_size) -->
<g id="node23" class="node">
<title>ShapeInt(block_size)</title>
<ellipse fill="none" stroke="red" cx="177.04" cy="-363.67" rx="85.29" ry="18"/>
<text text-anchor="middle" x="177.04" y="-359.97" font-family="Times,serif" font-size="14.00">ShapeInt(block_size)</text>
</g>
<!-- Args&#45;&gt;ShapeInt(block_size) -->
<g id="edge24" class="edge">
<title>Args&#45;&gt;ShapeInt(block_size)</title>
<path fill="none" stroke="purple" d="M51.61,-418.66C72.42,-409.46 103.9,-395.55 129.99,-384.02"/>
<polygon fill="purple" stroke="purple" points="131.59,-387.14 139.33,-379.89 128.76,-380.74 131.59,-387.14"/>
</g>
<!-- DataFormat(data_format)&#45;&gt;Layout(layout) -->
<g id="edge27" class="edge">
<title>DataFormat(data_format)&#45;&gt;Layout(layout)</title>
<path fill="none" stroke="black" d="M715.67,-449.96C806.81,-501.34 1090.08,-641.94 1267.61,-517.67 1385.43,-435.19 1402.79,-240.81 1405.08,-167.93"/>
<polygon fill="black" stroke="black" points="1408.58,-167.78 1405.32,-157.7 1401.58,-167.61 1408.58,-167.78"/>
</g>
<!-- DataFormat(data_format)&#45;&gt;IndexRanks -->
<g id="edge26" class="edge">
<title>DataFormat(data_format)&#45;&gt;IndexRanks</title>
<path fill="none" stroke="black" d="M772.89,-423.35C795.52,-420.91 819.42,-418.33 840.29,-416.08"/>
<polygon fill="black" stroke="black" points="840.71,-419.56 850.28,-415.01 839.96,-412.6 840.71,-419.56"/>
</g>
<!-- DataTensor(input)&#45;&gt;DTypesNotImpl -->
<g id="edge29" class="edge">
<title>DataTensor(input)&#45;&gt;DTypesNotImpl</title>
<path fill="none" stroke="black" d="M235.14,-486.17C330.29,-505.34 520.63,-543.68 620.26,-563.75"/>
<polygon fill="black" stroke="black" points="619.7,-567.21 630.19,-565.75 621.08,-560.35 619.7,-567.21"/>
</g>
<!-- DataTensor(input)&#45;&gt;ArgMutations -->
<g id="edge28" class="edge">
<title>DataTensor(input)&#45;&gt;ArgMutations</title>
<path fill="none" stroke="black" d="M203.01,-457.57C234.82,-435.78 289.86,-398.08 324.97,-374.04"/>
<polygon fill="black" stroke="black" points="327.17,-376.77 333.44,-368.24 323.21,-371 327.17,-376.77"/>
</g>
<!-- ShapeInt(block_size)&#45;&gt;ArgMutations -->
<g id="edge31" class="edge">
<title>ShapeInt(block_size)&#45;&gt;ArgMutations</title>
<path fill="none" stroke="black" d="M258.38,-358.3C268.74,-357.61 279.28,-356.91 289.42,-356.23"/>
<polygon fill="black" stroke="black" points="289.67,-359.72 299.42,-355.56 289.21,-352.74 289.67,-359.72"/>
</g>
</g>
</svg>
