<?xml version="1.0" encoding="UTF-8" standalone="no"?>
<!DOCTYPE svg PUBLIC "-//W3C//DTD SVG 1.1//EN"
 "http://www.w3.org/Graphics/SVG/1.1/DTD/svg11.dtd">
<!-- Generated by graphviz version 2.43.0 (0)
 -->
<!-- Title: %3 Pages: 1 -->
<svg width="773pt" height="953pt"
 viewBox="0.00 0.00 773.34 953.27" xmlns="http://www.w3.org/2000/svg" xmlns:xlink="http://www.w3.org/1999/xlink">
<g id="graph0" class="graph" transform="scale(1 1) rotate(0) translate(4 949.27)">
<title>%3</title>
<polygon fill="white" stroke="transparent" points="-4,4 -4,-949.27 769.34,-949.27 769.34,4 -4,4"/>
<!-- Schema -->
<g id="node1" class="node">
<title>Schema</title>
<ellipse fill="none" stroke="black" cx="726.35" cy="-585" rx="38.99" ry="18"/>
<text text-anchor="middle" x="726.35" y="-581.3" font-family="Times,serif" font-size="14.00">Schema</text>
</g>
<!-- ShapeMap -->
<g id="node2" class="node">
<title>ShapeMap</title>
<ellipse fill="none" stroke="black" cx="174.44" cy="-396" rx="48.99" ry="18"/>
<text text-anchor="middle" x="174.44" y="-392.3" font-family="Times,serif" font-size="14.00">ShapeMap</text>
</g>
<!-- TensorShape(x) -->
<g id="node3" class="node">
<title>TensorShape(x)</title>
<ellipse fill="none" stroke="black" cx="352.13" cy="-288" rx="66.89" ry="18"/>
<text text-anchor="middle" x="352.13" y="-284.3" font-family="Times,serif" font-size="14.00">TensorShape(x)</text>
</g>
<!-- ShapeMap&#45;&gt;TensorShape(x) -->
<g id="edge1" class="edge">
<title>ShapeMap&#45;&gt;TensorShape(x)</title>
<path fill="none" stroke="purple" d="M189,-378.6C204.21,-360.24 230.51,-331.69 259.18,-315 268.23,-309.74 278.38,-305.43 288.54,-301.93"/>
<polygon fill="purple" stroke="purple" points="289.81,-305.2 298.26,-298.81 287.67,-298.53 289.81,-305.2"/>
</g>
<!-- TensorShape(cs_prev) -->
<g id="node4" class="node">
<title>TensorShape(cs_prev)</title>
<ellipse fill="none" stroke="black" cx="352.13" cy="-180" rx="89.88" ry="18"/>
<text text-anchor="middle" x="352.13" y="-176.3" font-family="Times,serif" font-size="14.00">TensorShape(cs_prev)</text>
</g>
<!-- ShapeMap&#45;&gt;TensorShape(cs_prev) -->
<g id="edge2" class="edge">
<title>ShapeMap&#45;&gt;TensorShape(cs_prev)</title>
<path fill="none" stroke="purple" d="M178.26,-377.94C185.08,-340.4 206.01,-253.6 259.18,-207 263.95,-202.83 269.32,-199.3 275.03,-196.31"/>
<polygon fill="purple" stroke="purple" points="276.62,-199.43 284.23,-192.06 273.68,-193.08 276.62,-199.43"/>
</g>
<!-- TensorShape(h_prev) -->
<g id="node5" class="node">
<title>TensorShape(h_prev)</title>
<ellipse fill="none" stroke="black" cx="352.13" cy="-504" rx="87.18" ry="18"/>
<text text-anchor="middle" x="352.13" y="-500.3" font-family="Times,serif" font-size="14.00">TensorShape(h_prev)</text>
</g>
<!-- ShapeMap&#45;&gt;TensorShape(h_prev) -->
<g id="edge3" class="edge">
<title>ShapeMap&#45;&gt;TensorShape(h_prev)</title>
<path fill="none" stroke="purple" d="M189,-413.4C204.21,-431.76 230.51,-460.31 259.18,-477 266.24,-481.11 273.96,-484.63 281.84,-487.64"/>
<polygon fill="purple" stroke="purple" points="280.91,-491.02 291.5,-491.07 283.25,-484.43 280.91,-491.02"/>
</g>
<!-- TensorShape(w) -->
<g id="node6" class="node">
<title>TensorShape(w)</title>
<ellipse fill="none" stroke="black" cx="352.13" cy="-72" rx="68.79" ry="18"/>
<text text-anchor="middle" x="352.13" y="-68.3" font-family="Times,serif" font-size="14.00">TensorShape(w)</text>
</g>
<!-- ShapeMap&#45;&gt;TensorShape(w) -->
<g id="edge4" class="edge">
<title>ShapeMap&#45;&gt;TensorShape(w)</title>
<path fill="none" stroke="purple" d="M174.91,-377.69C174.45,-326.18 180.44,-178.6 259.18,-99 265.47,-92.64 273.18,-87.76 281.42,-84.02"/>
<polygon fill="purple" stroke="purple" points="282.91,-87.2 290.92,-80.27 280.33,-80.69 282.91,-87.2"/>
</g>
<!-- TensorShape(b) -->
<g id="node7" class="node">
<title>TensorShape(b)</title>
<ellipse fill="none" stroke="black" cx="352.13" cy="-18" rx="66.89" ry="18"/>
<text text-anchor="middle" x="352.13" y="-14.3" font-family="Times,serif" font-size="14.00">TensorShape(b)</text>
</g>
<!-- ShapeMap&#45;&gt;TensorShape(b) -->
<g id="edge5" class="edge">
<title>ShapeMap&#45;&gt;TensorShape(b)</title>
<path fill="none" stroke="purple" d="M177.37,-377.92C184.62,-313.22 212.26,-94.4 259.18,-45 265.49,-38.36 273.34,-33.32 281.78,-29.51"/>
<polygon fill="purple" stroke="purple" points="283.1,-32.76 291.12,-25.84 280.53,-26.24 283.1,-32.76"/>
</g>
<!-- TensorShape(wci) -->
<g id="node8" class="node">
<title>TensorShape(wci)</title>
<ellipse fill="none" stroke="black" cx="352.13" cy="-720" rx="75.29" ry="18"/>
<text text-anchor="middle" x="352.13" y="-716.3" font-family="Times,serif" font-size="14.00">TensorShape(wci)</text>
</g>
<!-- ShapeMap&#45;&gt;TensorShape(wci) -->
<g id="edge6" class="edge">
<title>ShapeMap&#45;&gt;TensorShape(wci)</title>
<path fill="none" stroke="purple" d="M188.26,-413.39C199.26,-429.18 214.65,-453.53 223.18,-477 256.45,-568.46 194.63,-620.16 259.18,-693 264.19,-698.65 270.31,-703.14 276.99,-706.72"/>
<polygon fill="purple" stroke="purple" points="275.85,-710.04 286.4,-711.04 278.77,-703.68 275.85,-710.04"/>
</g>
<!-- TensorShape(wcf) -->
<g id="node9" class="node">
<title>TensorShape(wcf)</title>
<ellipse fill="none" stroke="black" cx="352.13" cy="-396" rx="75.29" ry="18"/>
<text text-anchor="middle" x="352.13" y="-392.3" font-family="Times,serif" font-size="14.00">TensorShape(wcf)</text>
</g>
<!-- ShapeMap&#45;&gt;TensorShape(wcf) -->
<g id="edge7" class="edge">
<title>ShapeMap&#45;&gt;TensorShape(wcf)</title>
<path fill="none" stroke="purple" d="M223.45,-396C236.74,-396 251.57,-396 266.29,-396"/>
<polygon fill="purple" stroke="purple" points="266.44,-399.5 276.44,-396 266.44,-392.5 266.44,-399.5"/>
</g>
<!-- TensorShape(wco) -->
<g id="node10" class="node">
<title>TensorShape(wco)</title>
<ellipse fill="none" stroke="black" cx="352.13" cy="-612" rx="77.19" ry="18"/>
<text text-anchor="middle" x="352.13" y="-608.3" font-family="Times,serif" font-size="14.00">TensorShape(wco)</text>
</g>
<!-- ShapeMap&#45;&gt;TensorShape(wco) -->
<g id="edge8" class="edge">
<title>ShapeMap&#45;&gt;TensorShape(wco)</title>
<path fill="none" stroke="purple" d="M187.18,-413.43C197.61,-429.46 212.77,-454.12 223.18,-477 244.15,-523.05 222.77,-549.87 259.18,-585 264.62,-590.24 271.01,-594.47 277.86,-597.89"/>
<polygon fill="purple" stroke="purple" points="276.86,-601.27 287.43,-602.05 279.66,-594.85 276.86,-601.27"/>
</g>
<!-- DataTensor(x) -->
<g id="node25" class="node">
<title>DataTensor(x)</title>
<ellipse fill="none" stroke="black" cx="566.21" cy="-450" rx="61.99" ry="18"/>
<text text-anchor="middle" x="566.21" y="-446.3" font-family="Times,serif" font-size="14.00">DataTensor(x)</text>
</g>
<!-- TensorShape(x)&#45;&gt;DataTensor(x) -->
<g id="edge25" class="edge">
<title>TensorShape(x)&#45;&gt;DataTensor(x)</title>
<path fill="none" stroke="black" d="M409.02,-297.7C421.67,-301.66 434.48,-307.21 445.07,-315 468.3,-332.09 462.57,-346.87 481.07,-369 498.32,-389.64 520.29,-410.65 537.46,-426.09"/>
<polygon fill="black" stroke="black" points="535.17,-428.74 544.97,-432.77 539.82,-423.51 535.17,-428.74"/>
</g>
<!-- DataTensor(cs_prev) -->
<g id="node26" class="node">
<title>DataTensor(cs_prev)</title>
<ellipse fill="none" stroke="black" cx="566.21" cy="-342" rx="85.29" ry="18"/>
<text text-anchor="middle" x="566.21" y="-338.3" font-family="Times,serif" font-size="14.00">DataTensor(cs_prev)</text>
</g>
<!-- TensorShape(cs_prev)&#45;&gt;DataTensor(cs_prev) -->
<g id="edge28" class="edge">
<title>TensorShape(cs_prev)&#45;&gt;DataTensor(cs_prev)</title>
<path fill="none" stroke="black" d="M417.19,-192.49C427.08,-196.15 436.76,-200.89 445.07,-207 468.3,-224.09 462.57,-238.87 481.07,-261 498.21,-281.51 520,-302.37 537.12,-317.79"/>
<polygon fill="black" stroke="black" points="534.82,-320.43 544.62,-324.47 539.48,-315.2 534.82,-320.43"/>
</g>
<!-- DataTensor(h_prev) -->
<g id="node27" class="node">
<title>DataTensor(h_prev)</title>
<ellipse fill="none" stroke="black" cx="566.21" cy="-585" rx="81.79" ry="18"/>
<text text-anchor="middle" x="566.21" y="-581.3" font-family="Times,serif" font-size="14.00">DataTensor(h_prev)</text>
</g>
<!-- TensorShape(h_prev)&#45;&gt;DataTensor(h_prev) -->
<g id="edge31" class="edge">
<title>TensorShape(h_prev)&#45;&gt;DataTensor(h_prev)</title>
<path fill="none" stroke="black" d="M410.74,-517.48C422.4,-521.15 434.36,-525.63 445.07,-531 462.95,-539.96 463.3,-548.82 481.07,-558 488.06,-561.62 495.64,-564.87 503.27,-567.75"/>
<polygon fill="black" stroke="black" points="502.35,-571.14 512.94,-571.22 504.71,-564.55 502.35,-571.14"/>
</g>
<!-- DataTensor(w) -->
<g id="node28" class="node">
<title>DataTensor(w)</title>
<ellipse fill="none" stroke="black" cx="566.21" cy="-234" rx="63.89" ry="18"/>
<text text-anchor="middle" x="566.21" y="-230.3" font-family="Times,serif" font-size="14.00">DataTensor(w)</text>
</g>
<!-- TensorShape(w)&#45;&gt;DataTensor(w) -->
<g id="edge34" class="edge">
<title>TensorShape(w)&#45;&gt;DataTensor(w)</title>
<path fill="none" stroke="black" d="M409.98,-82.01C422.32,-85.94 434.75,-91.41 445.07,-99 468.3,-116.09 462.57,-130.87 481.07,-153 498.32,-173.64 520.29,-194.65 537.46,-210.09"/>
<polygon fill="black" stroke="black" points="535.17,-212.74 544.97,-216.77 539.82,-207.51 535.17,-212.74"/>
</g>
<!-- DataTensor(b) -->
<g id="node29" class="node">
<title>DataTensor(b)</title>
<ellipse fill="none" stroke="black" cx="566.21" cy="-126" rx="61.99" ry="18"/>
<text text-anchor="middle" x="566.21" y="-122.3" font-family="Times,serif" font-size="14.00">DataTensor(b)</text>
</g>
<!-- TensorShape(b)&#45;&gt;DataTensor(b) -->
<g id="edge37" class="edge">
<title>TensorShape(b)&#45;&gt;DataTensor(b)</title>
<path fill="none" stroke="black" d="M403.3,-29.71C417.15,-33.75 431.97,-38.84 445.07,-45 478.32,-60.63 512.74,-84.79 536.17,-102.66"/>
<polygon fill="black" stroke="black" points="534.23,-105.59 544.28,-108.94 538.51,-100.05 534.23,-105.59"/>
</g>
<!-- DataTensor(wci) -->
<g id="node30" class="node">
<title>DataTensor(wci)</title>
<ellipse fill="none" stroke="black" cx="566.21" cy="-720" rx="70.39" ry="18"/>
<text text-anchor="middle" x="566.21" y="-716.3" font-family="Times,serif" font-size="14.00">DataTensor(wci)</text>
</g>
<!-- TensorShape(wci)&#45;&gt;DataTensor(wci) -->
<g id="edge40" class="edge">
<title>TensorShape(wci)&#45;&gt;DataTensor(wci)</title>
<path fill="none" stroke="black" d="M427.6,-720C446.42,-720 466.7,-720 485.75,-720"/>
<polygon fill="black" stroke="black" points="485.89,-723.5 495.89,-720 485.89,-716.5 485.89,-723.5"/>
</g>
<!-- DataTensor(wcf) -->
<g id="node31" class="node">
<title>DataTensor(wcf)</title>
<ellipse fill="none" stroke="black" cx="566.21" cy="-531" rx="70.69" ry="18"/>
<text text-anchor="middle" x="566.21" y="-527.3" font-family="Times,serif" font-size="14.00">DataTensor(wcf)</text>
</g>
<!-- TensorShape(wcf)&#45;&gt;DataTensor(wcf) -->
<g id="edge43" class="edge">
<title>TensorShape(wcf)&#45;&gt;DataTensor(wcf)</title>
<path fill="none" stroke="black" d="M412.87,-406.96C424.24,-410.81 435.55,-416 445.07,-423 468.3,-440.09 460.49,-456.78 481.07,-477 493.78,-489.49 509.83,-500.65 524.5,-509.54"/>
<polygon fill="black" stroke="black" points="523.02,-512.72 533.41,-514.77 526.56,-506.69 523.02,-512.72"/>
</g>
<!-- DataTensor(wco) -->
<g id="node32" class="node">
<title>DataTensor(wco)</title>
<ellipse fill="none" stroke="black" cx="566.21" cy="-639" rx="72.29" ry="18"/>
<text text-anchor="middle" x="566.21" y="-635.3" font-family="Times,serif" font-size="14.00">DataTensor(wco)</text>
</g>
<!-- TensorShape(wco)&#45;&gt;DataTensor(wco) -->
<g id="edge46" class="edge">
<title>TensorShape(wco)&#45;&gt;DataTensor(wco)</title>
<path fill="none" stroke="black" d="M420.23,-620.54C442.85,-623.42 468.22,-626.65 491.34,-629.6"/>
<polygon fill="black" stroke="black" points="491.07,-633.09 501.43,-630.88 491.96,-626.15 491.07,-633.09"/>
</g>
<!-- DTypes -->
<g id="node11" class="node">
<title>DTypes</title>
<ellipse fill="none" stroke="black" cx="174.44" cy="-504" rx="38.19" ry="18"/>
<text text-anchor="middle" x="174.44" y="-500.3" font-family="Times,serif" font-size="14.00">DTypes</text>
</g>
<!-- TensorDType(x) -->
<g id="node12" class="node">
<title>TensorDType(x)</title>
<ellipse fill="none" stroke="black" cx="352.13" cy="-450" rx="69.59" ry="18"/>
<text text-anchor="middle" x="352.13" y="-446.3" font-family="Times,serif" font-size="14.00">TensorDType(x)</text>
</g>
<!-- DTypes&#45;&gt;TensorDType(x) -->
<g id="edge9" class="edge">
<title>DTypes&#45;&gt;TensorDType(x)</title>
<path fill="none" stroke="purple" d="M206.4,-493.8C222.17,-488.67 241.66,-482.4 259.18,-477 270.74,-473.44 283.14,-469.73 294.97,-466.24"/>
<polygon fill="purple" stroke="purple" points="296.15,-469.54 304.75,-463.36 294.17,-462.82 296.15,-469.54"/>
</g>
<!-- TensorDType(cs_prev) -->
<g id="node13" class="node">
<title>TensorDType(cs_prev)</title>
<ellipse fill="none" stroke="black" cx="352.13" cy="-342" rx="92.88" ry="18"/>
<text text-anchor="middle" x="352.13" y="-338.3" font-family="Times,serif" font-size="14.00">TensorDType(cs_prev)</text>
</g>
<!-- DTypes&#45;&gt;TensorDType(cs_prev) -->
<g id="edge10" class="edge">
<title>DTypes&#45;&gt;TensorDType(cs_prev)</title>
<path fill="none" stroke="purple" d="M185.71,-486.72C206.86,-451.24 253.77,-373.12 259.18,-369 264.31,-365.1 269.99,-361.76 275.93,-358.9"/>
<polygon fill="purple" stroke="purple" points="277.66,-361.97 285.46,-354.8 274.89,-355.54 277.66,-361.97"/>
</g>
<!-- TensorDType(h_prev) -->
<g id="node14" class="node">
<title>TensorDType(h_prev)</title>
<ellipse fill="none" stroke="black" cx="352.13" cy="-666" rx="89.88" ry="18"/>
<text text-anchor="middle" x="352.13" y="-662.3" font-family="Times,serif" font-size="14.00">TensorDType(h_prev)</text>
</g>
<!-- DTypes&#45;&gt;TensorDType(h_prev) -->
<g id="edge11" class="edge">
<title>DTypes&#45;&gt;TensorDType(h_prev)</title>
<path fill="none" stroke="purple" d="M181.64,-521.79C192.65,-550.74 218.36,-607.93 259.18,-639 264.61,-643.13 270.65,-646.63 276.98,-649.59"/>
<polygon fill="purple" stroke="purple" points="275.84,-652.91 286.41,-653.57 278.56,-646.46 275.84,-652.91"/>
</g>
<!-- TensorDType(w) -->
<g id="node15" class="node">
<title>TensorDType(w)</title>
<ellipse fill="none" stroke="black" cx="352.13" cy="-234" rx="71.49" ry="18"/>
<text text-anchor="middle" x="352.13" y="-230.3" font-family="Times,serif" font-size="14.00">TensorDType(w)</text>
</g>
<!-- DTypes&#45;&gt;TensorDType(w) -->
<g id="edge12" class="edge">
<title>DTypes&#45;&gt;TensorDType(w)</title>
<path fill="none" stroke="purple" d="M187.74,-486.81C198.56,-470.95 213.96,-446.39 223.18,-423 250.24,-354.39 208.8,-314.87 259.18,-261 264.78,-255.02 271.62,-250.34 279.02,-246.68"/>
<polygon fill="purple" stroke="purple" points="280.82,-249.72 288.64,-242.58 278.07,-243.28 280.82,-249.72"/>
</g>
<!-- TensorDType(b) -->
<g id="node16" class="node">
<title>TensorDType(b)</title>
<ellipse fill="none" stroke="black" cx="352.13" cy="-126" rx="69.59" ry="18"/>
<text text-anchor="middle" x="352.13" y="-122.3" font-family="Times,serif" font-size="14.00">TensorDType(b)</text>
</g>
<!-- DTypes&#45;&gt;TensorDType(b) -->
<g id="edge13" class="edge">
<title>DTypes&#45;&gt;TensorDType(b)</title>
<path fill="none" stroke="purple" d="M188.23,-486.99C199.36,-471.25 214.98,-446.76 223.18,-423 262.71,-308.57 180.38,-244.9 259.18,-153 264.79,-146.46 271.88,-141.47 279.64,-137.66"/>
<polygon fill="purple" stroke="purple" points="281.15,-140.82 288.99,-133.7 278.42,-134.37 281.15,-140.82"/>
</g>
<!-- TensorDType(wci) -->
<g id="node17" class="node">
<title>TensorDType(wci)</title>
<ellipse fill="none" stroke="black" cx="352.13" cy="-828" rx="77.99" ry="18"/>
<text text-anchor="middle" x="352.13" y="-824.3" font-family="Times,serif" font-size="14.00">TensorDType(wci)</text>
</g>
<!-- DTypes&#45;&gt;TensorDType(wci) -->
<g id="edge14" class="edge">
<title>DTypes&#45;&gt;TensorDType(wci)</title>
<path fill="none" stroke="purple" d="M179.44,-521.98C193.21,-583.13 238.84,-780.43 259.18,-801 264.41,-806.29 270.62,-810.55 277.3,-813.98"/>
<polygon fill="purple" stroke="purple" points="276.1,-817.28 286.66,-818.18 278.96,-810.89 276.1,-817.28"/>
</g>
<!-- TensorDType(wcf) -->
<g id="node18" class="node">
<title>TensorDType(wcf)</title>
<ellipse fill="none" stroke="black" cx="352.13" cy="-558" rx="78.79" ry="18"/>
<text text-anchor="middle" x="352.13" y="-554.3" font-family="Times,serif" font-size="14.00">TensorDType(wcf)</text>
</g>
<!-- DTypes&#45;&gt;TensorDType(wcf) -->
<g id="edge15" class="edge">
<title>DTypes&#45;&gt;TensorDType(wcf)</title>
<path fill="none" stroke="purple" d="M206.4,-514.2C222.17,-519.33 241.66,-525.6 259.18,-531 270,-534.33 281.57,-537.8 292.72,-541.1"/>
<polygon fill="purple" stroke="purple" points="291.8,-544.48 302.38,-543.95 293.78,-537.76 291.8,-544.48"/>
</g>
<!-- TensorDType(wco) -->
<g id="node19" class="node">
<title>TensorDType(wco)</title>
<ellipse fill="none" stroke="black" cx="352.13" cy="-774" rx="79.89" ry="18"/>
<text text-anchor="middle" x="352.13" y="-770.3" font-family="Times,serif" font-size="14.00">TensorDType(wco)</text>
</g>
<!-- DTypes&#45;&gt;TensorDType(wco) -->
<g id="edge16" class="edge">
<title>DTypes&#45;&gt;TensorDType(wco)</title>
<path fill="none" stroke="purple" d="M176.25,-522.22C179.26,-567.15 193.34,-684.14 259.18,-747 264.48,-752.05 270.67,-756.17 277.29,-759.52"/>
<polygon fill="purple" stroke="purple" points="275.98,-762.77 286.54,-763.63 278.82,-756.37 275.98,-762.77"/>
</g>
<!-- TensorDType(x)&#45;&gt;DataTensor(x) -->
<g id="edge26" class="edge">
<title>TensorDType(x)&#45;&gt;DataTensor(x)</title>
<path fill="none" stroke="black" d="M421.69,-450C444.88,-450 470.82,-450 494.2,-450"/>
<polygon fill="black" stroke="black" points="494.39,-453.5 504.39,-450 494.39,-446.5 494.39,-453.5"/>
</g>
<!-- TensorDType(cs_prev)&#45;&gt;DataTensor(cs_prev) -->
<g id="edge29" class="edge">
<title>TensorDType(cs_prev)&#45;&gt;DataTensor(cs_prev)</title>
<path fill="none" stroke="black" d="M445.22,-342C453.65,-342 462.19,-342 470.64,-342"/>
<polygon fill="black" stroke="black" points="470.88,-345.5 480.88,-342 470.88,-338.5 470.88,-345.5"/>
</g>
<!-- TensorDType(h_prev)&#45;&gt;DataTensor(h_prev) -->
<g id="edge32" class="edge">
<title>TensorDType(h_prev)&#45;&gt;DataTensor(h_prev)</title>
<path fill="none" stroke="black" d="M411.23,-652.37C422.73,-648.73 434.51,-644.29 445.07,-639 462.95,-630.04 463.3,-621.18 481.07,-612 488.06,-608.38 495.64,-605.13 503.27,-602.25"/>
<polygon fill="black" stroke="black" points="504.71,-605.45 512.94,-598.78 502.35,-598.86 504.71,-605.45"/>
</g>
<!-- TensorDType(w)&#45;&gt;DataTensor(w) -->
<g id="edge35" class="edge">
<title>TensorDType(w)&#45;&gt;DataTensor(w)</title>
<path fill="none" stroke="black" d="M423.75,-234C445.79,-234 470.15,-234 492.35,-234"/>
<polygon fill="black" stroke="black" points="492.38,-237.5 502.38,-234 492.38,-230.5 492.38,-237.5"/>
</g>
<!-- TensorDType(b)&#45;&gt;DataTensor(b) -->
<g id="edge38" class="edge">
<title>TensorDType(b)&#45;&gt;DataTensor(b)</title>
<path fill="none" stroke="black" d="M421.69,-126C444.88,-126 470.82,-126 494.2,-126"/>
<polygon fill="black" stroke="black" points="494.39,-129.5 504.39,-126 494.39,-122.5 494.39,-129.5"/>
</g>
<!-- TensorDType(wci)&#45;&gt;DataTensor(wci) -->
<g id="edge41" class="edge">
<title>TensorDType(wci)&#45;&gt;DataTensor(wci)</title>
<path fill="none" stroke="black" d="M407.15,-815.14C419.86,-811.3 433.17,-806.59 445.07,-801 449.76,-798.79 498.32,-765.78 532.25,-742.59"/>
<polygon fill="black" stroke="black" points="534.24,-745.46 540.52,-736.93 530.29,-739.68 534.24,-745.46"/>
</g>
<!-- TensorDType(wcf)&#45;&gt;DataTensor(wcf) -->
<g id="edge44" class="edge">
<title>TensorDType(wcf)&#45;&gt;DataTensor(wcf)</title>
<path fill="none" stroke="black" d="M421.11,-549.35C443.9,-546.44 469.4,-543.2 492.55,-540.25"/>
<polygon fill="black" stroke="black" points="493.17,-543.7 502.65,-538.96 492.29,-536.76 493.17,-543.7"/>
</g>
<!-- TensorDType(wco)&#45;&gt;DataTensor(wco) -->
<g id="edge47" class="edge">
<title>TensorDType(wco)&#45;&gt;DataTensor(wco)</title>
<path fill="none" stroke="black" d="M414.31,-762.55C425.2,-758.75 435.95,-753.7 445.07,-747 468.3,-729.91 460.49,-713.22 481.07,-693 493.78,-680.51 509.83,-669.35 524.5,-660.46"/>
<polygon fill="black" stroke="black" points="526.56,-663.31 533.41,-655.23 523.02,-657.28 526.56,-663.31"/>
</g>
<!-- ArgMap -->
<g id="node20" class="node">
<title>ArgMap</title>
<ellipse fill="none" stroke="black" cx="174.44" cy="-743" rx="40.89" ry="18"/>
<text text-anchor="middle" x="174.44" y="-739.3" font-family="Times,serif" font-size="14.00">ArgMap</text>
</g>
<!-- DataFormat -->
<g id="node21" class="node">
<title>DataFormat</title>
<ellipse fill="none" stroke="black" cx="566.21" cy="-920" rx="53.09" ry="18"/>
<text text-anchor="middle" x="566.21" y="-916.3" font-family="Times,serif" font-size="14.00">DataFormat</text>
</g>
<!-- ArgMap&#45;&gt;DataFormat -->
<g id="edge17" class="edge">
<title>ArgMap&#45;&gt;DataFormat</title>
<path fill="none" stroke="blue" d="M178.41,-761C185.33,-796.5 206.18,-875.05 259.18,-909 336.41,-958.47 448.53,-946.26 513.44,-933.04"/>
<polygon fill="blue" stroke="blue" points="514.39,-936.41 523.44,-930.91 512.94,-929.57 514.39,-936.41"/>
</g>
<!-- DataFormat&#45;&gt;Schema -->
<g id="edge48" class="edge">
<title>DataFormat&#45;&gt;Schema</title>
<path fill="none" stroke="black" d="M608.39,-908.73C623.88,-902.57 640.38,-893.39 651.35,-880 716.74,-800.19 725.42,-670.34 725.86,-613.34"/>
<polygon fill="black" stroke="black" points="729.36,-613.26 725.86,-603.26 722.36,-613.27 729.36,-613.26"/>
</g>
<!-- Inventory -->
<g id="node22" class="node">
<title>Inventory</title>
<ellipse fill="none" stroke="black" cx="44.85" cy="-504" rx="44.69" ry="18"/>
<text text-anchor="middle" x="44.85" y="-500.3" font-family="Times,serif" font-size="14.00">Inventory</text>
</g>
<!-- Inventory&#45;&gt;ShapeMap -->
<g id="edge19" class="edge">
<title>Inventory&#45;&gt;ShapeMap</title>
<path fill="none" stroke="black" d="M64.95,-487.83C86.43,-469.64 121.51,-439.95 145.94,-419.27"/>
<polygon fill="black" stroke="black" points="148.41,-421.77 153.79,-412.63 143.89,-416.42 148.41,-421.77"/>
</g>
<!-- Inventory&#45;&gt;DTypes -->
<g id="edge18" class="edge">
<title>Inventory&#45;&gt;DTypes</title>
<path fill="none" stroke="black" d="M89.76,-504C101.35,-504 113.92,-504 125.71,-504"/>
<polygon fill="black" stroke="black" points="125.82,-507.5 135.82,-504 125.82,-500.5 125.82,-507.5"/>
</g>
<!-- Inventory&#45;&gt;ArgMap -->
<g id="edge20" class="edge">
<title>Inventory&#45;&gt;ArgMap</title>
<path fill="none" stroke="black" d="M55.23,-521.57C77.35,-563.01 132.88,-667.03 159.19,-716.31"/>
<polygon fill="black" stroke="black" points="156.24,-718.23 164.04,-725.4 162.42,-714.93 156.24,-718.23"/>
</g>
<!-- GetReturnTensors -->
<g id="node23" class="node">
<title>GetReturnTensors</title>
<ellipse fill="none" stroke="black" cx="566.21" cy="-805" rx="75.29" ry="18"/>
<text text-anchor="middle" x="566.21" y="-801.3" font-family="Times,serif" font-size="14.00">GetReturnTensors</text>
</g>
<!-- GetReturnTensors&#45;&gt;Schema -->
<g id="edge21" class="edge">
<title>GetReturnTensors&#45;&gt;Schema</title>
<path fill="none" stroke="black" d="M599.15,-788.57C616.38,-778.45 636.99,-764.13 651.35,-747 685.47,-706.31 707.12,-647.31 717.67,-612.88"/>
<polygon fill="black" stroke="black" points="721.1,-613.61 720.58,-603.03 714.39,-611.62 721.1,-613.61"/>
</g>
<!-- ValidReturnShapes -->
<g id="node24" class="node">
<title>ValidReturnShapes</title>
<ellipse fill="none" stroke="black" cx="352.13" cy="-882" rx="77.99" ry="18"/>
<text text-anchor="middle" x="352.13" y="-878.3" font-family="Times,serif" font-size="14.00">ValidReturnShapes</text>
</g>
<!-- ValidReturnShapes&#45;&gt;Schema -->
<g id="edge22" class="edge">
<title>ValidReturnShapes&#45;&gt;Schema</title>
<path fill="none" stroke="black" d="M422.8,-889.72C489.5,-893.1 588.95,-887.05 651.35,-832 715.6,-775.32 725.14,-665.34 725.86,-613.43"/>
<polygon fill="black" stroke="black" points="729.36,-613.29 725.9,-603.27 722.36,-613.26 729.36,-613.29"/>
</g>
<!-- ValidReturnShapes&#45;&gt;GetReturnTensors -->
<g id="edge23" class="edge">
<title>ValidReturnShapes&#45;&gt;GetReturnTensors</title>
<path fill="none" stroke="black" d="M403.55,-868.27C417.12,-864.28 431.74,-859.72 445.07,-855 470.41,-846.03 498.16,-834.6 520.59,-824.93"/>
<polygon fill="black" stroke="black" points="522.08,-828.1 529.86,-820.9 519.29,-821.68 522.08,-828.1"/>
</g>
<!-- DataTensor(x)&#45;&gt;Schema -->
<g id="edge24" class="edge">
<title>DataTensor(x)&#45;&gt;Schema</title>
<path fill="none" stroke="black" d="M596.15,-466.03C613,-475.97 634.23,-489.57 651.35,-504 671.5,-520.99 691.48,-543.27 705.59,-560.17"/>
<polygon fill="black" stroke="black" points="702.97,-562.49 712.03,-567.98 708.37,-558.04 702.97,-562.49"/>
</g>
<!-- DataTensor(cs_prev)&#45;&gt;Schema -->
<g id="edge27" class="edge">
<title>DataTensor(cs_prev)&#45;&gt;Schema</title>
<path fill="none" stroke="black" d="M589.5,-359.4C607.9,-374.64 633.77,-398.18 651.35,-423 681.81,-465.98 704.5,-523.51 716.27,-557.18"/>
<polygon fill="black" stroke="black" points="713.02,-558.49 719.57,-566.82 719.65,-556.23 713.02,-558.49"/>
</g>
<!-- DataTensor(h_prev)&#45;&gt;Schema -->
<g id="edge30" class="edge">
<title>DataTensor(h_prev)&#45;&gt;Schema</title>
<path fill="none" stroke="black" d="M648.13,-585C658.07,-585 667.97,-585 677.2,-585"/>
<polygon fill="black" stroke="black" points="677.31,-588.5 687.31,-585 677.31,-581.5 677.31,-588.5"/>
</g>
<!-- DataTensor(w)&#45;&gt;Schema -->
<g id="edge33" class="edge">
<title>DataTensor(w)&#45;&gt;Schema</title>
<path fill="none" stroke="black" d="M590.55,-250.71C609.6,-265.54 635.82,-288.85 651.35,-315 698.74,-394.78 716.6,-505.74 722.62,-556.99"/>
<polygon fill="black" stroke="black" points="719.15,-557.44 723.73,-566.99 726.11,-556.67 719.15,-557.44"/>
</g>
<!-- DataTensor(b)&#45;&gt;Schema -->
<g id="edge36" class="edge">
<title>DataTensor(b)&#45;&gt;Schema</title>
<path fill="none" stroke="black" d="M591.44,-142.72C610.76,-157.38 636.9,-180.47 651.35,-207 715.62,-324.96 724.59,-490.54 725.47,-556.38"/>
<polygon fill="black" stroke="black" points="721.98,-556.8 725.55,-566.78 728.98,-556.75 721.98,-556.8"/>
</g>
<!-- DataTensor(wci)&#45;&gt;Schema -->
<g id="edge39" class="edge">
<title>DataTensor(wci)&#45;&gt;Schema</title>
<path fill="none" stroke="black" d="M596.54,-703.74C613.33,-693.82 634.37,-680.32 651.35,-666 671.5,-649.01 691.48,-626.73 705.59,-609.83"/>
<polygon fill="black" stroke="black" points="708.37,-611.96 712.03,-602.02 702.97,-607.51 708.37,-611.96"/>
</g>
<!-- DataTensor(wcf)&#45;&gt;Schema -->
<g id="edge42" class="edge">
<title>DataTensor(wcf)&#45;&gt;Schema</title>
<path fill="none" stroke="black" d="M611.86,-544.97C624.65,-549.06 638.58,-553.62 651.35,-558 662.66,-561.88 674.87,-566.25 686.05,-570.33"/>
<polygon fill="black" stroke="black" points="684.97,-573.67 695.56,-573.83 687.38,-567.09 684.97,-573.67"/>
</g>
<!-- DataTensor(wco)&#45;&gt;Schema -->
<g id="edge45" class="edge">
<title>DataTensor(wco)&#45;&gt;Schema</title>
<path fill="none" stroke="black" d="M611.86,-625.03C624.65,-620.94 638.58,-616.38 651.35,-612 662.66,-608.12 674.87,-603.75 686.05,-599.67"/>
<polygon fill="black" stroke="black" points="687.38,-602.91 695.56,-596.17 684.97,-596.33 687.38,-602.91"/>
</g>
</g>
</svg>
