<?xml version="1.0" encoding="UTF-8" standalone="no"?>
<!DOCTYPE svg PUBLIC "-//W3C//DTD SVG 1.1//EN"
 "http://www.w3.org/Graphics/SVG/1.1/DTD/svg11.dtd">
<!-- Generated by graphviz version 2.43.0 (0)
 -->
<!-- Title: %3 Pages: 1 -->
<svg width="1217pt" height="842pt"
 viewBox="0.00 0.00 1217.11 842.44" xmlns="http://www.w3.org/2000/svg" xmlns:xlink="http://www.w3.org/1999/xlink">
<g id="graph0" class="graph" transform="scale(1 1) rotate(0) translate(4 838.44)">
<title>%3</title>
<polygon fill="white" stroke="transparent" points="-4,4 -4,-838.44 1213.11,-838.44 1213.11,4 -4,4"/>
<!-- ObservedValue(dtypes) -->
<g id="node1" class="node">
<title>ObservedValue(dtypes)</title>
<ellipse fill="none" stroke="black" cx="710.75" cy="-769" rx="92.88" ry="18"/>
<text text-anchor="middle" x="710.75" y="-765.3" font-family="Times,serif" font-size="14.00">ObservedValue(dtypes)</text>
</g>
<!-- ObservedValue(shapes) -->
<g id="node2" class="node">
<title>ObservedValue(shapes)</title>
<ellipse fill="none" stroke="black" cx="710.75" cy="-234" rx="93.68" ry="18"/>
<text text-anchor="middle" x="710.75" y="-230.3" font-family="Times,serif" font-size="14.00">ObservedValue(shapes)</text>
</g>
<!-- ObservedValue(args) -->
<g id="node3" class="node">
<title>ObservedValue(args)</title>
<ellipse fill="none" stroke="black" cx="367.72" cy="-577" rx="85.29" ry="18"/>
<text text-anchor="middle" x="367.72" y="-573.3" font-family="Times,serif" font-size="14.00">ObservedValue(args)</text>
</g>
<!-- Layout(layout) -->
<g id="node4" class="node">
<title>Layout(layout)</title>
<ellipse fill="none" stroke="black" cx="1145.42" cy="-288" rx="63.89" ry="18"/>
<text text-anchor="middle" x="1145.42" y="-284.3" font-family="Times,serif" font-size="14.00">Layout(layout)</text>
</g>
<!-- IndexRanks -->
<g id="node5" class="node">
<title>IndexRanks</title>
<ellipse fill="none" stroke="black" cx="710.75" cy="-596" rx="52.79" ry="18"/>
<text text-anchor="middle" x="710.75" y="-592.3" font-family="Times,serif" font-size="14.00">IndexRanks</text>
</g>
<!-- RankRange(batch) -->
<g id="node6" class="node">
<title>RankRange(batch)</title>
<ellipse fill="none" stroke="black" cx="943.03" cy="-596" rx="76.89" ry="18"/>
<text text-anchor="middle" x="943.03" y="-592.3" font-family="Times,serif" font-size="14.00">RankRange(batch)</text>
</g>
<!-- IndexRanks&#45;&gt;RankRange(batch) -->
<g id="edge1" class="edge">
<title>IndexRanks&#45;&gt;RankRange(batch)</title>
<path fill="none" stroke="purple" d="M763.43,-596C790.59,-596 824.61,-596 855.65,-596"/>
<polygon fill="purple" stroke="purple" points="856.05,-599.5 866.05,-596 856.05,-592.5 856.05,-599.5"/>
</g>
<!-- RankRange(input) -->
<g id="node7" class="node">
<title>RankRange(input)</title>
<ellipse fill="none" stroke="black" cx="943.03" cy="-542" rx="75.29" ry="18"/>
<text text-anchor="middle" x="943.03" y="-538.3" font-family="Times,serif" font-size="14.00">RankRange(input)</text>
</g>
<!-- IndexRanks&#45;&gt;RankRange(input) -->
<g id="edge2" class="edge">
<title>IndexRanks&#45;&gt;RankRange(input)</title>
<path fill="none" stroke="purple" d="M754.52,-585.97C789.42,-577.79 839.22,-566.11 878.73,-556.84"/>
<polygon fill="purple" stroke="purple" points="879.6,-560.23 888.54,-554.54 878.01,-553.42 879.6,-560.23"/>
</g>
<!-- RankRange(cell) -->
<g id="node8" class="node">
<title>RankRange(cell)</title>
<ellipse fill="none" stroke="black" cx="943.03" cy="-488" rx="70.39" ry="18"/>
<text text-anchor="middle" x="943.03" y="-484.3" font-family="Times,serif" font-size="14.00">RankRange(cell)</text>
</g>
<!-- IndexRanks&#45;&gt;RankRange(cell) -->
<g id="edge3" class="edge">
<title>IndexRanks&#45;&gt;RankRange(cell)</title>
<path fill="none" stroke="purple" d="M733.37,-579.49C758.04,-561.36 800.19,-532.49 840.34,-515 852.1,-509.88 865.06,-505.53 877.68,-501.93"/>
<polygon fill="purple" stroke="purple" points="878.97,-505.2 887.7,-499.19 877.13,-498.45 878.97,-505.2"/>
</g>
<!-- RankRange(input_+_cell) -->
<g id="node9" class="node">
<title>RankRange(input_+_cell)</title>
<ellipse fill="none" stroke="black" cx="943.03" cy="-704" rx="102.88" ry="18"/>
<text text-anchor="middle" x="943.03" y="-700.3" font-family="Times,serif" font-size="14.00">RankRange(input_+_cell)</text>
</g>
<!-- IndexRanks&#45;&gt;RankRange(input_+_cell) -->
<g id="edge4" class="edge">
<title>IndexRanks&#45;&gt;RankRange(input_+_cell)</title>
<path fill="none" stroke="purple" d="M733.37,-612.51C758.04,-630.64 800.19,-659.51 840.34,-677 849.04,-680.79 858.4,-684.15 867.79,-687.11"/>
<polygon fill="purple" stroke="purple" points="866.97,-690.52 877.56,-690.04 868.99,-683.81 866.97,-690.52"/>
</g>
<!-- RankRange(four_cells) -->
<g id="node10" class="node">
<title>RankRange(four_cells)</title>
<ellipse fill="none" stroke="black" cx="943.03" cy="-650" rx="92.88" ry="18"/>
<text text-anchor="middle" x="943.03" y="-646.3" font-family="Times,serif" font-size="14.00">RankRange(four_cells)</text>
</g>
<!-- IndexRanks&#45;&gt;RankRange(four_cells) -->
<g id="edge5" class="edge">
<title>IndexRanks&#45;&gt;RankRange(four_cells)</title>
<path fill="none" stroke="purple" d="M754.52,-606.03C787.72,-613.81 834.4,-624.76 872.89,-633.79"/>
<polygon fill="purple" stroke="purple" points="872.46,-637.28 882.99,-636.16 874.06,-630.46 872.46,-637.28"/>
</g>
<!-- DTypes -->
<g id="node11" class="node">
<title>DTypes</title>
<ellipse fill="none" stroke="black" cx="535.01" cy="-769" rx="38.19" ry="18"/>
<text text-anchor="middle" x="535.01" y="-765.3" font-family="Times,serif" font-size="14.00">DTypes</text>
</g>
<!-- DTypes&#45;&gt;ObservedValue(dtypes) -->
<g id="edge6" class="edge">
<title>DTypes&#45;&gt;ObservedValue(dtypes)</title>
<path fill="none" stroke="black" d="M573.71,-769C583.92,-769 595.49,-769 607.46,-769"/>
<polygon fill="black" stroke="black" points="607.59,-772.5 617.59,-769 607.59,-765.5 607.59,-772.5"/>
</g>
<!-- DTypes&#45;&gt;Layout(layout) -->
<g id="edge8" class="edge">
<title>DTypes&#45;&gt;Layout(layout)</title>
<path fill="none" stroke="black" d="M565.05,-780.38C651.38,-812.1 908.98,-891.15 1045.72,-764 1112.09,-702.29 1136.56,-409.16 1142.72,-316.29"/>
<polygon fill="black" stroke="black" points="1146.22,-316.43 1143.37,-306.23 1139.24,-315.98 1146.22,-316.43"/>
</g>
<!-- DTypes&#45;&gt;IndexRanks -->
<g id="edge7" class="edge">
<title>DTypes&#45;&gt;IndexRanks</title>
<path fill="none" stroke="black" d="M552.36,-752.72C583.03,-722.18 649.38,-656.11 685.36,-620.29"/>
<polygon fill="black" stroke="black" points="687.94,-622.66 692.55,-613.12 683,-617.7 687.94,-622.66"/>
</g>
<!-- SigMap -->
<g id="node12" class="node">
<title>SigMap</title>
<ellipse fill="none" stroke="black" cx="710.75" cy="-288" rx="38.99" ry="18"/>
<text text-anchor="middle" x="710.75" y="-284.3" font-family="Times,serif" font-size="14.00">SigMap</text>
</g>
<!-- Sig(x) -->
<g id="node13" class="node">
<title>Sig(x)</title>
<ellipse fill="none" stroke="black" cx="943.03" cy="-126" rx="32.49" ry="18"/>
<text text-anchor="middle" x="943.03" y="-122.3" font-family="Times,serif" font-size="14.00">Sig(x)</text>
</g>
<!-- SigMap&#45;&gt;Sig(x) -->
<g id="edge9" class="edge">
<title>SigMap&#45;&gt;Sig(x)</title>
<path fill="none" stroke="purple" d="M749.66,-285.12C768.26,-281.85 789.75,-275.05 804.34,-261 840.79,-225.91 803.47,-187.65 840.34,-153 856.4,-137.91 879.9,-131.05 900.27,-128.01"/>
<polygon fill="purple" stroke="purple" points="900.77,-131.47 910.27,-126.77 899.92,-124.52 900.77,-131.47"/>
</g>
<!-- Sig(cs_prev) -->
<g id="node14" class="node">
<title>Sig(cs_prev)</title>
<ellipse fill="none" stroke="black" cx="943.03" cy="-72" rx="55.79" ry="18"/>
<text text-anchor="middle" x="943.03" y="-68.3" font-family="Times,serif" font-size="14.00">Sig(cs_prev)</text>
</g>
<!-- SigMap&#45;&gt;Sig(cs_prev) -->
<g id="edge10" class="edge">
<title>SigMap&#45;&gt;Sig(cs_prev)</title>
<path fill="none" stroke="purple" d="M749.82,-285.8C768.69,-282.74 790.37,-275.91 804.34,-261 854.77,-207.18 789.26,-152.21 840.34,-99 850.47,-88.45 864.2,-81.86 878.29,-77.78"/>
<polygon fill="purple" stroke="purple" points="879.21,-81.16 888.07,-75.35 877.52,-74.37 879.21,-81.16"/>
</g>
<!-- Sig(h_prev) -->
<g id="node15" class="node">
<title>Sig(h_prev)</title>
<ellipse fill="none" stroke="black" cx="943.03" cy="-18" rx="52.79" ry="18"/>
<text text-anchor="middle" x="943.03" y="-14.3" font-family="Times,serif" font-size="14.00">Sig(h_prev)</text>
</g>
<!-- SigMap&#45;&gt;Sig(h_prev) -->
<g id="edge11" class="edge">
<title>SigMap&#45;&gt;Sig(h_prev)</title>
<path fill="none" stroke="purple" d="M749.68,-286.18C768.76,-283.24 790.67,-276.4 804.34,-261 868.96,-188.22 774.85,-116.99 840.34,-45 850.83,-33.47 865.62,-26.63 880.68,-22.63"/>
<polygon fill="purple" stroke="purple" points="881.59,-26.01 890.58,-20.39 880.05,-19.18 881.59,-26.01"/>
</g>
<!-- Sig(w) -->
<g id="node16" class="node">
<title>Sig(w)</title>
<ellipse fill="none" stroke="black" cx="943.03" cy="-396" rx="34.39" ry="18"/>
<text text-anchor="middle" x="943.03" y="-392.3" font-family="Times,serif" font-size="14.00">Sig(w)</text>
</g>
<!-- SigMap&#45;&gt;Sig(w) -->
<g id="edge12" class="edge">
<title>SigMap&#45;&gt;Sig(w)</title>
<path fill="none" stroke="purple" d="M731.61,-303.22C756.01,-321.25 799.22,-351.09 840.34,-369 859.28,-377.25 881.32,-383.48 900.04,-387.86"/>
<polygon fill="purple" stroke="purple" points="899.52,-391.33 910.05,-390.11 901.06,-384.5 899.52,-391.33"/>
</g>
<!-- Sig(b) -->
<g id="node17" class="node">
<title>Sig(b)</title>
<ellipse fill="none" stroke="black" cx="943.03" cy="-342" rx="32.49" ry="18"/>
<text text-anchor="middle" x="943.03" y="-338.3" font-family="Times,serif" font-size="14.00">Sig(b)</text>
</g>
<!-- SigMap&#45;&gt;Sig(b) -->
<g id="edge13" class="edge">
<title>SigMap&#45;&gt;Sig(b)</title>
<path fill="none" stroke="purple" d="M745.73,-295.97C787.63,-305.79 858.71,-322.46 902.86,-332.82"/>
<polygon fill="purple" stroke="purple" points="902.13,-336.24 912.67,-335.11 903.73,-329.42 902.13,-336.24"/>
</g>
<!-- Sig(wci) -->
<g id="node18" class="node">
<title>Sig(wci)</title>
<ellipse fill="none" stroke="black" cx="943.03" cy="-288" rx="40.89" ry="18"/>
<text text-anchor="middle" x="943.03" y="-284.3" font-family="Times,serif" font-size="14.00">Sig(wci)</text>
</g>
<!-- SigMap&#45;&gt;Sig(wci) -->
<g id="edge14" class="edge">
<title>SigMap&#45;&gt;Sig(wci)</title>
<path fill="none" stroke="purple" d="M749.78,-288C788.6,-288 849.08,-288 891.83,-288"/>
<polygon fill="purple" stroke="purple" points="892.01,-291.5 902.01,-288 892.01,-284.5 892.01,-291.5"/>
</g>
<!-- Sig(wcf) -->
<g id="node19" class="node">
<title>Sig(wcf)</title>
<ellipse fill="none" stroke="black" cx="943.03" cy="-234" rx="41.69" ry="18"/>
<text text-anchor="middle" x="943.03" y="-230.3" font-family="Times,serif" font-size="14.00">Sig(wcf)</text>
</g>
<!-- SigMap&#45;&gt;Sig(wcf) -->
<g id="edge15" class="edge">
<title>SigMap&#45;&gt;Sig(wcf)</title>
<path fill="none" stroke="purple" d="M745.73,-280.03C785.54,-270.7 851.69,-255.18 896.07,-244.78"/>
<polygon fill="purple" stroke="purple" points="897.08,-248.14 906.02,-242.45 895.48,-241.32 897.08,-248.14"/>
</g>
<!-- Sig(wco) -->
<g id="node20" class="node">
<title>Sig(wco)</title>
<ellipse fill="none" stroke="black" cx="943.03" cy="-180" rx="42.79" ry="18"/>
<text text-anchor="middle" x="943.03" y="-176.3" font-family="Times,serif" font-size="14.00">Sig(wco)</text>
</g>
<!-- SigMap&#45;&gt;Sig(wco) -->
<g id="edge16" class="edge">
<title>SigMap&#45;&gt;Sig(wco)</title>
<path fill="none" stroke="purple" d="M748.67,-283.3C766.79,-279.57 788.14,-272.89 804.34,-261 827.59,-243.93 816.88,-223.79 840.34,-207 855.12,-196.43 873.77,-189.99 891.04,-186.08"/>
<polygon fill="purple" stroke="purple" points="891.92,-189.47 901.02,-184.05 890.52,-182.61 891.92,-189.47"/>
</g>
<!-- Sig(x)&#45;&gt;Layout(layout) -->
<g id="edge29" class="edge">
<title>Sig(x)&#45;&gt;Layout(layout)</title>
<path fill="none" stroke="black" d="M975.2,-128.79C996.58,-131.94 1024.76,-138.67 1045.72,-153 1085.95,-180.49 1115.85,-229.96 1131.68,-260.78"/>
<polygon fill="black" stroke="black" points="1128.72,-262.69 1136.32,-270.07 1134.98,-259.56 1128.72,-262.69"/>
</g>
<!-- Sig(cs_prev)&#45;&gt;Layout(layout) -->
<g id="edge30" class="edge">
<title>Sig(cs_prev)&#45;&gt;Layout(layout)</title>
<path fill="none" stroke="black" d="M996.45,-77.38C1013.56,-81.24 1031.74,-87.82 1045.72,-99 1098.36,-141.09 1126.05,-218.91 1137.65,-260.35"/>
<polygon fill="black" stroke="black" points="1134.28,-261.31 1140.26,-270.06 1141.04,-259.49 1134.28,-261.31"/>
</g>
<!-- Sig(h_prev)&#45;&gt;Layout(layout) -->
<g id="edge31" class="edge">
<title>Sig(h_prev)&#45;&gt;Layout(layout)</title>
<path fill="none" stroke="black" d="M994.46,-22.08C1012.39,-25.76 1031.61,-32.56 1045.72,-45 1110.95,-102.47 1133.78,-209.37 1141.17,-260.01"/>
<polygon fill="black" stroke="black" points="1137.7,-260.49 1142.52,-269.93 1144.64,-259.55 1137.7,-260.49"/>
</g>
<!-- Sig(w)&#45;&gt;Layout(layout) -->
<g id="edge32" class="edge">
<title>Sig(w)&#45;&gt;Layout(layout)</title>
<path fill="none" stroke="black" d="M976.46,-391.05C997.1,-387.03 1023.94,-380.16 1045.72,-369 1074.03,-354.5 1101.62,-330.8 1120.39,-312.78"/>
<polygon fill="black" stroke="black" points="1123.18,-314.94 1127.88,-305.44 1118.28,-309.94 1123.18,-314.94"/>
</g>
<!-- Sig(b)&#45;&gt;Layout(layout) -->
<g id="edge33" class="edge">
<title>Sig(b)&#45;&gt;Layout(layout)</title>
<path fill="none" stroke="black" d="M972.98,-334.38C993.33,-329 1021.21,-321.61 1045.72,-315 1059.94,-311.17 1075.29,-306.99 1089.56,-303.09"/>
<polygon fill="black" stroke="black" points="1090.51,-306.45 1099.23,-300.44 1088.67,-299.7 1090.51,-306.45"/>
</g>
<!-- Sig(wci)&#45;&gt;Layout(layout) -->
<g id="edge34" class="edge">
<title>Sig(wci)&#45;&gt;Layout(layout)</title>
<path fill="none" stroke="black" d="M984.1,-288C1009.03,-288 1041.84,-288 1071.28,-288"/>
<polygon fill="black" stroke="black" points="1071.53,-291.5 1081.53,-288 1071.53,-284.5 1071.53,-291.5"/>
</g>
<!-- Sig(wcf)&#45;&gt;Layout(layout) -->
<g id="edge35" class="edge">
<title>Sig(wcf)&#45;&gt;Layout(layout)</title>
<path fill="none" stroke="black" d="M978.88,-243.18C998.52,-248.38 1023.5,-255.01 1045.72,-261 1059.94,-264.83 1075.29,-269.01 1089.56,-272.91"/>
<polygon fill="black" stroke="black" points="1088.67,-276.3 1099.23,-275.56 1090.51,-269.55 1088.67,-276.3"/>
</g>
<!-- Sig(wco)&#45;&gt;Layout(layout) -->
<g id="edge36" class="edge">
<title>Sig(wco)&#45;&gt;Layout(layout)</title>
<path fill="none" stroke="black" d="M983.61,-186.41C1003.04,-190.56 1026.38,-197.09 1045.72,-207 1074.03,-221.5 1101.62,-245.2 1120.39,-263.22"/>
<polygon fill="black" stroke="black" points="1118.28,-266.06 1127.88,-270.56 1123.18,-261.06 1118.28,-266.06"/>
</g>
<!-- ArgIndels -->
<g id="node21" class="node">
<title>ArgIndels</title>
<ellipse fill="none" stroke="black" cx="535.01" cy="-442" rx="46.29" ry="18"/>
<text text-anchor="middle" x="535.01" y="-438.3" font-family="Times,serif" font-size="14.00">ArgIndels</text>
</g>
<!-- ArgIndels&#45;&gt;ObservedValue(shapes) -->
<g id="edge19" class="edge">
<title>ArgIndels&#45;&gt;ObservedValue(shapes)</title>
<path fill="none" stroke="black" d="M543.06,-424.06C560.25,-380.62 603.91,-272.53 617.16,-261 621.88,-256.89 627.2,-253.4 632.84,-250.44"/>
<polygon fill="black" stroke="black" points="634.34,-253.61 641.93,-246.22 631.39,-247.26 634.34,-253.61"/>
</g>
<!-- ArgIndels&#45;&gt;Layout(layout) -->
<g id="edge20" class="edge">
<title>ArgIndels&#45;&gt;Layout(layout)</title>
<path fill="none" stroke="black" d="M580.69,-445.21C689.65,-452.28 965.96,-465.38 1045.72,-423 1089.4,-399.79 1118.66,-347.68 1133.34,-315.42"/>
<polygon fill="black" stroke="black" points="1136.62,-316.66 1137.43,-306.09 1130.21,-313.85 1136.62,-316.66"/>
</g>
<!-- ArgIndels&#45;&gt;IndexRanks -->
<g id="edge17" class="edge">
<title>ArgIndels&#45;&gt;IndexRanks</title>
<path fill="none" stroke="black" d="M554.61,-458.48C585.53,-485.89 647.64,-540.95 683.18,-572.45"/>
<polygon fill="black" stroke="black" points="680.96,-575.16 690.76,-579.17 685.6,-569.92 680.96,-575.16"/>
</g>
<!-- ArgIndels&#45;&gt;SigMap -->
<g id="edge18" class="edge">
<title>ArgIndels&#45;&gt;SigMap</title>
<path fill="none" stroke="black" d="M554.61,-425.52C585.86,-397.82 648.95,-341.89 684.29,-310.56"/>
<polygon fill="black" stroke="black" points="686.65,-313.15 691.81,-303.9 682.01,-307.91 686.65,-313.15"/>
</g>
<!-- IndexUsage -->
<g id="node22" class="node">
<title>IndexUsage</title>
<ellipse fill="none" stroke="black" cx="367.72" cy="-496" rx="52.79" ry="18"/>
<text text-anchor="middle" x="367.72" y="-492.3" font-family="Times,serif" font-size="14.00">IndexUsage</text>
</g>
<!-- IndexUsage&#45;&gt;ObservedValue(shapes) -->
<g id="edge23" class="edge">
<title>IndexUsage&#45;&gt;ObservedValue(shapes)</title>
<path fill="none" stroke="black" d="M382.05,-478.63C416.25,-435.26 511.84,-321.4 617.16,-261 623.9,-257.13 631.24,-253.78 638.74,-250.89"/>
<polygon fill="black" stroke="black" points="640.06,-254.13 648.29,-247.46 637.7,-247.54 640.06,-254.13"/>
</g>
<!-- IndexUsage&#45;&gt;IndexRanks -->
<g id="edge21" class="edge">
<title>IndexUsage&#45;&gt;IndexRanks</title>
<path fill="none" stroke="black" d="M408.18,-507.57C470.68,-525.9 592.33,-561.57 660.47,-581.55"/>
<polygon fill="black" stroke="black" points="659.54,-584.93 670.13,-584.38 661.51,-578.21 659.54,-584.93"/>
</g>
<!-- IndexUsage&#45;&gt;ArgIndels -->
<g id="edge22" class="edge">
<title>IndexUsage&#45;&gt;ArgIndels</title>
<path fill="none" stroke="black" d="M406.64,-483.61C431.32,-475.55 463.61,-465 489.51,-456.54"/>
<polygon fill="black" stroke="black" points="490.67,-459.84 499.09,-453.41 488.5,-453.19 490.67,-459.84"/>
</g>
<!-- IndexConstraints -->
<g id="node23" class="node">
<title>IndexConstraints</title>
<ellipse fill="none" stroke="black" cx="175.74" cy="-575" rx="70.69" ry="18"/>
<text text-anchor="middle" x="175.74" y="-571.3" font-family="Times,serif" font-size="14.00">IndexConstraints</text>
</g>
<!-- IndexConstraints&#45;&gt;ObservedValue(args) -->
<g id="edge25" class="edge">
<title>IndexConstraints&#45;&gt;ObservedValue(args)</title>
<path fill="none" stroke="black" d="M246.67,-575.74C255.04,-575.82 263.68,-575.92 272.32,-576.01"/>
<polygon fill="black" stroke="black" points="272.4,-579.51 282.44,-576.11 272.48,-572.51 272.4,-579.51"/>
</g>
<!-- IndexConstraints&#45;&gt;IndexUsage -->
<g id="edge24" class="edge">
<title>IndexConstraints&#45;&gt;IndexUsage</title>
<path fill="none" stroke="black" d="M213.82,-559.58C245.47,-546.42 290.98,-527.49 324.12,-513.71"/>
<polygon fill="black" stroke="black" points="325.66,-516.87 333.55,-509.8 322.97,-510.4 325.66,-516.87"/>
</g>
<!-- Report -->
<g id="node24" class="node">
<title>Report</title>
<ellipse fill="none" stroke="black" cx="34.45" cy="-629" rx="34.39" ry="18"/>
<text text-anchor="middle" x="34.45" y="-625.3" font-family="Times,serif" font-size="14.00">Report</text>
</g>
<!-- Report&#45;&gt;DTypes -->
<g id="edge26" class="edge">
<title>Report&#45;&gt;DTypes</title>
<path fill="none" stroke="black" d="M58.82,-641.93C101.73,-665.05 196.6,-713.27 282.58,-737 352.03,-756.17 435.48,-763.91 486.63,-767"/>
<polygon fill="black" stroke="black" points="486.54,-770.5 496.72,-767.57 486.94,-763.51 486.54,-770.5"/>
</g>
<!-- Report&#45;&gt;IndexConstraints -->
<g id="edge27" class="edge">
<title>Report&#45;&gt;IndexConstraints</title>
<path fill="none" stroke="black" d="M62.49,-618.47C75.33,-613.48 90.9,-607.42 104.89,-602 111.81,-599.32 119.11,-596.49 126.29,-593.72"/>
<polygon fill="black" stroke="black" points="127.88,-596.85 135.94,-589.98 125.35,-590.32 127.88,-596.85"/>
</g>
<!-- DataFormat -->
<g id="node25" class="node">
<title>DataFormat</title>
<ellipse fill="none" stroke="black" cx="175.74" cy="-629" rx="53.09" ry="18"/>
<text text-anchor="middle" x="175.74" y="-625.3" font-family="Times,serif" font-size="14.00">DataFormat</text>
</g>
<!-- Report&#45;&gt;DataFormat -->
<g id="edge28" class="edge">
<title>Report&#45;&gt;DataFormat</title>
<path fill="none" stroke="blue" d="M69.17,-629C82.12,-629 97.35,-629 112.16,-629"/>
<polygon fill="blue" stroke="blue" points="112.31,-632.5 122.31,-629 112.31,-625.5 112.31,-632.5"/>
</g>
<!-- DataFormat&#45;&gt;ObservedValue(args) -->
<g id="edge39" class="edge">
<title>DataFormat&#45;&gt;ObservedValue(args)</title>
<path fill="none" stroke="black" d="M217.96,-617.72C243.34,-610.77 276.36,-601.73 304.84,-593.94"/>
<polygon fill="black" stroke="black" points="305.99,-597.25 314.71,-591.24 304.14,-590.5 305.99,-597.25"/>
</g>
<!-- DataFormat&#45;&gt;Layout(layout) -->
<g id="edge38" class="edge">
<title>DataFormat&#45;&gt;Layout(layout)</title>
<path fill="none" stroke="black" d="M221.88,-638.04C391.02,-671.39 980.84,-783.02 1045.72,-731 1111.3,-678.42 1136.12,-405.79 1142.57,-316.41"/>
<polygon fill="black" stroke="black" points="1146.08,-316.43 1143.29,-306.21 1139.1,-315.94 1146.08,-316.43"/>
</g>
<!-- DataFormat&#45;&gt;IndexRanks -->
<g id="edge37" class="edge">
<title>DataFormat&#45;&gt;IndexRanks</title>
<path fill="none" stroke="black" d="M228.33,-625.81C327.19,-619.69 542.88,-606.33 648.71,-599.78"/>
<polygon fill="black" stroke="black" points="649.15,-603.26 658.91,-599.15 648.71,-596.27 649.15,-603.26"/>
</g>
</g>
</svg>
