<?xml version="1.0" encoding="UTF-8" standalone="no"?>
<!DOCTYPE svg PUBLIC "-//W3C//DTD SVG 1.1//EN"
 "http://www.w3.org/Graphics/SVG/1.1/DTD/svg11.dtd">
<!-- Generated by graphviz version 2.43.0 (0)
 -->
<!-- Title: %3 Pages: 1 -->
<svg width="1375pt" height="900pt"
 viewBox="0.00 0.00 1375.30 899.73" xmlns="http://www.w3.org/2000/svg" xmlns:xlink="http://www.w3.org/1999/xlink">
<g id="graph0" class="graph" transform="scale(1 1) rotate(0) translate(4 895.73)">
<title>%3</title>
<polygon fill="white" stroke="transparent" points="-4,4 -4,-895.73 1371.3,-895.73 1371.3,4 -4,4"/>
<!-- Layout(layout) -->
<g id="node1" class="node">
<title>Layout(layout)</title>
<ellipse fill="none" stroke="black" cx="1303.61" cy="-630.73" rx="63.89" ry="18"/>
<text text-anchor="middle" x="1303.61" y="-627.03" font-family="Times,serif" font-size="14.00">Layout(layout)</text>
</g>
<!-- IndexRanks -->
<g id="node2" class="node">
<title>IndexRanks</title>
<ellipse fill="none" stroke="black" cx="909.89" cy="-387.73" rx="52.79" ry="18"/>
<text text-anchor="middle" x="909.89" y="-384.03" font-family="Times,serif" font-size="14.00">IndexRanks</text>
</g>
<!-- RankRange(batch) -->
<g id="node3" class="node">
<title>RankRange(batch)</title>
<ellipse fill="none" stroke="black" cx="1101.22" cy="-441.73" rx="76.89" ry="18"/>
<text text-anchor="middle" x="1101.22" y="-438.03" font-family="Times,serif" font-size="14.00">RankRange(batch)</text>
</g>
<!-- IndexRanks&#45;&gt;RankRange(batch) -->
<g id="edge1" class="edge">
<title>IndexRanks&#45;&gt;RankRange(batch)</title>
<path fill="none" stroke="purple" d="M949.18,-399.88C964.49,-404.65 982.31,-410.07 998.53,-414.73 1011.54,-418.46 1025.54,-422.29 1038.87,-425.85"/>
<polygon fill="purple" stroke="purple" points="1038.34,-429.33 1048.9,-428.52 1040.14,-422.57 1038.34,-429.33"/>
</g>
<!-- RankRange(input) -->
<g id="node4" class="node">
<title>RankRange(input)</title>
<ellipse fill="none" stroke="black" cx="1101.22" cy="-387.73" rx="75.29" ry="18"/>
<text text-anchor="middle" x="1101.22" y="-384.03" font-family="Times,serif" font-size="14.00">RankRange(input)</text>
</g>
<!-- IndexRanks&#45;&gt;RankRange(input) -->
<g id="edge2" class="edge">
<title>IndexRanks&#45;&gt;RankRange(input)</title>
<path fill="none" stroke="purple" d="M962.62,-387.73C978.9,-387.73 997.32,-387.73 1015.27,-387.73"/>
<polygon fill="purple" stroke="purple" points="1015.48,-391.23 1025.48,-387.73 1015.48,-384.23 1015.48,-391.23"/>
</g>
<!-- RankRange(cell) -->
<g id="node5" class="node">
<title>RankRange(cell)</title>
<ellipse fill="none" stroke="black" cx="1101.22" cy="-333.73" rx="70.39" ry="18"/>
<text text-anchor="middle" x="1101.22" y="-330.03" font-family="Times,serif" font-size="14.00">RankRange(cell)</text>
</g>
<!-- IndexRanks&#45;&gt;RankRange(cell) -->
<g id="edge3" class="edge">
<title>IndexRanks&#45;&gt;RankRange(cell)</title>
<path fill="none" stroke="purple" d="M949.18,-375.57C964.49,-370.8 982.31,-365.38 998.53,-360.73 1012.24,-356.8 1027.04,-352.75 1040.99,-349.03"/>
<polygon fill="purple" stroke="purple" points="1042.21,-352.33 1050.98,-346.38 1040.41,-345.56 1042.21,-352.33"/>
</g>
<!-- RankRange(input_+_cell) -->
<g id="node6" class="node">
<title>RankRange(input_+_cell)</title>
<ellipse fill="none" stroke="black" cx="1101.22" cy="-279.73" rx="102.88" ry="18"/>
<text text-anchor="middle" x="1101.22" y="-276.03" font-family="Times,serif" font-size="14.00">RankRange(input_+_cell)</text>
</g>
<!-- IndexRanks&#45;&gt;RankRange(input_+_cell) -->
<g id="edge4" class="edge">
<title>IndexRanks&#45;&gt;RankRange(input_+_cell)</title>
<path fill="none" stroke="purple" d="M925.17,-370.2C941.16,-351.74 968.76,-323.1 998.53,-306.73 1005.89,-302.68 1013.89,-299.21 1022.06,-296.25"/>
<polygon fill="purple" stroke="purple" points="1023.35,-299.51 1031.71,-293 1021.11,-292.88 1023.35,-299.51"/>
</g>
<!-- RankRange(four_cells) -->
<g id="node7" class="node">
<title>RankRange(four_cells)</title>
<ellipse fill="none" stroke="black" cx="1101.22" cy="-225.73" rx="92.88" ry="18"/>
<text text-anchor="middle" x="1101.22" y="-222.03" font-family="Times,serif" font-size="14.00">RankRange(four_cells)</text>
</g>
<!-- IndexRanks&#45;&gt;RankRange(four_cells) -->
<g id="edge5" class="edge">
<title>IndexRanks&#45;&gt;RankRange(four_cells)</title>
<path fill="none" stroke="purple" d="M917.52,-369.81C929.25,-340.67 956.45,-283.23 998.53,-252.73 1005.1,-247.96 1012.46,-244.04 1020.12,-240.81"/>
<polygon fill="purple" stroke="purple" points="1021.5,-244.03 1029.6,-237.2 1019.01,-237.49 1021.5,-244.03"/>
</g>
<!-- DTypesNotImpl -->
<g id="node8" class="node">
<title>DTypesNotImpl</title>
<ellipse fill="none" stroke="black" cx="367.07" cy="-320.73" rx="68.79" ry="18"/>
<text text-anchor="middle" x="367.07" y="-317.03" font-family="Times,serif" font-size="14.00">DTypesNotImpl</text>
</g>
<!-- DTypesNotImpl&#45;&gt;Layout(layout) -->
<g id="edge7" class="edge">
<title>DTypesNotImpl&#45;&gt;Layout(layout)</title>
<path fill="none" stroke="black" d="M368.49,-302.37C370.74,-250.91 384.88,-104.79 471.97,-39.73 573.52,36.14 629.78,-20.73 756.55,-20.73 756.55,-20.73 756.55,-20.73 910.89,-20.73 1051.45,-20.73 1114.25,-31.47 1203.91,-139.73 1263.53,-211.71 1292.62,-509.07 1300.41,-602.5"/>
<polygon fill="black" stroke="black" points="1296.93,-602.93 1301.24,-612.61 1303.91,-602.36 1296.93,-602.93"/>
</g>
<!-- DTypesNotImpl&#45;&gt;IndexRanks -->
<g id="edge6" class="edge">
<title>DTypesNotImpl&#45;&gt;IndexRanks</title>
<path fill="none" stroke="black" d="M375.61,-339.04C389.44,-369.87 422.08,-431.17 471.97,-455.73 607.81,-522.6 793.68,-446.06 871.86,-407.4"/>
<polygon fill="black" stroke="black" points="873.48,-410.5 880.85,-402.89 870.34,-404.25 873.48,-410.5"/>
</g>
<!-- DTypeIndiv(x) -->
<g id="node9" class="node">
<title>DTypeIndiv(x)</title>
<ellipse fill="none" stroke="black" cx="757.55" cy="-255.73" rx="63.89" ry="18"/>
<text text-anchor="middle" x="757.55" y="-252.03" font-family="Times,serif" font-size="14.00">DTypeIndiv(x)</text>
</g>
<!-- DTypesNotImpl&#45;&gt;DTypeIndiv(x) -->
<g id="edge8" class="edge">
<title>DTypesNotImpl&#45;&gt;DTypeIndiv(x)</title>
<path fill="none" stroke="purple" d="M383.58,-303.02C402.24,-283.2 435.63,-252.22 471.97,-239.73 548.5,-213.42 643.38,-227.25 701.94,-240.68"/>
<polygon fill="purple" stroke="purple" points="701.19,-244.1 711.73,-242.99 702.81,-237.28 701.19,-244.1"/>
</g>
<!-- DTypeEquate(cs_prev) -->
<g id="node10" class="node">
<title>DTypeEquate(cs_prev)</title>
<ellipse fill="none" stroke="black" cx="564.91" cy="-174.73" rx="92.88" ry="18"/>
<text text-anchor="middle" x="564.91" y="-171.03" font-family="Times,serif" font-size="14.00">DTypeEquate(cs_prev)</text>
</g>
<!-- DTypesNotImpl&#45;&gt;DTypeEquate(cs_prev) -->
<g id="edge9" class="edge">
<title>DTypesNotImpl&#45;&gt;DTypeEquate(cs_prev)</title>
<path fill="none" stroke="purple" d="M380.05,-302.74C397.5,-277.84 432.19,-232.98 471.97,-206.73 480.22,-201.28 489.5,-196.65 498.91,-192.75"/>
<polygon fill="purple" stroke="purple" points="500.28,-195.98 508.33,-189.09 497.74,-189.45 500.28,-195.98"/>
</g>
<!-- DTypeEquate(h_prev) -->
<g id="node11" class="node">
<title>DTypeEquate(h_prev)</title>
<ellipse fill="none" stroke="black" cx="564.91" cy="-120.73" rx="89.88" ry="18"/>
<text text-anchor="middle" x="564.91" y="-117.03" font-family="Times,serif" font-size="14.00">DTypeEquate(h_prev)</text>
</g>
<!-- DTypesNotImpl&#45;&gt;DTypeEquate(h_prev) -->
<g id="edge10" class="edge">
<title>DTypesNotImpl&#45;&gt;DTypeEquate(h_prev)</title>
<path fill="none" stroke="purple" d="M373.84,-302.78C386.09,-267.61 418.04,-189.39 471.97,-147.73 477.36,-143.56 483.39,-140.03 489.7,-137.05"/>
<polygon fill="purple" stroke="purple" points="491.28,-140.18 499.12,-133.06 488.55,-133.74 491.28,-140.18"/>
</g>
<!-- DTypeEquate(w) -->
<g id="node12" class="node">
<title>DTypeEquate(w)</title>
<ellipse fill="none" stroke="black" cx="564.91" cy="-66.73" rx="71.49" ry="18"/>
<text text-anchor="middle" x="564.91" y="-63.03" font-family="Times,serif" font-size="14.00">DTypeEquate(w)</text>
</g>
<!-- DTypesNotImpl&#45;&gt;DTypeEquate(w) -->
<g id="edge11" class="edge">
<title>DTypesNotImpl&#45;&gt;DTypeEquate(w)</title>
<path fill="none" stroke="purple" d="M371.1,-302.65C379.23,-259.77 405.62,-151.17 471.97,-93.73 478.48,-88.09 486.11,-83.63 494.15,-80.1"/>
<polygon fill="purple" stroke="purple" points="495.68,-83.26 503.73,-76.37 493.14,-76.74 495.68,-83.26"/>
</g>
<!-- DTypeEquate(wci) -->
<g id="node13" class="node">
<title>DTypeEquate(wci)</title>
<ellipse fill="none" stroke="black" cx="564.91" cy="-428.73" rx="77.99" ry="18"/>
<text text-anchor="middle" x="564.91" y="-425.03" font-family="Times,serif" font-size="14.00">DTypeEquate(wci)</text>
</g>
<!-- DTypesNotImpl&#45;&gt;DTypeEquate(wci) -->
<g id="edge12" class="edge">
<title>DTypesNotImpl&#45;&gt;DTypeEquate(wci)</title>
<path fill="none" stroke="purple" d="M386.11,-338.29C405.75,-356.53 438.8,-384.71 471.97,-401.73 480.43,-406.06 489.69,-409.81 498.98,-413.01"/>
<polygon fill="purple" stroke="purple" points="498.04,-416.39 508.64,-416.16 500.21,-409.73 498.04,-416.39"/>
</g>
<!-- DTypeEquate(wcf) -->
<g id="node14" class="node">
<title>DTypeEquate(wcf)</title>
<ellipse fill="none" stroke="black" cx="564.91" cy="-374.73" rx="78.79" ry="18"/>
<text text-anchor="middle" x="564.91" y="-371.03" font-family="Times,serif" font-size="14.00">DTypeEquate(wcf)</text>
</g>
<!-- DTypesNotImpl&#45;&gt;DTypeEquate(wcf) -->
<g id="edge13" class="edge">
<title>DTypesNotImpl&#45;&gt;DTypeEquate(wcf)</title>
<path fill="none" stroke="purple" d="M415.48,-333.8C442.11,-341.14 475.61,-350.38 504.04,-358.22"/>
<polygon fill="purple" stroke="purple" points="503.29,-361.64 513.86,-360.93 505.15,-354.89 503.29,-361.64"/>
</g>
<!-- DTypeEquate(wco) -->
<g id="node15" class="node">
<title>DTypeEquate(wco)</title>
<ellipse fill="none" stroke="black" cx="564.91" cy="-320.73" rx="79.89" ry="18"/>
<text text-anchor="middle" x="564.91" y="-317.03" font-family="Times,serif" font-size="14.00">DTypeEquate(wco)</text>
</g>
<!-- DTypesNotImpl&#45;&gt;DTypeEquate(wco) -->
<g id="edge14" class="edge">
<title>DTypesNotImpl&#45;&gt;DTypeEquate(wco)</title>
<path fill="none" stroke="purple" d="M436.02,-320.73C448.4,-320.73 461.48,-320.73 474.37,-320.73"/>
<polygon fill="purple" stroke="purple" points="474.65,-324.23 484.65,-320.73 474.65,-317.23 474.65,-324.23"/>
</g>
<!-- DTypeEquate(b) -->
<g id="node16" class="node">
<title>DTypeEquate(b)</title>
<ellipse fill="none" stroke="black" cx="564.91" cy="-266.73" rx="69.59" ry="18"/>
<text text-anchor="middle" x="564.91" y="-263.03" font-family="Times,serif" font-size="14.00">DTypeEquate(b)</text>
</g>
<!-- DTypesNotImpl&#45;&gt;DTypeEquate(b) -->
<g id="edge15" class="edge">
<title>DTypesNotImpl&#45;&gt;DTypeEquate(b)</title>
<path fill="none" stroke="purple" d="M415.48,-307.65C442.92,-300.09 477.65,-290.51 506.62,-282.52"/>
<polygon fill="purple" stroke="purple" points="507.89,-285.8 516.6,-279.77 506.03,-279.05 507.89,-285.8"/>
</g>
<!-- DTypeEquate(cs_prev)&#45;&gt;DTypeIndiv(x) -->
<g id="edge62" class="edge">
<title>DTypeEquate(cs_prev)&#45;&gt;DTypeIndiv(x)</title>
<path fill="none" stroke="black" d="M614.06,-190.21C628.3,-195.13 643.83,-200.83 657.85,-206.73 677.98,-215.18 699.77,-225.84 717.74,-235.05"/>
<polygon fill="black" stroke="black" points="716.28,-238.23 726.77,-239.71 719.49,-232.01 716.28,-238.23"/>
</g>
<!-- DTypeEquate(h_prev)&#45;&gt;DTypeIndiv(x) -->
<g id="edge63" class="edge">
<title>DTypeEquate(h_prev)&#45;&gt;DTypeIndiv(x)</title>
<path fill="none" stroke="black" d="M632.16,-132.79C641.46,-136.51 650.37,-141.37 657.85,-147.73 686.02,-171.67 668.19,-196.1 693.85,-222.73 698.67,-227.72 704.41,-232.12 710.43,-235.94"/>
<polygon fill="black" stroke="black" points="708.97,-239.14 719.38,-241.13 712.48,-233.09 708.97,-239.14"/>
</g>
<!-- DTypeEquate(w)&#45;&gt;DTypeIndiv(x) -->
<g id="edge64" class="edge">
<title>DTypeEquate(w)&#45;&gt;DTypeIndiv(x)</title>
<path fill="none" stroke="black" d="M627.56,-75.47C638.79,-79.5 649.56,-85.32 657.85,-93.73 699.66,-136.1 656.46,-176.41 693.85,-222.73 698.11,-228 703.44,-232.53 709.18,-236.39"/>
<polygon fill="black" stroke="black" points="707.44,-239.43 717.81,-241.59 711.05,-233.43 707.44,-239.43"/>
</g>
<!-- DTypeEquate(wci)&#45;&gt;DTypeIndiv(x) -->
<g id="edge65" class="edge">
<title>DTypeEquate(wci)&#45;&gt;DTypeIndiv(x)</title>
<path fill="none" stroke="black" d="M626.1,-417.56C637.31,-413.73 648.45,-408.6 657.85,-401.73 699.94,-370.97 729.72,-316.49 744.93,-283.48"/>
<polygon fill="black" stroke="black" points="748.3,-284.53 749.18,-273.97 741.91,-281.67 748.3,-284.53"/>
</g>
<!-- DTypeEquate(wcf)&#45;&gt;DTypeIndiv(x) -->
<g id="edge66" class="edge">
<title>DTypeEquate(wcf)&#45;&gt;DTypeIndiv(x)</title>
<path fill="none" stroke="black" d="M623.03,-362.43C634.96,-358.65 647.16,-353.82 657.85,-347.73 688.39,-330.32 717.05,-301.7 735.53,-281"/>
<polygon fill="black" stroke="black" points="738.38,-283.05 742.33,-273.22 733.11,-278.45 738.38,-283.05"/>
</g>
<!-- DTypeEquate(wco)&#45;&gt;DTypeIndiv(x) -->
<g id="edge67" class="edge">
<title>DTypeEquate(wco)&#45;&gt;DTypeIndiv(x)</title>
<path fill="none" stroke="black" d="M616.25,-306.75C629.82,-302.76 644.46,-298.26 657.85,-293.73 675.3,-287.82 694.22,-280.7 710.79,-274.24"/>
<polygon fill="black" stroke="black" points="712.22,-277.44 720.25,-270.52 709.66,-270.92 712.22,-277.44"/>
</g>
<!-- DTypeEquate(b)&#45;&gt;DTypeIndiv(x) -->
<g id="edge68" class="edge">
<title>DTypeEquate(b)&#45;&gt;DTypeIndiv(x)</title>
<path fill="none" stroke="black" d="M632.85,-262.86C649.56,-261.9 667.54,-260.86 684.48,-259.88"/>
<polygon fill="black" stroke="black" points="685.09,-263.35 694.87,-259.28 684.68,-256.37 685.09,-263.35"/>
</g>
<!-- SigMap -->
<g id="node17" class="node">
<title>SigMap</title>
<ellipse fill="none" stroke="black" cx="909.89" cy="-630.73" rx="38.99" ry="18"/>
<text text-anchor="middle" x="909.89" y="-627.03" font-family="Times,serif" font-size="14.00">SigMap</text>
</g>
<!-- Sig(x) -->
<g id="node18" class="node">
<title>Sig(x)</title>
<ellipse fill="none" stroke="black" cx="1101.22" cy="-495.73" rx="32.49" ry="18"/>
<text text-anchor="middle" x="1101.22" y="-492.03" font-family="Times,serif" font-size="14.00">Sig(x)</text>
</g>
<!-- SigMap&#45;&gt;Sig(x) -->
<g id="edge16" class="edge">
<title>SigMap&#45;&gt;Sig(x)</title>
<path fill="none" stroke="purple" d="M920.29,-613.26C934.17,-589.17 962.44,-546.08 998.53,-522.73 1016.47,-511.12 1039.25,-504.48 1058.7,-500.7"/>
<polygon fill="purple" stroke="purple" points="1059.57,-504.1 1068.81,-498.92 1058.36,-497.2 1059.57,-504.1"/>
</g>
<!-- Sig(cs_prev) -->
<g id="node19" class="node">
<title>Sig(cs_prev)</title>
<ellipse fill="none" stroke="black" cx="1101.22" cy="-873.73" rx="55.79" ry="18"/>
<text text-anchor="middle" x="1101.22" y="-870.03" font-family="Times,serif" font-size="14.00">Sig(cs_prev)</text>
</g>
<!-- SigMap&#45;&gt;Sig(cs_prev) -->
<g id="edge17" class="edge">
<title>SigMap&#45;&gt;Sig(cs_prev)</title>
<path fill="none" stroke="purple" d="M912.83,-648.9C918.28,-690.46 937.51,-792.94 998.53,-846.73 1009.44,-856.34 1023.4,-862.59 1037.46,-866.63"/>
<polygon fill="purple" stroke="purple" points="1036.62,-870.03 1047.17,-869.09 1038.34,-863.24 1036.62,-870.03"/>
</g>
<!-- Sig(h_prev) -->
<g id="node20" class="node">
<title>Sig(h_prev)</title>
<ellipse fill="none" stroke="black" cx="1101.22" cy="-819.73" rx="52.79" ry="18"/>
<text text-anchor="middle" x="1101.22" y="-816.03" font-family="Times,serif" font-size="14.00">Sig(h_prev)</text>
</g>
<!-- SigMap&#45;&gt;Sig(h_prev) -->
<g id="edge18" class="edge">
<title>SigMap&#45;&gt;Sig(h_prev)</title>
<path fill="none" stroke="purple" d="M915.46,-648.65C924.98,-682.23 950.17,-754.63 998.53,-792.73 1010.65,-802.28 1025.85,-808.46 1040.78,-812.47"/>
<polygon fill="purple" stroke="purple" points="1039.97,-815.87 1050.51,-814.8 1041.6,-809.06 1039.97,-815.87"/>
</g>
<!-- Sig(w) -->
<g id="node21" class="node">
<title>Sig(w)</title>
<ellipse fill="none" stroke="black" cx="1101.22" cy="-765.73" rx="34.39" ry="18"/>
<text text-anchor="middle" x="1101.22" y="-762.03" font-family="Times,serif" font-size="14.00">Sig(w)</text>
</g>
<!-- SigMap&#45;&gt;Sig(w) -->
<g id="edge19" class="edge">
<title>SigMap&#45;&gt;Sig(w)</title>
<path fill="none" stroke="purple" d="M920.29,-648.19C934.17,-672.28 962.44,-715.38 998.53,-738.73 1015.95,-750 1037.93,-756.58 1057,-760.42"/>
<polygon fill="purple" stroke="purple" points="1056.48,-763.88 1066.95,-762.23 1057.74,-757 1056.48,-763.88"/>
</g>
<!-- Sig(b) -->
<g id="node22" class="node">
<title>Sig(b)</title>
<ellipse fill="none" stroke="black" cx="1101.22" cy="-711.73" rx="32.49" ry="18"/>
<text text-anchor="middle" x="1101.22" y="-708.03" font-family="Times,serif" font-size="14.00">Sig(b)</text>
</g>
<!-- SigMap&#45;&gt;Sig(b) -->
<g id="edge20" class="edge">
<title>SigMap&#45;&gt;Sig(b)</title>
<path fill="none" stroke="purple" d="M931.54,-645.87C948.73,-657.87 974.23,-674.28 998.53,-684.73 1018.16,-693.16 1041.09,-699.53 1060.19,-703.95"/>
<polygon fill="purple" stroke="purple" points="1059.56,-707.39 1070.08,-706.15 1061.08,-700.56 1059.56,-707.39"/>
</g>
<!-- Sig(wci) -->
<g id="node23" class="node">
<title>Sig(wci)</title>
<ellipse fill="none" stroke="black" cx="1101.22" cy="-657.73" rx="40.89" ry="18"/>
<text text-anchor="middle" x="1101.22" y="-654.03" font-family="Times,serif" font-size="14.00">Sig(wci)</text>
</g>
<!-- SigMap&#45;&gt;Sig(wci) -->
<g id="edge21" class="edge">
<title>SigMap&#45;&gt;Sig(wci)</title>
<path fill="none" stroke="purple" d="M947.39,-635.93C977.06,-640.16 1019.18,-646.17 1051.69,-650.8"/>
<polygon fill="purple" stroke="purple" points="1051.48,-654.31 1061.88,-652.26 1052.47,-647.38 1051.48,-654.31"/>
</g>
<!-- Sig(wcf) -->
<g id="node24" class="node">
<title>Sig(wcf)</title>
<ellipse fill="none" stroke="black" cx="1101.22" cy="-603.73" rx="41.69" ry="18"/>
<text text-anchor="middle" x="1101.22" y="-600.03" font-family="Times,serif" font-size="14.00">Sig(wcf)</text>
</g>
<!-- SigMap&#45;&gt;Sig(wcf) -->
<g id="edge22" class="edge">
<title>SigMap&#45;&gt;Sig(wcf)</title>
<path fill="none" stroke="purple" d="M947.39,-625.52C976.97,-621.3 1018.9,-615.32 1051.37,-610.69"/>
<polygon fill="purple" stroke="purple" points="1052.14,-614.12 1061.55,-609.24 1051.16,-607.19 1052.14,-614.12"/>
</g>
<!-- Sig(wco) -->
<g id="node25" class="node">
<title>Sig(wco)</title>
<ellipse fill="none" stroke="black" cx="1101.22" cy="-549.73" rx="42.79" ry="18"/>
<text text-anchor="middle" x="1101.22" y="-546.03" font-family="Times,serif" font-size="14.00">Sig(wco)</text>
</g>
<!-- SigMap&#45;&gt;Sig(wco) -->
<g id="edge23" class="edge">
<title>SigMap&#45;&gt;Sig(wco)</title>
<path fill="none" stroke="purple" d="M931.54,-615.58C948.73,-603.58 974.23,-587.17 998.53,-576.73 1015.37,-569.49 1034.62,-563.78 1051.82,-559.51"/>
<polygon fill="purple" stroke="purple" points="1052.75,-562.89 1061.67,-557.16 1051.13,-556.08 1052.75,-562.89"/>
</g>
<!-- Sig(x)&#45;&gt;Layout(layout) -->
<g id="edge40" class="edge">
<title>Sig(x)&#45;&gt;Layout(layout)</title>
<path fill="none" stroke="black" d="M1133.38,-499.32C1154.49,-502.83 1182.36,-509.66 1203.91,-522.73 1238.3,-543.57 1267.91,-579.94 1285.49,-604.66"/>
<polygon fill="black" stroke="black" points="1282.61,-606.66 1291.19,-612.88 1288.36,-602.67 1282.61,-606.66"/>
</g>
<!-- Sig(cs_prev)&#45;&gt;Layout(layout) -->
<g id="edge43" class="edge">
<title>Sig(cs_prev)&#45;&gt;Layout(layout)</title>
<path fill="none" stroke="black" d="M1154.98,-868.76C1172.12,-864.93 1190.23,-858.27 1203.91,-846.73 1262.67,-797.15 1288.19,-705.19 1297.72,-658.9"/>
<polygon fill="black" stroke="black" points="1301.18,-659.44 1299.67,-648.95 1294.31,-658.09 1301.18,-659.44"/>
</g>
<!-- Sig(h_prev)&#45;&gt;Layout(layout) -->
<g id="edge46" class="edge">
<title>Sig(h_prev)&#45;&gt;Layout(layout)</title>
<path fill="none" stroke="black" d="M1151.62,-814.39C1169.43,-810.55 1188.84,-803.98 1203.91,-792.73 1250.34,-758.05 1279.57,-694.51 1293.31,-658.16"/>
<polygon fill="black" stroke="black" points="1296.63,-659.27 1296.78,-648.68 1290.06,-656.87 1296.63,-659.27"/>
</g>
<!-- Sig(w)&#45;&gt;Layout(layout) -->
<g id="edge49" class="edge">
<title>Sig(w)&#45;&gt;Layout(layout)</title>
<path fill="none" stroke="black" d="M1135.23,-761.82C1156.1,-758.22 1182.98,-751.41 1203.91,-738.73 1238.3,-717.88 1267.91,-681.51 1285.49,-656.79"/>
<polygon fill="black" stroke="black" points="1288.36,-658.78 1291.19,-648.57 1282.61,-654.79 1288.36,-658.78"/>
</g>
<!-- Sig(b)&#45;&gt;Layout(layout) -->
<g id="edge52" class="edge">
<title>Sig(b)&#45;&gt;Layout(layout)</title>
<path fill="none" stroke="black" d="M1132.2,-705.76C1152.78,-701.19 1180.5,-694.08 1203.91,-684.73 1226.05,-675.88 1249.5,-663.2 1267.99,-652.35"/>
<polygon fill="black" stroke="black" points="1269.85,-655.32 1276.65,-647.19 1266.26,-649.3 1269.85,-655.32"/>
</g>
<!-- Sig(wci)&#45;&gt;Layout(layout) -->
<g id="edge55" class="edge">
<title>Sig(wci)&#45;&gt;Layout(layout)</title>
<path fill="none" stroke="black" d="M1140.86,-652.52C1167.75,-648.9 1204.29,-643.97 1235.84,-639.72"/>
<polygon fill="black" stroke="black" points="1236.44,-643.17 1245.89,-638.37 1235.51,-636.23 1236.44,-643.17"/>
</g>
<!-- Sig(wcf)&#45;&gt;Layout(layout) -->
<g id="edge58" class="edge">
<title>Sig(wcf)&#45;&gt;Layout(layout)</title>
<path fill="none" stroke="black" d="M1141.33,-609C1168.16,-612.61 1204.43,-617.5 1235.78,-621.72"/>
<polygon fill="black" stroke="black" points="1235.39,-625.2 1245.77,-623.07 1236.32,-618.26 1235.39,-625.2"/>
</g>
<!-- Sig(wco)&#45;&gt;Layout(layout) -->
<g id="edge61" class="edge">
<title>Sig(wco)&#45;&gt;Layout(layout)</title>
<path fill="none" stroke="black" d="M1140.11,-557.49C1159.55,-562.04 1183.39,-568.53 1203.91,-576.73 1226.05,-585.57 1249.5,-598.25 1267.99,-609.1"/>
<polygon fill="black" stroke="black" points="1266.26,-612.15 1276.65,-614.26 1269.85,-606.13 1266.26,-612.15"/>
</g>
<!-- ArgRanks -->
<g id="node26" class="node">
<title>ArgRanks</title>
<ellipse fill="none" stroke="black" cx="757.55" cy="-558.73" rx="46.29" ry="18"/>
<text text-anchor="middle" x="757.55" y="-555.03" font-family="Times,serif" font-size="14.00">ArgRanks</text>
</g>
<!-- ArgRanks&#45;&gt;IndexRanks -->
<g id="edge24" class="edge">
<title>ArgRanks&#45;&gt;IndexRanks</title>
<path fill="none" stroke="black" d="M790.93,-546.28C801.37,-541.25 812.49,-534.72 821.24,-526.73 856.41,-494.61 882.98,-445.27 897.21,-414.83"/>
<polygon fill="black" stroke="black" points="900.43,-416.21 901.39,-405.66 894.06,-413.3 900.43,-416.21"/>
</g>
<!-- ArgRanks&#45;&gt;SigMap -->
<g id="edge25" class="edge">
<title>ArgRanks&#45;&gt;SigMap</title>
<path fill="none" stroke="black" d="M787.53,-572.61C811.85,-584.25 846.7,-600.94 872.82,-613.45"/>
<polygon fill="black" stroke="black" points="871.48,-616.69 882.01,-617.85 874.5,-610.38 871.48,-616.69"/>
</g>
<!-- ArgIndels -->
<g id="node27" class="node">
<title>ArgIndels</title>
<ellipse fill="none" stroke="black" cx="564.91" cy="-558.73" rx="46.29" ry="18"/>
<text text-anchor="middle" x="564.91" y="-555.03" font-family="Times,serif" font-size="14.00">ArgIndels</text>
</g>
<!-- ArgIndels&#45;&gt;ArgRanks -->
<g id="edge26" class="edge">
<title>ArgIndels&#45;&gt;ArgRanks</title>
<path fill="none" stroke="black" d="M611.09,-558.73C638.05,-558.73 672.51,-558.73 701.11,-558.73"/>
<polygon fill="black" stroke="black" points="701.36,-562.23 711.36,-558.73 701.36,-555.23 701.36,-562.23"/>
</g>
<!-- ArgMutations -->
<g id="node28" class="node">
<title>ArgMutations</title>
<ellipse fill="none" stroke="black" cx="367.07" cy="-482.73" rx="60.39" ry="18"/>
<text text-anchor="middle" x="367.07" y="-479.03" font-family="Times,serif" font-size="14.00">ArgMutations</text>
</g>
<!-- ArgMutations&#45;&gt;IndexRanks -->
<g id="edge28" class="edge">
<title>ArgMutations&#45;&gt;IndexRanks</title>
<path fill="none" stroke="black" d="M418.68,-492.11C505.36,-505.73 685.95,-523.34 821.24,-463.73 847.29,-452.25 871.29,-430.27 887.57,-412.89"/>
<polygon fill="black" stroke="black" points="890.35,-415.04 894.48,-405.29 885.17,-410.33 890.35,-415.04"/>
</g>
<!-- ArgMutations&#45;&gt;SigMap -->
<g id="edge29" class="edge">
<title>ArgMutations&#45;&gt;SigMap</title>
<path fill="none" stroke="black" d="M380.04,-500.61C397.22,-524.62 431.33,-566.5 471.97,-585.73 602.36,-647.41 778.6,-642.5 861.75,-635.74"/>
<polygon fill="black" stroke="black" points="862.23,-639.21 871.9,-634.87 861.63,-632.24 862.23,-639.21"/>
</g>
<!-- ArgMutations&#45;&gt;ArgIndels -->
<g id="edge27" class="edge">
<title>ArgMutations&#45;&gt;ArgIndels</title>
<path fill="none" stroke="black" d="M401.53,-497.56C421.79,-506.37 448.21,-517.57 471.97,-526.73 487.36,-532.66 504.39,-538.72 519.56,-543.95"/>
<polygon fill="black" stroke="black" points="518.63,-547.33 529.22,-547.25 520.89,-540.71 518.63,-547.33"/>
</g>
<!-- Args -->
<g id="node29" class="node">
<title>Args</title>
<ellipse fill="none" stroke="black" cx="27.95" cy="-401.73" rx="27.9" ry="18"/>
<text text-anchor="middle" x="27.95" y="-398.03" font-family="Times,serif" font-size="14.00">Args</text>
</g>
<!-- DataTensor(x) -->
<g id="node30" class="node">
<title>DataTensor(x)</title>
<ellipse fill="none" stroke="red" cx="177.04" cy="-374.73" rx="61.99" ry="18"/>
<text text-anchor="middle" x="177.04" y="-371.03" font-family="Times,serif" font-size="14.00">DataTensor(x)</text>
</g>
<!-- Args&#45;&gt;DataTensor(x) -->
<g id="edge30" class="edge">
<title>Args&#45;&gt;DataTensor(x)</title>
<path fill="none" stroke="purple" d="M54.91,-396.96C71.42,-393.93 93.54,-389.87 114.36,-386.05"/>
<polygon fill="purple" stroke="purple" points="115.25,-389.44 124.45,-384.19 113.98,-382.56 115.25,-389.44"/>
</g>
<!-- DataTensor(cs_prev) -->
<g id="node31" class="node">
<title>DataTensor(cs_prev)</title>
<ellipse fill="none" stroke="red" cx="177.04" cy="-320.73" rx="85.29" ry="18"/>
<text text-anchor="middle" x="177.04" y="-317.03" font-family="Times,serif" font-size="14.00">DataTensor(cs_prev)</text>
</g>
<!-- Args&#45;&gt;DataTensor(cs_prev) -->
<g id="edge31" class="edge">
<title>Args&#45;&gt;DataTensor(cs_prev)</title>
<path fill="none" stroke="purple" d="M43.17,-386.55C55.16,-374.55 73.29,-358.12 91.9,-347.73 98.25,-344.17 105.13,-341.01 112.14,-338.22"/>
<polygon fill="purple" stroke="purple" points="113.59,-341.41 121.73,-334.63 111.14,-334.85 113.59,-341.41"/>
</g>
<!-- DataTensor(h_prev) -->
<g id="node32" class="node">
<title>DataTensor(h_prev)</title>
<ellipse fill="none" stroke="red" cx="177.04" cy="-266.73" rx="81.79" ry="18"/>
<text text-anchor="middle" x="177.04" y="-263.03" font-family="Times,serif" font-size="14.00">DataTensor(h_prev)</text>
</g>
<!-- Args&#45;&gt;DataTensor(h_prev) -->
<g id="edge32" class="edge">
<title>Args&#45;&gt;DataTensor(h_prev)</title>
<path fill="none" stroke="purple" d="M34.68,-384.09C43.32,-360.2 61.95,-317.78 91.9,-293.73 96.84,-289.75 102.38,-286.36 108.2,-283.46"/>
<polygon fill="purple" stroke="purple" points="109.82,-286.57 117.52,-279.3 106.96,-280.18 109.82,-286.57"/>
</g>
<!-- DataTensor(w) -->
<g id="node33" class="node">
<title>DataTensor(w)</title>
<ellipse fill="none" stroke="red" cx="177.04" cy="-212.73" rx="63.89" ry="18"/>
<text text-anchor="middle" x="177.04" y="-209.03" font-family="Times,serif" font-size="14.00">DataTensor(w)</text>
</g>
<!-- Args&#45;&gt;DataTensor(w) -->
<g id="edge33" class="edge">
<title>Args&#45;&gt;DataTensor(w)</title>
<path fill="none" stroke="purple" d="M30.91,-383.6C35.47,-350.34 49.83,-279.34 91.9,-239.73 97.93,-234.04 105.17,-229.56 112.83,-226.01"/>
<polygon fill="purple" stroke="purple" points="114.39,-229.16 122.33,-222.14 111.75,-222.67 114.39,-229.16"/>
</g>
<!-- DataTensor(b) -->
<g id="node34" class="node">
<title>DataTensor(b)</title>
<ellipse fill="none" stroke="red" cx="177.04" cy="-590.73" rx="61.99" ry="18"/>
<text text-anchor="middle" x="177.04" y="-587.03" font-family="Times,serif" font-size="14.00">DataTensor(b)</text>
</g>
<!-- Args&#45;&gt;DataTensor(b) -->
<g id="edge34" class="edge">
<title>Args&#45;&gt;DataTensor(b)</title>
<path fill="none" stroke="purple" d="M30.91,-419.85C35.47,-453.11 49.83,-524.11 91.9,-563.73 98.16,-569.62 105.71,-574.23 113.69,-577.83"/>
<polygon fill="purple" stroke="purple" points="112.62,-581.17 123.2,-581.62 115.21,-574.67 112.62,-581.17"/>
</g>
<!-- DataTensor(wci) -->
<g id="node35" class="node">
<title>DataTensor(wci)</title>
<ellipse fill="none" stroke="red" cx="177.04" cy="-536.73" rx="70.39" ry="18"/>
<text text-anchor="middle" x="177.04" y="-533.03" font-family="Times,serif" font-size="14.00">DataTensor(wci)</text>
</g>
<!-- Args&#45;&gt;DataTensor(wci) -->
<g id="edge35" class="edge">
<title>Args&#45;&gt;DataTensor(wci)</title>
<path fill="none" stroke="purple" d="M34.68,-419.36C43.32,-443.25 61.95,-485.67 91.9,-509.73 97.95,-514.59 104.9,-518.59 112.16,-521.87"/>
<polygon fill="purple" stroke="purple" points="110.88,-525.13 121.46,-525.65 113.52,-518.64 110.88,-525.13"/>
</g>
<!-- DataTensor(wcf) -->
<g id="node36" class="node">
<title>DataTensor(wcf)</title>
<ellipse fill="none" stroke="red" cx="177.04" cy="-482.73" rx="70.69" ry="18"/>
<text text-anchor="middle" x="177.04" y="-479.03" font-family="Times,serif" font-size="14.00">DataTensor(wcf)</text>
</g>
<!-- Args&#45;&gt;DataTensor(wcf) -->
<g id="edge36" class="edge">
<title>Args&#45;&gt;DataTensor(wcf)</title>
<path fill="none" stroke="purple" d="M43.17,-416.9C55.16,-428.9 73.29,-445.33 91.9,-455.73 99.48,-459.97 107.84,-463.66 116.24,-466.83"/>
<polygon fill="purple" stroke="purple" points="115.12,-470.14 125.72,-470.19 117.46,-463.54 115.12,-470.14"/>
</g>
<!-- DataTensor(wco) -->
<g id="node37" class="node">
<title>DataTensor(wco)</title>
<ellipse fill="none" stroke="red" cx="177.04" cy="-428.73" rx="72.29" ry="18"/>
<text text-anchor="middle" x="177.04" y="-425.03" font-family="Times,serif" font-size="14.00">DataTensor(wco)</text>
</g>
<!-- Args&#45;&gt;DataTensor(wco) -->
<g id="edge37" class="edge">
<title>Args&#45;&gt;DataTensor(wco)</title>
<path fill="none" stroke="purple" d="M54.91,-406.49C69.87,-409.24 89.43,-412.83 108.45,-416.32"/>
<polygon fill="purple" stroke="purple" points="107.86,-419.77 118.33,-418.13 109.12,-412.88 107.86,-419.77"/>
</g>
<!-- DataTensor(x)&#45;&gt;DTypesNotImpl -->
<g id="edge39" class="edge">
<title>DataTensor(x)&#45;&gt;DTypesNotImpl</title>
<path fill="none" stroke="black" d="M221.65,-362.2C248.05,-354.62 281.97,-344.88 310.31,-336.74"/>
<polygon fill="black" stroke="black" points="311.43,-340.06 320.07,-333.94 309.5,-333.33 311.43,-340.06"/>
</g>
<!-- DataTensor(x)&#45;&gt;ArgMutations -->
<g id="edge38" class="edge">
<title>DataTensor(x)&#45;&gt;ArgMutations</title>
<path fill="none" stroke="black" d="M224.64,-386.47C237.19,-390.49 250.52,-395.56 262.18,-401.73 291.27,-417.11 320.49,-440.79 340.49,-458.58"/>
<polygon fill="black" stroke="black" points="338.18,-461.21 347.95,-465.32 342.88,-456.02 338.18,-461.21"/>
</g>
<!-- DataTensor(cs_prev)&#45;&gt;DTypesNotImpl -->
<g id="edge42" class="edge">
<title>DataTensor(cs_prev)&#45;&gt;DTypesNotImpl</title>
<path fill="none" stroke="black" d="M262.43,-320.73C270.9,-320.73 279.47,-320.73 287.87,-320.73"/>
<polygon fill="black" stroke="black" points="288.01,-324.23 298.01,-320.73 288.01,-317.23 288.01,-324.23"/>
</g>
<!-- DataTensor(cs_prev)&#45;&gt;ArgMutations -->
<g id="edge41" class="edge">
<title>DataTensor(cs_prev)&#45;&gt;ArgMutations</title>
<path fill="none" stroke="black" d="M235.48,-333.98C244.87,-337.57 254.15,-342.08 262.18,-347.73 302.74,-376.24 334.74,-425.31 351.99,-455.78"/>
<polygon fill="black" stroke="black" points="348.96,-457.53 356.86,-464.59 355.09,-454.15 348.96,-457.53"/>
</g>
<!-- DataTensor(h_prev)&#45;&gt;DTypesNotImpl -->
<g id="edge45" class="edge">
<title>DataTensor(h_prev)&#45;&gt;DTypesNotImpl</title>
<path fill="none" stroke="black" d="M227.44,-280.91C252.82,-288.2 283.84,-297.11 310.1,-304.65"/>
<polygon fill="black" stroke="black" points="309.33,-308.07 319.91,-307.47 311.26,-301.34 309.33,-308.07"/>
</g>
<!-- DataTensor(h_prev)&#45;&gt;ArgMutations -->
<g id="edge44" class="edge">
<title>DataTensor(h_prev)&#45;&gt;ArgMutations</title>
<path fill="none" stroke="black" d="M236.68,-279.14C245.84,-282.82 254.72,-287.58 262.18,-293.73 276.06,-305.17 327.66,-405.95 352.51,-455.48"/>
<polygon fill="black" stroke="black" points="349.5,-457.29 357.11,-464.66 355.76,-454.16 349.5,-457.29"/>
</g>
<!-- DataTensor(w)&#45;&gt;DTypesNotImpl -->
<g id="edge48" class="edge">
<title>DataTensor(w)&#45;&gt;DTypesNotImpl</title>
<path fill="none" stroke="black" d="M225.08,-224.61C237.5,-228.61 250.65,-233.63 262.18,-239.73 291.27,-255.11 320.49,-278.79 340.49,-296.58"/>
<polygon fill="black" stroke="black" points="338.18,-299.21 347.95,-303.32 342.88,-294.02 338.18,-299.21"/>
</g>
<!-- DataTensor(w)&#45;&gt;ArgMutations -->
<g id="edge47" class="edge">
<title>DataTensor(w)&#45;&gt;ArgMutations</title>
<path fill="none" stroke="black" d="M232.04,-221.84C243.11,-225.82 253.89,-231.53 262.18,-239.73 298.16,-275.3 278.76,-301 298.18,-347.73 314.21,-386.3 336.57,-429.11 351.18,-455.97"/>
<polygon fill="black" stroke="black" points="348.12,-457.69 356,-464.77 354.26,-454.32 348.12,-457.69"/>
</g>
<!-- DataTensor(b)&#45;&gt;DTypesNotImpl -->
<g id="edge51" class="edge">
<title>DataTensor(b)&#45;&gt;DTypesNotImpl</title>
<path fill="none" stroke="black" d="M231.16,-581.92C242.54,-577.93 253.67,-572.14 262.18,-563.73 298.16,-528.15 278.76,-502.45 298.18,-455.73 314.21,-417.15 336.57,-374.34 351.18,-347.48"/>
<polygon fill="black" stroke="black" points="354.26,-349.13 356,-338.68 348.12,-345.76 354.26,-349.13"/>
</g>
<!-- DataTensor(b)&#45;&gt;ArgMutations -->
<g id="edge50" class="edge">
<title>DataTensor(b)&#45;&gt;ArgMutations</title>
<path fill="none" stroke="black" d="M224.64,-578.98C237.19,-574.96 250.52,-569.89 262.18,-563.73 291.27,-548.34 320.49,-524.66 340.49,-506.87"/>
<polygon fill="black" stroke="black" points="342.88,-509.43 347.95,-500.13 338.18,-504.24 342.88,-509.43"/>
</g>
<!-- DataTensor(wci)&#45;&gt;DTypesNotImpl -->
<g id="edge54" class="edge">
<title>DataTensor(wci)&#45;&gt;DTypesNotImpl</title>
<path fill="none" stroke="black" d="M233.18,-525.66C243.56,-521.82 253.77,-516.65 262.18,-509.73 276.06,-498.28 327.66,-397.5 352.51,-347.97"/>
<polygon fill="black" stroke="black" points="355.76,-349.3 357.11,-338.79 349.5,-346.16 355.76,-349.3"/>
</g>
<!-- DataTensor(wci)&#45;&gt;ArgMutations -->
<g id="edge53" class="edge">
<title>DataTensor(wci)&#45;&gt;ArgMutations</title>
<path fill="none" stroke="black" d="M224.52,-523.38C251.35,-515.67 285.19,-505.95 313.05,-497.95"/>
<polygon fill="black" stroke="black" points="314.38,-501.21 323.02,-495.09 312.45,-494.48 314.38,-501.21"/>
</g>
<!-- DataTensor(wcf)&#45;&gt;DTypesNotImpl -->
<g id="edge57" class="edge">
<title>DataTensor(wcf)&#45;&gt;DTypesNotImpl</title>
<path fill="none" stroke="black" d="M231.51,-470.93C242.24,-467.13 253.02,-462.17 262.18,-455.73 302.74,-427.21 334.74,-378.14 351.99,-347.67"/>
<polygon fill="black" stroke="black" points="355.09,-349.3 356.86,-338.86 348.96,-345.92 355.09,-349.3"/>
</g>
<!-- DataTensor(wcf)&#45;&gt;ArgMutations -->
<g id="edge56" class="edge">
<title>DataTensor(wcf)&#45;&gt;ArgMutations</title>
<path fill="none" stroke="black" d="M248.06,-482.73C263.82,-482.73 280.54,-482.73 296.29,-482.73"/>
<polygon fill="black" stroke="black" points="296.48,-486.23 306.48,-482.73 296.48,-479.23 296.48,-486.23"/>
</g>
<!-- DataTensor(wco)&#45;&gt;DTypesNotImpl -->
<g id="edge60" class="edge">
<title>DataTensor(wco)&#45;&gt;DTypesNotImpl</title>
<path fill="none" stroke="black" d="M228.16,-415.83C239.66,-412.01 251.6,-407.32 262.18,-401.73 291.27,-386.34 320.49,-362.66 340.49,-344.87"/>
<polygon fill="black" stroke="black" points="342.88,-347.43 347.95,-338.13 338.18,-342.24 342.88,-347.43"/>
</g>
<!-- DataTensor(wco)&#45;&gt;ArgMutations -->
<g id="edge59" class="edge">
<title>DataTensor(wco)&#45;&gt;ArgMutations</title>
<path fill="none" stroke="black" d="M225,-442.21C251.74,-449.89 285.32,-459.54 313.01,-467.49"/>
<polygon fill="black" stroke="black" points="312.35,-470.94 322.92,-470.33 314.28,-464.21 312.35,-470.94"/>
</g>
<!-- DataFormat -->
<g id="node38" class="node">
<title>DataFormat</title>
<ellipse fill="none" stroke="black" cx="757.55" cy="-195.73" rx="53.09" ry="18"/>
<text text-anchor="middle" x="757.55" y="-192.03" font-family="Times,serif" font-size="14.00">DataFormat</text>
</g>
<!-- DataFormat&#45;&gt;Layout(layout) -->
<g id="edge70" class="edge">
<title>DataFormat&#45;&gt;Layout(layout)</title>
<path fill="none" stroke="black" d="M794.6,-182.61C877.28,-155.07 1082.72,-101.43 1203.91,-198.73 1267.84,-250.05 1293.73,-515.3 1300.61,-602.73"/>
<polygon fill="black" stroke="black" points="1297.12,-603.01 1301.37,-612.72 1304.1,-602.48 1297.12,-603.01"/>
</g>
<!-- DataFormat&#45;&gt;IndexRanks -->
<g id="edge69" class="edge">
<title>DataFormat&#45;&gt;IndexRanks</title>
<path fill="none" stroke="black" d="M792.82,-209.25C802.79,-214.31 813.16,-220.8 821.24,-228.73 860.15,-266.89 886.49,-326.05 899.48,-360.42"/>
<polygon fill="black" stroke="black" points="896.2,-361.65 902.94,-369.83 902.77,-359.24 896.2,-361.65"/>
</g>
</g>
</svg>
