<?xml version="1.0" encoding="UTF-8" standalone="no"?>
<!DOCTYPE svg PUBLIC "-//W3C//DTD SVG 1.1//EN"
 "http://www.w3.org/Graphics/SVG/1.1/DTD/svg11.dtd">
<!-- Generated by graphviz version 2.43.0 (0)
 -->
<!-- Title: %3 Pages: 1 -->
<svg width="614pt" height="213pt"
 viewBox="0.00 0.00 614.25 213.00" xmlns="http://www.w3.org/2000/svg" xmlns:xlink="http://www.w3.org/1999/xlink">
<g id="graph0" class="graph" transform="scale(1 1) rotate(0) translate(4 209)">
<title>%3</title>
<polygon fill="white" stroke="transparent" points="-4,4 -4,-209 610.25,-209 610.25,4 -4,4"/>
<!-- DimsInput(_index_ranks) -->
<g id="node1" class="node">
<title>DimsInput(_index_ranks)</title>
<ellipse fill="none" stroke="black" cx="504.21" cy="-95" rx="102.08" ry="18"/>
<text text-anchor="middle" x="504.21" y="-91.3" font-family="Times,serif" font-size="14.00">DimsInput(_index_ranks)</text>
</g>
<!-- GenDims(batch) -->
<g id="node2" class="node">
<title>GenDims(batch)</title>
<ellipse fill="none" stroke="black" cx="296.63" cy="-187" rx="69.59" ry="18"/>
<text text-anchor="middle" x="296.63" y="-183.3" font-family="Times,serif" font-size="14.00">GenDims(batch)</text>
</g>
<!-- GenDims(batch)&#45;&gt;DimsInput(_index_ranks) -->
<g id="edge1" class="edge">
<title>GenDims(batch)&#45;&gt;DimsInput(_index_ranks)</title>
<path fill="none" stroke="black" d="M332.5,-171.39C366.61,-156.13 418.79,-132.78 456.48,-115.91"/>
<polygon fill="black" stroke="black" points="458.03,-119.05 465.73,-111.77 455.17,-112.66 458.03,-119.05"/>
</g>
<!-- GenDims(input) -->
<g id="node3" class="node">
<title>GenDims(input)</title>
<ellipse fill="none" stroke="black" cx="296.63" cy="-95" rx="68.79" ry="18"/>
<text text-anchor="middle" x="296.63" y="-91.3" font-family="Times,serif" font-size="14.00">GenDims(input)</text>
</g>
<!-- GenDims(input)&#45;&gt;DimsInput(_index_ranks) -->
<g id="edge2" class="edge">
<title>GenDims(input)&#45;&gt;DimsInput(_index_ranks)</title>
<path fill="none" stroke="black" d="M365.8,-95C374.21,-95 382.96,-95 391.81,-95"/>
<polygon fill="black" stroke="black" points="391.81,-98.5 401.81,-95 391.81,-91.5 391.81,-98.5"/>
</g>
<!-- GenDims(cell) -->
<g id="node4" class="node">
<title>GenDims(cell)</title>
<ellipse fill="none" stroke="black" cx="296.63" cy="-41" rx="63.89" ry="18"/>
<text text-anchor="middle" x="296.63" y="-37.3" font-family="Times,serif" font-size="14.00">GenDims(cell)</text>
</g>
<!-- GenDims(cell)&#45;&gt;DimsInput(_index_ranks) -->
<g id="edge3" class="edge">
<title>GenDims(cell)&#45;&gt;DimsInput(_index_ranks)</title>
<path fill="none" stroke="black" d="M343.76,-53.12C371.22,-60.33 406.51,-69.6 436.91,-77.59"/>
<polygon fill="black" stroke="black" points="436.03,-80.97 446.6,-80.13 437.81,-74.2 436.03,-80.97"/>
</g>
<!-- GenDims(input_+_cell) -->
<g id="node5" class="node">
<title>GenDims(input_+_cell)</title>
<ellipse fill="none" stroke="black" cx="95.54" cy="-95" rx="95.58" ry="18"/>
<text text-anchor="middle" x="95.54" y="-91.3" font-family="Times,serif" font-size="14.00">GenDims(input_+_cell)</text>
</g>
<!-- GenDims(input_+_cell)&#45;&gt;DimsInput(_index_ranks) -->
<g id="edge4" class="edge">
<title>GenDims(input_+_cell)&#45;&gt;DimsInput(_index_ranks)</title>
<path fill="none" stroke="black" d="M153.34,-109.37C176.1,-114.44 202.68,-119.5 227.08,-122 288.58,-128.29 304.65,-128 366.17,-122 388.15,-119.86 411.84,-115.82 433.23,-111.51"/>
<polygon fill="black" stroke="black" points="434.13,-114.9 443.21,-109.45 432.71,-108.04 434.13,-114.9"/>
</g>
<!-- GenDims(input_+_cell)&#45;&gt;GenDims(input) -->
<g id="edge6" class="edge">
<title>GenDims(input_+_cell)&#45;&gt;GenDims(input)</title>
<path fill="none" stroke="purple" d="M191.13,-95C200,-95 208.92,-95 217.61,-95"/>
<polygon fill="purple" stroke="purple" points="217.69,-98.5 227.69,-95 217.69,-91.5 217.69,-98.5"/>
</g>
<!-- GenDims(input_+_cell)&#45;&gt;GenDims(cell) -->
<g id="edge5" class="edge">
<title>GenDims(input_+_cell)&#45;&gt;GenDims(cell)</title>
<path fill="none" stroke="purple" d="M150.94,-80.24C178.63,-72.74 212.22,-63.62 240.07,-56.07"/>
<polygon fill="purple" stroke="purple" points="241.31,-59.36 250.05,-53.36 239.48,-52.6 241.31,-59.36"/>
</g>
<!-- GenDims(four_cells) -->
<g id="node6" class="node">
<title>GenDims(four_cells)</title>
<ellipse fill="none" stroke="black" cx="95.54" cy="-18" rx="85.59" ry="18"/>
<text text-anchor="middle" x="95.54" y="-14.3" font-family="Times,serif" font-size="14.00">GenDims(four_cells)</text>
</g>
<!-- GenDims(four_cells)&#45;&gt;DimsInput(_index_ranks) -->
<g id="edge7" class="edge">
<title>GenDims(four_cells)&#45;&gt;DimsInput(_index_ranks)</title>
<path fill="none" stroke="black" d="M163.21,-6.85C218.58,0.02 298.89,4.4 366.17,-14 406.58,-25.05 447.19,-51.42 473.59,-71.08"/>
<polygon fill="black" stroke="black" points="471.56,-73.94 481.64,-77.21 475.8,-68.37 471.56,-73.94"/>
</g>
<!-- GenDims(four_cells)&#45;&gt;GenDims(cell) -->
<g id="edge8" class="edge">
<title>GenDims(four_cells)&#45;&gt;GenDims(cell)</title>
<path fill="none" stroke="purple" d="M170.96,-26.6C189.5,-28.74 209.29,-31.03 227.51,-33.13"/>
<polygon fill="purple" stroke="purple" points="227.12,-36.61 237.46,-34.28 227.93,-29.66 227.12,-36.61"/>
</g>
</g>
</svg>
