<?xml version="1.0" encoding="UTF-8" standalone="no"?>
<!DOCTYPE svg PUBLIC "-//W3C//DTD SVG 1.1//EN"
 "http://www.w3.org/Graphics/SVG/1.1/DTD/svg11.dtd">
<!-- Generated by graphviz version 2.43.0 (0)
 -->
<!-- Title: %3 Pages: 1 -->
<svg width="535pt" height="206pt"
 viewBox="0.00 0.00 535.36 206.00" xmlns="http://www.w3.org/2000/svg" xmlns:xlink="http://www.w3.org/1999/xlink">
<g id="graph0" class="graph" transform="scale(1 1) rotate(0) translate(4 202)">
<title>%3</title>
<polygon fill="white" stroke="transparent" points="-4,4 -4,-202 531.36,-202 531.36,4 -4,4"/>
<!-- DimsInput(_index_ranks) -->
<g id="node1" class="node">
<title>DimsInput(_index_ranks)</title>
<ellipse fill="none" stroke="black" cx="425.32" cy="-99" rx="102.08" ry="18"/>
<text text-anchor="middle" x="425.32" y="-95.3" font-family="Times,serif" font-size="14.00">DimsInput(_index_ranks)</text>
</g>
<!-- GenDims(read_address) -->
<g id="node2" class="node">
<title>GenDims(read_address)</title>
<ellipse fill="none" stroke="black" cx="143.64" cy="-180" rx="96.68" ry="18"/>
<text text-anchor="middle" x="143.64" y="-176.3" font-family="Times,serif" font-size="14.00">GenDims(read_address)</text>
</g>
<!-- GenDims(read_address)&#45;&gt;DimsInput(_index_ranks) -->
<g id="edge1" class="edge">
<title>GenDims(read_address)&#45;&gt;DimsInput(_index_ranks)</title>
<path fill="none" stroke="black" d="M218.93,-168.67C241.12,-164.56 265.36,-159.33 287.27,-153 318.24,-144.06 351.92,-130.83 378.15,-119.71"/>
<polygon fill="black" stroke="black" points="379.65,-122.88 387.46,-115.72 376.89,-116.44 379.65,-122.88"/>
</g>
<!-- GenDims(slice_element) -->
<g id="node3" class="node">
<title>GenDims(slice_element)</title>
<ellipse fill="none" stroke="black" cx="143.64" cy="-126" rx="99.38" ry="18"/>
<text text-anchor="middle" x="143.64" y="-122.3" font-family="Times,serif" font-size="14.00">GenDims(slice_element)</text>
</g>
<!-- GenDims(slice_element)&#45;&gt;DimsInput(_index_ranks) -->
<g id="edge2" class="edge">
<title>GenDims(slice_element)&#45;&gt;DimsInput(_index_ranks)</title>
<path fill="none" stroke="black" d="M231.98,-117.57C261.5,-114.72 294.67,-111.52 325.04,-108.58"/>
<polygon fill="black" stroke="black" points="325.61,-112.05 335.23,-107.6 324.94,-105.08 325.61,-112.05"/>
</g>
<!-- GenDims(write_address_component) -->
<g id="node4" class="node">
<title>GenDims(write_address_component)</title>
<ellipse fill="none" stroke="black" cx="143.64" cy="-72" rx="143.77" ry="18"/>
<text text-anchor="middle" x="143.64" y="-68.3" font-family="Times,serif" font-size="14.00">GenDims(write_address_component)</text>
</g>
<!-- GenDims(write_address_component)&#45;&gt;DimsInput(_index_ranks) -->
<g id="edge3" class="edge">
<title>GenDims(write_address_component)&#45;&gt;DimsInput(_index_ranks)</title>
<path fill="none" stroke="black" d="M257.99,-82.94C280.21,-85.09 303.36,-87.32 325.08,-89.42"/>
<polygon fill="black" stroke="black" points="324.99,-92.93 335.28,-90.4 325.66,-85.96 324.99,-92.93"/>
</g>
<!-- GenDims(write_address) -->
<g id="node5" class="node">
<title>GenDims(write_address)</title>
<ellipse fill="none" stroke="black" cx="143.64" cy="-18" rx="99.38" ry="18"/>
<text text-anchor="middle" x="143.64" y="-14.3" font-family="Times,serif" font-size="14.00">GenDims(write_address)</text>
</g>
<!-- GenDims(write_address)&#45;&gt;DimsInput(_index_ranks) -->
<g id="edge4" class="edge">
<title>GenDims(write_address)&#45;&gt;DimsInput(_index_ranks)</title>
<path fill="none" stroke="black" d="M220.03,-29.53C241.92,-33.61 265.72,-38.77 287.27,-45 318.24,-53.94 351.92,-67.17 378.15,-78.29"/>
<polygon fill="black" stroke="black" points="376.89,-81.56 387.46,-82.28 379.65,-75.12 376.89,-81.56"/>
</g>
</g>
</svg>
