<?xml version="1.0" encoding="UTF-8" standalone="no"?>
<!DOCTYPE svg PUBLIC "-//W3C//DTD SVG 1.1//EN"
 "http://www.w3.org/Graphics/SVG/1.1/DTD/svg11.dtd">
<!-- Generated by graphviz version 2.43.0 (0)
 -->
<!-- Title: %3 Pages: 1 -->
<svg width="1435pt" height="516pt"
 viewBox="0.00 0.00 1435.10 515.59" xmlns="http://www.w3.org/2000/svg" xmlns:xlink="http://www.w3.org/1999/xlink">
<g id="graph0" class="graph" transform="scale(1 1) rotate(0) translate(4 511.59)">
<title>%3</title>
<polygon fill="white" stroke="transparent" points="-4,4 -4,-511.59 1431.1,-511.59 1431.1,4 -4,4"/>
<!-- Layout(layout) -->
<g id="node1" class="node">
<title>Layout(layout)</title>
<ellipse fill="none" stroke="black" cx="1363.4" cy="-354.59" rx="63.89" ry="18"/>
<text text-anchor="middle" x="1363.4" y="-350.89" font-family="Times,serif" font-size="14.00">Layout(layout)</text>
</g>
<!-- IndexRanks -->
<g id="node2" class="node">
<title>IndexRanks</title>
<ellipse fill="none" stroke="black" cx="874.79" cy="-215.59" rx="52.79" ry="18"/>
<text text-anchor="middle" x="874.79" y="-211.89" font-family="Times,serif" font-size="14.00">IndexRanks</text>
</g>
<!-- RankRange(read_address) -->
<g id="node3" class="node">
<title>RankRange(read_address)</title>
<ellipse fill="none" stroke="black" cx="1113.57" cy="-165.59" rx="103.18" ry="18"/>
<text text-anchor="middle" x="1113.57" y="-161.89" font-family="Times,serif" font-size="14.00">RankRange(read_address)</text>
</g>
<!-- IndexRanks&#45;&gt;RankRange(read_address) -->
<g id="edge1" class="edge">
<title>IndexRanks&#45;&gt;RankRange(read_address)</title>
<path fill="none" stroke="purple" d="M916.21,-204.28C931.01,-200.33 947.92,-196.02 963.43,-192.59 984.28,-187.97 1006.9,-183.57 1028.07,-179.71"/>
<polygon fill="purple" stroke="purple" points="1028.78,-183.14 1038,-177.92 1027.54,-176.25 1028.78,-183.14"/>
</g>
<!-- RankRange(slice_element) -->
<g id="node4" class="node">
<title>RankRange(slice_element)</title>
<ellipse fill="none" stroke="black" cx="1113.57" cy="-111.59" rx="106.68" ry="18"/>
<text text-anchor="middle" x="1113.57" y="-107.89" font-family="Times,serif" font-size="14.00">RankRange(slice_element)</text>
</g>
<!-- IndexRanks&#45;&gt;RankRange(slice_element) -->
<g id="edge2" class="edge">
<title>IndexRanks&#45;&gt;RankRange(slice_element)</title>
<path fill="none" stroke="purple" d="M890.31,-198.17C906.3,-180.24 933.71,-152.95 963.43,-138.59 977.95,-131.57 994.07,-126.37 1010.18,-122.51"/>
<polygon fill="purple" stroke="purple" points="1011.2,-125.87 1020.2,-120.28 1009.68,-119.04 1011.2,-125.87"/>
</g>
<!-- RankRange(write_address_component) -->
<g id="node5" class="node">
<title>RankRange(write_address_component)</title>
<ellipse fill="none" stroke="black" cx="1113.57" cy="-273.59" rx="150.27" ry="18"/>
<text text-anchor="middle" x="1113.57" y="-269.89" font-family="Times,serif" font-size="14.00">RankRange(write_address_component)</text>
</g>
<!-- IndexRanks&#45;&gt;RankRange(write_address_component) -->
<g id="edge3" class="edge">
<title>IndexRanks&#45;&gt;RankRange(write_address_component)</title>
<path fill="none" stroke="purple" d="M909.94,-229.1C925.99,-235.08 945.49,-241.82 963.43,-246.59 978.7,-250.64 995.01,-254.28 1011.04,-257.47"/>
<polygon fill="purple" stroke="purple" points="1010.48,-260.93 1020.96,-259.4 1011.81,-254.06 1010.48,-260.93"/>
</g>
<!-- RankRange(write_address) -->
<g id="node6" class="node">
<title>RankRange(write_address)</title>
<ellipse fill="none" stroke="black" cx="1113.57" cy="-219.59" rx="106.68" ry="18"/>
<text text-anchor="middle" x="1113.57" y="-215.89" font-family="Times,serif" font-size="14.00">RankRange(write_address)</text>
</g>
<!-- IndexRanks&#45;&gt;RankRange(write_address) -->
<g id="edge4" class="edge">
<title>IndexRanks&#45;&gt;RankRange(write_address)</title>
<path fill="none" stroke="purple" d="M927.46,-216.46C948.03,-216.81 972.59,-217.22 996.99,-217.63"/>
<polygon fill="purple" stroke="purple" points="997,-221.13 1007.06,-217.8 997.12,-214.14 997,-221.13"/>
</g>
<!-- DTypesNotImpl -->
<g id="node7" class="node">
<title>DTypesNotImpl</title>
<ellipse fill="none" stroke="black" cx="365.77" cy="-141.59" rx="68.79" ry="18"/>
<text text-anchor="middle" x="365.77" y="-137.89" font-family="Times,serif" font-size="14.00">DTypesNotImpl</text>
</g>
<!-- DTypesNotImpl&#45;&gt;Layout(layout) -->
<g id="edge6" class="edge">
<title>DTypesNotImpl&#45;&gt;Layout(layout)</title>
<path fill="none" stroke="black" d="M383.27,-124C402.33,-104.89 435.61,-75.16 470.67,-60.59 578.71,-15.68 614.84,-27.59 731.85,-27.59 731.85,-27.59 731.85,-27.59 875.79,-27.59 1048.68,-27.59 1127.42,49.8 1263.71,-56.59 1348.84,-123.04 1361.31,-265.18 1362.6,-326.01"/>
<polygon fill="black" stroke="black" points="1359.11,-326.42 1362.73,-336.38 1366.11,-326.34 1359.11,-326.42"/>
</g>
<!-- DTypesNotImpl&#45;&gt;IndexRanks -->
<g id="edge5" class="edge">
<title>DTypesNotImpl&#45;&gt;IndexRanks</title>
<path fill="none" stroke="black" d="M412.5,-154.93C430.5,-159.79 451.43,-164.98 470.67,-168.59 590.97,-191.12 733.61,-204.71 812.89,-211.12"/>
<polygon fill="black" stroke="black" points="812.93,-214.64 823.17,-211.94 813.48,-207.66 812.93,-214.64"/>
</g>
<!-- DTypeIndiv(indices) -->
<g id="node8" class="node">
<title>DTypeIndiv(indices)</title>
<ellipse fill="none" stroke="black" cx="557.11" cy="-87.59" rx="84.49" ry="18"/>
<text text-anchor="middle" x="557.11" y="-83.89" font-family="Times,serif" font-size="14.00">DTypeIndiv(indices)</text>
</g>
<!-- DTypesNotImpl&#45;&gt;DTypeIndiv(indices) -->
<g id="edge7" class="edge">
<title>DTypesNotImpl&#45;&gt;DTypeIndiv(indices)</title>
<path fill="none" stroke="purple" d="M413.09,-128.38C438.05,-121.26 469.14,-112.39 495.96,-104.74"/>
<polygon fill="purple" stroke="purple" points="496.96,-108.1 505.62,-101.99 495.04,-101.36 496.96,-108.1"/>
</g>
<!-- DTypeIndiv(updates) -->
<g id="node9" class="node">
<title>DTypeIndiv(updates)</title>
<ellipse fill="none" stroke="black" cx="557.11" cy="-141.59" rx="86.38" ry="18"/>
<text text-anchor="middle" x="557.11" y="-137.89" font-family="Times,serif" font-size="14.00">DTypeIndiv(updates)</text>
</g>
<!-- DTypesNotImpl&#45;&gt;DTypeIndiv(updates) -->
<g id="edge8" class="edge">
<title>DTypesNotImpl&#45;&gt;DTypeIndiv(updates)</title>
<path fill="none" stroke="purple" d="M434.86,-141.59C443.17,-141.59 451.77,-141.59 460.38,-141.59"/>
<polygon fill="purple" stroke="purple" points="460.49,-145.09 470.49,-141.59 460.49,-138.09 460.49,-145.09"/>
</g>
<!-- SigMap -->
<g id="node10" class="node">
<title>SigMap</title>
<ellipse fill="none" stroke="black" cx="874.79" cy="-354.59" rx="38.99" ry="18"/>
<text text-anchor="middle" x="874.79" y="-350.89" font-family="Times,serif" font-size="14.00">SigMap</text>
</g>
<!-- Sig(indices) -->
<g id="node11" class="node">
<title>Sig(indices)</title>
<ellipse fill="none" stroke="black" cx="1113.57" cy="-435.59" rx="53.09" ry="18"/>
<text text-anchor="middle" x="1113.57" y="-431.89" font-family="Times,serif" font-size="14.00">Sig(indices)</text>
</g>
<!-- SigMap&#45;&gt;Sig(indices) -->
<g id="edge9" class="edge">
<title>SigMap&#45;&gt;Sig(indices)</title>
<path fill="none" stroke="purple" d="M895.89,-370.01C912.95,-382.33 938.56,-399.06 963.43,-408.59 991.45,-419.31 1024.09,-425.84 1051.67,-429.78"/>
<polygon fill="purple" stroke="purple" points="1051.21,-433.25 1061.59,-431.12 1052.15,-426.31 1051.21,-433.25"/>
</g>
<!-- Sig(updates) -->
<g id="node12" class="node">
<title>Sig(updates)</title>
<ellipse fill="none" stroke="black" cx="1113.57" cy="-381.59" rx="55.49" ry="18"/>
<text text-anchor="middle" x="1113.57" y="-377.89" font-family="Times,serif" font-size="14.00">Sig(updates)</text>
</g>
<!-- SigMap&#45;&gt;Sig(updates) -->
<g id="edge10" class="edge">
<title>SigMap&#45;&gt;Sig(updates)</title>
<path fill="none" stroke="purple" d="M912.79,-358.81C949.71,-363.02 1007.11,-369.56 1050.92,-374.56"/>
<polygon fill="purple" stroke="purple" points="1050.57,-378.04 1060.9,-375.69 1051.36,-371.08 1050.57,-378.04"/>
</g>
<!-- Sig(shape) -->
<g id="node13" class="node">
<title>Sig(shape)</title>
<ellipse fill="none" stroke="black" cx="1113.57" cy="-327.59" rx="48.19" ry="18"/>
<text text-anchor="middle" x="1113.57" y="-323.89" font-family="Times,serif" font-size="14.00">Sig(shape)</text>
</g>
<!-- SigMap&#45;&gt;Sig(shape) -->
<g id="edge11" class="edge">
<title>SigMap&#45;&gt;Sig(shape)</title>
<path fill="none" stroke="purple" d="M912.79,-350.37C951.52,-345.95 1012.78,-338.96 1057.27,-333.89"/>
<polygon fill="purple" stroke="purple" points="1057.8,-337.35 1067.34,-332.74 1057,-330.4 1057.8,-337.35"/>
</g>
<!-- Sig(return[0]) -->
<g id="node14" class="node">
<title>Sig(return[0])</title>
<ellipse fill="none" stroke="black" cx="1113.57" cy="-489.59" rx="59.59" ry="18"/>
<text text-anchor="middle" x="1113.57" y="-485.89" font-family="Times,serif" font-size="14.00">Sig(return[0])</text>
</g>
<!-- SigMap&#45;&gt;Sig(return[0]) -->
<g id="edge12" class="edge">
<title>SigMap&#45;&gt;Sig(return[0])</title>
<path fill="none" stroke="purple" d="M884.71,-372.05C898.2,-396.55 926.23,-440.58 963.43,-462.59 987.43,-476.78 1017.12,-483.85 1043.67,-487.26"/>
<polygon fill="purple" stroke="purple" points="1043.34,-490.75 1053.67,-488.4 1044.13,-483.79 1043.34,-490.75"/>
</g>
<!-- Sig(indices)&#45;&gt;Layout(layout) -->
<g id="edge24" class="edge">
<title>Sig(indices)&#45;&gt;Layout(layout)</title>
<path fill="none" stroke="black" d="M1164.98,-430.55C1194.38,-426.62 1231.83,-419.86 1263.71,-408.59 1286.49,-400.53 1310.31,-387.64 1328.84,-376.48"/>
<polygon fill="black" stroke="black" points="1330.8,-379.39 1337.48,-371.17 1327.13,-373.42 1330.8,-379.39"/>
</g>
<!-- Sig(updates)&#45;&gt;Layout(layout) -->
<g id="edge27" class="edge">
<title>Sig(updates)&#45;&gt;Layout(layout)</title>
<path fill="none" stroke="black" d="M1166.22,-375.96C1203.1,-371.94 1253.11,-366.49 1293.4,-362.1"/>
<polygon fill="black" stroke="black" points="1293.86,-365.57 1303.42,-361.01 1293.1,-358.62 1293.86,-365.57"/>
</g>
<!-- Sig(shape)&#45;&gt;Layout(layout) -->
<g id="edge29" class="edge">
<title>Sig(shape)&#45;&gt;Layout(layout)</title>
<path fill="none" stroke="black" d="M1160.03,-332.54C1197.41,-336.61 1250.99,-342.45 1293.62,-347.09"/>
<polygon fill="black" stroke="black" points="1293.33,-350.58 1303.65,-348.19 1294.09,-343.62 1293.33,-350.58"/>
</g>
<!-- Sig(return[0])&#45;&gt;Layout(layout) -->
<g id="edge30" class="edge">
<title>Sig(return[0])&#45;&gt;Layout(layout)</title>
<path fill="none" stroke="black" d="M1173.08,-487.71C1201.86,-484.69 1236.18,-477.79 1263.71,-462.59 1299.11,-443.03 1328.65,-406.02 1345.93,-380.83"/>
<polygon fill="black" stroke="black" points="1348.87,-382.73 1351.52,-372.47 1343.05,-378.84 1348.87,-382.73"/>
</g>
<!-- ArgRanks -->
<g id="node15" class="node">
<title>ArgRanks</title>
<ellipse fill="none" stroke="black" cx="732.85" cy="-271.59" rx="46.29" ry="18"/>
<text text-anchor="middle" x="732.85" y="-267.89" font-family="Times,serif" font-size="14.00">ArgRanks</text>
</g>
<!-- ArgRanks&#45;&gt;IndexRanks -->
<g id="edge13" class="edge">
<title>ArgRanks&#45;&gt;IndexRanks</title>
<path fill="none" stroke="black" d="M765.6,-258.88C784.76,-251.21 809.44,-241.34 830.39,-232.95"/>
<polygon fill="black" stroke="black" points="831.73,-236.19 839.71,-229.22 829.13,-229.69 831.73,-236.19"/>
</g>
<!-- ArgRanks&#45;&gt;SigMap -->
<g id="edge14" class="edge">
<title>ArgRanks&#45;&gt;SigMap</title>
<path fill="none" stroke="black" d="M759.19,-286.62C782.2,-300.26 816.26,-320.46 841.27,-335.3"/>
<polygon fill="black" stroke="black" points="839.65,-338.41 850.03,-340.5 843.22,-332.39 839.65,-338.41"/>
</g>
<!-- ArgIndels -->
<g id="node16" class="node">
<title>ArgIndels</title>
<ellipse fill="none" stroke="black" cx="557.11" cy="-271.59" rx="46.29" ry="18"/>
<text text-anchor="middle" x="557.11" y="-267.89" font-family="Times,serif" font-size="14.00">ArgIndels</text>
</g>
<!-- ArgIndels&#45;&gt;ArgRanks -->
<g id="edge15" class="edge">
<title>ArgIndels&#45;&gt;ArgRanks</title>
<path fill="none" stroke="black" d="M603.3,-271.59C625.64,-271.59 652.79,-271.59 676.37,-271.59"/>
<polygon fill="black" stroke="black" points="676.58,-275.09 686.58,-271.59 676.58,-268.09 676.58,-275.09"/>
</g>
<!-- ArgMutations -->
<g id="node17" class="node">
<title>ArgMutations</title>
<ellipse fill="none" stroke="black" cx="365.77" cy="-237.59" rx="60.39" ry="18"/>
<text text-anchor="middle" x="365.77" y="-233.89" font-family="Times,serif" font-size="14.00">ArgMutations</text>
</g>
<!-- ArgMutations&#45;&gt;IndexRanks -->
<g id="edge17" class="edge">
<title>ArgMutations&#45;&gt;IndexRanks</title>
<path fill="none" stroke="black" d="M425.93,-235.02C522.68,-230.82 713.83,-222.53 812.16,-218.26"/>
<polygon fill="black" stroke="black" points="812.41,-221.75 822.25,-217.82 812.11,-214.76 812.41,-221.75"/>
</g>
<!-- ArgMutations&#45;&gt;SigMap -->
<g id="edge18" class="edge">
<title>ArgMutations&#45;&gt;SigMap</title>
<path fill="none" stroke="black" d="M389.41,-254.44C409.64,-268.6 440.64,-288.15 470.67,-298.59 593.54,-341.29 748.15,-351.53 825.32,-353.92"/>
<polygon fill="black" stroke="black" points="825.59,-357.43 835.68,-354.21 825.78,-350.43 825.59,-357.43"/>
</g>
<!-- ArgMutations&#45;&gt;ArgIndels -->
<g id="edge16" class="edge">
<title>ArgMutations&#45;&gt;ArgIndels</title>
<path fill="none" stroke="black" d="M418.01,-246.79C445.01,-251.64 478.02,-257.56 505,-262.41"/>
<polygon fill="black" stroke="black" points="504.56,-265.88 515.02,-264.21 505.79,-258.99 504.56,-265.88"/>
</g>
<!-- Args -->
<g id="node18" class="node">
<title>Args</title>
<ellipse fill="none" stroke="black" cx="27.95" cy="-195.59" rx="27.9" ry="18"/>
<text text-anchor="middle" x="27.95" y="-191.89" font-family="Times,serif" font-size="14.00">Args</text>
</g>
<!-- DataTensor(indices) -->
<g id="node19" class="node">
<title>DataTensor(indices)</title>
<ellipse fill="none" stroke="red" cx="176.39" cy="-195.59" rx="82.59" ry="18"/>
<text text-anchor="middle" x="176.39" y="-191.89" font-family="Times,serif" font-size="14.00">DataTensor(indices)</text>
</g>
<!-- Args&#45;&gt;DataTensor(indices) -->
<g id="edge19" class="edge">
<title>Args&#45;&gt;DataTensor(indices)</title>
<path fill="none" stroke="purple" d="M56.15,-195.59C64.28,-195.59 73.67,-195.59 83.56,-195.59"/>
<polygon fill="purple" stroke="purple" points="83.57,-199.09 93.57,-195.59 83.57,-192.09 83.57,-199.09"/>
</g>
<!-- DataTensor(updates) -->
<g id="node20" class="node">
<title>DataTensor(updates)</title>
<ellipse fill="none" stroke="red" cx="176.39" cy="-141.59" rx="84.49" ry="18"/>
<text text-anchor="middle" x="176.39" y="-137.89" font-family="Times,serif" font-size="14.00">DataTensor(updates)</text>
</g>
<!-- Args&#45;&gt;DataTensor(updates) -->
<g id="edge20" class="edge">
<title>Args&#45;&gt;DataTensor(updates)</title>
<path fill="none" stroke="purple" d="M51.18,-185.46C63.13,-180.16 78.2,-173.73 91.9,-168.59 100.08,-165.51 108.79,-162.46 117.39,-159.58"/>
<polygon fill="purple" stroke="purple" points="118.61,-162.86 127,-156.4 116.41,-156.21 118.61,-162.86"/>
</g>
<!-- ShapeList(shape) -->
<g id="node21" class="node">
<title>ShapeList(shape)</title>
<ellipse fill="none" stroke="red" cx="176.39" cy="-249.59" rx="71.49" ry="18"/>
<text text-anchor="middle" x="176.39" y="-245.89" font-family="Times,serif" font-size="14.00">ShapeList(shape)</text>
</g>
<!-- Args&#45;&gt;ShapeList(shape) -->
<g id="edge21" class="edge">
<title>Args&#45;&gt;ShapeList(shape)</title>
<path fill="none" stroke="purple" d="M51.18,-205.72C63.13,-211.01 78.2,-217.45 91.9,-222.59 101,-226 110.75,-229.39 120.27,-232.56"/>
<polygon fill="purple" stroke="purple" points="119.47,-235.98 130.06,-235.77 121.65,-229.33 119.47,-235.98"/>
</g>
<!-- DataTensor(indices)&#45;&gt;DTypesNotImpl -->
<g id="edge23" class="edge">
<title>DataTensor(indices)&#45;&gt;DTypesNotImpl</title>
<path fill="none" stroke="black" d="M227.11,-181.26C252.3,-174 282.97,-165.16 308.97,-157.67"/>
<polygon fill="black" stroke="black" points="310.04,-161 318.68,-154.87 308.1,-154.28 310.04,-161"/>
</g>
<!-- DataTensor(indices)&#45;&gt;ArgMutations -->
<g id="edge22" class="edge">
<title>DataTensor(indices)&#45;&gt;ArgMutations</title>
<path fill="none" stroke="black" d="M234.63,-208.42C257.6,-213.56 284.03,-219.49 307.05,-224.65"/>
<polygon fill="black" stroke="black" points="306.5,-228.11 317.02,-226.88 308.03,-221.28 306.5,-228.11"/>
</g>
<!-- DataTensor(updates)&#45;&gt;DTypesNotImpl -->
<g id="edge26" class="edge">
<title>DataTensor(updates)&#45;&gt;DTypesNotImpl</title>
<path fill="none" stroke="black" d="M260.94,-141.59C269.48,-141.59 278.12,-141.59 286.6,-141.59"/>
<polygon fill="black" stroke="black" points="286.83,-145.09 296.83,-141.59 286.83,-138.09 286.83,-145.09"/>
</g>
<!-- DataTensor(updates)&#45;&gt;ArgMutations -->
<g id="edge25" class="edge">
<title>DataTensor(updates)&#45;&gt;ArgMutations</title>
<path fill="none" stroke="black" d="M229.03,-155.84C239.77,-159.48 250.86,-163.75 260.88,-168.59 287.33,-181.35 314.91,-199.95 335.01,-214.63"/>
<polygon fill="black" stroke="black" points="333.02,-217.51 343.13,-220.65 337.18,-211.89 333.02,-217.51"/>
</g>
<!-- ShapeList(shape)&#45;&gt;ArgMutations -->
<g id="edge28" class="edge">
<title>ShapeList(shape)&#45;&gt;ArgMutations</title>
<path fill="none" stroke="black" d="M245.83,-245.2C262.28,-244.15 279.86,-243.02 296.31,-241.97"/>
<polygon fill="black" stroke="black" points="296.63,-245.46 306.39,-241.33 296.18,-238.47 296.63,-245.46"/>
</g>
<!-- DataFormat -->
<g id="node22" class="node">
<title>DataFormat</title>
<ellipse fill="none" stroke="black" cx="732.85" cy="-112.59" rx="53.09" ry="18"/>
<text text-anchor="middle" x="732.85" y="-108.89" font-family="Times,serif" font-size="14.00">DataFormat</text>
</g>
<!-- DataFormat&#45;&gt;Layout(layout) -->
<g id="edge32" class="edge">
<title>DataFormat&#45;&gt;Layout(layout)</title>
<path fill="none" stroke="black" d="M778.93,-103.33C892.39,-81.11 1186.23,-30.42 1263.71,-84.59 1343.82,-140.6 1359.12,-268.97 1361.88,-326.17"/>
<polygon fill="black" stroke="black" points="1358.39,-326.45 1362.28,-336.31 1365.39,-326.18 1358.39,-326.45"/>
</g>
<!-- DataFormat&#45;&gt;IndexRanks -->
<g id="edge31" class="edge">
<title>DataFormat&#45;&gt;IndexRanks</title>
<path fill="none" stroke="black" d="M756.02,-128.91C779.67,-146.31 817.26,-173.98 843.6,-193.36"/>
<polygon fill="black" stroke="black" points="841.59,-196.23 851.72,-199.34 845.74,-190.6 841.59,-196.23"/>
</g>
</g>
</svg>
