<?xml version="1.0" encoding="UTF-8" standalone="no"?>
<!DOCTYPE svg PUBLIC "-//W3C//DTD SVG 1.1//EN"
 "http://www.w3.org/Graphics/SVG/1.1/DTD/svg11.dtd">
<!-- Generated by graphviz version 2.43.0 (0)
 -->
<!-- Title: %3 Pages: 1 -->
<svg width="1370pt" height="657pt"
 viewBox="0.00 0.00 1370.50 656.92" xmlns="http://www.w3.org/2000/svg" xmlns:xlink="http://www.w3.org/1999/xlink">
<g id="graph0" class="graph" transform="scale(1 1) rotate(0) translate(4 652.92)">
<title>%3</title>
<polygon fill="white" stroke="transparent" points="-4,4 -4,-652.92 1366.5,-652.92 1366.5,4 -4,4"/>
<!-- ObservedValue(dtypes) -->
<g id="node1" class="node">
<title>ObservedValue(dtypes)</title>
<ellipse fill="none" stroke="black" cx="710.1" cy="-593.78" rx="92.88" ry="18"/>
<text text-anchor="middle" x="710.1" y="-590.08" font-family="Times,serif" font-size="14.00">ObservedValue(dtypes)</text>
</g>
<!-- ObservedValue(shapes) -->
<g id="node2" class="node">
<title>ObservedValue(shapes)</title>
<ellipse fill="none" stroke="black" cx="1268.91" cy="-45.78" rx="93.68" ry="18"/>
<text text-anchor="middle" x="1268.91" y="-42.08" font-family="Times,serif" font-size="14.00">ObservedValue(shapes)</text>
</g>
<!-- ObservedValue(args) -->
<g id="node3" class="node">
<title>ObservedValue(args)</title>
<ellipse fill="none" stroke="black" cx="367.72" cy="-444.78" rx="85.29" ry="18"/>
<text text-anchor="middle" x="367.72" y="-441.08" font-family="Times,serif" font-size="14.00">ObservedValue(args)</text>
</g>
<!-- Layout(layout) -->
<g id="node4" class="node">
<title>Layout(layout)</title>
<ellipse fill="none" stroke="black" cx="1268.91" cy="-253.78" rx="63.89" ry="18"/>
<text text-anchor="middle" x="1268.91" y="-250.08" font-family="Times,serif" font-size="14.00">Layout(layout)</text>
</g>
<!-- IndexRanks -->
<g id="node5" class="node">
<title>IndexRanks</title>
<ellipse fill="none" stroke="black" cx="710.1" cy="-439.78" rx="52.79" ry="18"/>
<text text-anchor="middle" x="710.1" y="-436.08" font-family="Times,serif" font-size="14.00">IndexRanks</text>
</g>
<!-- RankRange(read_address) -->
<g id="node6" class="node">
<title>RankRange(read_address)</title>
<ellipse fill="none" stroke="black" cx="989.18" cy="-453.78" rx="103.18" ry="18"/>
<text text-anchor="middle" x="989.18" y="-450.08" font-family="Times,serif" font-size="14.00">RankRange(read_address)</text>
</g>
<!-- IndexRanks&#45;&gt;RankRange(read_address) -->
<g id="edge1" class="edge">
<title>IndexRanks&#45;&gt;RankRange(read_address)</title>
<path fill="none" stroke="purple" d="M762.24,-442.36C795.11,-444.02 839.07,-446.24 879.47,-448.28"/>
<polygon fill="purple" stroke="purple" points="879.49,-451.79 889.66,-448.8 879.85,-444.8 879.49,-451.79"/>
</g>
<!-- RankRange(slice_element) -->
<g id="node7" class="node">
<title>RankRange(slice_element)</title>
<ellipse fill="none" stroke="black" cx="989.18" cy="-399.78" rx="106.68" ry="18"/>
<text text-anchor="middle" x="989.18" y="-396.08" font-family="Times,serif" font-size="14.00">RankRange(slice_element)</text>
</g>
<!-- IndexRanks&#45;&gt;RankRange(slice_element) -->
<g id="edge2" class="edge">
<title>IndexRanks&#45;&gt;RankRange(slice_element)</title>
<path fill="none" stroke="purple" d="M759.05,-432.86C797.07,-427.37 851.31,-419.54 897.47,-412.87"/>
<polygon fill="purple" stroke="purple" points="898.09,-416.32 907.49,-411.43 897.09,-409.39 898.09,-416.32"/>
</g>
<!-- RankRange(write_address_component) -->
<g id="node8" class="node">
<title>RankRange(write_address_component)</title>
<ellipse fill="none" stroke="black" cx="989.18" cy="-507.78" rx="150.27" ry="18"/>
<text text-anchor="middle" x="989.18" y="-504.08" font-family="Times,serif" font-size="14.00">RankRange(write_address_component)</text>
</g>
<!-- IndexRanks&#45;&gt;RankRange(write_address_component) -->
<g id="edge3" class="edge">
<title>IndexRanks&#45;&gt;RankRange(write_address_component)</title>
<path fill="none" stroke="purple" d="M747.13,-452.72C772.57,-461.51 807.59,-472.93 839.04,-480.78 854.69,-484.68 871.39,-488.26 887.74,-491.46"/>
<polygon fill="purple" stroke="purple" points="887.39,-494.95 897.87,-493.39 888.7,-488.08 887.39,-494.95"/>
</g>
<!-- RankRange(write_address) -->
<g id="node9" class="node">
<title>RankRange(write_address)</title>
<ellipse fill="none" stroke="black" cx="989.18" cy="-307.78" rx="106.68" ry="18"/>
<text text-anchor="middle" x="989.18" y="-304.08" font-family="Times,serif" font-size="14.00">RankRange(write_address)</text>
</g>
<!-- IndexRanks&#45;&gt;RankRange(write_address) -->
<g id="edge4" class="edge">
<title>IndexRanks&#45;&gt;RankRange(write_address)</title>
<path fill="none" stroke="purple" d="M738.76,-424.56C764.48,-410.59 803.99,-389.57 839.04,-372.78 871.77,-357.1 909.21,-340.79 938.39,-328.43"/>
<polygon fill="purple" stroke="purple" points="940.1,-331.5 947.95,-324.39 937.38,-325.05 940.1,-331.5"/>
</g>
<!-- RankRange(write_address)&#45;&gt;ObservedValue(shapes) -->
<g id="edge24" class="edge">
<title>RankRange(write_address)&#45;&gt;ObservedValue(shapes)</title>
<path fill="none" stroke="purple" d="M1090.63,-302.21C1107.98,-297.85 1125.01,-291.09 1139.31,-280.78 1158.12,-267.22 1225.65,-132.21 1254.59,-73.17"/>
<polygon fill="purple" stroke="purple" points="1257.8,-74.57 1259.05,-64.05 1251.51,-71.5 1257.8,-74.57"/>
</g>
<!-- DTypes -->
<g id="node10" class="node">
<title>DTypes</title>
<ellipse fill="none" stroke="black" cx="535.01" cy="-542.78" rx="38.19" ry="18"/>
<text text-anchor="middle" x="535.01" y="-539.08" font-family="Times,serif" font-size="14.00">DTypes</text>
</g>
<!-- DTypes&#45;&gt;ObservedValue(dtypes) -->
<g id="edge5" class="edge">
<title>DTypes&#45;&gt;ObservedValue(dtypes)</title>
<path fill="none" stroke="black" d="M568.16,-552.25C590.63,-558.87 621.31,-567.91 648.32,-575.87"/>
<polygon fill="black" stroke="black" points="647.5,-579.28 658.08,-578.74 649.48,-572.56 647.5,-579.28"/>
</g>
<!-- DTypes&#45;&gt;Layout(layout) -->
<g id="edge7" class="edge">
<title>DTypes&#45;&gt;Layout(layout)</title>
<path fill="none" stroke="black" d="M572.22,-547.19C687.76,-560.53 1045.52,-595.89 1139.31,-534.78 1228.18,-476.88 1256.48,-340.83 1264.76,-281.86"/>
<polygon fill="black" stroke="black" points="1268.25,-282.15 1266.09,-271.78 1261.31,-281.24 1268.25,-282.15"/>
</g>
<!-- DTypes&#45;&gt;IndexRanks -->
<g id="edge6" class="edge">
<title>DTypes&#45;&gt;IndexRanks</title>
<path fill="none" stroke="black" d="M559.72,-528.67C589.29,-511.07 640.12,-480.83 674.16,-460.57"/>
<polygon fill="black" stroke="black" points="676.05,-463.52 682.86,-455.39 672.47,-457.5 676.05,-463.52"/>
</g>
<!-- SigMap -->
<g id="node11" class="node">
<title>SigMap</title>
<ellipse fill="none" stroke="black" cx="710.1" cy="-199.78" rx="38.99" ry="18"/>
<text text-anchor="middle" x="710.1" y="-196.08" font-family="Times,serif" font-size="14.00">SigMap</text>
</g>
<!-- Sig(indices) -->
<g id="node12" class="node">
<title>Sig(indices)</title>
<ellipse fill="none" stroke="black" cx="989.18" cy="-199.78" rx="53.09" ry="18"/>
<text text-anchor="middle" x="989.18" y="-196.08" font-family="Times,serif" font-size="14.00">Sig(indices)</text>
</g>
<!-- SigMap&#45;&gt;Sig(indices) -->
<g id="edge8" class="edge">
<title>SigMap&#45;&gt;Sig(indices)</title>
<path fill="none" stroke="purple" d="M749.34,-199.78C794.8,-199.78 871.33,-199.78 925.5,-199.78"/>
<polygon fill="purple" stroke="purple" points="925.68,-203.28 935.68,-199.78 925.68,-196.28 925.68,-203.28"/>
</g>
<!-- Sig(updates) -->
<g id="node13" class="node">
<title>Sig(updates)</title>
<ellipse fill="none" stroke="black" cx="989.18" cy="-145.78" rx="55.49" ry="18"/>
<text text-anchor="middle" x="989.18" y="-142.08" font-family="Times,serif" font-size="14.00">Sig(updates)</text>
</g>
<!-- SigMap&#45;&gt;Sig(updates) -->
<g id="edge9" class="edge">
<title>SigMap&#45;&gt;Sig(updates)</title>
<path fill="none" stroke="purple" d="M745.53,-192.23C771.25,-186.66 807.3,-179 839.04,-172.78 869.05,-166.89 902.55,-160.79 930.19,-155.87"/>
<polygon fill="purple" stroke="purple" points="930.85,-159.31 940.09,-154.12 929.63,-152.42 930.85,-159.31"/>
</g>
<!-- Sig(shape) -->
<g id="node14" class="node">
<title>Sig(shape)</title>
<ellipse fill="none" stroke="black" cx="989.18" cy="-253.78" rx="48.19" ry="18"/>
<text text-anchor="middle" x="989.18" y="-250.08" font-family="Times,serif" font-size="14.00">Sig(shape)</text>
</g>
<!-- SigMap&#45;&gt;Sig(shape) -->
<g id="edge10" class="edge">
<title>SigMap&#45;&gt;Sig(shape)</title>
<path fill="none" stroke="purple" d="M745.53,-207.32C771.25,-212.89 807.3,-220.56 839.04,-226.78 870.78,-233 906.42,-239.47 934.9,-244.52"/>
<polygon fill="purple" stroke="purple" points="934.59,-248.01 945.04,-246.31 935.8,-241.12 934.59,-248.01"/>
</g>
<!-- Sig(return[0]) -->
<g id="node15" class="node">
<title>Sig(return[0])</title>
<ellipse fill="none" stroke="black" cx="989.18" cy="-91.78" rx="59.59" ry="18"/>
<text text-anchor="middle" x="989.18" y="-88.08" font-family="Times,serif" font-size="14.00">Sig(return[0])</text>
</g>
<!-- SigMap&#45;&gt;Sig(return[0]) -->
<g id="edge11" class="edge">
<title>SigMap&#45;&gt;Sig(return[0])</title>
<path fill="none" stroke="purple" d="M730.2,-184.32C754.14,-165.76 797.16,-135.11 839.04,-118.78 865.01,-108.65 895.03,-102.28 921.29,-98.3"/>
<polygon fill="purple" stroke="purple" points="922.13,-101.71 931.54,-96.83 921.14,-94.78 922.13,-101.71"/>
</g>
<!-- Sig(indices)&#45;&gt;Layout(layout) -->
<g id="edge25" class="edge">
<title>Sig(indices)&#45;&gt;Layout(layout)</title>
<path fill="none" stroke="black" d="M1036.93,-207.9C1066.35,-213.09 1105.1,-220.09 1139.31,-226.78 1161.73,-231.16 1186.29,-236.24 1207.88,-240.81"/>
<polygon fill="black" stroke="black" points="1207.39,-244.29 1217.9,-242.94 1208.84,-237.44 1207.39,-244.29"/>
</g>
<!-- Sig(updates)&#45;&gt;Layout(layout) -->
<g id="edge26" class="edge">
<title>Sig(updates)&#45;&gt;Layout(layout)</title>
<path fill="none" stroke="black" d="M1042.93,-150.35C1072.09,-154.09 1108.53,-160.82 1139.31,-172.78 1175.83,-186.97 1213.25,-211.95 1238.24,-230.43"/>
<polygon fill="black" stroke="black" points="1236.44,-233.45 1246.54,-236.66 1240.65,-227.86 1236.44,-233.45"/>
</g>
<!-- Sig(shape)&#45;&gt;Layout(layout) -->
<g id="edge27" class="edge">
<title>Sig(shape)&#45;&gt;Layout(layout)</title>
<path fill="none" stroke="black" d="M1037.29,-253.78C1080.51,-253.78 1145.19,-253.78 1195.06,-253.78"/>
<polygon fill="black" stroke="black" points="1195.15,-257.28 1205.15,-253.78 1195.15,-250.28 1195.15,-257.28"/>
</g>
<!-- Sig(return[0])&#45;&gt;Layout(layout) -->
<g id="edge28" class="edge">
<title>Sig(return[0])&#45;&gt;Layout(layout)</title>
<path fill="none" stroke="black" d="M1048.92,-93.93C1077.59,-97.04 1111.75,-103.92 1139.31,-118.78 1187.81,-144.92 1228.66,-195.97 1250.6,-227.26"/>
<polygon fill="black" stroke="black" points="1247.98,-229.64 1256.53,-235.9 1253.76,-225.68 1247.98,-229.64"/>
</g>
<!-- ArgIndels -->
<g id="node16" class="node">
<title>ArgIndels</title>
<ellipse fill="none" stroke="black" cx="535.01" cy="-353.78" rx="46.29" ry="18"/>
<text text-anchor="middle" x="535.01" y="-350.08" font-family="Times,serif" font-size="14.00">ArgIndels</text>
</g>
<!-- ArgIndels&#45;&gt;ObservedValue(shapes) -->
<g id="edge14" class="edge">
<title>ArgIndels&#45;&gt;ObservedValue(shapes)</title>
<path fill="none" stroke="black" d="M539.74,-335.79C547.92,-300.37 570.55,-220.88 617.16,-172.78 693.48,-94.01 732.74,-91.77 839.04,-64.78 950.22,-36.55 1082.73,-35.4 1170.73,-38.96"/>
<polygon fill="black" stroke="black" points="1170.83,-42.47 1180.97,-39.41 1171.13,-35.48 1170.83,-42.47"/>
</g>
<!-- ArgIndels&#45;&gt;Layout(layout) -->
<g id="edge15" class="edge">
<title>ArgIndels&#45;&gt;Layout(layout)</title>
<path fill="none" stroke="black" d="M581.13,-355.4C702.76,-359.29 1035.22,-366.61 1139.31,-334.78 1177.62,-323.06 1215.73,-296.75 1240.39,-277.28"/>
<polygon fill="black" stroke="black" points="1242.63,-279.97 1248.22,-270.97 1238.24,-274.52 1242.63,-279.97"/>
</g>
<!-- ArgIndels&#45;&gt;IndexRanks -->
<g id="edge12" class="edge">
<title>ArgIndels&#45;&gt;IndexRanks</title>
<path fill="none" stroke="black" d="M564.21,-367.79C593.07,-382.12 638.13,-404.51 670.33,-420.52"/>
<polygon fill="black" stroke="black" points="668.95,-423.74 679.47,-425.05 672.07,-417.47 668.95,-423.74"/>
</g>
<!-- ArgIndels&#45;&gt;SigMap -->
<g id="edge13" class="edge">
<title>ArgIndels&#45;&gt;SigMap</title>
<path fill="none" stroke="black" d="M554.54,-337.3C585.67,-309.6 648.53,-253.67 683.74,-222.34"/>
<polygon fill="black" stroke="black" points="686.08,-224.94 691.23,-215.68 681.43,-219.71 686.08,-224.94"/>
</g>
<!-- IndexUsage -->
<g id="node17" class="node">
<title>IndexUsage</title>
<ellipse fill="none" stroke="black" cx="367.72" cy="-363.78" rx="52.79" ry="18"/>
<text text-anchor="middle" x="367.72" y="-360.08" font-family="Times,serif" font-size="14.00">IndexUsage</text>
</g>
<!-- IndexUsage&#45;&gt;ObservedValue(shapes) -->
<g id="edge18" class="edge">
<title>IndexUsage&#45;&gt;ObservedValue(shapes)</title>
<path fill="none" stroke="black" d="M377.91,-345.87C405.79,-293.52 495.08,-140.09 617.16,-70.78 805.55,36.19 1076.5,-2.97 1200.87,-29.43"/>
<polygon fill="black" stroke="black" points="1200.49,-32.93 1211.01,-31.63 1201.98,-26.09 1200.49,-32.93"/>
</g>
<!-- IndexUsage&#45;&gt;IndexRanks -->
<g id="edge16" class="edge">
<title>IndexUsage&#45;&gt;IndexRanks</title>
<path fill="none" stroke="black" d="M412.18,-373.48C474.31,-387.35 588.45,-412.84 655.67,-427.85"/>
<polygon fill="black" stroke="black" points="655.11,-431.31 665.64,-430.07 656.64,-424.48 655.11,-431.31"/>
</g>
<!-- IndexUsage&#45;&gt;ArgIndels -->
<g id="edge17" class="edge">
<title>IndexUsage&#45;&gt;ArgIndels</title>
<path fill="none" stroke="black" d="M419.66,-360.7C438.48,-359.56 459.88,-358.26 479.03,-357.1"/>
<polygon fill="black" stroke="black" points="479.35,-360.59 489.12,-356.49 478.92,-353.6 479.35,-360.59"/>
</g>
<!-- IndexConstraints -->
<g id="node18" class="node">
<title>IndexConstraints</title>
<ellipse fill="none" stroke="black" cx="175.74" cy="-441.78" rx="70.69" ry="18"/>
<text text-anchor="middle" x="175.74" y="-438.08" font-family="Times,serif" font-size="14.00">IndexConstraints</text>
</g>
<!-- IndexConstraints&#45;&gt;ObservedValue(args) -->
<g id="edge20" class="edge">
<title>IndexConstraints&#45;&gt;ObservedValue(args)</title>
<path fill="none" stroke="black" d="M246.67,-442.88C255.11,-443.01 263.84,-443.15 272.55,-443.29"/>
<polygon fill="black" stroke="black" points="272.71,-446.79 282.76,-443.45 272.82,-439.79 272.71,-446.79"/>
</g>
<!-- IndexConstraints&#45;&gt;IndexUsage -->
<g id="edge19" class="edge">
<title>IndexConstraints&#45;&gt;IndexUsage</title>
<path fill="none" stroke="black" d="M213.82,-426.55C245.37,-413.6 290.7,-394.99 323.81,-381.39"/>
<polygon fill="black" stroke="black" points="325.31,-384.56 333.24,-377.53 322.66,-378.09 325.31,-384.56"/>
</g>
<!-- Report -->
<g id="node19" class="node">
<title>Report</title>
<ellipse fill="none" stroke="black" cx="34.45" cy="-495.78" rx="34.39" ry="18"/>
<text text-anchor="middle" x="34.45" y="-492.08" font-family="Times,serif" font-size="14.00">Report</text>
</g>
<!-- Report&#45;&gt;DTypes -->
<g id="edge21" class="edge">
<title>Report&#45;&gt;DTypes</title>
<path fill="none" stroke="black" d="M60.56,-507.82C73.5,-513.43 89.71,-519.56 104.89,-522.78 241.06,-551.61 406.74,-549.03 486.55,-545.52"/>
<polygon fill="black" stroke="black" points="486.94,-549.01 496.76,-545.04 486.61,-542.01 486.94,-549.01"/>
</g>
<!-- Report&#45;&gt;IndexConstraints -->
<g id="edge22" class="edge">
<title>Report&#45;&gt;IndexConstraints</title>
<path fill="none" stroke="black" d="M62.49,-485.25C75.33,-480.25 90.9,-474.2 104.89,-468.78 111.81,-466.1 119.11,-463.27 126.29,-460.49"/>
<polygon fill="black" stroke="black" points="127.88,-463.63 135.94,-456.76 125.35,-457.1 127.88,-463.63"/>
</g>
<!-- DataFormat -->
<g id="node20" class="node">
<title>DataFormat</title>
<ellipse fill="none" stroke="black" cx="175.74" cy="-495.78" rx="53.09" ry="18"/>
<text text-anchor="middle" x="175.74" y="-492.08" font-family="Times,serif" font-size="14.00">DataFormat</text>
</g>
<!-- Report&#45;&gt;DataFormat -->
<g id="edge23" class="edge">
<title>Report&#45;&gt;DataFormat</title>
<path fill="none" stroke="blue" d="M69.17,-495.78C82.12,-495.78 97.35,-495.78 112.16,-495.78"/>
<polygon fill="blue" stroke="blue" points="112.31,-499.28 122.31,-495.78 112.31,-492.28 112.31,-499.28"/>
</g>
<!-- DataFormat&#45;&gt;ObservedValue(args) -->
<g id="edge31" class="edge">
<title>DataFormat&#45;&gt;ObservedValue(args)</title>
<path fill="none" stroke="black" d="M217.96,-484.71C243.25,-477.92 276.11,-469.1 304.51,-461.48"/>
<polygon fill="black" stroke="black" points="305.6,-464.81 314.36,-458.83 303.79,-458.05 305.6,-464.81"/>
</g>
<!-- DataFormat&#45;&gt;Layout(layout) -->
<g id="edge30" class="edge">
<title>DataFormat&#45;&gt;Layout(layout)</title>
<path fill="none" stroke="black" d="M199.28,-512.02C253.86,-549.68 398.59,-639.78 534.01,-639.78 534.01,-639.78 534.01,-639.78 711.1,-639.78 904.24,-639.78 988.59,-686.54 1139.31,-565.78 1230.32,-492.86 1257.55,-344.71 1265.16,-282.4"/>
<polygon fill="black" stroke="black" points="1268.67,-282.48 1266.33,-272.14 1261.72,-281.68 1268.67,-282.48"/>
</g>
<!-- DataFormat&#45;&gt;IndexRanks -->
<g id="edge29" class="edge">
<title>DataFormat&#45;&gt;IndexRanks</title>
<path fill="none" stroke="black" d="M227.94,-491.91C283.42,-487.57 374.51,-480.07 452.87,-471.78 520.99,-464.56 599.09,-454.56 650.97,-447.67"/>
<polygon fill="black" stroke="black" points="651.54,-451.12 660.99,-446.33 650.62,-444.18 651.54,-451.12"/>
</g>
</g>
</svg>
