<?xml version="1.0" encoding="UTF-8" standalone="no"?>
<!DOCTYPE svg PUBLIC "-//W3C//DTD SVG 1.1//EN"
 "http://www.w3.org/Graphics/SVG/1.1/DTD/svg11.dtd">
<!-- Generated by graphviz version 2.43.0 (0)
 -->
<!-- Title: %3 Pages: 1 -->
<svg width="771pt" height="386pt"
 viewBox="0.00 0.00 770.75 386.00" xmlns="http://www.w3.org/2000/svg" xmlns:xlink="http://www.w3.org/1999/xlink">
<g id="graph0" class="graph" transform="scale(1 1) rotate(0) translate(4 382)">
<title>%3</title>
<polygon fill="white" stroke="transparent" points="-4,4 -4,-382 766.75,-382 766.75,4 -4,4"/>
<!-- Schema -->
<g id="node1" class="node">
<title>Schema</title>
<ellipse fill="none" stroke="black" cx="723.75" cy="-237" rx="38.99" ry="18"/>
<text text-anchor="middle" x="723.75" y="-233.3" font-family="Times,serif" font-size="14.00">Schema</text>
</g>
<!-- ShapeMap -->
<g id="node2" class="node">
<title>ShapeMap</title>
<ellipse fill="none" stroke="black" cx="174.44" cy="-180" rx="48.99" ry="18"/>
<text text-anchor="middle" x="174.44" y="-176.3" font-family="Times,serif" font-size="14.00">ShapeMap</text>
</g>
<!-- TensorShape(indices) -->
<g id="node3" class="node">
<title>TensorShape(indices)</title>
<ellipse fill="none" stroke="black" cx="351.48" cy="-180" rx="87.18" ry="18"/>
<text text-anchor="middle" x="351.48" y="-176.3" font-family="Times,serif" font-size="14.00">TensorShape(indices)</text>
</g>
<!-- ShapeMap&#45;&gt;TensorShape(indices) -->
<g id="edge1" class="edge">
<title>ShapeMap&#45;&gt;TensorShape(indices)</title>
<path fill="none" stroke="purple" d="M223.27,-180C232.93,-180 243.42,-180 254.08,-180"/>
<polygon fill="purple" stroke="purple" points="254.33,-183.5 264.33,-180 254.33,-176.5 254.33,-183.5"/>
</g>
<!-- TensorShape(updates) -->
<g id="node4" class="node">
<title>TensorShape(updates)</title>
<ellipse fill="none" stroke="black" cx="351.48" cy="-126" rx="89.08" ry="18"/>
<text text-anchor="middle" x="351.48" y="-122.3" font-family="Times,serif" font-size="14.00">TensorShape(updates)</text>
</g>
<!-- ShapeMap&#45;&gt;TensorShape(updates) -->
<g id="edge2" class="edge">
<title>ShapeMap&#45;&gt;TensorShape(updates)</title>
<path fill="none" stroke="purple" d="M211.65,-168.11C226.37,-163.33 243.57,-157.83 259.18,-153 269.12,-149.93 279.68,-146.74 289.96,-143.67"/>
<polygon fill="purple" stroke="purple" points="291.12,-146.98 299.71,-140.78 289.12,-140.27 291.12,-146.98"/>
</g>
<!-- ShapeList(shape) -->
<g id="node5" class="node">
<title>ShapeList(shape)</title>
<ellipse fill="none" stroke="black" cx="564.26" cy="-214" rx="71.49" ry="18"/>
<text text-anchor="middle" x="564.26" y="-210.3" font-family="Times,serif" font-size="14.00">ShapeList(shape)</text>
</g>
<!-- ShapeMap&#45;&gt;ShapeList(shape) -->
<g id="edge3" class="edge">
<title>ShapeMap&#45;&gt;ShapeList(shape)</title>
<path fill="none" stroke="purple" d="M208.3,-193.03C223.53,-198.43 242.01,-204.1 259.18,-207 334.89,-219.8 422.69,-220.32 484.43,-218.37"/>
<polygon fill="purple" stroke="purple" points="484.62,-221.87 494.49,-218.03 484.38,-214.87 484.62,-221.87"/>
</g>
<!-- DataTensor(indices) -->
<g id="node14" class="node">
<title>DataTensor(indices)</title>
<ellipse fill="none" stroke="black" cx="564.26" cy="-160" rx="82.59" ry="18"/>
<text text-anchor="middle" x="564.26" y="-156.3" font-family="Times,serif" font-size="14.00">DataTensor(indices)</text>
</g>
<!-- TensorShape(indices)&#45;&gt;DataTensor(indices) -->
<g id="edge14" class="edge">
<title>TensorShape(indices)&#45;&gt;DataTensor(indices)</title>
<path fill="none" stroke="black" d="M430.96,-172.55C446.33,-171.1 462.51,-169.56 478.07,-168.08"/>
<polygon fill="black" stroke="black" points="478.58,-171.55 488.2,-167.12 477.92,-164.58 478.58,-171.55"/>
</g>
<!-- DataTensor(updates) -->
<g id="node15" class="node">
<title>DataTensor(updates)</title>
<ellipse fill="none" stroke="black" cx="564.26" cy="-106" rx="84.49" ry="18"/>
<text text-anchor="middle" x="564.26" y="-102.3" font-family="Times,serif" font-size="14.00">DataTensor(updates)</text>
</g>
<!-- TensorShape(updates)&#45;&gt;DataTensor(updates) -->
<g id="edge17" class="edge">
<title>TensorShape(updates)&#45;&gt;DataTensor(updates)</title>
<path fill="none" stroke="black" d="M432.46,-118.41C446.94,-117.04 462.1,-115.6 476.75,-114.21"/>
<polygon fill="black" stroke="black" points="477.18,-117.68 486.8,-113.25 476.52,-110.71 477.18,-117.68"/>
</g>
<!-- ShapeList(shape)&#45;&gt;Schema -->
<g id="edge19" class="edge">
<title>ShapeList(shape)&#45;&gt;Schema</title>
<path fill="none" stroke="black" d="M626.6,-222.96C643.18,-225.38 660.84,-227.96 676.44,-230.24"/>
<polygon fill="black" stroke="black" points="675.97,-233.7 686.37,-231.69 676.98,-226.78 675.97,-233.7"/>
</g>
<!-- DTypes -->
<g id="node6" class="node">
<title>DTypes</title>
<ellipse fill="none" stroke="black" cx="174.44" cy="-72" rx="38.19" ry="18"/>
<text text-anchor="middle" x="174.44" y="-68.3" font-family="Times,serif" font-size="14.00">DTypes</text>
</g>
<!-- TensorDType(indices) -->
<g id="node7" class="node">
<title>TensorDType(indices)</title>
<ellipse fill="none" stroke="black" cx="351.48" cy="-72" rx="90.18" ry="18"/>
<text text-anchor="middle" x="351.48" y="-68.3" font-family="Times,serif" font-size="14.00">TensorDType(indices)</text>
</g>
<!-- DTypes&#45;&gt;TensorDType(indices) -->
<g id="edge4" class="edge">
<title>DTypes&#45;&gt;TensorDType(indices)</title>
<path fill="none" stroke="purple" d="M212.99,-72C224.27,-72 237.23,-72 250.58,-72"/>
<polygon fill="purple" stroke="purple" points="250.84,-75.5 260.84,-72 250.84,-68.5 250.84,-75.5"/>
</g>
<!-- TensorDType(updates) -->
<g id="node8" class="node">
<title>TensorDType(updates)</title>
<ellipse fill="none" stroke="black" cx="351.48" cy="-18" rx="92.08" ry="18"/>
<text text-anchor="middle" x="351.48" y="-14.3" font-family="Times,serif" font-size="14.00">TensorDType(updates)</text>
</g>
<!-- DTypes&#45;&gt;TensorDType(updates) -->
<g id="edge5" class="edge">
<title>DTypes&#45;&gt;TensorDType(updates)</title>
<path fill="none" stroke="purple" d="M206.4,-61.82C222.17,-56.68 241.67,-50.41 259.18,-45 269,-41.97 279.42,-38.82 289.59,-35.78"/>
<polygon fill="purple" stroke="purple" points="290.64,-39.12 299.23,-32.92 288.65,-32.41 290.64,-39.12"/>
</g>
<!-- TensorDType(indices)&#45;&gt;DataTensor(indices) -->
<g id="edge15" class="edge">
<title>TensorDType(indices)&#45;&gt;DataTensor(indices)</title>
<path fill="none" stroke="black" d="M412.59,-85.39C423.34,-88.99 434.17,-93.48 443.77,-99 462.84,-109.98 460.83,-121.78 479.77,-133 485.98,-136.68 492.76,-139.93 499.69,-142.77"/>
<polygon fill="black" stroke="black" points="498.58,-146.1 509.17,-146.4 501.08,-139.56 498.58,-146.1"/>
</g>
<!-- TensorDType(updates)&#45;&gt;DataTensor(updates) -->
<g id="edge18" class="edge">
<title>TensorDType(updates)&#45;&gt;DataTensor(updates)</title>
<path fill="none" stroke="black" d="M407.1,-32.37C419.32,-36.07 432.1,-40.34 443.77,-45 471.84,-56.21 502.16,-71.73 525.23,-84.31"/>
<polygon fill="black" stroke="black" points="523.57,-87.39 534.01,-89.14 526.94,-81.25 523.57,-87.39"/>
</g>
<!-- ArgMap -->
<g id="node9" class="node">
<title>ArgMap</title>
<ellipse fill="none" stroke="black" cx="174.44" cy="-276" rx="40.89" ry="18"/>
<text text-anchor="middle" x="174.44" y="-272.3" font-family="Times,serif" font-size="14.00">ArgMap</text>
</g>
<!-- DataFormat -->
<g id="node10" class="node">
<title>DataFormat</title>
<ellipse fill="none" stroke="black" cx="564.26" cy="-360" rx="53.09" ry="18"/>
<text text-anchor="middle" x="564.26" y="-356.3" font-family="Times,serif" font-size="14.00">DataFormat</text>
</g>
<!-- ArgMap&#45;&gt;DataFormat -->
<g id="edge6" class="edge">
<title>ArgMap&#45;&gt;DataFormat</title>
<path fill="none" stroke="blue" d="M203.19,-289.09C219.24,-296.19 240,-304.6 259.18,-310 341.99,-333.3 440.74,-347.06 502.74,-354.07"/>
<polygon fill="blue" stroke="blue" points="502.41,-357.55 512.74,-355.18 503.19,-350.6 502.41,-357.55"/>
</g>
<!-- DataFormat&#45;&gt;Schema -->
<g id="edge20" class="edge">
<title>DataFormat&#45;&gt;Schema</title>
<path fill="none" stroke="black" d="M610.48,-350.76C623.59,-346.7 637.42,-340.98 648.75,-333 674.65,-314.77 695.67,-284.79 708.6,-263.18"/>
<polygon fill="black" stroke="black" points="711.65,-264.9 713.64,-254.49 705.59,-261.39 711.65,-264.9"/>
</g>
<!-- Inventory -->
<g id="node11" class="node">
<title>Inventory</title>
<ellipse fill="none" stroke="black" cx="44.85" cy="-180" rx="44.69" ry="18"/>
<text text-anchor="middle" x="44.85" y="-176.3" font-family="Times,serif" font-size="14.00">Inventory</text>
</g>
<!-- Inventory&#45;&gt;ShapeMap -->
<g id="edge8" class="edge">
<title>Inventory&#45;&gt;ShapeMap</title>
<path fill="none" stroke="black" d="M89.76,-180C98.05,-180 106.83,-180 115.48,-180"/>
<polygon fill="black" stroke="black" points="115.52,-183.5 125.52,-180 115.52,-176.5 115.52,-183.5"/>
</g>
<!-- Inventory&#45;&gt;DTypes -->
<g id="edge7" class="edge">
<title>Inventory&#45;&gt;DTypes</title>
<path fill="none" stroke="black" d="M64.95,-163.83C86.81,-145.33 122.74,-114.91 147.21,-94.2"/>
<polygon fill="black" stroke="black" points="149.66,-96.71 155.03,-87.58 145.14,-91.37 149.66,-96.71"/>
</g>
<!-- Inventory&#45;&gt;ArgMap -->
<g id="edge9" class="edge">
<title>Inventory&#45;&gt;ArgMap</title>
<path fill="none" stroke="black" d="M66.92,-195.85C88.1,-211.79 120.91,-236.48 144.52,-254.24"/>
<polygon fill="black" stroke="black" points="142.67,-257.23 152.76,-260.44 146.87,-251.63 142.67,-257.23"/>
</g>
<!-- GetReturnTensors -->
<g id="node12" class="node">
<title>GetReturnTensors</title>
<ellipse fill="none" stroke="black" cx="564.26" cy="-306" rx="75.29" ry="18"/>
<text text-anchor="middle" x="564.26" y="-302.3" font-family="Times,serif" font-size="14.00">GetReturnTensors</text>
</g>
<!-- GetReturnTensors&#45;&gt;Schema -->
<g id="edge10" class="edge">
<title>GetReturnTensors&#45;&gt;Schema</title>
<path fill="none" stroke="black" d="M606.78,-291C620.28,-285.88 635.26,-279.94 648.75,-274 661.85,-268.23 675.95,-261.35 688.3,-255.1"/>
<polygon fill="black" stroke="black" points="690.05,-258.14 697.36,-250.47 686.86,-251.9 690.05,-258.14"/>
</g>
<!-- ValidReturnShapes -->
<g id="node13" class="node">
<title>ValidReturnShapes</title>
<ellipse fill="none" stroke="black" cx="351.48" cy="-283" rx="77.99" ry="18"/>
<text text-anchor="middle" x="351.48" y="-279.3" font-family="Times,serif" font-size="14.00">ValidReturnShapes</text>
</g>
<!-- ValidReturnShapes&#45;&gt;Schema -->
<g id="edge11" class="edge">
<title>ValidReturnShapes&#45;&gt;Schema</title>
<path fill="none" stroke="black" d="M420.39,-274.56C494.35,-265.37 610.73,-250.92 675.41,-242.88"/>
<polygon fill="black" stroke="black" points="676.22,-246.31 685.71,-241.6 675.36,-239.36 676.22,-246.31"/>
</g>
<!-- ValidReturnShapes&#45;&gt;GetReturnTensors -->
<g id="edge12" class="edge">
<title>ValidReturnShapes&#45;&gt;GetReturnTensors</title>
<path fill="none" stroke="black" d="M422.37,-290.63C442.56,-292.83 464.71,-295.25 485.35,-297.5"/>
<polygon fill="black" stroke="black" points="485.02,-300.98 495.34,-298.59 485.78,-294.03 485.02,-300.98"/>
</g>
<!-- DataTensor(indices)&#45;&gt;Schema -->
<g id="edge13" class="edge">
<title>DataTensor(indices)&#45;&gt;Schema</title>
<path fill="none" stroke="black" d="M616.49,-174.05C627.37,-177.72 638.62,-182.06 648.75,-187 664.87,-194.86 681.53,-205.82 694.95,-215.48"/>
<polygon fill="black" stroke="black" points="693.13,-218.49 703.26,-221.59 697.28,-212.85 693.13,-218.49"/>
</g>
<!-- DataTensor(updates)&#45;&gt;Schema -->
<g id="edge16" class="edge">
<title>DataTensor(updates)&#45;&gt;Schema</title>
<path fill="none" stroke="black" d="M622.44,-119.05C631.74,-122.67 640.89,-127.24 648.75,-133 676.24,-153.15 697.41,-186.63 709.93,-210.15"/>
<polygon fill="black" stroke="black" points="706.92,-211.95 714.61,-219.24 713.14,-208.75 706.92,-211.95"/>
</g>
</g>
</svg>
