<svg xmlns="http://www.w3.org/2000/svg" xmlns:xlink="http://www.w3.org/1999/xlink" width="500" zoomAndPan="magnify" viewBox="0 0 375 374.999991" height="500" preserveAspectRatio="xMidYMid meet" version="1.0"><defs><clipPath id="c6d4175fbb"><path d="M 375 187.5 C 375 190.570312 374.925781 193.636719 374.773438 196.699219 C 374.625 199.765625 374.398438 202.824219 374.097656 205.878906 C 373.796875 208.933594 373.421875 211.976562 372.96875 215.011719 C 372.519531 218.046875 371.996094 221.070312 371.398438 224.078125 C 370.796875 227.089844 370.125 230.082031 369.378906 233.058594 C 368.636719 236.035156 367.816406 238.992188 366.925781 241.929688 C 366.035156 244.863281 365.074219 247.777344 364.039062 250.667969 C 363.003906 253.554688 361.902344 256.417969 360.726562 259.253906 C 359.554688 262.089844 358.308594 264.890625 356.996094 267.667969 C 355.6875 270.441406 354.308594 273.179688 352.859375 275.886719 C 351.414062 278.59375 349.902344 281.261719 348.324219 283.894531 C 346.746094 286.527344 345.105469 289.117188 343.402344 291.667969 C 341.695312 294.222656 339.929688 296.730469 338.101562 299.195312 C 336.273438 301.660156 334.386719 304.078125 332.441406 306.449219 C 330.492188 308.820312 328.488281 311.144531 326.429688 313.417969 C 324.367188 315.691406 322.253906 317.914062 320.082031 320.082031 C 317.914062 322.253906 315.691406 324.367188 313.417969 326.429688 C 311.144531 328.488281 308.820312 330.492188 306.449219 332.4375 C 304.078125 334.386719 301.660156 336.273438 299.195312 338.101562 C 296.730469 339.929688 294.222656 341.695312 291.667969 343.402344 C 289.117188 345.105469 286.527344 346.746094 283.894531 348.324219 C 281.261719 349.902344 278.59375 351.414062 275.886719 352.859375 C 273.179688 354.308594 270.441406 355.6875 267.667969 356.996094 C 264.894531 358.308594 262.089844 359.554688 259.253906 360.726562 C 256.417969 361.902344 253.554688 363.003906 250.667969 364.039062 C 247.777344 365.074219 244.863281 366.035156 241.929688 366.925781 C 238.992188 367.816406 236.035156 368.636719 233.058594 369.378906 C 230.082031 370.125 227.089844 370.796875 224.078125 371.398438 C 221.070312 371.996094 218.046875 372.519531 215.011719 372.96875 C 211.976562 373.421875 208.933594 373.796875 205.878906 374.097656 C 202.824219 374.398438 199.765625 374.625 196.699219 374.773438 C 193.636719 374.925781 190.570312 375 187.5 375 C 184.429688 375 181.363281 374.925781 178.300781 374.773438 C 175.234375 374.625 172.175781 374.398438 169.121094 374.097656 C 166.066406 373.796875 163.023438 373.421875 159.988281 372.96875 C 156.953125 372.519531 153.929688 371.996094 150.921875 371.398438 C 147.910156 370.796875 144.917969 370.125 141.941406 369.378906 C 138.964844 368.636719 136.007812 367.816406 133.070312 366.925781 C 130.136719 366.035156 127.222656 365.074219 124.332031 364.039062 C 121.445312 363.003906 118.582031 361.902344 115.746094 360.726562 C 112.910156 359.554688 110.105469 358.308594 107.332031 356.996094 C 104.558594 355.6875 101.820312 354.308594 99.113281 352.859375 C 96.40625 351.414062 93.738281 349.902344 91.105469 348.324219 C 88.472656 346.746094 85.882812 345.105469 83.332031 343.402344 C 80.777344 341.695312 78.269531 339.929688 75.804688 338.101562 C 73.339844 336.273438 70.921875 334.386719 68.550781 332.4375 C 66.179688 330.492188 63.855469 328.488281 61.582031 326.429688 C 59.308594 324.367188 57.085938 322.253906 54.917969 320.082031 C 52.746094 317.914062 50.632812 315.691406 48.570312 313.417969 C 46.511719 311.144531 44.507812 308.820312 42.558594 306.449219 C 40.613281 304.078125 38.726562 301.660156 36.898438 299.195312 C 35.070312 296.730469 33.304688 294.222656 31.597656 291.667969 C 29.894531 289.117188 28.253906 286.527344 26.675781 283.894531 C 25.097656 281.261719 23.585938 278.59375 22.140625 275.886719 C 20.691406 273.179688 19.3125 270.441406 18.003906 267.667969 C 16.691406 264.890625 15.445312 262.089844 14.273438 259.253906 C 13.097656 256.417969 11.996094 253.554688 10.960938 250.667969 C 9.925781 247.777344 8.964844 244.863281 8.074219 241.929688 C 7.183594 238.992188 6.363281 236.035156 5.621094 233.058594 C 4.875 230.082031 4.203125 227.089844 3.601562 224.078125 C 3.003906 221.070312 2.480469 218.046875 2.03125 215.011719 C 1.578125 211.976562 1.203125 208.933594 0.902344 205.878906 C 0.601562 202.824219 0.375 199.765625 0.226562 196.699219 C 0.0742188 193.636719 0 190.570312 0 187.5 C 0 184.429688 0.0742188 181.363281 0.226562 178.300781 C 0.375 175.234375 0.601562 172.175781 0.902344 169.121094 C 1.203125 166.066406 1.578125 163.023438 2.03125 159.988281 C 2.480469 156.953125 3.003906 153.929688 3.601562 150.921875 C 4.203125 147.910156 4.875 144.917969 5.621094 141.941406 C 6.363281 138.964844 7.183594 136.007812 8.074219 133.070312 C 8.964844 130.136719 9.925781 127.222656 10.960938 124.332031 C 11.996094 121.445312 13.097656 118.582031 14.273438 115.746094 C 15.445312 112.910156 16.691406 110.105469 18.003906 107.332031 C 19.3125 104.558594 20.691406 101.820312 22.140625 99.113281 C 23.585938 96.40625 25.097656 93.738281 26.675781 91.105469 C 28.253906 88.472656 29.894531 85.882812 31.597656 83.332031 C 33.304688 80.777344 35.070312 78.269531 36.898438 75.804688 C 38.726562 73.339844 40.613281 70.921875 42.558594 68.550781 C 44.507812 66.179688 46.511719 63.855469 48.570312 61.582031 C 50.632812 59.308594 52.746094 57.085938 54.917969 54.917969 C 57.085938 52.746094 59.308594 50.632812 61.582031 48.570312 C 63.855469 46.511719 66.179688 44.507812 68.550781 42.558594 C 70.921875 40.613281 73.339844 38.726562 75.804688 36.898438 C 78.269531 35.070312 80.777344 33.304688 83.332031 31.597656 C 85.882812 29.894531 88.472656 28.253906 91.105469 26.675781 C 93.738281 25.097656 96.40625 23.585938 99.113281 22.140625 C 101.820312 20.691406 104.558594 19.3125 107.332031 18.003906 C 110.105469 16.691406 112.910156 15.445312 115.746094 14.273438 C 118.582031 13.097656 121.445312 11.996094 124.332031 10.960938 C 127.222656 9.925781 130.136719 8.964844 133.070312 8.074219 C 136.007812 7.183594 138.964844 6.363281 141.941406 5.617188 C 144.917969 4.875 147.910156 4.203125 150.921875 3.601562 C 153.929688 3.003906 156.953125 2.480469 159.988281 2.03125 C 163.023438 1.578125 166.066406 1.203125 169.121094 0.902344 C 172.175781 0.601562 175.234375 0.375 178.300781 0.226562 C 181.363281 0.0742188 184.429688 0 187.5 0 C 190.570312 0 193.636719 0.0742188 196.699219 0.226562 C 199.765625 0.375 202.824219 0.601562 205.878906 0.902344 C 208.933594 1.203125 211.976562 1.578125 215.011719 2.03125 C 218.046875 2.480469 221.070312 3.003906 224.078125 3.601562 C 227.089844 4.203125 230.082031 4.875 233.058594 5.617188 C 236.035156 6.363281 238.992188 7.183594 241.929688 8.074219 C 244.863281 8.964844 247.777344 9.925781 250.667969 10.960938 C 253.554688 11.996094 256.417969 13.097656 259.253906 14.273438 C 262.089844 15.445312 264.894531 16.691406 267.667969 18.003906 C 270.441406 19.3125 273.179688 20.691406 275.886719 22.140625 C 278.59375 23.585938 281.261719 25.097656 283.894531 26.675781 C 286.527344 28.253906 289.117188 29.894531 291.667969 31.597656 C 294.222656 33.304688 296.730469 35.070312 299.195312 36.898438 C 301.660156 38.726562 304.078125 40.613281 306.449219 42.558594 C 308.820312 44.507812 311.144531 46.511719 313.417969 48.570312 C 315.691406 50.632812 317.914062 52.746094 320.082031 54.917969 C 322.253906 57.085938 324.367188 59.308594 326.429688 61.582031 C 328.488281 63.855469 330.492188 66.179688 332.441406 68.550781 C 334.386719 70.921875 336.273438 73.339844 338.101562 75.804688 C 339.929688 78.269531 341.695312 80.777344 343.402344 83.332031 C 345.105469 85.882812 346.746094 88.472656 348.324219 91.105469 C 349.902344 93.738281 351.414062 96.40625 352.859375 99.113281 C 354.308594 101.820312 355.6875 104.558594 356.996094 107.332031 C 358.308594 110.105469 359.554688 112.910156 360.726562 115.746094 C 361.902344 118.582031 363.003906 121.445312 364.039062 124.332031 C 365.074219 127.222656 366.035156 130.136719 366.925781 133.070312 C 367.816406 136.007812 368.636719 138.964844 369.378906 141.941406 C 370.125 144.917969 370.796875 147.910156 371.398438 150.921875 C 371.996094 153.929688 372.519531 156.953125 372.96875 159.988281 C 373.421875 163.023438 373.796875 166.066406 374.097656 169.121094 C 374.398438 172.175781 374.625 175.234375 374.773438 178.300781 C 374.925781 181.363281 375 184.429688 375 187.5 Z M 375 187.5 " clip-rule="nonzero"/></clipPath><linearGradient x1="21.499999" gradientTransform="matrix(0.797872, 0, 0, 0.797872, -17.15425, -12.367)" y1="250.5" x2="491.499968" gradientUnits="userSpaceOnUse" y2="250.5" id="75ed8cc0be"><stop stop-opacity="1" stop-color="rgb(62.399292%, 16.099548%, 62.399292%)" offset="0"/><stop stop-opacity="1" stop-color="rgb(62.399292%, 16.099548%, 62.399292%)" offset="0.0625"/><stop stop-opacity="1" stop-color="rgb(62.399292%, 16.099548%, 62.399292%)" offset="0.09375"/><stop stop-opacity="1" stop-color="rgb(62.399292%, 16.148376%, 62.521362%)" offset="0.109375"/><stop stop-opacity="1" stop-color="rgb(62.399292%, 16.242981%, 62.756348%)" offset="0.117188"/><stop stop-opacity="1" stop-color="rgb(62.399292%, 16.334534%, 62.983704%)" offset="0.125"/><stop stop-opacity="1" stop-color="rgb(62.399292%, 16.426086%, 63.21106%)" offset="0.132812"/><stop stop-opacity="1" stop-color="rgb(62.399292%, 16.516113%, 63.438416%)" offset="0.140625"/><stop stop-opacity="1" stop-color="rgb(62.399292%, 16.607666%, 63.665771%)" offset="0.148438"/><stop stop-opacity="1" stop-color="rgb(62.399292%, 16.699219%, 63.893127%)" offset="0.15625"/><stop stop-opacity="1" stop-color="rgb(62.399292%, 16.790771%, 64.120483%)" offset="0.164062"/><stop stop-opacity="1" stop-color="rgb(62.399292%, 16.882324%, 64.347839%)" offset="0.171875"/><stop stop-opacity="1" stop-color="rgb(62.399292%, 16.973877%, 64.575195%)" offset="0.179688"/><stop stop-opacity="1" stop-color="rgb(62.399292%, 17.06543%, 64.802551%)" offset="0.1875"/><stop stop-opacity="1" stop-color="rgb(62.399292%, 17.155457%, 65.029907%)" offset="0.195312"/><stop stop-opacity="1" stop-color="rgb(62.399292%, 17.247009%, 65.257263%)" offset="0.203125"/><stop stop-opacity="1" stop-color="rgb(62.399292%, 17.338562%, 65.484619%)" offset="0.210938"/><stop stop-opacity="1" stop-color="rgb(62.399292%, 17.430115%, 65.711975%)" offset="0.21875"/><stop stop-opacity="1" stop-color="rgb(62.399292%, 17.521667%, 65.939331%)" offset="0.226562"/><stop stop-opacity="1" stop-color="rgb(62.399292%, 17.61322%, 66.166687%)" offset="0.234375"/><stop stop-opacity="1" stop-color="rgb(62.399292%, 17.704773%, 66.394043%)" offset="0.242188"/><stop stop-opacity="1" stop-color="rgb(62.399292%, 17.7948%, 66.621399%)" offset="0.25"/><stop stop-opacity="1" stop-color="rgb(62.399292%, 17.886353%, 66.848755%)" offset="0.257812"/><stop stop-opacity="1" stop-color="rgb(62.399292%, 17.977905%, 67.076111%)" offset="0.265625"/><stop stop-opacity="1" stop-color="rgb(62.399292%, 18.069458%, 67.303467%)" offset="0.273438"/><stop stop-opacity="1" stop-color="rgb(62.399292%, 18.161011%, 67.530823%)" offset="0.28125"/><stop stop-opacity="1" stop-color="rgb(62.399292%, 18.252563%, 67.758179%)" offset="0.289063"/><stop stop-opacity="1" stop-color="rgb(62.399292%, 18.344116%, 67.985535%)" offset="0.296875"/><stop stop-opacity="1" stop-color="rgb(62.399292%, 18.434143%, 68.212891%)" offset="0.304688"/><stop stop-opacity="1" stop-color="rgb(62.399292%, 18.525696%, 68.440247%)" offset="0.3125"/><stop stop-opacity="1" stop-color="rgb(62.399292%, 18.617249%, 68.667603%)" offset="0.320313"/><stop stop-opacity="1" stop-color="rgb(62.399292%, 18.708801%, 68.894958%)" offset="0.328125"/><stop stop-opacity="1" stop-color="rgb(62.399292%, 18.800354%, 69.122314%)" offset="0.335938"/><stop stop-opacity="1" stop-color="rgb(62.399292%, 18.891907%, 69.34967%)" offset="0.34375"/><stop stop-opacity="1" stop-color="rgb(62.399292%, 18.983459%, 69.577026%)" offset="0.351563"/><stop stop-opacity="1" stop-color="rgb(62.399292%, 19.075012%, 69.804382%)" offset="0.359375"/><stop stop-opacity="1" stop-color="rgb(62.399292%, 19.165039%, 70.031738%)" offset="0.367188"/><stop stop-opacity="1" stop-color="rgb(62.399292%, 19.256592%, 70.259094%)" offset="0.375"/><stop stop-opacity="1" stop-color="rgb(62.399292%, 19.348145%, 70.48645%)" offset="0.382813"/><stop stop-opacity="1" stop-color="rgb(62.399292%, 19.439697%, 70.713806%)" offset="0.390625"/><stop stop-opacity="1" stop-color="rgb(62.399292%, 19.53125%, 70.941162%)" offset="0.398438"/><stop stop-opacity="1" stop-color="rgb(62.399292%, 19.622803%, 71.168518%)" offset="0.40625"/><stop stop-opacity="1" stop-color="rgb(62.399292%, 19.714355%, 71.395874%)" offset="0.414063"/><stop stop-opacity="1" stop-color="rgb(62.399292%, 19.804382%, 71.62323%)" offset="0.421875"/><stop stop-opacity="1" stop-color="rgb(62.399292%, 19.895935%, 71.850586%)" offset="0.429688"/><stop stop-opacity="1" stop-color="rgb(62.399292%, 19.987488%, 72.077942%)" offset="0.4375"/><stop stop-opacity="1" stop-color="rgb(62.399292%, 20.079041%, 72.305298%)" offset="0.445313"/><stop stop-opacity="1" stop-color="rgb(62.399292%, 20.170593%, 72.532654%)" offset="0.453125"/><stop stop-opacity="1" stop-color="rgb(62.399292%, 20.262146%, 72.76001%)" offset="0.460938"/><stop stop-opacity="1" stop-color="rgb(62.399292%, 20.353699%, 72.987366%)" offset="0.46875"/><stop stop-opacity="1" stop-color="rgb(62.399292%, 20.443726%, 73.214722%)" offset="0.476563"/><stop stop-opacity="1" stop-color="rgb(62.399292%, 20.535278%, 73.442078%)" offset="0.484375"/><stop stop-opacity="1" stop-color="rgb(62.399292%, 20.626831%, 73.669434%)" offset="0.492188"/><stop stop-opacity="1" stop-color="rgb(62.399292%, 20.718384%, 73.89679%)" offset="0.5"/><stop stop-opacity="1" stop-color="rgb(62.181091%, 20.751953%, 74.055481%)" offset="0.503906"/><stop stop-opacity="1" stop-color="rgb(61.964417%, 20.741272%, 74.099731%)" offset="0.507812"/><stop stop-opacity="1" stop-color="rgb(61.610413%, 20.69397%, 74.099731%)" offset="0.511719"/><stop stop-opacity="1" stop-color="rgb(61.257935%, 20.646667%, 74.099731%)" offset="0.515625"/><stop stop-opacity="1" stop-color="rgb(60.903931%, 20.599365%, 74.099731%)" offset="0.519531"/><stop stop-opacity="1" stop-color="rgb(60.551453%, 20.553589%, 74.099731%)" offset="0.523438"/><stop stop-opacity="1" stop-color="rgb(60.198975%, 20.506287%, 74.099731%)" offset="0.527344"/><stop stop-opacity="1" stop-color="rgb(59.846497%, 20.458984%, 74.099731%)" offset="0.53125"/><stop stop-opacity="1" stop-color="rgb(59.492493%, 20.411682%, 74.099731%)" offset="0.535156"/><stop stop-opacity="1" stop-color="rgb(59.140015%, 20.365906%, 74.099731%)" offset="0.539062"/><stop stop-opacity="1" stop-color="rgb(58.786011%, 20.318604%, 74.099731%)" offset="0.542969"/><stop stop-opacity="1" stop-color="rgb(58.433533%, 20.271301%, 74.099731%)" offset="0.546875"/><stop stop-opacity="1" stop-color="rgb(58.081055%, 20.223999%, 74.099731%)" offset="0.550781"/><stop stop-opacity="1" stop-color="rgb(57.728577%, 20.178223%, 74.099731%)" offset="0.554688"/><stop stop-opacity="1" stop-color="rgb(57.374573%, 20.13092%, 74.099731%)" offset="0.558594"/><stop stop-opacity="1" stop-color="rgb(57.022095%, 20.083618%, 74.099731%)" offset="0.5625"/><stop stop-opacity="1" stop-color="rgb(56.668091%, 20.036316%, 74.099731%)" offset="0.566406"/><stop stop-opacity="1" stop-color="rgb(56.315613%, 19.989014%, 74.099731%)" offset="0.570312"/><stop stop-opacity="1" stop-color="rgb(55.961609%, 19.941711%, 74.099731%)" offset="0.574219"/><stop stop-opacity="1" stop-color="rgb(55.609131%, 19.895935%, 74.099731%)" offset="0.578125"/><stop stop-opacity="1" stop-color="rgb(55.256653%, 19.848633%, 74.099731%)" offset="0.582031"/><stop stop-opacity="1" stop-color="rgb(54.904175%, 19.801331%, 74.099731%)" offset="0.585938"/><stop stop-opacity="1" stop-color="rgb(54.550171%, 19.754028%, 74.099731%)" offset="0.589844"/><stop stop-opacity="1" stop-color="rgb(54.197693%, 19.708252%, 74.099731%)" offset="0.59375"/><stop stop-opacity="1" stop-color="rgb(53.843689%, 19.66095%, 74.099731%)" offset="0.597656"/><stop stop-opacity="1" stop-color="rgb(53.491211%, 19.613647%, 74.099731%)" offset="0.601562"/><stop stop-opacity="1" stop-color="rgb(53.137207%, 19.566345%, 74.099731%)" offset="0.605469"/><stop stop-opacity="1" stop-color="rgb(52.784729%, 19.520569%, 74.099731%)" offset="0.609375"/><stop stop-opacity="1" stop-color="rgb(52.432251%, 19.473267%, 74.099731%)" offset="0.613281"/><stop stop-opacity="1" stop-color="rgb(52.079773%, 19.425964%, 74.099731%)" offset="0.617188"/><stop stop-opacity="1" stop-color="rgb(51.725769%, 19.378662%, 74.099731%)" offset="0.621094"/><stop stop-opacity="1" stop-color="rgb(51.373291%, 19.33136%, 74.099731%)" offset="0.625"/><stop stop-opacity="1" stop-color="rgb(51.019287%, 19.284058%, 74.099731%)" offset="0.628906"/><stop stop-opacity="1" stop-color="rgb(50.666809%, 19.238281%, 74.099731%)" offset="0.632812"/><stop stop-opacity="1" stop-color="rgb(50.312805%, 19.190979%, 74.099731%)" offset="0.636719"/><stop stop-opacity="1" stop-color="rgb(49.960327%, 19.143677%, 74.099731%)" offset="0.640625"/><stop stop-opacity="1" stop-color="rgb(49.607849%, 19.096375%, 74.099731%)" offset="0.644531"/><stop stop-opacity="1" stop-color="rgb(49.255371%, 19.050598%, 74.099731%)" offset="0.648438"/><stop stop-opacity="1" stop-color="rgb(48.901367%, 19.003296%, 74.099731%)" offset="0.652344"/><stop stop-opacity="1" stop-color="rgb(48.548889%, 18.955994%, 74.099731%)" offset="0.65625"/><stop stop-opacity="1" stop-color="rgb(48.194885%, 18.908691%, 74.099731%)" offset="0.660156"/><stop stop-opacity="1" stop-color="rgb(47.842407%, 18.861389%, 74.099731%)" offset="0.664062"/><stop stop-opacity="1" stop-color="rgb(47.488403%, 18.814087%, 74.099731%)" offset="0.667969"/><stop stop-opacity="1" stop-color="rgb(47.135925%, 18.768311%, 74.099731%)" offset="0.671875"/><stop stop-opacity="1" stop-color="rgb(46.783447%, 18.721008%, 74.099731%)" offset="0.675781"/><stop stop-opacity="1" stop-color="rgb(46.430969%, 18.673706%, 74.099731%)" offset="0.679688"/><stop stop-opacity="1" stop-color="rgb(46.076965%, 18.626404%, 74.099731%)" offset="0.683594"/><stop stop-opacity="1" stop-color="rgb(45.724487%, 18.580627%, 74.099731%)" offset="0.6875"/><stop stop-opacity="1" stop-color="rgb(45.370483%, 18.533325%, 74.099731%)" offset="0.691406"/><stop stop-opacity="1" stop-color="rgb(45.018005%, 18.486023%, 74.099731%)" offset="0.695312"/><stop stop-opacity="1" stop-color="rgb(44.665527%, 18.438721%, 74.099731%)" offset="0.699219"/><stop stop-opacity="1" stop-color="rgb(44.313049%, 18.392944%, 74.099731%)" offset="0.703125"/><stop stop-opacity="1" stop-color="rgb(43.959045%, 18.345642%, 74.099731%)" offset="0.707031"/><stop stop-opacity="1" stop-color="rgb(43.606567%, 18.29834%, 74.099731%)" offset="0.710938"/><stop stop-opacity="1" stop-color="rgb(43.252563%, 18.251038%, 74.099731%)" offset="0.714844"/><stop stop-opacity="1" stop-color="rgb(42.900085%, 18.203735%, 74.099731%)" offset="0.71875"/><stop stop-opacity="1" stop-color="rgb(42.546082%, 18.156433%, 74.099731%)" offset="0.722656"/><stop stop-opacity="1" stop-color="rgb(42.193604%, 18.110657%, 74.099731%)" offset="0.726562"/><stop stop-opacity="1" stop-color="rgb(41.841125%, 18.063354%, 74.099731%)" offset="0.730469"/><stop stop-opacity="1" stop-color="rgb(41.488647%, 18.016052%, 74.099731%)" offset="0.734375"/><stop stop-opacity="1" stop-color="rgb(41.134644%, 17.96875%, 74.099731%)" offset="0.738281"/><stop stop-opacity="1" stop-color="rgb(40.782166%, 17.922974%, 74.099731%)" offset="0.742188"/><stop stop-opacity="1" stop-color="rgb(40.428162%, 17.875671%, 74.099731%)" offset="0.746094"/><stop stop-opacity="1" stop-color="rgb(40.075684%, 17.828369%, 74.099731%)" offset="0.75"/><stop stop-opacity="1" stop-color="rgb(39.72168%, 17.781067%, 74.099731%)" offset="0.753906"/><stop stop-opacity="1" stop-color="rgb(39.369202%, 17.733765%, 74.099731%)" offset="0.757812"/><stop stop-opacity="1" stop-color="rgb(39.016724%, 17.686462%, 74.099731%)" offset="0.761719"/><stop stop-opacity="1" stop-color="rgb(38.664246%, 17.640686%, 74.099731%)" offset="0.765625"/><stop stop-opacity="1" stop-color="rgb(38.310242%, 17.593384%, 74.099731%)" offset="0.769531"/><stop stop-opacity="1" stop-color="rgb(37.957764%, 17.546082%, 74.099731%)" offset="0.773438"/><stop stop-opacity="1" stop-color="rgb(37.60376%, 17.498779%, 74.099731%)" offset="0.777344"/><stop stop-opacity="1" stop-color="rgb(37.251282%, 17.453003%, 74.099731%)" offset="0.78125"/><stop stop-opacity="1" stop-color="rgb(36.897278%, 17.405701%, 74.099731%)" offset="0.785156"/><stop stop-opacity="1" stop-color="rgb(36.5448%, 17.358398%, 74.099731%)" offset="0.789062"/><stop stop-opacity="1" stop-color="rgb(36.257935%, 17.179871%, 74.205017%)" offset="0.792969"/><stop stop-opacity="1" stop-color="rgb(35.971069%, 17.001343%, 74.311829%)" offset="0.796875"/><stop stop-opacity="1" stop-color="rgb(35.797119%, 16.595459%, 74.598694%)" offset="0.800781"/><stop stop-opacity="1" stop-color="rgb(35.624695%, 16.189575%, 74.887085%)" offset="0.804688"/><stop stop-opacity="1" stop-color="rgb(35.450745%, 15.783691%, 75.17395%)" offset="0.808594"/><stop stop-opacity="1" stop-color="rgb(35.27832%, 15.379333%, 75.462341%)" offset="0.8125"/><stop stop-opacity="1" stop-color="rgb(35.10437%, 14.97345%, 75.749207%)" offset="0.816406"/><stop stop-opacity="1" stop-color="rgb(34.931946%, 14.569092%, 76.037598%)" offset="0.820312"/><stop stop-opacity="1" stop-color="rgb(34.757996%, 14.163208%, 76.325989%)" offset="0.824219"/><stop stop-opacity="1" stop-color="rgb(34.585571%, 13.75885%, 76.61438%)" offset="0.828125"/><stop stop-opacity="1" stop-color="rgb(34.411621%, 13.352966%, 76.901245%)" offset="0.832031"/><stop stop-opacity="1" stop-color="rgb(34.239197%, 12.947083%, 77.189636%)" offset="0.835938"/><stop stop-opacity="1" stop-color="rgb(34.065247%, 12.541199%, 77.476501%)" offset="0.839844"/><stop stop-opacity="1" stop-color="rgb(33.892822%, 12.136841%, 77.764893%)" offset="0.84375"/><stop stop-opacity="1" stop-color="rgb(33.718872%, 11.730957%, 78.051758%)" offset="0.847656"/><stop stop-opacity="1" stop-color="rgb(33.546448%, 11.326599%, 78.340149%)" offset="0.851562"/><stop stop-opacity="1" stop-color="rgb(33.372498%, 10.920715%, 78.62854%)" offset="0.855469"/><stop stop-opacity="1" stop-color="rgb(33.198547%, 10.516357%, 78.916931%)" offset="0.859375"/><stop stop-opacity="1" stop-color="rgb(33.024597%, 10.110474%, 79.203796%)" offset="0.863281"/><stop stop-opacity="1" stop-color="rgb(32.852173%, 9.706116%, 79.492188%)" offset="0.867188"/><stop stop-opacity="1" stop-color="rgb(32.678223%, 9.300232%, 79.779053%)" offset="0.871094"/><stop stop-opacity="1" stop-color="rgb(32.505798%, 8.894348%, 80.067444%)" offset="0.875"/><stop stop-opacity="1" stop-color="rgb(32.331848%, 8.488464%, 80.354309%)" offset="0.878906"/><stop stop-opacity="1" stop-color="rgb(32.159424%, 8.084106%, 80.6427%)" offset="0.882812"/><stop stop-opacity="1" stop-color="rgb(31.985474%, 7.678223%, 80.931091%)" offset="0.886719"/><stop stop-opacity="1" stop-color="rgb(31.813049%, 7.273865%, 81.219482%)" offset="0.890625"/><stop stop-opacity="1" stop-color="rgb(31.639099%, 6.867981%, 81.506348%)" offset="0.894531"/><stop stop-opacity="1" stop-color="rgb(31.466675%, 6.463623%, 81.794739%)" offset="0.898438"/><stop stop-opacity="1" stop-color="rgb(31.292725%, 6.057739%, 82.081604%)" offset="0.902344"/><stop stop-opacity="1" stop-color="rgb(31.1203%, 5.651855%, 82.369995%)" offset="0.90625"/><stop stop-opacity="1" stop-color="rgb(30.94635%, 5.245972%, 82.65686%)" offset="0.910156"/><stop stop-opacity="1" stop-color="rgb(30.7724%, 4.841614%, 82.945251%)" offset="0.914062"/><stop stop-opacity="1" stop-color="rgb(30.59845%, 4.43573%, 83.233643%)" offset="0.917969"/><stop stop-opacity="1" stop-color="rgb(30.426025%, 4.031372%, 83.522034%)" offset="0.921875"/><stop stop-opacity="1" stop-color="rgb(30.311584%, 3.764343%, 83.709717%)" offset="0.925781"/><stop stop-opacity="1" stop-color="rgb(30.198669%, 3.49884%, 83.898926%)" offset="0.929688"/><stop stop-opacity="1" stop-color="rgb(30.198669%, 3.49884%, 83.898926%)" offset="0.9375"/><stop stop-opacity="1" stop-color="rgb(30.198669%, 3.49884%, 83.898926%)" offset="1"/></linearGradient><clipPath id="0cb872d19a"><path d="M 296 166 L 339.507812 166 L 339.507812 209 L 296 209 Z M 296 166 " clip-rule="nonzero"/></clipPath><clipPath id="89b086d25a"><path d="M 165 297 L 210 297 L 210 338.949219 L 165 338.949219 Z M 165 297 " clip-rule="nonzero"/></clipPath><clipPath id="25582edf2c"><path d="M 35.757812 166 L 80 166 L 80 208 L 35.757812 208 Z M 35.757812 166 " clip-rule="nonzero"/></clipPath></defs><g clip-path="url(#c6d4175fbb)"><rect x="-37.5" fill="url(#75ed8cc0be)" width="450" y="-37.499999" height="449.999989"/></g><path fill="#f69fd0" d="M 201.5625 77.347656 L 188.113281 67.757812 L 174.730469 77.441406 L 179.707031 61.703125 L 166.347656 51.980469 L 182.875 51.847656 L 188.003906 36.152344 L 193.238281 51.808594 L 209.765625 51.832031 L 196.476562 61.640625 Z M 201.5625 77.347656 " fill-opacity="1" fill-rule="evenodd"/><path fill="#f69fd0" d="M 135.667969 95.132812 L 122.214844 85.539062 L 108.832031 95.226562 L 113.808594 79.484375 L 100.449219 69.765625 L 116.980469 69.628906 L 122.105469 53.9375 L 127.339844 69.59375 L 143.871094 69.613281 L 130.578125 79.425781 Z M 135.667969 95.132812 " fill-opacity="1" fill-rule="evenodd"/><path fill="#f69fd0" d="M 265.84375 94.746094 L 252.390625 85.152344 L 239.007812 94.839844 L 243.988281 79.101562 L 230.628906 69.378906 L 247.15625 69.242188 L 252.28125 53.550781 L 257.515625 69.207031 L 274.046875 69.226562 L 260.753906 79.039062 Z M 265.84375 94.746094 " fill-opacity="1" fill-rule="evenodd"/><path fill="#f69fd0" d="M 313.546875 143.179688 L 300.097656 133.585938 L 286.714844 143.273438 L 291.691406 127.53125 L 278.332031 117.8125 L 294.859375 117.675781 L 299.988281 101.984375 L 305.222656 117.640625 L 321.75 117.660156 L 308.460938 127.472656 Z M 313.546875 143.179688 " fill-opacity="1" fill-rule="evenodd"/><g clip-path="url(#0cb872d19a)"><path fill="#f69fd0" d="M 331.332031 208.1875 L 317.882812 198.59375 L 304.496094 208.28125 L 309.476562 192.539062 L 296.117188 182.820312 L 312.644531 182.683594 L 317.769531 166.988281 L 323.007812 182.648438 L 339.535156 182.667969 L 326.242188 192.480469 Z M 331.332031 208.1875 " fill-opacity="1" fill-rule="evenodd"/></g><path fill="#f69fd0" d="M 313.546875 273.601562 L 300.097656 264.011719 L 286.714844 273.695312 L 291.691406 257.957031 L 278.332031 248.234375 L 294.859375 248.101562 L 299.988281 232.40625 L 305.222656 248.0625 L 321.75 248.085938 L 308.460938 257.894531 Z M 313.546875 273.601562 " fill-opacity="1" fill-rule="evenodd"/><path fill="#f69fd0" d="M 265.4375 321.246094 L 251.988281 311.652344 L 238.605469 321.339844 L 243.582031 305.597656 L 230.222656 295.878906 L 246.75 295.742188 L 251.875 280.050781 L 257.113281 295.707031 L 273.640625 295.726562 L 260.351562 305.539062 Z M 265.4375 321.246094 " fill-opacity="1" fill-rule="evenodd"/><g clip-path="url(#89b086d25a)"><path fill="#f69fd0" d="M 201.160156 338.609375 L 187.707031 329.019531 L 174.324219 338.703125 L 179.300781 322.964844 L 165.941406 313.242188 L 182.472656 313.105469 L 187.597656 297.414062 L 192.832031 313.070312 L 209.363281 313.09375 L 196.070312 322.902344 Z M 201.160156 338.609375 " fill-opacity="1" fill-rule="evenodd"/></g><path fill="#f69fd0" d="M 135.261719 320.84375 L 121.8125 311.25 L 108.429688 320.9375 L 113.40625 305.195312 L 100.046875 295.476562 L 116.574219 295.339844 L 121.703125 279.644531 L 126.9375 295.304688 L 143.464844 295.324219 L 130.175781 305.136719 Z M 135.261719 320.84375 " fill-opacity="1" fill-rule="evenodd"/><path fill="#f69fd0" d="M 88.363281 273.199219 L 74.914062 263.605469 L 61.53125 273.292969 L 66.507812 257.550781 L 53.148438 247.832031 L 69.675781 247.695312 L 74.804688 232.003906 L 80.039062 247.660156 L 96.566406 247.679688 L 83.277344 257.492188 Z M 88.363281 273.199219 " fill-opacity="1" fill-rule="evenodd"/><g clip-path="url(#25582edf2c)"><path fill="#f69fd0" d="M 70.984375 207.378906 L 57.535156 197.789062 L 44.152344 207.472656 L 49.128906 191.734375 L 35.769531 182.011719 L 52.296875 181.878906 L 57.421875 166.183594 L 62.660156 181.839844 L 79.1875 181.863281 L 65.898438 191.671875 Z M 70.984375 207.378906 " fill-opacity="1" fill-rule="evenodd"/></g><path fill="#f69fd0" d="M 89.582031 141.5625 L 76.132812 131.96875 L 62.746094 141.65625 L 67.726562 125.914062 L 54.367188 116.195312 L 70.894531 116.058594 L 76.019531 100.363281 L 81.257812 116.023438 L 97.785156 116.042969 L 84.492188 125.855469 Z M 89.582031 141.5625 " fill-opacity="1" fill-rule="evenodd"/></svg>