<svg xmlns="http://www.w3.org/2000/svg" xmlns:xlink="http://www.w3.org/1999/xlink" width="500" zoomAndPan="magnify" viewBox="0 0 375 374.999991" height="500" preserveAspectRatio="xMidYMid meet" version="1.0"><path fill="#9f299f" d="M 10.425781 134.148438 L 68.78125 121.394531 L 108.03125 165.464844 C 106.183594 173.207031 103.808594 188.160156 108.210938 205.929688 C 113.753906 228.273438 126.78125 242.257812 132.675781 247.800781 L 78.285156 271.816406 L 71.859375 331.367188 C 58.746094 320.550781 22.308594 287.738281 8.316406 231.351562 C -2.597656 187.457031 5.5 151.039062 10.425781 134.148438 Z M 10.425781 134.148438 " fill-opacity="1" fill-rule="nonzero"/><path fill="#9f60e2" d="M 184.339844 3.519531 L 213.824219 55.417969 L 183.371094 105.910156 C 175.449219 106.4375 160.488281 108.636719 144.734375 118.136719 C 125.019531 130.101562 115.515625 146.640625 111.992188 153.851562 C 98.96875 138.898438 85.941406 123.945312 72.917969 109.078125 L 14.125 120.691406 C 20.460938 105.03125 41.054688 60.519531 90.78125 30.4375 C 129.507812 6.949219 166.738281 3.871094 184.339844 3.519531 Z M 184.339844 3.519531 " fill-opacity="1" fill-rule="nonzero"/><path fill="#c59def" d="M 360.894531 127.726562 L 321.023438 172.148438 L 263.464844 159.308594 C 260.382812 152.003906 253.605469 138.457031 239.613281 126.582031 C 222.007812 111.71875 203.261719 108.023438 195.339844 106.878906 C 205.375 89.8125 215.410156 72.660156 225.441406 55.59375 L 195.695312 3.695312 C 212.59375 4.75 261.351562 10.027344 305.710938 47.675781 C 340.210938 76.882812 354.996094 111.1875 360.894531 127.726562 Z M 360.894531 127.726562 " fill-opacity="1" fill-rule="nonzero"/><path fill="#f973bf" d="M 296.203125 335.328125 L 241.902344 310.433594 L 237.058594 251.671875 C 243.132812 246.570312 254.046875 236.101562 261.261719 219.210938 C 270.328125 198.011719 268.214844 179.011719 266.894531 171.09375 C 286.171875 175.582031 305.535156 180.066406 324.808594 184.640625 L 365.734375 140.921875 C 369.695312 157.371094 379.113281 205.488281 356.40625 258.972656 C 338.714844 300.492188 310.285156 324.769531 296.203125 335.328125 Z M 296.203125 335.328125 " fill-opacity="1" fill-rule="nonzero"/><path fill="#5c2cbd" d="M 80.835938 337 L 87.261719 277.621094 L 141.476562 254.484375 C 148.253906 258.707031 161.632812 265.65625 179.941406 267.152344 C 202.910156 269 220.335938 261.082031 227.378906 257.300781 C 229.226562 277.003906 230.988281 296.796875 232.835938 316.503906 L 287.316406 341.484375 C 272.96875 350.457031 230.28125 374.558594 172.28125 369.898438 C 127.308594 366.292969 95.269531 347.027344 80.835938 337 Z M 80.835938 337 " fill-opacity="1" fill-rule="nonzero"/></svg>